<?xml version="1.0" encoding="UTF-8"?>
<svg width="752pt" height="752pt" version="1.1" viewBox="0 0 752 752" xmlns="http://www.w3.org/2000/svg">
 <g>
  <path d="m499.13 480.19h-217.85c-5.2305 0-9.4727-4.2383-9.4727-9.4688v-217.85c0-6.7695-3.6094-13.023-9.4688-16.406-5.8633-3.3828-13.082-3.3828-18.945 0-5.8594 3.3828-9.4727 9.6367-9.4727 16.406v217.85c0 12.559 4.9922 24.605 13.871 33.484 8.8828 8.8828 20.93 13.871 33.488 13.871h217.85c6.7656 0 13.02-3.6094 16.406-9.4688 3.3828-5.8633 3.3828-13.082 0-18.945-3.3867-5.8594-9.6406-9.4727-16.406-9.4727z"/>
  <path d="m518.07 366.53c0 10.461-8.4805 18.941-18.941 18.941-10.461 0-18.945-8.4805-18.945-18.941 0-10.465 8.4844-18.945 18.945-18.945 10.461 0 18.941 8.4805 18.941 18.945"/>
  <path d="m461.25 309.7c0 10.465-8.4805 18.945-18.941 18.945-10.465 0-18.945-8.4805-18.945-18.945 0-10.461 8.4805-18.941 18.945-18.941 10.461 0 18.941 8.4805 18.941 18.941"/>
  <path d="m347.59 309.7c0 10.465-8.4805 18.945-18.941 18.945-10.465 0-18.945-8.4805-18.945-18.945 0-10.461 8.4805-18.941 18.945-18.941 10.461 0 18.941 8.4805 18.941 18.941"/>
  <path d="m404.42 366.53c0 10.461-8.4844 18.941-18.945 18.941-10.461 0-18.941-8.4805-18.941-18.941 0-10.465 8.4805-18.945 18.941-18.945 10.461 0 18.945 8.4805 18.945 18.945"/>
  <path d="m347.59 423.36c0 10.461-8.4805 18.945-18.941 18.945-10.465 0-18.945-8.4844-18.945-18.945s8.4805-18.941 18.945-18.941c10.461 0 18.941 8.4805 18.941 18.941"/>
  <path d="m461.25 423.36c0 10.461-8.4805 18.945-18.941 18.945-10.465 0-18.945-8.4844-18.945-18.945s8.4805-18.941 18.945-18.941c10.461 0 18.941 8.4805 18.941 18.941"/>
  <path d="m518.07 252.87c0 10.461-8.4805 18.941-18.941 18.941-10.461 0-18.945-8.4805-18.945-18.941 0-10.461 8.4844-18.945 18.945-18.945 10.461 0 18.941 8.4844 18.941 18.945"/>
  <path d="m404.42 252.87c0 10.461-8.4844 18.941-18.945 18.941-10.461 0-18.941-8.4805-18.941-18.941 0-10.461 8.4805-18.945 18.941-18.945 10.461 0 18.945 8.4844 18.945 18.945"/>
 </g>
</svg>
