<?xml version="1.0" standalone="no"?>
<!DOCTYPE svg PUBLIC "-//W3C//DTD SVG 1.1//EN" "http://www.w3.org/Graphics/SVG/1.1/DTD/svg11.dtd">
<svg xmlns="http://www.w3.org/2000/svg">
<defs >
<font id="NotoSerif" horiz-adv-x="540" ><font-face
    font-family="Noto Serif Medium"
    units-per-em="1000"
    panose-1="2 2 5 2 6 5 5 9 2 4"
    ascent="1069"
    descent="-293"
    alphabetic="0" />
<glyph unicode=" " horiz-adv-x="260" />
<glyph unicode="!" horiz-adv-x="350" d="M129 208L203 714H335L187 208H129ZM128 -8Q100 -8 83 7T65 52Q65 94 88 115T141 136Q169 136 186 122T204 78Q204 48 193 29T164 1T128 -8Z" />
<glyph unicode="&quot;" horiz-adv-x="436" d="M137 468L158 714H278L188 468H137ZM333 468L354 714H474L385 468H333Z" />
<glyph unicode="#" horiz-adv-x="559" d="M60 0L119 202H24L31 264H137L194 456H83L90 518H212L269 714H333L275 518H405L462 714H525L468 518H561L554 456H449L394 264H503L496 202H374L315 0H252L311 202H182L123 0H60ZM201 264H331L387 456H257L201 264Z" />
<glyph unicode="$" horiz-adv-x="559" d="M202 37Q145 42 105 60T45 107T24 172Q24 203 37 221T71 247T111 256Q111 189 138 146T213 91L263 327Q222 349 191 373T144 430T127 504Q127 564 155 603T231 662T340 685L356 760H408L392 684Q439 681 472 668T522 634T540
584Q540 551 519 531T450 510Q450 535 445 560T424 606T381 635L332 406L347 399Q392 375 422 351T469 298T485 231Q485 170 455 128T372 62T253 36L229 -79H177L202 37ZM264 87Q320 91 350 123T381 202Q381 225 374 242T351 274T310 303L264 87ZM330 637Q301 634
279 620T243 581T230 523Q230 493 243 472T286 431L330 637Z" />
<glyph unicode="%" horiz-adv-x="896" d="M170 0L671 714H742L245 0H170ZM200 281Q140 281 104 319T68 436Q68 480 80 529T119 622T186 695T283 723Q355 723 387 680T419 567Q419 535 411 497T386 420T343 351T282 300T200 281ZM206 324Q230 324 250 342T285 390T310
454T326 522T331 582Q331 628 320 654T279 680Q255 680 235 662T200 615T175 551T160 483T155 423Q155 377 166 351T206 324ZM635 -9Q574 -9 538 30T502 147Q502 190 515 239T554 333T620 406T718 434Q789 434 821 391T854 278Q854 246 846 208T821 131T778 62T717
11T635 -9ZM640 35Q665 35 685 53T720 100T745 164T760 233T765 292Q765 339 754 364T714 391Q690 391 670 373T635 325T610 261T594 193T589 134Q589 87 600 61T640 35Z" />
<glyph unicode="&amp;" horiz-adv-x="758" d="M258 -10Q182 -10 133 15T59 82T35 177Q35 244 64 286T141 356T247 405Q224 443 212 480T199 552Q199 638 256 681T415 724Q504 724 545 687T587 594Q587 541 564 508T494 451T375 398L510 215Q532 255 546 299T570
384L578 422H763L753 377H744Q722 377 701 373T660 355T625 310Q610 277 591 240T548 164L605 87Q616 73 628 64T659 50T702 45H710L701 0H537L480 79Q439 41 386 16T258 -10ZM274 49Q328 49 370 70T446 125L278 358Q231 336 202 311T160 255T147 181Q147 143 161
114T205 67T274 49ZM346 441Q398 461 429 480T475 525T489 585Q489 624 469 648T408 672Q361 672 334 644T306 559Q306 531 315 503T346 441Z" />
<glyph unicode="&apos;" horiz-adv-x="239" d="M134 468L152 714H272L185 468H134Z" />
<glyph unicode="(" horiz-adv-x="361" d="M233 -131Q166 -104 124 -56T62 53T42 186Q42 278 65 370T136 542T254 680T423 763L413 713Q350 679 305 624T231 502T184 368T160 240T153 139Q153 97 161 56T189 -21T244 -80L233 -131Z" />
<glyph unicode=")" horiz-adv-x="361" d="M-38 -87Q25 -53 70 2T144 125T191 259T215 387T222 488Q222 530 214 571T186 648T131 707L142 758Q210 731 252 683T313 573T333 441Q333 349 310 257T239 85T121 -54T-48 -137L-38 -87Z" />
<glyph unicode="*" horiz-adv-x="533" d="M345 369L253 388L313 538L144 474L125 564L296 576L144 657L199 732L327 603L334 765L426 746L363 596L533 659L553 569L381 558L533 478L479 405L349 531L345 369Z" />
<glyph unicode="+" horiz-adv-x="559" d="M247 143V326H65V389H247V572H311V389H494V326H311V143H247Z" />
<glyph unicode="," horiz-adv-x="265" d="M-19 -102Q32 -91 58 -70T84 -19Q84 -4 74 4T52 21T31 41T21 73Q21 103 40 119T87 135Q120 135 143 113T167 50Q167 4 146 -36T83 -105T-25 -147L-19 -102Z" />
<glyph unicode="-" horiz-adv-x="310" d="M13 231L31 314H291L273 231H13Z" />
<glyph unicode="." horiz-adv-x="265" d="M91 -8Q63 -8 46 7T28 49Q28 93 51 114T104 136Q132 136 149 122T167 81Q167 49 156 30T128 1T91 -8Z" />
<glyph unicode="/" horiz-adv-x="288" d="M-96 -121L319 760H387L-29 -121H-96Z" />
<glyph unicode="0" horiz-adv-x="559" d="M236 -11Q148 -11 94 51T39 231Q39 293 51 361T87 494T147 611T232 694T346 725Q400 725 444 701T513 627T539 496Q539 435 528 366T494 231T434 109T349 22T236 -11ZM244 48Q284 48 315 79T368 163T405 278T426 404T433
519Q433 571 422 603T389 651T337 667Q297 667 267 636T213 553T176 439T155 314T147 198Q147 120 173 84T244 48Z" />
<glyph unicode="1" horiz-adv-x="559" d="M39 0L47 45H102Q125 45 144 50T177 71T197 115L275 482Q283 520 292 558T311 633H307Q257 584 223 557T157 529Q136 529 126 546T115 589Q138 595 162 603T214 627T281 666L362 718H439L311 113Q310 107 308 98T306 83Q306
59 327 52T379 45H431L422 0H39Z" />
<glyph unicode="2" horiz-adv-x="559" d="M-16 0L5 87L239 295Q307 355 343 401T394 488T408 572Q408 616 386 643T322 671Q281 671 254 650T211 593T189 515Q153 515 130 531T106 585Q106 621 131 652T207 704T328 724Q424 724 473 686T523 580Q523 545 510 512T470
445T404 372T313 288L84 88H316Q348 88 366 99T396 128T417 165L424 182H470L428 0H-16Z" />
<glyph unicode="3" horiz-adv-x="559" d="M196 -10Q123 -10 80 6T17 47T-2 99Q-2 136 22 156T83 176Q83 144 95 115T135 68T205 49Q247 49 282 68T338 123T359 215Q359 255 343 283T295 327T218 342H175L185 396H217Q273 396 317 419T386 484T412 581Q412 621
393 646T331 671Q289 671 262 650T220 596T197 522Q161 522 137 535T112 586Q112 627 142 658T224 706T339 724Q425 724 477 687T529 581Q529 535 507 492T440 418T328 375Q374 370 407 351T459 300T478 225Q478 159 453 114T385 41T294 2T196 -10Z" />
<glyph unicode="4" horiz-adv-x="559" d="M128 0L137 45H177Q199 45 218 49T253 69T274 117L341 436Q349 479 362 531T389 629Q377 611 360 587T326 540T296 504L55 219L40 252H530L518 193H-10L0 240L403 714H511L383 114Q382 108 381 99T379 85Q379 60 399 53T450
45H471L462 0H128Z" />
<glyph unicode="5" horiz-adv-x="559" d="M187 -10Q122 -10 83 4T26 42T9 95Q9 124 28 143T89 162Q90 136 98 110T130 66T198 49Q247 49 283 70T340 133T361 237Q361 304 325 337T235 371Q198 371 173 364T128 349L91 360L197 714H543L516 554H468Q469 568 470
582T471 602Q471 613 462 619T425 626H228L165 413Q182 418 205 423T263 429Q361 429 419 382T477 244Q477 172 443 115T343 24T187 -10Z" />
<glyph unicode="6" horiz-adv-x="559" d="M251 -10Q198 -10 154 17T84 97T58 232Q58 307 73 378T118 512T191 622T288 697T408 724Q460 724 494 711T546 677T564 631Q564 594 539 574T467 553Q467 584 463 611T445 655T401 673Q353 673 313 641T241 544T186 384Q209
400 246 417T333 435Q391 435 428 411T484 348T502 260Q502 207 487 159T440 72T362 12T251 -10ZM259 48Q299 48 328 75T374 148T391 253Q391 315 370 348T306 381Q269 381 234 363T175 325Q168 287 165 256T161 196Q161 119 187 84T259 48Z" />
<glyph unicode="7" horiz-adv-x="559" d="M80 0L457 626H222Q204 626 190 620T167 603T153 575L139 525H92L135 714H590L583 677L185 0H80Z" />
<glyph unicode="8" horiz-adv-x="559" d="M236 -10Q166 -10 116 12T38 73T11 162Q11 218 36 255T106 317T209 364Q163 396 137 440T111 533Q111 586 136 629T214 698T354 724Q445 724 493 683T542 578Q542 528 521 492T461 430T370 382Q425 349 460 306T495 202Q495
129 461 82T368 13T236 -10ZM241 41Q281 41 314 56T368 102T389 177Q389 212 374 239T331 289T258 335Q215 318 184 294T135 237T118 159Q118 106 150 74T241 41ZM318 407Q388 439 415 479T443 571Q443 614 420 643T347 672Q309 672 280 656T235 612T219 543Q219
501 243 469T318 407Z" />
<glyph unicode="9" horiz-adv-x="559" d="M176 -10Q123 -10 92 3T47 38T33 84Q33 111 50 128T97 145Q98 121 107 98T135 59T185 43Q236 43 273 78T340 180T395 343Q378 326 356 310T306 285T243 275Q189 275 152 296T94 355T74 441Q74 504 95 555T154 645T240
703T343 724Q400 724 442 701T507 634T530 527Q530 480 522 423T496 305T451 188T384 88T294 17T176 -10ZM275 335Q306 336 331 348T377 379T411 418Q417 443 421 477T426 533Q426 604 402 635T339 666Q306 666 278 647T230 595T198 522T187 440Q187 406 197 382T228
347T275 335Z" />
<glyph unicode=":" horiz-adv-x="306" d="M188 396Q160 396 143 411T125 456Q125 499 148 519T201 540Q229 540 246 526T264 482Q264 452 253 433T224 405T188 396ZM98 -8Q70 -8 53 7T35 52Q35 94 58 115T111 136Q139 136 156 122T174 78Q174 48 163 29T135 1T98 -8Z" />
<glyph unicode=";" horiz-adv-x="306" d="M-3 -102Q47 -91 73 -70T99 -19Q99 -4 90 4T68 21T47 41T37 73Q37 103 56 119T102 135Q136 135 159 113T183 50Q183 4 162 -36T99 -105T-9 -147L-3 -102ZM188 396Q160 396 143 411T125 456Q125 499 148 519T201 540Q229
540 246 526T264 482Q264 452 253 433T224 405T188 396Z" />
<glyph unicode="&lt;" horiz-adv-x="559" d="M494 108L65 339V376L494 608V537L162 357L494 179V108Z" />
<glyph unicode="=" horiz-adv-x="559" d="M64 424V486H495V424H64ZM64 228V290H495V228H64Z" />
<glyph unicode="&gt;" horiz-adv-x="559" d="M65 108V179L397 357L65 537V608L494 376V339L65 108Z" />
<glyph unicode="?" horiz-adv-x="510" d="M214 350Q275 373 320 402T390 471T415 564Q415 616 390 643T325 671Q286 671 263 651T227 599T209 528Q167 528 145 545T123 593Q123 628 148 658T220 706T333 724Q423 724 476 684T529 558Q529 500 497 455T409 377T282
317L253 208H195L214 350ZM196 -8Q168 -8 151 7T133 52Q133 94 156 115T209 136Q237 136 254 122T272 78Q272 48 261 29T233 1T196 -8Z" />
<glyph unicode="@" horiz-adv-x="921" d="M439 -142Q358 -142 288 -120T167 -51T88 64T59 225Q59 330 93 419T190 574T339 677T528 714Q641 714 717 671T831 556T870 392Q870 295 842 224T768 115T671 77Q627 77 597 100T552 169H546Q525 130 494 104T410 77Q370
77 335 95T279 152T257 248Q257 288 271 336T316 429T396 501T516 529Q549 529 572 520T612 499L652 520H676L628 266Q626 258 624 238T621 199Q621 175 629 160T650 138T678 131Q707 131 736 161T784 251T803 393Q803 482 767 542T668 632T522 663Q449 663 382
633T260 546T175 408T143 225Q143 141 167 81T234 -17T332 -72T450 -90Q505 -90 552 -78T639 -47T709 -7L732 -44Q698 -69 654 -91T556 -128T439 -142ZM431 131Q464 131 484 149T517 196T534 254L573 458Q567 472 551 479T518 487Q483 487 457 469T412 423T382
360T364 294T358 235Q358 184 378 158T431 131Z" />
<glyph unicode="A" horiz-adv-x="718" d="M-54 0L-45 45H-26Q-6 45 7 51T33 74T66 123L412 714H506L598 103Q601 82 607 70T626 51T658 45H672L663 0H375L384 45H407Q439 45 458 57T478 94Q478 102 478 111T476 127L431 464Q425 508 421 546T415 620Q405 596 394
574T370 528T339 473L146 137Q136 119 132 106T127 81Q127 62 141 54T183 45H205L197 0H-54ZM182 238V291H515V238H182Z" />
<glyph unicode="B" horiz-adv-x="659" d="M-22 0L-13 45H0Q23 45 42 49T76 69T97 114L199 594Q201 604 202 614T204 630Q204 655 183 662T133 669H120L129 714H402Q518 714 577 676T636 564Q636 509 615 472T556 412T473 378L472 374Q526 364 560 328T594 228Q594
155 562 104T465 27T306 0H-22ZM289 53Q387 53 429 99T471 235Q471 291 439 319T341 347H263L200 53H289ZM345 401Q404 401 440 418T494 468T511 550Q511 605 479 633T385 661H329L274 401H345Z" />
<glyph unicode="C" horiz-adv-x="638" d="M338 -10Q249 -10 186 21T89 113T55 258Q55 348 84 431T169 581T302 686T475 725Q567 725 615 694T664 612Q664 574 634 553T554 531Q554 552 551 575T537 620T509 655T458 669Q405 669 362 643T284 573T227 474T192 359T180
245Q180 187 199 146T258 82T356 60Q427 60 471 88T540 151Q546 147 550 138T554 118Q554 90 531 60T461 10T338 -10Z" />
<glyph unicode="D" horiz-adv-x="737" d="M-22 0L-13 45H0Q23 45 42 49T76 69T97 114L201 604Q203 610 204 617T205 631Q205 656 183 662T133 669H120L129 714H420Q557 714 633 645T709 442Q709 353 683 273T605 132T478 35T303 0H-22ZM276 54Q348 54 405 83T503
165T563 291T584 452Q584 561 534 611T398 661H330L200 54H276Z" />
<glyph unicode="E" horiz-adv-x="626" d="M-22 0L-13 45H0Q22 45 41 49T75 67T96 110L200 601Q202 608 202 614T203 625Q203 654 183 661T133 669H120L129 714H644L611 536H554Q555 541 556 554T558 579T559 594Q559 622 543 641T488 661H330L274 399H511L500
347H263L200 53H383Q415 53 437 64T473 94T496 135L512 178H569L525 0H-22Z" />
<glyph unicode="F" horiz-adv-x="599" d="M-22 0L-13 45H0Q22 45 41 49T75 68T96 110L200 601Q202 609 203 618T205 631Q205 656 185 662T133 669H120L129 714H646L613 536H556Q557 547 558 559T560 582T561 594Q561 623 545 642T486 661H330L269 376H509L498
325H258L213 115Q212 107 211 100T210 89Q210 60 230 53T280 45H307L299 0H-22Z" />
<glyph unicode="G" horiz-adv-x="737" d="M346 -10Q202 -10 129 62T55 258Q55 355 86 439T176 588T315 688T494 724Q567 724 614 709T686 669T710 613Q710 587 694 569T652 540T593 530Q593 590 564 629T470 668Q408 668 355 634T263 540T201 404T179 243Q179
187 197 144T256 75T361 50Q388 50 417 54T467 64L500 220Q502 228 503 237T505 250Q505 275 484 281T433 288H422L432 333H716L707 288H703Q684 288 667 284T636 265T616 219L578 36Q522 13 468 2T346 -10Z" />
<glyph unicode="H" horiz-adv-x="800" d="M-22 0L-13 45H0Q23 45 42 49T76 69T97 114L200 601Q202 609 203 618T205 631Q205 646 197 654T172 666T133 669H120L129 714H435L426 669H413Q391 669 371 665T337 646T316 600L274 399H581L624 602Q626 609 627 618T629
631Q629 654 610 661T556 669H543L553 714H859L849 669H836Q815 669 795 665T761 646T740 600L636 110Q635 104 634 96T632 83Q632 68 641 60T665 49T704 45H717L708 0H402L411 45H424Q447 45 466 49T500 69T521 114L569 346H262L212 110Q211 104 210 96T208 83Q208
60 227 53T281 45H294L284 0H-22Z" />
<glyph unicode="I" horiz-adv-x="376" d="M-22 0L-13 45H0Q23 45 42 49T76 69T97 114L201 602Q203 609 204 618T205 631Q205 656 185 662T133 669H120L129 714H435L426 669H413Q391 669 371 665T337 646T316 600L212 110Q211 104 210 96T208 83Q208 59 228 52T281
45H294L284 0H-22Z" />
<glyph unicode="J" horiz-adv-x="369" d="M-74 -240Q-101 -240 -119 -237T-156 -229L-142 -181Q-129 -185 -111 -187T-77 -190Q-42 -190 -15 -174T32 -117T67 -7L197 604Q199 610 200 618T201 631Q201 656 181 662T129 669H116L125 714H431L422 669H409Q387 669
367 665T333 646T312 600L183 -7Q166 -86 132 -138T46 -215T-74 -240Z" />
<glyph unicode="K" horiz-adv-x="711" d="M-22 0L-13 45H0Q23 45 42 49T75 69T97 114L200 601Q202 609 203 618T205 631Q205 656 185 662T133 669H120L129 714H435L426 669H413Q391 669 371 665T337 646T316 600L258 335L501 556Q528 580 544 597T567 626T574
647Q574 660 565 665T530 670L539 714H773L764 670Q746 670 729 664T693 646T653 618T608 579L393 385L416 460L552 131Q564 101 577 83T608 55T647 45H650L640 0H616Q570 0 539 5T488 22T454 54T428 105L321 379L380 367L246 273L212 110Q211 104 210 96T208 83Q208
59 229 52T281 45H294L284 0H-22Z" />
<glyph unicode="L" horiz-adv-x="632" d="M-21 0L-11 45H2Q23 45 42 49T76 69T97 114L200 601Q202 609 203 618T205 631Q205 656 185 662T133 669H120L129 714H435L426 669H413Q391 669 372 665T338 646T317 603L200 53H389Q422 53 443 66T479 101T502 148L526
217H581L528 0H-21Z" />
<glyph unicode="M" horiz-adv-x="942" d="M-21 0L-11 45H2Q23 45 42 49T75 67T96 110L200 601Q202 609 203 618T205 631Q205 656 185 662T133 669H120L129 714H371L451 167L760 714H1001L991 669H978Q957 669 937 665T903 646T882 600L778 110Q777 104 776 96T774
83Q774 59 794 52T846 45H859L850 0H563L573 45H578Q600 45 617 49T646 67T666 107L778 632L422 0H364L271 632L161 112Q160 105 159 97T157 83Q157 59 177 52T229 45H239L230 0H-21Z" />
<glyph unicode="N" horiz-adv-x="770" d="M-21 0L-11 45H2Q23 45 42 49T76 69T97 114L200 601Q202 609 203 618T205 631Q205 656 185 662T133 669H120L129 714H322L565 173L656 602Q658 609 659 618T660 631Q660 656 640 662T588 669H578L587 714H839L829 669H816Q794
669 775 665T742 646T720 600L593 0H521L260 580L161 112Q160 105 159 97T157 83Q157 59 177 52T229 45H239L230 0H-21Z" />
<glyph unicode="O" horiz-adv-x="756" d="M322 -11Q246 -11 186 20T90 114T55 266Q55 324 71 387T121 510T202 618T316 696T462 725Q533 725 593 696T689 607T726 450Q726 395 710 332T662 209T582 98T469 19T322 -11ZM332 47Q387 47 431 75T507 151T560 255T591
369T602 476Q602 543 582 585T529 648T451 668Q395 668 351 640T275 564T221 460T190 346T179 239Q179 172 199 130T254 67T332 47Z" />
<glyph unicode="P" horiz-adv-x="632" d="M-21 0L-11 45H2Q23 45 42 50T76 69T97 114L200 601Q202 609 203 618T205 631Q205 656 185 662T133 669H120L129 714H393Q502 714 565 665T629 521Q629 482 617 440T573 361T480 301T323 277H248L212 110Q211 104 210
96T208 83Q208 59 228 52T281 45H314L304 0H-21ZM309 327Q382 327 425 351T488 419T507 519Q507 597 471 630T370 663H330L259 327H309Z" />
<glyph unicode="Q" horiz-adv-x="754" d="M460 -230Q408 -230 372 -214T311 -169T275 -98T261 -5Q201 5 155 40T82 131T55 266Q55 324 71 387T120 510T202 618T316 696T462 725Q532 725 592 696T689 607T726 450Q726 399 713 342T672 228T605 123T510 41T386 -5Q389
-69 402 -107T438 -161T492 -178Q511 -178 524 -176T550 -171L557 -214Q537 -220 515 -225T460 -230ZM331 47Q387 47 430 75T506 151T560 255T591 369T601 476Q601 543 582 585T528 648T450 668Q395 668 351 640T274 564T221 460T190 346T179 239Q179 172 199 130T254
67T331 47Z" />
<glyph unicode="R" horiz-adv-x="676" d="M-21 0L-11 45H2Q23 45 42 49T75 67T96 110L200 601Q202 609 203 618T205 631Q205 656 185 662T133 669H120L129 714H407Q525 714 582 672T639 545Q639 494 623 458T579 397T520 359T456 337L527 130Q543 86 561 66T613
45H620L611 0H599Q538 0 501 9T442 44T406 116L347 314H256L213 115Q211 105 210 97T208 83Q208 59 229 52T281 45H314L304 0H-21ZM339 364Q389 364 429 381T492 437T515 537Q515 607 486 635T393 663H330L266 364H339Z" />
<glyph unicode="S" horiz-adv-x="556" d="M238 -10Q162 -10 111 9T35 62T9 134Q9 174 36 194T101 215Q101 165 117 126T166 65T247 42Q314 42 352 76T390 164Q390 194 381 217T345 264T265 318Q198 355 159 403T119 528Q119 586 148 630T233 699T366 724Q428 724
472 710T541 672T565 615Q565 581 541 561T465 541Q465 569 456 599T424 650T358 671Q325 671 296 658T248 619T229 551Q229 515 242 491T285 446T355 401Q406 373 438 343T487 279T503 204Q503 135 471 88T380 15T238 -10Z" />
<glyph unicode="T" horiz-adv-x="624" d="M95 0L105 45H125Q147 45 166 49T200 67T220 110L337 661H245Q215 661 196 650T164 620T144 577L130 534H74L117 714H696L663 534H607Q607 537 608 547T610 568T612 589T613 600Q613 626 599 643T546 661H454L336 110Q335
104 334 96T332 83Q332 67 341 59T367 48T405 45H425L415 0H95Z" />
<glyph unicode="U" horiz-adv-x="735" d="M328 -10Q217 -10 157 35T97 163Q97 179 100 207T108 252L182 601Q184 609 185 618T186 631Q186 656 166 662T114 669H101L111 714H417L408 669H395Q373 669 354 665T320 646T298 601L223 248Q218 225 215 201T211 156Q211
106 247 80T349 53Q413 53 451 74T509 132T540 214L623 602Q625 609 626 618T627 631Q627 656 607 662T555 669H542L551 714H805L797 669H784Q762 669 743 665T708 646T687 600L604 208Q589 140 556 91T466 16T328 -10Z" />
<glyph unicode="V" horiz-adv-x="681" d="M157 617Q154 638 147 649T128 665T96 669H83L92 714H380L372 669H349Q317 669 297 657T277 621Q277 613 277 604T279 587L317 279Q320 258 321 236T324 193T325 151T326 114Q341 148 359 186T398 261L576 581Q586 599
590 612T595 636Q595 654 581 661T538 669H515L524 714H775L765 669H745Q726 669 712 664T686 642T655 594L322 0H241L157 617Z" />
<glyph unicode="W" horiz-adv-x="1051" d="M162 617Q160 638 153 649T133 665T101 669H88L98 714H385L375 669H352Q320 669 301 657T281 621Q281 613 281 603T283 584L306 284Q307 264 308 242T311 197T312 154T313 115Q328 152 346 194T387 278L600 707H673L712
288Q717 240 719 195T721 115Q731 139 742 166T766 223T796 285L942 581Q950 598 955 612T960 636Q960 654 947 661T904 669H880L889 714H1137L1128 669H1107Q1088 669 1074 664T1046 642T1017 592L726 0H628L576 533L315 0H215L162 617Z" />
<glyph unicode="X" horiz-adv-x="680" d="M-47 0L-38 45H-32Q-12 45 5 51T42 74T86 117L343 392L324 312L199 618Q191 638 180 649T154 664T121 669H109L118 714H406L396 669H373Q348 669 337 662T326 641Q326 631 331 617T344 581L418 399L365 402L523 580Q538
596 549 613T561 644Q561 657 549 663T513 669H510L519 714H742L732 669H723Q708 669 696 665T671 653T644 630T610 595L386 350L404 432L543 98Q552 78 563 66T587 50T612 45H625L615 0H328L338 45H350Q380 45 396 55T412 80Q412 94 408 108T393 149L312 345L364
341L183 142Q165 123 154 105T143 73Q143 59 155 52T201 45H204L194 0H-47Z" />
<glyph unicode="Y" horiz-adv-x="644" d="M102 0L112 45H136Q158 45 177 49T210 67T231 110L267 282L153 616Q146 635 140 646T123 663T93 669H80L90 714H375L365 669H317Q296 669 286 662T275 641Q275 634 276 625T281 605T288 581L331 446Q341 415 348 382T356
324Q367 345 387 372T433 436L528 564Q539 580 546 593T558 619T562 643Q562 657 551 663T510 669H478L488 714H739L729 669H710Q695 669 682 662T655 638T621 596L384 280L347 110Q346 104 345 96T343 83Q343 59 364 52T416 45H439L429 0H102Z" />
<glyph unicode="Z" horiz-adv-x="622" d="M-13 0L-5 43L496 661H279Q249 661 229 650T197 621T175 578L161 530H103L147 714H651L643 670L142 53H392Q423 53 444 64T479 95T501 142L514 184H572L528 0H-13Z" />
<glyph unicode="[" horiz-adv-x="375" d="M9 -128L198 760H436L427 715H384Q362 715 342 710T308 690T286 643L146 -14Q145 -20 144 -28T143 -41Q143 -68 163 -75T214 -83H257L247 -128H9Z" />
<glyph unicode="\" horiz-adv-x="288" d="M157 -121L112 760H173L219 -121H157Z" />
<glyph unicode="]" horiz-adv-x="375" d="M-49 -128L-39 -83H4Q26 -83 45 -78T79 -58T100 -11L240 646Q242 652 243 660T244 673Q244 700 224 707T173 715H130L139 760H377L188 -128H-49Z" />
<glyph unicode="^" horiz-adv-x="559" d="M50 265L260 714H297L508 265H438L278 617L120 265H50Z" />
<glyph unicode="_" horiz-adv-x="459" d="M-91 -142L-78 -83H390L377 -142H-91Z" />
<glyph unicode="`" horiz-adv-x="294" d="M282 606Q265 620 245 639T207 679T172 720T144 756L147 766H260Q268 745 280 718T305 665T329 619L326 606H282Z" />
<glyph unicode="a" horiz-adv-x="603" d="M175 -10Q130 -10 101 14T57 79T42 173Q42 220 54 271T92 371T154 459T238 522T345 546Q369 546 392 542T435 529T468 510L515 535H552L485 217Q483 206 479 186T472 144T469 108Q469 83 478 70T503 57Q519 57 535 64T571
82L590 50Q575 37 551 23T500 0T444 -10Q406 -10 384 11T361 72Q361 91 363 107T370 147H363Q340 97 313 62T252 9T175 -10ZM218 58Q243 58 269 77T319 130T361 204T388 288L425 462Q414 479 394 487T352 496Q313 496 283 474T229 416T189 336T166 249T158 170Q158
109 175 84T218 58Z" />
<glyph unicode="b" horiz-adv-x="579" d="M232 -10Q194 -10 162 1T112 26L64 -3H25L158 619Q162 637 164 651T166 669Q166 698 148 706T101 715H89L98 760H302L256 545Q253 531 248 511T236 470T224 431T214 402H219Q243 449 270 481T330 529T404 546Q465 546
501 500T537 365Q537 316 524 264T485 163T422 75T337 13T232 -10ZM228 40Q266 40 297 62T351 122T390 203T413 288T421 364Q421 426 403 452T361 478Q336 478 313 462T270 420T235 366T210 312T196 270L153 74Q166 59 185 50T228 40Z" />
<glyph unicode="c" horiz-adv-x="498" d="M244 -10Q189 -10 143 13T70 81T42 197Q42 241 55 289T92 383T154 466T240 524T349 546Q400 546 433 532T482 496T498 447Q498 428 487 411T455 384T400 373Q400 423 382 459T324 495Q294 495 269 474T223 419T189 344T168
263T160 191Q160 127 188 92T270 57Q323 57 357 80T413 131Q418 128 421 120T424 101Q424 78 405 52T347 8T244 -10Z" />
<glyph unicode="d" horiz-adv-x="603" d="M176 -10Q130 -10 100 14T56 80T42 173Q42 220 54 271T92 371T154 459T237 522T343 546Q372 546 397 539T442 521Q444 534 447 552T452 579L462 625Q465 639 467 651T469 669Q469 699 451 707T404 715H392L401 760H600L484
215Q482 203 478 183T472 141T469 107Q469 82 478 70T503 57Q519 57 536 64T571 82L590 50Q575 37 551 23T500 0T444 -10Q406 -10 384 11T361 72Q361 87 363 106T370 147H364Q329 70 283 30T176 -10ZM218 58Q243 58 269 77T319 130T361 204T388 288L425 462Q414
479 394 487T352 496Q313 496 283 474T229 416T189 336T166 249T158 170Q158 109 175 84T218 58Z" />
<glyph unicode="e" horiz-adv-x="505" d="M245 -10Q190 -10 144 13T70 81T42 197Q42 241 55 289T93 383T155 466T242 524T351 546Q417 546 453 516T489 430Q489 378 452 332T348 258T197 229H162Q161 219 161 209T160 188Q160 126 187 92T269 57Q318 57 355 80T414
131Q425 122 425 101Q425 79 406 53T347 9T245 -10ZM180 278Q236 278 280 297T349 349T375 428Q375 461 361 478T319 495Q293 495 269 476T225 425T192 355T170 278H180Z" />
<glyph unicode="f" horiz-adv-x="342" d="M-81 -240Q-96 -240 -113 -238T-140 -232L-130 -183Q-122 -185 -109 -187T-84 -190Q-51 -190 -29 -172T11 -115T42 -9L146 476H55L62 515L158 536L168 586Q187 676 235 723T371 770Q439 770 473 749T508 692Q508 659 485
643T416 626Q416 664 407 692T367 720Q331 720 312 691T281 600L268 536H383L371 476H255L154 0Q139 -71 116 -117T62 -190T-4 -228T-81 -240Z" />
<glyph unicode="g" horiz-adv-x="563" d="M179 -240Q104 -240 55 -225T-17 -181T-41 -111Q-41 -70 -18 -42T42 3T121 29Q102 38 87 57T72 101Q72 133 94 155T171 206Q138 221 120 251T101 325Q101 360 115 398T158 470T232 525T338 546Q368 546 395 539T443 514Q464
543 491 563T554 584Q580 584 593 571T606 536Q606 522 601 507T582 482T546 472Q546 488 539 499T516 510Q502 510 490 503T468 488Q479 473 484 453T490 410Q490 377 477 339T435 266T362 211T258 189Q253 189 246 189T233 189T221 191Q199 181 177 167T154 131Q154
115 169 109T206 101L306 91Q380 84 420 52T461 -42Q461 -87 444 -123T390 -186T302 -226T179 -240ZM186 -188Q251 -188 289 -173T345 -131T363 -75Q363 -44 341 -26T269 -4L175 5Q142 1 114 -12T68 -49T50 -105Q50 -128 62 -147T105 -177T186 -188ZM267 241Q299
241 321 259T359 305T381 363T388 417Q388 458 371 477T323 496Q291 496 269 478T231 432T209 374T202 319Q202 278 219 260T267 241Z" />
<glyph unicode="h" horiz-adv-x="615" d="M467 -10Q420 -10 395 18T369 91Q369 114 373 146T387 221L404 300Q407 313 412 334T420 377T424 417Q424 436 416 455T379 475Q350 475 321 452T266 393T224 318T200 249L146 0H38L168 619Q173 637 175 651T177 669Q177
689 169 698T145 711T111 715H100L109 760H309L268 566Q258 522 247 479T231 415H240Q281 480 325 512T428 545Q469 545 492 530T526 489T537 433Q537 408 531 378T519 322L494 207Q488 180 485 154T481 105Q481 82 490 70T516 58Q532 58 546 64T578 81L598 50Q574
29 543 10T467 -10Z" />
<glyph unicode="i" horiz-adv-x="318" d="M163 -10Q119 -10 95 18T70 87Q70 106 73 132T81 185T91 234L130 418Q132 428 133 436T134 449Q134 476 119 483T75 491H61L70 536H265L196 214Q194 201 190 181T184 141T182 107Q182 83 190 71T215 58Q232 58 248 65T284
83L303 52Q281 32 244 11T163 -10ZM227 633Q200 633 183 647T165 690Q165 713 174 729T198 754T234 763Q260 763 278 750T296 706Q296 680 286 664T260 641T227 633Z" />
<glyph unicode="j" horiz-adv-x="304" d="M-71 -240Q-90 -240 -108 -237T-140 -231L-130 -183Q-122 -185 -109 -187T-84 -190Q-52 -190 -30 -173T9 -115T40 -8L130 418Q133 428 134 436T135 449Q135 476 120 483T76 491H61L71 536H265L150 -8Q136 -75 115 -119T65
-190T3 -228T-71 -240ZM227 633Q200 633 183 647T165 690Q165 713 174 729T199 754T235 763Q261 763 279 750T297 706Q297 667 275 650T227 633Z" />
<glyph unicode="k" horiz-adv-x="577" d="M513 -5Q460 -4 426 5T370 35T332 95L254 287L313 278L188 198L146 0H38L168 619Q173 637 175 651T177 669Q177 699 159 707T111 715H100L109 760H309L266 559Q259 529 251 489T232 404T212 321T193 253L352 392Q376 414
389 428T409 452T415 471Q415 480 411 484T397 490T370 492L379 536H609L600 492Q577 492 552 482T500 451T439 401L313 284L333 359L438 131Q452 101 467 81T500 51T541 40L532 -5H513Z" />
<glyph unicode="l" horiz-adv-x="318" d="M160 -10Q115 -10 91 18T67 87Q67 106 70 132T78 185T87 234L170 625Q173 639 175 652T177 669Q177 699 159 707T111 715H97L106 760H309L193 214Q190 201 187 181T180 141T177 107Q177 83 186 71T211 58Q227 58 244 65T279
83L299 52Q276 32 239 11T160 -10Z" />
<glyph unicode="m" horiz-adv-x="916" d="M769 -9Q737 -9 715 4T682 39T670 92Q670 115 674 146T688 222L705 301Q708 314 713 335T721 378T725 418Q725 437 717 456T681 476Q659 476 637 463T595 426T558 376T528 321T508 267L495 204Q492 189 487 161T478 101T470
41T466 0H355Q355 14 358 42T367 103T378 169T389 224L406 300Q410 318 414 339T422 382T426 417Q426 437 419 456T383 475Q354 475 325 453T271 395T229 322T205 255L151 0H42L126 401Q129 414 130 427T132 445Q132 475 114 483T67 491H56L65 536H263L238 417H248Q288
481 331 513T431 545Q472 545 495 530T528 490T539 434Q539 430 539 425T538 415H547Q586 480 629 513T731 546Q771 546 794 531T828 490T839 434Q839 409 833 379T821 323L795 208Q789 180 786 154T782 106Q782 83 791 71T817 59Q833 59 848 65T880 82L899 51Q875
30 844 11T769 -9Z" />
<glyph unicode="n" horiz-adv-x="619" d="M472 -10Q424 -10 399 18T373 91Q373 114 377 146T391 221L408 300Q411 313 415 334T424 377T428 417Q428 436 420 455T383 475Q354 475 325 452T270 393T228 318T204 249L151 0H42L126 401Q129 415 130 428T132 445Q132
475 114 483T67 491H56L65 536H260L238 415H247Q287 480 330 512T432 545Q473 545 496 530T530 489T541 433Q541 408 535 378T523 322L498 207Q492 180 489 154T485 105Q485 82 494 70T520 58Q536 58 551 64T583 81L602 50Q578 29 547 10T472 -10Z" />
<glyph unicode="o" horiz-adv-x="586" d="M240 -10Q152 -10 97 41T42 198Q42 242 54 290T90 384T150 466T236 524T348 546Q403 546 447 525T517 458T544 338Q544 295 533 248T498 154T438 72T353 13T240 -10ZM253 47Q290 47 318 68T367 123T401 199T420 282T426
359Q426 430 402 460T335 491Q298 491 270 470T220 415T186 339T167 256T160 178Q160 131 171 102T203 60T253 47Z" />
<glyph unicode="p" horiz-adv-x="590" d="M120 395Q125 413 127 427T129 445Q129 475 111 483T64 491H53L62 536H249L225 403H230Q251 443 276 475T336 527T415 546Q478 546 513 500T548 365Q548 322 536 272T500 171T440 80T356 15T246 -10Q217 -10 192 -4T147
13Q146 5 144 -9T139 -35L125 -98Q124 -106 121 -123T117 -150Q117 -179 135 -187T182 -195H202L193 -240H-13L120 395ZM241 40Q277 40 307 61T361 119T400 198T424 284T432 364Q432 392 427 418T409 461T371 478Q349 478 327 464T286 427T250 374T222 316T204
261L164 74Q173 64 193 52T241 40Z" />
<glyph unicode="q" horiz-adv-x="580" d="M327 -40Q330 -24 336 3T350 60T362 113T370 147H364Q344 105 318 69T258 12T175 -10Q115 -10 79 36T42 173Q42 220 55 271T93 371T154 459T238 522T343 546Q374 546 408 538T464 517L516 546H555L417 -105Q414 -119 413
-132T411 -152Q411 -178 429 -186T476 -195H492L483 -240H286L327 -40ZM218 58Q244 58 270 78T320 132T362 207T388 288L425 462Q418 475 399 485T352 496Q312 496 281 473T227 413T188 331T166 245T158 170Q158 109 175 84T218 58Z" />
<glyph unicode="r" horiz-adv-x="491" d="M126 402Q129 414 130 428T132 447Q132 474 111 482T60 491H49L58 536H247L226 394H235Q255 437 277 471T331 526T408 546Q453 546 474 527T496 475Q496 435 474 413T404 391Q404 430 395 453T361 476Q336 476 311 450T262
380T219 284T189 180L151 0H42L126 402Z" />
<glyph unicode="s" horiz-adv-x="478" d="M194 -10Q142 -10 104 3T44 42T23 102Q23 130 35 145T64 167T98 173Q98 138 108 108T143 60T208 41Q239 41 263 51T299 80T312 129Q312 164 288 188T208 237Q152 264 119 299T85 394Q85 438 109 472T179 525T287 545Q346
545 381 532T434 496T451 451Q451 417 428 401T365 385Q365 412 357 437T330 480T278 497Q235 497 210 474T185 415Q185 381 210 360T290 314Q348 287 379 251T411 157Q411 108 386 70T312 11T194 -10Z" />
<glyph unicode="t" horiz-adv-x="382" d="M187 -10Q151 -10 126 3T86 42T72 107Q72 125 75 148T82 191L143 476H67L76 519Q97 519 119 526T163 550T205 593T243 659H292L266 536H387L374 476H253L192 194Q187 170 184 149T181 112Q181 84 195 71T233 58Q255 58
276 65T314 81L333 44Q302 21 266 6T187 -10Z" />
<glyph unicode="u" horiz-adv-x="619" d="M469 -10Q438 -10 418 3T387 37T376 85Q376 95 377 111T381 140H373Q345 96 318 63T257 10T177 -9Q137 -9 113 6T79 47T68 102Q68 127 74 157T86 212L124 387Q127 403 130 423T133 448Q133 475 115 483T68 491H57L66 536H267L201
237Q195 211 189 176T182 120Q182 96 191 80T229 63Q255 63 282 83T334 136T379 210T407 291L460 536H571L502 214Q500 201 496 181T490 141T488 107Q488 83 496 71T521 58Q538 58 551 63T584 80L603 50Q581 29 547 10T469 -10Z" />
<glyph unicode="v" horiz-adv-x="551" d="M96 438Q93 459 84 470T61 486T27 491H17L26 536H189L235 240Q240 207 244 174T251 113T256 69H259Q294 104 327 146T385 232T425 316T440 386Q440 421 422 440T376 459Q376 500 398 521T449 542Q481 542 500 521T519
449Q519 402 502 351T456 250T395 153T329 67T268 1L166 -9L96 438Z" />
<glyph unicode="w" horiz-adv-x="834" d="M454 -10Q454 27 453 73T450 170T447 266T444 352T441 415Q434 396 419 364T384 292T342 209T299 126T260 54T231 3L121 -8L113 419Q113 450 104 465T81 485T46 491H37L52 536H213Q215 484 216 428T218 315T219 202T220
92H224Q249 133 276 185T332 295T388 412T438 527L532 531Q535 501 538 454T543 353T548 246T551 150T553 83H560Q597 128 629 175T685 267T724 351T738 421Q738 448 726 463T693 484Q696 512 713 529T756 546Q783 546 798 527T814 468Q814 421 795 369T741 258T660
135T560 1L454 -10Z" />
<glyph unicode="x" horiz-adv-x="562" d="M-20 0L-9 45H4Q23 45 37 50T68 69T108 113L236 263L170 422Q158 450 149 465T128 485T97 491H84L92 536H241L315 337L450 536H572L562 491H547Q528 491 513 485T483 464T443 419L339 288L409 117Q420 88 429 73T451 51T483
45H496L487 0H337L257 215L106 0H-20Z" />
<glyph unicode="y" horiz-adv-x="544" d="M-67 -240Q-93 -240 -118 -235T-164 -222L-149 -170Q-137 -174 -119 -178T-69 -182Q-21 -182 20 -166T95 -125T157 -68T210 -8L79 438Q74 458 65 469T43 486T10 491H0L10 536H169L244 269Q252 243 260 207T276 138T284
88H287Q325 145 356 202T405 313T424 410Q424 426 419 439T403 460T372 468Q372 505 393 525T441 545Q475 545 494 524T513 461Q513 409 491 347T429 214T333 60Q283 -16 241 -72T155 -166T58 -221T-67 -240Z" />
<glyph unicode="z" horiz-adv-x="524" d="M-1 0L8 43L346 476H219Q193 476 177 467T149 438T125 392L123 388H76L117 536H489L480 492L141 60H314Q337 60 353 72T380 103T400 144L410 167H456L416 0H-1Z" />
<glyph unicode="{" horiz-adv-x="432" d="M234 -127Q172 -127 140 -101T108 -24Q108 -14 109 -3T114 26L149 191Q151 200 152 207T153 222Q153 262 125 277T54 294L64 341Q97 343 125 351T174 381T203 443L240 615Q250 661 268 693T322 743T422 760H496L487 714H454Q426
714 406 703T374 668T353 611L316 440Q306 392 273 361T180 319L179 314Q224 306 246 283T268 224Q268 217 267 209T264 193L227 22Q225 9 224 -1T222 -21Q222 -51 237 -66T285 -81H317L308 -127H234Z" />
<glyph unicode="|" horiz-adv-x="559" d="M247 -240V760H311V-240H247Z" />
<glyph unicode="}" horiz-adv-x="432" d="M-51 -127L-42 -81H-9Q20 -81 40 -70T72 -35T92 22L129 194Q140 242 173 273T265 315L266 320Q222 329 200 352T177 410Q177 418 178 425T181 440L218 611Q220 624 221 634T223 654Q223 684 208 699T160 715H128L138 760H212Q274
760 305 734T337 657Q337 647 336 636T331 607L296 443Q294 434 293 427T292 412Q292 371 320 357T391 341L381 294Q332 292 294 272T242 191L205 18Q196 -28 178 -60T123 -110T23 -127H-51Z" />
<glyph unicode="~" horiz-adv-x="559" d="M52 267Q54 298 60 329T79 387T116 430T177 446Q200 446 219 439T258 417T302 380Q326 359 344 345T382 330Q401 330 412 343T431 382T442 446H506Q504 416 497 385T477 327T440 284T382 267Q360 267 340 274T300 296T260
331Q243 347 230 359T204 377T177 383Q148 383 134 355T115 267H52Z" />
<glyph unicode="&#xa0;" horiz-adv-x="260" />
<glyph unicode="&#xa1;" horiz-adv-x="350" d="M11 -179L163 327H213L143 -179H11ZM210 398Q181 398 162 414T142 462Q142 493 153 510T180 535T214 543Q244 543 262 528T281 479Q281 443 262 421T210 398Z" />
<glyph unicode="&#xa2;" horiz-adv-x="559" d="M245 88Q198 95 161 120T101 188T79 292Q79 335 91 380T125 470T182 550T261 611T361 640L377 714H431L415 640Q480 635 510 607T541 543Q541 524 530 507T498 480T443 469Q443 505 433 534T402 578L311 151Q348
152 375 163T421 191T455 226Q460 222 463 214T467 196Q467 174 449 149T394 106T297 85L280 0H226L245 88ZM350 588Q322 583 298 560T255 504T223 431T204 354T197 286Q197 238 213 206T260 161L350 588Z" />
<glyph unicode="&#xa3;" horiz-adv-x="559" d="M345 -10Q312 -10 282 1T221 23T152 35Q116 35 89 28T31 6L17 -1L-2 43L32 63Q66 83 99 112T154 183T176 277Q176 293 174 308T169 339H57L69 393H161Q157 412 153 439T149 492Q149 566 180 618T267 697T397 724Q452
724 489 711T546 674T566 623Q566 584 542 563T471 541Q471 606 447 638T380 671Q338 671 309 651T265 591T249 496Q249 464 253 438T262 393H434L422 339L268 340Q270 328 270 315T271 288Q271 244 256 211T211 152T140 101L141 97Q165 107 184 111T221 115Q249
115 280 106T339 87T388 78Q423 78 444 88T489 121L517 83Q502 67 474 45T413 7T345 -10Z" />
<glyph unicode="&#xa4;" horiz-adv-x="559" d="M119 144L75 188L138 252Q122 275 114 301T106 357Q106 387 114 414T139 464L75 528L119 572L183 508Q206 524 232 532T289 541Q318 541 345 533T394 508L459 573L503 528L439 463Q455 441 464 414T473 357Q473 328
464 302T439 252L503 188L460 144L395 208Q373 192 346 183T289 174Q259 174 233 183T183 208L119 144ZM289 233Q324 233 352 250T396 295T413 357Q413 393 397 421T352 466T289 483Q255 483 227 467T182 422T165 357Q165 323 181 295T226 250T289 233Z" />
<glyph unicode="&#xa5;" horiz-adv-x="559" d="M62 0L72 45H96Q117 45 136 49T170 67T190 110L204 174H64L74 224H214L229 291H89L99 341H223L151 616Q143 645 133 657T93 669H86L96 714H341L331 669H321Q290 669 275 662T260 636Q260 625 264 605T272 571L296
467Q304 436 309 401T316 348Q322 361 336 384T364 428L445 552Q459 572 468 588T481 618T486 641Q486 655 475 662T437 669H429L439 714H645L635 669H628Q611 669 598 662T571 638T536 591L365 341H490L480 291H340L325 224H465L455 174H315L302 112Q300 105 299
97T297 83Q297 59 317 52T369 45H393L383 0H62Z" />
<glyph unicode="&#xa6;" horiz-adv-x="559" d="M247 360V760H311V360H247ZM247 -240V160H311V-240H247Z" />
<glyph unicode="&#xa7;" horiz-adv-x="544" d="M197 -115Q144 -115 105 -101T43 -61T21 0Q21 29 33 44T61 65T92 71Q92 16 122 -24T211 -64Q271 -64 306 -32T341 51Q341 72 332 91T294 133T202 190Q157 215 132 240T96 292T86 351Q86 401 113 434T175 489Q166
503 159 526T151 579Q151 637 180 677T257 738T365 760Q417 760 453 746T508 709T528 658Q528 617 506 602T442 587Q442 622 432 650T402 694T349 711Q323 711 297 700T254 667T236 610Q236 580 248 559T288 518T365 472Q411 448 438 424T477 373T490 316Q490 270
464 232T401 166Q409 153 415 135T422 90Q422 34 395 -13T318 -87T197 -115ZM373 201Q388 217 398 234T409 274Q409 291 401 309T370 346T307 387Q275 403 249 420T200 457Q182 444 172 428T161 389Q161 354 185 328T276 266Q303 251 329 234T373 201Z" />
<glyph unicode="&#xa8;" horiz-adv-x="577" d="M445 629Q422 629 407 642T392 683Q392 713 407 731T450 750Q473 750 488 737T503 697Q503 659 485 644T445 629ZM246 629Q223 629 208 642T193 683Q193 713 208 731T251 750Q274 750 289 737T304 697Q304 659 286
644T246 629Z" />
<glyph unicode="&#xa9;" horiz-adv-x="845" d="M422 -10Q342 -10 275 16T159 90T82 206T55 358Q55 441 82 508T158 624T274 699T422 725Q502 725 569 699T686 625T763 509T790 357Q790 273 763 206T687 90T570 16T422 -10ZM428 128Q359 128 313 156T244 237T221
358Q221 426 246 477T320 557T442 586Q490 586 521 577T567 550T583 511Q583 489 563 476T513 463Q513 482 506 500T483 529T440 541Q367 541 337 494T307 358Q307 299 322 258T368 196T441 174Q488 174 521 196T567 243Q574 239 578 231T583 211Q583 192 566 173T514
141T428 128ZM423 46Q492 46 548 68T645 131T708 229T730 358Q730 430 708 487T645 584T548 647T423 669Q333 669 264 631T155 523T115 357Q115 284 138 227T202 129T299 67T423 46Z" />
<glyph unicode="&#xaa;" horiz-adv-x="403" d="M155 381Q108 381 86 413T64 492Q64 527 77 566T118 640T184 695T275 717Q301 717 321 711T355 696L387 710H412L368 525Q366 513 362 492T358 460Q358 445 363 438T378 431Q388 431 399 435T421 447L433 426Q420
413 394 397T342 381Q314 381 298 394T282 432Q282 444 284 458T289 486H285Q261 439 229 410T155 381ZM193 431Q212 431 232 452T267 504T290 561L316 658Q309 668 297 673T272 678Q245 678 224 660T188 612T167 551T160 495Q160 461 169 446T193 431Z" />
<glyph unicode="&#xab;" horiz-adv-x="525" d="M363 77L247 253L255 291L445 463H501L357 266L418 77H363ZM176 77L60 253L69 291L259 463H314L170 266L232 77H176Z" />
<glyph unicode="&#xac;" horiz-adv-x="559" d="M431 129V326H65V389H494V129H431Z" />
<glyph unicode="&#xad;" horiz-adv-x="310" d="M13 231L31 314H291L273 231H13Z" />
<glyph unicode="&#xae;" horiz-adv-x="845" d="M231 141V175H244Q264 175 278 181T293 210V503Q293 526 279 532T244 538H231V575H414Q500 575 543 545T587 455Q587 422 574 400T540 365T495 343L584 202Q594 186 604 181T638 175V141H530L420 326H371V210Q371
187 386 181T420 175H434V141H231ZM422 -10Q342 -10 275 16T159 90T82 206T55 358Q55 441 82 508T158 624T274 699T422 725Q502 725 569 699T686 625T763 509T790 357Q790 273 763 206T687 90T570 16T422 -10ZM413 368Q466 368 486 388T507 452Q507 497 485 514T410
531H371V368H413ZM423 46Q492 46 548 68T645 131T708 229T730 358Q730 430 708 487T645 584T548 647T423 669Q333 669 264 631T155 523T115 357Q115 284 138 227T202 129T299 67T423 46Z" />
<glyph unicode="&#xaf;" horiz-adv-x="459" d="M101 760L114 819H582L569 760H101Z" />
<glyph unicode="&#xb0;" horiz-adv-x="400" d="M275 423Q208 423 166 465T123 574Q123 619 142 653T196 706T275 726Q321 726 355 707T409 653T429 574Q429 529 410 495T356 442T275 423ZM276 484Q317 484 339 508T361 574Q361 616 339 640T276 665Q237 665 215
641T192 574Q192 533 214 509T276 484Z" />
<glyph unicode="&#xb1;" horiz-adv-x="559" d="M65 0V62H494V0H65ZM247 143V326H65V389H247V572H311V389H494V326H311V143H247Z" />
<glyph unicode="&#xb2;" horiz-adv-x="400" d="M58 386L65 428L218 550Q249 575 270 597T303 640T320 682T326 727Q326 748 315 765T278 783Q257 783 241 769T214 734T201 687Q169 687 151 700T133 735Q133 761 151 781T204 812T286 824Q347 824 383 799T419 730Q419
702 407 675T364 616T278 542L157 449H297Q313 449 323 454T339 469T350 490L358 511H394L366 386H58Z" />
<glyph unicode="&#xb3;" horiz-adv-x="400" d="M211 380Q145 380 111 401T76 458Q76 485 93 499T137 513Q137 494 145 474T171 441T219 427Q245 427 266 435T299 463T311 514Q311 543 289 565T220 587H187L196 630H229Q271 630 304 658T338 736Q338 756 328 769T294
783Q258 783 240 757T214 696Q182 696 163 705T144 739Q144 763 162 782T215 812T298 824Q368 824 401 798T434 733Q434 681 398 654T307 615L306 610Q352 605 379 582T407 518Q407 473 382 443T313 396T211 380Z" />
<glyph unicode="&#xb4;" horiz-adv-x="280" d="M112 606L115 619Q133 639 153 664T191 716T225 766H346L343 756Q331 742 310 722T263 680T211 639T160 606H112Z" />
<glyph unicode="&#xb5;" horiz-adv-x="624" d="M63 -240Q35 -240 17 -224T-2 -168Q-2 -128 12 -75T47 52T89 225L155 536H265L199 223Q196 211 194 195T190 164T188 134Q188 104 203 82T256 60Q282 60 304 71T345 104T377 157T398 228L464 536H574L497 176Q492
154 488 132T484 93Q484 76 492 67T515 58Q529 58 543 63T571 76L590 42Q569 26 537 8T462 -10Q433 -10 415 2T389 37T379 88H374Q342 43 308 17T227 -10Q185 -10 156 6T111 53Q107 30 103 8T97 -35T95 -72Q95 -94 100 -111T120 -138T158 -153Q154 -182 141 -201T107
-230T63 -240Z" />
<glyph unicode="&#xb6;" horiz-adv-x="620" d="M181 -111V-66H194Q217 -66 235 -61T265 -41T276 6V386H205Q147 386 114 413T66 485T52 582Q52 636 67 676T116 738T207 760H591V715H578Q556 715 537 710T507 690T496 643V6Q496 -25 507 -40T537 -61T578 -66H591V-111H432V706H340V-111H181Z"
/>
<glyph unicode="&#xb7;" horiz-adv-x="291" d="M151 283Q121 283 103 299T84 347Q84 384 103 406T155 428Q184 428 203 413T223 364Q223 335 212 317T185 291T151 283Z" />
<glyph unicode="&#xb8;" horiz-adv-x="333" d="M111 -240Q92 -240 71 -237T32 -228L44 -175Q61 -179 79 -181T110 -183Q141 -183 162 -170T184 -125Q184 -102 166 -88T120 -72L158 9H208L189 -34Q226 -39 248 -62T271 -117Q271 -160 249 -187T190 -227T111 -240Z" />
<glyph unicode="&#xb9;" horiz-adv-x="400" d="M85 387L93 424H140Q158 424 171 430T190 462L251 749H248Q229 732 215 722T188 706T162 700Q146 700 138 712T130 743Q152 745 169 749T204 762T245 784T302 819H358L288 487Q286 476 284 466T282 449Q282 433 293
429T318 424H363L355 387H85Z" />
<glyph unicode="&#xba;" horiz-adv-x="400" d="M211 381Q147 381 108 413T68 506Q68 540 81 576T122 645T188 698T279 718Q319 718 350 705T400 665T420 594Q420 563 408 526T369 456T304 402T211 381ZM212 424Q240 424 260 442T294 488T314 548T321 604Q321 638
309 656T273 674Q247 674 226 657T192 612T171 554T163 497Q163 461 176 443T212 424Z" />
<glyph unicode="&#xbb;" horiz-adv-x="525" d="M210 77L355 274L292 463H348L463 287L455 250L265 77H210ZM23 77L169 274L106 463H161L277 287L269 250L79 77H23Z" />
<glyph unicode="&#xbc;" horiz-adv-x="875" d="M338 543L346 580H393Q411 580 424 586T443 618L504 905H501Q482 888 468 878T441 862T415 856Q399 856 391 868T383 899Q405 901 422 905T457 918T498 940T555 975H611L541 643Q539 632 537 622T535 605Q535 589
546 585T571 580H616L608 543H338ZM181 0L686 714H758L255 0H181ZM549 0L557 37H585Q602 37 615 43T634 75L644 124H464L470 160L718 432H801L746 170H837L827 124H736L729 93Q727 84 726 75T724 62Q724 46 734 42T759 37H779L772 0H549ZM535 170H654L678 280Q682
301 687 319T698 356Q693 348 683 335T663 311L535 170Z" />
<glyph unicode="&#xbd;" horiz-adv-x="875" d="M338 543L346 580H393Q411 580 424 586T443 618L504 905H501Q482 888 468 878T441 862T415 856Q399 856 391 868T383 899Q405 901 422 905T457 918T498 940T555 975H611L541 643Q539 632 537 622T535 605Q535 589
546 585T571 580H616L608 543H338ZM165 0L670 714H742L239 0H165ZM467 -1L474 41L627 163Q658 188 679 210T712 253T729 295T735 340Q735 361 724 378T687 396Q666 396 650 382T623 347T610 300Q578 300 560 313T542 348Q542 374 560 394T613 425T695 437Q756 437
792 412T828 343Q828 315 816 288T773 229T687 155L566 62H706Q722 62 732 67T748 82T759 103L767 124H803L775 -1H467Z" />
<glyph unicode="&#xbe;" horiz-adv-x="875" d="M454 536Q388 536 354 557T319 614Q319 641 336 655T380 669Q380 650 388 630T414 597T462 583Q488 583 509 591T542 619T554 670Q554 699 532 721T463 743H430L439 786H472Q514 786 547 814T581 892Q581 912 571
925T537 939Q501 939 483 913T457 852Q425 852 406 861T387 895Q387 919 405 938T458 968T541 980Q611 980 644 954T677 889Q677 837 641 810T550 771L549 766Q595 761 622 738T650 674Q650 629 625 599T556 552T454 536ZM194 0L699 714H771L268 0H194ZM549 0L557
37H585Q602 37 615 43T634 75L644 124H464L470 160L718 432H801L746 170H837L827 124H736L729 93Q727 84 726 75T724 62Q724 46 734 42T759 37H779L772 0H549ZM535 170H654L678 280Q682 301 687 319T698 356Q693 348 683 335T663 311L535 170Z" />
<glyph unicode="&#xbf;" horiz-adv-x="510" d="M198 -190Q107 -190 54 -150T1 -24Q1 34 33 79T122 158T248 217L278 326H336L316 184Q256 162 211 133T140 63T115 -30Q115 -82 140 -109T205 -137Q245 -137 268 -117T303 -65T322 6Q364 6 386 -10T408 -59Q408 -94
383 -124T311 -172T198 -190ZM321 398Q294 398 276 412T258 456Q258 488 269 507T298 534T334 542Q362 542 379 527T397 482Q397 446 376 422T321 398Z" />
<glyph unicode="&#xc0;" horiz-adv-x="718" d="M-54 0L-45 45H-26Q-6 45 7 51T33 74T66 123L412 714H506L598 103Q601 82 607 70T626 51T658 45H672L663 0H375L384 45H407Q439 45 458 57T478 94Q478 102 478 111T476 127L431 464Q425 508 421 546T415 620Q405
596 394 574T370 528T339 473L146 137Q136 119 132 106T127 81Q127 62 141 54T183 45H205L197 0H-54ZM182 238V291H515V238H182ZM459 771Q442 785 422 804T384 844T349 885T321 921L324 931H437Q445 910 457 883T482 830T506 784L503 771H459Z" />
<glyph unicode="&#xc1;" horiz-adv-x="718" d="M-54 0L-45 45H-26Q-6 45 7 51T33 74T66 123L412 714H506L598 103Q601 82 607 70T626 51T658 45H672L663 0H375L384 45H407Q439 45 458 57T478 94Q478 102 478 111T476 127L431 464Q425 508 421 546T415 620Q405
596 394 574T370 528T339 473L146 137Q136 119 132 106T127 81Q127 62 141 54T183 45H205L197 0H-54ZM182 238V291H515V238H182ZM410 771L413 784Q431 804 451 829T489 881T523 931H644L641 921Q629 907 608 887T561 845T509 804T458 771H410Z" />
<glyph unicode="&#xc2;" horiz-adv-x="718" d="M-54 0L-45 45H-26Q-6 45 7 51T33 74T66 123L412 714H506L598 103Q601 82 607 70T626 51T658 45H672L663 0H375L384 45H407Q439 45 458 57T478 94Q478 102 478 111T476 127L431 464Q425 508 421 546T415 620Q405
596 394 574T370 528T339 473L146 137Q136 119 132 106T127 81Q127 62 141 54T183 45H205L197 0H-54ZM182 238V291H515V238H182ZM301 784Q321 803 346 829T395 882T436 931H542Q549 910 561 883T587 829T613 784L610 771H567Q552 782 536 797T505 829T478 861Q460
846 438 830T394 798T351 771H298L301 784Z" />
<glyph unicode="&#xc3;" horiz-adv-x="718" d="M-54 0L-45 45H-26Q-6 45 7 51T33 74T66 123L412 714H506L598 103Q601 82 607 70T626 51T658 45H672L663 0H375L384 45H407Q439 45 458 57T478 94Q478 102 478 111T476 127L431 464Q425 508 421 546T415 620Q405
596 394 574T370 528T339 473L146 137Q136 119 132 106T127 81Q127 62 141 54T183 45H205L197 0H-54ZM182 238V291H515V238H182ZM541 771Q514 771 494 780T457 802T425 824T394 834Q366 834 354 818T335 781H286Q294 812 311 840T355 888T418 907Q445 907 465 898T501
876T532 854T563 844Q591 844 603 860T621 897H671Q663 867 646 838T603 790T541 771Z" />
<glyph unicode="&#xc4;" horiz-adv-x="718" d="M-54 0L-45 45H-26Q-6 45 7 51T33 74T66 123L412 714H506L598 103Q601 82 607 70T626 51T658 45H672L663 0H375L384 45H407Q439 45 458 57T478 94Q478 102 478 111T476 127L431 464Q425 508 421 546T415 620Q405
596 394 574T370 528T339 473L146 137Q136 119 132 106T127 81Q127 62 141 54T183 45H205L197 0H-54ZM182 238V291H515V238H182ZM570 794Q547 794 532 807T517 848Q517 878 532 896T575 915Q598 915 613 902T628 862Q628 824 610 809T570 794ZM371 794Q348 794
333 807T318 848Q318 878 333 896T376 915Q399 915 414 902T429 862Q429 824 411 809T371 794Z" />
<glyph unicode="&#xc5;" horiz-adv-x="718" d="M-54 0L-45 45H-26Q-6 45 7 51T33 74T66 123L412 714H506L598 103Q601 82 607 70T626 51T658 45H672L663 0H375L384 45H407Q439 45 458 57T478 94Q478 102 478 111T476 127L431 464Q425 508 421 546T415 620Q405
596 394 574T370 528T339 473L146 137Q136 119 132 106T127 81Q127 62 141 54T183 45H205L197 0H-54ZM182 238V291H515V238H182ZM454 663Q404 663 369 691T334 772Q334 825 369 853T454 881Q504 881 539 853T574 772Q574 719 539 691T454 663ZM454 714Q480 714
499 727T518 772Q518 804 499 817T454 831Q428 831 409 817T390 772Q390 741 408 728T454 714Z" />
<glyph unicode="&#xc6;" horiz-adv-x="963" d="M-54 0L-44 45H-27Q-13 45 -2 49T21 61T46 84T76 123L473 663L394 669L403 714H977L944 536H887Q888 541 889 554T891 579T892 594Q892 622 876 641T821 661H663L607 399H844L833 347H596L533 53H716Q748 53 770
64T806 94T829 135L845 178H903L858 0H312L321 45H334Q355 45 375 49T409 67T429 110L455 236H229L158 137Q145 119 138 104T131 77Q131 60 143 53T182 45H202L194 0H-54ZM268 289H467L545 661H527Q511 635 490 603T446 536T400 471L268 289Z" />
<glyph unicode="&#xc7;" horiz-adv-x="638" d="M338 -10Q249 -10 186 21T89 113T55 258Q55 348 84 431T169 581T302 686T475 725Q567 725 615 694T664 612Q664 574 634 553T554 531Q554 552 551 575T537 620T509 655T458 669Q405 669 362 643T284 573T227 474T192
359T180 245Q180 187 199 146T258 82T356 60Q427 60 471 88T540 151Q546 147 550 138T554 118Q554 90 531 60T461 10T338 -10ZM244 -240Q225 -240 204 -237T165 -228L177 -175Q194 -179 212 -181T243 -183Q274 -183 295 -170T317 -125Q317 -102 299 -88T253 -72L291
9H341L322 -34Q359 -39 381 -62T404 -117Q404 -160 382 -187T323 -227T244 -240Z" />
<glyph unicode="&#xc8;" horiz-adv-x="626" d="M-22 0L-13 45H0Q22 45 41 49T75 67T96 110L200 601Q202 608 202 614T203 625Q203 654 183 661T133 669H120L129 714H644L611 536H554Q555 541 556 554T558 579T559 594Q559 622 543 641T488 661H330L274 399H511L500
347H263L200 53H383Q415 53 437 64T473 94T496 135L512 178H569L525 0H-22ZM417 771Q400 785 380 804T342 844T307 885T279 921L282 931H395Q403 910 415 883T440 830T464 784L461 771H417Z" />
<glyph unicode="&#xc9;" horiz-adv-x="626" d="M-22 0L-13 45H0Q22 45 41 49T75 67T96 110L200 601Q202 608 202 614T203 625Q203 654 183 661T133 669H120L129 714H644L611 536H554Q555 541 556 554T558 579T559 594Q559 622 543 641T488 661H330L274 399H511L500
347H263L200 53H383Q415 53 437 64T473 94T496 135L512 178H569L525 0H-22ZM354 771L357 784Q375 804 395 829T433 881T467 931H588L585 921Q573 907 552 887T505 845T453 804T402 771H354Z" />
<glyph unicode="&#xca;" horiz-adv-x="626" d="M-22 0L-13 45H0Q22 45 41 49T75 67T96 110L200 601Q202 608 202 614T203 625Q203 654 183 661T133 669H120L129 714H644L611 536H554Q555 541 556 554T558 579T559 594Q559 622 543 641T488 661H330L274 399H511L500
347H263L200 53H383Q415 53 437 64T473 94T496 135L512 178H569L525 0H-22ZM270 784Q290 803 315 829T364 882T405 931H511Q518 910 530 883T556 829T582 784L579 771H536Q521 782 505 797T474 829T447 861Q429 846 407 830T363 798T320 771H267L270 784Z" />
<glyph unicode="&#xcb;" horiz-adv-x="626" d="M-22 0L-13 45H0Q22 45 41 49T75 67T96 110L200 601Q202 608 202 614T203 625Q203 654 183 661T133 669H120L129 714H644L611 536H554Q555 541 556 554T558 579T559 594Q559 622 543 641T488 661H330L274 399H511L500
347H263L200 53H383Q415 53 437 64T473 94T496 135L512 178H569L525 0H-22ZM517 794Q494 794 479 807T464 848Q464 878 479 896T522 915Q545 915 560 902T575 862Q575 824 557 809T517 794ZM318 794Q295 794 280 807T265 848Q265 878 280 896T323 915Q346 915 361
902T376 862Q376 824 358 809T318 794Z" />
<glyph unicode="&#xcc;" horiz-adv-x="376" d="M-22 0L-13 45H0Q23 45 42 49T76 69T97 114L201 602Q203 609 204 618T205 631Q205 656 185 662T133 669H120L129 714H435L426 669H413Q391 669 371 665T337 646T316 600L212 110Q211 104 210 96T208 83Q208 59 228
52T281 45H294L284 0H-22ZM299 771Q282 785 262 804T224 844T189 885T161 921L164 931H277Q285 910 297 883T322 830T346 784L343 771H299Z" />
<glyph unicode="&#xcd;" horiz-adv-x="376" d="M-22 0L-13 45H0Q23 45 42 49T76 69T97 114L201 602Q203 609 204 618T205 631Q205 656 185 662T133 669H120L129 714H435L426 669H413Q391 669 371 665T337 646T316 600L212 110Q211 104 210 96T208 83Q208 59 228
52T281 45H294L284 0H-22ZM232 771L235 784Q253 804 273 829T311 881T345 931H466L463 921Q451 907 430 887T383 845T331 804T280 771H232Z" />
<glyph unicode="&#xce;" horiz-adv-x="376" d="M-22 0L-13 45H0Q23 45 42 49T76 69T97 114L201 602Q203 609 204 618T205 631Q205 656 185 662T133 669H120L129 714H435L426 669H413Q391 669 371 665T337 646T316 600L212 110Q211 104 210 96T208 83Q208 59 228
52T281 45H294L284 0H-22ZM135 784Q155 803 180 829T229 882T270 931H376Q383 910 395 883T421 829T447 784L444 771H401Q386 782 370 797T339 829T312 861Q294 846 272 830T228 798T185 771H132L135 784Z" />
<glyph unicode="&#xcf;" horiz-adv-x="376" d="M-22 0L-13 45H0Q23 45 42 49T76 69T97 114L201 602Q203 609 204 618T205 631Q205 656 185 662T133 669H120L129 714H435L426 669H413Q391 669 371 665T337 646T316 600L212 110Q211 104 210 96T208 83Q208 59 228
52T281 45H294L284 0H-22ZM398 794Q375 794 360 807T345 848Q345 878 360 896T403 915Q426 915 441 902T456 862Q456 824 438 809T398 794ZM199 794Q176 794 161 807T146 848Q146 878 161 896T204 915Q227 915 242 902T257 862Q257 824 239 809T199 794Z" />
<glyph unicode="&#xd0;" horiz-adv-x="737" d="M53 347L65 400H431L419 347H53ZM-22 0L-13 45H0Q23 45 42 49T76 69T97 114L201 604Q203 610 204 617T205 631Q205 656 183 662T133 669H120L129 714H420Q557 714 633 645T709 442Q709 353 683 273T605 132T478 35T303
0H-22ZM276 54Q348 54 405 83T503 165T563 291T584 452Q584 561 534 611T398 661H330L200 54H276Z" />
<glyph unicode="&#xd1;" horiz-adv-x="770" d="M-21 0L-11 45H2Q23 45 42 49T76 69T97 114L200 601Q202 609 203 618T205 631Q205 656 185 662T133 669H120L129 714H322L565 173L656 602Q658 609 659 618T660 631Q660 656 640 662T588 669H578L587 714H839L829
669H816Q794 669 775 665T742 646T720 600L593 0H521L260 580L161 112Q160 105 159 97T157 83Q157 59 177 52T229 45H239L230 0H-21ZM579 771Q552 771 532 780T495 802T463 824T432 834Q404 834 392 818T373 781H324Q332 812 349 840T393 888T456 907Q483 907 503
898T539 876T570 854T601 844Q629 844 641 860T659 897H709Q701 867 684 838T641 790T579 771Z" />
<glyph unicode="&#xd2;" horiz-adv-x="756" d="M322 -11Q246 -11 186 20T90 114T55 266Q55 324 71 387T121 510T202 618T316 696T462 725Q533 725 593 696T689 607T726 450Q726 395 710 332T662 209T582 98T469 19T322 -11ZM332 47Q387 47 431 75T507 151T560
255T591 369T602 476Q602 543 582 585T529 648T451 668Q395 668 351 640T275 564T221 460T190 346T179 239Q179 172 199 130T254 67T332 47ZM493 771Q476 785 456 804T418 844T383 885T355 921L358 931H471Q479 910 491 883T516 830T540 784L537 771H493Z" />
<glyph unicode="&#xd3;" horiz-adv-x="756" d="M322 -11Q246 -11 186 20T90 114T55 266Q55 324 71 387T121 510T202 618T316 696T462 725Q533 725 593 696T689 607T726 450Q726 395 710 332T662 209T582 98T469 19T322 -11ZM332 47Q387 47 431 75T507 151T560
255T591 369T602 476Q602 543 582 585T529 648T451 668Q395 668 351 640T275 564T221 460T190 346T179 239Q179 172 199 130T254 67T332 47ZM408 771L411 784Q429 804 449 829T487 881T521 931H642L639 921Q627 907 606 887T559 845T507 804T456 771H408Z" />
<glyph unicode="&#xd4;" horiz-adv-x="756" d="M322 -11Q246 -11 186 20T90 114T55 266Q55 324 71 387T121 510T202 618T316 696T462 725Q533 725 593 696T689 607T726 450Q726 395 710 332T662 209T582 98T469 19T322 -11ZM332 47Q387 47 431 75T507 151T560
255T591 369T602 476Q602 543 582 585T529 648T451 668Q395 668 351 640T275 564T221 460T190 346T179 239Q179 172 199 130T254 67T332 47ZM314 784Q334 803 359 829T408 882T449 931H555Q562 910 574 883T600 829T626 784L623 771H580Q565 782 549 797T518 829T491
861Q473 846 451 830T407 798T364 771H311L314 784Z" />
<glyph unicode="&#xd5;" horiz-adv-x="756" d="M322 -11Q246 -11 186 20T90 114T55 266Q55 324 71 387T121 510T202 618T316 696T462 725Q533 725 593 696T689 607T726 450Q726 395 710 332T662 209T582 98T469 19T322 -11ZM332 47Q387 47 431 75T507 151T560
255T591 369T602 476Q602 543 582 585T529 648T451 668Q395 668 351 640T275 564T221 460T190 346T179 239Q179 172 199 130T254 67T332 47ZM544 771Q517 771 497 780T460 802T428 824T397 834Q369 834 357 818T338 781H289Q297 812 314 840T358 888T421 907Q448
907 468 898T504 876T535 854T566 844Q594 844 606 860T624 897H674Q666 867 649 838T606 790T544 771Z" />
<glyph unicode="&#xd6;" horiz-adv-x="756" d="M322 -11Q246 -11 186 20T90 114T55 266Q55 324 71 387T121 510T202 618T316 696T462 725Q533 725 593 696T689 607T726 450Q726 395 710 332T662 209T582 98T469 19T322 -11ZM332 47Q387 47 431 75T507 151T560
255T591 369T602 476Q602 543 582 585T529 648T451 668Q395 668 351 640T275 564T221 460T190 346T179 239Q179 172 199 130T254 67T332 47ZM583 794Q560 794 545 807T530 848Q530 878 545 896T588 915Q611 915 626 902T641 862Q641 824 623 809T583 794ZM384 794Q361
794 346 807T331 848Q331 878 346 896T389 915Q412 915 427 902T442 862Q442 824 424 809T384 794Z" />
<glyph unicode="&#xd7;" horiz-adv-x="559" d="M118 153L74 198L235 359L74 519L118 563L279 402L440 564L484 519L323 358L484 197L440 153L279 314L118 153Z" />
<glyph unicode="&#xd8;" horiz-adv-x="756" d="M71 -40L655 755H717L134 -40H71ZM322 -11Q246 -11 186 20T90 114T55 266Q55 324 71 387T121 510T202 618T316 696T462 725Q533 725 593 696T689 607T726 450Q726 395 710 332T662 209T582 98T469 19T322 -11ZM332
47Q387 47 431 75T507 151T560 255T591 369T602 476Q602 543 582 585T529 648T451 668Q395 668 351 640T275 564T221 460T190 346T179 239Q179 172 199 130T254 67T332 47Z" />
<glyph unicode="&#xd9;" horiz-adv-x="735" d="M328 -10Q217 -10 157 35T97 163Q97 179 100 207T108 252L182 601Q184 609 185 618T186 631Q186 656 166 662T114 669H101L111 714H417L408 669H395Q373 669 354 665T320 646T298 601L223 248Q218 225 215 201T211
156Q211 106 247 80T349 53Q413 53 451 74T509 132T540 214L623 602Q625 609 626 618T627 631Q627 656 607 662T555 669H542L551 714H805L797 669H784Q762 669 743 665T708 646T687 600L604 208Q589 140 556 91T466 16T328 -10ZM483 771Q466 785 446 804T408 844T373
885T345 921L348 931H461Q469 910 481 883T506 830T530 784L527 771H483Z" />
<glyph unicode="&#xda;" horiz-adv-x="735" d="M328 -10Q217 -10 157 35T97 163Q97 179 100 207T108 252L182 601Q184 609 185 618T186 631Q186 656 166 662T114 669H101L111 714H417L408 669H395Q373 669 354 665T320 646T298 601L223 248Q218 225 215 201T211
156Q211 106 247 80T349 53Q413 53 451 74T509 132T540 214L623 602Q625 609 626 618T627 631Q627 656 607 662T555 669H542L551 714H805L797 669H784Q762 669 743 665T708 646T687 600L604 208Q589 140 556 91T466 16T328 -10ZM426 771L429 784Q447 804 467 829T505
881T539 931H660L657 921Q645 907 624 887T577 845T525 804T474 771H426Z" />
<glyph unicode="&#xdb;" horiz-adv-x="735" d="M328 -10Q217 -10 157 35T97 163Q97 179 100 207T108 252L182 601Q184 609 185 618T186 631Q186 656 166 662T114 669H101L111 714H417L408 669H395Q373 669 354 665T320 646T298 601L223 248Q218 225 215 201T211
156Q211 106 247 80T349 53Q413 53 451 74T509 132T540 214L623 602Q625 609 626 618T627 631Q627 656 607 662T555 669H542L551 714H805L797 669H784Q762 669 743 665T708 646T687 600L604 208Q589 140 556 91T466 16T328 -10ZM334 784Q354 803 379 829T428 882T469
931H575Q582 910 594 883T620 829T646 784L643 771H600Q585 782 569 797T538 829T511 861Q493 846 471 830T427 798T384 771H331L334 784Z" />
<glyph unicode="&#xdc;" horiz-adv-x="735" d="M328 -10Q217 -10 157 35T97 163Q97 179 100 207T108 252L182 601Q184 609 185 618T186 631Q186 656 166 662T114 669H101L111 714H417L408 669H395Q373 669 354 665T320 646T298 601L223 248Q218 225 215 201T211
156Q211 106 247 80T349 53Q413 53 451 74T509 132T540 214L623 602Q625 609 626 618T627 631Q627 656 607 662T555 669H542L551 714H805L797 669H784Q762 669 743 665T708 646T687 600L604 208Q589 140 556 91T466 16T328 -10ZM583 794Q560 794 545 807T530 848Q530
878 545 896T588 915Q611 915 626 902T641 862Q641 824 623 809T583 794ZM384 794Q361 794 346 807T331 848Q331 878 346 896T389 915Q412 915 427 902T442 862Q442 824 424 809T384 794Z" />
<glyph unicode="&#xdd;" horiz-adv-x="644" d="M102 0L112 45H136Q158 45 177 49T210 67T231 110L267 282L153 616Q146 635 140 646T123 663T93 669H80L90 714H375L365 669H317Q296 669 286 662T275 641Q275 634 276 625T281 605T288 581L331 446Q341 415 348
382T356 324Q367 345 387 372T433 436L528 564Q539 580 546 593T558 619T562 643Q562 657 551 663T510 669H478L488 714H739L729 669H710Q695 669 682 662T655 638T621 596L384 280L347 110Q346 104 345 96T343 83Q343 59 364 52T416 45H439L429 0H102ZM381 771L384
784Q402 804 422 829T460 881T494 931H615L612 921Q600 907 579 887T532 845T480 804T429 771H381Z" />
<glyph unicode="&#xde;" horiz-adv-x="613" d="M-21 0L-11 45H2Q23 45 42 50T76 69T97 114L201 604Q203 610 204 618T205 631Q205 656 185 662T133 669H120L129 714H442L433 669H413Q391 669 371 665T337 646T316 600L314 589H366Q474 589 537 540T601 395Q601
357 589 315T545 236T452 175T295 151H221L212 110Q211 104 210 96T208 83Q208 59 228 52T281 45H301L291 0H-21ZM281 201Q354 201 397 226T460 294T479 394Q479 471 443 504T342 538H303L231 201H281Z" />
<glyph unicode="&#xdf;" horiz-adv-x="646" d="M-79 -240Q-95 -240 -112 -238T-139 -231L-128 -183Q-120 -185 -107 -187T-82 -190Q-50 -190 -28 -172T11 -114T42 -9L147 483H66L77 536H158L166 566Q178 622 202 660T260 721T336 756T425 767Q491 767 533 748T596
694T617 613Q617 588 613 555T601 491H523Q486 491 461 481T424 453T412 410Q412 382 429 360T496 308Q529 289 549 266T579 217T589 158Q589 106 566 68T497 10T389 -10Q316 -10 274 18T232 94Q232 127 256 145T315 164Q315 135 322 107T346 61T397 42Q436 42
461 65T486 133Q486 161 472 188T410 244Q380 263 358 284T323 331T311 389Q311 428 324 456T363 503T424 531T504 540Q509 564 512 584T515 621Q515 651 505 672T474 706T421 718Q360 718 326 681T278 578L152 -8Q138 -76 115 -120T62 -191T-3 -229T-79 -240Z"
/>
<glyph unicode="&#xe0;" horiz-adv-x="603" d="M175 -10Q130 -10 101 14T57 79T42 173Q42 220 54 271T92 371T154 459T238 522T345 546Q369 546 392 542T435 529T468 510L515 535H552L485 217Q483 206 479 186T472 144T469 108Q469 83 478 70T503 57Q519 57 535
64T571 82L590 50Q575 37 551 23T500 0T444 -10Q406 -10 384 11T361 72Q361 91 363 107T370 147H363Q340 97 313 62T252 9T175 -10ZM218 58Q243 58 269 77T319 130T361 204T388 288L425 462Q414 479 394 487T352 496Q313 496 283 474T229 416T189 336T166 249T158
170Q158 109 175 84T218 58ZM351 606Q334 620 314 639T276 679T241 720T213 756L216 766H329Q337 745 349 718T374 665T398 619L395 606H351Z" />
<glyph unicode="&#xe1;" horiz-adv-x="603" d="M175 -10Q130 -10 101 14T57 79T42 173Q42 220 54 271T92 371T154 459T238 522T345 546Q369 546 392 542T435 529T468 510L515 535H552L485 217Q483 206 479 186T472 144T469 108Q469 83 478 70T503 57Q519 57 535
64T571 82L590 50Q575 37 551 23T500 0T444 -10Q406 -10 384 11T361 72Q361 91 363 107T370 147H363Q340 97 313 62T252 9T175 -10ZM218 58Q243 58 269 77T319 130T361 204T388 288L425 462Q414 479 394 487T352 496Q313 496 283 474T229 416T189 336T166 249T158
170Q158 109 175 84T218 58ZM308 606L311 619Q329 639 349 664T387 716T421 766H542L539 756Q527 742 506 722T459 680T407 639T356 606H308Z" />
<glyph unicode="&#xe2;" horiz-adv-x="603" d="M175 -10Q130 -10 101 14T57 79T42 173Q42 220 54 271T92 371T154 459T238 522T345 546Q369 546 392 542T435 529T468 510L515 535H552L485 217Q483 206 479 186T472 144T469 108Q469 83 478 70T503 57Q519 57 535
64T571 82L590 50Q575 37 551 23T500 0T444 -10Q406 -10 384 11T361 72Q361 91 363 107T370 147H363Q340 97 313 62T252 9T175 -10ZM218 58Q243 58 269 77T319 130T361 204T388 288L425 462Q414 479 394 487T352 496Q313 496 283 474T229 416T189 336T166 249T158
170Q158 109 175 84T218 58ZM197 619Q217 638 242 664T291 717T332 766H438Q445 745 457 718T483 664T509 619L506 606H463Q448 617 432 632T401 664T374 696Q356 681 334 665T290 633T247 606H194L197 619Z" />
<glyph unicode="&#xe3;" horiz-adv-x="603" d="M175 -10Q130 -10 101 14T57 79T42 173Q42 220 54 271T92 371T154 459T238 522T345 546Q369 546 392 542T435 529T468 510L515 535H552L485 217Q483 206 479 186T472 144T469 108Q469 83 478 70T503 57Q519 57 535
64T571 82L590 50Q575 37 551 23T500 0T444 -10Q406 -10 384 11T361 72Q361 91 363 107T370 147H363Q340 97 313 62T252 9T175 -10ZM218 58Q243 58 269 77T319 130T361 204T388 288L425 462Q414 479 394 487T352 496Q313 496 283 474T229 416T189 336T166 249T158
170Q158 109 175 84T218 58ZM429 606Q402 606 382 615T345 637T313 659T282 669Q254 669 242 653T223 616H174Q182 647 199 675T243 723T306 742Q333 742 353 733T389 711T420 689T451 679Q479 679 491 695T509 732H559Q551 702 534 673T491 625T429 606Z" />
<glyph unicode="&#xe4;" horiz-adv-x="603" d="M175 -10Q130 -10 101 14T57 79T42 173Q42 220 54 271T92 371T154 459T238 522T345 546Q369 546 392 542T435 529T468 510L515 535H552L485 217Q483 206 479 186T472 144T469 108Q469 83 478 70T503 57Q519 57 535
64T571 82L590 50Q575 37 551 23T500 0T444 -10Q406 -10 384 11T361 72Q361 91 363 107T370 147H363Q340 97 313 62T252 9T175 -10ZM218 58Q243 58 269 77T319 130T361 204T388 288L425 462Q414 479 394 487T352 496Q313 496 283 474T229 416T189 336T166 249T158
170Q158 109 175 84T218 58ZM447 629Q424 629 409 642T394 683Q394 713 409 731T452 750Q475 750 490 737T505 697Q505 659 487 644T447 629ZM248 629Q225 629 210 642T195 683Q195 713 210 731T253 750Q276 750 291 737T306 697Q306 659 288 644T248 629Z" />
<glyph unicode="&#xe5;" horiz-adv-x="603" d="M175 -10Q130 -10 101 14T57 79T42 173Q42 220 54 271T92 371T154 459T238 522T345 546Q369 546 392 542T435 529T468 510L515 535H552L485 217Q483 206 479 186T472 144T469 108Q469 83 478 70T503 57Q519 57 535
64T571 82L590 50Q575 37 551 23T500 0T444 -10Q406 -10 384 11T361 72Q361 91 363 107T370 147H363Q340 97 313 62T252 9T175 -10ZM218 58Q243 58 269 77T319 130T361 204T388 288L425 462Q414 479 394 487T352 496Q313 496 283 474T229 416T189 336T166 249T158
170Q158 109 175 84T218 58ZM369 594Q319 594 284 622T249 703Q249 756 284 784T369 812Q419 812 454 784T489 703Q489 650 454 622T369 594ZM369 645Q395 645 414 658T433 703Q433 735 414 748T369 762Q343 762 324 748T305 703Q305 672 323 659T369 645Z" />
<glyph unicode="&#xe6;" horiz-adv-x="831" d="M191 -10Q159 -10 132 2T85 39T54 100T42 185Q42 229 53 278T88 375T147 461T231 523T340 546Q384 546 421 531T497 484Q532 514 577 530T677 547Q743 547 779 516T816 431Q816 378 779 332T675 258T524 229H489Q488
219 488 209T487 188Q487 147 499 117T535 72T596 57Q645 57 682 80T741 131Q746 127 749 119T752 101Q752 79 733 53T674 9T572 -10Q499 -10 447 26T378 134H375Q354 87 328 55T267 7T191 -10ZM234 58Q266 58 293 81T340 143T371 233Q379 275 389 308T413 373T447
435Q428 462 402 479T348 496Q309 496 279 474T226 416T188 337T166 253T158 176Q158 114 179 86T234 58ZM507 278Q549 278 584 289T646 320T687 368T702 429Q702 462 688 478T647 495Q620 495 596 476T552 425T518 355T497 278H507Z" />
<glyph unicode="&#xe7;" horiz-adv-x="498" d="M244 -10Q189 -10 143 13T70 81T42 197Q42 241 55 289T92 383T154 466T240 524T349 546Q400 546 433 532T482 496T498 447Q498 428 487 411T455 384T400 373Q400 423 382 459T324 495Q294 495 269 474T223 419T189
344T168 263T160 191Q160 127 188 92T270 57Q323 57 357 80T413 131Q418 128 421 120T424 101Q424 78 405 52T347 8T244 -10ZM162 -240Q143 -240 122 -237T83 -228L95 -175Q112 -179 130 -181T161 -183Q192 -183 213 -170T235 -125Q235 -102 217 -88T171 -72L209
9H259L240 -34Q277 -39 299 -62T322 -117Q322 -160 300 -187T241 -227T162 -240Z" />
<glyph unicode="&#xe8;" horiz-adv-x="505" d="M245 -10Q190 -10 144 13T70 81T42 197Q42 241 55 289T93 383T155 466T242 524T351 546Q417 546 453 516T489 430Q489 378 452 332T348 258T197 229H162Q161 219 161 209T160 188Q160 126 187 92T269 57Q318 57 355
80T414 131Q425 122 425 101Q425 79 406 53T347 9T245 -10ZM180 278Q236 278 280 297T349 349T375 428Q375 461 361 478T319 495Q293 495 269 476T225 425T192 355T170 278H180ZM357 606Q340 620 320 639T282 679T247 720T219 756L222 766H335Q343 745 355 718T380
665T404 619L401 606H357Z" />
<glyph unicode="&#xe9;" horiz-adv-x="505" d="M245 -10Q190 -10 144 13T70 81T42 197Q42 241 55 289T93 383T155 466T242 524T351 546Q417 546 453 516T489 430Q489 378 452 332T348 258T197 229H162Q161 219 161 209T160 188Q160 126 187 92T269 57Q318 57 355
80T414 131Q425 122 425 101Q425 79 406 53T347 9T245 -10ZM180 278Q236 278 280 297T349 349T375 428Q375 461 361 478T319 495Q293 495 269 476T225 425T192 355T170 278H180ZM299 606L302 619Q320 639 340 664T378 716T412 766H533L530 756Q518 742 497 722T450
680T398 639T347 606H299Z" />
<glyph unicode="&#xea;" horiz-adv-x="505" d="M245 -10Q190 -10 144 13T70 81T42 197Q42 241 55 289T93 383T155 466T242 524T351 546Q417 546 453 516T489 430Q489 378 452 332T348 258T197 229H162Q161 219 161 209T160 188Q160 126 187 92T269 57Q318 57 355
80T414 131Q425 122 425 101Q425 79 406 53T347 9T245 -10ZM180 278Q236 278 280 297T349 349T375 428Q375 461 361 478T319 495Q293 495 269 476T225 425T192 355T170 278H180ZM187 619Q207 638 232 664T281 717T322 766H428Q435 745 447 718T473 664T499 619L496
606H453Q438 617 422 632T391 664T364 696Q346 681 324 665T280 633T237 606H184L187 619Z" />
<glyph unicode="&#xeb;" horiz-adv-x="505" d="M245 -10Q190 -10 144 13T70 81T42 197Q42 241 55 289T93 383T155 466T242 524T351 546Q417 546 453 516T489 430Q489 378 452 332T348 258T197 229H162Q161 219 161 209T160 188Q160 126 187 92T269 57Q318 57 355
80T414 131Q425 122 425 101Q425 79 406 53T347 9T245 -10ZM180 278Q236 278 280 297T349 349T375 428Q375 461 361 478T319 495Q293 495 269 476T225 425T192 355T170 278H180ZM445 629Q422 629 407 642T392 683Q392 713 407 731T450 750Q473 750 488 737T503
697Q503 659 485 644T445 629ZM246 629Q223 629 208 642T193 683Q193 713 208 731T251 750Q274 750 289 737T304 697Q304 659 286 644T246 629Z" />
<glyph unicode="&#xec;" horiz-adv-x="318" d="M163 -10Q119 -10 95 18T70 87Q70 106 73 132T81 185T91 234L130 418Q137 447 133 463T114 485T75 491H61L70 536H265L196 214Q194 201 190 181T184 141T182 107Q182 83 190 71T215 58Q232 58 248 65T284 83L303
52Q281 32 244 11T163 -10ZM478 606Q461 620 441 639T403 679T368 720T340 756L343 766H456Q464 745 476 718T501 665T525 619L522 606H478Z" />
<glyph unicode="&#xed;" horiz-adv-x="318" d="M163 -10Q119 -10 95 18T70 87Q70 106 73 132T81 185T91 234L130 418Q137 447 133 463T114 485T75 491H61L70 536H265L196 214Q194 201 190 181T184 141T182 107Q182 83 190 71T215 58Q232 58 248 65T284 83L303
52Q281 32 244 11T163 -10ZM161 606L164 619Q182 639 202 664T240 716T274 766H395L392 756Q380 742 359 722T312 680T260 639T209 606H161Z" />
<glyph unicode="&#xee;" horiz-adv-x="318" d="M163 -10Q119 -10 95 18T70 87Q70 106 73 132T81 185T91 234L130 418Q137 447 133 463T114 485T75 491H61L70 536H265L196 214Q194 201 190 181T184 141T182 107Q182 83 190 71T215 58Q232 58 248 65T284 83L303
52Q281 32 244 11T163 -10ZM293 619Q313 638 338 664T387 717T428 766H534Q541 745 553 718T579 664T605 619L602 606H559Q544 617 528 632T497 664T470 696Q452 681 430 665T386 633T343 606H290L293 619Z" />
<glyph unicode="&#xef;" horiz-adv-x="318" d="M163 -10Q119 -10 95 18T70 87Q70 106 73 132T81 185T91 234L130 418Q137 447 133 463T114 485T75 491H61L70 536H265L196 214Q194 201 190 181T184 141T182 107Q182 83 190 71T215 58Q232 58 248 65T284 83L303
52Q281 32 244 11T163 -10ZM301 629Q278 629 263 642T248 683Q248 713 263 731T306 750Q329 750 344 737T359 697Q359 659 341 644T301 629ZM102 629Q79 629 64 642T49 683Q49 713 64 731T107 750Q130 750 145 737T160 697Q160 659 142 644T102 629Z" />
<glyph unicode="&#xf0;" horiz-adv-x="585" d="M238 -10Q181 -9 137 13T67 78T42 186Q42 225 53 269T87 356T145 433T227 488T334 509Q362 509 385 502T425 482Q416 526 398 561T352 625T290 675T210 710L228 763Q298 745 355 710T454 624T518 506T541 356Q541
285 524 219T469 102T375 20T238 -10ZM253 45Q290 45 318 64T366 113T399 181T417 255T423 325Q423 391 399 421T331 452Q294 452 266 433T217 383T184 315T166 241T159 172Q159 128 170 100T202 59T253 45ZM210 547L223 607L535 762L521 701L210 547Z" />
<glyph unicode="&#xf1;" horiz-adv-x="619" d="M472 -10Q424 -10 399 18T373 91Q373 114 377 146T391 221L408 300Q411 313 415 334T424 377T428 417Q428 436 420 455T383 475Q354 475 325 452T270 393T228 318T204 249L151 0H42L126 401Q129 415 130 428T132
445Q132 475 114 483T67 491H56L65 536H260L238 415H247Q287 480 330 512T432 545Q473 545 496 530T530 489T541 433Q541 408 535 378T523 322L498 207Q492 180 489 154T485 105Q485 82 494 70T520 58Q536 58 551 64T583 81L602 50Q578 29 547 10T472 -10ZM437
606Q410 606 390 615T353 637T321 659T290 669Q262 669 250 653T231 616H182Q190 647 207 675T251 723T314 742Q341 742 361 733T397 711T428 689T459 679Q487 679 499 695T517 732H567Q559 702 542 673T499 625T437 606Z" />
<glyph unicode="&#xf2;" horiz-adv-x="586" d="M240 -10Q152 -10 97 41T42 198Q42 242 54 290T90 384T150 466T236 524T348 546Q403 546 447 525T517 458T544 338Q544 295 533 248T498 154T438 72T353 13T240 -10ZM253 47Q290 47 318 68T367 123T401 199T420 282T426
359Q426 430 402 460T335 491Q298 491 270 470T220 415T186 339T167 256T160 178Q160 131 171 102T203 60T253 47ZM361 606Q344 620 324 639T286 679T251 720T223 756L226 766H339Q347 745 359 718T384 665T408 619L405 606H361Z" />
<glyph unicode="&#xf3;" horiz-adv-x="586" d="M240 -10Q152 -10 97 41T42 198Q42 242 54 290T90 384T150 466T236 524T348 546Q403 546 447 525T517 458T544 338Q544 295 533 248T498 154T438 72T353 13T240 -10ZM253 47Q290 47 318 68T367 123T401 199T420 282T426
359Q426 430 402 460T335 491Q298 491 270 470T220 415T186 339T167 256T160 178Q160 131 171 102T203 60T253 47ZM310 606L313 619Q331 639 351 664T389 716T423 766H544L541 756Q529 742 508 722T461 680T409 639T358 606H310Z" />
<glyph unicode="&#xf4;" horiz-adv-x="586" d="M240 -10Q152 -10 97 41T42 198Q42 242 54 290T90 384T150 466T236 524T348 546Q403 546 447 525T517 458T544 338Q544 295 533 248T498 154T438 72T353 13T240 -10ZM253 47Q290 47 318 68T367 123T401 199T420 282T426
359Q426 430 402 460T335 491Q298 491 270 470T220 415T186 339T167 256T160 178Q160 131 171 102T203 60T253 47ZM196 619Q216 638 241 664T290 717T331 766H437Q444 745 456 718T482 664T508 619L505 606H462Q447 617 431 632T400 664T373 696Q355 681 333 665T289
633T246 606H193L196 619Z" />
<glyph unicode="&#xf5;" horiz-adv-x="586" d="M240 -10Q152 -10 97 41T42 198Q42 242 54 290T90 384T150 466T236 524T348 546Q403 546 447 525T517 458T544 338Q544 295 533 248T498 154T438 72T353 13T240 -10ZM253 47Q290 47 318 68T367 123T401 199T420 282T426
359Q426 430 402 460T335 491Q298 491 270 470T220 415T186 339T167 256T160 178Q160 131 171 102T203 60T253 47ZM432 606Q405 606 385 615T348 637T316 659T285 669Q257 669 245 653T226 616H177Q185 647 202 675T246 723T309 742Q336 742 356 733T392 711T423
689T454 679Q482 679 494 695T512 732H562Q554 702 537 673T494 625T432 606Z" />
<glyph unicode="&#xf6;" horiz-adv-x="586" d="M240 -10Q152 -10 97 41T42 198Q42 242 54 290T90 384T150 466T236 524T348 546Q403 546 447 525T517 458T544 338Q544 295 533 248T498 154T438 72T353 13T240 -10ZM253 47Q290 47 318 68T367 123T401 199T420 282T426
359Q426 430 402 460T335 491Q298 491 270 470T220 415T186 339T167 256T160 178Q160 131 171 102T203 60T253 47ZM456 629Q433 629 418 642T403 683Q403 713 418 731T461 750Q484 750 499 737T514 697Q514 659 496 644T456 629ZM257 629Q234 629 219 642T204 683Q204
713 219 731T262 750Q285 750 300 737T315 697Q315 659 297 644T257 629Z" />
<glyph unicode="&#xf7;" horiz-adv-x="559" d="M65 326V389H494V326H65ZM280 111Q257 111 243 123T228 168Q228 201 242 213T280 225Q302 225 317 213T332 168Q332 136 317 124T280 111ZM280 490Q257 490 243 502T228 547Q228 580 242 592T280 604Q302 604 317
592T332 547Q332 515 317 503T280 490Z" />
<glyph unicode="&#xf8;" horiz-adv-x="586" d="M7 -50L517 586H580L71 -50H7ZM240 -10Q152 -10 97 41T42 198Q42 242 54 290T90 384T150 466T236 524T348 546Q403 546 447 525T517 458T544 338Q544 295 533 248T498 154T438 72T353 13T240 -10ZM253 47Q290 47
318 68T367 123T401 199T420 282T426 359Q426 430 402 460T335 491Q298 491 270 470T220 415T186 339T167 256T160 178Q160 131 171 102T203 60T253 47Z" />
<glyph unicode="&#xf9;" horiz-adv-x="619" d="M469 -10Q438 -10 418 3T387 37T376 85Q376 95 377 111T381 140H373Q345 96 318 63T257 10T177 -9Q137 -9 113 6T79 47T68 102Q68 127 74 157T86 212L124 387Q127 403 130 423T133 448Q133 475 115 483T68 491H57L66
536H267L201 237Q195 211 189 176T182 120Q182 96 191 80T229 63Q255 63 282 83T334 136T379 210T407 291L460 536H571L502 214Q500 201 496 181T490 141T488 107Q488 83 496 71T521 58Q538 58 551 63T584 80L603 50Q581 29 547 10T469 -10ZM356 606Q339 620 319
639T281 679T246 720T218 756L221 766H334Q342 745 354 718T379 665T403 619L400 606H356Z" />
<glyph unicode="&#xfa;" horiz-adv-x="619" d="M469 -10Q438 -10 418 3T387 37T376 85Q376 95 377 111T381 140H373Q345 96 318 63T257 10T177 -9Q137 -9 113 6T79 47T68 102Q68 127 74 157T86 212L124 387Q127 403 130 423T133 448Q133 475 115 483T68 491H57L66
536H267L201 237Q195 211 189 176T182 120Q182 96 191 80T229 63Q255 63 282 83T334 136T379 210T407 291L460 536H571L502 214Q500 201 496 181T490 141T488 107Q488 83 496 71T521 58Q538 58 551 63T584 80L603 50Q581 29 547 10T469 -10ZM319 606L322 619Q340
639 360 664T398 716T432 766H553L550 756Q538 742 517 722T470 680T418 639T367 606H319Z" />
<glyph unicode="&#xfb;" horiz-adv-x="619" d="M469 -10Q438 -10 418 3T387 37T376 85Q376 95 377 111T381 140H373Q345 96 318 63T257 10T177 -9Q137 -9 113 6T79 47T68 102Q68 127 74 157T86 212L124 387Q127 403 130 423T133 448Q133 475 115 483T68 491H57L66
536H267L201 237Q195 211 189 176T182 120Q182 96 191 80T229 63Q255 63 282 83T334 136T379 210T407 291L460 536H571L502 214Q500 201 496 181T490 141T488 107Q488 83 496 71T521 58Q538 58 551 63T584 80L603 50Q581 29 547 10T469 -10ZM214 619Q234 638 259
664T308 717T349 766H455Q462 745 474 718T500 664T526 619L523 606H480Q465 617 449 632T418 664T391 696Q373 681 351 665T307 633T264 606H211L214 619Z" />
<glyph unicode="&#xfc;" horiz-adv-x="619" d="M469 -10Q438 -10 418 3T387 37T376 85Q376 95 377 111T381 140H373Q345 96 318 63T257 10T177 -9Q137 -9 113 6T79 47T68 102Q68 127 74 157T86 212L124 387Q127 403 130 423T133 448Q133 475 115 483T68 491H57L66
536H267L201 237Q195 211 189 176T182 120Q182 96 191 80T229 63Q255 63 282 83T334 136T379 210T407 291L460 536H571L502 214Q500 201 496 181T490 141T488 107Q488 83 496 71T521 58Q538 58 551 63T584 80L603 50Q581 29 547 10T469 -10ZM485 629Q462 629 447
642T432 683Q432 713 447 731T490 750Q513 750 528 737T543 697Q543 659 525 644T485 629ZM286 629Q263 629 248 642T233 683Q233 713 248 731T291 750Q314 750 329 737T344 697Q344 659 326 644T286 629Z" />
<glyph unicode="&#xfd;" horiz-adv-x="544" d="M-67 -240Q-93 -240 -118 -235T-164 -222L-149 -170Q-137 -174 -119 -178T-69 -182Q-21 -182 20 -166T95 -125T157 -68T210 -8L79 438Q74 458 65 469T43 486T10 491H0L10 536H169L244 269Q252 243 260 207T276 138T284
88H287Q325 145 356 202T405 313T424 410Q424 426 419 439T403 460T372 468Q372 505 393 525T441 545Q475 545 494 524T513 461Q513 409 491 347T429 214T333 60Q283 -16 241 -72T155 -166T58 -221T-67 -240ZM254 606L257 619Q275 639 295 664T333 716T367 766H488L485
756Q473 742 452 722T405 680T353 639T302 606H254Z" />
<glyph unicode="&#xfe;" horiz-adv-x="579" d="M157 619Q161 637 163 651T165 669Q165 699 147 707T100 715H88L97 760H297L249 534Q246 521 241 503T231 465T220 429T211 402H217Q238 442 264 475T324 527T403 546Q465 546 501 500T537 365Q537 322 525 272T489
171T429 80T344 15T235 -10Q205 -10 179 -3T134 14Q133 5 132 -9T128 -35L114 -98Q111 -111 109 -127T106 -152Q106 -177 121 -186T171 -195H191L182 -240H-26L157 619ZM229 40Q266 40 296 61T349 119T389 198T413 284T421 364Q421 392 416 418T397 461T359 478Q337
478 315 464T274 427T238 374T210 316T192 261L152 74Q161 64 182 52T229 40Z" />
<glyph unicode="&#xff;" horiz-adv-x="544" d="M-67 -240Q-93 -240 -118 -235T-164 -222L-149 -170Q-137 -174 -119 -178T-69 -182Q-21 -182 20 -166T95 -125T157 -68T210 -8L79 438Q74 458 65 469T43 486T10 491H0L10 536H169L244 269Q252 243 260 207T276 138T284
88H287Q325 145 356 202T405 313T424 410Q424 426 419 439T403 460T372 468Q372 505 393 525T441 545Q475 545 494 524T513 461Q513 409 491 347T429 214T333 60Q283 -16 241 -72T155 -166T58 -221T-67 -240ZM657 629Q634 629 619 642T604 683Q604 713 619 731T662
750Q685 750 700 737T715 697Q715 659 697 644T657 629ZM458 629Q435 629 420 642T405 683Q405 713 420 731T463 750Q486 750 501 737T516 697Q516 659 498 644T458 629Z" />
<glyph unicode="&#x2013;" horiz-adv-x="500" d="M-12 237L1 300H513L499 237H-12Z" />
<glyph unicode="&#x2014;" horiz-adv-x="1000" d="M-12 237L1 300H1013L999 237H-12Z" />
<glyph unicode="&#x2018;" horiz-adv-x="258" d="M188 432Q155 432 131 454T107 516Q107 587 154 641T299 714L293 669Q243 658 217 637T191 586Q191 572 200 563T222 546T243 526T253 494Q253 464 234 448T188 432Z" />
<glyph unicode="&#x2019;" horiz-adv-x="258" d="M89 477Q140 488 166 509T192 561Q192 575 182 583T160 600T139 620T129 653Q129 682 148 698T195 714Q228 714 251 692T275 630Q275 560 228 506T83 432L89 477Z" />
<glyph unicode="&#x201a;" horiz-adv-x="258" d="M-19 -102Q31 -91 57 -70T83 -19Q83 -4 74 4T52 21T30 41T20 73Q20 103 40 119T86 135Q119 135 143 113T167 50Q167 -20 120 -74T-25 -147L-19 -102Z" />
<glyph unicode="&#x201c;" horiz-adv-x="461" d="M390 432Q358 432 334 454T310 516Q310 587 357 641T501 714L496 669Q445 658 419 637T393 586Q393 572 402 563T424 546T446 526T456 494Q456 464 437 448T390 432ZM188 432Q155 432 131 454T107 516Q107 587
154 641T299 714L293 669Q243 658 217 637T191 586Q191 572 200 563T222 546T243 526T253 494Q253 464 234 448T188 432Z" />
<glyph unicode="&#x201d;" horiz-adv-x="461" d="M292 477Q342 488 368 509T394 561Q394 575 385 583T363 600T341 620T331 653Q331 682 350 698T397 714Q430 714 453 692T477 630Q477 560 430 506T286 432L292 477ZM89 477Q140 488 166 509T192 561Q192 575 182
583T160 600T139 620T129 653Q129 682 148 698T195 714Q228 714 251 692T275 630Q275 560 228 506T83 432L89 477Z" />
<glyph unicode="&#x201e;" horiz-adv-x="461" d="M185 -102Q235 -91 261 -70T287 -19Q287 -4 278 4T256 21T235 41T225 73Q225 103 244 119T290 135Q323 135 347 113T371 50Q371 -20 324 -74T179 -147L185 -102ZM-17 -102Q33 -91 59 -70T85 -19Q85 -4 76 4T54
21T32 41T22 73Q22 103 42 119T88 135Q121 135 144 113T168 50Q168 -20 121 -74T-23 -147L-17 -102Z" />
<glyph unicode="&#x2022;" horiz-adv-x="372" d="M197 207Q139 207 101 239T63 351Q63 405 80 439T128 489T200 505Q238 505 268 491T317 446T335 361Q335 304 316 270T265 222T197 207Z" />
<glyph unicode="&#x2039;" horiz-adv-x="339" d="M176 77L61 253L69 291L259 463H314L170 267L232 77H176Z" />
<glyph unicode="&#x203a;" horiz-adv-x="339" d="M24 77L170 273L106 463H162L277 287L269 249L80 77H24Z" />
</font>
</defs>
</svg>
