<?xml version="1.0" standalone="no"?>
<!DOCTYPE svg PUBLIC "-//W3C//DTD SVG 1.1//EN" "http://www.w3.org/Graphics/SVG/1.1/DTD/svg11.dtd">
<svg xmlns="http://www.w3.org/2000/svg">
<defs >
<font id="SofiaSansExtraCondensed" horiz-adv-x="312" ><font-face
    font-family="Sofia Sans Extra Condensed Light"
    units-per-em="1000"
    panose-1="0 0 0 0 0 0 0 0 0 0"
    ascent="900"
    descent="-300"
    alphabetic="0" />
<glyph unicode=" " horiz-adv-x="138" />
<glyph unicode="!" horiz-adv-x="148" d="M58 176Q54 176 54 182L51 649Q51 655 55 655H92Q97 655 97 649L94 182Q94 176 89 176H58ZM74 -6Q59 -6 51 2T43 25V32Q43 47 51 55T74 63Q89 63 97 55T105 32V25Q105 10 97 2T74 -6Z" />
<glyph unicode="&quot;" horiz-adv-x="240" d="M166 431Q160 431 160 437V677Q160 683 166 683H194Q200 683 200 677V437Q200 431 194 431H166ZM46 431Q40 431 40 437V677Q40 683 46 683H74Q80 683 80 677V437Q80 431 74 431H46Z" />
<glyph unicode="#" horiz-adv-x="353" d="M81 0Q75 0 75 6V131H27Q21 131 21 137V163Q21 169 27 169H75V444H27Q21 444 21 450V476Q21 482 27 482H75V607Q75 613 81 613H105Q111 613 111 607V482H241V607Q241 613 247 613H271Q276 613 276 607V482H325Q331 482
331 476V450Q331 444 325 444H276V169H325Q331 169 331 163V137Q331 131 325 131H276V6Q276 0 271 0H247Q241 0 241 6V131H111V6Q111 0 105 0H81ZM111 169H241V444H111V169Z" />
<glyph unicode="$" horiz-adv-x="420" d="M208 -6Q140 -6 110 41T84 173Q84 179 89 179H119Q125 179 124 173Q121 102 143 68T210 34Q253 34 275 61T297 148Q297 201 284 233T236 294L167 352Q126 387 108 424T90 519Q90 586 123 623T209 661Q272 661 303 616T330
487Q330 480 324 480H295Q289 480 290 487Q292 552 271 586T209 621Q175 621 153 595T131 520Q131 474 145 446T192 388L260 331Q289 306 306 281T330 224T338 150Q338 74 306 34T208 -6ZM200 -89Q194 -89 194 -83V0L230 2V-83Q230 -89 224 -89H200ZM194 655V736Q194
742 200 742H224Q230 742 230 736V653L194 655Z" />
<glyph unicode="%" horiz-adv-x="573" d="M158 0Q152 0 154 7L271 336L379 652Q380 656 385 656H414Q422 656 418 649L306 333L193 4Q192 0 187 0H158ZM145 324Q97 324 73 353T48 431V552Q48 601 72 631T145 661Q192 661 216 631T241 552V431Q241 382 217 353T145
324ZM145 356Q207 356 207 431V553Q207 590 192 609T145 628Q113 628 98 609T83 553V431Q83 356 145 356ZM429 -6Q382 -6 357 23T332 102V223Q332 272 357 301T429 331Q476 331 500 302T525 223V102Q525 53 501 24T429 -6ZM429 27Q461 27 475 46T490 102V224Q490
261 476 280T429 299Q396 299 382 280T367 224V102Q367 65 381 46T429 27Z" />
<glyph unicode="&amp;" horiz-adv-x="389" d="M341 0Q337 0 335 3L109 383Q88 417 75 458T62 543Q62 601 87 631T158 661Q199 661 220 632T241 551Q241 518 234 489T208 428T157 355L136 382Q167 420 185 457T203 548Q203 585 191 604T156 624Q131 624 116 605T100
544Q100 507 111 472T143 401L378 8Q379 5 379 3T375 0H341ZM156 -6Q97 -6 67 35T36 150Q36 179 41 206T57 261T85 316T128 373L148 346Q121 310 105 279T81 217T74 152Q74 95 96 63T160 31Q228 31 265 108T302 342Q302 347 308 347H334Q340 347 340 342Q340 229
318 152T255 34T156 -6Z" />
<glyph unicode="&apos;" horiz-adv-x="120" d="M46 431Q40 431 40 437V677Q40 683 46 683H74Q80 683 80 677V437Q80 431 74 431H46Z" />
<glyph unicode="(" horiz-adv-x="169" d="M118 -140Q87 -108 72 -84T52 -30T47 43V512Q47 557 52 586T72 639T118 695Q122 699 126 695L144 676Q146 674 146 672T144 668Q121 642 109 622T92 577T87 512V43Q87 3 91 -22T108 -66T144 -113Q146 -115 146 -117T144
-121L126 -140Q122 -144 118 -140Z" />
<glyph unicode=")" horiz-adv-x="169" d="M43 -140L24 -121Q22 -119 22 -117T24 -113Q48 -86 60 -67T77 -22T82 43V512Q82 552 77 576T60 621T24 668Q22 670 22 672T24 676L43 695Q47 700 51 695Q82 664 97 640T116 586T121 512V43Q121 -1 117 -30T97 -83T51 -140Q47
-145 43 -140Z" />
<glyph unicode="*" horiz-adv-x="315" d="M96 453L78 468Q74 471 77 475L137 543L50 569Q47 571 46 572T46 576L55 598Q56 603 62 601L145 567L141 659Q141 664 145 664H169Q172 664 173 663T174 659L170 566L254 601Q256 602 258 602T261 598L269 576Q270 573
269 572T265 569L177 543L238 475Q239 474 239 472T237 468L218 453Q215 450 211 454L157 528L103 454Q101 450 96 453Z" />
<glyph unicode="+" horiz-adv-x="420" d="M196 179Q190 179 190 185V282H93Q88 282 88 287V314Q88 320 93 320H190V418Q190 423 196 423H223Q229 423 229 418V320H326Q332 320 332 314V287Q332 282 326 282H229V185Q229 179 223 179H196Z" />
<glyph unicode="," horiz-adv-x="150" d="M28 -138Q23 -138 24 -131L68 87Q69 93 74 93H110Q113 93 114 91T115 85L59 -133Q58 -138 54 -138H28Z" />
<glyph unicode="-" horiz-adv-x="290" d="M49 248Q44 248 44 254V277Q44 283 49 283H241Q247 283 247 277V254Q247 248 241 248H49Z" />
<glyph unicode="." horiz-adv-x="148" d="M74 -6Q60 -6 52 2T43 25V32Q43 47 51 55T74 63Q89 63 97 55T105 32V25Q105 10 97 2T74 -6Z" />
<glyph unicode="/" horiz-adv-x="224" d="M12 0Q7 0 9 6L177 650Q178 655 183 655H212Q217 655 215 648L46 5Q45 0 42 0H12Z" />
<glyph unicode="0" horiz-adv-x="355" d="M178 -6Q112 -6 79 39T45 172V483Q45 571 78 616T178 661Q243 661 276 616T310 483V172Q310 85 277 40T178 -6ZM178 34Q224 34 246 68T268 173V481Q268 552 246 586T178 621Q131 621 109 587T86 481V173Q86 103 108 69T178 34Z" />
<glyph unicode="1" horiz-adv-x="274" d="M32 0Q26 0 26 6V34Q26 40 32 40H128V606L33 565Q31 564 29 565T27 569V597Q27 602 32 604L152 657Q156 659 159 659H164Q169 659 169 653V40H256Q262 40 262 34V6Q262 0 256 0H32Z" />
<glyph unicode="2" horiz-adv-x="324" d="M48 0Q42 0 42 6V43Q42 112 56 159T94 240T143 301T191 355T228 417T243 502V516Q243 572 225 596T167 621Q122 621 103 589T87 495Q87 489 81 489H53Q47 489 47 495Q44 577 74 619T167 661Q226 661 255 625T285 512Q285
451 271 411T234 341T185 286T137 229T100 153T85 40H278Q283 40 283 34V6Q283 0 278 0H48Z" />
<glyph unicode="3" horiz-adv-x="334" d="M161 -6Q96 -6 67 38T39 163Q39 169 45 169H73Q79 169 79 163Q78 98 98 66T163 34Q206 34 229 67T253 164V185Q253 250 230 283T156 317H120Q114 317 114 322V350Q114 356 120 356H156Q195 356 219 391T244 491V510Q244
567 225 594T165 621Q120 621 100 588T82 495Q82 489 76 489H48Q42 489 42 495Q40 575 71 618T167 661Q226 661 255 623T285 504Q285 435 266 395T214 340V339Q252 325 273 287T294 176Q294 85 260 40T161 -6Z" />
<glyph unicode="4" horiz-adv-x="324" d="M222 0Q216 0 216 6V141H17Q11 141 11 147V151Q11 153 11 155T12 159L173 650Q175 655 180 655H210Q216 655 214 648L63 181H216L218 419Q218 425 224 425H251Q257 425 257 419V181H306Q312 181 312 176V147Q312 141 306
141H257V6Q257 0 251 0H222Z" />
<glyph unicode="5" d="M152 -6Q111 -6 84 13T45 70T33 163Q33 167 34 168T39 169H67Q72 169 72 163Q71 103 89 69T153 34Q197 34 220 73T243 187V214Q243 260 235 293T208 346T155 365Q131 365 106 356T57 331Q52 328 49 330T45 336L71 649Q71 655 77 655H255Q261
655 261 649V621Q261 615 255 615H108L87 382Q107 392 126 398T167 404Q228 404 256 353T285 199Q285 101 251 48T152 -6Z" />
<glyph unicode="6" horiz-adv-x="348" d="M177 -6Q109 -6 77 37T45 174V479Q45 572 77 616T178 661Q234 661 264 627T295 531Q295 524 289 524H261Q255 524 255 531Q255 574 235 597T178 621Q130 621 108 588T86 480V176Q86 101 107 68T176 34Q222 34 244 75T267
202V213Q267 296 250 330T193 365Q168 365 140 352T78 309V350Q113 379 143 392T203 405Q258 405 283 359T309 208Q309 102 276 48T177 -6Z" />
<glyph unicode="7" horiz-adv-x="311" d="M93 0Q91 0 90 2T90 8L251 615H71V511Q71 505 65 505H36Q30 505 30 511V649Q30 655 36 655H295Q301 655 301 649V644Q301 639 300 635L131 5Q129 0 125 0H93Z" />
<glyph unicode="8" horiz-adv-x="345" d="M173 -6Q34 -6 34 169Q34 241 56 287T119 350Q84 368 68 404T51 500Q51 577 82 619T173 661Q231 661 262 619T293 500Q293 441 277 405T226 350Q267 333 289 287T311 169Q311 -6 173 -6ZM173 32Q222 32 245 64T269 164V177Q269
253 244 292T173 332Q126 332 101 293T75 177V164Q75 96 99 64T173 32ZM173 368Q211 368 232 400T253 491V503Q253 564 233 593T173 623Q132 623 112 594T92 503V491Q92 432 113 400T173 368Z" />
<glyph unicode="9" horiz-adv-x="352" d="M174 -6Q114 -6 85 31T55 142Q55 147 61 147H89Q95 147 95 142Q95 87 114 61T173 34Q221 34 243 66T265 173V477Q265 552 244 586T176 621Q129 621 107 583T85 455V444Q85 362 102 326T160 290Q186 290 212 304T274 347V306Q239
276 210 263T150 250Q96 250 70 298T43 449Q43 559 75 610T176 661Q243 661 275 616T307 481V174Q307 81 275 38T174 -6Z" />
<glyph unicode=":" horiz-adv-x="148" d="M74 386Q60 386 52 394T43 417V424Q43 439 51 447T74 455Q89 455 97 447T105 424V417Q105 402 97 394T74 386ZM74 -6Q60 -6 52 2T43 25V32Q43 47 51 55T74 63Q89 63 97 55T105 32V25Q105 10 97 2T74 -6Z" />
<glyph unicode=";" horiz-adv-x="154" d="M20 -138Q15 -138 16 -131L60 87Q61 93 66 93H102Q106 93 107 91T107 85L51 -133Q51 -138 45 -138H20ZM80 387Q65 387 57 394T49 417V424Q49 439 57 447T80 455Q95 455 102 447T110 424V417Q110 402 103 395T80 387Z" />
<glyph unicode="&lt;" horiz-adv-x="420" d="M325 156L93 279Q90 281 90 285V315Q90 319 93 322L324 444Q328 446 329 445T331 440V401Q331 395 327 394L133 300L327 206Q331 204 331 199V161Q331 158 330 157T325 156Z" />
<glyph unicode="=" horiz-adv-x="420" d="M95 349Q89 349 89 354V381Q89 387 95 387H326Q332 387 332 381V354Q332 349 326 349H95ZM95 216Q89 216 89 222V249Q89 255 95 255H326Q332 255 332 249V222Q332 216 326 216H95Z" />
<glyph unicode="&gt;" horiz-adv-x="420" d="M96 156Q93 155 92 156T90 161V199Q90 204 93 206L288 300L93 394Q90 395 90 401V440Q90 443 92 444T96 444L328 322Q331 319 331 315V285Q331 282 328 279L96 156Z" />
<glyph unicode="?" horiz-adv-x="284" d="M114 176Q110 176 110 182V233Q110 271 120 300T146 355T177 406T203 463T213 535Q213 585 197 604T146 623Q101 623 85 590T72 491Q72 485 67 485H38Q36 485 35 487T33 492Q29 578 58 619T148 661Q202 661 228 633T254
536Q254 494 244 461T218 399T187 345T161 292T150 232V182Q150 176 145 176H114ZM131 -6Q115 -6 108 2T100 25V32Q100 47 107 55T131 63Q146 63 154 55T162 32V25Q162 10 154 2T131 -6Z" />
<glyph unicode="@" horiz-adv-x="583" d="M291 -185Q207 -185 151 -142T68 -21T40 160V344Q40 448 67 525T151 646T291 689Q376 689 431 646T514 526T542 344V257Q542 184 528 133T488 55T423 28Q395 28 374 43T342 86T336 156L366 427Q352 429 334 434T294 440Q264
440 249 415T227 334L208 162Q203 116 215 91T252 66Q277 66 302 87T352 144L357 103Q327 66 299 47T239 27Q202 27 183 62T171 161L190 340Q198 409 222 443T293 478Q324 478 349 469T401 458Q405 457 405 451L373 164Q369 116 383 91T426 66Q452 66 469 88T494
152T503 257V344Q503 438 480 507T410 613T291 651Q220 651 173 614T102 507T79 344V160Q79 66 102 -3T172 -109T291 -147H365Q371 -147 371 -153V-179Q371 -185 365 -185H291Z" />
<glyph unicode="A" horiz-adv-x="334" d="M6 0Q0 0 1 7L139 650Q140 655 145 655H188Q193 655 194 650L332 7Q333 0 328 0H295Q290 0 289 5L194 469Q187 504 181 538T167 607H166Q160 572 154 538T139 467L44 5Q43 0 38 0H6ZM71 176L80 216H252L261 176H71Z" />
<glyph unicode="B" horiz-adv-x="359" d="M65 0Q59 0 59 6V649Q59 655 65 655H158Q234 655 269 616T305 495Q305 440 286 401T231 344V342Q276 329 299 288T323 183Q323 92 285 46T168 0H65ZM100 40H166Q226 40 254 74T282 186Q282 252 255 285T173 319H100V40ZM100
358H169Q214 358 239 393T264 490Q264 556 239 585T161 615H100V358Z" />
<glyph unicode="C" horiz-adv-x="391" d="M198 -6Q125 -6 87 42T49 185V470Q49 565 87 613T198 661Q250 661 284 636T332 565T341 451Q340 446 336 446H305Q299 446 300 452Q305 537 281 579T198 621Q145 621 118 584T90 467V188Q90 110 117 72T198 34Q257 34
281 77T302 203Q301 209 307 209H336Q342 209 342 203Q347 101 311 48T198 -6Z" />
<glyph unicode="D" horiz-adv-x="395" d="M65 0Q59 0 59 6V649Q59 655 64 655H156Q255 655 302 592T350 388V282Q350 135 305 68T160 0H65ZM100 40H158Q240 40 274 96T309 280V388Q309 508 272 561T155 615H100V40Z" />
<glyph unicode="E" horiz-adv-x="330" d="M64 0Q59 0 59 6V649Q59 655 64 655H281Q286 655 286 649V621Q286 615 281 615H100V354H267Q272 354 272 348V322Q272 316 267 316H100V40H281Q286 40 286 34V6Q286 0 281 0H64Z" />
<glyph unicode="F" horiz-adv-x="309" d="M63 0Q59 0 59 6V649Q59 655 64 655H281Q286 655 286 649V621Q286 615 281 615H100V345H260Q265 345 265 339V313Q265 307 260 307H100V6Q100 0 95 0H63Z" />
<glyph unicode="G" horiz-adv-x="403" d="M189 -6Q119 -6 84 41T49 182V471Q49 565 87 613T197 661Q271 661 310 609T342 461Q342 456 337 456H305Q300 456 301 461Q307 538 279 579T198 621Q145 621 118 584T90 469V185Q90 107 115 71T195 34Q249 34 276 81T304
230V284H208Q203 284 203 290V318Q203 324 208 324H339Q344 324 344 318V134Q344 92 345 63T349 7Q349 0 345 0H319Q314 0 314 5Q311 25 310 48T309 101H308Q296 54 269 24T189 -6Z" />
<glyph unicode="H" horiz-adv-x="408" d="M64 0Q59 0 59 6V649Q59 655 64 655H95Q100 655 100 649V359H308V649Q308 655 313 655H344Q349 655 349 649V6Q349 0 344 0H313Q308 0 308 6V319H100V6Q100 0 95 0H64Z" />
<glyph unicode="I" horiz-adv-x="158" d="M64 0Q59 0 59 6V649Q59 655 64 655H95Q100 655 100 649V6Q100 0 95 0H64Z" />
<glyph unicode="J" horiz-adv-x="158" d="M17 -138Q11 -141 9 -135L0 -106Q-1 -103 -1 -101T3 -97Q22 -90 34 -73T53 -22T59 68V649Q59 655 64 655H95Q100 655 100 649V68Q100 -1 91 -42T64 -106T17 -138Z" />
<glyph unicode="K" horiz-adv-x="353" d="M64 0Q59 0 59 6V649Q59 655 64 655H95Q100 655 100 649V399Q100 379 100 358T99 317T98 274H99Q114 306 128 336T159 398L289 652Q290 655 295 655H332Q338 655 334 647L195 386L348 8Q352 0 346 0H308Q304 0 302 4L170
339L100 207V6Q100 0 95 0H64Z" />
<glyph unicode="L" horiz-adv-x="297" d="M64 0Q59 0 59 6V649Q59 655 64 655H95Q100 655 100 649V40H276Q282 40 282 34V6Q282 0 276 0H64Z" />
<glyph unicode="M" horiz-adv-x="482" d="M56 0Q51 0 51 6L60 649Q60 655 66 655H115Q120 655 121 650L241 215L361 650Q362 655 368 655H416Q421 655 421 649L430 6Q430 0 425 0H395Q389 0 389 6L384 468Q383 497 383 530T384 595H383Q376 565 367 535T350 475L248
115Q247 110 242 110H239Q234 110 233 115L130 478Q122 507 114 536T99 595H97Q98 565 98 533T98 472L92 6Q92 0 87 0H56Z" />
<glyph unicode="N" horiz-adv-x="410" d="M63 0Q59 0 59 6V649Q59 655 64 655H116Q121 655 122 651L246 267Q258 234 269 197T292 123T313 53H314Q314 78 314 105T313 160T312 215T312 268V649Q312 655 317 655H347Q352 655 352 649V6Q352 0 347 0H295Q291 0 289
4L169 375Q150 433 133 491T99 602H97Q98 567 98 528T98 449T99 372V6Q99 0 94 0H63Z" />
<glyph unicode="O" horiz-adv-x="396" d="M198 -6Q126 -6 88 39T49 175V479Q49 571 87 616T198 661Q269 661 308 616T347 479V175Q347 85 308 40T198 -6ZM198 34Q250 34 278 69T306 178V476Q306 551 278 586T198 621Q145 621 118 586T90 476V178Q90 104 117 69T198 34Z" />
<glyph unicode="P" horiz-adv-x="337" d="M64 0Q59 0 59 6V649Q59 655 64 655H149Q229 655 269 609T309 459Q309 364 272 315T153 265H100V6Q100 0 95 0H64ZM100 305H149Q215 305 241 343T268 458Q268 542 239 579T152 616H100V305Z" />
<glyph unicode="Q" horiz-adv-x="396" d="M271 -176Q245 -176 227 -157T201 -96T194 9Q194 12 196 13T199 15L231 16Q234 16 234 10Q232 -40 237 -72T252 -120T277 -136Q284 -136 289 -135T299 -131Q304 -129 304 -136V-163Q304 -169 299 -171Q294 -173 287 -174T271
-176ZM198 -6Q126 -6 88 39T49 175V479Q49 571 87 616T198 661Q269 661 308 616T347 479V175Q347 85 308 40T198 -6ZM198 34Q250 34 278 69T306 178V476Q306 551 278 586T198 621Q145 621 118 586T90 476V178Q90 104 117 69T198 34Z" />
<glyph unicode="R" horiz-adv-x="364" d="M64 0Q59 0 59 6V649Q59 655 64 655H167Q244 655 281 613T318 478Q318 405 295 361T230 304V303L338 8Q340 0 333 0H299Q296 0 294 4L189 294H100V6Q100 0 95 0H64ZM100 332H172Q227 332 252 369T277 475Q277 550 250
582T167 615H100V332Z" />
<glyph unicode="S" horiz-adv-x="338" d="M165 -6Q115 -6 85 15T43 77T33 173Q33 179 38 179H68Q74 179 73 173Q68 102 91 68T167 34Q215 34 238 61T262 148Q262 201 247 233T194 294L119 352Q76 384 58 422T39 519Q39 586 73 623T166 661Q235 661 268 616T295
487Q295 480 290 480H258Q254 480 254 487Q259 552 236 586T167 621Q126 621 103 595T80 520Q80 474 95 443T144 386L218 329Q250 305 268 281T295 225T303 150Q303 74 270 34T165 -6Z" />
<glyph unicode="T" horiz-adv-x="322" d="M146 0Q141 0 141 6V615H26Q20 615 20 621V649Q20 655 26 655H297Q302 655 302 649V621Q302 615 297 615H182V6Q182 0 176 0H146Z" />
<glyph unicode="U" horiz-adv-x="398" d="M199 -6Q124 -6 90 44T55 197V649Q55 655 60 655H91Q96 655 96 649V198Q96 114 120 74T199 34Q253 34 277 73T302 198V649Q302 655 307 655H338Q343 655 343 649V197Q343 95 308 45T199 -6Z" />
<glyph unicode="V" horiz-adv-x="354" d="M154 0Q150 0 148 5L13 648Q12 655 18 655H50Q55 655 56 650L151 190Q158 155 164 120T177 48H178Q185 84 191 119T205 191L298 650Q299 655 304 655H336Q342 655 341 648L207 6Q206 0 202 0H154Z" />
<glyph unicode="W" horiz-adv-x="513" d="M135 0Q131 0 130 5L16 648Q15 655 19 655H51Q56 655 57 650L136 194Q140 171 143 146T150 96T157 49H158Q164 81 169 113T180 177L240 508L218 638Q217 645 223 645H254Q259 645 260 639L336 180Q341 147 346 115T356
49H357Q360 72 363 96T370 145T378 197L455 650Q456 655 460 655H492Q498 655 497 648L384 6Q383 0 378 0H336Q331 0 330 6L281 304Q275 336 271 368T261 432H260Q255 400 249 369T238 306L182 6Q181 2 180 1T177 0H135Z" />
<glyph unicode="X" horiz-adv-x="331" d="M8 0Q3 0 5 8L140 337L13 647Q10 655 16 655H53Q57 655 59 652L128 474Q138 449 147 423T166 372H167Q176 398 186 423T206 475L275 651Q276 655 280 655H316Q322 655 319 647L193 336L326 7Q330 0 323 0H286Q283 0 281
4L208 188Q197 217 187 245T166 301H165Q156 273 145 245T124 190L51 5Q49 0 45 0H8Z" />
<glyph unicode="Y" horiz-adv-x="330" d="M149 0Q145 0 145 6V224L12 647Q10 655 15 655H51Q55 655 56 650L133 390Q141 362 149 334T165 278H166Q174 306 182 334T198 390L275 651Q276 655 280 655H314Q320 655 318 647L186 225V6Q186 0 182 0H149Z" />
<glyph unicode="Z" horiz-adv-x="317" d="M15 0Q10 0 10 6V8Q10 12 12 17L210 516Q220 541 229 565T249 614V616Q232 615 213 615T176 615H35Q29 615 29 621V649Q29 655 35 655H299Q304 655 304 649V647Q304 645 304 643T302 638L103 137Q94 113 84 89T64 41V39Q84
40 100 40T134 40H285Q290 40 290 34V6Q290 0 285 0H15Z" />
<glyph unicode="[" horiz-adv-x="163" d="M53 -141Q47 -141 47 -135V690Q47 696 53 696H159Q165 696 165 690V664Q165 658 159 658H86V-103H159Q165 -103 165 -109V-135Q165 -141 159 -141H53Z" />
<glyph unicode="\" horiz-adv-x="225" d="M183 0Q177 0 177 5L9 648Q7 655 13 655H41Q46 655 47 650L216 7Q218 0 212 0H183Z" />
<glyph unicode="]" horiz-adv-x="163" d="M3 -141Q-2 -141 -2 -135V-109Q-2 -103 3 -103H77V658H3Q-2 658 -2 664V690Q-2 696 3 696H110Q115 696 115 690V-135Q115 -141 110 -141H3Z" />
<glyph unicode="^" horiz-adv-x="302" d="M33 350Q27 350 29 357L132 679Q134 683 137 683H165Q168 683 170 679L272 358Q275 350 269 350H239Q235 350 234 354L151 637L68 354Q67 350 62 350H33Z" />
<glyph unicode="_" horiz-adv-x="291" d="M12 -99Q5 -99 5 -93V-69Q5 -64 12 -64H279Q285 -64 285 -69V-93Q285 -99 279 -99H12Z" />
<glyph unicode="`" horiz-adv-x="168" d="M109 559Q104 559 101 563L32 682Q29 686 30 688T35 690H66Q71 690 73 685L137 566Q139 563 138 561T134 559H109Z" />
<glyph unicode="a" horiz-adv-x="307" d="M225 0Q220 0 220 6Q218 29 217 55T215 97L213 100V360Q213 410 200 429T153 449Q118 449 103 428T92 365Q92 359 86 359H59Q52 359 52 367Q47 424 73 456T153 488Q208 489 231 460T254 361V115Q254 81 255 54T257 7Q257
0 253 0H225ZM114 -6Q76 -6 56 27T36 117Q36 182 64 222T156 270L218 278V243L160 235Q116 230 97 200T77 119Q77 80 89 57T125 34Q145 34 166 49T220 110L221 69Q188 26 165 10T114 -6Z" />
<glyph unicode="b" horiz-adv-x="335" d="M175 -6Q144 -6 115 1T53 14V677Q53 683 58 683H89Q94 683 94 677V47Q113 43 132 39T172 34Q210 34 230 60T250 153V360Q250 406 237 427T197 449Q168 449 140 426T86 367L83 408Q112 444 143 466T209 488Q250 488 270
459T291 364V152Q291 66 262 30T175 -6Z" />
<glyph unicode="c" horiz-adv-x="317" d="M165 -6Q103 -6 73 31T42 146V337Q42 414 72 451T164 488Q202 488 228 472T266 424T276 349Q276 341 270 341H241Q239 341 238 342T237 347Q239 394 221 421T164 449Q123 449 103 422T83 335V147Q83 88 103 61T165 34Q203
34 220 60T236 139Q236 146 241 146H270Q276 146 276 140Q277 68 250 31T165 -6Z" />
<glyph unicode="d" horiz-adv-x="334" d="M128 -6Q88 -6 66 23T44 119V344Q44 419 73 453T151 488Q179 488 203 479T249 455V414Q199 449 159 449Q126 449 106 424T85 339V120Q85 72 99 53T140 34Q167 34 193 56T248 115L249 74Q220 37 192 16T128 -6ZM253 0Q248
0 247 6Q246 29 245 55T243 97L240 101V677Q240 683 246 683H276Q281 683 281 677V115Q281 81 282 54T284 7Q285 0 280 0H253Z" />
<glyph unicode="e" horiz-adv-x="319" d="M165 -6Q103 -6 73 33T42 153V337Q42 416 73 452T161 488Q217 488 248 451T279 338V244Q279 238 273 238H83V154Q83 93 103 64T165 34Q201 34 217 56T234 121Q233 128 238 128H268Q273 128 273 122Q274 59 247 27T165
-6ZM83 277H238V337Q238 393 219 421T161 449Q123 449 103 421T83 337V277Z" />
<glyph unicode="f" horiz-adv-x="230" d="M77 0Q72 0 72 6V443H25Q20 443 20 448V476Q20 482 25 482H72V561Q72 627 93 658T163 689Q182 689 197 686T223 678Q228 674 228 669V643Q228 640 226 639T220 639Q209 643 197 646T170 649Q138 649 126 629T113 561V482H205Q211
482 211 476V448Q211 443 205 443H113V6Q113 0 108 0H77Z" />
<glyph unicode="g" horiz-adv-x="317" d="M158 -191Q89 -191 58 -162T27 -70Q27 -27 46 4T102 54L136 41Q102 24 85 -2T68 -64Q68 -111 89 -131T160 -152Q210 -152 231 -130T253 -60Q253 -18 238 2T188 27L118 36Q84 40 65 61T46 115Q46 137 55 153T78 182T108
203L136 184Q111 173 98 159T85 123Q85 103 97 90T134 73L202 64Q249 58 271 29T293 -62Q293 -128 261 -159T158 -191ZM164 171Q104 171 79 209T53 329Q53 412 78 450T164 488Q224 488 248 450T273 329Q273 247 249 209T164 171ZM164 210Q204 210 218 238T233 329Q233
393 219 421T164 449Q124 449 109 421T94 329Q94 266 109 238T164 210ZM232 455L199 468Q202 509 206 546T214 605Q215 612 220 612H246Q252 612 251 606Q245 578 240 541T232 455Z" />
<glyph unicode="h" horiz-adv-x="345" d="M256 0Q251 0 251 6V360Q251 406 238 427T198 449Q171 449 144 427T88 370L86 408Q116 445 146 466T211 488Q251 488 271 459T292 364V6Q292 0 287 0H256ZM57 0Q53 0 53 6V677Q53 683 58 683H89Q94 683 94 677V6Q94 0 89 0H57Z" />
<glyph unicode="i" horiz-adv-x="147" d="M58 0Q53 0 53 6V476Q53 482 58 482H89Q94 482 94 476V6Q94 0 89 0H58ZM74 581Q59 581 51 589T43 612V619Q43 634 51 641T74 649Q89 649 96 642T104 619V612Q104 597 97 589T74 581Z" />
<glyph unicode="j" horiz-adv-x="135" d="M23 -185Q21 -186 20 -186T16 -184L-3 -158Q-7 -154 -3 -150Q29 -120 38 -77T47 37V476Q47 482 52 482H83Q88 482 88 476V34Q88 -18 84 -58T65 -129T23 -185ZM68 581Q53 581 45 589T37 612V619Q37 634 45 641T68 649Q83
649 90 642T98 619V612Q98 597 91 589T68 581Z" />
<glyph unicode="k" horiz-adv-x="304" d="M57 0Q53 0 53 6V677Q53 683 58 683H89Q94 683 94 677V344Q94 325 94 307T94 270T93 232H94Q107 257 120 280T146 328L231 479Q234 482 238 482H273Q280 482 277 475L172 298L290 8Q292 0 286 0H250Q247 0 246 4L146 255L94
167V6Q94 0 89 0H57Z" />
<glyph unicode="l" horiz-adv-x="147" d="M58 0Q53 0 53 6V677Q53 683 58 683H89Q94 683 94 677V6Q94 0 89 0H58Z" />
<glyph unicode="m" horiz-adv-x="515" d="M58 0Q53 0 53 6V367Q53 401 53 428T50 475Q49 482 54 482H82Q86 482 87 476Q89 460 89 445T91 415Q121 452 147 470T204 488Q233 488 251 470T275 415Q305 452 331 470T388 488Q424 488 443 461T462 383V6Q462 0 457
0H426Q421 0 421 6V376Q421 411 410 430T374 449Q352 449 330 432T278 377V6Q278 0 273 0H242Q237 0 237 6V376Q237 411 226 430T190 449Q169 449 146 432T94 377V6Q94 0 89 0H58Z" />
<glyph unicode="n" horiz-adv-x="345" d="M256 0Q251 0 251 6V360Q251 406 238 427T198 449Q171 449 144 427T88 370L86 408Q116 445 146 466T211 488Q251 488 271 459T292 364V6Q292 0 287 0H256ZM58 0Q53 0 53 6V367Q53 401 53 428T50 475Q49 482 54 482H81Q86
482 87 476Q89 457 90 428T92 384L94 380V6Q94 0 89 0H58Z" />
<glyph unicode="o" horiz-adv-x="329" d="M165 -6Q103 -6 73 31T42 144V337Q42 413 72 450T165 488Q226 488 256 451T287 337V144Q287 69 257 32T165 -6ZM165 34Q206 34 226 61T246 145V336Q246 393 226 421T165 449Q123 449 103 421T83 336V145Q83 88 103 61T165 34Z" />
<glyph unicode="p" horiz-adv-x="333" d="M190 -6Q163 -6 137 3T86 26V66Q108 54 132 44T182 34Q214 34 231 61T248 145V363Q248 408 236 428T197 449Q166 449 138 424T83 363L80 403Q110 441 140 464T209 488Q249 488 269 460T289 368V144Q289 69 264 32T190
-6ZM58 -185Q53 -185 53 -179V371Q53 402 53 428T50 476Q49 482 54 482H81Q86 482 87 476Q89 459 90 439T91 403L94 388V-179Q94 -185 89 -185H58Z" />
<glyph unicode="q" horiz-adv-x="335" d="M245 -185Q241 -185 241 -179V435Q222 440 201 444T162 449Q125 449 105 423T85 338V120Q85 75 98 55T138 34Q167 34 195 57T249 115L252 75Q222 38 191 16T126 -6Q86 -6 65 23T44 116V339Q44 420 75 454T158 488Q190
488 219 481T282 468V-179Q282 -185 278 -185H245Z" />
<glyph unicode="r" horiz-adv-x="232" d="M58 0Q53 0 53 6V367Q53 401 53 428T50 475Q49 482 54 482H82Q86 482 87 476Q89 454 90 427T92 386L94 381V6Q94 0 89 0H58ZM88 361L85 404Q97 422 113 441T148 474T191 488Q202 488 208 486Q211 485 212 484T213 478Q213
468 213 460T212 441Q211 435 206 436Q202 438 197 438T185 439Q159 439 134 416T88 361Z" />
<glyph unicode="s" horiz-adv-x="283" d="M143 -6Q86 -6 60 30T38 136Q38 142 43 142H75Q79 142 79 137Q77 82 92 58T144 33Q211 33 211 114Q211 146 201 167T167 208L100 262Q68 287 55 315T41 383Q41 433 68 460T143 488Q196 488 221 457T243 367Q243 361 238
361H207Q206 361 204 362T203 368Q205 408 190 428T142 449Q81 449 81 383Q81 353 91 335T126 295L193 240Q226 214 238 187T251 115Q251 55 224 25T143 -6Z" />
<glyph unicode="t" horiz-adv-x="247" d="M158 -6Q113 -6 93 24T73 123V443H27Q22 443 22 448V476Q22 482 27 482H74L79 611Q80 617 85 617H110Q114 617 114 611V482H214Q219 482 219 476V448Q219 443 214 443H114V124Q114 76 126 55T165 33Q179 33 192 36T216
44Q221 47 221 40V12Q221 6 217 4Q205 0 190 -3T158 -6Z" />
<glyph unicode="u" horiz-adv-x="338" d="M132 -6Q91 -6 72 21T53 113V476Q53 482 58 482H89Q94 482 94 476V115Q94 67 106 51T143 34Q173 34 200 57T253 117L256 78Q227 42 197 18T132 -6ZM256 0Q252 0 251 6Q249 29 248 55T246 97L244 101V476Q244 482 249 482H280Q285
482 285 476V115Q285 81 286 54T288 7Q288 0 283 0H256Z" />
<glyph unicode="v" horiz-adv-x="306" d="M132 0Q128 0 127 6L22 474Q21 482 26 482H60Q65 482 66 476L130 167Q136 137 141 107T153 45H154Q159 76 164 107T177 168L242 476Q243 482 247 482H281Q286 482 284 474L180 6Q179 0 174 0H132Z" />
<glyph unicode="w" horiz-adv-x="444" d="M122 0Q116 0 115 7L23 475Q22 482 26 482H58Q63 482 64 476L119 185Q126 150 132 115T143 45H145Q151 79 157 114T169 184L204 374L187 468Q186 476 191 476H221Q226 476 227 470L277 185Q284 150 289 115T299 45H301Q307
80 313 116T325 186L379 475Q381 482 385 482H416Q422 482 421 474L329 6Q328 0 322 0H280Q274 0 273 5L248 147Q241 184 235 223T223 308H221Q215 263 209 224T195 146L171 6Q170 0 164 0H122Z" />
<glyph unicode="x" horiz-adv-x="297" d="M18 0Q15 0 14 2T14 8L123 251L24 475Q22 478 23 480T27 482H60Q65 482 67 478L114 366Q123 347 131 325T148 283H149Q158 303 166 325T183 366L229 479Q231 482 236 482H269Q272 482 273 480T272 475L172 253L282 8Q283
5 283 3T279 0H244Q240 0 238 4L183 135Q175 156 166 178T148 220H147Q139 200 131 178T113 135L57 4Q55 0 50 0H18Z" />
<glyph unicode="y" horiz-adv-x="305" d="M93 -185Q87 -185 89 -177L133 4L20 475Q18 482 23 482H57Q62 482 63 476L123 207Q131 174 138 139T152 71H153Q160 104 167 139T182 207L242 476Q243 482 248 482H280Q283 482 284 480T284 473L130 -179Q129 -185 123 -185H93Z" />
<glyph unicode="z" horiz-adv-x="286" d="M26 0Q21 0 21 6V8Q21 15 23 19L176 360Q185 381 193 401T211 442V443Q196 443 181 443T150 443H40Q35 443 35 448V476Q35 482 40 482H260Q265 482 265 477V475Q265 469 263 465L111 123Q101 103 93 83T75 41V40Q89 40
102 40T130 40H252Q257 40 257 34V6Q257 0 252 0H26Z" />
<glyph unicode="{" horiz-adv-x="163" d="M158 -142Q122 -142 101 -131T72 -89T63 3V187Q63 222 56 240T28 259H16Q10 259 10 265V290Q10 296 16 296H28Q48 296 55 314T63 369V552Q63 613 71 644T101 686T158 697Q164 697 164 691V665Q164 660 158 660Q135 660
123 652T106 622T101 557V368Q101 331 93 309T66 277Q84 269 92 247T101 187V-2Q101 -44 106 -66T123 -97T158 -105Q164 -105 164 -110V-136Q164 -142 158 -142Z" />
<glyph unicode="|" horiz-adv-x="161" d="M66 -185Q60 -185 60 -179V824Q60 830 66 830H95Q101 830 101 824V-179Q101 -185 95 -185H66Z" />
<glyph unicode="}" horiz-adv-x="163" d="M6 -142Q0 -142 0 -136V-110Q0 -105 6 -105Q29 -105 41 -97T58 -67T63 -2V187Q63 224 71 246T97 277Q80 287 72 309T63 368V557Q63 600 58 622T41 652T6 660Q0 660 0 665V691Q0 697 6 697Q42 697 63 686T92 644T101 552V369Q101
333 108 315T136 296H147Q153 296 153 290V265Q153 259 147 259H136Q116 259 109 241T101 187V3Q101 -57 92 -88T63 -131T6 -142Z" />
<glyph unicode="~" horiz-adv-x="420" d="M263 266Q241 266 225 274T193 290T156 298Q137 298 121 291T95 276Q90 272 90 279V307Q90 312 93 314Q105 324 121 330T157 337Q180 337 196 329T227 313T264 304Q282 304 298 312T325 328Q330 331 330 325V298Q330 292
327 289Q316 279 299 273T263 266Z" />
<glyph unicode="&#xa0;" horiz-adv-x="138" />
<glyph unicode="&#xa1;" horiz-adv-x="148" d="M58 306H89Q94 306 94 300L97 -167Q97 -173 92 -173H55Q51 -173 51 -167L54 300Q54 306 58 306ZM74 489Q89 489 97 481T105 457V450Q105 435 97 428T74 420Q59 420 51 427T43 450V457Q43 472 51 480T74 489Z" />
<glyph unicode="&#xa2;" horiz-adv-x="420" d="M194 528V616Q194 622 200 622H225Q231 622 231 616V530L194 528ZM200 -38Q194 -38 194 -31V53L231 51V-31Q231 -38 225 -38H200ZM215 44Q154 44 124 81T93 196V387Q93 464 123 501T215 538Q253 538 279 522T317
474T327 399Q327 391 321 391H292Q290 391 289 392T288 397Q290 444 272 471T215 499Q174 499 154 472T134 385V197Q134 138 154 111T215 84Q254 84 271 110T287 189Q287 196 292 196H321Q327 196 327 190Q328 118 301 81T215 44Z" />
<glyph unicode="&#xa3;" horiz-adv-x="420" d="M104 0Q98 0 98 6V26Q98 30 100 34Q113 60 119 89T125 155V503Q125 586 151 623T230 661Q268 661 290 643T321 588T331 497Q331 491 325 491H298Q292 491 292 497Q292 534 288 562T271 605T231 621Q198 621 182 597T166
502V163Q166 116 160 88T142 40H339Q345 40 345 34V6Q345 0 339 0H104ZM81 327Q75 327 75 333V359Q75 365 81 365H265Q271 365 271 359V333Q271 327 265 327H81Z" />
<glyph unicode="&#xa4;" horiz-adv-x="420" d="M98 125Q94 119 90 124L72 141Q68 145 72 151L114 205Q106 226 102 253T98 314Q98 348 102 375T114 423L72 477Q68 483 72 487L89 504Q94 509 98 503L133 457Q160 497 210 497Q260 497 287 457L322 504Q326 509 330
504L348 487Q351 483 348 477L306 423Q314 402 318 375T322 314Q322 280 318 253T306 205L348 151Q352 145 348 141L330 124Q326 120 322 125L287 171Q260 131 210 131Q160 131 133 171L98 125ZM210 166Q248 166 266 202T285 314Q285 390 267 426T210 462Q172 462
154 426T135 314Q135 239 153 203T210 166Z" />
<glyph unicode="&#xa5;" horiz-adv-x="420" d="M194 0Q190 0 190 6V224L65 647Q63 655 69 655H103Q108 655 109 650L181 393Q189 365 196 336T210 278H211Q218 307 225 336T241 394L312 650Q314 655 318 655H353Q358 655 356 647L231 225V6Q231 0 226 0H194ZM120
118Q114 118 114 123V146Q114 152 120 152H301Q307 152 307 146V123Q307 118 301 118H120ZM120 225Q114 225 114 231V254Q114 260 120 260H301Q307 260 307 254V231Q307 225 301 225H120Z" />
<glyph unicode="&#xa6;" horiz-adv-x="161" d="M66 392Q60 392 60 398V824Q60 830 66 830H95Q101 830 101 824V398Q101 392 95 392H66ZM66 -185Q60 -185 60 -179V247Q60 253 66 253H95Q101 253 101 247V-179Q101 -185 95 -185H66Z" />
<glyph unicode="&#xa7;" horiz-adv-x="280" d="M166 115L149 144Q181 152 199 179T218 244Q218 277 208 302T174 351L88 440Q62 468 51 494T40 559Q40 614 67 643T143 673Q194 673 221 642T248 552Q248 547 244 547H214Q209 547 209 552Q209 633 144 633Q82 633
82 560Q82 533 90 512T118 469L209 373Q235 346 246 316T258 245Q258 195 234 160T166 115ZM136 -118Q85 -118 58 -87T31 4Q31 9 35 9H65Q70 9 70 3Q70 -78 136 -78Q198 -78 198 -4Q198 24 190 45T161 87L70 182Q44 210 33 240T21 311Q21 361 46 395T114 440L130
412Q98 403 80 376T61 312Q61 279 71 254T105 205L191 115Q217 87 228 61T239 -3Q239 -57 212 -87T136 -118Z" />
<glyph unicode="&#xa8;" horiz-adv-x="212" d="M59 583Q45 583 38 591T30 612V620Q30 633 37 640T59 648Q73 648 80 641T88 620V612Q88 599 81 591T59 583ZM153 583Q140 583 133 591T125 612V620Q125 633 132 640T153 648Q168 648 175 641T182 620V612Q182 599
175 591T153 583Z" />
<glyph unicode="&#xa9;" horiz-adv-x="419" d="M210 -6Q155 -6 118 16T63 82T45 193V411Q45 478 63 522T118 588T210 610Q265 610 301 588T356 522T374 411V193Q374 127 356 83T302 16T210 -6ZM210 25Q275 25 308 64T342 191V413Q342 500 309 539T210 579Q144
579 111 540T77 413V191Q77 104 110 65T210 25ZM212 125Q172 125 153 152T133 231V368Q133 419 152 447T212 475Q253 475 271 447T289 369Q289 367 289 365T285 363H262Q258 363 258 369Q258 408 247 426T212 445Q164 445 164 366V234Q164 154 212 154Q236 154
247 173T258 231Q258 237 262 237H285Q288 237 288 236T289 231Q289 180 271 153T212 125Z" />
<glyph unicode="&#xaa;" horiz-adv-x="230" d="M92 329Q67 329 53 352T38 418Q38 465 59 489T121 520L157 525V576Q157 604 149 616T120 629Q77 629 81 579Q82 573 78 573H56Q50 573 49 580Q47 615 65 638T121 661Q145 661 160 652T183 625T191 580V416Q191 395
192 377T193 343Q193 337 189 337H167Q162 337 162 341Q161 351 161 358T159 373Q145 355 129 342T92 329ZM44 225Q39 225 39 231V254Q39 260 44 260H188Q193 260 193 254V231Q193 225 188 225H44ZM102 362Q115 362 128 373T157 403V496L122 490Q97 486 84 468T71
418Q71 389 78 376T102 362Z" />
<glyph unicode="&#xab;" horiz-adv-x="316" d="M238 93Q235 93 233 97L155 259Q153 262 155 267L233 428Q236 432 239 432H269Q272 432 273 431T273 425L196 262L272 101Q276 93 269 93H238ZM127 93Q124 93 122 97L44 259Q43 262 44 267L123 428Q125 432 128 432H159Q162
432 163 431T162 425L85 262L162 101Q164 93 158 93H127Z" />
<glyph unicode="&#xac;" horiz-adv-x="420" d="M297 155Q291 155 291 161V282H96Q90 282 90 287V314Q90 320 96 320H325Q331 320 331 314V161Q331 155 325 155H297Z" />
<glyph unicode="&#xad;" horiz-adv-x="290" d="M49 248Q44 248 44 254V277Q44 283 49 283H241Q247 283 247 277V254Q247 248 241 248H49Z" />
<glyph unicode="&#xae;" horiz-adv-x="345" d="M172 307Q108 307 75 349T42 478V525Q42 612 75 654T172 697Q237 697 269 655T302 525V478Q302 392 270 350T172 307ZM172 335Q225 335 249 369T273 478V526Q273 600 249 634T172 669Q138 669 116 654T83 608T72
526V478Q72 429 82 397T115 350T172 335ZM128 392Q125 392 125 396V611Q125 615 129 615H168Q198 615 212 600T227 551Q227 524 219 511T196 490L229 396Q231 392 227 392H207Q204 392 203 395L172 485H150V396Q150 392 147 392H128ZM150 508H170Q201 508 201 543V556Q201
576 194 584T170 592H150V508Z" />
<glyph unicode="&#xaf;" horiz-adv-x="193" d="M36 577Q30 577 30 583V611Q30 616 36 616H157Q163 616 163 611V583Q163 577 157 577H36Z" />
<glyph unicode="&#xb0;" horiz-adv-x="236" d="M118 423Q75 423 54 450T33 526V585Q33 634 54 661T118 689Q161 689 181 662T202 585V526Q202 478 182 451T118 423ZM118 454Q146 454 158 472T170 526V585Q170 622 158 640T118 658Q90 658 78 640T66 585V526Q66
491 78 473T118 454Z" />
<glyph unicode="&#xb1;" horiz-adv-x="420" d="M197 179Q191 179 191 185V282H94Q88 282 88 287V314Q88 320 94 320H191V418Q191 423 197 423H224Q229 423 229 418V320H327Q332 320 332 314V287Q332 282 327 282H229V185Q229 179 224 179H197ZM96 79Q90 79 90
85V112Q90 118 96 118H324Q330 118 330 112V85Q330 79 324 79H96Z" />
<glyph unicode="&#xb2;" horiz-adv-x="235" d="M40 357Q34 357 34 363V389Q34 440 47 472T79 527T117 568T150 610T163 668V676Q163 708 153 723T120 739Q93 739 82 720T72 662Q72 656 66 656H44Q38 656 38 662Q35 715 56 745T121 775Q162 775 180 750T199 674Q199
629 186 602T155 555T117 516T85 468T72 392H193Q196 392 197 391T199 386V363Q199 357 193 357H40Z" />
<glyph unicode="&#xb3;" horiz-adv-x="235" d="M115 352Q85 352 67 364T40 402T31 464Q31 470 37 470H59Q65 470 65 464Q65 425 76 407T115 388Q141 388 154 408T168 464V476Q168 513 156 531T115 550H89Q83 550 83 556V580Q83 586 89 586H113Q136 586 149 606T163
662V673Q163 705 152 722T116 739Q87 739 77 719T67 662Q67 656 61 656H39Q33 656 33 662Q31 717 51 746T117 775Q158 775 178 749T199 671Q199 632 187 608T157 571V570Q181 560 192 536T204 470Q204 412 181 382T115 352Z" />
<glyph unicode="&#xb4;" horiz-adv-x="168" d="M34 559Q31 559 30 561T31 566L95 685Q97 690 102 690H133Q137 690 138 688T137 682L68 563Q65 559 59 559H34Z" />
<glyph unicode="&#xb5;" horiz-adv-x="339" d="M58 -185Q53 -185 53 -179V476Q53 482 58 482H89Q94 482 94 476V126Q94 84 108 59T149 34Q175 34 198 53T245 104V476Q245 482 250 482H280Q286 482 286 476V77Q286 54 290 44T309 33Q315 33 320 34T330 37Q334 38
334 32V5Q334 1 330 -1Q323 -4 315 -5T298 -6Q276 -6 263 7T248 61V63Q224 33 201 14T148 -6Q128 -6 114 5T93 32V-179Q93 -185 88 -185H58Z" />
<glyph unicode="&#xb6;" horiz-adv-x="363" d="M134 -185Q128 -185 128 -179V314H111Q65 314 42 343T18 437V559Q18 624 41 653T111 683H308Q313 683 313 677V-179Q313 -185 307 -185H280Q274 -185 274 -179V643H167V-179Q167 -185 161 -185H134Z" />
<glyph unicode="&#xb7;" horiz-adv-x="158" d="M82 237Q68 237 60 245T51 268V275Q51 290 59 298T82 306Q97 306 105 298T113 275V268Q113 253 105 245T82 237Z" />
<glyph unicode="&#xb8;" horiz-adv-x="155" d="M70 -191Q59 -191 51 -190T35 -187Q30 -185 30 -181V-161Q30 -155 35 -156Q40 -157 46 -158T61 -159Q79 -159 85 -148T91 -116V-105Q91 -84 83 -75T59 -65H45Q41 -65 41 -59Q41 -56 41 -52T42 -44L59 16Q61 20 64
20H86Q91 20 89 14L73 -39H78Q98 -39 111 -53T125 -101V-118Q125 -154 112 -172T70 -191Z" />
<glyph unicode="&#xb9;" horiz-adv-x="235" d="M43 357Q37 357 37 363V386Q37 392 43 392H102V725L44 701Q38 699 38 705V729Q38 735 43 738L122 769Q124 770 126 770T129 770H132Q138 770 138 764V392H191Q197 392 197 386V363Q197 357 191 357H43Z" />
<glyph unicode="&#xba;" horiz-adv-x="235" d="M118 329Q79 329 58 352T37 424V566Q37 613 58 637T118 661Q156 661 177 637T198 566V424Q198 376 177 353T118 329ZM47 225Q42 225 42 231V254Q42 260 47 260H188Q193 260 193 254V231Q193 225 188 225H47ZM118
362Q141 362 152 376T164 422V568Q164 601 153 615T118 629Q94 629 83 615T71 568V422Q71 390 82 376T118 362Z" />
<glyph unicode="&#xbb;" horiz-adv-x="316" d="M158 93Q152 93 155 101L232 262L155 425Q153 429 154 430T158 432H189Q192 432 194 428L273 267Q274 262 273 259L195 97Q193 93 189 93H158ZM48 93Q41 93 44 101L121 262L44 425Q42 429 43 430T47 432H78Q81 432
83 428L162 267Q163 262 162 259L84 97Q82 93 79 93H48Z" />
<glyph unicode="&#xbc;" horiz-adv-x="540" d="M43 244Q37 244 37 250V273Q37 279 43 279H102V612L44 588Q38 586 38 592V616Q38 622 43 625L122 656Q124 657 126 657T129 657H132Q138 657 138 651V279H191Q197 279 197 273V250Q197 244 191 244H43ZM164 -24Q158
-24 160 -16L267 341L368 674Q369 679 374 679H400Q407 679 405 673L299 329L197 -19Q195 -24 190 -24H164ZM460 0Q454 0 454 6V86H327Q321 86 321 92V96Q321 99 321 101T323 107L425 404Q428 411 431 411H457Q460 411 461 409T461 403L365 121H455L456 265Q456
271 462 271H482Q487 271 487 265V121H519Q523 121 523 115V92Q523 86 519 86H487V6Q487 0 481 0H460Z" />
<glyph unicode="&#xbd;" horiz-adv-x="562" d="M43 244Q37 244 37 250V273Q37 279 43 279H102V612L44 588Q38 586 38 592V616Q38 622 43 625L122 656Q124 657 126 657T129 657H132Q138 657 138 651V279H191Q197 279 197 273V250Q197 244 191 244H43ZM164 -24Q158
-24 160 -16L267 341L368 674Q369 679 374 679H400Q407 679 405 673L299 329L197 -19Q195 -24 190 -24H164ZM367 0Q361 0 361 6V32Q361 83 374 115T406 170T444 211T477 253T490 311V319Q490 351 480 366T447 382Q420 382 409 363T399 305Q399 299 393 299H371Q365
299 365 305Q362 358 383 388T448 418Q489 418 507 393T526 317Q526 272 513 245T482 198T444 159T412 111T399 35H520Q523 35 524 34T526 29V6Q526 0 520 0H367Z" />
<glyph unicode="&#xbe;" horiz-adv-x="537" d="M115 239Q85 239 67 251T40 289T31 351Q31 357 37 357H59Q65 357 65 351Q65 312 76 294T115 275Q141 275 154 295T168 351V363Q168 400 156 418T115 437H89Q83 437 83 443V467Q83 473 89 473H113Q136 473 149 493T163
549V560Q163 592 152 609T116 626Q87 626 77 606T67 549Q67 543 61 543H39Q33 543 33 549Q31 604 51 633T117 662Q158 662 178 636T199 558Q199 519 187 495T157 458V457Q181 447 192 423T204 357Q204 299 181 269T115 239ZM161 -24Q155 -24 157 -16L264 341L365
674Q366 679 371 679H397Q404 679 402 673L296 329L194 -19Q192 -24 187 -24H161ZM457 0Q451 0 451 6V86H324Q318 86 318 92V96Q318 99 318 101T320 107L422 404Q425 411 428 411H454Q457 411 458 409T458 403L362 121H452L453 265Q453 271 459 271H479Q484 271
484 265V121H516Q520 121 520 115V92Q520 86 516 86H484V6Q484 0 478 0H457Z" />
<glyph unicode="&#xbf;" horiz-adv-x="282" d="M169 306Q173 306 173 300V249Q173 211 163 182T138 128T106 76T80 19T70 -53Q70 -103 86 -121T138 -140Q183 -140 198 -107T211 -9Q211 -3 216 -3H245Q248 -3 249 -4T250 -10Q255 -96 226 -137T136 -179Q82 -179
56 -150T29 -54Q29 -11 39 22T65 83T96 137T122 190T133 250V300Q133 306 138 306H169ZM153 489Q168 489 175 481T183 457V450Q183 435 176 428T153 420Q137 420 129 427T121 450V457Q121 472 129 480T153 489Z" />
<glyph unicode="&#xc0;" horiz-adv-x="334" d="M6 0Q0 0 1 7L139 650Q140 655 145 655H188Q193 655 194 650L332 7Q333 0 328 0H295Q290 0 289 5L194 469Q187 504 181 538T167 607H166Q160 572 154 538T139 467L44 5Q43 0 38 0H6ZM71 176L80 216H252L261 176H71ZM175
723Q169 723 168 727L107 831Q104 834 105 836T109 839H142Q145 839 146 838T150 834L205 729Q207 726 206 725T202 723H175Z" />
<glyph unicode="&#xc1;" horiz-adv-x="334" d="M6 0Q0 0 1 7L139 650Q140 655 145 655H188Q193 655 194 650L332 7Q333 0 328 0H295Q290 0 289 5L194 469Q187 504 181 538T167 607H166Q160 572 154 538T139 467L44 5Q43 0 38 0H6ZM71 176L80 216H252L261 176H71ZM132
723Q129 723 128 724T129 729L184 834Q188 839 192 839H224Q228 839 229 837T227 831L166 727Q165 723 158 723H132Z" />
<glyph unicode="&#xc2;" horiz-adv-x="334" d="M6 0Q0 0 1 7L139 650Q140 655 145 655H188Q193 655 194 650L332 7Q333 0 328 0H295Q290 0 289 5L194 469Q187 504 181 538T167 607H166Q160 572 154 538T139 467L44 5Q43 0 38 0H6ZM71 176L80 216H252L261 176H71ZM96
734Q90 731 90 736V761Q90 767 93 769L163 809Q167 811 171 809L241 769Q244 767 244 761V736Q244 732 238 734L167 773L96 734Z" />
<glyph unicode="&#xc3;" horiz-adv-x="334" d="M6 0Q0 0 1 7L139 650Q140 655 145 655H188Q193 655 194 650L332 7Q333 0 328 0H295Q290 0 289 5L194 469Q187 504 181 538T167 607H166Q160 572 154 538T139 467L44 5Q43 0 38 0H6ZM71 176L80 216H252L261 176H71ZM195
748Q175 748 163 755T135 763Q123 763 114 759T97 749Q91 746 91 753V776Q91 782 94 784Q100 789 111 794T139 800Q159 800 170 793T198 785Q210 785 219 788T237 797Q243 800 243 793V771Q243 765 240 762Q233 757 223 753T195 748Z" />
<glyph unicode="&#xc4;" horiz-adv-x="334" d="M6 0Q0 0 1 7L139 650Q140 655 145 655H188Q193 655 194 650L332 7Q333 0 328 0H295Q290 0 289 5L194 469Q187 504 181 538T167 607H166Q160 572 154 538T139 467L44 5Q43 0 38 0H6ZM71 176L80 216H252L261 176H71ZM120
741Q106 741 99 748T91 770V777Q91 791 98 798T120 806Q134 806 141 799T149 777V770Q149 756 142 749T120 741ZM214 741Q201 741 194 748T186 770V777Q186 791 193 798T214 806Q229 806 236 799T243 777V770Q243 756 236 749T214 741Z" />
<glyph unicode="&#xc5;" horiz-adv-x="334" d="M332 7Q333 0 328 0H295Q290 0 289 5L253 176H79L44 5Q43 0 38 0H6Q0 0 1 7L136 637Q102 653 102 705Q102 741 119 761T167 781Q198 781 215 761T232 705Q232 652 197 637L332 7ZM132 704Q132 654 167 654Q202 654
202 704Q202 754 167 754Q132 754 132 704ZM86 216H246L194 469Q187 504 181 539T167 608H166Q160 574 154 539T139 467L86 216Z" />
<glyph unicode="&#xc6;" horiz-adv-x="501" d="M6 0Q0 0 2 7L201 651Q202 655 206 655H452Q457 655 457 649V621Q457 615 452 615H271V354H438Q443 354 443 348V322Q443 316 438 316H271V40H452Q457 40 457 34V6Q457 0 452 0H234Q230 0 230 6V176H98L45 4Q44 0
40 0H6ZM108 216H230V531Q230 553 230 575T230 620H229Q223 597 217 574T203 528L108 216Z" />
<glyph unicode="&#xc7;" horiz-adv-x="391" d="M198 -6Q125 -6 87 42T49 185V470Q49 565 87 613T198 661Q250 661 284 636T332 565T341 451Q340 446 336 446H305Q299 446 300 452Q305 537 281 579T198 621Q145 621 118 584T90 467V188Q90 110 117 72T198 34Q257
34 281 77T302 203Q301 209 307 209H336Q342 209 342 203Q347 101 311 48T198 -6ZM201 -193Q190 -193 182 -192T166 -189Q161 -187 161 -183V-163Q161 -157 166 -158Q171 -159 177 -160T192 -161Q210 -161 216 -150T222 -118V-107Q222 -86 214 -77T190 -67H176Q172
-67 172 -61Q172 -58 172 -54T173 -46L190 14Q192 18 195 18H217Q222 18 220 12L204 -41H209Q229 -41 242 -55T256 -103V-120Q256 -156 243 -174T201 -193Z" />
<glyph unicode="&#xc8;" horiz-adv-x="330" d="M64 0Q59 0 59 6V649Q59 655 64 655H281Q286 655 286 649V621Q286 615 281 615H100V354H267Q272 354 272 348V322Q272 316 267 316H100V40H281Q286 40 286 34V6Q286 0 281 0H64ZM180 723Q174 723 173 727L112 831Q109
834 110 836T114 839H147Q150 839 151 838T155 834L210 729Q212 726 211 725T207 723H180Z" />
<glyph unicode="&#xc9;" horiz-adv-x="330" d="M64 0Q59 0 59 6V649Q59 655 64 655H281Q286 655 286 649V621Q286 615 281 615H100V354H267Q272 354 272 348V322Q272 316 267 316H100V40H281Q286 40 286 34V6Q286 0 281 0H64ZM138 723Q135 723 134 724T135 729L190
834Q194 839 198 839H230Q234 839 235 837T233 831L172 727Q171 723 164 723H138Z" />
<glyph unicode="&#xca;" horiz-adv-x="330" d="M64 0Q59 0 59 6V649Q59 655 64 655H281Q286 655 286 649V621Q286 615 281 615H100V354H267Q272 354 272 348V322Q272 316 267 316H100V40H281Q286 40 286 34V6Q286 0 281 0H64ZM101 734Q95 731 95 736V761Q95 767
98 769L168 809Q172 811 176 809L246 769Q249 767 249 761V736Q249 732 243 734L172 773L101 734Z" />
<glyph unicode="&#xcb;" horiz-adv-x="330" d="M64 0Q59 0 59 6V649Q59 655 64 655H281Q286 655 286 649V621Q286 615 281 615H100V354H267Q272 354 272 348V322Q272 316 267 316H100V40H281Q286 40 286 34V6Q286 0 281 0H64ZM126 741Q112 741 105 748T97 770V777Q97
791 104 798T126 806Q140 806 147 799T155 777V770Q155 756 148 749T126 741ZM220 741Q207 741 200 748T192 770V777Q192 791 199 798T220 806Q235 806 242 799T249 777V770Q249 756 242 749T220 741Z" />
<glyph unicode="&#xcc;" horiz-adv-x="158" d="M64 0Q59 0 59 6V649Q59 655 64 655H95Q100 655 100 649V6Q100 0 95 0H64ZM344 723Q338 723 337 727L276 831Q273 834 274 836T278 839H311Q314 839 315 838T319 834L374 729Q376 726 375 725T371 723H344Z" />
<glyph unicode="&#xcd;" horiz-adv-x="158" d="M64 0Q59 0 59 6V649Q59 655 64 655H95Q100 655 100 649V6Q100 0 95 0H64ZM45 723Q42 723 41 724T42 729L97 834Q101 839 105 839H137Q141 839 142 837T140 831L79 727Q78 723 71 723H45Z" />
<glyph unicode="&#xce;" horiz-adv-x="158" d="M64 0Q59 0 59 6V649Q59 655 64 655H95Q100 655 100 649V6Q100 0 95 0H64ZM265 734Q259 731 259 736V761Q259 767 262 769L332 809Q336 811 340 809L410 769Q413 767 413 761V736Q413 732 407 734L336 773L265 734Z" />
<glyph unicode="&#xcf;" horiz-adv-x="158" d="M64 0Q59 0 59 6V649Q59 655 64 655H95Q100 655 100 649V6Q100 0 95 0H64ZM289 741Q275 741 268 748T260 770V777Q260 791 267 798T289 806Q303 806 310 799T318 777V770Q318 756 311 749T289 741ZM383 741Q370 741
363 748T355 770V777Q355 791 362 798T383 806Q398 806 405 799T412 777V770Q412 756 405 749T383 741Z" />
<glyph unicode="&#xd0;" horiz-adv-x="395" d="M11 316Q6 316 6 322V348Q6 354 11 354H59H190Q195 354 195 348V322Q195 316 190 316H11ZM65 0Q59 0 59 6V649Q59 655 64 655H156Q255 655 302 592T350 388V282Q350 135 305 68T160 0H65ZM100 40H158Q240 40 274
96T309 280V388Q309 508 272 561T155 615H100V40Z" />
<glyph unicode="&#xd1;" horiz-adv-x="410" d="M63 0Q59 0 59 6V649Q59 655 64 655H116Q121 655 122 651L246 267Q258 234 269 197T292 123T313 53H314Q314 78 314 105T313 160T312 215T312 268V649Q312 655 317 655H347Q352 655 352 649V6Q352 0 347 0H295Q291
0 289 4L169 375Q150 433 133 491T99 602H97Q98 567 98 528T98 449T99 372V6Q99 0 94 0H63ZM233 748Q213 748 201 755T173 763Q161 763 152 759T135 749Q129 746 129 753V776Q129 782 132 784Q138 789 149 794T177 800Q197 800 208 793T236 785Q248 785 257 788T275
797Q281 800 281 793V771Q281 765 278 762Q271 757 261 753T233 748Z" />
<glyph unicode="&#xd2;" horiz-adv-x="396" d="M198 -6Q126 -6 88 39T49 175V479Q49 571 87 616T198 661Q269 661 308 616T347 479V175Q347 85 308 40T198 -6ZM198 34Q250 34 278 69T306 178V476Q306 551 278 586T198 621Q145 621 118 586T90 476V178Q90 104 117
69T198 34ZM205 723Q199 723 198 727L137 831Q134 834 135 836T139 839H172Q175 839 176 838T180 834L235 729Q237 726 236 725T232 723H205Z" />
<glyph unicode="&#xd3;" horiz-adv-x="396" d="M198 -6Q126 -6 88 39T49 175V479Q49 571 87 616T198 661Q269 661 308 616T347 479V175Q347 85 308 40T198 -6ZM198 34Q250 34 278 69T306 178V476Q306 551 278 586T198 621Q145 621 118 586T90 476V178Q90 104 117
69T198 34ZM163 723Q160 723 159 724T160 729L215 834Q219 839 223 839H255Q259 839 260 837T258 831L197 727Q196 723 189 723H163Z" />
<glyph unicode="&#xd4;" horiz-adv-x="396" d="M198 -6Q126 -6 88 39T49 175V479Q49 571 87 616T198 661Q269 661 308 616T347 479V175Q347 85 308 40T198 -6ZM198 34Q250 34 278 69T306 178V476Q306 551 278 586T198 621Q145 621 118 586T90 476V178Q90 104 117
69T198 34ZM126 734Q120 731 120 736V761Q120 767 123 769L193 809Q197 811 201 809L271 769Q274 767 274 761V736Q274 732 268 734L197 773L126 734Z" />
<glyph unicode="&#xd5;" horiz-adv-x="396" d="M198 -6Q126 -6 88 39T49 175V479Q49 571 87 616T198 661Q269 661 308 616T347 479V175Q347 85 308 40T198 -6ZM198 34Q250 34 278 69T306 178V476Q306 551 278 586T198 621Q145 621 118 586T90 476V178Q90 104 117
69T198 34ZM226 748Q206 748 194 755T166 763Q154 763 145 759T128 749Q122 746 122 753V776Q122 782 125 784Q131 789 142 794T170 800Q190 800 201 793T229 785Q241 785 250 788T268 797Q274 800 274 793V771Q274 765 271 762Q264 757 254 753T226 748Z" />
<glyph unicode="&#xd6;" horiz-adv-x="396" d="M198 -6Q126 -6 88 39T49 175V479Q49 571 87 616T198 661Q269 661 308 616T347 479V175Q347 85 308 40T198 -6ZM198 34Q250 34 278 69T306 178V476Q306 551 278 586T198 621Q145 621 118 586T90 476V178Q90 104 117
69T198 34ZM151 741Q137 741 130 748T122 770V777Q122 791 129 798T151 806Q165 806 172 799T180 777V770Q180 756 173 749T151 741ZM245 741Q232 741 225 748T217 770V777Q217 791 224 798T245 806Q260 806 267 799T274 777V770Q274 756 267 749T245 741Z" />
<glyph unicode="&#xd7;" horiz-adv-x="420" d="M133 206L114 225Q111 229 114 233L183 301L114 370Q111 374 114 378L133 397Q138 402 142 397L211 329L279 397Q283 401 287 397L306 378Q311 374 306 370L237 301L306 233Q311 229 306 224L287 205Q283 202 279
205L211 274L142 206Q138 201 133 206Z" />
<glyph unicode="&#xd8;" horiz-adv-x="396" d="M43 -49Q39 -49 41 -43L81 68L93 97L279 597L286 617L317 700Q318 704 323 704H351Q356 704 354 697L314 591L302 558L116 57L109 36L78 -45Q77 -49 73 -49H43ZM198 -6Q126 -6 88 39T49 175V479Q49 571 87 616T198
661Q269 661 308 616T347 479V175Q347 85 308 40T198 -6ZM198 34Q250 34 278 69T306 178V476Q306 551 278 586T198 621Q145 621 118 586T90 476V178Q90 104 117 69T198 34Z" />
<glyph unicode="&#xd9;" horiz-adv-x="398" d="M199 -6Q124 -6 90 44T55 197V649Q55 655 60 655H91Q96 655 96 649V198Q96 114 120 74T199 34Q253 34 277 73T302 198V649Q302 655 307 655H338Q343 655 343 649V197Q343 95 308 45T199 -6ZM206 723Q200 723 199
727L138 831Q135 834 136 836T140 839H173Q176 839 177 838T181 834L236 729Q238 726 237 725T233 723H206Z" />
<glyph unicode="&#xda;" horiz-adv-x="398" d="M199 -6Q124 -6 90 44T55 197V649Q55 655 60 655H91Q96 655 96 649V198Q96 114 120 74T199 34Q253 34 277 73T302 198V649Q302 655 307 655H338Q343 655 343 649V197Q343 95 308 45T199 -6ZM164 723Q161 723 160
724T161 729L216 834Q220 839 224 839H256Q260 839 261 837T259 831L198 727Q197 723 190 723H164Z" />
<glyph unicode="&#xdb;" horiz-adv-x="398" d="M199 -6Q124 -6 90 44T55 197V649Q55 655 60 655H91Q96 655 96 649V198Q96 114 120 74T199 34Q253 34 277 73T302 198V649Q302 655 307 655H338Q343 655 343 649V197Q343 95 308 45T199 -6ZM127 734Q121 731 121
736V761Q121 767 124 769L194 809Q198 811 202 809L272 769Q275 767 275 761V736Q275 732 269 734L198 773L127 734Z" />
<glyph unicode="&#xdc;" horiz-adv-x="398" d="M199 -6Q124 -6 90 44T55 197V649Q55 655 60 655H91Q96 655 96 649V198Q96 114 120 74T199 34Q253 34 277 73T302 198V649Q302 655 307 655H338Q343 655 343 649V197Q343 95 308 45T199 -6ZM152 741Q138 741 131
748T123 770V777Q123 791 130 798T152 806Q166 806 173 799T181 777V770Q181 756 174 749T152 741ZM246 741Q233 741 226 748T218 770V777Q218 791 225 798T246 806Q261 806 268 799T275 777V770Q275 756 268 749T246 741Z" />
<glyph unicode="&#xdd;" horiz-adv-x="330" d="M149 0Q145 0 145 6V224L12 647Q10 655 15 655H51Q55 655 56 650L133 390Q141 362 149 334T165 278H166Q174 306 182 334T198 390L275 651Q276 655 280 655H314Q320 655 318 647L186 225V6Q186 0 182 0H149ZM130
723Q127 723 126 724T127 729L182 834Q186 839 190 839H222Q226 839 227 837T225 831L164 727Q163 723 156 723H130Z" />
<glyph unicode="&#xde;" horiz-adv-x="337" d="M64 0Q59 0 59 6V649Q59 655 64 655H95Q100 655 100 649V534H149Q229 534 269 488T309 339Q309 243 272 194T153 144H100V6Q100 0 95 0H64ZM100 184H149Q215 184 241 222T268 337Q268 422 239 458T152 495H100V184Z" />
<glyph unicode="&#xdf;" horiz-adv-x="337" d="M223 -6Q179 -6 159 18T139 98Q139 103 143 103H174Q178 103 178 97Q178 63 188 49T224 34Q250 34 261 54T272 121Q272 157 262 182T236 227T205 266T179 308T168 366Q168 396 177 419T197 464T218 511T227 572Q227
615 210 632T163 649Q126 649 110 622T94 534V6Q94 0 90 0H57Q53 0 53 6V528Q53 614 79 651T164 689Q214 689 241 663T268 576Q268 536 259 508T239 458T218 415T209 368Q209 341 219 322T245 284T276 244T302 194T313 123Q313 58 291 26T223 -6Z" />
<glyph unicode="&#xe0;" horiz-adv-x="307" d="M225 0Q220 0 220 6Q218 29 217 55T215 97L213 100V360Q213 410 200 429T153 449Q118 449 103 428T92 365Q92 359 86 359H59Q52 359 52 367Q47 424 73 456T153 488Q208 489 231 460T254 361V115Q254 81 255 54T257
7Q257 0 253 0H225ZM114 -6Q76 -6 56 27T36 117Q36 182 64 222T156 270L218 278V243L160 235Q116 230 97 200T77 119Q77 80 89 57T125 34Q145 34 166 49T220 110L221 69Q188 26 165 10T114 -6ZM160 559Q155 559 152 563L83 682Q80 686 81 688T86 690H117Q122 690
124 685L188 566Q190 563 189 561T185 559H160Z" />
<glyph unicode="&#xe1;" horiz-adv-x="307" d="M225 0Q220 0 220 6Q218 29 217 55T215 97L213 100V360Q213 410 200 429T153 449Q118 449 103 428T92 365Q92 359 86 359H59Q52 359 52 367Q47 424 73 456T153 488Q208 489 231 460T254 361V115Q254 81 255 54T257
7Q257 0 253 0H225ZM114 -6Q76 -6 56 27T36 117Q36 182 64 222T156 270L218 278V243L160 235Q116 230 97 200T77 119Q77 80 89 57T125 34Q145 34 166 49T220 110L221 69Q188 26 165 10T114 -6ZM119 559Q116 559 115 561T116 566L180 685Q182 690 187 690H218Q222
690 223 688T222 682L153 563Q150 559 144 559H119Z" />
<glyph unicode="&#xe2;" horiz-adv-x="307" d="M225 0Q220 0 220 6Q218 29 217 55T215 97L213 100V360Q213 410 200 429T153 449Q118 449 103 428T92 365Q92 359 86 359H59Q52 359 52 367Q47 424 73 456T153 488Q208 489 231 460T254 361V115Q254 81 255 54T257
7Q257 0 253 0H225ZM114 -6Q76 -6 56 27T36 117Q36 182 64 222T156 270L218 278V243L160 235Q116 230 97 200T77 119Q77 80 89 57T125 34Q145 34 166 49T220 110L221 69Q188 26 165 10T114 -6ZM86 563Q80 560 80 566V592Q80 598 83 600L151 641Q155 644 159 641L227
600Q229 598 229 592V566Q229 561 223 563L155 605L86 563Z" />
<glyph unicode="&#xe3;" horiz-adv-x="307" d="M225 0Q220 0 220 6Q218 29 217 55T215 97L213 100V360Q213 410 200 429T153 449Q118 449 103 428T92 365Q92 359 86 359H59Q52 359 52 367Q47 424 73 456T153 488Q208 489 231 460T254 361V115Q254 81 255 54T257
7Q257 0 253 0H225ZM114 -6Q76 -6 56 27T36 117Q36 182 64 222T156 270L218 278V243L160 235Q116 230 97 200T77 119Q77 80 89 57T125 34Q145 34 166 49T220 110L221 69Q188 26 165 10T114 -6ZM182 575Q170 575 160 579T142 586T125 590Q115 590 106 585T89 575Q83
572 83 579V603Q83 608 86 611Q92 617 103 622T128 627Q141 627 150 624T167 616T184 612Q195 612 203 615T220 624Q227 627 227 620V597Q227 592 224 589Q217 582 206 579T182 575Z" />
<glyph unicode="&#xe4;" horiz-adv-x="307" d="M225 0Q220 0 220 6Q218 29 217 55T215 97L213 100V360Q213 410 200 429T153 449Q118 449 103 428T92 365Q92 359 86 359H59Q52 359 52 367Q47 424 73 456T153 488Q208 489 231 460T254 361V115Q254 81 255 54T257
7Q257 0 253 0H225ZM114 -6Q76 -6 56 27T36 117Q36 182 64 222T156 270L218 278V243L160 235Q116 230 97 200T77 119Q77 80 89 57T125 34Q145 34 166 49T220 110L221 69Q188 26 165 10T114 -6ZM108 583Q94 583 87 591T79 612V620Q79 633 86 640T108 648Q122 648
129 641T137 620V612Q137 599 130 591T108 583ZM202 583Q189 583 182 591T174 612V620Q174 633 181 640T202 648Q217 648 224 641T231 620V612Q231 599 224 591T202 583Z" />
<glyph unicode="&#xe5;" horiz-adv-x="307" d="M225 0Q220 0 220 6Q218 29 217 55T215 97L213 100V360Q213 410 200 429T153 449Q118 449 103 428T92 365Q92 359 86 359H59Q52 359 52 367Q47 424 73 456T153 488Q208 489 231 460T254 361V115Q254 81 255 54T257
7Q257 0 253 0H225ZM114 -6Q76 -6 56 27T36 117Q36 182 64 222T156 270L218 278V243L160 235Q116 230 97 200T77 119Q77 80 89 57T125 34Q145 34 166 49T220 110L221 69Q188 26 165 10T114 -6ZM155 548Q125 548 108 568T90 624Q90 660 107 680T155 700Q186 700
203 680T220 624Q220 588 203 568T155 548ZM155 575Q190 575 190 624Q190 673 155 673Q120 673 120 624Q120 575 155 575Z" />
<glyph unicode="&#xe6;" horiz-adv-x="481" d="M114 -6Q76 -6 56 27T36 117Q36 182 64 221T156 269L213 277V360Q213 408 200 428T153 449Q118 449 105 428T92 365Q92 359 86 359H59Q52 359 52 367Q49 424 74 456T153 488Q189 489 209 475T238 429Q252 460 276
474T329 488Q382 488 411 451T441 338V244Q441 238 436 238H254V154Q254 93 273 64T331 34Q365 34 380 56T396 121Q396 128 400 128H431Q436 128 436 122Q436 59 409 27T331 -6Q291 -6 264 13T224 72Q193 32 168 13T114 -6ZM125 34Q144 34 164 48T216 106Q215 116
214 127T213 150V240L160 232Q117 227 97 199T77 119Q77 80 89 57T125 34ZM254 277H400V337Q400 393 381 421T328 449Q293 449 274 421T254 337V277Z" />
<glyph unicode="&#xe7;" horiz-adv-x="317" d="M165 -6Q103 -6 73 31T42 146V337Q42 414 72 451T164 488Q202 488 228 472T266 424T276 349Q276 341 270 341H241Q239 341 238 342T237 347Q239 394 221 421T164 449Q123 449 103 422T83 335V147Q83 88 103 61T165
34Q203 34 220 60T236 139Q236 146 241 146H270Q276 146 276 140Q277 68 250 31T165 -6ZM165 63Q154 63 146 64T130 67Q125 69 125 73V93Q125 99 130 98Q135 97 141 96T156 95Q174 95 180 106T186 138V149Q186 170 178 179T154 189H140Q136 189 136 195Q136 198
136 202T137 210L154 270Q156 274 159 274H181Q186 274 184 268L168 215H173Q193 215 206 201T220 153V136Q220 100 207 82T165 63Z" />
<glyph unicode="&#xe8;" horiz-adv-x="319" d="M165 -6Q103 -6 73 33T42 153V337Q42 416 73 452T161 488Q217 488 248 451T279 338V244Q279 238 273 238H83V154Q83 93 103 64T165 34Q201 34 217 56T234 121Q233 128 238 128H268Q273 128 273 122Q274 59 247 27T165
-6ZM83 277H238V337Q238 393 219 421T161 449Q123 449 103 421T83 337V277ZM165 559Q160 559 157 563L88 682Q85 686 86 688T91 690H122Q127 690 129 685L193 566Q195 563 194 561T190 559H165Z" />
<glyph unicode="&#xe9;" horiz-adv-x="319" d="M165 -6Q103 -6 73 33T42 153V337Q42 416 73 452T161 488Q217 488 248 451T279 338V244Q279 238 273 238H83V154Q83 93 103 64T165 34Q201 34 217 56T234 121Q233 128 238 128H268Q273 128 273 122Q274 59 247 27T165
-6ZM83 277H238V337Q238 393 219 421T161 449Q123 449 103 421T83 337V277ZM124 559Q121 559 120 561T121 566L185 685Q187 690 192 690H223Q227 690 228 688T227 682L158 563Q155 559 149 559H124Z" />
<glyph unicode="&#xea;" horiz-adv-x="319" d="M165 -6Q103 -6 73 33T42 153V337Q42 416 73 452T161 488Q217 488 248 451T279 338V244Q279 238 273 238H83V154Q83 93 103 64T165 34Q201 34 217 56T234 121Q233 128 238 128H268Q273 128 273 122Q274 59 247 27T165
-6ZM83 277H238V337Q238 393 219 421T161 449Q123 449 103 421T83 337V277ZM91 563Q85 560 85 566V592Q85 598 88 600L156 641Q160 644 164 641L232 600Q234 598 234 592V566Q234 561 228 563L160 605L91 563Z" />
<glyph unicode="&#xeb;" horiz-adv-x="319" d="M165 -6Q103 -6 73 33T42 153V337Q42 416 73 452T161 488Q217 488 248 451T279 338V244Q279 238 273 238H83V154Q83 93 103 64T165 34Q201 34 217 56T234 121Q233 128 238 128H268Q273 128 273 122Q274 59 247 27T165
-6ZM83 277H238V337Q238 393 219 421T161 449Q123 449 103 421T83 337V277ZM113 583Q99 583 92 591T84 612V620Q84 633 91 640T113 648Q127 648 134 641T142 620V612Q142 599 135 591T113 583ZM207 583Q194 583 187 591T179 612V620Q179 633 186 640T207 648Q222
648 229 641T236 620V612Q236 599 229 591T207 583Z" />
<glyph unicode="&#xec;" horiz-adv-x="147" d="M58 0Q53 0 53 6V476Q53 482 58 482H89Q94 482 94 476V6Q94 0 89 0H58ZM335 559Q330 559 327 563L258 682Q255 686 256 688T261 690H292Q297 690 299 685L363 566Q365 563 364 561T360 559H335Z" />
<glyph unicode="&#xed;" horiz-adv-x="147" d="M58 0Q53 0 53 6V476Q53 482 58 482H89Q94 482 94 476V6Q94 0 89 0H58ZM38 559Q35 559 34 561T35 566L99 685Q101 690 106 690H137Q141 690 142 688T141 682L72 563Q69 559 63 559H38Z" />
<glyph unicode="&#xee;" horiz-adv-x="147" d="M58 0Q53 0 53 6V476Q53 482 58 482H89Q94 482 94 476V6Q94 0 89 0H58ZM261 563Q255 560 255 566V592Q255 598 258 600L326 641Q330 644 334 641L402 600Q404 598 404 592V566Q404 561 398 563L330 605L261 563Z" />
<glyph unicode="&#xef;" horiz-adv-x="147" d="M58 0Q53 0 53 6V476Q53 482 58 482H89Q94 482 94 476V6Q94 0 89 0H58ZM283 583Q269 583 262 591T254 612V620Q254 633 261 640T283 648Q297 648 304 641T312 620V612Q312 599 305 591T283 583ZM377 583Q364 583
357 591T349 612V620Q349 633 356 640T377 648Q392 648 399 641T406 620V612Q406 599 399 591T377 583Z" />
<glyph unicode="&#xf0;" horiz-adv-x="329" d="M165 -6Q103 -6 73 31T42 144V316Q42 384 68 416T139 448Q174 448 203 426T252 379V332Q232 360 205 384T148 408Q117 408 100 385T83 313V145Q83 88 103 61T165 34Q206 34 226 61T246 145V364Q247 440 234 497T193
593T117 655Q114 657 114 659T114 664L129 685Q131 689 133 689T138 688Q216 651 251 569T287 364V144Q287 69 257 32T165 -6ZM125 527Q122 524 119 528L105 549Q103 552 108 556L261 671Q265 674 267 670L280 650Q282 646 279 643L125 527Z" />
<glyph unicode="&#xf1;" horiz-adv-x="345" d="M256 0Q251 0 251 6V360Q251 406 238 427T198 449Q171 449 144 427T88 370L86 408Q116 445 146 466T211 488Q251 488 271 459T292 364V6Q292 0 287 0H256ZM58 0Q53 0 53 6V367Q53 401 53 428T50 475Q49 482 54 482H81Q86
482 87 476Q89 457 90 428T92 384L94 380V6Q94 0 89 0H58ZM200 575Q188 575 178 579T160 586T143 590Q133 590 124 585T107 575Q101 572 101 579V603Q101 608 104 611Q110 617 121 622T146 627Q159 627 168 624T185 616T202 612Q213 612 221 615T238 624Q245 627
245 620V597Q245 592 242 589Q235 582 224 579T200 575Z" />
<glyph unicode="&#xf2;" horiz-adv-x="329" d="M165 -6Q103 -6 73 31T42 144V337Q42 413 72 450T165 488Q226 488 256 451T287 337V144Q287 69 257 32T165 -6ZM165 34Q206 34 226 61T246 145V336Q246 393 226 421T165 449Q123 449 103 421T83 336V145Q83 88 103
61T165 34ZM170 559Q165 559 162 563L93 682Q90 686 91 688T96 690H127Q132 690 134 685L198 566Q200 563 199 561T195 559H170Z" />
<glyph unicode="&#xf3;" horiz-adv-x="329" d="M165 -6Q103 -6 73 31T42 144V337Q42 413 72 450T165 488Q226 488 256 451T287 337V144Q287 69 257 32T165 -6ZM165 34Q206 34 226 61T246 145V336Q246 393 226 421T165 449Q123 449 103 421T83 336V145Q83 88 103
61T165 34ZM129 559Q126 559 125 561T126 566L190 685Q192 690 197 690H228Q232 690 233 688T232 682L163 563Q160 559 154 559H129Z" />
<glyph unicode="&#xf4;" horiz-adv-x="329" d="M165 -6Q103 -6 73 31T42 144V337Q42 413 72 450T165 488Q226 488 256 451T287 337V144Q287 69 257 32T165 -6ZM165 34Q206 34 226 61T246 145V336Q246 393 226 421T165 449Q123 449 103 421T83 336V145Q83 88 103
61T165 34ZM96 563Q90 560 90 566V592Q90 598 93 600L161 641Q165 644 169 641L237 600Q239 598 239 592V566Q239 561 233 563L165 605L96 563Z" />
<glyph unicode="&#xf5;" horiz-adv-x="329" d="M165 -6Q103 -6 73 31T42 144V337Q42 413 72 450T165 488Q226 488 256 451T287 337V144Q287 69 257 32T165 -6ZM165 34Q206 34 226 61T246 145V336Q246 393 226 421T165 449Q123 449 103 421T83 336V145Q83 88 103
61T165 34ZM192 575Q180 575 170 579T152 586T135 590Q125 590 116 585T99 575Q93 572 93 579V603Q93 608 96 611Q102 617 113 622T138 627Q151 627 160 624T177 616T194 612Q205 612 213 615T230 624Q237 627 237 620V597Q237 592 234 589Q227 582 216 579T192
575Z" />
<glyph unicode="&#xf6;" horiz-adv-x="329" d="M165 -6Q103 -6 73 31T42 144V337Q42 413 72 450T165 488Q226 488 256 451T287 337V144Q287 69 257 32T165 -6ZM165 34Q206 34 226 61T246 145V336Q246 393 226 421T165 449Q123 449 103 421T83 336V145Q83 88 103
61T165 34ZM118 583Q104 583 97 591T89 612V620Q89 633 96 640T118 648Q132 648 139 641T147 620V612Q147 599 140 591T118 583ZM212 583Q199 583 192 591T184 612V620Q184 633 191 640T212 648Q227 648 234 641T241 620V612Q241 599 234 591T212 583Z" />
<glyph unicode="&#xf7;" horiz-adv-x="420" d="M97 282Q91 282 91 287V314Q91 320 97 320H324Q330 320 330 314V287Q330 282 324 282H97ZM211 155Q199 155 193 162T186 181V195Q186 208 192 214T211 221Q222 221 228 215T234 195V181Q234 169 228 162T211 155ZM211
380Q199 380 193 387T186 406V420Q186 432 192 439T211 446Q222 446 228 439T234 420V406Q234 394 228 387T211 380Z" />
<glyph unicode="&#xf8;" horiz-adv-x="329" d="M23 -51Q20 -51 19 -49T20 -44L70 72L79 92L228 433L235 451L272 534Q274 537 278 537H306Q312 537 309 531L262 423L252 401L98 49L92 35L56 -47Q54 -51 50 -51H23ZM165 -6Q103 -6 73 31T42 144V337Q42 413 72 450T165
488Q226 488 256 451T287 337V144Q287 69 257 32T165 -6ZM165 34Q206 34 226 61T246 145V336Q246 393 226 421T165 449Q123 449 103 421T83 336V145Q83 88 103 61T165 34Z" />
<glyph unicode="&#xf9;" horiz-adv-x="338" d="M132 -6Q91 -6 72 21T53 113V476Q53 482 58 482H89Q94 482 94 476V115Q94 67 106 51T143 34Q173 34 200 57T253 117L256 78Q227 42 197 18T132 -6ZM256 0Q252 0 251 6Q249 29 248 55T246 97L244 101V476Q244 482
249 482H280Q285 482 285 476V115Q285 81 286 54T288 7Q288 0 283 0H256ZM175 559Q170 559 167 563L98 682Q95 686 96 688T101 690H132Q137 690 139 685L203 566Q205 563 204 561T200 559H175Z" />
<glyph unicode="&#xfa;" horiz-adv-x="338" d="M132 -6Q91 -6 72 21T53 113V476Q53 482 58 482H89Q94 482 94 476V115Q94 67 106 51T143 34Q173 34 200 57T253 117L256 78Q227 42 197 18T132 -6ZM256 0Q252 0 251 6Q249 29 248 55T246 97L244 101V476Q244 482
249 482H280Q285 482 285 476V115Q285 81 286 54T288 7Q288 0 283 0H256ZM133 559Q130 559 129 561T130 566L194 685Q196 690 201 690H232Q236 690 237 688T236 682L167 563Q164 559 158 559H133Z" />
<glyph unicode="&#xfb;" horiz-adv-x="338" d="M132 -6Q91 -6 72 21T53 113V476Q53 482 58 482H89Q94 482 94 476V115Q94 67 106 51T143 34Q173 34 200 57T253 117L256 78Q227 42 197 18T132 -6ZM256 0Q252 0 251 6Q249 29 248 55T246 97L244 101V476Q244 482
249 482H280Q285 482 285 476V115Q285 81 286 54T288 7Q288 0 283 0H256ZM100 563Q94 560 94 566V592Q94 598 97 600L165 641Q169 644 173 641L241 600Q243 598 243 592V566Q243 561 237 563L169 605L100 563Z" />
<glyph unicode="&#xfc;" horiz-adv-x="338" d="M132 -6Q91 -6 72 21T53 113V476Q53 482 58 482H89Q94 482 94 476V115Q94 67 106 51T143 34Q173 34 200 57T253 117L256 78Q227 42 197 18T132 -6ZM256 0Q252 0 251 6Q249 29 248 55T246 97L244 101V476Q244 482
249 482H280Q285 482 285 476V115Q285 81 286 54T288 7Q288 0 283 0H256ZM122 583Q108 583 101 591T93 612V620Q93 633 100 640T122 648Q136 648 143 641T151 620V612Q151 599 144 591T122 583ZM216 583Q203 583 196 591T188 612V620Q188 633 195 640T216 648Q231
648 238 641T245 620V612Q245 599 238 591T216 583Z" />
<glyph unicode="&#xfd;" horiz-adv-x="305" d="M93 -185Q87 -185 89 -177L133 4L20 475Q18 482 23 482H57Q62 482 63 476L123 207Q131 174 138 139T152 71H153Q160 104 167 139T182 207L242 476Q243 482 248 482H280Q283 482 284 480T284 473L130 -179Q129 -185
123 -185H93ZM117 559Q114 559 113 561T114 566L178 685Q180 690 185 690H216Q220 690 221 688T220 682L151 563Q148 559 142 559H117Z" />
<glyph unicode="&#xfe;" horiz-adv-x="333" d="M58 -185Q53 -185 53 -179V677Q53 683 58 683H89Q94 683 94 677V420Q120 450 147 469T209 488Q249 488 269 460T289 368V144Q289 69 264 32T190 -6Q165 -6 141 2T94 23V-179Q94 -185 89 -185H58ZM182 34Q214 34 231
61T248 145V363Q248 408 236 428T197 449Q169 449 144 428T94 378V62Q114 51 137 43T182 34Z" />
<glyph unicode="&#xff;" horiz-adv-x="305" d="M93 -185Q87 -185 89 -177L133 4L20 475Q18 482 23 482H57Q62 482 63 476L123 207Q131 174 138 139T152 71H153Q160 104 167 139T182 207L242 476Q243 482 248 482H280Q283 482 284 480T284 473L130 -179Q129 -185
123 -185H93ZM106 583Q92 583 85 591T77 612V620Q77 633 84 640T106 648Q120 648 127 641T135 620V612Q135 599 128 591T106 583ZM200 583Q187 583 180 591T172 612V620Q172 633 179 640T200 648Q215 648 222 641T229 620V612Q229 599 222 591T200 583Z" />
<glyph unicode="&#x2013;" horiz-adv-x="440" d="M49 248Q44 248 44 254V277Q44 283 49 283H391Q397 283 397 277V254Q397 248 391 248H49Z" />
<glyph unicode="&#x2014;" horiz-adv-x="523" d="M49 248Q44 248 44 254V277Q44 283 49 283H474Q480 283 480 277V254Q480 248 474 248H49Z" />
<glyph unicode="&#x2018;" horiz-adv-x="135" d="M112 655Q117 655 116 648L72 430Q71 424 66 424H30Q27 424 26 426T25 432L81 650Q82 655 87 655H112Z" />
<glyph unicode="&#x2019;" horiz-adv-x="150" d="M28 424Q23 424 24 431L68 649Q69 655 74 655H110Q113 655 114 653T115 647L59 429Q58 424 54 424H28Z" />
<glyph unicode="&#x201a;" horiz-adv-x="150" d="M28 -138Q23 -138 24 -131L68 87Q69 93 74 93H110Q113 93 114 91T115 85L59 -133Q58 -138 54 -138H28Z" />
<glyph unicode="&#x201c;" horiz-adv-x="247" d="M224 655Q229 655 228 648L184 430Q183 424 178 424H142Q139 424 138 426T137 432L193 650Q194 655 198 655H224ZM112 655Q117 655 116 648L72 430Q71 424 66 424H30Q27 424 26 426T25 432L81 650Q82 655 87 655H112Z" />
<glyph unicode="&#x201d;" horiz-adv-x="263" d="M28 424Q23 424 24 431L68 649Q69 655 74 655H110Q113 655 114 653T115 647L59 429Q58 424 54 424H28ZM140 424Q135 424 136 431L180 649Q181 655 186 655H222Q225 655 226 653T227 647L171 429Q170 424 166 424H140Z" />
<glyph unicode="&#x201e;" horiz-adv-x="263" d="M28 -138Q23 -138 24 -131L68 87Q69 93 74 93H110Q113 93 114 91T115 85L59 -133Q58 -138 54 -138H28ZM140 -138Q135 -138 136 -131L180 87Q181 93 186 93H222Q225 93 226 91T227 85L171 -133Q170 -138 166 -138H140Z" />
<glyph unicode="&#x2022;" horiz-adv-x="185" d="M93 210Q73 210 61 221T49 254V285Q49 307 61 318T93 329Q113 329 125 318T137 285V254Q137 232 125 221T93 210Z" />
<glyph unicode="&#x2039;" horiz-adv-x="206" d="M127 93Q124 93 122 97L44 259Q43 262 44 267L123 428Q125 432 128 432H159Q162 432 163 431T162 425L85 262L162 101Q164 93 158 93H127Z" />
<glyph unicode="&#x203a;" horiz-adv-x="206" d="M47 93Q41 93 43 101L120 262L43 425Q42 429 43 430T46 432H77Q80 432 82 428L161 267Q162 262 161 259L83 97Q81 93 78 93H47Z" />
</font>
</defs>
</svg>
