<?xml version="1.0" standalone="no"?>
<!DOCTYPE svg PUBLIC "-//W3C//DTD SVG 1.1//EN" "http://www.w3.org/Graphics/SVG/1.1/DTD/svg11.dtd">
<svg xmlns="http://www.w3.org/2000/svg">
<defs >
<font id="SofiaSansExtraCondensed" horiz-adv-x="339" ><font-face
    font-family="Sofia Sans Extra Condensed SemiBold"
    units-per-em="1000"
    panose-1="0 0 0 0 0 0 0 0 0 0"
    ascent="900"
    descent="-300"
    alphabetic="0" />
<glyph unicode=" " horiz-adv-x="124" />
<glyph unicode="!" horiz-adv-x="182" d="M57 202Q49 202 51 213L112 645Q114 655 122 655H208Q217 655 215 645L140 213Q138 202 130 202H57ZM63 -6Q37 -6 24 8T14 50L16 63Q19 90 35 102T78 114Q105 114 117 100T126 58L125 45Q121 18 106 6T63 -6Z" />
<glyph unicode="&quot;" horiz-adv-x="295" d="M224 412Q213 412 214 422L255 672Q257 683 266 683H332Q342 683 340 672L301 422Q299 412 289 412H224ZM79 412Q69 412 70 422L110 672Q112 683 122 683H188Q198 683 196 672L156 422Q155 412 144 412H79Z" />
<glyph unicode="#" horiz-adv-x="392" d="M55 0Q45 0 47 11L64 123H23Q13 123 14 133L22 186Q24 197 34 197H76L110 416H70Q59 416 60 427L69 481Q71 490 81 490H122L140 602Q142 613 152 613H202Q213 613 211 602L194 490H294L312 602Q314 613 324 613H375Q385
613 383 602L366 490H408Q418 490 416 480L408 427Q407 416 396 416H354L319 197H361Q372 197 370 186L361 132Q359 123 350 123H307L289 11Q288 0 278 0H227Q217 0 219 11L236 123H135L118 11Q117 0 105 0H55ZM147 197H247L283 416H181L147 197Z" />
<glyph unicode="$" horiz-adv-x="412" d="M179 -6Q127 -6 95 17T54 82T60 183Q61 195 71 195H141Q150 195 147 183Q134 133 144 105T189 77Q212 77 229 92T255 132T265 190Q265 218 257 237T230 273L167 332Q138 359 123 392T108 467Q108 527 127 570T182 637T272
661Q324 661 355 638T396 574T392 477Q388 464 380 464H308Q299 464 303 476Q310 508 309 531T298 566T266 578Q246 578 231 565T207 530T199 479Q199 454 207 436T235 400L299 341Q330 311 343 281T356 206Q356 141 336 94T276 20T179 -6ZM134 -88Q125 -88 126
-79L140 3L216 7L202 -79Q201 -88 193 -88H134ZM241 647L255 733Q257 742 265 742H324Q334 742 332 733L318 645L241 647Z" />
<glyph unicode="%" horiz-adv-x="660" d="M199 0Q189 0 193 12L318 342L426 650Q428 656 436 656H501Q513 656 506 644L387 332L273 7Q271 0 264 0H199ZM191 319Q137 319 110 352T83 437V541Q83 593 110 627T191 661Q247 661 274 627T301 541V437Q301 385 274
352T191 319ZM191 384Q232 384 232 436V543Q232 570 223 582T191 595Q170 595 161 583T151 543V436Q151 384 191 384ZM508 -6Q453 -6 426 27T399 113V216Q399 268 426 302T508 336Q564 336 591 302T618 216V113Q618 61 591 28T508 -6ZM508 60Q530 60 539 73T549
112V219Q549 245 540 258T508 271Q487 271 477 258T467 219V112Q467 86 477 73T508 60Z" />
<glyph unicode="&amp;" horiz-adv-x="417" d="M136 -6Q81 -6 50 27T19 118Q19 186 48 246T131 359Q115 398 108 430T100 495Q100 546 114 583T158 640T230 661Q277 661 303 636T329 565Q329 513 302 461T224 355L284 219Q294 248 302 282T316 355Q318 365 328
365H383Q392 365 392 355Q381 288 364 233T325 134L382 12Q384 8 383 4T375 0H304Q297 0 294 5L270 59Q242 27 209 11T136 -6ZM153 70Q203 70 238 126L164 291Q129 249 114 213T98 135Q98 104 112 87T153 70ZM194 423Q222 458 236 489T251 552Q251 590 224 590Q209
590 199 579T183 548T178 502Q178 482 182 463T194 423Z" />
<glyph unicode="&apos;" horiz-adv-x="151" d="M79 412Q69 412 70 422L110 672Q112 683 122 683H188Q198 683 196 672L156 422Q155 412 144 412H79Z" />
<glyph unicode="(" horiz-adv-x="189" d="M62 -155Q36 -121 23 -92T7 -29T13 55L85 512Q93 564 105 595T140 651T199 710Q209 718 215 710L249 670Q251 666 251 662T246 654Q221 628 205 608T180 563T165 501L93 53Q88 16 89 -9T100 -54T127 -100Q129 -104 129
-108T124 -116L78 -156Q68 -163 62 -155Z" />
<glyph unicode=")" horiz-adv-x="189" d="M2 -156L-31 -115Q-34 -112 -33 -108T-29 -100Q-5 -71 11 -51T38 -8T54 53L124 501Q131 540 129 564T117 608T91 655Q88 659 88 663T94 671L139 710Q150 719 155 710Q182 676 195 648T210 585T205 499L132 42Q124 -8 113
-41T79 -99T18 -155Q9 -164 2 -156Z" />
<glyph unicode="*" horiz-adv-x="308" d="M153 448L118 483Q110 490 119 495L173 543L104 564Q100 566 98 568T99 576L118 619Q120 624 124 624T131 623L192 585L195 662Q195 666 197 667T202 669L248 664Q252 663 253 661T254 657L241 579L309 604Q313 607 316
605T320 598L332 552Q333 547 331 545T324 542L249 534L294 476Q297 472 296 469T292 464L250 440Q242 436 239 445L209 508L166 450Q163 446 160 446T153 448Z" />
<glyph unicode="+" horiz-adv-x="420" d="M202 165Q192 165 192 175V262H104Q94 262 94 272V329Q94 339 104 339H192V427Q192 437 202 437H259Q269 437 269 427V339H356Q366 339 366 329V272Q366 262 356 262H269V175Q269 165 259 165H202Z" />
<glyph unicode="," horiz-adv-x="190" d="M-28 -137Q-36 -137 -33 -127L47 111Q51 121 59 121H144Q150 121 151 118T150 109L46 -129Q42 -137 35 -137H-28Z" />
<glyph unicode="-" horiz-adv-x="294" d="M45 230Q35 230 37 240L44 291Q46 302 56 302H268Q279 302 277 291L268 240Q266 230 256 230H45Z" />
<glyph unicode="." horiz-adv-x="186" d="M65 -6Q38 -6 24 9T14 52L16 65Q23 118 81 118Q109 118 122 102T132 59L130 46Q122 -6 65 -6Z" />
<glyph unicode="/" horiz-adv-x="264" d="M-16 0Q-24 0 -20 11L251 647Q255 655 262 655H326Q334 655 329 644L59 8Q55 0 48 0H-16Z" />
<glyph unicode="0" horiz-adv-x="379" d="M164 -6Q88 -6 54 44T35 192L79 470Q94 566 139 613T260 661Q337 661 371 611T389 462L345 185Q331 89 287 42T164 -6ZM172 76Q206 76 226 103T256 190L300 465Q310 524 298 551T251 579Q217 579 197 552T168 465L124
190Q115 131 126 104T172 76Z" />
<glyph unicode="1" horiz-adv-x="310" d="M3 0Q-7 0 -6 11L3 73Q5 83 16 83H105L180 552L86 517Q81 516 79 518T77 525L87 586Q88 595 96 598L248 656Q251 657 254 658T261 659H276Q285 659 283 648L194 83H276Q287 83 285 73L275 11Q274 0 263 0H3Z" />
<glyph unicode="2" horiz-adv-x="347" d="M10 0Q0 0 2 11L11 78Q21 142 44 186T98 264T160 324T219 380T263 444T280 529Q280 556 270 568T240 580Q177 580 169 486Q167 476 158 476H92Q82 476 84 486Q96 571 138 616T252 661Q310 661 340 631T371 538Q371 476
354 432T309 354T250 291T188 233T136 168T108 83H288Q299 83 296 73L287 11Q285 0 275 0H10Z" />
<glyph unicode="3" horiz-adv-x="353" d="M151 -6Q76 -6 44 39T28 171Q30 181 39 181H102Q113 181 111 171Q103 119 113 97T155 75Q187 75 205 98T233 172L237 198Q245 250 231 273T178 296H150Q141 296 142 306L151 364Q153 375 163 375H190Q212 375 228 386T256
419T273 476L277 499Q284 540 274 560T234 580Q203 580 186 558T162 487Q161 477 150 477H87Q78 477 79 487Q90 573 133 617T248 661Q308 661 339 631T370 543Q370 475 343 420T271 341V339Q301 326 315 299T329 231Q329 122 282 58T151 -6Z" />
<glyph unicode="4" horiz-adv-x="370" d="M205 0Q195 0 196 11L215 126H8Q-1 126 0 136L1 144Q2 148 3 152T6 160L240 647Q244 655 251 655H319Q328 655 323 643L121 209H228L269 423Q272 433 281 433H338Q349 433 347 423L313 209H348Q359 209 357 199L347 137Q345
126 334 126H299L281 11Q280 0 269 0H205Z" />
<glyph unicode="5" horiz-adv-x="346" d="M143 -6Q88 -6 57 16T18 78T21 170Q24 180 33 180H96Q107 180 104 170Q99 142 101 121T114 88T148 75Q182 75 202 103T234 195L237 214Q244 257 242 284T225 324T185 337Q162 337 132 329T70 304Q63 301 58 303T55 313L128
644Q130 655 140 655H357Q368 655 366 644L356 582Q355 572 343 572H192L155 399Q177 407 195 411T234 415Q283 415 307 386T332 291Q332 230 321 177T287 82T228 18T143 -6Z" />
<glyph unicode="6" horiz-adv-x="375" d="M261 661Q329 661 362 623T383 519Q381 509 371 509H308Q298 509 300 519Q306 547 293 563T253 580Q217 580 198 556T169 475L153 374Q217 414 266 414Q314 414 335 387T357 297Q357 205 334 137T268 32T165 -6Q86 -6
53 43T35 192L80 473Q96 570 139 615T261 661ZM223 336Q207 336 187 327T142 301L123 184Q114 125 124 100T169 75Q205 75 227 108T260 214L261 224Q271 287 263 311T223 336Z" />
<glyph unicode="7" horiz-adv-x="343" d="M58 0Q53 0 52 4T53 12L293 573H167L153 491Q152 481 141 481H77Q67 481 68 491L92 644Q94 655 105 655H406Q416 655 414 645L412 640Q411 636 411 633T409 625L143 9Q138 0 130 0H58Z" />
<glyph unicode="8" horiz-adv-x="374" d="M164 -6Q96 -6 58 27T19 126Q19 169 31 214T68 297T130 351Q88 385 88 449Q88 509 107 556T164 632T258 661Q317 661 350 629T383 538Q383 501 374 465T346 399T297 350Q351 319 351 230Q351 163 332 110T271 25T164 -6ZM169
72Q208 72 228 96T256 174L260 194Q265 230 264 256T249 297T206 313Q171 313 149 285T117 194L113 174Q107 127 116 100T169 72ZM218 383Q246 383 263 406T288 474L292 498Q297 524 295 543T283 573T250 584Q221 584 205 564T181 498L176 474Q171 436 178 410T218
383Z" />
<glyph unicode="9" horiz-adv-x="376" d="M162 -6Q90 -6 58 36T38 150Q40 161 50 161H113Q122 161 121 150Q115 114 126 95T168 75Q204 75 223 99T252 180L268 280Q236 259 208 249T154 239Q110 239 87 269T64 358Q64 428 76 484T113 580T174 640T257 661Q311
661 343 640T386 576T387 470L342 186Q327 87 283 41T162 -6ZM197 318Q216 318 236 326T279 353L297 467Q307 526 297 553T251 580Q214 580 194 550T161 449L159 432Q152 394 154 369T166 331T197 318Z" />
<glyph unicode=":" horiz-adv-x="183" d="M64 -6Q38 -6 24 9T14 51L16 64Q19 90 35 103T78 117Q106 117 119 101T129 59L127 46Q119 -6 64 -6ZM120 348Q94 348 81 363T70 404L72 417Q75 443 91 456T135 470Q162 470 175 455T185 413L183 400Q176 348 120 348Z" />
<glyph unicode=";" horiz-adv-x="194" d="M128 348Q102 348 89 363T79 405L81 418Q84 444 100 457T143 471Q171 471 184 455T193 414L192 400Q184 348 128 348ZM-34 -137Q-43 -137 -39 -127L41 111Q44 121 53 121H138Q143 121 144 118T144 109L39 -129Q36 -137
28 -137H-34Z" />
<glyph unicode="&lt;" horiz-adv-x="420" d="M353 131L104 257Q97 261 97 269V327Q97 334 104 338L352 465Q357 468 360 466T363 457V381Q363 371 357 368L186 298L357 226Q363 223 363 215V138Q363 133 361 131T353 131Z" />
<glyph unicode="=" horiz-adv-x="420" d="M103 339Q93 339 93 350V406Q93 417 103 417H357Q367 417 367 406V350Q367 339 357 339H103ZM103 185Q93 185 93 196V252Q93 263 103 263H357Q367 263 367 252V196Q367 185 357 185H103Z" />
<glyph unicode="&gt;" horiz-adv-x="420" d="M107 131Q103 128 100 130T97 138V215Q97 224 104 226L274 298L104 368Q97 371 97 381V457Q97 463 100 465T108 465L357 338Q363 334 363 327V269Q363 261 357 257L107 131Z" />
<glyph unicode="?" horiz-adv-x="316" d="M110 202Q103 202 104 213L111 253Q117 289 133 317T171 369T211 419T244 475T257 543Q257 563 248 573T219 583Q188 583 175 558T155 481Q155 470 146 470H80Q75 470 74 473T74 482Q83 575 121 618T230 661Q289 661 318
635T347 553Q347 504 334 468T301 405T259 353T222 304T200 249L193 211Q192 202 184 202H110ZM119 -6Q92 -6 79 8T70 50L71 63Q75 90 91 102T133 114Q160 114 173 100T182 58L180 45Q177 18 162 6T119 -6Z" />
<glyph unicode="@" horiz-adv-x="602" d="M242 -185Q154 -185 100 -141T27 -15T25 181L49 334Q68 447 110 526T219 647T379 689Q468 689 522 646T595 523T598 333L587 263Q567 139 523 81T411 23Q380 23 358 37T326 77Q293 48 267 35T212 22Q174 22 163 60T167
164L212 344Q230 416 262 448T347 481Q379 481 406 473T461 460Q465 459 467 457T467 447L398 180Q387 136 394 116T423 96Q443 96 459 114T487 171T509 269L519 335Q534 425 523 487T474 581T371 613Q305 613 256 581T175 484T128 326L105 178Q90 85 101 21T151
-76T257 -109H342Q352 -109 350 -120L342 -174Q340 -185 330 -185H242ZM256 99Q269 99 285 109T318 135Q319 141 320 147T323 160L385 401Q375 405 364 407T343 410Q320 410 307 392T282 334L240 161Q232 129 236 114T256 99Z" />
<glyph unicode="A" horiz-adv-x="377" d="M-20 0Q-30 0 -28 11L202 644Q205 655 214 655H309Q320 655 320 644L349 11Q349 0 338 0H264Q253 0 253 11L249 420Q249 456 249 490T250 559H248Q238 524 227 490T204 420L68 11Q65 0 57 0H-20ZM99 150L126 229H262L264 150H99Z" />
<glyph unicode="B" horiz-adv-x="382" d="M26 0Q15 0 17 11L118 644Q121 655 129 655H232Q311 655 349 623T388 521Q388 458 361 412T284 344V342Q321 329 340 299T360 218Q360 151 336 102T265 27T151 0H26ZM118 81H159Q214 81 242 118T270 219Q270 258 252 279T193
300H153L118 81ZM165 375H203Q233 375 254 392T286 438T298 504Q298 541 282 557T228 574H196L165 375Z" />
<glyph unicode="C" horiz-adv-x="409" d="M185 -6Q101 -6 62 48T40 208L80 465Q96 566 142 613T271 661Q331 661 368 632T416 553T410 438Q408 428 399 428H330Q319 428 321 438Q336 504 323 540T263 576Q223 576 202 550T170 463L129 204Q118 139 134 109T194
79Q241 79 262 116T288 217Q288 227 298 227H368Q372 227 374 226T377 217Q372 112 324 53T185 -6Z" />
<glyph unicode="D" horiz-adv-x="413" d="M27 0Q16 0 17 11L118 644Q121 655 129 655H229Q342 655 387 588T410 381L395 283Q373 137 314 69T149 0H27ZM119 84H155Q219 84 254 131T306 284L321 383Q336 481 313 526T225 571H196L119 84Z" />
<glyph unicode="E" horiz-adv-x="346" d="M26 0Q16 0 17 11L118 644Q120 655 129 655H374Q386 655 384 644L373 581Q371 571 362 571H196L165 373H315Q327 373 325 363L315 303Q313 293 304 293H152L119 84H284Q295 84 293 74L283 11Q281 0 272 0H26Z" />
<glyph unicode="F" horiz-adv-x="336" d="M26 0Q16 0 17 11L118 644Q120 655 129 655H376Q385 655 383 644L373 581Q371 571 362 571H196L163 364H307Q317 364 314 353L304 293Q304 282 294 282H150L106 11Q105 0 96 0H26Z" />
<glyph unicode="G" horiz-adv-x="419" d="M155 -6Q89 -6 56 47T40 203L81 467Q97 568 143 614T272 661Q329 661 366 634T415 560T412 451Q409 441 401 441L331 442Q319 442 323 452Q337 509 322 542T263 576Q224 576 202 550T170 463L129 204Q119 140 133 110T186
79Q231 79 257 114T292 207L302 263H228Q218 263 219 274L228 326Q230 336 239 336H387Q398 336 395 326L366 140Q358 92 355 63T352 11Q352 0 341 0H288Q277 0 277 11Q278 24 279 41T285 79H284Q262 39 232 17T155 -6Z" />
<glyph unicode="H" horiz-adv-x="425" d="M26 0Q16 0 17 11L118 644Q120 655 129 655H198Q209 655 207 644L165 379H321L363 644Q366 655 374 655H444Q454 655 452 644L352 11Q350 0 341 0H272Q261 0 263 11L308 294H152L106 11Q105 0 96 0H26Z" />
<glyph unicode="I" horiz-adv-x="180" d="M26 0Q16 0 17 11L118 644Q120 655 129 655H198Q209 655 207 644L106 11Q105 0 96 0H26Z" />
<glyph unicode="J" horiz-adv-x="181" d="M-29 -146Q-40 -148 -41 -138L-50 -76Q-52 -63 -42 -61Q-25 -55 -13 -43T9 -3T27 71L118 645Q120 655 129 655H200Q209 655 207 645L117 73Q105 -3 86 -48T38 -114T-29 -146Z" />
<glyph unicode="K" horiz-adv-x="391" d="M26 0Q16 0 17 11L118 644Q120 655 129 655H198Q209 655 207 644L179 464Q174 433 168 400T155 333H157Q175 367 193 399T231 463L347 644Q353 655 362 655H441Q446 655 447 652T447 644L275 376L359 11Q361 0 350 0H275Q267
0 265 11L203 298L137 201L106 11Q105 0 96 0H26Z" />
<glyph unicode="L" horiz-adv-x="315" d="M26 0Q16 0 17 11L118 644Q120 655 129 655H198Q209 655 207 644L119 84H274Q286 84 284 74L273 11Q272 0 262 0H26Z" />
<glyph unicode="M" horiz-adv-x="506" d="M19 0Q8 0 10 11L119 644Q121 655 130 655H225Q236 655 236 644L269 286L416 644Q421 655 427 655H524Q534 655 533 644L441 11Q439 0 431 0H361Q351 0 352 11L405 364Q408 386 412 411T422 463T433 513H431Q419 482 406
451T378 388L250 95Q246 87 239 87H235Q229 87 228 95L193 388Q190 417 187 449T180 513H178Q175 478 170 440T159 366L99 11Q97 0 88 0H19Z" />
<glyph unicode="N" horiz-adv-x="428" d="M27 0Q16 0 17 11L118 644Q120 655 129 655H225Q234 655 235 644L277 289Q281 251 284 208T291 124H293Q296 153 299 188T307 257T316 320L368 644Q371 655 379 655H446Q456 655 455 644L353 11Q352 0 343 0H248Q239 0
238 11L200 325Q194 378 189 433T181 529H180Q176 499 172 463T163 391T153 321L104 11Q102 0 93 0H27Z" />
<glyph unicode="O" horiz-adv-x="414" d="M184 -6Q101 -6 63 48T40 205L81 466Q97 565 143 613T275 661Q359 661 398 607T420 449L379 189Q363 90 317 42T184 -6ZM194 79Q236 79 258 105T290 191L332 451Q342 516 326 546T265 576Q224 576 202 550T170 463L129
204Q118 139 135 109T194 79Z" />
<glyph unicode="P" horiz-adv-x="361" d="M26 0Q15 0 17 11L118 644Q121 655 129 655H223Q304 655 344 618T385 502Q385 422 361 364T291 273T180 241H143L106 11Q105 0 96 0H26ZM157 326H185Q220 326 244 346T282 404T295 493Q295 534 277 552T221 571H196L157 326Z" />
<glyph unicode="Q" horiz-adv-x="414" d="M228 -181Q178 -181 159 -131T163 31Q164 36 169 38T177 41L237 38Q245 38 243 27Q228 -43 231 -73T257 -104Q263 -104 269 -103T280 -100Q285 -98 287 -100T289 -108L280 -163Q278 -170 270 -174Q263 -177 253 -179T228
-181ZM184 -6Q101 -6 63 48T40 205L81 466Q97 565 143 613T275 661Q359 661 398 607T420 449L379 189Q363 90 317 42T184 -6ZM194 79Q236 79 258 105T290 191L332 451Q342 516 326 546T265 576Q224 576 202 550T170 463L129 204Q118 139 135 109T194 79Z" />
<glyph unicode="R" horiz-adv-x="390" d="M26 0Q16 0 17 11L118 644Q120 655 129 655H234Q322 655 361 618T400 502Q400 456 388 414T350 341T288 294V293L345 11Q347 6 344 3T336 0H263Q253 0 252 11L204 272H148L106 11Q105 0 96 0H26ZM161 352H200Q238 352
262 371T297 423T308 495Q308 535 289 553T232 571H196L161 352Z" />
<glyph unicode="S" horiz-adv-x="356" d="M158 -6Q72 -6 39 46T25 184Q28 195 36 195H105Q116 195 114 184Q103 132 115 105T165 77Q201 77 220 101T240 170Q240 202 229 227T194 278L130 349Q102 380 89 414T75 494Q75 570 116 615T235 661Q318 661 352 612T368
477Q364 464 357 464H287Q277 464 279 477Q290 526 277 552T230 578Q200 578 183 557T166 501Q166 473 176 452T209 405L270 337Q304 301 317 267T331 184Q331 93 285 44T158 -6Z" />
<glyph unicode="T" horiz-adv-x="344" d="M109 0Q98 0 100 11L188 571H87Q77 571 78 581L88 644Q91 655 99 655H391Q403 655 401 644L390 581Q388 571 379 571H278L189 11Q188 0 178 0H109Z" />
<glyph unicode="U" horiz-adv-x="416" d="M186 -6Q99 -6 64 49T45 212L115 644Q116 655 126 655H195Q206 655 204 644L135 211Q124 143 139 111T195 79Q234 79 255 109T288 211L357 644Q359 655 368 655H438Q448 655 446 644L376 209Q358 95 314 45T186 -6Z" />
<glyph unicode="V" horiz-adv-x="390" d="M119 0Q109 0 109 11L81 644Q81 655 91 655H165Q176 655 176 644L180 235Q181 199 180 165T178 96H180Q190 131 200 165T221 235L356 644Q359 655 367 655H445Q456 655 453 644L227 11Q223 0 215 0H119Z" />
<glyph unicode="W" horiz-adv-x="553" d="M99 0Q89 0 89 11L83 644Q83 655 94 655H162Q173 655 173 644L168 293Q167 247 164 196T156 104H158Q168 137 178 171T201 238L291 510L289 632Q289 643 300 643H368Q379 643 379 632L376 242Q375 207 375 173T372 104H373Q382
147 394 197T421 296L526 644Q529 655 536 655H606Q612 655 614 653T615 644L410 11Q406 0 399 0H317Q306 0 306 11L309 249Q309 280 309 311T311 375H309Q300 344 291 313T271 251L190 11Q187 0 179 0H99Z" />
<glyph unicode="X" horiz-adv-x="368" d="M-19 0Q-24 0 -26 3T-26 11L155 337L82 644Q81 650 84 652T92 655H168Q178 655 179 644L203 516Q207 490 211 464T219 411H220Q231 437 243 463T267 515L330 644Q335 655 341 655H424Q430 655 432 653T431 644L261 336L338
11Q340 0 329 0H251Q242 0 241 11L216 152Q211 179 207 206T199 261H198Q187 234 174 207T149 153L77 11Q75 6 73 3T66 0H-19Z" />
<glyph unicode="Y" horiz-adv-x="369" d="M121 0Q111 0 113 11L147 225L80 644Q78 655 89 655H164Q174 655 175 644L194 444Q198 415 200 385T204 325H205Q216 354 227 383T251 443L335 644Q339 655 347 655H427Q433 655 435 653T435 644L236 226L202 11Q200 0
191 0H121Z" />
<glyph unicode="Z" horiz-adv-x="348" d="M-12 0Q-21 0 -19 8L-18 14Q-17 18 -16 21T-14 27L219 464Q234 491 249 518T279 570V571Q259 571 239 571T200 571H98Q88 571 90 581L100 644Q102 655 110 655H403Q413 655 411 647L410 641Q409 638 408 635T404 628L162
177Q149 153 136 130T110 85V84Q131 84 150 84T188 84H296Q306 84 304 74L294 11Q293 0 284 0H-12Z" />
<glyph unicode="[" horiz-adv-x="178" d="M-9 -154Q-20 -154 -18 -143L115 698Q117 708 127 708H253Q264 708 262 698L253 644Q251 634 241 634H185L71 -79H128Q139 -79 137 -90L128 -143Q126 -154 116 -154H-9Z" />
<glyph unicode="\" horiz-adv-x="265" d="M158 0Q150 0 149 8L80 644Q79 655 89 655H151Q160 655 161 647L230 11Q232 0 222 0H158Z" />
<glyph unicode="]" horiz-adv-x="178" d="M-47 -154Q-57 -154 -55 -143L-47 -90Q-45 -79 -35 -79H22L135 634H78Q68 634 70 644L78 698Q80 708 90 708H216Q226 708 224 698L92 -143Q90 -154 79 -154H-47Z" />
<glyph unicode="^" horiz-adv-x="337" d="M69 350Q60 350 64 362L170 676Q172 683 179 683H235Q242 683 245 676L350 362Q354 350 344 350H277Q269 350 267 357L207 589L146 357Q144 350 136 350H69Z" />
<glyph unicode="_" horiz-adv-x="329" d="M-31 -133Q-41 -133 -40 -122L-31 -70Q-29 -60 -19 -60H271Q282 -60 280 -71L272 -122Q271 -133 260 -133H-31Z" />
<glyph unicode="`" horiz-adv-x="206" d="M178 557Q173 557 170 560T164 567L110 687Q108 692 110 695T116 698H179Q185 698 188 696T193 688L236 567Q237 563 235 560T228 557H178Z" />
<glyph unicode="a" horiz-adv-x="347" d="M94 -6Q51 -6 32 25T24 128L58 344Q72 425 107 460T207 496Q249 496 284 489T355 477L298 123Q291 84 288 57T283 11Q283 0 273 0H215Q205 0 205 11Q205 20 206 32T209 57Q184 30 155 12T94 -6ZM140 76Q155 76 173 88T210
120L255 409Q243 413 231 414T206 416Q181 416 167 400T145 338L113 134Q108 103 114 90T140 76Z" />
<glyph unicode="b" horiz-adv-x="349" d="M157 -6Q116 -6 82 1T12 13L116 672Q118 683 128 683H196Q207 683 204 672L111 81Q122 77 134 75T160 73Q186 73 200 91T221 155L254 360Q258 389 252 401T229 414Q212 414 190 400T144 359L151 426Q184 459 214 477T276
496Q321 496 337 464T344 371L309 152Q295 66 260 30T157 -6Z" />
<glyph unicode="c" horiz-adv-x="338" d="M148 -6Q77 -6 47 38T30 166L57 335Q71 419 108 457T214 496Q283 496 315 452T330 336Q327 325 319 325H258Q247 325 248 336Q256 374 246 394T208 414Q182 414 168 396T145 327L118 161Q111 117 120 97T157 76Q186 76
200 95T219 155Q221 166 230 166H291Q302 166 301 155Q293 74 256 34T148 -6Z" />
<glyph unicode="d" horiz-adv-x="349" d="M95 -6Q51 -6 33 27T26 128L63 358Q74 428 104 462T185 496Q210 496 233 489T279 469L267 395Q249 406 234 411T204 416Q189 416 179 410T161 390T150 351L115 134Q110 103 116 90T140 76Q158 76 179 90T220 131L224 74Q191
33 160 14T95 -6ZM217 0Q207 0 207 11Q207 30 210 56T216 99L211 114L299 672Q301 683 310 683H378Q389 683 387 672L300 123Q293 85 290 58T285 11Q285 0 275 0H217Z" />
<glyph unicode="e" d="M147 -6Q77 -6 47 38T30 165L56 333Q70 419 107 457T215 496Q273 496 304 468T336 386Q336 319 300 277T189 223L125 214L115 156Q109 112 118 92T156 71Q182 71 196 86T213 131Q214 141 224 141H287Q298 141 296 131Q289 62 253 28T147
-6ZM136 284L172 289Q211 296 230 318T250 374Q250 419 207 419Q180 419 166 401T145 336L136 284Z" />
<glyph unicode="f" horiz-adv-x="253" d="M203 490H272Q284 490 282 479L271 419Q270 408 260 408H190L134 56Q125 -8 111 -55T73 -135T10 -192Q3 -197 -1 -190L-34 -136Q-38 -129 -32 -122Q-11 -105 3 -83T28 -26T47 60L102 408H61Q50 408 52 419L62 479Q64 490
72 490H115L125 553Q137 622 166 655T248 689Q273 689 294 685T325 676Q333 673 332 665L322 606Q322 596 312 600Q301 605 289 607T264 610Q240 610 229 596T212 546L203 490Z" />
<glyph unicode="g" horiz-adv-x="349" d="M208 496Q250 496 284 489T355 477L274 -35Q262 -120 228 -158T123 -196Q75 -196 48 -177T11 -124T10 -53Q13 -42 20 -42H81Q93 -42 91 -53Q86 -82 94 -98T127 -114Q153 -114 166 -97T186 -30L204 76Q177 50 152 37T99
23Q53 23 36 56T30 156L59 344Q73 426 108 461T208 496ZM144 105Q173 105 216 148L257 409Q245 413 233 414T207 416Q182 416 168 400T146 338L119 163Q109 105 144 105Z" />
<glyph unicode="h" horiz-adv-x="357" d="M20 0Q10 0 11 10L116 672Q118 683 127 683H195Q200 683 202 681T204 672L99 10Q98 0 89 0H20ZM211 0Q200 0 202 11L257 354Q262 387 256 400T230 414Q212 414 192 401T150 363L147 420Q177 456 210 476T276 496Q322 496
339 464T345 361L290 11Q288 0 279 0H211Z" />
<glyph unicode="i" horiz-adv-x="167" d="M21 0Q10 0 11 11L86 479Q88 490 97 490H165Q170 490 173 488T174 479L99 11Q98 0 89 0H21ZM147 568Q121 568 108 581T98 620L99 633Q103 659 118 672T159 685Q185 685 198 672T208 633L206 620Q203 594 188 581T147 568Z" />
<glyph unicode="j" horiz-adv-x="158" d="M81 479Q83 490 93 490H160Q166 490 168 488T169 479L102 55Q92 -10 78 -57T42 -137T-17 -192Q-24 -197 -28 -190L-62 -136Q-66 -129 -59 -122Q-39 -106 -26 -85T-3 -29T15 57L81 479ZM399 568Q373 568 360 581T350 620L351
633Q355 659 370 672T411 685Q437 685 450 672T460 633L458 620Q455 594 440 581T399 568Z" />
<glyph unicode="k" horiz-adv-x="338" d="M21 0Q10 0 11 11L116 672Q118 683 127 683H195Q201 683 203 681T204 672L161 401Q156 372 151 343T139 280H140Q153 304 168 328T198 375L270 481Q273 485 276 487T283 490H362Q368 490 369 487T368 479L234 293L302
11Q304 6 301 3T293 0H219Q212 0 209 11L165 220L123 161L99 11Q98 0 89 0H21Z" />
<glyph unicode="l" horiz-adv-x="167" d="M20 0Q10 0 11 10L116 672Q118 683 127 683H195Q201 683 203 681T204 672L99 10Q98 0 89 0H20Z" />
<glyph unicode="m" horiz-adv-x="528" d="M21 0Q10 0 11 11L68 367Q74 406 78 433T83 479Q83 490 93 490H151Q160 490 160 479Q160 470 160 458T157 433Q186 464 215 480T274 496Q304 496 320 481T339 433Q368 464 397 480T455 496Q497 496 513 465T518 365L461
11Q460 0 450 0H383Q372 0 373 11L429 358Q434 388 429 401T406 414Q392 414 376 404T337 371L280 11Q279 0 270 0H202Q191 0 192 11L248 358Q253 388 248 401T225 414Q211 414 194 404T156 370L99 11Q98 0 89 0H21Z" />
<glyph unicode="n" horiz-adv-x="357" d="M211 0Q200 0 202 11L257 354Q262 387 256 400T230 414Q212 414 192 401T150 363L147 420Q177 456 210 476T276 496Q322 496 339 464T345 361L290 11Q288 0 279 0H211ZM21 0Q10 0 11 11L68 367Q74 406 78 433T83 479Q83
490 93 490H151Q160 490 160 479Q160 460 157 434T152 391L157 376L99 11Q98 0 89 0H21Z" />
<glyph unicode="o" horiz-adv-x="349" d="M151 -6Q82 -6 49 36T29 162L56 334Q70 417 109 456T217 496Q286 496 319 454T339 328L313 157Q300 74 261 34T151 -6ZM161 76Q188 76 202 94T224 159L250 328Q258 374 248 394T207 414Q179 414 166 396T145 330L117 162Q110
117 120 97T161 76Z" />
<glyph unicode="p" horiz-adv-x="348" d="M185 -6Q162 -6 136 1T90 21L102 95Q117 85 132 79T163 73Q186 73 199 91T220 153L252 356Q257 386 251 400T227 414Q209 414 188 399T144 358L143 417Q176 456 208 476T274 496Q319 496 335 464T341 363L308 150Q295
68 266 31T185 -6ZM-8 -185Q-19 -185 -18 -174L68 367Q76 410 79 436T83 479Q83 490 93 490H151Q160 490 160 479Q160 461 158 435T152 392L157 377L70 -174Q69 -185 60 -185H-8Z" />
<glyph unicode="q" horiz-adv-x="350" d="M174 -185Q164 -185 165 -174L257 409Q247 412 234 414T207 416Q182 416 168 399T147 338L115 133Q110 103 116 90T140 76Q158 76 179 90T222 131L223 72Q192 35 161 15T95 -6Q50 -6 33 27T26 127L60 344Q74 424 108 460T209
496Q251 496 286 489T357 477L253 -174Q252 -185 243 -185H174Z" />
<glyph unicode="r" horiz-adv-x="258" d="M21 0Q10 0 11 11L68 367Q74 406 78 433T83 479Q83 490 93 490H151Q160 490 160 479Q160 460 157 434T152 391L157 376L99 11Q98 0 89 0H21ZM144 338L152 420Q166 438 183 455T222 484T265 496Q270 496 274 496T282 494Q287
492 287 484Q285 465 281 444T272 403Q268 392 260 394Q256 395 252 395T241 396Q226 396 209 389T176 369T144 338Z" />
<glyph unicode="s" horiz-adv-x="309" d="M132 -6Q61 -6 36 36T26 144Q29 155 38 155H97Q103 155 106 152T107 144Q98 107 105 88T140 68Q162 68 174 84T187 127Q187 151 180 167T153 204L105 255Q84 278 72 304T59 365Q59 427 93 461T190 496Q253 496 283 462T303
364Q300 354 292 354H230Q220 354 222 364Q227 392 219 406T190 421Q170 421 160 408T149 371Q149 352 155 338T178 304L225 255Q252 227 264 201T277 137Q277 73 241 34T132 -6Z" />
<glyph unicode="t" horiz-adv-x="270" d="M150 -6Q91 -6 70 29T60 145L102 409H61Q50 409 52 419L62 479Q64 490 72 490H118L146 609Q150 620 157 620H213Q225 620 223 609L203 490H288Q299 490 297 479L287 419Q286 409 277 409H191L149 148Q142 106 150 91T181
75Q195 75 205 78T226 85Q230 87 233 84T235 76L224 16Q224 7 215 4Q202 0 185 -3T150 -6Z" />
<glyph unicode="u" horiz-adv-x="350" d="M99 -6Q57 -6 38 25T30 128L86 479Q88 490 96 490H164Q175 490 174 479L119 134Q113 102 119 89T145 76Q163 76 183 91T224 130L228 74Q200 39 169 17T99 -6ZM218 0Q208 0 208 11Q209 30 212 56T217 99L212 114L270 479Q272
490 281 490H349Q360 490 358 479L302 123Q295 85 292 58T287 11Q287 0 276 0H218Z" />
<glyph unicode="v" horiz-adv-x="336" d="M96 0Q86 0 85 11L63 479Q63 490 74 490H145Q156 490 155 479L154 223Q154 190 154 160T152 95H154Q163 128 172 159T192 224L274 479Q277 490 286 490H359Q370 490 366 479L196 11Q192 0 185 0H96Z" />
<glyph unicode="w" horiz-adv-x="484" d="M86 0Q76 0 76 11L65 479Q65 490 74 490H145Q150 490 152 488T154 479L152 241Q152 210 150 169T145 96H147Q157 129 167 161T186 225L233 371L234 470Q234 480 244 480H308Q318 480 318 470L312 225Q310 193 309 161T306
96H308Q316 129 325 162T344 227L421 479Q424 490 432 490H505Q516 490 512 479L352 11Q349 0 341 0H258Q247 0 247 11L248 123Q248 144 249 175T251 236H249Q241 207 233 179T215 123L179 11Q175 0 167 0H86Z" />
<glyph unicode="x" horiz-adv-x="338" d="M-10 0Q-14 0 -16 3T-15 11L126 252L66 479Q65 484 67 487T75 490H148Q158 490 159 479L173 395Q177 374 180 351T186 305H187Q197 327 208 350T228 395L269 479Q274 490 282 490H358Q363 490 364 487T364 479L233 253L297
11Q300 0 289 0H217Q206 0 205 11L187 103Q183 126 180 150T172 197H171Q161 174 150 150T127 103L79 9Q76 0 68 0H-10Z" />
<glyph unicode="y" horiz-adv-x="334" d="M35 -185Q30 -185 29 -182T28 -174L97 4L62 479Q62 485 64 487T72 490H143Q153 490 153 479L158 263Q159 231 159 198T157 131H159Q168 164 178 197T199 263L272 479Q276 490 284 490H358Q363 490 365 488T365 479L115
-174Q110 -185 103 -185H35Z" />
<glyph unicode="z" horiz-adv-x="310" d="M-5 0Q-12 0 -11 8V12Q-9 19 -5 26L165 324Q177 345 188 365T212 407V408Q194 408 180 408T150 408H78Q68 408 69 419L79 479Q82 490 90 490H333Q342 490 340 483V479Q339 472 332 461L166 169Q154 148 142 127T117 83V82Q132
82 145 82T173 82H255Q266 82 264 71L254 11Q253 0 244 0H-5Z" />
<glyph unicode="{" horiz-adv-x="192" d="M129 -155Q84 -155 59 -139T27 -86T30 18L56 181Q61 211 57 225T37 239H27Q17 239 18 250L27 305Q29 315 39 315H49Q65 315 74 330T87 374L116 558Q127 622 144 655T190 699T265 710Q276 710 274 700L266 647Q265 636
254 636Q236 636 225 630T207 607T195 559L167 378Q161 340 146 314T106 277Q128 267 134 240T134 173L106 -4Q101 -34 102 -51T113 -74T140 -81Q151 -81 149 -92L141 -145Q139 -155 129 -155Z" />
<glyph unicode="|" horiz-adv-x="196" d="M88 -185Q78 -185 78 -174V819Q78 830 88 830H151Q161 830 161 819V-174Q161 -185 151 -185H88Z" />
<glyph unicode="}" horiz-adv-x="192" d="M93 710Q139 710 164 694T196 641T192 537L166 374Q161 345 165 331T185 316H195Q206 316 204 305L195 250Q193 240 183 240H173Q157 240 148 225T135 181L106 -3Q96 -67 79 -100T32 -144T-43 -155Q-53 -155 -52 -145L-44
-92Q-42 -81 -32 -81Q-13 -81 -2 -75T15 -51T27 -4L55 177Q61 215 76 241T116 278Q94 288 88 316T88 382L116 559Q121 590 120 606T110 629T82 636Q71 636 73 647L81 700Q83 710 93 710Z" />
<glyph unicode="~" horiz-adv-x="420" d="M286 247Q261 247 245 254T213 269T172 277Q151 277 132 270T103 256Q95 251 95 262V320Q95 328 99 331Q108 337 127 345T173 354Q200 354 216 347T248 332T287 324Q308 324 327 332T358 347Q365 350 365 341V283Q365
274 361 271Q352 264 333 256T286 247Z" />
<glyph unicode="&#xa0;" horiz-adv-x="124" />
<glyph unicode="&#xa1;" horiz-adv-x="182" d="M155 293Q164 293 161 283L100 -150Q98 -159 91 -159H4Q-4 -159 -2 -149L72 283Q74 293 82 293H155ZM149 502Q176 502 189 488T198 446L197 433Q193 406 177 394T135 381Q108 381 95 396T86 438L88 451Q92 478 107
490T149 502Z" />
<glyph unicode="&#xa2;" horiz-adv-x="412" d="M218 532L232 618Q234 627 243 627H301Q311 627 309 618L295 534L218 532ZM137 -38Q129 -38 130 -28L143 57L219 56L206 -28Q204 -38 196 -38H137ZM184 44Q114 44 84 88T67 216L94 385Q108 469 145 507T251 546Q320
546 351 502T366 386Q363 375 356 375H294Q284 375 285 386Q293 424 283 444T245 464Q218 464 204 446T181 377L154 211Q148 167 157 147T194 126Q223 126 237 145T256 205Q258 216 267 216H328Q339 216 337 205Q330 124 293 84T184 44Z" />
<glyph unicode="&#xa3;" horiz-adv-x="412" d="M49 0Q40 0 41 11L48 58Q49 66 54 72Q70 96 80 123T96 182L145 493Q159 581 195 621T295 661Q365 661 390 619T399 488Q396 478 387 478H327Q316 478 319 488Q327 540 321 560T290 581Q266 581 254 562T232 491L185
194Q179 156 170 130T144 83H333Q343 83 341 73L332 11Q330 0 320 0H49ZM79 299Q69 299 71 310L79 364Q81 375 91 375H298Q308 375 306 364L297 309Q295 299 285 299H79Z" />
<glyph unicode="&#xa4;" horiz-adv-x="431" d="M127 113Q120 106 115 112L77 154Q71 160 78 167L123 219Q116 238 113 261T110 314Q110 343 113 366T123 409L78 461Q71 468 77 474L114 515Q121 522 127 515L164 473Q192 499 235 499Q278 499 306 473L345 515Q350
523 356 516L394 474Q400 468 393 461L348 409Q355 390 358 367T361 314Q361 285 358 262T348 219L393 167Q400 160 394 154L356 112Q351 106 344 113L306 155Q278 129 235 129Q192 129 164 155L127 113ZM235 201Q266 201 277 228T288 314Q288 373 277 400T235
427Q206 427 195 400T183 314Q183 255 194 228T235 201Z" />
<glyph unicode="&#xa5;" horiz-adv-x="412" d="M140 0Q132 0 133 11L167 225L110 642Q108 655 118 655H196Q204 655 205 647L219 443Q221 413 222 384T224 325H226Q236 354 246 383T267 442L348 648Q351 655 359 655H442Q452 655 448 643L257 226L223 11Q222 0
211 0H140ZM83 104Q73 104 74 115L81 156Q83 167 93 167H314Q325 167 323 156L316 115Q315 104 304 104H83ZM102 226Q92 226 93 236L100 278Q102 289 112 289H333Q344 289 342 278L335 236Q334 226 323 226H102Z" />
<glyph unicode="&#xa6;" horiz-adv-x="196" d="M88 392Q78 392 78 403V819Q78 830 88 830H151Q161 830 161 819V403Q161 392 151 392H88ZM88 -185Q78 -185 78 -174V242Q78 253 88 253H151Q161 253 161 242V-174Q161 -185 151 -185H88Z" />
<glyph unicode="&#xa7;" horiz-adv-x="311" d="M110 -118Q54 -118 26 -93T-2 -21Q-2 -12 -2 -4T2 14Q3 24 11 24H72Q81 24 79 14Q78 8 78 4T78 -5Q78 -44 112 -44Q127 -44 138 -36T155 -13T161 22Q161 38 157 50T140 79L65 178Q49 199 42 223T34 278Q34 332 58
374T128 437Q109 461 101 484T93 538Q93 579 109 612T157 665T233 685Q287 685 315 660T344 585Q344 578 344 570T341 553Q339 543 332 543H268Q260 543 262 553Q263 558 263 563T264 573Q264 610 230 610Q215 610 204 602T187 581T181 548Q181 530 186 517T202
488L277 390Q293 369 300 346T308 294Q308 238 284 195T214 130Q227 114 234 100T245 69T249 28Q249 -11 233 -44T186 -98T110 -118ZM175 184Q197 198 209 223T222 278Q222 298 215 314T193 350L167 383Q144 369 132 344T120 289Q120 269 127 253T149 216L175 184Z"
/>
<glyph unicode="&#xa8;" horiz-adv-x="283" d="M269 572Q246 572 234 584T225 621L227 631Q234 680 281 680Q305 680 316 668T325 631L323 620Q316 572 269 572ZM141 572Q118 572 107 584T98 621L99 631Q107 680 153 680Q178 680 189 668T197 631L196 620Q188
572 141 572Z" />
<glyph unicode="&#xa9;" horiz-adv-x="450" d="M245 -6Q179 -6 138 18T78 92T59 213V391Q59 464 78 512T138 585T245 610Q310 610 351 586T411 513T430 391V213Q430 141 411 92T351 19T245 -6ZM245 47Q311 47 343 85T375 211V393Q375 481 343 519T245 557Q177
557 145 519T113 393V211Q113 123 145 85T245 47ZM246 128Q201 128 181 156T160 234V365Q160 415 180 444T246 473Q293 473 311 442T330 356Q330 351 329 349T324 347H285Q278 347 278 356Q279 391 272 407T246 423Q228 423 220 409T212 365V236Q212 178 246 178Q265
178 271 194T278 245Q278 254 285 254H324Q328 254 329 252T330 244Q330 189 312 159T246 128Z" />
<glyph unicode="&#xaa;" horiz-adv-x="249" d="M115 322Q87 322 74 345T68 419L89 553Q100 614 125 638T192 662Q220 662 243 657T290 649L252 409Q247 381 245 363T241 332Q241 326 235 326H193Q187 326 187 332Q186 339 186 347T188 363Q171 344 154 333T115
322ZM46 196Q37 196 39 206L47 254Q49 264 56 264H225Q234 264 232 254L224 206Q223 196 214 196H46ZM146 381Q156 381 167 388T189 407L220 600Q212 601 206 602T191 604Q175 604 166 593T153 549L131 418Q128 396 132 389T146 381Z" />
<glyph unicode="&#xab;" horiz-adv-x="362" d="M104 91Q98 91 96 97L43 256Q41 263 45 270L144 428Q148 436 155 436H224Q229 436 230 433T228 424L129 263L177 102Q181 91 170 91H104ZM242 91Q236 91 234 97L182 256Q179 265 184 270L282 428Q286 436 293 436H362Q367
436 368 433T367 424L267 263L315 102Q317 97 315 94T308 91H242Z" />
<glyph unicode="&#xac;" horiz-adv-x="420" d="M297 143Q286 143 286 153V262H105Q95 262 95 272V328Q95 339 105 339H355Q365 339 365 328V153Q365 143 355 143H297Z" />
<glyph unicode="&#xad;" horiz-adv-x="294" d="M45 230Q35 230 37 240L44 291Q46 302 56 302H268Q279 302 277 291L268 240Q266 230 256 230H45Z" />
<glyph unicode="&#xae;" horiz-adv-x="355" d="M230 305Q161 305 122 349T83 480V523Q83 610 122 654T230 698Q299 698 337 653T375 523V480Q375 395 337 350T230 305ZM230 350Q278 350 302 380T327 479V525Q327 593 303 623T230 653Q197 653 176 640T143 599T131
525V479Q131 433 142 405T175 363T230 350ZM182 394Q179 394 179 398V606Q179 612 184 612H224Q254 612 270 597T286 547Q286 523 280 509T260 486L289 399Q290 394 285 394H255Q251 394 251 398L227 477H214V398Q214 394 210 394H182ZM214 509H226Q249 509 249
536V552Q249 567 244 573T226 580H214V509Z" />
<glyph unicode="&#xaf;" horiz-adv-x="213" d="M100 572Q90 572 92 582L100 634Q102 645 112 645H246Q256 645 254 634L246 582Q244 572 234 572H100Z" />
<glyph unicode="&#xb0;" horiz-adv-x="245" d="M161 404Q109 404 89 435T77 519L86 577Q94 630 120 659T199 689Q251 689 271 658T283 575L274 517Q266 464 240 434T161 404ZM168 466Q187 466 197 479T211 519L220 574Q224 600 219 614T192 628Q172 628 162 614T148
574L139 519Q136 493 141 480T168 466Z" />
<glyph unicode="&#xb1;" horiz-adv-x="420" d="M202 179Q192 179 192 189V276H104Q94 276 94 286V343Q94 353 104 353H192V441Q192 451 202 451H259Q269 451 269 441V353H356Q366 353 366 343V286Q366 276 356 276H269V189Q269 179 259 179H202ZM107 53Q97 53
97 63V120Q97 131 107 131H353Q364 131 364 120V63Q364 53 353 53H107Z" />
<glyph unicode="&#xb2;" horiz-adv-x="286" d="M75 350Q64 350 66 361L73 407Q80 451 98 480T139 531T185 571T224 609T246 657L247 665Q250 687 246 697T225 707Q208 707 200 695T188 653Q185 643 176 643H128Q118 643 120 653Q125 711 156 743T237 775Q279 775
301 755T324 693Q324 645 309 613T270 558T222 515T180 473T158 419H270Q281 419 279 408L272 361Q270 350 259 350H75Z" />
<glyph unicode="&#xb3;" horiz-adv-x="286" d="M173 345Q110 345 91 377T82 467Q85 477 94 477H141Q152 477 150 467Q147 445 151 430T176 415Q194 415 204 429T218 468L220 481Q224 505 219 518T192 531H173Q161 531 163 542L171 586Q173 596 183 596H199Q217
596 228 609T242 650L244 662Q248 684 242 695T219 706Q199 706 191 692T179 653Q178 643 168 643H121Q111 643 112 653Q118 711 146 743T230 775Q276 775 299 754T322 692Q322 669 315 645T295 601T260 567V566Q278 557 286 540T295 498Q295 457 282 422T241 366T173
345Z" />
<glyph unicode="&#xb4;" horiz-adv-x="206" d="M97 557Q92 557 90 561T92 570L171 688Q178 698 188 698H248Q254 698 255 695T253 685L163 567Q155 557 144 557H97Z" />
<glyph unicode="&#xb5;" horiz-adv-x="350" d="M-11 -185Q-19 -185 -18 -175L85 479Q87 490 96 490H167Q176 490 174 479L120 139Q114 105 121 91T147 76Q163 76 179 87T212 118L270 479Q272 490 280 490H351Q359 490 357 479L298 105Q295 85 298 79T310 73Q315
73 318 74T326 76Q332 77 330 69L322 10Q321 1 311 0Q300 -3 290 -4T269 -6Q243 -6 228 6T212 47H211Q192 24 174 10T132 -4Q121 -4 113 2T99 17L69 -175Q68 -185 59 -185H-11Z" />
<glyph unicode="&#xb6;" horiz-adv-x="380" d="M67 -185Q58 -185 58 -174L135 308H122Q77 308 59 339T52 436L72 562Q82 627 106 655T177 683H416Q424 683 422 673L288 -174Q286 -185 276 -185H217Q208 -185 209 -174L331 599H260L138 -174Q136 -185 126 -185H67Z" />
<glyph unicode="&#xb7;" horiz-adv-x="196" d="M101 203Q74 203 60 218T50 261L52 274Q59 327 117 327Q145 327 158 311T168 268L166 255Q158 203 101 203Z" />
<glyph unicode="&#xb8;" horiz-adv-x="179" d="M19 -191Q-2 -191 -18 -188Q-28 -185 -27 -176L-22 -142Q-20 -131 -11 -133Q-6 -134 -1 -134T9 -135Q33 -135 37 -108L39 -96Q41 -83 36 -77T17 -70H10Q0 -70 1 -59Q2 -49 6 -42L36 26Q41 37 49 37H85Q98 37 92 25L63
-34H66Q88 -34 99 -50T105 -94L101 -115Q94 -155 75 -173T19 -191Z" />
<glyph unicode="&#xb9;" horiz-adv-x="286" d="M79 350Q68 350 70 361L78 408Q80 419 89 419H144L188 683L128 662Q119 659 120 669L128 719Q129 728 136 731L241 768Q244 769 247 770T254 771H264Q274 771 272 760L218 419H269Q280 419 277 408L270 361Q269 350
258 350H79Z" />
<glyph unicode="&#xba;" horiz-adv-x="247" d="M149 318Q104 318 83 348T70 430L90 557Q106 661 194 661Q239 661 260 631T274 548L254 422Q237 318 149 318ZM46 196Q38 196 39 206L47 254Q49 264 57 264H215Q224 264 222 254L214 206Q213 196 204 196H46ZM156
380Q171 380 179 390T191 422L213 557Q216 580 210 590T187 600Q172 600 164 590T152 557L130 422Q127 400 133 390T156 380Z" />
<glyph unicode="&#xbb;" horiz-adv-x="362" d="M281 436Q289 436 291 429L343 270Q345 266 344 263T340 256L241 98Q239 91 231 91H162Q157 91 156 94T157 102L257 264L209 424Q205 436 216 436H281ZM144 436Q151 436 152 429L205 270Q207 266 206 263T202 256L103
98Q100 91 93 91H23Q19 91 18 94T20 102L118 264L70 424Q68 436 78 436H144Z" />
<glyph unicode="&#xbc;" horiz-adv-x="701" d="M61 237Q50 237 52 248L60 295Q62 306 71 306H126L170 570L110 549Q101 546 102 556L110 606Q111 615 118 618L223 655Q226 656 229 657T236 658H246Q256 658 254 647L200 306H251Q262 306 259 295L252 248Q251 237
240 237H61ZM173 -31Q163 -31 169 -19L342 347L498 679Q502 686 508 686H572Q576 686 577 684T577 676L407 325L247 -24Q245 -31 237 -31H173ZM565 0Q555 0 556 11L567 76H427Q416 76 418 86L419 93Q420 97 421 101T425 109L575 407Q579 418 587 418H639Q643 418
645 415T644 405L517 142H578L606 273Q609 283 618 283H659Q670 283 668 273L647 143H664Q674 143 672 133L665 86Q664 76 655 76H637L626 11Q624 0 615 0H565Z" />
<glyph unicode="&#xbd;" horiz-adv-x="701" d="M61 237Q50 237 52 248L60 295Q62 306 71 306H126L170 570L110 549Q101 546 102 556L110 606Q111 615 118 618L223 655Q226 656 229 657T236 658H246Q256 658 254 647L200 306H251Q262 306 259 295L252 248Q251 237
240 237H61ZM173 -31Q163 -31 169 -19L342 347L498 679Q502 686 508 686H572Q576 686 577 684T577 676L407 325L247 -24Q245 -31 237 -31H173ZM435 0Q424 0 426 11L433 57Q440 101 458 130T499 181T545 221T584 259T606 307L607 315Q610 337 606 347T585 357Q568
357 560 345T548 303Q545 293 536 293H488Q478 293 480 303Q485 361 516 393T597 425Q639 425 661 405T684 343Q684 295 669 263T630 208T582 165T540 123T518 69H630Q641 69 639 58L632 11Q630 0 619 0H435Z" />
<glyph unicode="&#xbe;" horiz-adv-x="701" d="M155 232Q92 232 73 264T64 354Q67 364 76 364H123Q134 364 132 354Q129 332 133 317T158 302Q176 302 186 316T200 355L202 368Q206 392 201 405T174 418H155Q143 418 145 429L153 473Q155 483 165 483H181Q199
483 210 496T224 537L226 549Q230 571 224 582T201 593Q181 593 173 579T161 540Q160 530 150 530H103Q93 530 94 540Q100 598 128 630T212 662Q258 662 281 641T304 579Q304 556 297 532T277 488T242 454V453Q260 444 268 427T277 385Q277 344 264 309T223 253T155
232ZM173 -31Q163 -31 169 -19L342 347L498 679Q502 686 508 686H572Q576 686 577 684T577 676L407 325L247 -24Q245 -31 237 -31H173ZM565 0Q555 0 556 11L567 76H427Q416 76 418 86L419 93Q420 97 421 101T425 109L575 407Q579 418 587 418H639Q643 418 645 415T644
405L517 142H578L606 273Q609 283 618 283H659Q670 283 668 273L647 143H664Q674 143 672 133L665 86Q664 76 655 76H637L626 11Q624 0 615 0H565Z" />
<glyph unicode="&#xbf;" horiz-adv-x="313" d="M214 287Q222 287 221 277L214 237Q208 201 192 173T154 120T114 70T81 15T67 -53Q67 -73 76 -83T106 -93Q137 -93 150 -67T169 9Q170 20 179 20H244Q249 20 250 17T251 8Q242 -85 204 -128T94 -171Q36 -171 7 -145T-23
-64Q-23 -14 -10 22T24 85T65 137T102 186T125 241L131 279Q133 287 141 287H214ZM206 496Q232 496 245 482T255 440L253 427Q249 400 234 388T191 375Q164 375 152 390T143 432L144 445Q148 472 163 484T206 496Z" />
<glyph unicode="&#xc0;" horiz-adv-x="377" d="M-20 0Q-30 0 -28 11L202 644Q205 655 214 655H309Q320 655 320 644L349 11Q349 0 338 0H264Q253 0 253 11L249 420Q249 456 249 490T250 559H248Q238 524 227 490T204 420L68 11Q65 0 57 0H-20ZM99 150L126 229H262L264
150H99ZM272 711Q267 711 264 714T259 721L211 824Q210 829 212 832T218 835H281Q287 835 290 833T294 825L330 721Q332 717 330 714T322 711H272Z" />
<glyph unicode="&#xc1;" horiz-adv-x="377" d="M-20 0Q-30 0 -28 11L202 644Q205 655 214 655H309Q320 655 320 644L349 11Q349 0 338 0H264Q253 0 253 11L249 420Q249 456 249 490T250 559H248Q238 524 227 490T204 420L68 11Q65 0 57 0H-20ZM99 150L126 229H262L264
150H99ZM220 711Q215 711 213 715T215 724L283 825Q290 835 300 835H360Q366 835 367 831T365 822L286 721Q278 711 268 711H220Z" />
<glyph unicode="&#xc2;" horiz-adv-x="377" d="M-20 0Q-30 0 -28 11L202 644Q205 655 214 655H309Q320 655 320 644L349 11Q349 0 338 0H264Q253 0 253 11L249 420Q249 456 249 490T250 559H248Q238 524 227 490T204 420L68 11Q65 0 57 0H-20ZM99 150L126 229H262L264
150H99ZM194 718Q181 712 183 725L190 773Q191 778 192 781T198 785L283 822Q290 825 296 822L365 782Q369 780 371 777T373 768L365 725Q364 714 352 718L280 753L194 718Z" />
<glyph unicode="&#xc3;" horiz-adv-x="377" d="M-20 0Q-30 0 -28 11L202 644Q205 655 214 655H309Q320 655 320 644L349 11Q349 0 338 0H264Q253 0 253 11L249 420Q249 456 249 490T250 559H248Q238 524 227 490T204 420L68 11Q65 0 57 0H-20ZM99 150L126 229H262L264
150H99ZM308 714Q292 714 282 718T261 726T239 731Q228 731 219 728T199 720Q193 717 190 719T187 728L193 770Q195 775 196 778T202 785Q212 792 225 796T253 801Q269 801 279 797T299 789T322 785Q333 785 342 787T362 795Q368 799 371 796T374 786L367 745Q365
734 360 731Q350 723 337 719T308 714Z" />
<glyph unicode="&#xc4;" horiz-adv-x="377" d="M-20 0Q-30 0 -28 11L202 644Q205 655 214 655H309Q320 655 320 644L349 11Q349 0 338 0H264Q253 0 253 11L249 420Q249 456 249 490T250 559H248Q238 524 227 490T204 420L68 11Q65 0 57 0H-20ZM99 150L126 229H262L264
150H99ZM339 719Q316 719 304 731T295 767L297 777Q304 826 351 826Q375 826 386 814T394 777L393 767Q386 719 339 719ZM211 719Q188 719 177 731T168 767L169 777Q176 826 223 826Q247 826 259 814T267 777L265 767Q258 719 211 719Z" />
<glyph unicode="&#xc5;" horiz-adv-x="377" d="M-20 0Q-30 0 -28 11L200 638Q186 653 186 679Q186 728 210 755T277 783Q313 783 333 763T354 708Q354 680 346 660T321 627L349 11Q349 0 338 0H264Q253 0 253 11L251 150H115L68 11Q65 0 57 0H-20ZM139 229H252L249
420Q249 456 249 490T250 559H248Q238 524 227 490T204 420L139 229ZM266 649Q282 649 290 664T298 705Q298 737 274 737Q258 737 250 722T241 681Q241 649 266 649Z" />
<glyph unicode="&#xc6;" horiz-adv-x="533" d="M-21 0Q-31 0 -28 11L238 644Q242 655 250 655H561Q573 655 570 644L560 581Q558 571 549 571H383L352 373H502Q514 373 511 363L501 303Q499 293 491 293H339L306 84H471Q482 84 480 74L469 11Q468 0 459 0H215Q210
0 207 3T205 11L227 150H126L69 10Q66 0 58 0H-21ZM155 229H239L280 482Q285 512 289 535T297 584H296Q286 558 277 532T258 482L155 229Z" />
<glyph unicode="&#xc7;" horiz-adv-x="409" d="M185 -6Q101 -6 62 48T40 208L80 465Q96 566 142 613T271 661Q331 661 368 632T416 553T410 438Q408 428 399 428H330Q319 428 321 438Q336 504 323 540T263 576Q223 576 202 550T170 463L129 204Q118 139 134 109T194
79Q241 79 262 116T288 217Q288 227 298 227H368Q372 227 374 226T377 217Q372 112 324 53T185 -6ZM146 64Q125 64 109 67Q99 70 100 79L105 113Q107 124 116 122Q121 121 126 121T136 120Q160 120 164 147L166 159Q168 172 163 178T144 185H137Q127 185 128 196Q129
206 133 213L163 281Q168 292 176 292H212Q225 292 219 280L190 221H193Q215 221 226 205T232 161L228 140Q221 100 202 82T146 64Z" />
<glyph unicode="&#xc8;" horiz-adv-x="346" d="M26 0Q16 0 17 11L118 644Q120 655 129 655H374Q386 655 384 644L373 581Q371 571 362 571H196L165 373H315Q327 373 325 363L315 303Q313 293 304 293H152L119 84H284Q295 84 293 74L283 11Q281 0 272 0H26ZM261
711Q256 711 253 714T248 721L200 824Q199 829 201 832T207 835H270Q276 835 279 833T283 825L319 721Q321 717 319 714T311 711H261Z" />
<glyph unicode="&#xc9;" horiz-adv-x="346" d="M26 0Q16 0 17 11L118 644Q120 655 129 655H374Q386 655 384 644L373 581Q371 571 362 571H196L165 373H315Q327 373 325 363L315 303Q313 293 304 293H152L119 84H284Q295 84 293 74L283 11Q281 0 272 0H26ZM210
711Q205 711 203 715T205 724L273 825Q280 835 290 835H350Q356 835 357 831T355 822L276 721Q268 711 258 711H210Z" />
<glyph unicode="&#xca;" horiz-adv-x="346" d="M26 0Q16 0 17 11L118 644Q120 655 129 655H374Q386 655 384 644L373 581Q371 571 362 571H196L165 373H315Q327 373 325 363L315 303Q313 293 304 293H152L119 84H284Q295 84 293 74L283 11Q281 0 272 0H26ZM184
718Q171 712 173 725L180 773Q181 778 182 781T188 785L273 822Q280 825 286 822L355 782Q359 780 361 777T363 768L355 725Q354 714 342 718L270 753L184 718Z" />
<glyph unicode="&#xcb;" horiz-adv-x="346" d="M26 0Q16 0 17 11L118 644Q120 655 129 655H374Q386 655 384 644L373 581Q371 571 362 571H196L165 373H315Q327 373 325 363L315 303Q313 293 304 293H152L119 84H284Q295 84 293 74L283 11Q281 0 272 0H26ZM329
719Q306 719 294 731T285 767L287 777Q294 826 341 826Q365 826 376 814T384 777L383 767Q376 719 329 719ZM201 719Q178 719 167 731T158 767L159 777Q166 826 213 826Q237 826 249 814T257 777L255 767Q248 719 201 719Z" />
<glyph unicode="&#xcc;" horiz-adv-x="180" d="M26 0Q16 0 17 11L118 644Q120 655 129 655H198Q209 655 207 644L106 11Q105 0 96 0H26ZM431 711Q426 711 423 714T418 721L370 824Q369 829 371 832T377 835H440Q446 835 449 833T453 825L489 721Q491 717 489 714T481
711H431Z" />
<glyph unicode="&#xcd;" horiz-adv-x="180" d="M26 0Q16 0 17 11L118 644Q120 655 129 655H198Q209 655 207 644L106 11Q105 0 96 0H26ZM124 711Q119 711 117 715T119 724L187 825Q194 835 204 835H264Q270 835 271 831T269 822L190 721Q182 711 172 711H124Z" />
<glyph unicode="&#xce;" horiz-adv-x="180" d="M26 0Q16 0 17 11L118 644Q120 655 129 655H198Q209 655 207 644L106 11Q105 0 96 0H26ZM354 718Q341 712 343 725L350 773Q351 778 352 781T358 785L443 822Q450 825 456 822L525 782Q529 780 531 777T533 768L525
725Q524 714 512 718L440 753L354 718Z" />
<glyph unicode="&#xcf;" horiz-adv-x="180" d="M26 0Q16 0 17 11L118 644Q120 655 129 655H198Q209 655 207 644L106 11Q105 0 96 0H26ZM499 719Q476 719 464 731T455 767L457 777Q464 826 511 826Q535 826 546 814T554 777L553 767Q546 719 499 719ZM371 719Q348
719 337 731T328 767L329 777Q336 826 383 826Q407 826 419 814T427 777L425 767Q418 719 371 719Z" />
<glyph unicode="&#xd0;" horiz-adv-x="416" d="M34 295Q22 295 25 306L33 359Q35 370 44 370H78H227Q238 370 236 359L228 306Q226 295 217 295H34ZM30 0Q18 0 20 11L121 644Q124 655 132 655H232Q345 655 389 588T413 381L398 283Q375 137 316 69T152 0H30ZM121
84H158Q222 84 257 131T309 284L324 383Q339 481 316 526T227 571H198L121 84Z" />
<glyph unicode="&#xd1;" horiz-adv-x="428" d="M27 0Q16 0 17 11L118 644Q120 655 129 655H225Q234 655 235 644L277 289Q281 251 284 208T291 124H293Q296 153 299 188T307 257T316 320L368 644Q371 655 379 655H446Q456 655 455 644L353 11Q352 0 343 0H248Q239
0 238 11L200 325Q194 378 189 433T181 529H180Q176 499 172 463T163 391T153 321L104 11Q102 0 93 0H27ZM333 714Q317 714 307 718T286 726T264 731Q253 731 244 728T224 720Q218 717 215 719T212 728L218 770Q220 775 221 778T227 785Q237 792 250 796T278 801Q294
801 304 797T324 789T347 785Q358 785 367 787T387 795Q393 799 396 796T399 786L392 745Q390 734 385 731Q375 723 362 719T333 714Z" />
<glyph unicode="&#xd2;" horiz-adv-x="414" d="M184 -6Q101 -6 63 48T40 205L81 466Q97 565 143 613T275 661Q359 661 398 607T420 449L379 189Q363 90 317 42T184 -6ZM194 79Q236 79 258 105T290 191L332 451Q342 516 326 546T265 576Q224 576 202 550T170 463L129
204Q118 139 135 109T194 79ZM290 711Q285 711 282 714T277 721L229 824Q228 829 230 832T236 835H299Q305 835 308 833T312 825L348 721Q350 717 348 714T340 711H290Z" />
<glyph unicode="&#xd3;" horiz-adv-x="414" d="M184 -6Q101 -6 63 48T40 205L81 466Q97 565 143 613T275 661Q359 661 398 607T420 449L379 189Q363 90 317 42T184 -6ZM194 79Q236 79 258 105T290 191L332 451Q342 516 326 546T265 576Q224 576 202 550T170 463L129
204Q118 139 135 109T194 79ZM239 711Q234 711 232 715T234 724L302 825Q309 835 319 835H379Q385 835 386 831T384 822L305 721Q297 711 287 711H239Z" />
<glyph unicode="&#xd4;" horiz-adv-x="414" d="M184 -6Q101 -6 63 48T40 205L81 466Q97 565 143 613T275 661Q359 661 398 607T420 449L379 189Q363 90 317 42T184 -6ZM194 79Q236 79 258 105T290 191L332 451Q342 516 326 546T265 576Q224 576 202 550T170 463L129
204Q118 139 135 109T194 79ZM213 718Q200 712 202 725L209 773Q210 778 211 781T217 785L302 822Q309 825 315 822L384 782Q388 780 390 777T392 768L384 725Q383 714 371 718L299 753L213 718Z" />
<glyph unicode="&#xd5;" horiz-adv-x="414" d="M184 -6Q101 -6 63 48T40 205L81 466Q97 565 143 613T275 661Q359 661 398 607T420 449L379 189Q363 90 317 42T184 -6ZM194 79Q236 79 258 105T290 191L332 451Q342 516 326 546T265 576Q224 576 202 550T170 463L129
204Q118 139 135 109T194 79ZM327 714Q311 714 301 718T280 726T258 731Q247 731 238 728T218 720Q212 717 209 719T206 728L212 770Q214 775 215 778T221 785Q231 792 244 796T272 801Q288 801 298 797T318 789T341 785Q352 785 361 787T381 795Q387 799 390 796T393
786L386 745Q384 734 379 731Q369 723 356 719T327 714Z" />
<glyph unicode="&#xd6;" horiz-adv-x="414" d="M184 -6Q101 -6 63 48T40 205L81 466Q97 565 143 613T275 661Q359 661 398 607T420 449L379 189Q363 90 317 42T184 -6ZM194 79Q236 79 258 105T290 191L332 451Q342 516 326 546T265 576Q224 576 202 550T170 463L129
204Q118 139 135 109T194 79ZM358 719Q335 719 323 731T314 767L316 777Q323 826 370 826Q394 826 405 814T413 777L412 767Q405 719 358 719ZM230 719Q207 719 196 731T187 767L188 777Q195 826 242 826Q266 826 278 814T286 777L284 767Q277 719 230 719Z" />
<glyph unicode="&#xd7;" horiz-adv-x="420" d="M154 185L114 224Q107 232 114 239L177 301L114 363Q107 370 114 378L154 417Q162 427 168 417L231 355L292 417Q299 425 307 417L346 377Q356 369 346 363L285 301L346 239Q356 233 346 225L307 185Q299 178 292
185L231 247L168 185Q162 177 154 185Z" />
<glyph unicode="&#xd8;" horiz-adv-x="414" d="M11 -50Q6 -50 5 -47T4 -39L68 86L101 142L327 581L342 620L380 694Q384 705 392 705H447Q452 705 454 702T454 694L392 574L362 525L135 79L120 40L79 -39Q74 -50 67 -50H11ZM184 -6Q101 -6 63 48T40 205L81 466Q97
565 143 613T275 661Q359 661 398 607T420 449L379 189Q363 90 317 42T184 -6ZM194 79Q236 79 258 105T290 191L332 451Q342 516 326 546T265 576Q224 576 202 550T170 463L129 204Q118 139 135 109T194 79Z" />
<glyph unicode="&#xd9;" horiz-adv-x="416" d="M186 -6Q99 -6 64 49T45 212L115 644Q116 655 126 655H195Q206 655 204 644L135 211Q124 143 139 111T195 79Q234 79 255 109T288 211L357 644Q359 655 368 655H438Q448 655 446 644L376 209Q358 95 314 45T186 -6ZM291
711Q286 711 283 714T278 721L230 824Q229 829 231 832T237 835H300Q306 835 309 833T313 825L349 721Q351 717 349 714T341 711H291Z" />
<glyph unicode="&#xda;" horiz-adv-x="416" d="M186 -6Q99 -6 64 49T45 212L115 644Q116 655 126 655H195Q206 655 204 644L135 211Q124 143 139 111T195 79Q234 79 255 109T288 211L357 644Q359 655 368 655H438Q448 655 446 644L376 209Q358 95 314 45T186 -6ZM239
711Q234 711 232 715T234 724L302 825Q309 835 319 835H379Q385 835 386 831T384 822L305 721Q297 711 287 711H239Z" />
<glyph unicode="&#xdb;" horiz-adv-x="416" d="M186 -6Q99 -6 64 49T45 212L115 644Q116 655 126 655H195Q206 655 204 644L135 211Q124 143 139 111T195 79Q234 79 255 109T288 211L357 644Q359 655 368 655H438Q448 655 446 644L376 209Q358 95 314 45T186 -6ZM213
718Q200 712 202 725L209 773Q210 778 211 781T217 785L302 822Q309 825 315 822L384 782Q388 780 390 777T392 768L384 725Q383 714 371 718L299 753L213 718Z" />
<glyph unicode="&#xdc;" horiz-adv-x="416" d="M186 -6Q99 -6 64 49T45 212L115 644Q116 655 126 655H195Q206 655 204 644L135 211Q124 143 139 111T195 79Q234 79 255 109T288 211L357 644Q359 655 368 655H438Q448 655 446 644L376 209Q358 95 314 45T186 -6ZM358
719Q335 719 323 731T314 767L316 777Q323 826 370 826Q394 826 405 814T413 777L412 767Q405 719 358 719ZM230 719Q207 719 196 731T187 767L188 777Q195 826 242 826Q266 826 278 814T286 777L284 767Q277 719 230 719Z" />
<glyph unicode="&#xdd;" horiz-adv-x="369" d="M121 0Q111 0 113 11L147 225L80 644Q78 655 89 655H164Q174 655 175 644L194 444Q198 415 200 385T204 325H205Q216 354 227 383T251 443L335 644Q339 655 347 655H427Q433 655 435 653T435 644L236 226L202 11Q200
0 191 0H121ZM212 711Q207 711 205 715T207 724L275 825Q282 835 292 835H352Q358 835 359 831T357 822L278 721Q270 711 260 711H212Z" />
<glyph unicode="&#xde;" horiz-adv-x="363" d="M26 0Q16 0 17 11L118 644Q120 655 129 655H198Q208 655 207 644L192 546H211Q290 545 329 509T369 393Q369 314 345 256T274 165T163 133H126L106 11Q105 0 96 0H26ZM140 217H168Q204 217 228 237T265 295T277 384Q277
426 259 444T204 463H178L140 217Z" />
<glyph unicode="&#xdf;" horiz-adv-x="368" d="M-28 -190L-61 -136Q-66 -129 -58 -122Q-37 -106 -24 -83T-2 -27T15 57L89 525Q103 611 137 650T242 689Q298 689 330 663T362 584Q362 541 350 509T322 451T294 402T282 351Q282 329 291 310T314 269T337 217T347
142Q347 102 335 69T296 15T226 -6Q169 -6 147 24T136 111Q139 121 146 121H195Q207 121 204 111Q201 92 206 80T227 68Q248 68 254 87T261 132Q261 167 251 193T228 242T206 289T196 343Q196 376 207 402T234 453T261 505T273 567Q273 587 262 597T234 608Q211
608 198 589T177 525L102 54Q95 4 85 -34T62 -102T29 -154T-17 -192Q-24 -196 -28 -190Z" />
<glyph unicode="&#xe0;" horiz-adv-x="347" d="M94 -6Q51 -6 32 25T24 128L58 344Q72 425 107 460T207 496Q249 496 284 489T355 477L298 123Q291 84 288 57T283 11Q283 0 273 0H215Q205 0 205 11Q205 20 206 32T209 57Q184 30 155 12T94 -6ZM140 76Q155 76 173
88T210 120L255 409Q243 413 231 414T206 416Q181 416 167 400T145 338L113 134Q108 103 114 90T140 76ZM230 812Q225 812 222 815T216 822L162 942Q160 947 162 950T168 953H231Q237 953 240 951T245 943L288 822Q289 818 287 815T280 812H230Z" />
<glyph unicode="&#xe1;" horiz-adv-x="347" d="M94 -6Q51 -6 32 25T24 128L58 344Q72 425 107 460T207 496Q249 496 284 489T355 477L298 123Q291 84 288 57T283 11Q283 0 273 0H215Q205 0 205 11Q205 20 206 32T209 57Q184 30 155 12T94 -6ZM140 76Q155 76 173
88T210 120L255 409Q243 413 231 414T206 416Q181 416 167 400T145 338L113 134Q108 103 114 90T140 76ZM184 812Q179 812 177 816T179 825L258 943Q265 953 275 953H335Q341 953 342 950T340 940L250 822Q242 812 231 812H184Z" />
<glyph unicode="&#xe2;" horiz-adv-x="347" d="M94 -6Q51 -6 32 25T24 128L58 344Q72 425 107 460T207 496Q249 496 284 489T355 477L298 123Q291 84 288 57T283 11Q283 0 273 0H215Q205 0 205 11Q205 20 206 32T209 57Q184 30 155 12T94 -6ZM140 76Q155 76 173
88T210 120L255 409Q243 413 231 414T206 416Q181 416 167 400T145 338L113 134Q108 103 114 90T140 76ZM161 813Q155 811 152 812T149 819L156 868Q157 873 158 876T165 881L242 920Q249 924 255 920L317 878Q326 872 325 863L317 820Q315 807 304 813L241 851L161
813Z" />
<glyph unicode="&#xe3;" horiz-adv-x="347" d="M94 -6Q51 -6 32 25T24 128L58 344Q72 425 107 460T207 496Q249 496 284 489T355 477L298 123Q291 84 288 57T283 11Q283 0 273 0H215Q205 0 205 11Q205 20 206 32T209 57Q184 30 155 12T94 -6ZM140 76Q155 76 173
88T210 120L255 409Q243 413 231 414T206 416Q181 416 167 400T145 338L113 134Q108 103 114 90T140 76ZM266 820Q251 820 241 824T222 832T202 836Q191 836 183 834T163 826Q157 822 154 825T151 835L158 876Q160 886 166 891Q176 898 188 902T214 907Q230 907
240 903T258 895T278 891Q288 891 297 893T316 901Q322 905 326 902T329 892L321 851Q319 840 313 836Q304 829 292 825T266 820Z" />
<glyph unicode="&#xe4;" horiz-adv-x="347" d="M94 -6Q51 -6 32 25T24 128L58 344Q72 425 107 460T207 496Q249 496 284 489T355 477L298 123Q291 84 288 57T283 11Q283 0 273 0H215Q205 0 205 11Q205 20 206 32T209 57Q184 30 155 12T94 -6ZM140 76Q155 76 173
88T210 120L255 409Q243 413 231 414T206 416Q181 416 167 400T145 338L113 134Q108 103 114 90T140 76ZM299 827Q276 827 264 839T255 876L257 886Q264 935 311 935Q335 935 346 923T355 886L353 875Q346 827 299 827ZM171 827Q148 827 137 839T128 876L129 886Q137
935 183 935Q208 935 219 923T227 886L226 875Q218 827 171 827Z" />
<glyph unicode="&#xe5;" horiz-adv-x="347" d="M94 -6Q51 -6 32 25T24 128L58 344Q72 425 107 460T207 496Q249 496 284 489T355 477L298 123Q291 84 288 57T283 11Q283 0 273 0H215Q205 0 205 11Q205 20 206 32T209 57Q184 30 155 12T94 -6ZM140 76Q155 76 173
88T210 120L255 409Q243 413 231 414T206 416Q181 416 167 400T145 338L113 134Q108 103 114 90T140 76ZM236 808Q201 808 181 828T160 882Q160 931 184 958T251 986Q286 986 306 967T327 912Q327 864 303 836T236 808ZM239 856Q255 856 263 869T271 908Q271 938
247 938Q232 938 224 924T216 885Q216 856 239 856Z" />
<glyph unicode="&#xe6;" horiz-adv-x="505" d="M95 -6Q58 -6 37 22T15 97Q15 177 53 223T174 279L219 284L229 346Q236 386 228 403T196 420Q174 420 163 405T151 358Q151 348 140 348H80Q69 348 69 358Q72 425 106 460T200 496Q237 496 258 484T292 444Q310 470
336 483T396 496Q448 496 475 469T503 389Q503 320 466 278T356 228L297 222L285 150Q273 71 327 71Q350 71 363 86T380 131Q381 141 390 141H453Q464 141 462 131Q455 60 419 27T317 -6Q275 -6 248 11T207 61Q178 25 152 10T95 -6ZM132 71Q161 71 197 116Q196
128 197 140T200 166L208 219L180 215Q142 211 122 185T102 118Q102 71 132 71ZM307 289L342 292Q379 297 398 317T417 375Q417 419 378 419Q352 419 338 402T316 344L307 289Z" />
<glyph unicode="&#xe7;" horiz-adv-x="338" d="M148 -6Q77 -6 47 38T30 166L57 335Q71 419 108 457T214 496Q283 496 315 452T330 336Q327 325 319 325H258Q247 325 248 336Q256 374 246 394T208 414Q182 414 168 396T145 327L118 161Q111 117 120 97T157 76Q186
76 200 95T219 155Q221 166 230 166H291Q302 166 301 155Q293 74 256 34T148 -6ZM109 64Q88 64 72 67Q62 70 63 79L68 113Q70 124 79 122Q84 121 89 121T99 120Q123 120 127 147L129 159Q131 172 126 178T107 185H100Q90 185 91 196Q92 206 96 213L126 281Q131
292 139 292H175Q188 292 182 280L153 221H156Q178 221 189 205T195 161L191 140Q184 100 165 82T109 64Z" />
<glyph unicode="&#xe8;" d="M147 -6Q77 -6 47 38T30 165L56 333Q70 419 107 457T215 496Q273 496 304 468T336 386Q336 319 300 277T189 223L125 214L115 156Q109 112 118 92T156 71Q182 71 196 86T213 131Q214 141 224 141H287Q298 141 296 131Q289 62 253 28T147
-6ZM136 284L172 289Q211 296 230 318T250 374Q250 419 207 419Q180 419 166 401T145 336L136 284ZM229 557Q224 557 221 560T215 567L161 687Q159 692 161 695T167 698H230Q236 698 239 696T244 688L287 567Q288 563 286 560T279 557H229Z" />
<glyph unicode="&#xe9;" d="M147 -6Q77 -6 47 38T30 165L56 333Q70 419 107 457T215 496Q273 496 304 468T336 386Q336 319 300 277T189 223L125 214L115 156Q109 112 118 92T156 71Q182 71 196 86T213 131Q214 141 224 141H287Q298 141 296 131Q289 62 253 28T147
-6ZM136 284L172 289Q211 296 230 318T250 374Q250 419 207 419Q180 419 166 401T145 336L136 284ZM184 557Q179 557 177 561T179 570L258 688Q265 698 275 698H335Q341 698 342 695T340 685L250 567Q242 557 231 557H184Z" />
<glyph unicode="&#xea;" d="M147 -6Q77 -6 47 38T30 165L56 333Q70 419 107 457T215 496Q273 496 304 468T336 386Q336 319 300 277T189 223L125 214L115 156Q109 112 118 92T156 71Q182 71 196 86T213 131Q214 141 224 141H287Q298 141 296 131Q289 62 253 28T147
-6ZM136 284L172 289Q211 296 230 318T250 374Q250 419 207 419Q180 419 166 401T145 336L136 284ZM161 558Q155 556 152 557T149 564L156 613Q157 618 158 621T165 626L242 665Q249 669 255 665L317 623Q326 617 325 608L317 565Q315 552 304 558L241 596L161
558Z" />
<glyph unicode="&#xeb;" d="M147 -6Q77 -6 47 38T30 165L56 333Q70 419 107 457T215 496Q273 496 304 468T336 386Q336 319 300 277T189 223L125 214L115 156Q109 112 118 92T156 71Q182 71 196 86T213 131Q214 141 224 141H287Q298 141 296 131Q289 62 253 28T147
-6ZM136 284L172 289Q211 296 230 318T250 374Q250 419 207 419Q180 419 166 401T145 336L136 284ZM299 572Q276 572 264 584T255 621L257 631Q264 680 311 680Q335 680 346 668T355 631L353 620Q346 572 299 572ZM171 572Q148 572 137 584T128 621L129 631Q137
680 183 680Q208 680 219 668T227 631L226 620Q218 572 171 572Z" />
<glyph unicode="&#xec;" horiz-adv-x="167" d="M21 0Q10 0 11 11L86 479Q88 490 97 490H165Q170 490 173 488T174 479L99 11Q98 0 89 0H21ZM397 557Q392 557 389 560T383 567L329 687Q327 692 329 695T335 698H398Q404 698 407 696T412 688L455 567Q456 563 454
560T447 557H397Z" />
<glyph unicode="&#xed;" horiz-adv-x="167" d="M21 0Q10 0 11 11L86 479Q88 490 97 490H165Q170 490 173 488T174 479L99 11Q98 0 89 0H21ZM351 557Q346 557 344 561T346 570L425 688Q432 698 442 698H502Q508 698 509 695T507 685L417 567Q409 557 398 557H351Z" />
<glyph unicode="&#xee;" horiz-adv-x="167" d="M21 0Q10 0 11 11L86 479Q88 490 97 490H165Q170 490 173 488T174 479L99 11Q98 0 89 0H21ZM328 558Q322 556 319 557T316 564L323 613Q324 618 325 621T332 626L409 665Q416 669 422 665L484 623Q493 617 492 608L484
565Q482 552 471 558L408 596L328 558Z" />
<glyph unicode="&#xef;" horiz-adv-x="167" d="M21 0Q10 0 11 11L86 479Q88 490 97 490H165Q170 490 173 488T174 479L99 11Q98 0 89 0H21ZM467 572Q444 572 432 584T423 621L425 631Q432 680 479 680Q503 680 514 668T523 631L521 620Q514 572 467 572ZM339 572Q316
572 305 584T296 621L297 631Q305 680 351 680Q376 680 387 668T395 631L394 620Q386 572 339 572Z" />
<glyph unicode="&#xf0;" horiz-adv-x="350" d="M152 -6Q82 -6 49 36T30 162L55 319Q67 394 97 427T177 460Q210 460 235 445T276 407L265 329Q253 350 235 365T195 380Q173 380 161 366T142 313L117 162Q110 117 121 97T161 76Q189 76 203 94T225 159L258 364Q276
467 261 530T182 624Q177 626 176 630T179 638L215 685Q218 689 221 690T228 689Q310 657 338 577T347 370L313 157Q300 74 261 34T152 -6ZM185 522Q179 518 176 523L159 553Q155 559 163 563L345 678Q350 681 354 675L369 646Q372 641 366 637L185 522Z" />
<glyph unicode="&#xf1;" horiz-adv-x="357" d="M211 0Q200 0 202 11L257 354Q262 387 256 400T230 414Q212 414 192 401T150 363L147 420Q177 456 210 476T276 496Q322 496 339 464T345 361L290 11Q288 0 279 0H211ZM21 0Q10 0 11 11L68 367Q74 406 78 433T83
479Q83 490 93 490H151Q160 490 160 479Q160 460 157 434T152 391L157 376L99 11Q98 0 89 0H21ZM275 820Q260 820 250 824T231 832T211 836Q200 836 192 834T172 826Q166 822 163 825T160 835L167 876Q169 886 175 891Q185 898 197 902T223 907Q239 907 249 903T267
895T287 891Q297 891 306 893T325 901Q331 905 335 902T338 892L330 851Q328 840 322 836Q313 829 301 825T275 820Z" />
<glyph unicode="&#xf2;" horiz-adv-x="349" d="M151 -6Q82 -6 49 36T29 162L56 334Q70 417 109 456T217 496Q286 496 319 454T339 328L313 157Q300 74 261 34T151 -6ZM161 76Q188 76 202 94T224 159L250 328Q258 374 248 394T207 414Q179 414 166 396T145 330L117
162Q110 117 120 97T161 76ZM230 557Q225 557 222 560T216 567L162 687Q160 692 162 695T168 698H231Q237 698 240 696T245 688L288 567Q289 563 287 560T280 557H230Z" />
<glyph unicode="&#xf3;" horiz-adv-x="349" d="M151 -6Q82 -6 49 36T29 162L56 334Q70 417 109 456T217 496Q286 496 319 454T339 328L313 157Q300 74 261 34T151 -6ZM161 76Q188 76 202 94T224 159L250 328Q258 374 248 394T207 414Q179 414 166 396T145 330L117
162Q110 117 120 97T161 76ZM184 557Q179 557 177 561T179 570L258 688Q265 698 275 698H335Q341 698 342 695T340 685L250 567Q242 557 231 557H184Z" />
<glyph unicode="&#xf4;" horiz-adv-x="349" d="M151 -6Q82 -6 49 36T29 162L56 334Q70 417 109 456T217 496Q286 496 319 454T339 328L313 157Q300 74 261 34T151 -6ZM161 76Q188 76 202 94T224 159L250 328Q258 374 248 394T207 414Q179 414 166 396T145 330L117
162Q110 117 120 97T161 76ZM161 558Q155 556 152 557T149 564L156 613Q157 618 158 621T165 626L242 665Q249 669 255 665L317 623Q326 617 325 608L317 565Q315 552 304 558L241 596L161 558Z" />
<glyph unicode="&#xf5;" horiz-adv-x="349" d="M151 -6Q82 -6 49 36T29 162L56 334Q70 417 109 456T217 496Q286 496 319 454T339 328L313 157Q300 74 261 34T151 -6ZM161 76Q188 76 202 94T224 159L250 328Q258 374 248 394T207 414Q179 414 166 396T145 330L117
162Q110 117 120 97T161 76ZM267 565Q252 565 242 569T223 577T203 581Q192 581 184 579T164 571Q158 567 155 570T152 580L159 621Q161 631 167 636Q177 643 189 647T215 652Q231 652 241 648T259 640T279 636Q289 636 298 638T317 646Q323 650 327 647T330 637L322
596Q320 585 314 581Q305 574 293 570T267 565Z" />
<glyph unicode="&#xf6;" horiz-adv-x="349" d="M151 -6Q82 -6 49 36T29 162L56 334Q70 417 109 456T217 496Q286 496 319 454T339 328L313 157Q300 74 261 34T151 -6ZM161 76Q188 76 202 94T224 159L250 328Q258 374 248 394T207 414Q179 414 166 396T145 330L117
162Q110 117 120 97T161 76ZM300 572Q277 572 265 584T256 621L258 631Q265 680 312 680Q336 680 347 668T356 631L354 620Q347 572 300 572ZM172 572Q149 572 138 584T129 621L130 631Q138 680 184 680Q209 680 220 668T228 631L227 620Q219 572 172 572Z" />
<glyph unicode="&#xf7;" horiz-adv-x="420" d="M108 262Q97 262 97 272V329Q97 339 108 339H353Q363 339 363 329V272Q363 262 353 262H108ZM231 109Q209 109 198 121T187 154V170Q187 190 198 202T231 215Q253 215 264 203T275 170V154Q275 134 264 122T231 109ZM231
385Q209 385 198 397T187 430V446Q187 467 198 479T231 492Q253 492 264 480T275 446V430Q275 410 264 398T231 385Z" />
<glyph unicode="&#xf8;" horiz-adv-x="349" d="M-12 -51Q-17 -51 -18 -48T-16 -40L52 80L86 118L259 427L271 460L313 532Q317 540 324 540H378Q383 540 384 538T383 530L320 419L285 380L110 69L95 29L54 -43Q50 -51 42 -51H-12ZM151 -6Q82 -6 49 36T29 162L56
334Q70 417 109 456T217 496Q286 496 319 454T339 328L313 157Q300 74 261 34T151 -6ZM161 76Q188 76 202 94T224 159L250 328Q258 374 248 394T207 414Q179 414 166 396T145 330L117 162Q110 117 120 97T161 76Z" />
<glyph unicode="&#xf9;" horiz-adv-x="350" d="M99 -6Q57 -6 38 25T30 128L86 479Q88 490 96 490H164Q175 490 174 479L119 134Q113 102 119 89T145 76Q163 76 183 91T224 130L228 74Q200 39 169 17T99 -6ZM218 0Q208 0 208 11Q209 30 212 56T217 99L212 114L270
479Q272 490 281 490H349Q360 490 358 479L302 123Q295 85 292 58T287 11Q287 0 276 0H218ZM224 557Q219 557 216 560T210 567L156 687Q154 692 156 695T162 698H225Q231 698 234 696T239 688L282 567Q283 563 281 560T274 557H224Z" />
<glyph unicode="&#xfa;" horiz-adv-x="350" d="M99 -6Q57 -6 38 25T30 128L86 479Q88 490 96 490H164Q175 490 174 479L119 134Q113 102 119 89T145 76Q163 76 183 91T224 130L228 74Q200 39 169 17T99 -6ZM218 0Q208 0 208 11Q209 30 212 56T217 99L212 114L270
479Q272 490 281 490H349Q360 490 358 479L302 123Q295 85 292 58T287 11Q287 0 276 0H218ZM179 557Q174 557 172 561T174 570L253 688Q260 698 270 698H330Q336 698 337 695T335 685L245 567Q237 557 226 557H179Z" />
<glyph unicode="&#xfb;" horiz-adv-x="350" d="M99 -6Q57 -6 38 25T30 128L86 479Q88 490 96 490H164Q175 490 174 479L119 134Q113 102 119 89T145 76Q163 76 183 91T224 130L228 74Q200 39 169 17T99 -6ZM218 0Q208 0 208 11Q209 30 212 56T217 99L212 114L270
479Q272 490 281 490H349Q360 490 358 479L302 123Q295 85 292 58T287 11Q287 0 276 0H218ZM156 558Q150 556 147 557T144 564L151 613Q152 618 153 621T160 626L237 665Q244 669 250 665L312 623Q321 617 320 608L312 565Q310 552 299 558L236 596L156 558Z" />
<glyph unicode="&#xfc;" horiz-adv-x="350" d="M99 -6Q57 -6 38 25T30 128L86 479Q88 490 96 490H164Q175 490 174 479L119 134Q113 102 119 89T145 76Q163 76 183 91T224 130L228 74Q200 39 169 17T99 -6ZM218 0Q208 0 208 11Q209 30 212 56T217 99L212 114L270
479Q272 490 281 490H349Q360 490 358 479L302 123Q295 85 292 58T287 11Q287 0 276 0H218ZM294 572Q271 572 259 584T250 621L252 631Q259 680 306 680Q330 680 341 668T350 631L348 620Q341 572 294 572ZM166 572Q143 572 132 584T123 621L124 631Q132 680 178
680Q203 680 214 668T222 631L221 620Q213 572 166 572Z" />
<glyph unicode="&#xfd;" horiz-adv-x="334" d="M35 -185Q30 -185 29 -182T28 -174L97 4L62 479Q62 485 64 487T72 490H143Q153 490 153 479L158 263Q159 231 159 198T157 131H159Q168 164 178 197T199 263L272 479Q276 490 284 490H358Q363 490 365 488T365 479L115
-174Q110 -185 103 -185H35ZM180 557Q175 557 173 561T175 570L254 688Q261 698 271 698H331Q337 698 338 695T336 685L246 567Q238 557 227 557H180Z" />
<glyph unicode="&#xfe;" horiz-adv-x="348" d="M-8 -185Q-20 -185 -18 -174L116 672Q118 683 127 683H195Q200 683 202 681T204 672L70 -174Q69 -185 59 -185H-8ZM185 -6Q162 -6 136 1T90 21L102 95Q117 85 132 79T163 73Q186 73 199 91T219 153L252 356Q257 386
251 400T227 414Q209 414 188 399T144 358L143 417Q176 456 208 476T273 496Q318 496 335 464T341 363L307 150Q294 67 265 31T185 -6Z" />
<glyph unicode="&#xff;" horiz-adv-x="334" d="M35 -185Q30 -185 29 -182T28 -174L97 4L62 479Q62 485 64 487T72 490H143Q153 490 153 479L158 263Q159 231 159 198T157 131H159Q168 164 178 197T199 263L272 479Q276 490 284 490H358Q363 490 365 488T365 479L115
-174Q110 -185 103 -185H35ZM295 572Q272 572 260 584T251 621L253 631Q260 680 307 680Q331 680 342 668T351 631L349 620Q342 572 295 572ZM167 572Q144 572 133 584T124 621L125 631Q133 680 179 680Q204 680 215 668T223 631L222 620Q214 572 167 572Z" />
<glyph unicode="&#x2013;" horiz-adv-x="450" d="M45 230Q35 230 37 240L44 291Q46 302 56 302H424Q435 302 432 291L424 240Q422 230 412 230H45Z" />
<glyph unicode="&#x2014;" horiz-adv-x="535" d="M45 230Q35 230 37 240L44 291Q46 302 56 302H509Q520 302 518 291L509 240Q508 230 497 230H45Z" />
<glyph unicode="&#x2018;" horiz-adv-x="175" d="M211 655Q220 655 216 644L136 406Q133 397 124 397H39Q35 397 33 400T33 409L138 647Q141 655 149 655H211Z" />
<glyph unicode="&#x2019;" horiz-adv-x="191" d="M57 397Q49 397 52 407L132 645Q136 655 144 655H229Q235 655 236 652T235 643L131 405Q127 397 120 397H57Z" />
<glyph unicode="&#x201a;" horiz-adv-x="190" d="M-28 -137Q-36 -137 -33 -127L47 111Q51 121 59 121H144Q150 121 151 118T150 109L46 -129Q42 -137 35 -137H-28Z" />
<glyph unicode="&#x201c;" horiz-adv-x="323" d="M359 655Q368 655 364 644L284 406Q281 397 272 397H187Q183 397 181 400T181 409L286 647Q289 655 297 655H359ZM211 655Q220 655 216 644L136 406Q133 397 124 397H39Q35 397 33 400T33 409L138 647Q141 655
149 655H211Z" />
<glyph unicode="&#x201d;" d="M57 397Q49 397 52 407L132 645Q136 655 144 655H229Q235 655 236 652T235 643L131 405Q127 397 120 397H57ZM205 397Q197 397 200 407L280 645Q284 655 292 655H377Q383 655 384 652T383 643L279 405Q275 397 268 397H205Z" />
<glyph unicode="&#x201e;" horiz-adv-x="338" d="M-28 -137Q-36 -137 -33 -127L47 111Q51 121 59 121H144Q150 121 151 118T150 109L46 -129Q42 -137 35 -137H-28ZM120 -137Q112 -137 115 -127L195 111Q199 121 207 121H292Q298 121 299 118T298 109L194 -129Q190
-137 183 -137H120Z" />
<glyph unicode="&#x2022;" horiz-adv-x="226" d="M113 176Q79 176 62 196T50 250L55 288Q67 356 137 356Q173 356 190 337T202 283L196 245Q186 176 113 176Z" />
<glyph unicode="&#x2039;" horiz-adv-x="223" d="M104 91Q98 91 96 97L43 256Q41 263 45 270L144 428Q148 436 155 436H224Q229 436 230 433T228 424L129 263L177 102Q181 91 170 91H104Z" />
<glyph unicode="&#x203a;" horiz-adv-x="218" d="M140 436Q147 436 149 429L201 270Q203 262 199 256L100 98Q96 91 89 91H20Q15 91 14 94T16 102L115 264L67 424Q66 430 68 433T74 436H140Z" />
</font>
</defs>
</svg>
