<?xml version="1.0" standalone="no"?>
<!DOCTYPE svg PUBLIC "-//W3C//DTD SVG 1.1//EN" "http://www.w3.org/Graphics/SVG/1.1/DTD/svg11.dtd">
<svg xmlns="http://www.w3.org/2000/svg">
<defs >
<font id="SofiaSans" horiz-adv-x="481" ><font-face
    font-family="Sofia Sans Light"
    units-per-em="1000"
    panose-1="0 0 0 0 0 0 0 0 0 0"
    ascent="900"
    descent="-300"
    alphabetic="0" />
<glyph unicode=" " horiz-adv-x="230" />
<glyph unicode="!" horiz-adv-x="211" d="M87 182Q80 182 81 190L149 648Q151 655 157 655H201Q209 655 207 648L131 189Q130 182 123 182H87ZM76 -12Q59 -12 49 -3T42 22L45 41Q48 56 58 64T85 72Q103 72 113 63T120 37L117 18Q114 3 104 -4T76 -12Z" />
<glyph unicode="&quot;" horiz-adv-x="306" d="M241 429Q234 429 236 437L274 676Q275 683 282 683H321Q328 683 327 676L288 437Q287 429 281 429H241ZM101 429Q94 429 96 437L134 676Q135 683 142 683H181Q188 683 187 676L148 437Q147 429 140 429H101Z" />
<glyph unicode="#" horiz-adv-x="575" d="M104 0Q96 0 97 7L117 129H33Q25 129 27 137L32 168Q33 175 40 175H124L166 438H81Q74 438 75 445L80 477Q82 484 88 484H173L192 606Q194 613 201 613H239Q247 613 245 606L226 484H442L462 606Q463 613 470 613H509Q516
613 515 606L495 484H579Q587 484 585 476L580 445Q579 438 572 438H488L446 175H531Q539 175 537 168L532 136Q530 129 523 129H439L419 7Q418 0 412 0H372Q365 0 367 7L386 129H170L150 7Q149 0 142 0H104ZM177 175H393L434 438H219L177 175Z" />
<glyph unicode="$" horiz-adv-x="588" d="M267 -12Q200 -12 157 9T98 72T95 175Q96 182 102 182H141Q148 182 147 175Q133 103 163 70T274 36Q354 36 395 72T437 176Q437 214 418 240T357 289L252 345Q205 371 181 404T156 492Q156 545 180 584T251 644T360 666Q426
666 467 644T525 581T531 484Q530 477 524 477H485Q478 477 479 484Q489 551 459 584T356 618Q288 618 249 585T210 496Q210 458 229 434T286 388L391 332Q440 306 465 271T491 185Q491 86 432 37T267 -12ZM237 -89Q230 -89 231 -82L244 0L294 3L280 -82Q278 -89
272 -89H237ZM348 653L361 735Q362 742 369 742H403Q410 742 409 735L396 651L348 653Z" />
<glyph unicode="%" horiz-adv-x="939" d="M278 0Q268 0 273 8L468 337L651 651Q655 656 659 656H701Q711 656 706 648L519 333L328 5Q324 0 319 0H278ZM254 317Q176 317 135 358T94 474V510Q94 585 135 626T254 667Q332 667 373 626T414 510V474Q414 400 373 359T254
317ZM254 360Q312 360 338 389T365 475V509Q365 566 339 595T254 624Q197 624 170 595T142 509V475Q142 418 169 389T254 360ZM725 -12Q646 -12 606 29T565 145V181Q565 256 606 297T725 338Q803 338 844 297T885 181V145Q885 71 844 30T725 -12ZM725 31Q782 31
809 60T837 146V180Q837 237 810 266T725 295Q668 295 641 266T613 180V146Q613 89 640 60T725 31Z" />
<glyph unicode="&amp;" horiz-adv-x="634" d="M225 -12Q140 -12 96 28T51 129Q51 179 71 220T127 297T214 367Q181 411 166 446T151 518Q151 586 193 626T311 667Q366 667 400 638T434 559Q434 516 414 483T361 421T286 364L461 155Q486 193 501 241T519 345Q521
351 527 351H566Q573 351 571 344Q566 276 547 218T495 116L586 8Q589 6 588 3T581 0H526Q520 0 518 4L459 74Q415 33 357 11T225 -12ZM234 37Q294 37 343 56T428 111L241 333Q173 287 138 240T103 133Q103 89 137 63T234 37ZM258 397Q292 421 320 444T364 494T381
551Q381 583 362 601T305 620Q257 620 230 592T203 521Q203 488 216 460T258 397Z" />
<glyph unicode="&apos;" horiz-adv-x="165" d="M101 429Q94 429 96 437L134 676Q135 683 142 683H181Q188 683 187 676L148 437Q147 429 140 429H101Z" />
<glyph unicode="(" horiz-adv-x="262" d="M128 -140Q100 -114 84 -87T63 -26T65 52L140 525Q146 566 161 597T200 652T255 697Q258 699 260 699T264 697L287 669Q291 663 286 659Q260 639 241 619T210 574T191 510L117 45Q112 8 116 -17T134 -62T165 -104Q168
-109 163 -114L137 -140Q135 -143 133 -143T128 -140Z" />
<glyph unicode=")" horiz-adv-x="262" d="M32 -140L9 -113Q7 -110 7 -108T10 -103Q35 -81 54 -62T87 -17T106 46L179 511Q186 549 181 574T164 619T132 660Q128 665 133 670L160 697Q162 699 164 699T169 697Q198 671 214 644T235 583T232 506L156 33Q152 2 142
-22T116 -66T82 -105T42 -140Q39 -143 37 -143T32 -140Z" />
<glyph unicode="*" horiz-adv-x="411" d="M181 429L157 451Q155 454 155 456T157 461L240 543L132 586Q129 588 128 590T129 595L142 624Q143 627 146 628T152 627L253 572L259 689Q259 696 266 695L297 692Q305 691 303 683L285 568L396 601Q400 602 402 601T405
596L412 566Q413 561 412 560T407 557L291 537L356 440Q358 437 358 435T353 431L325 414Q323 413 321 413T317 417L263 520L190 430Q188 427 186 427T181 429Z" />
<glyph unicode="+" horiz-adv-x="600" d="M302 118Q295 118 295 125V278H127Q120 278 120 284V317Q120 324 127 324H295V476Q295 483 302 483H338Q345 483 345 476V324H513Q520 324 520 317V284Q520 278 513 278H345V125Q345 118 338 118H302Z" />
<glyph unicode="," horiz-adv-x="214" d="M-7 -137Q-15 -137 -11 -128L78 91Q81 97 87 97H132Q142 97 138 88L34 -131Q31 -137 26 -137H-7Z" />
<glyph unicode="-" horiz-adv-x="479" d="M87 244Q80 244 81 252L86 280Q88 287 95 287H408Q415 287 413 280L409 251Q407 244 401 244H87Z" />
<glyph unicode="." horiz-adv-x="214" d="M89 -12Q72 -12 62 -3T54 22L58 41Q63 72 98 72Q116 72 126 63T133 37L130 18Q125 -12 89 -12Z" />
<glyph unicode="/" horiz-adv-x="345" d="M-8 0Q-11 0 -13 2T-13 7L350 650Q353 655 359 655H397Q406 655 402 648L39 5Q37 0 30 0H-8Z" />
<glyph unicode="0" horiz-adv-x="573" d="M259 -12Q160 -12 112 46T81 213L118 451Q136 561 198 614T359 667Q457 667 505 610T536 446L499 203Q482 95 420 42T259 -12ZM266 37Q338 37 385 79T445 199L484 450Q497 532 461 575T352 618Q279 618 232 577T173 455L133
208Q121 125 156 81T266 37Z" />
<glyph unicode="1" horiz-adv-x="444" d="M24 0Q17 0 19 8L24 42Q26 50 32 50H194L280 594L114 538Q105 536 106 543L112 579Q114 585 119 587L323 657Q326 659 328 659T332 659H338Q343 659 342 652L247 50H392Q399 50 398 42L392 8Q391 0 383 0H24Z" />
<glyph unicode="2" horiz-adv-x="524" d="M52 0Q44 0 46 7L53 53Q63 113 90 156T154 232T232 291T313 342T385 391T437 449T457 525Q457 573 429 595T339 618Q265 618 226 587T182 495Q181 487 175 487H135Q128 487 129 494Q134 549 159 587T231 646T345 667Q433
667 471 633T510 526Q510 475 491 437T438 371T365 318T284 268T206 213T143 144T108 50H435Q442 50 441 43L435 7Q434 0 427 0H52Z" />
<glyph unicode="3" horiz-adv-x="538" d="M236 -12Q136 -12 93 32T62 163Q62 170 69 170H108Q111 170 113 169T114 163Q106 99 136 68T241 37Q314 37 361 71T416 171L418 187Q427 253 394 282T286 312H206Q199 312 200 319L205 353Q206 360 213 360H294Q338 360
372 376T427 422T452 492L454 509Q460 562 430 590T331 618Q256 618 219 588T172 494Q171 487 165 487H126Q118 487 119 494Q132 576 184 621T336 667Q422 667 465 632T508 524Q508 480 492 443T445 380T374 340V339Q423 325 448 293T473 208Q473 102 409 45T236
-12Z" />
<glyph unicode="4" horiz-adv-x="522" d="M328 0Q321 0 323 7L343 138H13Q6 138 7 145L8 150Q8 152 9 155T12 160L357 650Q360 655 366 655H410Q413 655 414 653T414 647L90 188H351L388 420Q390 427 397 427H433Q441 427 440 420L402 188H488Q496 188 494 180L489
146Q487 138 480 138H395L374 7Q372 0 366 0H328Z" />
<glyph unicode="5" horiz-adv-x="513" d="M221 -12Q128 -12 83 32T53 163Q55 170 60 170H99Q102 170 104 169T105 163Q96 97 125 67T222 37Q295 37 345 76T403 193L405 211Q414 285 385 322T277 360Q238 360 198 351T113 325Q107 322 104 324T102 333L182 648Q184
655 189 655H485Q493 655 491 648L485 613Q484 605 477 605H222L167 385Q201 396 234 401T298 407Q381 407 421 367T462 252Q462 171 435 112T354 20T221 -12Z" />
<glyph unicode="6" horiz-adv-x="552" d="M356 667Q438 667 486 633T523 530Q522 523 516 523H476Q470 523 471 530Q474 561 460 580T418 609T351 618Q270 618 226 580T169 462L149 338Q202 372 253 390T357 408Q428 408 463 372T498 265Q498 185 471 122T390
24T255 -12Q152 -12 105 42T75 203L116 462Q132 563 191 615T356 667ZM337 360Q288 360 239 340T142 290L127 203Q114 124 146 81T257 37Q310 37 347 58T408 116T439 202L442 217Q453 287 428 323T337 360Z" />
<glyph unicode="7" horiz-adv-x="503" d="M122 0Q118 0 117 2T118 8L477 605H175L159 503Q157 496 151 496H112Q105 496 106 503L129 648Q130 655 137 655H552Q559 655 558 648V642Q556 638 554 633L177 6Q174 0 167 0H122Z" />
<glyph unicode="8" horiz-adv-x="558" d="M250 -12Q158 -12 106 28T53 141Q53 219 96 275T215 352Q176 367 155 397T133 476Q133 529 159 572T234 641T351 667Q431 667 477 629T523 524Q523 480 508 445T465 386T394 349Q445 332 472 295T499 204Q499 134 469
86T382 13T250 -12ZM258 35Q339 35 386 68T442 165L444 177Q451 227 435 260T383 310T298 328Q220 328 171 289T111 182L108 170Q98 102 140 69T258 35ZM310 371Q376 371 417 402T466 489L468 500Q475 560 441 590T345 620Q279 620 239 589T190 503L188 491Q179
431 214 401T310 371Z" />
<glyph unicode="9" horiz-adv-x="557" d="M247 -12Q156 -12 110 27T76 143Q77 149 83 149H122Q129 149 128 143Q119 93 150 65T250 37Q330 37 374 76T433 199L451 313Q399 277 353 260T255 243Q180 243 141 283T102 397Q102 474 129 535T210 631T345 667Q450 667
496 610T526 453L486 201Q469 94 412 41T247 -12ZM270 291Q320 291 366 310T458 360L473 454Q487 535 454 576T342 618Q265 618 219 579T162 458L159 439Q150 371 173 331T270 291Z" />
<glyph unicode=":" horiz-adv-x="219" d="M89 -12Q72 -12 62 -3T54 22L58 41Q61 56 71 64T98 72Q116 72 126 63T133 37L130 18Q125 -12 89 -12ZM151 378Q134 378 124 387T117 412L120 431Q123 446 133 453T160 461Q178 461 188 452T195 427L192 408Q187 378 151 378Z" />
<glyph unicode=";" horiz-adv-x="218" d="M133 378Q116 378 106 387T98 412L102 431Q105 446 115 453T142 461Q160 461 170 452T177 427L174 408Q168 378 133 378ZM-25 -137Q-33 -137 -29 -128L60 91Q63 97 69 97H114Q124 97 120 88L16 -131Q13 -137 8 -137H-25Z" />
<glyph unicode="&lt;" horiz-adv-x="600" d="M514 113L123 273Q118 276 118 281V318Q118 323 123 325L514 486Q522 490 522 481V441Q522 435 517 433L174 300L517 166Q522 164 522 158V118Q522 109 514 113Z" />
<glyph unicode="=" horiz-adv-x="600" d="M127 366Q121 366 121 373V405Q121 412 127 412H513Q519 412 519 405V373Q519 366 513 366H127ZM127 191Q121 191 121 198V230Q121 237 127 237H513Q519 237 519 230V198Q519 191 513 191H127Z" />
<glyph unicode="&gt;" horiz-adv-x="600" d="M126 113Q118 109 118 118V158Q118 164 123 166L466 300L123 433Q118 435 118 441V481Q118 490 126 486L517 325Q522 323 522 318V281Q522 276 517 273L126 113Z" />
<glyph unicode="?" horiz-adv-x="452" d="M187 182Q179 182 180 189L189 243Q194 280 218 309T275 366T338 419T389 476T410 542Q410 584 381 602T299 620Q227 620 195 585T155 489Q155 483 148 483H109Q107 483 105 484T103 490Q111 575 160 621T303 667Q383
667 423 637T464 547Q464 502 443 467T391 404T326 349T269 296T239 236L231 189Q230 182 224 182H187ZM179 -12Q162 -12 152 -3T145 22L148 41Q151 56 161 64T188 72Q206 72 216 63T223 37L220 18Q217 3 207 -4T179 -12Z" />
<glyph unicode="@" horiz-adv-x="964" d="M412 -185Q280 -185 198 -141T84 -12T72 194L88 294Q107 417 166 507T322 646T552 695Q761 695 852 598T914 315L906 265Q894 193 864 139T786 55T676 25Q624 25 594 47T562 108Q520 73 472 49T377 25Q309 25 287 71T288
198L320 314Q344 395 396 437T529 480Q563 480 588 476T638 466T693 459Q702 458 700 450L617 165Q605 123 619 99T682 74Q747 74 792 126T853 268L861 318Q886 479 809 562T548 646Q437 646 352 604T213 481T141 288L125 188Q108 83 135 11T234 -98T420 -136H549Q556
-136 554 -143L549 -178Q547 -185 541 -185H412ZM398 73Q436 73 477 95T564 157Q566 161 567 166T569 175L638 417Q612 421 583 426T522 431Q468 431 430 403T371 305L341 197Q323 136 336 105T398 73Z" />
<glyph unicode="A" horiz-adv-x="540" d="M-18 0Q-22 0 -23 2T-23 7L306 648Q309 655 314 655H371Q377 655 379 648L506 8Q508 0 499 0H457Q451 0 450 7L359 483Q354 513 348 544T337 606H335Q321 575 306 545T275 482L33 6Q30 0 24 0H-18ZM105 170L126 218H422L429
170H105Z" />
<glyph unicode="B" horiz-adv-x="563" d="M70 0Q62 0 64 7L165 648Q166 655 173 655H337Q438 655 485 620T533 517Q533 448 496 404T395 344V343Q453 331 482 297T512 207Q512 135 481 89T389 22T244 0H70ZM123 48H249Q350 48 404 85T458 207Q458 261 420 288T306
316H166L123 48ZM173 361H307Q359 361 397 377T457 427T479 508Q479 560 443 584T324 608H212L173 361Z" />
<glyph unicode="C" horiz-adv-x="620" d="M296 -12Q178 -12 123 51T85 225L120 451Q137 559 200 613T378 667Q454 667 505 641T579 567T587 450Q586 443 580 443H541Q534 443 535 450Q549 530 508 574T372 618Q285 618 236 577T173 451L138 225Q123 135 165 86T300
37Q389 37 437 78T496 205Q496 212 503 212H542Q550 212 549 204Q543 134 512 86T427 13T296 -12Z" />
<glyph unicode="D" horiz-adv-x="624" d="M70 0Q62 0 64 7L165 648Q166 655 173 655H331Q482 655 545 584T585 365L574 294Q559 193 517 128T407 32T242 0H70ZM123 47H244Q365 47 432 104T520 291L532 367Q553 492 503 550T325 608H212L123 47Z" />
<glyph unicode="E" horiz-adv-x="530" d="M70 0Q62 0 64 7L165 648Q166 655 173 655H518Q521 655 523 654T524 648L518 612Q517 605 510 605H211L173 358H448Q456 358 454 351L449 317Q447 310 441 310H165L123 50H422Q430 50 428 42L422 7Q421 0 414 0H70Z" />
<glyph unicode="F" horiz-adv-x="502" d="M70 0Q62 0 64 7L165 648Q166 655 173 655H518Q521 655 523 654T524 648L518 612Q517 605 510 605H211L172 355H435Q443 355 441 347L435 314Q434 307 427 307H164L117 8Q115 0 108 0H70Z" />
<glyph unicode="G" horiz-adv-x="640" d="M278 -12Q210 -12 163 16T95 96T86 223L121 452Q138 560 200 613T377 667Q453 667 504 642T579 571T591 460Q590 453 583 453H544Q537 453 538 461Q549 537 506 577T372 618Q282 618 235 579T174 452L139 226Q124 135
165 86T290 37Q381 37 435 86T506 234L514 278H346Q339 278 340 286L346 320Q347 326 353 326H563Q572 326 570 319L541 133Q535 98 533 68T528 8Q528 0 521 0H489Q481 0 481 8Q482 27 484 52T490 101H489Q469 69 441 44T373 3T278 -12Z" />
<glyph unicode="H" horiz-adv-x="648" d="M70 0Q62 0 64 8L165 648Q166 655 173 655H211Q219 655 218 648L173 362H530L575 648Q577 655 584 655H622Q630 655 628 648L527 8Q525 0 519 0H480Q472 0 474 8L522 314H165L117 8Q115 0 109 0H70Z" />
<glyph unicode="I" horiz-adv-x="238" d="M70 0Q62 0 64 8L165 648Q166 655 173 655H212Q220 655 218 648L117 8Q115 0 109 0H70Z" />
<glyph unicode="J" horiz-adv-x="244" d="M-33 -141Q-42 -143 -43 -135L-47 -101Q-48 -93 -41 -91Q9 -80 38 -41T78 70L170 648Q172 655 179 655H217Q225 655 224 647L132 72Q117 -23 79 -74T-33 -141Z" />
<glyph unicode="K" horiz-adv-x="572" d="M70 0Q62 0 64 8L165 648Q166 655 173 655H212Q220 655 218 648L185 440Q179 403 174 366T161 290H162Q197 324 232 357T301 424L537 650Q541 655 547 655H602Q606 655 606 653T604 647L329 386L524 8Q525 5 524 3T519
0H472Q466 0 462 7L287 346L150 216L117 8Q115 0 108 0H70Z" />
<glyph unicode="L" horiz-adv-x="469" d="M70 0Q62 0 64 7L165 648Q166 655 173 655H212Q220 655 218 648L123 50H416Q424 50 423 42L417 7Q415 0 408 0H70Z" />
<glyph unicode="M" horiz-adv-x="749" d="M55 0Q47 0 48 8L165 648Q167 655 173 655H234Q238 655 239 654T242 648L379 210L653 648Q657 655 663 655H728Q736 655 735 647L649 8Q647 0 641 0H603Q595 0 596 8L658 467Q662 498 667 528T678 592H676Q659 561 641
532T604 472L372 108Q369 104 365 104H362Q357 104 356 108L239 474Q231 504 223 533T206 592H204Q200 561 196 531T185 469L101 8Q98 0 93 0H55Z" />
<glyph unicode="N" horiz-adv-x="652" d="M70 0Q62 0 64 8L165 648Q166 655 173 655H238Q241 655 243 653T246 648L408 246Q428 200 447 154T485 61H486Q494 107 501 153T515 245L579 648Q581 655 587 655H625Q634 655 632 648L530 7Q529 0 523 0H460Q453 0 451
6L294 393Q273 444 252 494T210 594H209Q201 542 193 490T176 386L116 8Q114 0 108 0H70Z" />
<glyph unicode="O" horiz-adv-x="629" d="M293 -12Q174 -12 121 52T85 225L121 453Q138 562 202 614T381 667Q501 667 554 604T589 430L553 202Q536 94 472 41T293 -12ZM298 37Q386 37 436 77T500 203L536 430Q551 521 510 569T376 618Q288 618 238 579T174 452L138
225Q123 134 165 86T298 37Z" />
<glyph unicode="P" horiz-adv-x="536" d="M70 0Q62 0 64 8L165 648Q166 655 174 655H325Q431 655 482 614T534 493Q534 417 503 365T413 287T269 260H157L117 8Q115 0 108 0H70ZM164 307H275Q377 307 429 352T481 489Q481 553 439 580T319 608H212L164 307Z" />
<glyph unicode="Q" horiz-adv-x="629" d="M373 -178Q335 -178 315 -157T291 -96T294 1Q295 8 302 8L339 12Q346 13 345 5Q336 -61 344 -94T389 -127Q399 -127 408 -126T425 -121Q429 -120 431 -121T433 -128L428 -161Q426 -167 419 -171Q410 -174 399 -176T373
-178ZM293 -12Q174 -12 121 52T85 225L121 453Q138 562 202 614T381 667Q501 667 554 604T589 430L553 202Q536 94 472 41T293 -12ZM298 37Q386 37 436 77T500 203L536 430Q551 521 510 569T376 618Q288 618 238 579T174 452L138 225Q123 134 165 86T298 37Z" />
<glyph unicode="R" horiz-adv-x="588" d="M70 0Q62 0 64 8L165 648Q166 655 174 655H353Q451 655 501 617T551 506Q551 422 506 368T378 297V296L506 9Q508 6 506 3T500 0H455Q448 0 446 6L320 290H161L117 8Q115 0 108 0H70ZM169 334H299Q392 334 444 375T497
503Q497 558 459 583T348 608H212L169 334Z" />
<glyph unicode="S" horiz-adv-x="549" d="M250 -12Q178 -12 130 7T63 68T55 174Q57 182 65 182H100Q109 182 107 174Q98 122 113 92T164 49T255 36Q345 36 390 68T435 166Q435 194 426 214T395 252T332 291L221 348Q182 368 159 389T126 436T115 498Q115 580 172
623T333 666Q401 666 448 647T516 588T528 485Q526 477 520 477H481Q475 477 475 485Q483 557 445 587T328 618Q252 618 211 589T169 503Q169 478 177 459T205 423T258 389L365 335Q411 312 438 288T478 235T490 169Q490 81 430 35T250 -12Z" />
<glyph unicode="T" horiz-adv-x="529" d="M216 0Q207 0 209 8L304 605H112Q110 605 108 607T106 613L112 648Q113 655 121 655H557Q561 655 562 654T563 648L557 612Q555 605 549 605H357L262 8Q260 0 254 0H216Z" />
<glyph unicode="U" horiz-adv-x="633" d="M292 -12Q179 -12 127 49T94 230L160 648Q162 655 169 655H207Q215 655 213 647L147 228Q132 134 167 86T295 37Q383 37 433 84T500 232L566 648Q567 655 574 655H613Q620 655 619 647L552 226Q539 147 506 94T420 15T292 -12Z" />
<glyph unicode="V" horiz-adv-x="561" d="M221 0Q215 0 214 6L92 647Q90 655 99 655H140Q146 655 147 649L234 189Q240 155 246 121T257 52H258Q274 86 291 120T325 189L559 650Q562 655 568 655H611Q615 655 616 653T615 648L288 6Q286 0 279 0H221Z" />
<glyph unicode="W" horiz-adv-x="832" d="M199 0Q192 0 191 6L102 648Q101 655 109 655H148Q155 655 156 648L219 187Q223 155 227 123T235 58H236Q251 89 265 121T294 184L448 509L432 637Q431 645 439 645H479Q485 645 486 638L542 187Q546 155 549 123T556
58H557Q566 79 575 99T593 141T611 182L820 649Q822 655 829 655H871Q880 655 876 648L588 6Q585 0 579 0H521Q514 0 514 6L472 321Q468 347 466 372T459 423H458Q447 397 436 372T412 321L263 6Q260 0 254 0H199Z" />
<glyph unicode="X" horiz-adv-x="531" d="M-16 0Q-20 0 -20 2T-18 9L254 338L95 647Q94 650 95 652T100 655H147Q150 655 152 654T155 650L249 467Q261 445 272 423T295 379H296Q315 402 333 424T370 469L522 651Q525 653 527 654T532 655H579Q583 655 584 653T583
647L326 336L493 8Q495 5 494 3T488 0H443Q440 0 438 1T434 4L336 197Q323 222 311 246T286 294H285Q264 270 244 246T203 197L44 5Q42 3 40 2T34 0H-16Z" />
<glyph unicode="Y" horiz-adv-x="514" d="M208 0Q200 0 201 8L236 225L87 647Q86 650 88 652T92 655H136Q142 655 144 648L226 410Q237 379 248 347T270 283H271Q291 315 311 347T353 410L513 649Q517 655 522 655H569Q572 655 573 653T572 647L289 225L254 8Q253
0 246 0H208Z" />
<glyph unicode="Z" horiz-adv-x="530" d="M3 0Q-3 0 -2 6V9Q-1 14 4 20L404 512Q422 535 441 558T479 604V605Q449 605 420 605T361 605H132Q129 605 127 607T126 613L132 648Q134 655 140 655H567Q574 655 573 649V646Q572 642 568 636L172 149Q152 124 132 100T90
51V50Q119 50 148 50T207 50H451Q454 50 456 48T457 42L451 7Q450 0 442 0H3Z" />
<glyph unicode="[" horiz-adv-x="265" d="M42 -142Q34 -142 36 -134L166 690Q168 697 175 697H345Q353 697 351 689L346 659Q345 651 338 651H213L94 -96H220Q227 -96 226 -103L220 -135Q219 -142 212 -142H42Z" />
<glyph unicode="\" horiz-adv-x="345" d="M255 0Q249 0 248 6L89 647Q86 655 96 655H134Q139 655 141 649L301 8Q302 0 293 0H255Z" />
<glyph unicode="]" horiz-adv-x="265" d="M-46 -142Q-54 -142 -52 -134L-47 -104Q-46 -96 -38 -96H86L204 651H79Q71 651 73 658L78 690Q80 697 86 697H257Q265 697 263 689L133 -135Q131 -142 124 -142H-46Z" />
<glyph unicode="^" horiz-adv-x="497" d="M95 350Q91 350 90 352T90 358L260 678Q263 683 268 683H307Q313 683 316 678L486 358Q488 355 487 353T481 350H441Q435 350 433 355L287 634L142 355Q140 350 134 350H95Z" />
<glyph unicode="_" horiz-adv-x="482" d="M-35 -106Q-43 -106 -41 -99L-37 -70Q-35 -63 -28 -63H431Q439 -63 438 -70L433 -99Q432 -106 425 -106H-35Z" />
<glyph unicode="`" horiz-adv-x="185" d="M175 559Q169 559 166 566L109 684Q108 687 109 689T114 691H158Q164 691 167 684L213 566Q215 559 207 559H175Z" />
<glyph unicode="a" horiz-adv-x="523" d="M176 -12Q126 -12 99 10T63 73T63 170L86 317Q102 414 155 455T299 496Q347 496 390 486T486 469L430 117Q425 85 422 58T418 7Q418 0 410 0H375Q369 0 369 7Q369 26 371 47T375 89Q322 38 273 13T176 -12ZM194 37Q235
37 278 61T380 138L426 430Q395 437 361 442T299 447Q230 447 191 416T139 312L116 169Q106 106 123 72T194 37Z" />
<glyph unicode="b" horiz-adv-x="524" d="M236 -12Q206 -12 178 -8T121 2T54 12L159 676Q161 683 168 683H206Q214 683 212 675L114 53Q144 47 176 42T237 37Q306 37 348 70T403 178L424 315Q435 383 415 415T346 447Q301 447 255 419T148 341L158 396Q211 443
260 469T361 496Q431 496 461 453T478 320L455 175Q445 111 417 70T344 8T236 -12Z" />
<glyph unicode="c" horiz-adv-x="499" d="M232 -12Q138 -12 94 38T65 180L86 315Q101 404 152 450T298 496Q354 496 393 478T450 427T460 347Q458 339 451 339H413Q406 339 407 347Q414 395 382 421T292 447Q223 447 186 413T138 309L119 182Q108 111 138 74T237
37Q300 37 332 63T374 140Q374 148 381 148H420Q428 148 426 139Q417 65 368 27T232 -12Z" />
<glyph unicode="d" horiz-adv-x="527" d="M179 -12Q109 -12 80 33T65 166L91 325Q104 407 153 451T285 496Q329 496 370 484T443 450L438 403Q400 426 362 436T287 447Q224 447 188 413T142 314L118 165Q108 102 127 70T197 37Q227 37 256 48T319 84T398 150L389
97Q349 60 314 36T246 0T179 -12ZM377 0Q370 0 370 7Q370 27 373 52T378 97L382 126L469 676Q471 683 477 683H515Q524 683 522 676L433 112Q428 80 426 53T423 8Q423 0 416 0H377Z" />
<glyph unicode="e" horiz-adv-x="500" d="M230 -12Q139 -12 95 37T64 177L86 315Q102 406 153 451T295 496Q374 496 415 464T457 373Q457 306 415 270T285 225L122 207L116 170Q107 105 138 71T235 37Q291 37 324 58T364 121Q365 129 372 129H412Q418 129 418
122Q415 81 392 51T327 4T230 -12ZM130 253L278 270Q345 278 373 301T402 370Q402 407 373 427T290 447Q224 447 187 414T139 317L130 253Z" />
<glyph unicode="f" horiz-adv-x="352" d="M211 484H371Q378 484 377 476L371 443Q370 436 363 436H204L141 41Q133 -12 119 -55T81 -133T22 -192Q18 -197 13 -191L-14 -167Q-19 -162 -13 -156Q16 -132 36 -104T69 -39T89 46L150 436H71Q64 436 65 443L70 477Q72
484 79 484H158L168 542Q180 620 219 657T334 695Q358 695 384 690T429 677Q435 674 434 668L429 634Q428 626 420 630Q400 638 379 642T333 647Q280 647 255 621T220 540L211 484Z" />
<glyph unicode="g" horiz-adv-x="527" d="M298 496Q347 496 391 486T489 469L411 -23Q402 -84 377 -122T308 -179T197 -197Q112 -197 74 -163T49 -66Q50 -59 57 -59H95Q103 -59 102 -67Q96 -109 120 -129T205 -149Q273 -149 310 -122T358 -26L381 115Q330 73 283
49T184 24Q114 24 85 68T69 202L88 322Q102 411 155 453T298 496ZM200 73Q245 73 289 98T389 169L430 430Q399 437 363 442T298 447Q233 447 193 417T140 312L123 205Q112 136 131 105T200 73Z" />
<glyph unicode="h" horiz-adv-x="546" d="M60 0Q52 0 54 8L159 676Q161 683 168 683H206Q214 683 212 676L107 8Q105 0 98 0H60ZM388 0Q380 0 382 7L432 326Q451 447 352 447Q322 447 291 435T224 396T147 332L155 384Q209 436 262 466T371 496Q437 496 468 455T486
329L435 7Q433 0 427 0H388Z" />
<glyph unicode="i" horiz-adv-x="218" d="M60 0Q52 0 54 8L128 476Q130 484 137 484H174Q183 484 182 476L107 8Q105 0 98 0H60ZM169 578Q150 578 142 588T136 616L137 624Q139 643 148 652T177 662Q197 662 204 652T211 624L210 616Q208 597 199 588T169 578Z" />
<glyph unicode="j" horiz-adv-x="218" d="M128 476Q130 484 137 484H175Q183 484 182 476L112 41Q104 -12 90 -55T52 -133T-7 -192Q-11 -196 -16 -191L-44 -166Q-46 -164 -46 -162T-42 -156Q-13 -132 6 -104T39 -39T60 46L128 476ZM169 578Q150 578 142 588T136
616L137 624Q139 643 148 652T177 662Q197 662 204 652T211 624L210 616Q208 597 199 588T169 578Z" />
<glyph unicode="k" horiz-adv-x="472" d="M60 0Q52 0 54 8L159 676Q161 683 168 683H206Q214 683 212 676L163 365Q158 333 153 301T142 236H143Q166 257 189 278T234 320L411 479Q415 484 421 484H474Q478 484 479 482T476 475L278 299L422 8Q424 5 423 3T417
0H373Q367 0 365 5L236 261L132 167L107 8Q106 4 104 2T98 0H60Z" />
<glyph unicode="l" horiz-adv-x="217" d="M60 0Q52 0 54 8L159 676Q161 683 168 683H206Q214 683 212 676L107 8Q106 4 104 2T98 0H60Z" />
<glyph unicode="m" horiz-adv-x="829" d="M60 0Q52 0 54 7L110 367Q115 393 118 422T122 477Q122 484 129 484H167Q173 484 173 477Q173 458 172 438T167 395Q222 445 267 470T361 496Q412 496 439 469T467 390Q524 442 571 469T668 496Q731 496 756 455T769 336L717
7Q715 0 709 0H670Q662 0 664 8L715 331Q725 388 709 417T648 447Q610 447 566 421T466 343L412 7Q411 4 409 2T403 0H365Q357 0 359 7L410 331Q419 388 403 417T342 447Q304 447 260 421T160 343L107 7Q105 0 98 0H60Z" />
<glyph unicode="n" horiz-adv-x="546" d="M388 0Q380 0 382 7L432 326Q451 447 352 447Q322 447 291 435T224 396T147 332L155 384Q209 436 262 466T371 496Q437 496 468 455T486 329L435 7Q433 0 427 0H388ZM60 0Q52 0 54 7L110 367Q115 393 118 424T122 476Q122
484 130 484H166Q173 484 174 477Q174 465 173 448T170 412T166 378L164 364L107 7Q106 4 104 2T98 0H60Z" />
<glyph unicode="o" horiz-adv-x="518" d="M235 -12Q140 -12 96 38T66 182L87 316Q102 406 155 451T301 496Q393 496 438 447T470 303L450 170Q436 78 383 33T235 -12ZM240 37Q309 37 348 71T398 175L417 298Q428 372 397 409T295 447Q226 447 188 413T139 309L119
185Q108 113 138 75T240 37Z" />
<glyph unicode="p" horiz-adv-x="524" d="M256 -12Q216 -12 174 -1T101 30L107 77Q139 57 177 47T252 37Q315 37 352 72T402 180L424 316Q435 383 415 415T347 447Q305 447 258 422T148 340L156 394Q214 446 263 471T365 496Q433 496 462 452T477 320L453 175Q438
82 388 35T256 -12ZM31 -185Q23 -185 25 -178L112 372Q116 397 118 424T122 476Q122 484 130 484H167Q174 484 174 477Q173 465 173 450T171 420T167 394L163 362L78 -178Q76 -185 69 -185H31Z" />
<glyph unicode="q" horiz-adv-x="529" d="M341 -185Q333 -185 335 -178L431 430Q400 436 367 441T303 447Q231 447 192 416T141 312L119 170Q108 103 126 70T195 37Q237 37 282 60T395 141L385 86Q326 34 278 11T180 -12Q109 -12 80 33T65 168L89 319Q102 407
153 451T301 496Q350 496 394 486T491 469L388 -178Q386 -185 380 -185H341Z" />
<glyph unicode="r" horiz-adv-x="349" d="M60 0Q52 0 54 7L111 369Q116 396 118 423T122 476Q122 484 130 484H166Q173 484 173 477Q173 456 171 431T164 380L161 349L107 7Q106 4 104 2T98 0H60ZM147 324L155 379Q179 408 210 434T276 478T341 496Q362 496 370
493Q374 492 374 490T375 484Q374 472 372 459T365 434Q363 426 355 429Q350 430 342 431T322 432Q292 432 262 418T203 379T147 324Z" />
<glyph unicode="s" horiz-adv-x="444" d="M198 -12Q111 -12 73 23T47 136Q49 145 55 145H95Q102 145 101 136Q93 81 118 59T206 36Q332 36 332 124Q332 150 319 168T272 204L169 255Q128 276 109 303T90 368Q90 429 134 462T261 496Q340 496 380 464T411 367Q410
360 404 360H363Q357 360 358 367Q362 408 336 427T255 447Q144 447 144 372Q144 347 157 330T203 297L304 246Q347 224 366 197T386 130Q386 61 338 25T198 -12Z" />
<glyph unicode="t" horiz-adv-x="380" d="M209 -12Q142 -12 118 25T106 138L153 436H74Q66 436 68 443L73 477Q75 484 82 484H161L188 611Q191 618 197 618H227Q235 618 233 611L213 484H377Q384 484 383 476L377 443Q375 436 369 436H206L159 139Q150 83 165
60T224 36Q247 36 269 40T310 54Q319 57 317 49L312 14Q312 9 305 5Q285 -3 261 -7T209 -12Z" />
<glyph unicode="u" horiz-adv-x="533" d="M184 -12Q119 -12 92 30T77 155L128 476Q130 484 137 484H175Q183 484 182 476L130 158Q121 97 139 67T204 37Q249 37 296 65T405 152L396 99Q360 63 325 39T255 1T184 -12ZM386 0Q378 0 378 7Q379 29 381 52T387 99L388
126L443 476Q445 484 452 484H490Q498 484 496 476L439 117Q435 91 432 63T428 7Q428 0 420 0H386Z" />
<glyph unicode="v" horiz-adv-x="477" d="M180 0Q174 0 172 6L75 476Q73 484 81 484H121Q128 484 129 478L190 163Q196 132 202 102T214 41H215Q230 72 245 102T275 162L436 478Q437 481 439 482T445 484H489Q492 484 493 482T493 476L245 5Q243 0 237 0H180Z" />
<glyph unicode="w" horiz-adv-x="702" d="M167 0Q162 0 160 7L81 475Q79 484 87 484H128Q134 484 135 477L185 166Q189 137 194 108T203 49H205Q219 78 233 107T261 166L360 370L346 468Q345 476 353 476H389Q396 476 397 469L437 170Q441 140 445 110T453 49H454Q468
79 482 108T511 168L658 477Q660 481 662 482T667 484H709Q713 484 714 482T714 475L485 7Q483 4 482 2T476 0H420Q414 0 413 6L384 195Q381 219 378 243T370 291H369Q357 267 346 243T322 194L232 6Q230 3 228 2T223 0H167Z" />
<glyph unicode="x" horiz-adv-x="458" d="M-9 0Q-13 0 -14 3T-12 8L206 251L77 475Q75 479 77 481T83 484H129Q135 484 136 479L199 367Q211 348 221 329T242 290H243Q261 310 278 329T312 368L411 479Q414 482 416 483T421 484H468Q472 484 473 482T471 475L272
253L414 8Q416 6 415 3T408 0H363Q359 0 356 5L281 134Q270 154 259 173T237 213H236Q218 193 201 174T166 134L51 5Q47 0 41 0H-9Z" />
<glyph unicode="y" horiz-adv-x="474" d="M86 -185Q78 -185 83 -177L183 6L72 475Q70 484 79 484H120Q126 484 127 477L187 215Q196 179 203 143T218 72H220Q238 107 257 142T294 211L439 478Q441 481 443 482T449 484H491Q495 484 496 482T496 475L137 -179Q134
-185 127 -185H86Z" />
<glyph unicode="z" horiz-adv-x="449" d="M5 0Q-2 0 0 7V10Q1 16 5 20L304 358Q321 378 338 397T373 435V436Q346 436 319 436T266 436H97Q90 436 91 443L97 477Q99 484 105 484H460Q468 484 466 477V474Q465 471 464 469T461 463L171 138Q151 116 132 94T93 48V47Q120
47 146 47T200 47H380Q387 47 386 40L380 7Q379 0 372 0H5Z" />
<glyph unicode="{" horiz-adv-x="259" d="M204 -141Q144 -141 115 -128T80 -78T84 27L106 172Q114 217 103 236T58 256H39Q30 256 32 263L37 294Q39 301 46 301H65Q99 301 116 320T140 385L163 529Q174 598 191 634T242 684T337 698Q344 698 343 690L338 659Q337
655 335 654T330 652Q290 652 269 643T236 611T218 541L193 385Q186 338 170 312T125 278Q151 270 159 244T160 172L135 15Q128 -29 130 -53T151 -86T211 -96Q219 -96 217 -103L212 -134Q210 -141 204 -141Z" />
<glyph unicode="|" horiz-adv-x="243" d="M121 -185Q114 -185 114 -178V823Q114 830 121 830H162Q169 830 169 823V-178Q169 -185 162 -185H121Z" />
<glyph unicode="}" horiz-adv-x="259" d="M90 698Q150 698 179 682T214 629T210 529L187 384Q180 339 191 320T236 300H255Q263 300 262 293L257 262Q255 255 248 255H229Q195 255 179 236T154 171L131 27Q120 -43 103 -79T53 -128T-43 -141Q-50 -141 -49 -134L-44
-103Q-43 -99 -41 -98T-36 -96Q5 -96 26 -87T57 -54T76 15L101 171Q108 218 124 244T169 278Q144 287 135 313T134 384L159 541Q167 586 164 609T143 642T83 652Q75 652 77 659L82 690Q84 698 90 698Z" />
<glyph unicode="~" horiz-adv-x="600" d="M408 262Q380 262 359 267T318 278T278 289T230 294Q204 294 175 286T128 271Q121 268 121 276V309Q121 314 124 316Q143 325 171 333T232 341Q261 341 282 337T321 326T361 315T410 310Q436 310 465 318T512 333Q519
335 519 328V295Q519 289 515 287Q495 278 467 270T408 262Z" />
<glyph unicode="&#xa0;" horiz-adv-x="230" />
<glyph unicode="&#xa1;" horiz-adv-x="211" d="M149 301Q156 301 155 294L87 -164Q85 -171 79 -171H35Q27 -171 29 -164L105 294Q106 301 113 301H149ZM160 496Q178 496 188 487T194 462L191 443Q189 427 179 420T151 412Q133 412 123 421T116 447L119 465Q122
481 132 488T160 496Z" />
<glyph unicode="&#xa2;" horiz-adv-x="588" d="M319 528L333 615Q334 622 341 622H375Q383 622 381 615L368 530L319 528ZM236 -38Q229 -38 230 -31L244 54L292 51L279 -31Q277 -38 271 -38H236ZM270 37Q176 37 133 87T104 229L125 364Q139 453 190 499T337 545Q392
545 431 527T489 476T498 397Q496 389 490 389H451Q445 389 446 397Q453 444 421 470T330 496Q262 496 225 462T177 359L157 232Q146 161 176 124T276 86Q339 86 371 112T412 189Q413 197 419 197H459Q466 197 465 189Q455 115 406 77T270 37Z" />
<glyph unicode="&#xa3;" horiz-adv-x="588" d="M94 0Q87 0 87 7L91 33Q92 38 96 42Q122 67 137 95T157 157L209 491Q219 549 241 588T301 647T397 667Q448 667 481 649T529 593T534 496Q533 489 527 489H489Q481 489 482 496Q488 531 483 558T457 602T393 618Q336
618 305 589T262 488L212 169Q205 123 191 95T157 48H483Q491 48 489 41L484 7Q482 0 476 0H94ZM106 321Q98 321 99 329L104 359Q106 367 113 367H410Q418 367 416 359L411 328Q410 321 402 321H106Z" />
<glyph unicode="&#xa4;" horiz-adv-x="617" d="M135 119Q131 115 126 120L99 146Q95 151 100 155L167 213Q156 234 150 259T143 314Q143 344 149 370T169 417L102 473Q97 478 102 483L128 509Q133 515 138 510L201 454Q250 498 328 498Q407 498 456 454L519 510Q524
515 529 509L555 483Q560 478 554 473L488 417Q501 396 507 370T513 314Q513 284 507 259T489 213L557 155Q562 151 557 146L531 120Q526 115 521 119L457 176Q408 130 328 130Q248 130 200 176L135 119ZM328 176Q395 176 428 212T462 314Q462 380 429 416T328
452Q262 452 228 416T194 314Q194 248 228 212T328 176Z" />
<glyph unicode="&#xa5;" horiz-adv-x="588" d="M245 0Q237 0 238 8L273 225L134 647Q133 650 135 652T140 655H182Q189 655 190 649L258 434Q270 397 281 359T304 281H306Q330 320 354 358T402 435L539 650Q542 655 548 655H596Q599 655 600 653T599 647L326 225L292
8Q290 0 283 0H245ZM140 109Q132 109 134 117L139 147Q140 155 147 155H430Q437 155 435 147L431 116Q429 109 422 109H140ZM159 225Q151 225 153 233L158 263Q159 271 166 271H448Q456 271 454 263L449 232Q448 225 441 225H159Z" />
<glyph unicode="&#xa6;" horiz-adv-x="243" d="M121 392Q114 392 114 399V823Q114 830 121 830H162Q169 830 169 823V399Q169 392 162 392H121ZM121 -185Q114 -185 114 -178V246Q114 253 121 253H162Q169 253 169 246V-178Q169 -185 162 -185H121Z" />
<glyph unicode="&#xa7;" horiz-adv-x="452" d="M180 -118Q109 -118 66 -92T23 -10Q23 -4 23 1T24 11Q25 18 32 18H71Q78 18 77 11Q76 6 76 3T76 -5Q76 -38 103 -54T181 -70Q241 -70 273 -49T306 19Q306 47 291 64T251 97L129 176Q92 200 73 228T53 299Q53 351
87 387T181 441Q157 461 142 487T126 547Q126 613 172 647T305 682Q351 682 386 671T442 635T462 574Q462 569 462 564T461 553Q460 547 453 547H413Q408 547 408 554Q408 558 408 561T409 569Q409 602 381 618T300 634Q245 634 212 614T179 549Q179 519 194 501T234
467L357 388Q394 364 412 338T431 270Q431 217 398 179T305 124Q329 105 344 81T359 24Q359 -49 312 -83T180 -118ZM264 152Q318 164 348 192T378 265Q378 296 362 315T309 357L221 412Q166 400 137 373T107 304Q107 273 123 252T175 207L264 152Z" />
<glyph unicode="&#xa8;" horiz-adv-x="284" d="M282 578Q263 578 256 588T250 613L251 622Q253 639 262 648T291 658Q310 658 317 648T323 622L322 613Q320 596 311 587T282 578ZM131 578Q112 578 105 588T99 613L100 622Q102 639 111 648T140 658Q159 658 166
648T172 622L171 613Q169 596 159 587T131 578Z" />
<glyph unicode="&#xa9;" horiz-adv-x="710" d="M373 -12Q282 -12 221 15T130 95T99 219V385Q99 458 129 509T221 588T373 616Q465 616 525 589T616 510T647 385V219Q647 147 617 95T526 16T373 -12ZM373 32Q484 32 542 79T600 216V388Q600 478 542 525T373 572Q263
572 205 525T146 388V216Q146 127 204 80T373 32ZM378 127Q314 127 280 160T245 256V345Q245 408 279 442T378 477Q439 477 473 449T507 369Q507 361 501 361H465Q459 361 459 369Q459 399 438 415T378 432Q336 432 315 410T293 342V260Q293 172 378 172Q419 172
438 188T458 237Q458 241 459 242T465 244H500Q506 244 506 238Q506 187 474 157T378 127Z" />
<glyph unicode="&#xaa;" horiz-adv-x="378" d="M182 332Q136 332 116 362T104 451L120 548Q130 610 163 638T255 667Q290 667 324 660T392 647L356 418Q352 395 350 378T348 346Q348 339 342 339H314Q308 339 308 345Q307 356 308 370T311 396Q279 365 248 349T182
332ZM83 219Q75 219 77 227L82 254Q83 261 90 261H325Q332 261 331 254L326 226Q325 219 318 219H83ZM196 373Q226 373 252 389T316 437L343 613Q322 619 300 622T255 626Q217 626 194 606T163 543L149 452Q143 412 154 393T196 373Z" />
<glyph unicode="&#xab;" horiz-adv-x="468" d="M169 93Q164 93 162 98L93 257Q91 263 95 269L213 428Q218 433 222 433H262Q266 433 267 431T266 425L148 260L212 101Q214 98 212 96T206 93H169ZM328 93Q323 93 320 98L252 257Q250 263 254 269L372 428Q375 433
381 433H421Q425 433 426 431T425 425L306 260L371 101Q373 98 371 96T365 93H328Z" />
<glyph unicode="&#xac;" horiz-adv-x="600" d="M478 117Q471 117 471 124V278H127Q120 278 120 284V316Q120 323 127 323H513Q520 323 520 316V124Q520 117 513 117H478Z" />
<glyph unicode="&#xad;" horiz-adv-x="479" d="M87 244Q80 244 81 252L86 280Q88 287 95 287H408Q415 287 413 280L409 251Q407 244 401 244H87Z" />
<glyph unicode="&#xae;" horiz-adv-x="588" d="M347 305Q240 305 189 355T137 490V520Q137 605 188 654T347 703Q454 703 506 654T558 519V489Q558 404 506 355T347 305ZM347 339Q432 339 477 377T522 486V522Q522 593 477 631T347 669Q261 669 217 632T173 523V487Q173
417 217 378T347 339ZM279 395Q273 395 273 402V612Q273 618 280 618H348Q395 618 416 601T437 551Q437 526 425 511T386 488L442 403Q444 400 443 398T438 395H415Q410 395 406 400L352 484H306V402Q306 395 299 395H279ZM306 512H349Q378 512 390 521T403 547V553Q403
572 391 581T349 590H306V512Z" />
<glyph unicode="&#xaf;" horiz-adv-x="270" d="M98 576Q91 576 93 583L98 615Q99 623 106 623H300Q308 623 306 615L301 583Q299 576 292 576H98Z" />
<glyph unicode="&#xb0;" horiz-adv-x="382" d="M230 411Q165 411 135 447T114 546L117 562Q126 625 164 659T268 694Q332 694 362 658T383 558L381 543Q371 482 333 447T230 411ZM233 449Q279 449 305 473T339 544L342 558Q349 604 330 630T264 656Q219 656 192
632T158 562L156 548Q148 500 169 475T233 449Z" />
<glyph unicode="&#xb1;" horiz-adv-x="600" d="M302 178Q295 178 295 185V338H127Q120 338 120 344V377Q120 384 127 384H295V536Q295 543 302 543H338Q345 543 345 536V384H513Q520 384 520 377V344Q520 338 513 338H345V185Q345 178 338 178H302ZM126 74Q120
74 120 81V113Q120 120 126 120H513Q519 120 519 113V81Q519 74 513 74H126Z" />
<glyph unicode="&#xb2;" horiz-adv-x="370" d="M89 355Q80 355 82 363L87 395Q94 436 113 464T160 513T217 550T273 583T318 618T341 663L343 672Q348 702 329 716T272 731Q229 731 205 715T177 660Q176 653 170 653H139Q132 653 132 660Q135 716 173 745T278
775Q332 775 361 752T390 687Q390 646 373 618T329 570T271 533T211 498T162 457T135 399H341Q348 399 347 392L342 362Q341 355 334 355H89Z" />
<glyph unicode="&#xb3;" horiz-adv-x="370" d="M207 348Q167 348 139 360T98 398T92 464Q92 470 99 470H131Q139 470 138 463Q131 426 148 409T210 391Q256 391 284 410T317 465L319 476Q324 514 303 529T239 545H187Q179 545 180 553L185 581Q186 588 193 588H244Q283
588 308 606T339 659L340 670Q345 700 326 715T267 731Q220 731 199 714T171 660Q170 653 165 653H133Q126 653 127 660Q133 717 168 746T272 775Q330 775 359 751T388 684Q388 647 369 616T311 569L310 568Q339 560 352 541T366 492Q366 423 325 386T207 348Z"
/>
<glyph unicode="&#xb4;" horiz-adv-x="184" d="M94 559Q91 559 90 561T91 568L173 684Q177 691 185 691H225Q229 691 230 688T229 682L137 566Q131 559 125 559H94Z" />
<glyph unicode="&#xb5;" horiz-adv-x="542" d="M30 -185Q23 -185 25 -178L128 476Q130 484 136 484H175Q183 484 182 476L131 159Q120 95 139 66T203 37Q236 37 268 51T331 88T390 139L443 476Q445 484 452 484H490Q498 484 496 476L437 104Q432 64 438 50T469
35Q478 35 488 36T507 40Q515 41 513 34L507 0Q506 -3 505 -5T499 -8Q490 -10 480 -11T457 -12Q414 -12 396 11T385 88H384Q336 41 289 15T194 -12Q162 -12 140 0T108 36L75 -178Q73 -185 67 -185H30Z" />
<glyph unicode="&#xb6;" horiz-adv-x="595" d="M169 -185Q161 -185 163 -178L240 313H193Q142 313 114 333T77 388T75 467L88 555Q95 598 111 626T159 668T238 683H579Q587 683 585 676L450 -178Q449 -185 442 -185H402Q394 -185 396 -178L525 633H345L216 -178Q215
-185 208 -185H169Z" />
<glyph unicode="&#xb7;" horiz-adv-x="224" d="M111 224Q94 224 84 233T76 258L80 277Q85 308 120 308Q138 308 148 299T155 273L152 254Q147 224 111 224Z" />
<glyph unicode="&#xb8;" horiz-adv-x="196" d="M27 -197Q3 -197 -21 -192Q-29 -190 -28 -184L-24 -162Q-23 -155 -16 -156Q-6 -158 4 -159T25 -160Q47 -160 58 -152T73 -126L75 -112Q79 -92 70 -84T36 -75H14Q7 -75 8 -68Q8 -63 9 -59T12 -52L41 10Q44 17 49 17H79Q86
17 83 10L56 -47H67Q97 -47 111 -63T119 -111L116 -128Q109 -165 89 -181T27 -197Z" />
<glyph unicode="&#xb9;" horiz-adv-x="370" d="M94 355Q86 355 87 363L92 392Q94 399 100 399H201L251 714L149 682Q140 679 141 686L146 715Q147 721 149 723T155 727L285 769Q287 770 289 770T294 770H300Q305 770 304 762L246 399H336Q344 399 342 392L337
362Q336 355 329 355H94Z" />
<glyph unicode="&#xba;" horiz-adv-x="385" d="M218 327Q157 327 127 363T106 465L118 539Q127 601 165 634T265 667Q327 667 358 632T380 533L368 461Q359 396 320 362T218 327ZM81 219Q73 219 75 227L80 254Q81 261 87 261H323Q329 261 328 254L324 226Q323
219 316 219H81ZM221 369Q263 369 290 392T323 459L335 534Q342 580 322 602T260 625Q219 625 195 604T162 537L150 464Q143 417 162 393T221 369Z" />
<glyph unicode="&#xbb;" horiz-adv-x="468" d="M323 433Q328 433 330 428L398 269Q401 263 397 257L279 98Q276 93 270 93H229Q226 93 225 95T226 101L344 266L279 425Q278 428 280 430T286 433H323ZM164 433Q169 433 171 428L240 269Q242 263 238 257L120 98Q117
93 111 93H70Q67 93 66 95T67 101L185 266L120 425Q119 428 121 430T127 433H164Z" />
<glyph unicode="&#xbc;" horiz-adv-x="840" d="M76 243Q68 243 69 251L74 280Q76 287 82 287H183L233 602L131 570Q122 567 123 574L128 603Q129 609 131 611T137 615L267 657Q269 658 271 658T276 658H282Q287 658 286 650L228 287H318Q326 287 324 280L319 250Q318
243 311 243H76ZM231 -26Q223 -26 227 -17L430 344L617 675Q620 681 626 681H661Q665 681 667 679T666 673L471 328L277 -20Q274 -26 267 -26H231ZM686 0Q679 0 681 7L692 84H488Q480 84 481 91V96Q482 99 483 101T486 107L698 405Q703 412 710 412H743Q748 412
749 409T748 402L552 128H700L722 267Q723 274 730 274H761Q768 274 766 267L745 128H795Q803 128 801 121L796 91Q795 84 788 84H738L725 7Q725 4 723 2T717 0H686Z" />
<glyph unicode="&#xbd;" horiz-adv-x="867" d="M76 243Q68 243 69 251L74 280Q76 287 82 287H183L233 602L131 570Q122 567 123 574L128 603Q129 609 131 611T137 615L267 657Q269 658 271 658T276 658H282Q287 658 286 650L228 287H318Q326 287 324 280L319 250Q318
243 311 243H76ZM231 -26Q223 -26 227 -17L430 344L617 675Q620 681 626 681H661Q665 681 667 679T666 673L471 328L277 -20Q274 -26 267 -26H231ZM530 0Q521 0 523 8L528 40Q535 81 554 109T601 158T658 195T714 228T759 263T782 308L784 317Q789 347 770 361T713
376Q670 376 646 360T618 305Q617 298 611 298H580Q573 298 573 305Q576 361 614 390T719 420Q773 420 802 397T831 332Q831 291 814 263T770 215T712 178T652 143T603 102T576 44H782Q789 44 788 37L783 7Q782 0 775 0H530Z" />
<glyph unicode="&#xbe;" horiz-adv-x="834" d="M189 236Q149 236 121 248T80 286T74 352Q74 358 81 358H113Q121 358 120 351Q113 314 130 297T192 279Q238 279 266 298T299 353L301 364Q306 402 285 417T221 433H169Q161 433 162 441L167 469Q168 476 175 476H226Q265
476 290 494T321 547L322 558Q327 588 308 603T249 619Q202 619 181 602T153 548Q152 541 147 541H115Q108 541 109 548Q115 605 150 634T254 663Q312 663 341 639T370 572Q370 535 351 504T293 457L292 456Q321 448 334 429T348 380Q348 311 307 274T189 236ZM225
-26Q217 -26 221 -17L424 344L611 675Q614 681 620 681H655Q659 681 661 679T660 673L465 328L271 -20Q268 -26 261 -26H225ZM680 0Q673 0 675 7L686 84H482Q474 84 475 91V96Q476 99 477 101T480 107L692 405Q697 412 704 412H737Q742 412 743 409T742 402L546
128H694L716 267Q717 274 724 274H755Q762 274 760 267L739 128H789Q797 128 795 121L790 91Q789 84 782 84H732L719 7Q719 4 717 2T711 0H680Z" />
<glyph unicode="&#xbf;" horiz-adv-x="452" d="M269 301Q276 301 275 295L266 240Q261 203 237 174T181 118T118 64T67 8T46 -59Q46 -100 75 -118T157 -137Q229 -137 261 -102T300 -6Q300 1 307 1H346Q350 1 351 0T353 -7Q345 -91 296 -137T152 -183Q72 -183 32
-153T-9 -64Q-9 -18 12 17T65 80T130 135T187 188T216 248L224 295Q225 301 231 301H269ZM277 496Q295 496 304 487T311 462L308 443Q305 427 295 420T267 412Q250 412 240 421T232 447L236 465Q239 481 249 488T277 496Z" />
<glyph unicode="&#xc0;" horiz-adv-x="540" d="M-18 0Q-22 0 -23 2T-23 7L306 648Q309 655 314 655H371Q377 655 379 648L506 8Q508 0 499 0H457Q451 0 450 7L359 483Q354 513 348 544T337 606H335Q321 575 306 545T275 482L33 6Q30 0 24 0H-18ZM105 170L126 218H422L429
170H105ZM356 727Q349 727 346 734L295 836Q294 839 295 841T300 844H344Q350 844 353 836L393 734Q396 727 388 727H356Z" />
<glyph unicode="&#xc1;" horiz-adv-x="540" d="M-18 0Q-22 0 -23 2T-23 7L306 648Q309 655 314 655H371Q377 655 379 648L506 8Q508 0 499 0H457Q451 0 450 7L359 483Q354 513 348 544T337 606H335Q321 575 306 545T275 482L33 6Q30 0 24 0H-18ZM105 170L126 218H422L429
170H105ZM319 727Q315 727 314 729T315 736L387 837Q392 844 399 844H440Q444 844 445 841T443 834L362 734Q356 727 350 727H319Z" />
<glyph unicode="&#xc2;" horiz-adv-x="540" d="M-18 0Q-22 0 -23 2T-23 7L306 648Q309 655 314 655H371Q377 655 379 648L506 8Q508 0 499 0H457Q451 0 450 7L359 483Q354 513 348 544T337 606H335Q321 575 306 545T275 482L33 6Q30 0 24 0H-18ZM105 170L126 218H422L429
170H105ZM240 731Q236 729 234 730T232 735L238 767Q239 775 245 777L367 835Q372 837 377 835L480 773Q486 769 485 763L481 737Q479 728 471 732L368 785L240 731Z" />
<glyph unicode="&#xc3;" horiz-adv-x="540" d="M-18 0Q-22 0 -23 2T-23 7L306 648Q309 655 314 655H371Q377 655 379 648L506 8Q508 0 499 0H457Q451 0 450 7L359 483Q354 513 348 544T337 606H335Q321 575 306 545T275 482L33 6Q30 0 24 0H-18ZM105 170L126 218H422L429
170H105ZM403 729Q381 729 367 735T340 747T311 753Q288 753 270 747T241 735Q236 733 234 735T232 742L236 768Q237 775 243 779Q254 786 274 793T317 800Q339 800 353 794T380 782T409 776Q432 776 449 782T479 794Q483 796 486 794T488 787L483 761Q482 754
476 750Q465 743 446 736T403 729Z" />
<glyph unicode="&#xc4;" horiz-adv-x="540" d="M-18 0Q-22 0 -23 2T-23 7L306 648Q309 655 314 655H371Q377 655 379 648L506 8Q508 0 499 0H457Q451 0 450 7L359 483Q354 513 348 544T337 606H335Q321 575 306 545T275 482L33 6Q30 0 24 0H-18ZM105 170L126 218H422L429
170H105ZM430 732Q411 732 404 742T398 767L399 776Q401 793 410 802T438 812Q457 812 464 802T471 776L470 767Q468 750 458 741T430 732ZM284 732Q265 732 258 742T252 767L253 776Q255 793 264 802T293 812Q312 812 319 802T325 776L324 767Q322 750 313 741T284
732Z" />
<glyph unicode="&#xc5;" horiz-adv-x="540" d="M-18 0Q-22 0 -23 2T-23 7L297 632Q275 640 262 658T249 702Q249 748 278 774T358 801Q400 801 423 780T447 723Q447 688 430 665T382 632L506 8Q508 0 499 0H457Q451 0 450 7L419 170H116L33 6Q30 0 24 0H-18ZM140
218H410L359 483Q354 513 348 544T337 606H335Q321 575 306 545T275 482L140 218ZM343 658Q374 658 390 674T407 720Q407 766 354 766Q323 766 306 750T289 704Q289 658 343 658Z" />
<glyph unicode="&#xc6;" horiz-adv-x="820" d="M-18 0Q-22 0 -23 2T-22 8L417 647Q422 655 430 655H807Q811 655 813 654T814 648L808 612Q806 605 800 605H501L462 358H737Q745 358 744 351L738 317Q737 310 731 310H454L413 50H711Q719 50 718 42L712 7Q710
0 704 0H359Q352 0 353 7L379 170H147L34 5Q31 0 26 0H-18ZM179 218H387L435 522Q439 545 442 568T450 614H448Q434 592 420 570T390 525L179 218Z" />
<glyph unicode="&#xc7;" horiz-adv-x="620" d="M296 -12Q178 -12 123 51T85 225L120 451Q137 559 200 613T378 667Q454 667 505 641T579 567T587 450Q586 443 580 443H541Q534 443 535 450Q549 530 508 574T372 618Q285 618 236 577T173 451L138 225Q123 135 165
86T300 37Q389 37 437 78T496 205Q496 212 503 212H542Q550 212 549 204Q543 134 512 86T427 13T296 -12ZM253 -197Q229 -197 205 -192Q197 -190 198 -184L202 -162Q203 -155 210 -156Q220 -158 230 -159T251 -160Q273 -160 284 -152T299 -126L301 -112Q305 -92
296 -84T262 -75H240Q233 -75 234 -68Q234 -63 235 -59T238 -52L267 10Q270 17 275 17H305Q312 17 309 10L282 -47H293Q323 -47 337 -63T345 -111L342 -128Q335 -165 315 -181T253 -197Z" />
<glyph unicode="&#xc8;" horiz-adv-x="530" d="M70 0Q62 0 64 7L165 648Q166 655 173 655H518Q521 655 523 654T524 648L518 612Q517 605 510 605H211L173 358H448Q456 358 454 351L449 317Q447 310 441 310H165L123 50H422Q430 50 428 42L422 7Q421 0 414 0H70ZM351
727Q344 727 341 734L290 836Q289 839 290 841T295 844H339Q345 844 348 836L388 734Q391 727 383 727H351Z" />
<glyph unicode="&#xc9;" horiz-adv-x="530" d="M70 0Q62 0 64 7L165 648Q166 655 173 655H518Q521 655 523 654T524 648L518 612Q517 605 510 605H211L173 358H448Q456 358 454 351L449 317Q447 310 441 310H165L123 50H422Q430 50 428 42L422 7Q421 0 414 0H70ZM314
727Q310 727 309 729T310 736L382 837Q387 844 394 844H435Q439 844 440 841T438 834L357 734Q351 727 345 727H314Z" />
<glyph unicode="&#xca;" horiz-adv-x="530" d="M70 0Q62 0 64 7L165 648Q166 655 173 655H518Q521 655 523 654T524 648L518 612Q517 605 510 605H211L173 358H448Q456 358 454 351L449 317Q447 310 441 310H165L123 50H422Q430 50 428 42L422 7Q421 0 414 0H70ZM235
731Q231 729 229 730T227 735L233 767Q234 775 240 777L362 835Q367 837 372 835L475 773Q481 769 480 763L476 737Q474 728 466 732L363 785L235 731Z" />
<glyph unicode="&#xcb;" horiz-adv-x="530" d="M70 0Q62 0 64 7L165 648Q166 655 173 655H518Q521 655 523 654T524 648L518 612Q517 605 510 605H211L173 358H448Q456 358 454 351L449 317Q447 310 441 310H165L123 50H422Q430 50 428 42L422 7Q421 0 414 0H70ZM425
732Q406 732 399 742T393 767L394 776Q396 793 405 802T433 812Q452 812 459 802T466 776L465 767Q463 750 453 741T425 732ZM279 732Q260 732 253 742T247 767L248 776Q250 793 259 802T288 812Q307 812 314 802T320 776L319 767Q317 750 308 741T279 732Z" />
<glyph unicode="&#xcc;" horiz-adv-x="238" d="M70 0Q62 0 64 8L165 648Q166 655 173 655H212Q220 655 218 648L117 8Q115 0 109 0H70ZM206 727Q199 727 196 734L145 836Q144 839 145 841T150 844H194Q200 844 203 836L243 734Q246 727 238 727H206Z" />
<glyph unicode="&#xcd;" horiz-adv-x="238" d="M70 0Q62 0 64 8L165 648Q166 655 173 655H212Q220 655 218 648L117 8Q115 0 109 0H70ZM169 727Q165 727 164 729T165 736L237 837Q242 844 249 844H290Q294 844 295 841T293 834L212 734Q206 727 200 727H169Z" />
<glyph unicode="&#xce;" horiz-adv-x="238" d="M70 0Q62 0 64 8L165 648Q166 655 173 655H212Q220 655 218 648L117 8Q115 0 109 0H70ZM346 731Q342 729 340 730T338 735L344 767Q345 775 351 777L473 835Q478 837 483 835L586 773Q592 769 591 763L587 737Q585
728 577 732L474 785L346 731Z" />
<glyph unicode="&#xcf;" horiz-adv-x="238" d="M70 0Q62 0 64 8L165 648Q166 655 173 655H212Q220 655 218 648L117 8Q115 0 109 0H70ZM536 732Q517 732 510 742T504 767L505 776Q507 793 516 802T544 812Q563 812 570 802T577 776L576 767Q574 750 564 741T536
732ZM390 732Q371 732 364 742T358 767L359 776Q361 793 370 802T399 812Q418 812 425 802T431 776L430 767Q428 750 419 741T390 732Z" />
<glyph unicode="&#xd0;" horiz-adv-x="624" d="M34 311Q26 311 28 319L33 350Q35 357 41 357H119H338Q346 357 344 350L339 318Q337 311 331 311H34ZM70 0Q62 0 64 7L165 648Q166 655 173 655H331Q482 655 545 584T585 365L574 294Q559 193 517 128T407 32T242
0H70ZM123 47H244Q365 47 432 104T520 291L532 367Q553 492 503 550T325 608H212L123 47Z" />
<glyph unicode="&#xd1;" horiz-adv-x="652" d="M70 0Q62 0 64 8L165 648Q166 655 173 655H238Q241 655 243 653T246 648L408 246Q428 200 447 154T485 61H486Q494 107 501 153T515 245L579 648Q581 655 587 655H625Q634 655 632 648L530 7Q529 0 523 0H460Q453
0 451 6L294 393Q273 444 252 494T210 594H209Q201 542 193 490T176 386L116 8Q114 0 108 0H70ZM455 729Q433 729 419 735T392 747T363 753Q340 753 322 747T293 735Q288 733 286 735T284 742L288 768Q289 775 295 779Q306 786 326 793T369 800Q391 800 405 794T432
782T461 776Q484 776 501 782T531 794Q535 796 538 794T540 787L535 761Q534 754 528 750Q517 743 498 736T455 729Z" />
<glyph unicode="&#xd2;" horiz-adv-x="629" d="M293 -12Q174 -12 121 52T85 225L121 453Q138 562 202 614T381 667Q501 667 554 604T589 430L553 202Q536 94 472 41T293 -12ZM298 37Q386 37 436 77T500 203L536 430Q551 521 510 569T376 618Q288 618 238 579T174
452L138 225Q123 134 165 86T298 37ZM399 727Q392 727 389 734L338 836Q337 839 338 841T343 844H387Q393 844 396 836L436 734Q439 727 431 727H399Z" />
<glyph unicode="&#xd3;" horiz-adv-x="629" d="M293 -12Q174 -12 121 52T85 225L121 453Q138 562 202 614T381 667Q501 667 554 604T589 430L553 202Q536 94 472 41T293 -12ZM298 37Q386 37 436 77T500 203L536 430Q551 521 510 569T376 618Q288 618 238 579T174
452L138 225Q123 134 165 86T298 37ZM362 727Q358 727 357 729T358 736L430 837Q435 844 442 844H483Q487 844 488 841T486 834L405 734Q399 727 393 727H362Z" />
<glyph unicode="&#xd4;" horiz-adv-x="629" d="M293 -12Q174 -12 121 52T85 225L121 453Q138 562 202 614T381 667Q501 667 554 604T589 430L553 202Q536 94 472 41T293 -12ZM298 37Q386 37 436 77T500 203L536 430Q551 521 510 569T376 618Q288 618 238 579T174
452L138 225Q123 134 165 86T298 37ZM284 731Q280 729 278 730T276 735L282 767Q283 775 289 777L411 835Q416 837 421 835L524 773Q530 769 529 763L525 737Q523 728 515 732L412 785L284 731Z" />
<glyph unicode="&#xd5;" horiz-adv-x="629" d="M293 -12Q174 -12 121 52T85 225L121 453Q138 562 202 614T381 667Q501 667 554 604T589 430L553 202Q536 94 472 41T293 -12ZM298 37Q386 37 436 77T500 203L536 430Q551 521 510 569T376 618Q288 618 238 579T174
452L138 225Q123 134 165 86T298 37ZM447 729Q425 729 411 735T384 747T355 753Q332 753 314 747T285 735Q280 733 278 735T276 742L280 768Q281 775 287 779Q298 786 318 793T361 800Q383 800 397 794T424 782T453 776Q476 776 493 782T523 794Q527 796 530 794T532
787L527 761Q526 754 520 750Q509 743 490 736T447 729Z" />
<glyph unicode="&#xd6;" horiz-adv-x="629" d="M293 -12Q174 -12 121 52T85 225L121 453Q138 562 202 614T381 667Q501 667 554 604T589 430L553 202Q536 94 472 41T293 -12ZM298 37Q386 37 436 77T500 203L536 430Q551 521 510 569T376 618Q288 618 238 579T174
452L138 225Q123 134 165 86T298 37ZM473 732Q454 732 447 742T441 767L442 776Q444 793 453 802T481 812Q500 812 507 802T514 776L513 767Q511 750 501 741T473 732ZM327 732Q308 732 301 742T295 767L296 776Q298 793 307 802T336 812Q355 812 362 802T368 776L367
767Q365 750 356 741T327 732Z" />
<glyph unicode="&#xd7;" horiz-adv-x="600" d="M190 147L167 170Q162 175 167 180L287 301L167 421Q162 427 167 431L190 454Q195 459 200 454L321 334L441 454Q446 459 451 454L474 431Q478 427 474 421L353 301L474 180Q478 175 474 170L451 147Q446 143 441
147L321 268L200 147Q195 143 190 147Z" />
<glyph unicode="&#xd8;" horiz-adv-x="629" d="M22 -49Q18 -49 18 -46T20 -40L121 88L136 108L513 586L526 603L601 697Q606 704 611 704H651Q655 704 656 702T655 696L555 570L541 552L161 69L147 52L71 -43Q67 -49 61 -49H22ZM293 -12Q174 -12 121 52T85 225L121
453Q138 562 202 614T381 667Q501 667 554 604T589 430L553 202Q536 94 472 41T293 -12ZM298 37Q386 37 436 77T500 203L536 430Q551 521 510 569T376 618Q288 618 238 579T174 452L138 225Q123 134 165 86T298 37Z" />
<glyph unicode="&#xd9;" horiz-adv-x="633" d="M292 -12Q179 -12 127 49T94 230L160 648Q162 655 169 655H207Q215 655 213 647L147 228Q132 134 167 86T295 37Q383 37 433 84T500 232L566 648Q567 655 574 655H613Q620 655 619 647L552 226Q539 147 506 94T420
15T292 -12ZM404 727Q397 727 394 734L343 836Q342 839 343 841T348 844H392Q398 844 401 836L441 734Q444 727 436 727H404Z" />
<glyph unicode="&#xda;" horiz-adv-x="633" d="M292 -12Q179 -12 127 49T94 230L160 648Q162 655 169 655H207Q215 655 213 647L147 228Q132 134 167 86T295 37Q383 37 433 84T500 232L566 648Q567 655 574 655H613Q620 655 619 647L552 226Q539 147 506 94T420
15T292 -12ZM367 727Q363 727 362 729T363 736L435 837Q440 844 447 844H488Q492 844 493 841T491 834L410 734Q404 727 398 727H367Z" />
<glyph unicode="&#xdb;" horiz-adv-x="633" d="M292 -12Q179 -12 127 49T94 230L160 648Q162 655 169 655H207Q215 655 213 647L147 228Q132 134 167 86T295 37Q383 37 433 84T500 232L566 648Q567 655 574 655H613Q620 655 619 647L552 226Q539 147 506 94T420
15T292 -12ZM288 731Q284 729 282 730T280 735L286 767Q287 775 293 777L415 835Q420 837 425 835L528 773Q534 769 533 763L529 737Q527 728 519 732L416 785L288 731Z" />
<glyph unicode="&#xdc;" horiz-adv-x="633" d="M292 -12Q179 -12 127 49T94 230L160 648Q162 655 169 655H207Q215 655 213 647L147 228Q132 134 167 86T295 37Q383 37 433 84T500 232L566 648Q567 655 574 655H613Q620 655 619 647L552 226Q539 147 506 94T420
15T292 -12ZM478 732Q459 732 452 742T446 767L447 776Q449 793 458 802T486 812Q505 812 512 802T519 776L518 767Q516 750 506 741T478 732ZM332 732Q313 732 306 742T300 767L301 776Q303 793 312 802T341 812Q360 812 367 802T373 776L372 767Q370 750 361
741T332 732Z" />
<glyph unicode="&#xdd;" horiz-adv-x="514" d="M208 0Q200 0 201 8L236 225L87 647Q86 650 88 652T92 655H136Q142 655 144 648L226 410Q237 379 248 347T270 283H271Q291 315 311 347T353 410L513 649Q517 655 522 655H569Q572 655 573 653T572 647L289 225L254
8Q253 0 246 0H208ZM299 727Q295 727 294 729T295 736L367 837Q372 844 379 844H420Q424 844 425 841T423 834L342 734Q336 727 330 727H299Z" />
<glyph unicode="&#xde;" horiz-adv-x="536" d="M70 0Q62 0 64 8L165 648Q166 655 173 655H212Q220 655 218 648L201 537H306Q413 537 464 496T516 375Q516 299 485 247T395 169T251 142H138L117 8Q115 0 108 0H70ZM145 189H257Q359 189 410 234T462 371Q462 435
421 462T301 490H193L145 189Z" />
<glyph unicode="&#xdf;" horiz-adv-x="528" d="M-16 -191L-44 -166Q-46 -164 -46 -162T-42 -156Q1 -120 25 -72T60 47L133 507Q148 605 194 650T327 695Q374 695 406 682T456 645T473 586Q473 547 460 519T426 470T386 432T353 396T339 357Q339 338 353 323T387
291T428 253T463 203T477 133Q477 63 435 26T316 -12Q245 -12 216 15T195 98Q195 106 203 106H240Q247 106 245 98Q242 66 260 51T322 36Q371 36 397 61T424 131Q424 166 410 190T376 232T335 268T300 306T286 353Q286 380 299 401T332 442T373 480T406 524T419
580Q419 612 394 630T322 648Q262 648 230 616T187 514L112 41Q104 -12 90 -55T52 -133T-7 -192Q-11 -196 -16 -191Z" />
<glyph unicode="&#xe0;" horiz-adv-x="523" d="M176 -12Q126 -12 99 10T63 73T63 170L86 317Q102 414 155 455T299 496Q347 496 390 486T486 469L430 117Q425 85 422 58T418 7Q418 0 410 0H375Q369 0 369 7Q369 26 371 47T375 89Q322 38 273 13T176 -12ZM194 37Q235
37 278 61T380 138L426 430Q395 437 361 442T299 447Q230 447 191 416T139 312L116 169Q106 106 123 72T194 37ZM332 559Q326 559 323 566L266 684Q265 687 266 689T271 691H315Q321 691 324 684L370 566Q372 559 364 559H332Z" />
<glyph unicode="&#xe1;" horiz-adv-x="523" d="M176 -12Q126 -12 99 10T63 73T63 170L86 317Q102 414 155 455T299 496Q347 496 390 486T486 469L430 117Q425 85 422 58T418 7Q418 0 410 0H375Q369 0 369 7Q369 26 371 47T375 89Q322 38 273 13T176 -12ZM194 37Q235
37 278 61T380 138L426 430Q395 437 361 442T299 447Q230 447 191 416T139 312L116 169Q106 106 123 72T194 37ZM262 559Q259 559 258 561T259 568L341 684Q345 691 353 691H393Q397 691 398 688T397 682L305 566Q299 559 293 559H262Z" />
<glyph unicode="&#xe2;" horiz-adv-x="523" d="M176 -12Q126 -12 99 10T63 73T63 170L86 317Q102 414 155 455T299 496Q347 496 390 486T486 469L430 117Q425 85 422 58T418 7Q418 0 410 0H375Q369 0 369 7Q369 26 371 47T375 89Q322 38 273 13T176 -12ZM194 37Q235
37 278 61T380 138L426 430Q395 437 361 442T299 447Q230 447 191 416T139 312L116 169Q106 106 123 72T194 37ZM207 562Q203 560 200 561T198 566L204 598Q205 604 212 607L329 670Q334 673 339 670L436 604Q442 600 441 594L436 568Q435 559 427 563L331 623L207
562Z" />
<glyph unicode="&#xe3;" horiz-adv-x="523" d="M176 -12Q126 -12 99 10T63 73T63 170L86 317Q102 414 155 455T299 496Q347 496 390 486T486 469L430 117Q425 85 422 58T418 7Q418 0 410 0H375Q369 0 369 7Q369 26 371 47T375 89Q322 38 273 13T176 -12ZM194 37Q235
37 278 61T380 138L426 430Q395 437 361 442T299 447Q230 447 191 416T139 312L116 169Q106 106 123 72T194 37ZM363 568Q341 568 327 574T301 586T273 592Q256 592 238 586T208 573Q204 572 202 574T200 580L204 606Q205 614 211 617Q222 625 239 632T280 639Q302
639 316 633T342 621T370 615Q388 615 405 621T434 633Q439 635 441 633T443 626L438 600Q437 593 432 589Q420 582 403 575T363 568Z" />
<glyph unicode="&#xe4;" horiz-adv-x="523" d="M176 -12Q126 -12 99 10T63 73T63 170L86 317Q102 414 155 455T299 496Q347 496 390 486T486 469L430 117Q425 85 422 58T418 7Q418 0 410 0H375Q369 0 369 7Q369 26 371 47T375 89Q322 38 273 13T176 -12ZM194 37Q235
37 278 61T380 138L426 430Q395 437 361 442T299 447Q230 447 191 416T139 312L116 169Q106 106 123 72T194 37ZM394 578Q375 578 368 588T362 613L363 622Q365 639 374 648T403 658Q422 658 429 648T435 622L434 613Q432 596 423 587T394 578ZM243 578Q224 578
217 588T211 613L212 622Q214 639 223 648T252 658Q271 658 278 648T284 622L283 613Q281 596 271 587T243 578Z" />
<glyph unicode="&#xe5;" horiz-adv-x="523" d="M176 -12Q126 -12 99 10T63 73T63 170L86 317Q102 414 155 455T299 496Q347 496 390 486T486 469L430 117Q425 85 422 58T418 7Q418 0 410 0H375Q369 0 369 7Q369 26 371 47T375 89Q322 38 273 13T176 -12ZM194 37Q235
37 278 61T380 138L426 430Q395 437 361 442T299 447Q230 447 191 416T139 312L116 169Q106 106 123 72T194 37ZM313 549Q271 549 248 569T224 627Q224 673 253 699T333 726Q375 726 398 705T422 648Q422 602 393 576T313 549ZM317 583Q348 583 365 599T382 646Q382
691 328 691Q298 691 281 675T264 629Q264 583 317 583Z" />
<glyph unicode="&#xe6;" horiz-adv-x="785" d="M158 -12Q107 -12 80 18T52 104Q52 185 103 226T255 270L368 275L376 329Q387 390 366 418T287 447Q233 447 205 428T171 366Q170 357 163 357H124Q118 357 118 366Q120 429 165 462T287 496Q341 496 375 475T420
414Q449 455 490 475T586 496Q661 496 702 464T743 372Q743 330 725 301T668 255T565 236L414 232L404 170Q395 104 425 71T522 37Q578 37 611 58T650 121Q650 129 657 129H697Q704 129 704 121Q701 80 678 50T613 4T514 -12Q449 -12 409 14T357 95Q318 55 285
32T222 -2T158 -12ZM172 37Q213 37 254 61T351 141Q352 155 353 168T356 198L361 231L253 226Q179 224 143 195T106 106Q106 72 122 55T172 37ZM421 275L559 279Q628 282 658 302T688 368Q688 406 660 426T577 447Q449 447 427 317L421 275Z" />
<glyph unicode="&#xe7;" horiz-adv-x="499" d="M232 -12Q138 -12 94 38T65 180L86 315Q101 404 152 450T298 496Q354 496 393 478T450 427T460 347Q458 339 451 339H413Q406 339 407 347Q414 395 382 421T292 447Q223 447 186 413T138 309L119 182Q108 111 138
74T237 37Q300 37 332 63T374 140Q374 148 381 148H420Q428 148 426 139Q417 65 368 27T232 -12ZM186 -197Q162 -197 138 -192Q130 -190 131 -184L135 -162Q136 -155 143 -156Q153 -158 163 -159T184 -160Q206 -160 217 -152T232 -126L234 -112Q238 -92 229 -84T195
-75H173Q166 -75 167 -68Q167 -63 168 -59T171 -52L200 10Q203 17 208 17H238Q245 17 242 10L215 -47H226Q256 -47 270 -63T278 -111L275 -128Q268 -165 248 -181T186 -197Z" />
<glyph unicode="&#xe8;" horiz-adv-x="500" d="M230 -12Q139 -12 95 37T64 177L86 315Q102 406 153 451T295 496Q374 496 415 464T457 373Q457 306 415 270T285 225L122 207L116 170Q107 105 138 71T235 37Q291 37 324 58T364 121Q365 129 372 129H412Q418 129
418 122Q415 81 392 51T327 4T230 -12ZM130 253L278 270Q345 278 373 301T402 370Q402 407 373 427T290 447Q224 447 187 414T139 317L130 253ZM328 559Q322 559 319 566L262 684Q261 687 262 689T267 691H311Q317 691 320 684L366 566Q368 559 360 559H328Z" />
<glyph unicode="&#xe9;" horiz-adv-x="500" d="M230 -12Q139 -12 95 37T64 177L86 315Q102 406 153 451T295 496Q374 496 415 464T457 373Q457 306 415 270T285 225L122 207L116 170Q107 105 138 71T235 37Q291 37 324 58T364 121Q365 129 372 129H412Q418 129
418 122Q415 81 392 51T327 4T230 -12ZM130 253L278 270Q345 278 373 301T402 370Q402 407 373 427T290 447Q224 447 187 414T139 317L130 253ZM258 559Q255 559 254 561T255 568L337 684Q341 691 349 691H389Q393 691 394 688T393 682L301 566Q295 559 289 559H258Z"
/>
<glyph unicode="&#xea;" horiz-adv-x="500" d="M230 -12Q139 -12 95 37T64 177L86 315Q102 406 153 451T295 496Q374 496 415 464T457 373Q457 306 415 270T285 225L122 207L116 170Q107 105 138 71T235 37Q291 37 324 58T364 121Q365 129 372 129H412Q418 129
418 122Q415 81 392 51T327 4T230 -12ZM130 253L278 270Q345 278 373 301T402 370Q402 407 373 427T290 447Q224 447 187 414T139 317L130 253ZM203 562Q199 560 196 561T194 566L200 598Q201 604 208 607L325 670Q330 673 335 670L432 604Q438 600 437 594L432
568Q431 559 423 563L327 623L203 562Z" />
<glyph unicode="&#xeb;" horiz-adv-x="500" d="M230 -12Q139 -12 95 37T64 177L86 315Q102 406 153 451T295 496Q374 496 415 464T457 373Q457 306 415 270T285 225L122 207L116 170Q107 105 138 71T235 37Q291 37 324 58T364 121Q365 129 372 129H412Q418 129
418 122Q415 81 392 51T327 4T230 -12ZM130 253L278 270Q345 278 373 301T402 370Q402 407 373 427T290 447Q224 447 187 414T139 317L130 253ZM390 578Q371 578 364 588T358 613L359 622Q361 639 370 648T399 658Q418 658 425 648T431 622L430 613Q428 596 419
587T390 578ZM239 578Q220 578 213 588T207 613L208 622Q210 639 219 648T248 658Q267 658 274 648T280 622L279 613Q277 596 267 587T239 578Z" />
<glyph unicode="&#xec;" horiz-adv-x="218" d="M60 0Q52 0 54 8L128 476Q130 484 137 484H174Q183 484 182 476L107 8Q105 0 98 0H60ZM186 559Q180 559 177 566L120 684Q119 687 120 689T125 691H169Q175 691 178 684L224 566Q226 559 218 559H186Z" />
<glyph unicode="&#xed;" horiz-adv-x="218" d="M60 0Q52 0 54 8L128 476Q130 484 137 484H174Q183 484 182 476L107 8Q105 0 98 0H60ZM116 559Q113 559 112 561T113 568L195 684Q199 691 207 691H247Q251 691 252 688T251 682L159 566Q153 559 147 559H116Z" />
<glyph unicode="&#xee;" horiz-adv-x="218" d="M60 0Q52 0 54 8L128 476Q130 484 137 484H174Q183 484 182 476L107 8Q105 0 98 0H60ZM318 562Q314 560 311 561T309 566L315 598Q316 604 323 607L440 670Q445 673 450 670L547 604Q553 600 552 594L547 568Q546
559 538 563L442 623L318 562Z" />
<glyph unicode="&#xef;" horiz-adv-x="218" d="M60 0Q52 0 54 8L128 476Q130 484 137 484H174Q183 484 182 476L107 8Q105 0 98 0H60ZM504 578Q485 578 478 588T472 613L473 622Q475 639 484 648T513 658Q532 658 539 648T545 622L544 613Q542 596 533 587T504
578ZM353 578Q334 578 327 588T321 613L322 622Q324 639 333 648T362 658Q381 658 388 648T394 622L393 613Q391 596 381 587T353 578Z" />
<glyph unicode="&#xf0;" horiz-adv-x="517" d="M236 -12Q140 -12 95 37T65 178L84 297Q96 372 140 412T254 452Q304 452 348 430T433 363L424 307Q387 355 345 379T258 404Q205 404 175 374T135 284L118 181Q106 108 138 73T241 37Q311 37 348 72T397 175L421
332Q435 394 430 446T403 539T344 610T255 654Q251 655 250 657T252 664L273 690Q275 693 278 694T284 693Q360 673 407 623T472 503T477 351L449 170Q434 78 381 33T236 -12ZM242 523Q234 520 233 526L224 553Q223 556 224 558T229 561L504 680Q511 683 513 677L521
650Q522 647 521 646T516 642L242 523Z" />
<glyph unicode="&#xf1;" horiz-adv-x="546" d="M388 0Q380 0 382 7L432 326Q451 447 352 447Q322 447 291 435T224 396T147 332L155 384Q209 436 262 466T371 496Q437 496 468 455T486 329L435 7Q433 0 427 0H388ZM60 0Q52 0 54 7L110 367Q115 393 118 424T122
476Q122 484 130 484H166Q173 484 174 477Q174 465 173 448T170 412T166 378L164 364L107 7Q106 4 104 2T98 0H60ZM384 568Q362 568 348 574T322 586T294 592Q277 592 259 586T229 573Q225 572 223 574T221 580L225 606Q226 614 232 617Q243 625 260 632T301 639Q323
639 337 633T363 621T391 615Q409 615 426 621T455 633Q460 635 462 633T464 626L459 600Q458 593 453 589Q441 582 424 575T384 568Z" />
<glyph unicode="&#xf2;" horiz-adv-x="518" d="M235 -12Q140 -12 96 38T66 182L87 316Q102 406 155 451T301 496Q393 496 438 447T470 303L450 170Q436 78 383 33T235 -12ZM240 37Q309 37 348 71T398 175L417 298Q428 372 397 409T295 447Q226 447 188 413T139
309L119 185Q108 113 138 75T240 37ZM333 559Q327 559 324 566L267 684Q266 687 267 689T272 691H316Q322 691 325 684L371 566Q373 559 365 559H333Z" />
<glyph unicode="&#xf3;" horiz-adv-x="518" d="M235 -12Q140 -12 96 38T66 182L87 316Q102 406 155 451T301 496Q393 496 438 447T470 303L450 170Q436 78 383 33T235 -12ZM240 37Q309 37 348 71T398 175L417 298Q428 372 397 409T295 447Q226 447 188 413T139
309L119 185Q108 113 138 75T240 37ZM263 559Q260 559 259 561T260 568L342 684Q346 691 354 691H394Q398 691 399 688T398 682L306 566Q300 559 294 559H263Z" />
<glyph unicode="&#xf4;" horiz-adv-x="518" d="M235 -12Q140 -12 96 38T66 182L87 316Q102 406 155 451T301 496Q393 496 438 447T470 303L450 170Q436 78 383 33T235 -12ZM240 37Q309 37 348 71T398 175L417 298Q428 372 397 409T295 447Q226 447 188 413T139
309L119 185Q108 113 138 75T240 37ZM208 562Q204 560 201 561T199 566L205 598Q206 604 213 607L330 670Q335 673 340 670L437 604Q443 600 442 594L437 568Q436 559 428 563L332 623L208 562Z" />
<glyph unicode="&#xf5;" horiz-adv-x="518" d="M235 -12Q140 -12 96 38T66 182L87 316Q102 406 155 451T301 496Q393 496 438 447T470 303L450 170Q436 78 383 33T235 -12ZM240 37Q309 37 348 71T398 175L417 298Q428 372 397 409T295 447Q226 447 188 413T139
309L119 185Q108 113 138 75T240 37ZM364 568Q342 568 328 574T302 586T274 592Q257 592 239 586T209 573Q205 572 203 574T201 580L205 606Q206 614 212 617Q223 625 240 632T281 639Q303 639 317 633T343 621T371 615Q389 615 406 621T435 633Q440 635 442 633T444
626L439 600Q438 593 433 589Q421 582 404 575T364 568Z" />
<glyph unicode="&#xf6;" horiz-adv-x="518" d="M235 -12Q140 -12 96 38T66 182L87 316Q102 406 155 451T301 496Q393 496 438 447T470 303L450 170Q436 78 383 33T235 -12ZM240 37Q309 37 348 71T398 175L417 298Q428 372 397 409T295 447Q226 447 188 413T139
309L119 185Q108 113 138 75T240 37ZM395 578Q376 578 369 588T363 613L364 622Q366 639 375 648T404 658Q423 658 430 648T436 622L435 613Q433 596 424 587T395 578ZM244 578Q225 578 218 588T212 613L213 622Q215 639 224 648T253 658Q272 658 279 648T285 622L284
613Q282 596 272 587T244 578Z" />
<glyph unicode="&#xf7;" horiz-adv-x="600" d="M127 278Q120 278 120 284V317Q120 324 127 324H513Q520 324 520 317V284Q520 278 513 278H127ZM320 122Q303 122 294 130T284 153V165Q284 180 293 189T320 198Q338 198 347 189T356 165V153Q356 139 347 131T320
122ZM320 403Q303 403 294 412T284 435V447Q284 462 293 470T320 479Q338 479 347 471T356 447V435Q356 421 347 412T320 403Z" />
<glyph unicode="&#xf8;" horiz-adv-x="518" d="M-15 -51Q-19 -51 -20 -48T-18 -43L92 80L105 94L403 422L419 441L504 534Q508 538 514 538H554Q558 538 559 536T557 530L444 405L429 388L130 60L112 40L34 -46Q29 -51 23 -51H-15ZM235 -12Q140 -12 96 38T66 182L87
316Q102 406 155 451T301 496Q393 496 438 447T470 303L450 170Q436 78 383 33T235 -12ZM240 37Q309 37 348 71T398 175L417 298Q428 372 397 409T295 447Q226 447 188 413T139 309L119 185Q108 113 138 75T240 37Z" />
<glyph unicode="&#xf9;" horiz-adv-x="533" d="M184 -12Q119 -12 92 30T77 155L128 476Q130 484 137 484H175Q183 484 182 476L130 158Q121 97 139 67T204 37Q249 37 296 65T405 152L396 99Q360 63 325 39T255 1T184 -12ZM386 0Q378 0 378 7Q379 29 381 52T387
99L388 126L443 476Q445 484 452 484H490Q498 484 496 476L439 117Q435 91 432 63T428 7Q428 0 420 0H386ZM333 559Q327 559 324 566L267 684Q266 687 267 689T272 691H316Q322 691 325 684L371 566Q373 559 365 559H333Z" />
<glyph unicode="&#xfa;" horiz-adv-x="533" d="M184 -12Q119 -12 92 30T77 155L128 476Q130 484 137 484H175Q183 484 182 476L130 158Q121 97 139 67T204 37Q249 37 296 65T405 152L396 99Q360 63 325 39T255 1T184 -12ZM386 0Q378 0 378 7Q379 29 381 52T387
99L388 126L443 476Q445 484 452 484H490Q498 484 496 476L439 117Q435 91 432 63T428 7Q428 0 420 0H386ZM263 559Q260 559 259 561T260 568L342 684Q346 691 354 691H394Q398 691 399 688T398 682L306 566Q300 559 294 559H263Z" />
<glyph unicode="&#xfb;" horiz-adv-x="533" d="M184 -12Q119 -12 92 30T77 155L128 476Q130 484 137 484H175Q183 484 182 476L130 158Q121 97 139 67T204 37Q249 37 296 65T405 152L396 99Q360 63 325 39T255 1T184 -12ZM386 0Q378 0 378 7Q379 29 381 52T387
99L388 126L443 476Q445 484 452 484H490Q498 484 496 476L439 117Q435 91 432 63T428 7Q428 0 420 0H386ZM208 562Q204 560 201 561T199 566L205 598Q206 604 213 607L330 670Q335 673 340 670L437 604Q443 600 442 594L437 568Q436 559 428 563L332 623L208 562Z"
/>
<glyph unicode="&#xfc;" horiz-adv-x="533" d="M184 -12Q119 -12 92 30T77 155L128 476Q130 484 137 484H175Q183 484 182 476L130 158Q121 97 139 67T204 37Q249 37 296 65T405 152L396 99Q360 63 325 39T255 1T184 -12ZM386 0Q378 0 378 7Q379 29 381 52T387
99L388 126L443 476Q445 484 452 484H490Q498 484 496 476L439 117Q435 91 432 63T428 7Q428 0 420 0H386ZM395 578Q376 578 369 588T363 613L364 622Q366 639 375 648T404 658Q423 658 430 648T436 622L435 613Q433 596 424 587T395 578ZM244 578Q225 578 218
588T212 613L213 622Q215 639 224 648T253 658Q272 658 279 648T285 622L284 613Q282 596 272 587T244 578Z" />
<glyph unicode="&#xfd;" horiz-adv-x="474" d="M86 -185Q78 -185 83 -177L183 6L72 475Q70 484 79 484H120Q126 484 127 477L187 215Q196 179 203 143T218 72H220Q238 107 257 142T294 211L439 478Q441 481 443 482T449 484H491Q495 484 496 482T496 475L137 -179Q134
-185 127 -185H86ZM239 559Q236 559 235 561T236 568L318 684Q322 691 330 691H370Q374 691 375 688T374 682L282 566Q276 559 270 559H239Z" />
<glyph unicode="&#xfe;" horiz-adv-x="523" d="M31 -185Q23 -185 25 -178L159 676Q161 683 168 683H206Q214 683 212 676L78 -178Q76 -185 69 -185H31ZM255 -12Q216 -12 174 -1T100 30L106 77Q139 57 177 47T252 37Q315 37 352 72T401 180L424 316Q435 383 415
415T347 447Q305 447 258 422T147 340L155 394Q214 446 263 471T364 496Q433 496 462 452T477 320L453 175Q437 82 388 35T255 -12Z" />
<glyph unicode="&#xff;" horiz-adv-x="474" d="M86 -185Q78 -185 83 -177L183 6L72 475Q70 484 79 484H120Q126 484 127 477L187 215Q196 179 203 143T218 72H220Q238 107 257 142T294 211L439 478Q441 481 443 482T449 484H491Q495 484 496 482T496 475L137 -179Q134
-185 127 -185H86ZM371 578Q352 578 345 588T339 613L340 622Q342 639 351 648T380 658Q399 658 406 648T412 622L411 613Q409 596 400 587T371 578ZM220 578Q201 578 194 588T188 613L189 622Q191 639 200 648T229 658Q248 658 255 648T261 622L260 613Q258 596
248 587T220 578Z" />
<glyph unicode="&#x2013;" horiz-adv-x="724" d="M87 244Q80 244 81 252L86 280Q88 287 95 287H653Q660 287 658 280L654 251Q652 244 646 244H87Z" />
<glyph unicode="&#x2014;" horiz-adv-x="860" d="M87 244Q80 244 81 252L86 280Q88 287 94 287H789Q797 287 795 280L790 251Q789 244 782 244H87Z" />
<glyph unicode="&#x2018;" horiz-adv-x="215" d="M225 655Q234 655 230 647L140 428Q138 422 131 422H86Q77 422 81 430L184 650Q187 655 193 655H225Z" />
<glyph unicode="&#x2019;" horiz-adv-x="214" d="M81 421Q73 421 77 430L166 649Q169 655 175 655H220Q230 655 226 646L122 427Q119 421 114 421H81Z" />
<glyph unicode="&#x201a;" horiz-adv-x="214" d="M-7 -137Q-15 -137 -11 -128L78 91Q81 97 87 97H132Q142 97 138 88L34 -131Q31 -137 26 -137H-7Z" />
<glyph unicode="&#x201c;" horiz-adv-x="368" d="M378 655Q386 655 382 647L292 428Q290 422 284 422H238Q229 422 233 430L337 650Q339 655 345 655H378ZM225 655Q234 655 230 647L140 428Q138 422 131 422H86Q77 422 81 430L184 650Q187 655 193 655H225Z" />
<glyph unicode="&#x201d;" horiz-adv-x="366" d="M81 421Q73 421 77 430L166 649Q169 655 175 655H220Q230 655 226 646L122 427Q119 421 114 421H81ZM234 421Q226 421 230 430L319 649Q322 655 328 655H373Q383 655 379 646L275 427Q272 421 267 421H234Z" />
<glyph unicode="&#x201e;" horiz-adv-x="366" d="M-7 -137Q-15 -137 -11 -128L78 91Q81 97 87 97H132Q142 97 138 88L34 -131Q31 -137 26 -137H-7ZM145 -137Q137 -137 141 -128L230 91Q233 97 239 97H284Q294 97 290 88L186 -131Q183 -137 178 -137H145Z" />
<glyph unicode="&#x2022;" horiz-adv-x="275" d="M136 197Q106 197 91 213T79 255L84 287Q87 313 104 326T152 339Q182 339 198 324T210 282L206 249Q202 223 185 210T136 197Z" />
<glyph unicode="&#x2039;" horiz-adv-x="309" d="M169 93Q164 93 162 98L93 257Q91 263 95 269L213 428Q218 433 222 433H262Q266 433 267 431T266 425L148 260L212 101Q214 98 212 96T206 93H169Z" />
<glyph unicode="&#x203a;" horiz-adv-x="309" d="M165 433Q170 433 172 428L240 269Q243 263 239 257L120 98Q117 93 111 93H71Q68 93 67 95T67 101L186 266L121 425Q119 428 121 430T127 433H165Z" />
</font>
</defs>
</svg>
