<?xml version="1.0" standalone="no"?>
<!DOCTYPE svg PUBLIC "-//W3C//DTD SVG 1.1//EN" "http://www.w3.org/Graphics/SVG/1.1/DTD/svg11.dtd">
<svg xmlns="http://www.w3.org/2000/svg">
<defs >
<font id="SofiaSansCondensed" horiz-adv-x="418" ><font-face
    font-family="Sofia Sans Condensed"
    units-per-em="1000"
    panose-1="0 0 0 0 0 0 0 0 0 0"
    ascent="900"
    descent="-300"
    alphabetic="0" />
<glyph unicode=" " horiz-adv-x="156" />
<glyph unicode="!" horiz-adv-x="224" d="M68 212Q58 212 58 223L50 644Q50 655 59 655H167Q177 655 177 644L169 223Q169 212 159 212H68ZM113 -8Q81 -8 63 8T45 54V70Q45 102 63 117T113 133Q147 133 164 118T181 70V54Q181 24 164 8T113 -8Z" />
<glyph unicode="&quot;" horiz-adv-x="344" d="M212 400Q201 400 201 411V672Q201 683 212 683H296Q308 683 308 672V411Q308 400 296 400H212ZM48 400Q37 400 37 411V672Q37 683 48 683H132Q144 683 144 672V411Q144 400 132 400H48Z" />
<glyph unicode="#" horiz-adv-x="486" d="M100 0Q89 0 89 11V119H33Q21 119 21 130V195Q21 206 33 206H89V407H33Q21 407 21 418V483Q21 494 33 494H89V602Q89 613 100 613H167Q179 613 179 602V494H306V602Q306 613 318 613H385Q397 613 397 602V494H453Q464
494 464 483V418Q464 407 453 407H397V206H453Q464 206 464 195V130Q464 119 453 119H397V11Q397 0 385 0H318Q306 0 306 11V119H179V11Q179 0 167 0H100ZM179 206H306V407H179V206Z" />
<glyph unicode="$" horiz-adv-x="511" d="M250 -8Q153 -8 109 43T71 187Q71 199 82 199H170Q180 199 180 187Q176 140 194 115T253 89Q291 89 309 107T328 166Q328 188 323 204T307 233T275 260L172 324Q121 358 97 398T74 500Q75 580 121 621T250 663Q343 663
390 614T430 472Q429 460 419 460H330Q319 460 320 472Q323 516 306 541T251 566Q221 566 204 550T185 499Q185 467 198 447T240 408L341 344Q376 322 398 298T430 242T440 167Q439 82 392 37T250 -8ZM216 -88Q207 -88 207 -79V4L302 9V-79Q302 -88 293 -88H216ZM207
647V733Q207 742 216 742H293Q302 742 302 733V645L207 647Z" />
<glyph unicode="%" horiz-adv-x="754" d="M189 0Q176 0 182 14L338 345L473 648Q476 656 485 656H565Q571 656 573 653T571 643L424 331L281 8Q278 0 269 0H189ZM180 313Q112 313 78 351T44 452V524Q44 586 78 624T180 663Q249 663 282 625T316 524V452Q316 389
282 351T180 313ZM180 394Q207 394 219 408T232 452V525Q232 554 220 568T180 583Q153 583 141 569T128 525V452Q128 423 140 409T180 394ZM574 -8Q506 -8 472 30T438 130V202Q438 264 472 303T574 342Q643 342 677 303T711 202V130Q711 68 677 30T574 -8ZM574
72Q602 72 614 86T626 130V203Q626 232 614 246T574 261Q547 261 535 247T523 203V130Q523 101 535 87T574 72Z" />
<glyph unicode="&amp;" horiz-adv-x="531" d="M416 0Q407 0 403 6L130 352Q95 393 79 435T62 524Q62 593 98 628T205 663Q268 663 302 630T337 536Q337 502 326 470T292 406T232 339L174 399Q197 424 212 444T234 484T242 527Q242 553 233 566T201 579Q179 579
168 566T157 524Q157 496 169 466T207 406L520 14Q524 9 523 5T515 0H416ZM209 -8Q123 -8 79 37T34 158Q34 204 47 241T90 315T165 391L206 316Q180 287 164 263T140 216T132 163Q132 124 153 101T216 78Q293 78 329 149T366 359Q366 371 377 371H450Q461 371 461
359Q461 244 432 162T347 36T209 -8Z" />
<glyph unicode="&apos;" horiz-adv-x="180" d="M48 400Q37 400 37 411V672Q37 683 48 683H132Q144 683 144 672V411Q144 400 132 400H48Z" />
<glyph unicode="(" horiz-adv-x="231" d="M138 -162Q105 -130 85 -102T55 -38T45 51V504Q45 557 54 592T85 656T138 717Q142 721 147 721T157 717L208 669Q212 665 212 660T207 651Q186 627 172 606T151 560T144 496V58Q144 21 151 -4T172 -50T207 -96Q211 -101
211 -105T208 -114L157 -163Q153 -168 148 -168T138 -162Z" />
<glyph unicode=")" horiz-adv-x="232" d="M74 -163L23 -114Q16 -106 24 -96Q46 -72 59 -51T80 -5T87 58V496Q87 535 80 560T60 605T24 651Q15 660 23 669L74 717Q79 722 84 722T93 717Q125 685 146 657T177 593T187 504V51Q187 -2 178 -37T147 -101T93 -162Q89
-167 84 -167T74 -163Z" />
<glyph unicode="*" horiz-adv-x="353" d="M123 426L75 464Q71 468 71 472T74 479L128 535L51 549Q45 550 43 553T42 562L61 619Q64 625 68 626T77 625L146 590L139 673Q137 683 147 683H205Q209 683 211 680T213 673L206 589L275 625Q280 628 284 626T290 619L310
562Q312 557 310 554T302 549L224 533L277 479Q281 476 281 471T276 463L226 428Q218 421 212 432L176 497L139 430Q136 425 133 424T123 426Z" />
<glyph unicode="+" horiz-adv-x="489" d="M210 139Q199 139 199 151V255H88Q77 255 77 267V334Q77 346 88 346H199V451Q199 462 210 462H280Q291 462 291 451V346H401Q413 346 413 334V267Q413 255 401 255H291V151Q291 139 280 139H210Z" />
<glyph unicode="," horiz-adv-x="236" d="M32 -140Q20 -140 23 -127L70 124Q72 135 82 135H189Q202 135 198 121L121 -131Q119 -140 110 -140H32Z" />
<glyph unicode="-" horiz-adv-x="383" d="M55 223Q44 223 44 235V297Q44 309 55 309H327Q338 309 338 297V235Q338 223 327 223H55Z" />
<glyph unicode="." horiz-adv-x="228" d="M114 -8Q80 -8 61 9T42 57V74Q42 105 61 122T114 139Q186 139 186 74V57Q186 27 168 10T114 -8Z" />
<glyph unicode="/" horiz-adv-x="328" d="M18 0Q5 0 9 12L219 646Q223 655 231 655H311Q323 655 319 643L109 9Q106 0 97 0H18Z" />
<glyph unicode="0" horiz-adv-x="476" d="M238 -8Q142 -8 92 46T42 203V452Q42 555 92 609T238 663Q334 663 384 609T434 452V203Q434 100 384 46T238 -8ZM238 90Q280 90 301 118T323 204V451Q323 509 302 537T238 565Q196 565 175 537T153 451V204Q153 147 174
119T238 90Z" />
<glyph unicode="1" horiz-adv-x="392" d="M39 0Q28 0 28 11V86Q28 99 39 99H154L155 535L44 497Q39 495 36 497T32 505V579Q32 589 41 592L220 657Q224 658 227 658T234 659H253Q265 659 265 648V99H370Q381 99 381 86V11Q381 0 370 0H39Z" />
<glyph unicode="2" horiz-adv-x="438" d="M49 0Q38 0 38 11V86Q38 143 56 184T102 257T163 315T224 366T271 419T289 485V500Q289 536 273 551T220 567Q183 567 167 546T152 482Q152 471 141 471H59Q48 471 48 482Q44 570 90 616T225 663Q312 663 356 623T400
498Q400 449 387 413T353 350T305 300T253 257T206 214T171 164T158 99H386Q397 99 397 86V11Q397 0 386 0H49Z" />
<glyph unicode="3" horiz-adv-x="448" d="M215 -8Q119 -8 77 41T38 174Q38 186 49 186H131Q142 186 142 175Q142 129 160 109T218 89Q257 89 278 110T299 177V200Q299 245 279 266T211 288H165Q153 288 153 299V369Q153 380 165 380H207Q248 380 268 402T288 471V493Q288
532 271 549T217 567Q177 567 160 547T143 484Q143 473 132 473H50Q39 473 39 484Q37 572 83 617T222 663Q311 663 355 622T399 496Q399 437 378 399T321 342V340Q364 323 387 285T410 185Q410 90 360 41T215 -8Z" />
<glyph unicode="4" horiz-adv-x="465" d="M291 0Q279 0 279 11V121H20Q8 121 8 132V148Q8 154 9 158T11 166L207 646Q210 655 219 655H309Q322 655 318 642L151 219H280L293 424Q294 435 305 435H377Q389 435 389 424V219H435Q447 219 447 207V132Q447 121 435
121H389V11Q389 0 377 0H291Z" />
<glyph unicode="5" horiz-adv-x="439" d="M205 -8Q143 -8 103 14T45 77T30 173Q31 184 42 184H123Q135 184 135 173Q134 135 151 112T209 89Q254 89 274 114T294 194V225Q294 260 285 283T256 317T204 328Q172 328 135 318T63 294Q53 290 49 293T45 304L69 644Q70
655 81 655H358Q370 655 370 644V569Q370 556 358 556H164L153 404Q178 412 201 415T249 419Q326 419 365 369T404 209Q404 102 355 47T205 -8Z" />
<glyph unicode="6" horiz-adv-x="471" d="M238 -8Q139 -8 91 43T42 201V455Q42 557 92 610T239 663Q322 663 369 625T416 514Q416 502 405 502H323Q312 502 312 514Q312 540 293 553T241 567Q196 567 175 543T153 462V197Q153 142 173 115T236 88Q280 88 301 117T322
209V229Q322 281 306 303T252 325Q225 325 197 313T140 277V362Q176 389 213 403T290 417Q364 417 399 370T434 225Q434 109 386 51T238 -8Z" />
<glyph unicode="7" horiz-adv-x="436" d="M108 0Q103 0 101 4T100 15L290 558H135V487Q135 475 124 475H40Q29 475 29 487V644Q29 655 40 655H423Q434 655 434 644V637Q434 633 434 630T431 622L218 9Q215 0 204 0H108Z" />
<glyph unicode="8" horiz-adv-x="472" d="M236 -8Q136 -8 85 38T33 176Q33 241 57 285T127 350Q91 371 73 406T55 494Q55 575 101 619T236 663Q324 663 371 619T418 494Q418 441 400 406T345 350Q391 329 415 285T439 176Q439 84 388 38T236 -8ZM236 84Q283 84
306 107T329 180V198Q329 253 306 279T236 306Q191 306 168 280T144 198V180Q144 131 166 108T236 84ZM236 388Q272 388 290 409T308 471V493Q308 534 290 554T236 574Q201 574 183 554T164 493V471Q164 430 182 409T236 388Z" />
<glyph unicode="9" horiz-adv-x="474" d="M235 -8Q147 -8 101 34T54 154Q54 166 66 166H147Q159 166 159 154Q159 126 177 107T234 88Q279 88 300 113T321 195V456Q321 512 301 540T236 568Q192 568 172 541T151 448V426Q151 375 169 351T225 327Q252 327 280
339T335 376V291Q300 264 264 250T188 235Q113 235 77 284T40 434Q40 553 88 608T236 663Q336 663 384 611T432 452V203Q432 97 383 45T235 -8Z" />
<glyph unicode=":" horiz-adv-x="223" d="M111 334Q79 334 61 351T42 398V415Q42 445 60 462T111 479Q146 479 163 462T181 415V398Q181 369 164 352T111 334ZM111 -8Q79 -8 61 9T42 56V72Q42 102 60 119T111 137Q146 137 163 120T181 72V56Q181 27 164 10T111 -8Z" />
<glyph unicode=";" horiz-adv-x="236" d="M21 -140Q9 -140 12 -127L60 125Q62 135 70 135H178Q184 135 186 132T187 121L110 -131Q108 -140 99 -140H21ZM121 334Q88 334 70 351T52 398V415Q52 445 70 462T121 479Q156 479 173 462T191 415V398Q191 369 174 352T121 334Z" />
<glyph unicode="&lt;" horiz-adv-x="489" d="M399 108L87 252Q79 256 79 264V330Q79 339 87 343L399 486Q405 489 408 486T411 477V390Q411 381 403 377L189 298L403 217Q411 213 411 204V117Q411 112 408 109T399 108Z" />
<glyph unicode="=" horiz-adv-x="489" d="M86 339Q75 339 75 351V419Q75 430 86 430H403Q414 430 414 419V351Q414 339 403 339H86ZM86 172Q75 172 75 183V251Q75 263 86 263H403Q414 263 414 251V183Q414 172 403 172H86Z" />
<glyph unicode="&gt;" horiz-adv-x="489" d="M90 108Q85 106 82 109T79 117V204Q79 213 87 217L301 298L87 377Q79 381 79 390V477Q79 483 82 486T91 486L403 343Q411 340 411 330V264Q411 255 403 252L90 108Z" />
<glyph unicode="?" horiz-adv-x="397" d="M135 212Q126 212 126 222V262Q126 296 139 321T171 368T210 411T243 456T256 513Q256 544 243 557T198 571Q160 571 147 547T136 477Q136 465 126 465H44Q38 465 36 469T33 479Q28 572 70 617T201 663Q287 663 327 628T367
523Q367 479 354 446T322 387T284 341T251 299T237 255V222Q237 212 227 212H135ZM185 -8Q151 -8 134 8T117 54V70Q117 102 134 117T185 133Q218 133 235 118T253 70V54Q253 24 236 8T185 -8Z" />
<glyph unicode="@" horiz-adv-x="769" d="M382 -185Q266 -185 189 -143T73 -17T34 188V305Q34 426 73 512T191 645T384 691Q499 691 577 649T695 525T735 329V278Q735 157 684 90T545 23Q501 23 472 42T429 96T421 174L447 388Q436 393 421 394T388 395Q362 395
347 378T327 319L311 178Q308 143 316 128T347 112Q369 112 393 131T441 177L458 105Q420 65 384 44T307 22Q255 22 233 61T219 169L237 325Q245 401 281 440T385 480Q427 480 461 472T531 459Q542 458 541 446L512 192Q507 149 517 130T554 110Q593 110 613 150T634
278V327Q634 462 573 531T384 601Q302 601 247 568T163 468T134 301V191Q134 94 161 31T244 -63T386 -94H496Q507 -94 507 -106V-174Q507 -185 496 -185H382Z" />
<glyph unicode="A" horiz-adv-x="476" d="M8 0Q-3 0 0 12L165 646Q168 655 177 655H298Q307 655 311 646L476 12Q479 0 468 0H367Q359 0 356 9L265 414Q257 448 251 481T238 548H236Q230 515 224 482T209 414L118 9Q117 0 107 0H8ZM130 140L149 234H323L343 140H130Z" />
<glyph unicode="B" horiz-adv-x="475" d="M66 0Q55 0 55 11V644Q55 655 66 655H223Q324 655 373 615T422 493Q422 438 401 404T333 347V345Q388 331 416 292T445 187Q445 91 393 46T228 0H66ZM167 95H230Q283 95 308 119T333 195Q333 244 308 268T230 293H167V95ZM167
380H223Q268 380 289 403T311 473Q311 519 289 539T218 560H167V380Z" />
<glyph unicode="C" horiz-adv-x="513" d="M259 -8Q155 -8 100 48T45 220V434Q45 548 100 605T259 663Q331 663 381 635T454 556T468 434Q467 423 458 423H366Q355 423 356 434Q361 496 337 529T260 562Q209 562 183 531T157 431V225Q157 156 183 125T260 93Q315
93 338 128T357 221Q356 233 366 233H458Q468 233 469 220Q478 115 423 54T259 -8Z" />
<glyph unicode="D" horiz-adv-x="518" d="M66 0Q55 0 55 11V644Q55 655 65 655H225Q352 655 415 586T478 377V299Q478 148 416 74T228 0H66ZM167 100H222Q297 100 331 148T366 297V378Q366 468 331 511T219 555H167V100Z" />
<glyph unicode="E" horiz-adv-x="434" d="M65 0Q55 0 55 11V644Q55 655 65 655H378Q388 655 388 644V565Q388 554 378 554H167V380H360Q370 380 370 369V295Q370 284 360 284H167V101H378Q388 101 388 90V11Q388 0 378 0H65Z" />
<glyph unicode="F" horiz-adv-x="419" d="M64 0Q55 0 55 11V644Q55 655 65 655H378Q388 655 388 644V565Q388 554 378 554H167V370H349Q359 370 359 359V284Q359 272 349 272H167V11Q167 0 157 0H64Z" />
<glyph unicode="G" horiz-adv-x="525" d="M234 -8Q144 -8 95 48T45 214V435Q45 546 101 604T260 663Q331 663 379 637T450 562T467 448Q466 437 457 437H365Q354 437 355 449Q359 502 336 532T262 562Q209 562 183 531T157 433V220Q157 153 181 123T258 93Q309
93 335 124T361 215V255H267Q257 255 257 266V330Q257 341 267 341H460Q470 341 470 330V146Q470 103 471 71T477 12Q479 0 467 0H394Q385 0 383 10Q381 22 380 38T377 75H376Q364 50 344 31T297 2T234 -8Z" />
<glyph unicode="H" horiz-adv-x="533" d="M65 0Q55 0 55 11V644Q55 655 65 655H157Q167 655 167 644V385H365V644Q365 655 376 655H467Q478 655 478 644V11Q478 0 467 0H376Q365 0 365 11V284H167V11Q167 0 157 0H65Z" />
<glyph unicode="I" horiz-adv-x="222" d="M65 0Q55 0 55 11V644Q55 655 65 655H157Q167 655 167 644V11Q167 0 157 0H65Z" />
<glyph unicode="J" horiz-adv-x="225" d="M28 -150Q15 -154 12 -143L-11 -67Q-13 -61 -11 -57T-2 -51Q18 -45 31 -31T51 11T58 83V644Q58 655 68 655H161Q170 655 170 644V88Q170 14 155 -35T107 -112T28 -150Z" />
<glyph unicode="K" horiz-adv-x="493" d="M65 0Q55 0 55 11V644Q55 655 65 655H157Q167 655 167 644V480Q167 460 167 437T165 390T162 345H165Q180 375 196 408T231 475L342 649Q344 655 354 655H462Q468 655 469 651T468 641L306 386L486 14Q489 8 487 4T479
0H368Q360 0 356 8L228 288L167 200V11Q167 0 157 0H65Z" />
<glyph unicode="L" horiz-adv-x="393" d="M65 0Q55 0 55 11V644Q55 655 65 655H157Q162 655 164 652T167 644V101H367Q377 101 377 90V11Q377 0 367 0H65Z" />
<glyph unicode="M" horiz-adv-x="632" d="M55 0Q45 0 45 11L55 644Q55 655 65 655H184Q193 655 196 646L317 294L436 646Q439 655 448 655H567Q577 655 577 644L588 11Q588 0 577 0H487Q477 0 477 11L472 330Q471 373 472 413T476 489H474Q464 455 452 420T427
352L329 87Q326 79 318 79H313Q305 79 303 87L204 354Q191 387 180 421T158 489H156Q159 453 160 414T160 331L155 11Q155 0 145 0H55Z" />
<glyph unicode="N" horiz-adv-x="534" d="M64 0Q55 0 55 11V644Q55 655 65 655H192Q201 655 203 647L320 321Q331 294 341 263T361 202T377 148H379Q377 175 376 210T373 281T372 343V644Q372 655 382 655H469Q479 655 479 644V11Q479 0 469 0H344Q336 0 332 8L216
325Q199 371 185 417T159 504H157Q159 475 160 439T161 366T162 300V11Q162 0 152 0H64Z" />
<glyph unicode="O" horiz-adv-x="520" d="M259 -8Q154 -8 100 48T45 215V439Q45 550 99 606T259 663Q366 663 420 607T475 439V215Q475 105 421 49T259 -8ZM259 93Q311 93 337 124T363 220V434Q363 500 337 531T259 562Q209 562 183 531T157 434V220Q157 155 183
124T259 93Z" />
<glyph unicode="P" horiz-adv-x="452" d="M65 0Q55 0 55 11V644Q55 655 65 655H214Q322 655 373 602T424 443Q424 340 372 286T216 232H167V11Q167 0 157 0H65ZM167 331H213Q264 331 288 358T312 441Q312 502 288 529T214 556H167V331Z" />
<glyph unicode="Q" horiz-adv-x="520" d="M362 -183Q302 -183 271 -133T241 33Q241 43 252 43L330 44Q339 44 339 33Q339 -39 349 -65T384 -91Q393 -91 399 -90T413 -86Q423 -84 423 -96V-158Q423 -169 415 -173Q406 -176 393 -179T362 -183ZM259 -8Q154 -8 100
48T45 215V439Q45 550 99 606T259 663Q366 663 420 607T475 439V215Q475 105 421 49T259 -8ZM259 93Q311 93 337 124T363 220V434Q363 500 337 531T259 562Q209 562 183 531T157 434V220Q157 155 183 124T259 93Z" />
<glyph unicode="R" horiz-adv-x="491" d="M65 0Q55 0 55 11V644Q55 655 65 655H230Q338 655 389 608T440 464Q440 393 415 348T343 284V282L468 14Q474 0 461 0H358Q350 0 346 8L233 264H167V11Q167 0 157 0H65ZM167 357H229Q281 357 304 382T328 459Q328 511
305 533T231 555H167V357Z" />
<glyph unicode="S" horiz-adv-x="451" d="M221 -8Q115 -8 70 44T32 186Q33 200 43 200H133Q143 200 142 186Q140 139 160 115T224 90Q267 90 287 108T307 166Q307 187 302 203T283 232T249 258L141 322Q85 356 61 396T37 498Q38 578 83 620T219 663Q318 663 367
614T408 475Q406 460 398 460H306Q296 460 297 475Q301 516 281 540T221 565Q187 565 169 549T149 498Q148 467 162 447T209 408L314 346Q353 323 375 298T408 242T418 166Q418 82 371 37T221 -8Z" />
<glyph unicode="T" horiz-adv-x="435" d="M171 0Q161 0 161 11V554H30Q20 554 20 565V644Q20 655 30 655H405Q415 655 415 644V565Q415 554 405 554H274V11Q274 0 264 0H171Z" />
<glyph unicode="U" horiz-adv-x="521" d="M261 -8Q156 -8 104 49T51 223V644Q51 655 61 655H153Q163 655 163 644V225Q163 156 187 125T261 93Q311 93 334 124T358 225V644Q358 655 368 655H460Q470 655 470 644V222Q470 108 417 50T261 -8Z" />
<glyph unicode="V" horiz-adv-x="490" d="M181 0Q173 0 170 9L10 642Q7 655 18 655H119Q128 655 130 646L218 250Q225 215 231 180T243 108H245Q251 145 258 180T272 250L360 646Q362 655 372 655H472Q483 655 480 643L319 9Q317 0 308 0H181Z" />
<glyph unicode="W" horiz-adv-x="698" d="M157 0Q148 0 146 9L13 642Q10 655 22 655H115Q124 655 126 646L191 327Q200 276 206 224T215 121H217Q224 156 231 190T246 259L304 509L276 629Q275 635 277 638T285 642H376Q384 642 386 633L461 261Q468 226 473 191T484
121H485Q490 172 495 224T510 330L572 646Q574 655 583 655H677Q689 655 685 642L554 10Q551 0 543 0H433Q424 0 422 10L378 228Q371 261 365 293T354 358H351Q345 326 339 294T323 228L274 9Q272 0 263 0H157Z" />
<glyph unicode="X" horiz-adv-x="466" d="M10 0Q-3 0 4 14L167 337L13 641Q10 647 12 651T20 655H129Q137 655 139 648L199 517Q209 494 217 471T234 424H236Q244 447 253 471T272 519L329 648Q332 655 340 655H447Q460 655 453 641L300 336L462 14Q465 9 464
5T455 0H346Q338 0 334 7L271 150Q261 173 252 198T233 248H231Q223 224 214 199T194 151L129 8Q126 0 118 0H10Z" />
<glyph unicode="Y" horiz-adv-x="461" d="M184 0Q175 0 175 11V225L7 641Q5 647 7 651T14 655H118Q128 655 129 647L194 455Q204 425 213 396T231 337H232Q240 367 249 396T269 455L333 647Q335 655 344 655H446Q452 655 454 651T454 641L287 226V11Q287 0 277 0H184Z" />
<glyph unicode="Z" horiz-adv-x="442" d="M21 0Q12 0 12 10V15Q12 22 15 29L219 450Q231 476 244 502T271 553V555Q249 554 226 554T179 554H45Q35 554 35 565V644Q35 655 45 655H418Q428 655 428 645V640Q428 637 428 634T425 626L218 201Q205 176 192 151T166
101V100Q191 101 214 101T260 101H399Q409 101 409 90V11Q409 0 399 0H21Z" />
<glyph unicode="[" horiz-adv-x="225" d="M56 -162Q45 -162 45 -150V705Q45 717 56 717H217Q229 717 229 705V641Q229 629 217 629H144V-75H217Q229 -75 229 -86V-150Q229 -162 217 -162H56Z" />
<glyph unicode="\" horiz-adv-x="328" d="M231 0Q223 0 219 9L9 642Q5 655 18 655H97Q106 655 109 646L319 13Q323 0 311 0H231Z" />
<glyph unicode="]" horiz-adv-x="225" d="M7 -162Q-5 -162 -5 -150V-86Q-5 -75 7 -75H80V629H7Q-5 629 -5 641V705Q-5 717 7 717H169Q180 717 180 705V-150Q180 -162 169 -162H7Z" />
<glyph unicode="^" d="M39 350Q26 350 32 363L163 675Q166 683 175 683H244Q252 683 256 675L386 364Q389 358 387 354T380 350H297Q288 350 285 358L210 578L132 358Q131 350 121 350H39Z" />
<glyph unicode="_" horiz-adv-x="423" d="M21 -145Q10 -145 10 -133V-70Q10 -58 21 -58H402Q414 -58 414 -70V-133Q414 -145 402 -145H21Z" />
<glyph unicode="`" horiz-adv-x="230" d="M129 557Q120 557 114 565L32 689Q29 694 30 698T38 702H119Q128 702 132 693L198 569Q204 557 192 557H129Z" />
<glyph unicode="a" horiz-adv-x="409" d="M280 0Q272 0 269 11Q267 25 265 50T262 96L252 119V348Q252 385 242 398T201 412Q147 412 151 355Q152 344 140 344H60Q49 344 48 359Q42 427 83 464T205 501Q287 501 324 465T362 347V125Q362 85 363 58T366 13Q368
0 357 0H280ZM132 -8Q84 -8 58 27T31 126Q31 199 67 237T192 285L263 294V225L209 219Q170 214 154 196T137 140Q137 110 146 95T174 80Q195 80 216 95T268 148L275 77Q237 34 205 13T132 -8Z" />
<glyph unicode="b" horiz-adv-x="434" d="M225 -8Q176 -8 136 0T47 12V672Q47 683 57 683H147Q157 683 157 672V93Q170 89 185 88T214 86Q250 86 266 107T283 175V340Q283 373 272 388T237 403Q216 403 193 389T143 346L141 428Q178 465 212 483T282 501Q339 501
366 466T393 358V169Q393 78 352 35T225 -8Z" />
<glyph unicode="c" horiz-adv-x="422" d="M218 -8Q129 -8 84 38T38 177V317Q38 408 84 454T217 501Q272 501 310 480T368 422T383 336Q382 319 372 319H291Q281 319 281 332Q282 368 266 385T218 403Q183 403 166 383T148 312V181Q148 132 165 111T218 89Q250
89 265 107T280 160Q280 174 290 174H372Q383 174 383 162Q384 79 343 36T218 -8Z" />
<glyph unicode="d" horiz-adv-x="436" d="M152 -8Q96 -8 68 28T40 139V335Q40 418 75 459T176 501Q207 501 238 493T291 471L292 384Q271 396 250 401T212 407Q181 407 166 387T150 325V150Q150 119 161 104T197 89Q220 89 242 104T292 150L301 79Q269 39 233
16T152 -8ZM307 0Q297 0 296 11Q293 28 291 53T289 95L279 123V672Q279 683 290 683H379Q389 683 389 672V124Q389 90 390 61T393 14Q395 0 384 0H307Z" />
<glyph unicode="e" horiz-adv-x="427" d="M216 -8Q127 -8 83 36T38 171V318Q38 409 83 455T213 501Q301 501 345 455T389 318V231Q389 220 379 220H147V171Q147 124 163 103T216 82Q247 82 262 95T276 135Q276 147 286 147H372Q380 147 382 136Q383 65 342 29T216
-8ZM147 295H280V326Q280 370 265 390T215 411Q180 411 164 391T147 326V295Z" />
<glyph unicode="f" horiz-adv-x="312" d="M92 0Q87 0 85 3T82 11V396H26Q15 396 15 407V481Q15 492 26 492H82V540Q82 615 116 653T218 691Q247 691 271 687T310 678Q320 673 320 664V596Q320 582 305 588Q292 592 277 596T245 600Q218 600 205 585T192 536V492H282Q293
492 293 481V407Q293 396 282 396H192V11Q192 7 189 4T181 0H92Z" />
<glyph unicode="g" horiz-adv-x="421" d="M205 -193Q106 -193 62 -164T17 -74Q17 -34 36 -5T93 44L172 18Q150 8 139 -10T127 -50Q127 -79 146 -92T210 -105Q261 -105 279 -92T298 -47Q298 -21 287 -9T249 5L131 14Q90 18 68 41T45 105Q45 141 64 164T113 205L176
173Q158 167 149 157T139 133Q139 120 147 113T176 103L284 94Q348 89 376 55T404 -48Q404 -123 357 -158T205 -193ZM213 158Q130 158 92 199T53 330Q53 419 91 460T214 501Q298 501 335 460T373 330Q373 240 335 199T213 158ZM213 246Q245 246 257 264T269 329Q269
376 257 394T213 413Q181 413 170 395T158 329Q158 282 169 264T213 246ZM324 450L248 481Q249 522 252 554T259 609Q261 621 269 621H339Q351 621 348 609Q340 572 334 536T324 450Z" />
<glyph unicode="h" horiz-adv-x="445" d="M298 0Q288 0 288 11V343Q288 375 277 389T242 403Q219 403 196 388T147 345L137 414Q169 453 206 477T288 501Q343 501 370 467T398 359V11Q398 0 388 0H298ZM57 0Q47 0 47 11V672Q47 683 57 683H147Q157 683 157 672V11Q157
0 147 0H57Z" />
<glyph unicode="i" horiz-adv-x="203" d="M57 0Q47 0 47 11V481Q47 492 57 492H147Q157 492 157 481V11Q157 0 147 0H57ZM102 564Q71 564 54 580T37 624V638Q37 667 54 683T102 699Q134 699 150 683T167 638V624Q167 596 151 580T102 564Z" />
<glyph unicode="j" horiz-adv-x="200" d="M53 -189Q45 -194 39 -186L-12 -123Q-21 -114 -12 -107Q8 -90 20 -66T39 -8T45 72V481Q45 492 55 492H144Q155 492 155 481V69Q155 5 146 -43T114 -127T53 -189ZM101 564Q70 564 53 580T36 624V638Q36 667 53 683T101
699Q133 699 149 683T166 638V624Q166 596 150 580T101 564Z" />
<glyph unicode="k" horiz-adv-x="422" d="M57 0Q47 0 47 11V672Q47 683 57 683H147Q157 683 157 672V422Q157 390 157 356T154 288H156Q168 312 181 335T209 382L279 486Q283 492 290 492H395Q402 492 403 488T401 479L273 293L412 14Q415 9 413 5T405 0H302Q294
0 290 7L197 205L157 151V11Q157 0 147 0H57Z" />
<glyph unicode="l" horiz-adv-x="203" d="M57 0Q47 0 47 11V672Q47 683 57 683H147Q157 683 157 672V11Q157 0 147 0H57Z" />
<glyph unicode="m" horiz-adv-x="663" d="M57 0Q47 0 47 11V367Q47 402 46 430T43 479Q42 492 53 492H131Q139 492 141 483Q143 470 144 456T147 425Q177 460 209 480T283 501Q321 501 344 483T378 428Q408 462 440 481T512 501Q563 501 590 467T617 363V11Q617
0 607 0H517Q507 0 507 11V347Q507 376 497 389T466 403Q447 403 428 391T387 356V11Q387 0 377 0H287Q277 0 277 11V347Q277 376 267 389T236 403Q217 403 198 391T157 356V11Q157 0 147 0H57Z" />
<glyph unicode="n" horiz-adv-x="445" d="M299 0Q288 0 288 11V343Q288 375 277 389T241 403Q219 403 197 389T147 345L136 413Q169 453 206 477T288 501Q343 501 370 467T398 359V11Q398 0 388 0H299ZM57 0Q47 0 47 11V367Q47 402 46 430T43 479Q42 492 52 492H130Q139
492 141 482Q143 466 145 439T149 393L157 366V11Q157 0 147 0H57Z" />
<glyph unicode="o" horiz-adv-x="436" d="M218 -8Q132 -8 85 38T38 174V318Q38 408 84 454T218 501Q304 501 350 455T397 318V174Q397 84 351 38T218 -8ZM218 89Q254 89 270 110T287 179V313Q287 361 271 382T218 403Q182 403 165 382T148 313V179Q148 132 165
111T218 89Z" />
<glyph unicode="p" horiz-adv-x="433" d="M260 -8Q231 -8 199 0T144 21L143 109Q161 98 182 92T223 86Q253 86 268 107T283 173V338Q283 372 273 387T238 403Q215 403 192 388T143 344L132 417Q167 455 202 478T283 501Q338 501 365 466T392 355V167Q392 78 359
35T260 -8ZM57 -185Q47 -185 47 -174V372Q47 404 46 431T43 480Q42 492 52 492H130Q139 492 141 482Q143 470 145 449T148 411L157 370V-174Q157 -185 147 -185H57Z" />
<glyph unicode="q" horiz-adv-x="435" d="M288 -185Q279 -185 279 -174V399Q264 403 248 405T218 407Q182 407 166 387T150 321V151Q150 118 161 104T197 89Q219 89 242 103T291 147L293 62Q260 27 225 10T152 -8Q95 -8 68 27T40 135V327Q40 416 82 458T207 501Q258
501 300 492T389 480V-174Q389 -185 378 -185H288Z" />
<glyph unicode="r" horiz-adv-x="309" d="M57 0Q47 0 47 11V367Q47 403 46 430T43 480Q42 492 52 492H131Q139 492 141 482Q144 464 146 439T148 396L157 362V11Q157 0 147 0H57ZM148 318L141 414Q157 437 177 456T219 488T264 501Q271 501 276 501T285 498Q291
496 292 493T294 484Q294 462 294 437T291 389Q290 379 280 380Q274 381 267 382T252 383Q235 383 217 375T181 353T148 318Z" />
<glyph unicode="s" horiz-adv-x="384" d="M189 -8Q106 -8 68 30T35 147Q36 159 46 159H129Q138 159 138 147Q138 110 149 94T191 77Q218 77 231 89T245 129Q245 150 235 164T201 193L112 244Q74 266 56 296T37 371Q37 435 75 468T190 501Q271 501 309 465T346
363Q345 352 336 352H253Q248 352 245 355T243 365Q244 389 232 402T194 415Q170 415 158 405T146 373Q146 354 155 342T189 314L274 264Q316 239 335 210T354 133Q354 63 313 28T189 -8Z" />
<glyph unicode="t" horiz-adv-x="330" d="M215 -8Q142 -8 112 29T81 154V396H25Q15 396 15 407V481Q15 492 25 492H83L96 612Q97 622 107 622H181Q190 622 190 611L191 492H297Q308 492 308 481V407Q308 396 297 396H191V160Q191 122 202 105T241 88Q255 88 269
91T297 100Q309 105 309 92V18Q309 8 300 6Q284 -1 262 -4T215 -8Z" />
<glyph unicode="u" horiz-adv-x="437" d="M154 -8Q98 -8 73 26T47 134V481Q47 492 57 492H147Q157 492 157 481V150Q157 117 167 103T197 89Q222 89 245 105T294 153L304 83Q273 42 235 17T154 -8ZM309 0Q298 0 297 10Q294 28 292 52T289 95L280 126V481Q280 492
291 492H379Q390 492 390 481V125Q390 91 391 63T394 13Q396 0 384 0H309Z" />
<glyph unicode="v" d="M152 0Q143 0 140 9L17 480Q15 492 25 492H123Q132 492 134 483L185 234Q192 201 197 170T207 107H209Q214 139 220 170T233 234L285 483Q288 492 296 492H393Q404 492 401 479L277 9Q274 0 265 0H152Z" />
<glyph unicode="w" horiz-adv-x="603" d="M142 0Q133 0 130 10L19 480Q17 492 27 492H122Q132 492 133 482L178 242Q185 210 189 177T198 110H201Q207 143 213 175T226 239L256 371L237 469Q234 482 245 482H328Q337 482 339 472L381 240Q387 207 392 175T401
110H404Q408 143 413 176T424 242L469 482Q471 492 480 492H575Q586 492 583 480L472 10Q469 0 460 0H356Q346 0 344 9L325 101Q319 132 314 165T303 245H300Q294 199 289 166T277 101L258 9Q255 0 246 0H142Z" />
<glyph unicode="x" horiz-adv-x="417" d="M18 0Q12 0 11 4T12 14L141 253L20 479Q17 485 19 488T27 492H128Q138 492 140 485L178 402Q186 383 193 363T208 317H209Q217 342 224 363T240 403L276 485Q279 492 288 492H388Q394 492 396 489T395 479L274 255L405
14Q408 8 406 4T398 0H296Q287 0 284 7L245 95Q236 116 227 138T209 187H207Q199 160 190 138T171 94L131 7Q129 0 119 0H18Z" />
<glyph unicode="y" horiz-adv-x="416" d="M114 -185Q108 -185 106 -181T106 -172L156 3L16 479Q12 492 24 492H121Q130 492 133 482L181 282Q189 250 195 214T208 145H210Q216 178 223 214T236 282L285 483Q287 492 296 492H392Q404 492 400 479L212 -176Q210
-185 201 -185H114Z" />
<glyph unicode="z" horiz-adv-x="385" d="M27 0Q17 0 17 10V13Q17 21 21 29L170 310Q181 331 192 352T215 395V397Q195 396 177 396T140 396H47Q37 396 37 407V481Q37 492 47 492H357Q367 492 367 483V480Q367 471 361 459L217 186Q205 164 193 142T169 97V95Q190
96 206 96T242 96H343Q353 96 353 85V11Q353 0 343 0H27Z" />
<glyph unicode="{" horiz-adv-x="241" d="M230 -163Q172 -163 137 -148T87 -94T71 14V175Q71 205 64 218T36 232H20Q9 232 9 244V311Q9 322 20 322H36Q56 322 63 336T71 379V541Q71 611 86 649T137 703T230 718Q242 718 242 707V643Q242 631 230 631Q206 631 194
625T177 601T172 555V388Q172 345 159 316T115 277Q145 268 158 239T172 167V0Q172 -29 176 -46T193 -69T230 -76Q242 -76 242 -88V-152Q242 -163 230 -163Z" />
<glyph unicode="|" horiz-adv-x="219" d="M70 -185Q59 -185 59 -174V819Q59 830 70 830H149Q160 830 160 819V-174Q160 -185 149 -185H70Z" />
<glyph unicode="}" horiz-adv-x="241" d="M11 -163Q-1 -163 -1 -152V-88Q-1 -76 11 -76Q35 -76 47 -70T64 -46T69 0V167Q69 210 82 239T125 277Q96 287 83 316T69 388V555Q69 584 65 601T48 624T11 631Q-1 631 -1 643V707Q-1 718 11 718Q69 718 104 703T154 650T169
541V379Q169 350 177 336T205 322H221Q232 322 232 311V244Q232 232 221 232H205Q185 232 177 219T169 175V14Q169 -56 154 -94T104 -147T11 -163Z" />
<glyph unicode="~" horiz-adv-x="489" d="M314 239Q283 239 263 246T224 261T173 269Q147 269 122 261T85 248Q76 243 76 255V325Q76 334 82 336Q93 342 116 351T174 361Q207 361 227 354T267 340T316 332Q342 332 366 340T404 354Q413 357 413 347V276Q413 268
408 264Q397 258 374 249T314 239Z" />
<glyph unicode="&#xa0;" horiz-adv-x="156" />
<glyph unicode="&#xa1;" horiz-adv-x="222" d="M68 281H159Q169 281 169 269L177 -152Q177 -163 167 -163H59Q50 -163 50 -152L58 269Q58 281 68 281ZM113 500Q147 500 164 485T181 438V422Q181 391 164 375T113 359Q81 359 63 375T45 422V438Q45 469 63 484T113 500Z" />
<glyph unicode="&#xa2;" horiz-adv-x="511" d="M210 534V620Q210 629 219 629H296Q306 629 306 620V534H210ZM219 -38Q210 -38 210 -28V58L306 56V-28Q306 -38 296 -38H219ZM260 42Q171 42 126 88T80 227V367Q80 458 126 504T259 551Q314 551 352 530T410 472T425
386Q424 369 414 369H333Q323 369 323 382Q324 418 308 435T260 453Q224 453 207 433T190 362V231Q190 182 207 161T260 139Q292 139 307 157T322 210Q322 224 332 224H414Q425 224 425 212Q426 129 385 86T260 42Z" />
<glyph unicode="&#xa3;" horiz-adv-x="511" d="M93 0Q82 0 82 11V71Q82 75 83 78T86 86Q101 109 109 136T117 192V483Q117 568 156 615T279 663Q334 663 370 645T423 587T439 484Q438 472 427 472H349Q337 472 338 484Q339 509 335 527T319 557T285 568Q254 568
241 549T227 477V207Q227 167 220 142T197 99H439Q451 99 451 86V11Q451 0 439 0H93ZM71 289Q59 289 59 300V366Q59 378 71 378H334Q346 378 346 366V300Q346 289 334 289H71Z" />
<glyph unicode="&#xa4;" horiz-adv-x="512" d="M121 104Q114 99 108 105L59 159Q53 166 60 172L113 224Q107 244 103 266T99 314Q99 339 103 362T113 404L60 456Q54 463 59 469L108 522Q114 529 121 524L169 476Q187 489 209 495T256 502Q306 502 342 476L392
524Q397 530 404 523L453 469Q459 462 452 456L398 404Q405 385 409 362T413 314Q413 289 409 267T398 224L452 172Q459 165 453 159L404 105Q399 99 391 105L342 152Q306 126 256 126Q231 126 209 132T169 152L121 104ZM256 214Q292 214 307 239T322 314Q322 365
307 389T256 414Q220 414 205 390T190 314Q190 264 205 239T256 214Z" />
<glyph unicode="&#xa5;" horiz-adv-x="512" d="M211 0Q200 0 200 11V225L43 641Q41 647 43 651T51 655H154Q162 655 165 647L226 448Q234 421 241 393T256 337H257Q265 365 272 393T287 448L349 647Q350 655 360 655H462Q468 655 470 651T470 641L312 226V11Q312
0 302 0H211ZM117 97Q105 97 105 108V159Q105 171 117 171H396Q407 171 407 159V108Q407 97 396 97H117ZM117 226Q105 226 105 237V288Q105 300 117 300H396Q407 300 407 288V237Q407 226 396 226H117Z" />
<glyph unicode="&#xa6;" horiz-adv-x="219" d="M70 318Q59 318 59 329V745Q59 756 70 756H149Q160 756 160 745V329Q160 318 149 318H70ZM70 -111Q59 -111 59 -100V316Q59 327 70 327H149Q160 327 160 316V-100Q160 -111 149 -111H70Z" />
<glyph unicode="&#xa7;" horiz-adv-x="394" d="M230 117L205 184Q235 192 251 210T267 258Q267 287 253 307T211 349L115 430Q84 454 66 483T47 559Q47 624 86 657T203 690Q283 690 321 655T360 551Q360 540 349 540H269Q259 540 259 551Q260 577 248 591T206
605Q155 605 155 558Q155 538 164 524T195 493L307 395Q337 370 354 338T372 259Q372 199 336 162T230 117ZM191 -118Q112 -118 74 -82T35 21Q35 32 45 32H126Q135 32 135 20Q135 -4 147 -18T188 -32Q239 -32 239 14Q239 34 230 48T200 79L87 176Q57 202 39 234T21
312Q21 373 58 410T164 455L190 388Q160 380 144 362T128 313Q128 285 142 265T184 223L279 141Q310 117 328 89T347 13Q347 -52 308 -85T191 -118Z" />
<glyph unicode="&#xa8;" horiz-adv-x="335" d="M89 567Q61 567 46 581T30 622V636Q30 662 45 676T89 691Q117 691 132 677T147 636V622Q147 596 132 582T89 567ZM248 567Q219 567 204 581T189 622V636Q189 662 204 676T248 691Q277 691 291 677T305 636V622Q305
596 291 582T248 567Z" />
<glyph unicode="&#xa9;" horiz-adv-x="548" d="M274 -8Q193 -8 142 20T67 100T44 226V378Q44 452 67 504T141 584T274 612Q356 612 407 584T481 504T505 378V226Q505 152 482 100T407 20T274 -8ZM274 55Q357 55 397 96T438 224V380Q438 467 398 508T274 549Q191
549 151 508T111 380V224Q111 138 151 97T274 55ZM275 129Q222 129 195 159T167 247V354Q167 411 195 441T276 472Q330 472 355 441T381 353Q381 343 373 343H324Q315 343 315 352Q319 410 276 410Q234 410 234 352V250Q234 192 276 192Q298 192 306 206T315 249Q315
259 324 259H373Q381 259 381 250Q381 193 356 161T275 129Z" />
<glyph unicode="&#xaa;" horiz-adv-x="317" d="M110 314Q79 314 58 338T37 409Q37 464 67 487T151 518L194 524V556Q194 578 187 587T160 597Q123 597 126 563Q127 554 118 554H61Q51 554 50 565Q48 610 77 636T161 663Q203 663 227 651T262 615T273 558V410Q273
386 274 367T276 331Q276 322 268 322H212Q205 322 204 330Q202 336 201 344T198 362Q180 341 159 328T110 314ZM54 184Q44 184 44 196V253Q44 265 54 265H270Q280 265 280 253V196Q280 184 270 184H54ZM141 380Q152 380 166 388T194 410V473L163 469Q115 463 115
418Q115 397 121 389T141 380Z" />
<glyph unicode="&#xab;" horiz-adv-x="438" d="M303 89Q296 89 291 96L207 256Q206 259 206 263T207 271L291 430Q296 438 303 438H388Q394 438 396 435T396 425L315 263L395 102Q398 97 396 93T388 89H303ZM136 89Q129 89 124 96L41 256Q39 259 39 263T41 271L124
430Q129 438 136 438H221Q228 438 230 435T229 425L149 263L228 102Q232 97 230 93T221 89H136Z" />
<glyph unicode="&#xac;" horiz-adv-x="489" d="M332 126Q320 126 320 137V255H88Q77 255 77 267V334Q77 345 88 345H402Q413 345 413 334V137Q413 126 402 126H332Z" />
<glyph unicode="&#xad;" horiz-adv-x="383" d="M55 223Q44 223 44 235V297Q44 309 55 309H327Q338 309 338 297V235Q338 223 327 223H55Z" />
<glyph unicode="&#xae;" horiz-adv-x="446" d="M224 303Q137 303 92 350T46 483V522Q46 608 91 654T224 701Q310 701 355 654T401 522V483Q401 398 356 351T224 303ZM224 355Q283 355 315 385T347 481V523Q347 589 315 619T224 650Q164 650 133 621T101 524V481Q101
415 132 385T224 355ZM166 396Q160 396 160 403V605Q160 612 168 612H219Q257 612 275 596T294 545Q294 522 287 508T262 484L296 404Q301 396 293 396H258Q253 396 251 401L221 475H203V403Q203 396 197 396H166ZM203 511H222Q251 511 251 537V549Q251 575 221
575H203V511Z" />
<glyph unicode="&#xaf;" horiz-adv-x="253" d="M41 571Q30 571 30 582V645Q30 656 41 656H212Q223 656 223 645V582Q223 571 212 571H41Z" />
<glyph unicode="&#xb0;" horiz-adv-x="313" d="M157 393Q94 393 63 427T31 520V563Q31 623 62 657T157 691Q219 691 250 657T282 563V520Q282 461 251 427T157 393ZM157 467Q203 467 203 523V561Q203 589 192 603T157 617Q110 617 110 561V523Q110 467 157 467Z" />
<glyph unicode="&#xb1;" horiz-adv-x="489" d="M210 182Q199 182 199 193V295H88Q77 295 77 307V374Q77 386 88 386H199V489Q199 500 210 500H280Q291 500 291 489V386H401Q413 386 413 374V307Q413 295 401 295H291V193Q291 182 280 182H210ZM89 42Q78 42 78
54V122Q78 133 89 133H400Q411 133 411 122V54Q411 42 400 42H89Z" />
<glyph unicode="&#xb2;" horiz-adv-x="360" d="M61 348Q49 348 49 359V416Q49 458 66 487T107 536T157 573T199 608T216 653V661Q216 679 208 687T180 696Q159 696 150 686T142 651Q142 639 130 639H69Q57 639 57 651Q53 712 87 743T183 775Q245 775 276 748T308
661Q308 626 297 602T269 559T231 526T193 497T164 467T152 430H296Q308 430 308 418V359Q308 348 296 348H61Z" />
<glyph unicode="&#xb3;" horiz-adv-x="360" d="M175 342Q125 343 97 358T57 401T48 469Q49 480 59 480H121Q133 480 133 469Q133 444 143 434T175 423Q198 423 209 435T220 470V482Q220 504 210 514T175 525H145Q133 525 133 538V588Q133 599 145 599H171Q194
599 204 611T214 645V657Q214 676 204 685T172 695Q148 695 140 683T132 651Q132 639 121 639H60Q50 639 49 651Q46 710 77 742T176 775Q243 775 274 748T305 664Q305 628 293 605T260 568V567Q286 554 299 530T312 470Q312 408 277 375T175 342Z" />
<glyph unicode="&#xb4;" horiz-adv-x="230" d="M38 557Q26 557 31 569L97 693Q102 702 111 702H191Q197 702 198 698T197 689L115 565Q111 557 100 557H38Z" />
<glyph unicode="&#xb5;" horiz-adv-x="441" d="M57 -185Q47 -185 47 -174V481Q47 492 57 492H147Q157 492 157 481V157Q157 123 168 106T203 89Q223 89 243 101T280 136V481Q280 492 291 492H379Q390 492 390 481V121Q390 100 394 93T412 85Q418 85 422 85T432
87Q440 89 440 79V10Q440 1 430 -2Q417 -5 403 -6T376 -8Q342 -8 321 6T293 53L292 54Q273 27 250 11T200 -5Q186 -5 174 0T155 13V-174Q155 -185 145 -185H57Z" />
<glyph unicode="&#xb6;" horiz-adv-x="484" d="M162 -185Q151 -185 151 -174V305H126Q69 305 42 340T15 438V549Q15 614 42 648T126 683H429Q438 683 438 672V-174Q438 -185 427 -185H350Q339 -185 339 -174V584H250V-174Q250 -185 238 -185H162Z" />
<glyph unicode="&#xb7;" horiz-adv-x="239" d="M121 190Q87 190 68 207T49 255V272Q49 303 68 320T121 337Q193 337 193 272V255Q193 225 175 208T121 190Z" />
<glyph unicode="&#xb8;" horiz-adv-x="206" d="M87 -193Q73 -193 61 -192T39 -189Q33 -187 32 -186T30 -179V-135Q30 -126 38 -127Q43 -128 49 -128T63 -129Q79 -129 86 -123T94 -105V-95Q94 -81 87 -76T65 -71H50Q43 -71 43 -64Q43 -60 43 -54T45 -44L68 33Q71
40 78 40H131Q142 40 137 29L117 -33H123Q148 -33 162 -49T176 -94V-113Q176 -152 155 -172T87 -193Z" />
<glyph unicode="&#xb9;" horiz-adv-x="360" d="M66 348Q54 348 54 359V418Q54 430 66 430H137V671L68 648Q57 644 57 655V715Q57 726 65 729L188 769Q193 770 196 770T204 771H217Q228 771 228 761V430H294Q306 430 306 418V359Q306 348 294 348H66Z" />
<glyph unicode="&#xba;" horiz-adv-x="315" d="M157 314Q100 314 69 347T38 441V535Q38 597 69 630T157 663Q215 663 246 630T277 535V441Q277 380 246 347T157 314ZM55 184Q44 184 44 196V253Q44 265 55 265H259Q270 265 270 253V196Q270 184 259 184H55ZM157
388Q177 388 187 400T198 437V540Q198 564 188 576T157 589Q137 589 127 577T116 540V437Q116 413 126 401T157 388Z" />
<glyph unicode="&#xbb;" horiz-adv-x="438" d="M216 89Q211 89 209 93T209 102L289 263L209 425Q206 431 208 434T217 438H302Q310 438 313 430L397 271Q402 263 397 256L314 96Q308 89 302 89H216ZM49 89Q44 89 42 93T43 102L122 263L42 425Q39 431 41 434T49
438H135Q142 438 147 430L230 271Q235 263 230 256L147 96Q141 89 135 89H49Z" />
<glyph unicode="&#xbc;" horiz-adv-x="851" d="M66 235Q54 235 54 246V305Q54 317 66 317H137V558L68 535Q57 531 57 542V602Q57 613 65 616L188 656Q193 657 196 657T204 658H217Q228 658 228 648V317H294Q306 317 306 305V246Q306 235 294 235H66ZM266 -33Q262
-33 261 -30T260 -22L406 347L537 681Q540 688 548 688H629Q634 688 636 685T635 677L492 322L358 -26Q357 -33 348 -33H266ZM715 0Q703 0 703 11V72H527Q515 72 515 83V91Q515 96 516 100T519 109L649 409Q653 420 662 420H729Q735 420 737 417T737 406L632 150H705L712
274Q712 286 723 286H778Q790 286 790 274V151H815Q825 151 825 140V83Q825 72 815 72H790V11Q790 0 778 0H715Z" />
<glyph unicode="&#xbd;" horiz-adv-x="883" d="M66 235Q54 235 54 246V305Q54 317 66 317H137V558L68 535Q57 531 57 542V602Q57 613 65 616L188 656Q193 657 196 657T204 658H217Q228 658 228 648V317H294Q306 317 306 305V246Q306 235 294 235H66ZM266 -33Q262
-33 261 -30T260 -22L406 347L537 681Q540 688 548 688H629Q634 688 636 685T635 677L492 322L358 -26Q357 -33 348 -33H266ZM584 0Q572 0 572 11V68Q572 110 589 139T630 188T680 225T722 260T739 305V313Q739 331 731 339T703 348Q682 348 673 338T665 303Q665
291 653 291H592Q580 291 580 303Q576 364 610 395T706 427Q768 427 799 400T831 313Q831 278 820 254T792 211T754 178T716 149T687 119T675 82H819Q831 82 831 70V11Q831 0 819 0H584Z" />
<glyph unicode="&#xbe;" horiz-adv-x="841" d="M175 229Q125 230 97 245T57 288T48 356Q49 367 59 367H121Q133 367 133 356Q133 331 143 321T175 310Q198 310 209 322T220 357V369Q220 391 210 401T175 412H145Q133 412 133 425V475Q133 486 145 486H171Q194
486 204 498T214 532V544Q214 563 204 572T172 582Q148 582 140 570T132 538Q132 526 121 526H60Q50 526 49 538Q46 597 77 629T176 662Q243 662 274 635T305 551Q305 515 293 492T260 455V454Q286 441 299 417T312 357Q312 295 277 262T175 229ZM256 -33Q252 -33
251 -30T250 -22L396 347L527 681Q530 688 538 688H619Q624 688 626 685T625 677L482 322L348 -26Q347 -33 338 -33H256ZM705 0Q693 0 693 11V72H517Q505 72 505 83V91Q505 96 506 100T509 109L639 409Q643 420 652 420H719Q725 420 727 417T727 406L622 150H695L702
274Q702 286 713 286H768Q780 286 780 274V151H805Q815 151 815 140V83Q815 72 805 72H780V11Q780 0 768 0H705Z" />
<glyph unicode="&#xbf;" horiz-adv-x="395" d="M268 279Q276 279 276 269V229Q276 195 263 170T231 123T193 80T160 35T147 -22Q147 -53 161 -66T205 -80Q243 -80 256 -56T267 14Q267 26 276 26H359Q366 26 367 22T370 12Q375 -81 333 -126T202 -172Q117 -172
77 -137T36 -32Q36 12 49 45T81 103T119 150T152 192T165 236L166 269Q166 279 176 279H268ZM218 499Q251 499 268 484T286 437V421Q286 390 269 374T218 358Q185 358 168 374T150 421V437Q150 468 167 483T218 499Z" />
<glyph unicode="&#xc0;" horiz-adv-x="476" d="M8 0Q-3 0 0 12L165 646Q168 655 177 655H298Q307 655 311 646L476 12Q479 0 468 0H367Q359 0 356 9L265 414Q257 448 251 481T238 548H236Q230 515 224 482T209 414L118 9Q117 0 107 0H8ZM130 140L149 234H323L343
140H130ZM231 710Q222 710 216 718L144 824Q141 830 142 834T150 838H231Q240 838 244 830L301 722Q307 710 294 710H231Z" />
<glyph unicode="&#xc1;" horiz-adv-x="476" d="M8 0Q-3 0 0 12L165 646Q168 655 177 655H298Q307 655 311 646L476 12Q479 0 468 0H367Q359 0 356 9L265 414Q257 448 251 481T238 548H236Q230 515 224 482T209 414L118 9Q117 0 107 0H8ZM130 140L149 234H323L343
140H130ZM177 710Q172 710 170 713T170 722L227 830Q232 838 241 838H322Q328 838 329 834T327 824L256 718Q251 710 241 710H177Z" />
<glyph unicode="&#xc2;" horiz-adv-x="476" d="M8 0Q-3 0 0 12L165 646Q168 655 177 655H298Q307 655 311 646L476 12Q479 0 468 0H367Q359 0 356 9L265 414Q257 448 251 481T238 548H236Q230 515 224 482T209 414L118 9Q117 0 107 0H8ZM130 140L149 234H323L343
140H130ZM134 715Q123 711 123 721V778Q123 788 129 791L232 839Q238 843 245 839L347 791Q354 788 354 778V721Q354 711 342 715L238 756L134 715Z" />
<glyph unicode="&#xc3;" horiz-adv-x="476" d="M8 0Q-3 0 0 12L165 646Q168 655 177 655H298Q307 655 311 646L476 12Q479 0 468 0H367Q359 0 356 9L265 414Q257 448 251 481T238 548H236Q230 515 224 482T209 414L118 9Q117 0 107 0H8ZM130 140L149 234H323L343
140H130ZM282 719Q262 719 248 724T221 735T192 741Q176 741 162 737T137 725Q132 723 129 725T125 733V786Q125 796 131 800Q141 808 158 815T196 823Q218 823 232 818T258 807T286 801Q303 801 316 806T342 817Q353 823 353 810V757Q353 747 348 742Q338 734
322 727T282 719Z" />
<glyph unicode="&#xc4;" horiz-adv-x="476" d="M8 0Q-3 0 0 12L165 646Q168 655 177 655H298Q307 655 311 646L476 12Q479 0 468 0H367Q359 0 356 9L265 414Q257 448 251 481T238 548H236Q230 515 224 482T209 414L118 9Q117 0 107 0H8ZM130 140L149 234H323L343
140H130ZM159 714Q131 714 116 728T100 769V782Q100 809 115 823T159 838Q187 838 202 824T217 782V769Q217 743 202 729T159 714ZM317 714Q289 714 274 728T258 769V782Q258 809 273 823T317 838Q346 838 360 824T375 782V769Q375 743 361 729T317 714Z" />
<glyph unicode="&#xc5;" horiz-adv-x="476" d="M476 12Q479 0 468 0H367Q359 0 356 9L326 140H148L118 9Q117 0 107 0H8Q-3 0 0 12L161 626Q149 637 142 653T135 691Q135 738 163 763T238 789Q285 789 313 764T341 691Q341 670 335 654T315 625L476 12ZM204 690Q204
669 213 658T238 646Q256 646 264 657T272 690Q272 713 264 723T238 734Q221 734 213 724T204 690ZM167 234H307L265 414Q257 448 251 483T238 551H236Q230 518 224 483T209 414L167 234Z" />
<glyph unicode="&#xc6;" horiz-adv-x="676" d="M8 0Q-3 0 0 12L217 647Q219 655 228 655H621Q631 655 631 644V565Q631 554 621 554H409V380H602Q612 380 612 369V295Q612 284 602 284H409V101H621Q631 101 631 90V11Q631 0 621 0H308Q297 0 297 11V140H164L121
8Q118 0 110 0H8ZM190 234H297V466Q297 493 297 518T298 571H297Q290 544 282 518T266 464L190 234Z" />
<glyph unicode="&#xc7;" horiz-adv-x="513" d="M259 -8Q155 -8 100 48T45 220V434Q45 548 100 605T259 663Q331 663 381 635T454 556T468 434Q467 423 458 423H366Q355 423 356 434Q361 496 337 529T260 562Q209 562 183 531T157 431V225Q157 156 183 125T260
93Q315 93 338 128T357 221Q356 233 366 233H458Q468 233 469 220Q478 115 423 54T259 -8ZM258 -194Q244 -194 232 -193T210 -190Q204 -188 203 -187T201 -180V-136Q201 -127 209 -128Q214 -129 220 -129T234 -130Q250 -130 257 -124T265 -106V-96Q265 -82 258
-77T236 -72H221Q214 -72 214 -65Q214 -61 214 -55T216 -45L239 32Q242 39 249 39H302Q313 39 308 28L288 -34H294Q319 -34 333 -50T347 -95V-114Q347 -153 326 -173T258 -194Z" />
<glyph unicode="&#xc8;" horiz-adv-x="434" d="M65 0Q55 0 55 11V644Q55 655 65 655H378Q388 655 388 644V565Q388 554 378 554H167V380H360Q370 380 370 369V295Q370 284 360 284H167V101H378Q388 101 388 90V11Q388 0 378 0H65ZM214 710Q205 710 199 718L127
824Q124 830 125 834T133 838H214Q223 838 227 830L284 722Q290 710 277 710H214Z" />
<glyph unicode="&#xc9;" horiz-adv-x="434" d="M65 0Q55 0 55 11V644Q55 655 65 655H378Q388 655 388 644V565Q388 554 378 554H167V380H360Q370 380 370 369V295Q370 284 360 284H167V101H378Q388 101 388 90V11Q388 0 378 0H65ZM160 710Q155 710 153 713T153
722L210 830Q215 838 224 838H305Q311 838 312 834T310 824L239 718Q234 710 224 710H160Z" />
<glyph unicode="&#xca;" horiz-adv-x="434" d="M65 0Q55 0 55 11V644Q55 655 65 655H378Q388 655 388 644V565Q388 554 378 554H167V380H360Q370 380 370 369V295Q370 284 360 284H167V101H378Q388 101 388 90V11Q388 0 378 0H65ZM117 715Q106 711 106 721V778Q106
788 112 791L215 839Q221 843 228 839L330 791Q337 788 337 778V721Q337 711 325 715L221 756L117 715Z" />
<glyph unicode="&#xcb;" horiz-adv-x="434" d="M65 0Q55 0 55 11V644Q55 655 65 655H378Q388 655 388 644V565Q388 554 378 554H167V380H360Q370 380 370 369V295Q370 284 360 284H167V101H378Q388 101 388 90V11Q388 0 378 0H65ZM143 714Q115 714 100 728T84
769V782Q84 809 99 823T143 838Q171 838 186 824T201 782V769Q201 743 186 729T143 714ZM301 714Q273 714 258 728T242 769V782Q242 809 257 823T301 838Q330 838 344 824T359 782V769Q359 743 345 729T301 714Z" />
<glyph unicode="&#xcc;" horiz-adv-x="222" d="M65 0Q55 0 55 11V644Q55 655 65 655H157Q167 655 167 644V11Q167 0 157 0H65ZM361 710Q352 710 346 718L274 824Q271 830 272 834T280 838H361Q370 838 374 830L431 722Q437 710 424 710H361Z" />
<glyph unicode="&#xcd;" horiz-adv-x="222" d="M65 0Q55 0 55 11V644Q55 655 65 655H157Q167 655 167 644V11Q167 0 157 0H65ZM51 710Q46 710 44 713T44 722L101 830Q106 838 115 838H196Q202 838 203 834T201 824L130 718Q125 710 115 710H51Z" />
<glyph unicode="&#xce;" horiz-adv-x="222" d="M65 0Q55 0 55 11V644Q55 655 65 655H157Q167 655 167 644V11Q167 0 157 0H65ZM264 715Q253 711 253 721V778Q253 788 259 791L362 839Q368 843 375 839L477 791Q484 788 484 778V721Q484 711 472 715L368 756L264 715Z" />
<glyph unicode="&#xcf;" horiz-adv-x="222" d="M65 0Q55 0 55 11V644Q55 655 65 655H157Q167 655 167 644V11Q167 0 157 0H65ZM290 714Q262 714 247 728T231 769V782Q231 809 246 823T290 838Q318 838 333 824T348 782V769Q348 743 333 729T290 714ZM448 714Q420
714 405 728T389 769V782Q389 809 404 823T448 838Q477 838 491 824T506 782V769Q506 743 492 729T448 714Z" />
<glyph unicode="&#xd0;" horiz-adv-x="520" d="M14 288Q4 288 4 299V364Q4 375 14 375H57H251Q261 375 261 364V299Q261 288 251 288H14ZM69 0Q57 0 57 11V644Q57 655 68 655H227Q354 655 417 586T481 377V299Q481 148 419 74T230 0H69ZM170 100H224Q299 100 334
148T369 297V378Q369 468 334 511T222 555H170V100Z" />
<glyph unicode="&#xd1;" horiz-adv-x="534" d="M64 0Q55 0 55 11V644Q55 655 65 655H192Q201 655 203 647L320 321Q331 294 341 263T361 202T377 148H379Q377 175 376 210T373 281T372 343V644Q372 655 382 655H469Q479 655 479 644V11Q479 0 469 0H344Q336 0
332 8L216 325Q199 371 185 417T159 504H157Q159 475 160 439T161 366T162 300V11Q162 0 152 0H64ZM311 719Q291 719 277 724T250 735T221 741Q205 741 191 737T166 725Q161 723 158 725T154 733V786Q154 796 160 800Q170 808 187 815T225 823Q247 823 261 818T287
807T315 801Q332 801 345 806T371 817Q382 823 382 810V757Q382 747 377 742Q367 734 351 727T311 719Z" />
<glyph unicode="&#xd2;" horiz-adv-x="520" d="M259 -8Q154 -8 100 48T45 215V439Q45 550 99 606T259 663Q366 663 420 607T475 439V215Q475 105 421 49T259 -8ZM259 93Q311 93 337 124T363 220V434Q363 500 337 531T259 562Q209 562 183 531T157 434V220Q157
155 183 124T259 93ZM252 710Q243 710 237 718L165 824Q162 830 163 834T171 838H252Q261 838 265 830L322 722Q328 710 315 710H252Z" />
<glyph unicode="&#xd3;" horiz-adv-x="520" d="M259 -8Q154 -8 100 48T45 215V439Q45 550 99 606T259 663Q366 663 420 607T475 439V215Q475 105 421 49T259 -8ZM259 93Q311 93 337 124T363 220V434Q363 500 337 531T259 562Q209 562 183 531T157 434V220Q157
155 183 124T259 93ZM198 710Q193 710 191 713T191 722L248 830Q253 838 262 838H343Q349 838 350 834T348 824L277 718Q272 710 262 710H198Z" />
<glyph unicode="&#xd4;" horiz-adv-x="520" d="M259 -8Q154 -8 100 48T45 215V439Q45 550 99 606T259 663Q366 663 420 607T475 439V215Q475 105 421 49T259 -8ZM259 93Q311 93 337 124T363 220V434Q363 500 337 531T259 562Q209 562 183 531T157 434V220Q157
155 183 124T259 93ZM155 715Q144 711 144 721V778Q144 788 150 791L253 839Q259 843 266 839L368 791Q375 788 375 778V721Q375 711 363 715L259 756L155 715Z" />
<glyph unicode="&#xd5;" horiz-adv-x="520" d="M259 -8Q154 -8 100 48T45 215V439Q45 550 99 606T259 663Q366 663 420 607T475 439V215Q475 105 421 49T259 -8ZM259 93Q311 93 337 124T363 220V434Q363 500 337 531T259 562Q209 562 183 531T157 434V220Q157
155 183 124T259 93ZM303 719Q283 719 269 724T242 735T213 741Q197 741 183 737T158 725Q153 723 150 725T146 733V786Q146 796 152 800Q162 808 179 815T217 823Q239 823 253 818T279 807T307 801Q324 801 337 806T363 817Q374 823 374 810V757Q374 747 369 742Q359
734 343 727T303 719Z" />
<glyph unicode="&#xd6;" horiz-adv-x="520" d="M259 -8Q154 -8 100 48T45 215V439Q45 550 99 606T259 663Q366 663 420 607T475 439V215Q475 105 421 49T259 -8ZM259 93Q311 93 337 124T363 220V434Q363 500 337 531T259 562Q209 562 183 531T157 434V220Q157
155 183 124T259 93ZM181 714Q153 714 138 728T122 769V782Q122 809 137 823T181 838Q209 838 224 824T239 782V769Q239 743 224 729T181 714ZM339 714Q311 714 296 728T280 769V782Q280 809 295 823T339 838Q368 838 382 824T397 782V769Q397 743 383 729T339
714Z" />
<glyph unicode="&#xd7;" horiz-adv-x="489" d="M150 157L102 206Q94 214 102 222L181 301L102 380Q94 387 102 396L150 444Q158 453 167 444L246 365L324 444Q332 451 340 444L388 395Q397 388 388 379L309 301L388 222Q397 214 388 206L340 157Q332 151 324 157L246
237L167 157Q158 150 150 157Z" />
<glyph unicode="&#xd8;" horiz-adv-x="520" d="M54 -50Q49 -50 47 -46T47 -37L103 85L144 163L330 568L347 623L381 697Q384 705 393 705H466Q477 705 473 692L418 573L379 497L193 90L174 32L139 -43Q138 -47 135 -48T128 -50H54ZM259 -8Q154 -8 100 48T45 215V439Q45
550 99 606T259 663Q366 663 420 607T475 439V215Q475 105 421 49T259 -8ZM259 93Q311 93 337 124T363 220V434Q363 500 337 531T259 562Q209 562 183 531T157 434V220Q157 155 183 124T259 93Z" />
<glyph unicode="&#xd9;" horiz-adv-x="521" d="M261 -8Q156 -8 104 49T51 223V644Q51 655 61 655H153Q163 655 163 644V225Q163 156 187 125T261 93Q311 93 334 124T358 225V644Q358 655 368 655H460Q470 655 470 644V222Q470 108 417 50T261 -8ZM253 710Q244
710 238 718L166 824Q163 830 164 834T172 838H253Q262 838 266 830L323 722Q329 710 316 710H253Z" />
<glyph unicode="&#xda;" horiz-adv-x="521" d="M261 -8Q156 -8 104 49T51 223V644Q51 655 61 655H153Q163 655 163 644V225Q163 156 187 125T261 93Q311 93 334 124T358 225V644Q358 655 368 655H460Q470 655 470 644V222Q470 108 417 50T261 -8ZM199 710Q194
710 192 713T192 722L249 830Q254 838 263 838H344Q350 838 351 834T349 824L278 718Q273 710 263 710H199Z" />
<glyph unicode="&#xdb;" horiz-adv-x="521" d="M261 -8Q156 -8 104 49T51 223V644Q51 655 61 655H153Q163 655 163 644V225Q163 156 187 125T261 93Q311 93 334 124T358 225V644Q358 655 368 655H460Q470 655 470 644V222Q470 108 417 50T261 -8ZM156 715Q145
711 145 721V778Q145 788 151 791L254 839Q260 843 267 839L369 791Q376 788 376 778V721Q376 711 364 715L260 756L156 715Z" />
<glyph unicode="&#xdc;" horiz-adv-x="521" d="M261 -8Q156 -8 104 49T51 223V644Q51 655 61 655H153Q163 655 163 644V225Q163 156 187 125T261 93Q311 93 334 124T358 225V644Q358 655 368 655H460Q470 655 470 644V222Q470 108 417 50T261 -8ZM182 714Q154
714 139 728T123 769V782Q123 809 138 823T182 838Q210 838 225 824T240 782V769Q240 743 225 729T182 714ZM340 714Q312 714 297 728T281 769V782Q281 809 296 823T340 838Q369 838 383 824T398 782V769Q398 743 384 729T340 714Z" />
<glyph unicode="&#xdd;" horiz-adv-x="461" d="M184 0Q175 0 175 11V225L7 641Q5 647 7 651T14 655H118Q128 655 129 647L194 455Q204 425 213 396T231 337H232Q240 367 249 396T269 455L333 647Q335 655 344 655H446Q452 655 454 651T454 641L287 226V11Q287
0 277 0H184ZM169 710Q164 710 162 713T162 722L219 830Q224 838 233 838H314Q320 838 321 834T319 824L248 718Q243 710 233 710H169Z" />
<glyph unicode="&#xde;" horiz-adv-x="452" d="M65 0Q55 0 55 11V644Q55 655 65 655H157Q167 655 167 644V551H214Q322 551 373 499T424 339Q424 236 372 182T216 128H167V11Q167 0 157 0H65ZM167 227H213Q264 227 288 254T312 337Q312 398 288 424T214 451H167V227Z" />
<glyph unicode="&#xdf;" horiz-adv-x="460" d="M303 -8Q237 -8 208 22T183 116Q184 127 193 127H260Q268 127 268 117Q268 96 275 87T300 77Q319 77 327 89T336 128Q336 159 324 181T293 223T257 261T225 304T212 364Q212 389 220 410T240 451T259 491T268 538Q268
569 255 583T216 597Q185 597 171 577T157 512V11Q157 0 147 0H57Q47 0 47 11V508Q47 602 88 646T216 691Q294 691 335 656T377 551Q377 516 369 492T349 449T330 414T321 379Q321 356 333 337T364 300T399 259T429 206T441 132Q441 -8 303 -8Z" />
<glyph unicode="&#xe0;" horiz-adv-x="409" d="M280 0Q272 0 269 11Q267 25 265 50T262 96L252 119V348Q252 385 242 398T201 412Q147 412 151 355Q152 344 140 344H60Q49 344 48 359Q42 427 83 464T205 501Q287 501 324 465T362 347V125Q362 85 363 58T366 13Q368
0 357 0H280ZM132 -8Q84 -8 58 27T31 126Q31 199 67 237T192 285L263 294V225L209 219Q170 214 154 196T137 140Q137 110 146 95T174 80Q195 80 216 95T268 148L275 77Q237 34 205 13T132 -8ZM201 557Q192 557 186 565L104 689Q101 694 102 698T110 702H191Q200
702 204 693L270 569Q276 557 264 557H201Z" />
<glyph unicode="&#xe1;" horiz-adv-x="409" d="M280 0Q272 0 269 11Q267 25 265 50T262 96L252 119V348Q252 385 242 398T201 412Q147 412 151 355Q152 344 140 344H60Q49 344 48 359Q42 427 83 464T205 501Q287 501 324 465T362 347V125Q362 85 363 58T366 13Q368
0 357 0H280ZM132 -8Q84 -8 58 27T31 126Q31 199 67 237T192 285L263 294V225L209 219Q170 214 154 196T137 140Q137 110 146 95T174 80Q195 80 216 95T268 148L275 77Q237 34 205 13T132 -8ZM146 557Q134 557 139 569L205 693Q210 702 219 702H299Q305 702 306
698T305 689L223 565Q219 557 208 557H146Z" />
<glyph unicode="&#xe2;" horiz-adv-x="409" d="M280 0Q272 0 269 11Q267 25 265 50T262 96L252 119V348Q252 385 242 398T201 412Q147 412 151 355Q152 344 140 344H60Q49 344 48 359Q42 427 83 464T205 501Q287 501 324 465T362 347V125Q362 85 363 58T366 13Q368
0 357 0H280ZM132 -8Q84 -8 58 27T31 126Q31 199 67 237T192 285L263 294V225L209 219Q170 214 154 196T137 140Q137 110 146 95T174 80Q195 80 216 95T268 148L275 77Q237 34 205 13T132 -8ZM109 552Q98 546 98 557V617Q98 626 104 630L199 684Q205 688 212 684L306
630Q312 626 312 617V557Q312 546 300 552L205 600L109 552Z" />
<glyph unicode="&#xe3;" horiz-adv-x="409" d="M280 0Q272 0 269 11Q267 25 265 50T262 96L252 119V348Q252 385 242 398T201 412Q147 412 151 355Q152 344 140 344H60Q49 344 48 359Q42 427 83 464T205 501Q287 501 324 465T362 347V125Q362 85 363 58T366 13Q368
0 357 0H280ZM132 -8Q84 -8 58 27T31 126Q31 199 67 237T192 285L263 294V225L209 219Q170 214 154 196T137 140Q137 110 146 95T174 80Q195 80 216 95T268 148L275 77Q237 34 205 13T132 -8ZM244 566Q227 566 214 571T188 582T161 588Q147 588 134 583T110 572Q98
566 98 579V633Q98 643 104 647Q114 655 130 662T165 670Q186 670 199 665T223 654T249 648Q263 648 276 653T299 663Q312 670 312 656V603Q312 598 311 595T306 588Q296 580 280 573T244 566Z" />
<glyph unicode="&#xe4;" horiz-adv-x="409" d="M280 0Q272 0 269 11Q267 25 265 50T262 96L252 119V348Q252 385 242 398T201 412Q147 412 151 355Q152 344 140 344H60Q49 344 48 359Q42 427 83 464T205 501Q287 501 324 465T362 347V125Q362 85 363 58T366 13Q368
0 357 0H280ZM132 -8Q84 -8 58 27T31 126Q31 199 67 237T192 285L263 294V225L209 219Q170 214 154 196T137 140Q137 110 146 95T174 80Q195 80 216 95T268 148L275 77Q237 34 205 13T132 -8ZM126 567Q98 567 83 581T67 622V636Q67 662 82 676T126 691Q154 691
169 677T184 636V622Q184 596 169 582T126 567ZM285 567Q256 567 241 581T226 622V636Q226 662 241 676T285 691Q314 691 328 677T342 636V622Q342 596 328 582T285 567Z" />
<glyph unicode="&#xe5;" horiz-adv-x="409" d="M280 0Q272 0 269 11Q267 25 265 50T262 96L252 119V348Q252 385 242 398T201 412Q147 412 151 355Q152 344 140 344H60Q49 344 48 359Q42 427 83 464T205 501Q287 501 324 465T362 347V125Q362 85 363 58T366 13Q368
0 357 0H280ZM132 -8Q84 -8 58 27T31 126Q31 199 67 237T192 285L263 294V225L209 219Q170 214 154 196T137 140Q137 110 146 95T174 80Q195 80 216 95T268 148L275 77Q237 34 205 13T132 -8ZM205 552Q159 552 132 577T104 650Q104 697 131 722T205 748Q252 748
279 723T306 650Q306 603 279 578T205 552ZM205 609Q222 609 229 620T237 650Q237 670 230 680T205 691Q189 691 182 681T174 650Q174 631 181 620T205 609Z" />
<glyph unicode="&#xe6;" horiz-adv-x="634" d="M132 -8Q83 -8 57 27T31 126Q31 200 67 238T192 287L254 294V348Q254 384 243 398T201 412Q174 412 162 398T151 355Q152 344 140 344H60Q49 344 48 359Q42 425 82 463T200 501Q243 501 271 489T316 450Q337 475
367 488T435 501Q511 501 553 454T596 318V233Q596 222 586 222H361V171Q361 123 376 103T425 82Q483 82 483 134Q483 147 493 147H578Q589 147 589 133Q589 64 547 28T424 -8Q310 -8 273 72Q237 32 204 12T132 -8ZM175 80Q193 80 211 92T256 133Q255 144 255 155T254
177V224L210 219Q170 214 154 196T137 140Q137 110 146 95T175 80ZM361 296H488V326Q488 371 473 391T426 411Q394 411 378 390T361 325V296Z" />
<glyph unicode="&#xe7;" horiz-adv-x="422" d="M218 -8Q129 -8 84 38T38 177V317Q38 408 84 454T217 501Q272 501 310 480T368 422T383 336Q382 319 372 319H291Q281 319 281 332Q282 368 266 385T218 403Q183 403 166 383T148 312V181Q148 132 165 111T218 89Q250
89 265 107T280 160Q280 174 290 174H372Q383 174 383 162Q384 79 343 36T218 -8ZM208 62Q194 62 182 63T160 66Q154 68 153 69T151 76V120Q151 129 159 128Q164 127 170 127T184 126Q200 126 207 132T215 150V160Q215 174 208 179T186 184H171Q164 184 164 191Q164
195 164 201T166 211L189 288Q192 295 199 295H252Q263 295 258 284L238 222H244Q269 222 283 206T297 161V142Q297 103 276 83T208 62Z" />
<glyph unicode="&#xe8;" horiz-adv-x="427" d="M216 -8Q127 -8 83 36T38 171V318Q38 409 83 455T213 501Q301 501 345 455T389 318V231Q389 220 379 220H147V171Q147 124 163 103T216 82Q247 82 262 95T276 135Q276 147 286 147H372Q380 147 382 136Q383 65 342
29T216 -8ZM147 295H280V326Q280 370 265 390T215 411Q180 411 164 391T147 326V295ZM210 560Q201 560 195 568L113 692Q110 697 111 701T119 705H200Q209 705 213 696L279 572Q285 560 273 560H210Z" />
<glyph unicode="&#xe9;" horiz-adv-x="427" d="M216 -8Q127 -8 83 36T38 171V318Q38 409 83 455T213 501Q301 501 345 455T389 318V231Q389 220 379 220H147V171Q147 124 163 103T216 82Q247 82 262 95T276 135Q276 147 286 147H372Q380 147 382 136Q383 65 342
29T216 -8ZM147 295H280V326Q280 370 265 390T215 411Q180 411 164 391T147 326V295ZM154 560Q142 560 147 572L213 696Q218 705 227 705H307Q313 705 314 701T313 692L231 568Q227 560 216 560H154Z" />
<glyph unicode="&#xea;" horiz-adv-x="427" d="M216 -8Q127 -8 83 36T38 171V318Q38 409 83 455T213 501Q301 501 345 455T389 318V231Q389 220 379 220H147V171Q147 124 163 103T216 82Q247 82 262 95T276 135Q276 147 286 147H372Q380 147 382 136Q383 65 342
29T216 -8ZM147 295H280V326Q280 370 265 390T215 411Q180 411 164 391T147 326V295ZM118 555Q107 549 107 560V620Q107 629 113 633L208 687Q214 691 221 687L315 633Q321 629 321 620V560Q321 549 309 555L214 603L118 555Z" />
<glyph unicode="&#xeb;" horiz-adv-x="427" d="M216 -8Q127 -8 83 36T38 171V318Q38 409 83 455T213 501Q301 501 345 455T389 318V231Q389 220 379 220H147V171Q147 124 163 103T216 82Q247 82 262 95T276 135Q276 147 286 147H372Q380 147 382 136Q383 65 342
29T216 -8ZM147 295H280V326Q280 370 265 390T215 411Q180 411 164 391T147 326V295ZM135 570Q107 570 92 584T76 625V639Q76 665 91 679T135 694Q163 694 178 680T193 639V625Q193 599 178 585T135 570ZM294 570Q265 570 250 584T235 625V639Q235 665 250 679T294
694Q323 694 337 680T351 639V625Q351 599 337 585T294 570Z" />
<glyph unicode="&#xec;" horiz-adv-x="203" d="M57 0Q47 0 47 11V481Q47 492 57 492H147Q157 492 157 481V11Q157 0 147 0H57ZM355 557Q346 557 340 565L258 689Q255 694 256 698T264 702H345Q354 702 358 693L424 569Q430 557 418 557H355Z" />
<glyph unicode="&#xed;" horiz-adv-x="203" d="M57 0Q47 0 47 11V481Q47 492 57 492H147Q157 492 157 481V11Q157 0 147 0H57ZM43 557Q31 557 36 569L102 693Q107 702 116 702H196Q202 702 203 698T202 689L120 565Q116 557 105 557H43Z" />
<glyph unicode="&#xee;" horiz-adv-x="203" d="M57 0Q47 0 47 11V481Q47 492 57 492H147Q157 492 157 481V11Q157 0 147 0H57ZM263 552Q252 546 252 557V617Q252 626 258 630L353 684Q359 688 366 684L460 630Q466 626 466 617V557Q466 546 454 552L359 600L263 552Z" />
<glyph unicode="&#xef;" horiz-adv-x="203" d="M57 0Q47 0 47 11V481Q47 492 57 492H147Q157 492 157 481V11Q157 0 147 0H57ZM280 567Q252 567 237 581T221 622V636Q221 662 236 676T280 691Q308 691 323 677T338 636V622Q338 596 323 582T280 567ZM439 567Q410
567 395 581T380 622V636Q380 662 395 676T439 691Q468 691 482 677T496 636V622Q496 596 482 582T439 567Z" />
<glyph unicode="&#xf0;" horiz-adv-x="432" d="M215 -8Q128 -8 83 37T38 172V294Q38 379 72 420T168 462Q205 462 238 447T295 404L294 313Q276 337 253 352T204 367Q177 367 163 348T148 286V173Q148 128 164 108T216 88Q251 88 267 110T284 180V340Q289 414
276 468T229 559T134 614Q126 617 125 621T127 631L165 684Q169 690 173 691T184 690Q288 661 340 577T393 365V176Q393 87 348 40T215 -8ZM162 506Q157 502 152 509L131 544Q127 550 135 555L339 685Q346 689 350 681L370 647Q373 642 366 636L162 506Z" />
<glyph unicode="&#xf1;" horiz-adv-x="445" d="M299 0Q288 0 288 11V343Q288 375 277 389T241 403Q219 403 197 389T147 345L136 413Q169 453 206 477T288 501Q343 501 370 467T398 359V11Q398 0 388 0H299ZM57 0Q47 0 47 11V367Q47 402 46 430T43 479Q42 492
52 492H130Q139 492 141 482Q143 466 145 439T149 393L157 366V11Q157 0 147 0H57ZM264 566Q247 566 234 571T208 582T181 588Q167 588 154 583T130 572Q118 566 118 579V633Q118 643 124 647Q134 655 150 662T185 670Q206 670 219 665T243 654T269 648Q283 648
296 653T319 663Q332 670 332 656V603Q332 598 331 595T326 588Q316 580 300 573T264 566Z" />
<glyph unicode="&#xf2;" horiz-adv-x="436" d="M218 -8Q132 -8 85 38T38 174V318Q38 408 84 454T218 501Q304 501 350 455T397 318V174Q397 84 351 38T218 -8ZM218 89Q254 89 270 110T287 179V313Q287 361 271 382T218 403Q182 403 165 382T148 313V179Q148 132
165 111T218 89ZM214 557Q205 557 199 565L117 689Q114 694 115 698T123 702H204Q213 702 217 693L283 569Q289 557 277 557H214Z" />
<glyph unicode="&#xf3;" horiz-adv-x="436" d="M218 -8Q132 -8 85 38T38 174V318Q38 408 84 454T218 501Q304 501 350 455T397 318V174Q397 84 351 38T218 -8ZM218 89Q254 89 270 110T287 179V313Q287 361 271 382T218 403Q182 403 165 382T148 313V179Q148 132
165 111T218 89ZM158 557Q146 557 151 569L217 693Q222 702 231 702H311Q317 702 318 698T317 689L235 565Q231 557 220 557H158Z" />
<glyph unicode="&#xf4;" horiz-adv-x="436" d="M218 -8Q132 -8 85 38T38 174V318Q38 408 84 454T218 501Q304 501 350 455T397 318V174Q397 84 351 38T218 -8ZM218 89Q254 89 270 110T287 179V313Q287 361 271 382T218 403Q182 403 165 382T148 313V179Q148 132
165 111T218 89ZM122 552Q111 546 111 557V617Q111 626 117 630L212 684Q218 688 225 684L319 630Q325 626 325 617V557Q325 546 313 552L218 600L122 552Z" />
<glyph unicode="&#xf5;" horiz-adv-x="436" d="M218 -8Q132 -8 85 38T38 174V318Q38 408 84 454T218 501Q304 501 350 455T397 318V174Q397 84 351 38T218 -8ZM218 89Q254 89 270 110T287 179V313Q287 361 271 382T218 403Q182 403 165 382T148 313V179Q148 132
165 111T218 89ZM257 566Q240 566 227 571T201 582T174 588Q160 588 147 583T123 572Q111 566 111 579V633Q111 643 117 647Q127 655 143 662T178 670Q199 670 212 665T236 654T262 648Q276 648 289 653T312 663Q325 670 325 656V603Q325 598 324 595T319 588Q309
580 293 573T257 566Z" />
<glyph unicode="&#xf6;" horiz-adv-x="436" d="M218 -8Q132 -8 85 38T38 174V318Q38 408 84 454T218 501Q304 501 350 455T397 318V174Q397 84 351 38T218 -8ZM218 89Q254 89 270 110T287 179V313Q287 361 271 382T218 403Q182 403 165 382T148 313V179Q148 132
165 111T218 89ZM139 567Q111 567 96 581T80 622V636Q80 662 95 676T139 691Q167 691 182 677T197 636V622Q197 596 182 582T139 567ZM298 567Q269 567 254 581T239 622V636Q239 662 254 676T298 691Q327 691 341 677T355 636V622Q355 596 341 582T298 567Z" />
<glyph unicode="&#xf7;" horiz-adv-x="489" d="M90 255Q79 255 79 267V334Q79 346 90 346H400Q411 346 411 334V267Q411 255 400 255H90ZM245 91Q218 91 205 106T191 144V160Q191 184 204 198T245 212Q272 212 286 198T300 160V144Q300 121 286 106T245 91ZM245
388Q218 388 205 402T191 439V455Q191 480 204 494T245 508Q272 508 286 494T300 455V439Q300 417 286 403T245 388Z" />
<glyph unicode="&#xf8;" horiz-adv-x="436" d="M25 -51Q19 -51 18 -47T19 -38L84 86L127 133L274 416L289 467L325 535Q329 542 337 542H411Q417 542 419 539T418 529L358 418L314 369L165 80L149 27L111 -43Q107 -51 99 -51H25ZM218 -8Q132 -8 85 38T38 174V318Q38
408 84 454T218 501Q304 501 350 455T397 318V174Q397 84 351 38T218 -8ZM218 89Q254 89 270 110T287 179V313Q287 361 271 382T218 403Q182 403 165 382T148 313V179Q148 132 165 111T218 89Z" />
<glyph unicode="&#xf9;" horiz-adv-x="437" d="M154 -8Q98 -8 73 26T47 134V481Q47 492 57 492H147Q157 492 157 481V150Q157 117 167 103T197 89Q222 89 245 105T294 153L304 83Q273 42 235 17T154 -8ZM309 0Q298 0 297 10Q294 28 292 52T289 95L280 126V481Q280
492 291 492H379Q390 492 390 481V125Q390 91 391 63T394 13Q396 0 384 0H309ZM215 557Q206 557 200 565L118 689Q115 694 116 698T124 702H205Q214 702 218 693L284 569Q290 557 278 557H215Z" />
<glyph unicode="&#xfa;" horiz-adv-x="437" d="M154 -8Q98 -8 73 26T47 134V481Q47 492 57 492H147Q157 492 157 481V150Q157 117 167 103T197 89Q222 89 245 105T294 153L304 83Q273 42 235 17T154 -8ZM309 0Q298 0 297 10Q294 28 292 52T289 95L280 126V481Q280
492 291 492H379Q390 492 390 481V125Q390 91 391 63T394 13Q396 0 384 0H309ZM159 557Q147 557 152 569L218 693Q223 702 232 702H312Q318 702 319 698T318 689L236 565Q232 557 221 557H159Z" />
<glyph unicode="&#xfb;" horiz-adv-x="437" d="M154 -8Q98 -8 73 26T47 134V481Q47 492 57 492H147Q157 492 157 481V150Q157 117 167 103T197 89Q222 89 245 105T294 153L304 83Q273 42 235 17T154 -8ZM309 0Q298 0 297 10Q294 28 292 52T289 95L280 126V481Q280
492 291 492H379Q390 492 390 481V125Q390 91 391 63T394 13Q396 0 384 0H309ZM123 552Q112 546 112 557V617Q112 626 118 630L213 684Q219 688 226 684L320 630Q326 626 326 617V557Q326 546 314 552L219 600L123 552Z" />
<glyph unicode="&#xfc;" horiz-adv-x="437" d="M154 -8Q98 -8 73 26T47 134V481Q47 492 57 492H147Q157 492 157 481V150Q157 117 167 103T197 89Q222 89 245 105T294 153L304 83Q273 42 235 17T154 -8ZM309 0Q298 0 297 10Q294 28 292 52T289 95L280 126V481Q280
492 291 492H379Q390 492 390 481V125Q390 91 391 63T394 13Q396 0 384 0H309ZM140 567Q112 567 97 581T81 622V636Q81 662 96 676T140 691Q168 691 183 677T198 636V622Q198 596 183 582T140 567ZM299 567Q270 567 255 581T240 622V636Q240 662 255 676T299 691Q328
691 342 677T356 636V622Q356 596 342 582T299 567Z" />
<glyph unicode="&#xfd;" horiz-adv-x="416" d="M114 -185Q108 -185 106 -181T106 -172L156 3L16 479Q12 492 24 492H121Q130 492 133 482L181 282Q189 250 195 214T208 145H210Q216 178 223 214T236 282L285 483Q287 492 296 492H392Q404 492 400 479L212 -176Q210
-185 201 -185H114ZM149 557Q137 557 142 569L208 693Q213 702 222 702H302Q308 702 309 698T308 689L226 565Q222 557 211 557H149Z" />
<glyph unicode="&#xfe;" horiz-adv-x="433" d="M57 -185Q47 -185 47 -174V672Q47 683 57 683H147Q157 683 157 672V443Q186 471 216 486T283 501Q338 501 365 466T392 355V167Q392 78 359 35T260 -8Q235 -8 208 -2T157 15V-174Q157 -185 147 -185H57ZM223 86Q253
86 268 107T283 173V338Q283 372 273 387T238 403Q219 403 200 392T157 359V102Q172 95 189 91T223 86Z" />
<glyph unicode="&#xff;" horiz-adv-x="416" d="M114 -185Q108 -185 106 -181T106 -172L156 3L16 479Q12 492 24 492H121Q130 492 133 482L181 282Q189 250 195 214T208 145H210Q216 178 223 214T236 282L285 483Q287 492 296 492H392Q404 492 400 479L212 -176Q210
-185 201 -185H114ZM130 567Q102 567 87 581T71 622V636Q71 662 86 676T130 691Q158 691 173 677T188 636V622Q188 596 173 582T130 567ZM289 567Q260 567 245 581T230 622V636Q230 662 245 676T289 691Q318 691 332 677T346 636V622Q346 596 332 582T289 567Z"
/>
<glyph unicode="&#x2013;" horiz-adv-x="580" d="M55 223Q44 223 44 235V297Q44 309 55 309H524Q536 309 536 297V235Q536 223 524 223H55Z" />
<glyph unicode="&#x2014;" horiz-adv-x="689" d="M55 223Q44 223 44 235V297Q44 309 55 309H633Q645 309 645 297V235Q645 223 633 223H55Z" />
<glyph unicode="&#x2018;" horiz-adv-x="231" d="M198 655Q210 655 207 642L160 391Q158 380 149 380H42Q28 380 32 394L109 646Q111 655 120 655H198Z" />
<glyph unicode="&#x2019;" horiz-adv-x="236" d="M32 380Q20 380 23 393L70 644Q72 655 82 655H189Q202 655 198 641L121 389Q119 380 110 380H32Z" />
<glyph unicode="&#x201a;" horiz-adv-x="236" d="M32 -140Q20 -140 23 -127L70 124Q72 135 82 135H189Q202 135 198 121L121 -131Q119 -140 110 -140H32Z" />
<glyph unicode="&#x201c;" horiz-adv-x="405" d="M372 655Q384 655 381 642L334 391Q332 380 323 380H216Q202 380 206 394L283 646Q285 655 294 655H372ZM198 655Q210 655 207 642L160 391Q158 380 149 380H42Q28 380 32 394L109 646Q111 655 120 655H198Z" />
<glyph unicode="&#x201d;" horiz-adv-x="410" d="M32 380Q20 380 23 393L70 644Q72 655 82 655H189Q202 655 198 641L121 389Q119 380 110 380H32ZM206 380Q194 380 197 393L244 644Q246 655 256 655H363Q376 655 372 641L295 389Q293 380 284 380H206Z" />
<glyph unicode="&#x201e;" horiz-adv-x="410" d="M32 -140Q20 -140 23 -127L70 124Q72 135 82 135H189Q202 135 198 121L121 -131Q119 -140 110 -140H32ZM206 -140Q194 -140 197 -127L244 124Q246 135 256 135H363Q376 135 372 121L295 -131Q293 -140 284 -140H206Z" />
<glyph unicode="&#x2022;" horiz-adv-x="278" d="M139 166Q97 166 73 188T48 249V287Q48 327 72 348T139 370Q183 370 207 349T231 287V249Q231 210 207 188T139 166Z" />
<glyph unicode="&#x2039;" horiz-adv-x="271" d="M136 89Q129 89 124 96L41 256Q39 259 39 263T41 271L124 430Q129 438 136 438H221Q228 438 230 435T229 425L149 263L228 102Q232 97 230 93T221 89H136Z" />
<glyph unicode="&#x203a;" horiz-adv-x="266" d="M46 89Q41 89 39 93T39 102L119 263L39 425Q36 431 38 434T46 438H132Q139 438 143 430L227 271Q231 264 227 256L143 96Q138 89 132 89H46Z" />
</font>
</defs>
</svg>
