<?xml version="1.0" standalone="no"?>
<!DOCTYPE svg PUBLIC "-//W3C//DTD SVG 1.1//EN" "http://www.w3.org/Graphics/SVG/1.1/DTD/svg11.dtd">
<svg xmlns="http://www.w3.org/2000/svg">
<defs >
<font id="SofiaSansCondensed" horiz-adv-x="408" ><font-face
    font-family="Sofia Sans Condensed"
    units-per-em="1000"
    panose-1="0 0 0 0 0 0 0 0 0 0"
    ascent="900"
    descent="-300"
    alphabetic="0" />
<glyph unicode=" " horiz-adv-x="154" />
<glyph unicode="!" horiz-adv-x="214" d="M68 209Q59 209 61 220L120 644Q122 655 130 655H231Q241 655 239 644L164 220Q163 209 153 209H68ZM78 -8Q48 -8 33 7T21 52L25 72Q29 101 46 114T94 128Q126 128 141 112T152 66L149 46Q145 18 128 5T78 -8Z" />
<glyph unicode="&quot;" horiz-adv-x="331" d="M240 402Q228 402 230 413L271 672Q274 683 284 683H363Q374 683 372 672L331 413Q329 402 319 402H240ZM81 402Q70 402 72 413L113 672Q115 683 126 683H205Q217 683 215 672L174 413Q172 402 160 402H81Z" />
<glyph unicode="#" horiz-adv-x="481" d="M73 0Q62 0 63 11L80 119H26Q15 119 17 130L26 192Q28 204 39 204H93L126 409H72Q61 409 63 421L73 483Q75 494 85 494H140L157 602Q159 613 170 613H233Q245 613 242 602L226 494H352L369 602Q371 613 382 613H446Q457
613 455 602L438 494H493Q504 494 502 483L492 421Q491 409 479 409H424L392 204H447Q457 204 456 192L446 130Q444 119 433 119H378L361 11Q360 0 349 0H285Q274 0 276 11L293 119H166L149 11Q147 0 136 0H73ZM179 204H306L339 409H212L179 204Z" />
<glyph unicode="$" horiz-adv-x="484" d="M214 -8Q121 -8 80 43T63 186Q65 198 75 198H157Q168 198 165 186Q152 136 167 111T225 85Q253 85 273 98T303 133T313 187Q313 213 304 231T273 264L186 326Q150 353 131 387T112 467Q112 529 134 573T199 640T303 663Q397
663 436 613T456 474Q452 461 444 461H360Q350 461 353 473Q362 520 349 545T297 570Q272 570 255 559T228 527T219 481Q219 456 229 439T262 404L349 343Q386 316 403 284T421 205Q421 102 367 47T214 -8ZM162 -88Q153 -88 154 -79L167 4L258 9L244 -79Q243 -88
233 -88H162ZM269 647L283 733Q285 742 293 742H364Q374 742 372 733L359 645L269 647Z" />
<glyph unicode="%" horiz-adv-x="789" d="M229 0Q223 0 221 4T221 13L377 344L512 648Q515 656 523 656H600Q614 656 607 643L460 331L317 7Q312 0 305 0H229ZM219 314Q152 314 118 351T84 452V525Q84 587 118 625T219 663Q287 663 320 625T354 525V452Q354 389
321 352T219 314ZM219 391Q247 391 259 406T272 452V526Q272 557 260 571T219 586Q191 586 178 571T165 526V452Q165 421 178 406T219 391ZM610 -8Q542 -8 509 30T475 130V203Q475 265 509 303T610 341Q678 341 711 303T745 203V130Q745 68 712 30T610 -8ZM610
69Q638 69 651 84T664 129V203Q664 234 651 249T610 264Q582 264 570 249T557 203V129Q557 98 569 84T610 69Z" />
<glyph unicode="&amp;" horiz-adv-x="517" d="M174 -8Q102 -8 64 28T26 124Q26 194 58 250T150 357Q129 396 120 428T111 495Q111 573 150 618T265 663Q322 663 353 635T385 558Q385 502 354 452T267 353L351 220Q362 249 371 283T386 359Q388 370 398 370H467Q478
370 476 358Q466 291 448 235T404 134L479 13Q482 8 480 4T471 0H380Q371 0 368 6L338 56Q305 25 264 9T174 -8ZM191 77Q222 77 247 89T294 125L193 287Q156 249 138 216T120 142Q120 111 138 94T191 77ZM226 422Q258 454 275 482T293 542Q293 563 284 572T257
582Q230 582 217 560T204 504Q204 483 209 464T226 422Z" />
<glyph unicode="&apos;" horiz-adv-x="173" d="M81 402Q70 402 72 413L113 672Q115 683 126 683H205Q217 683 215 672L174 413Q172 402 160 402H81Z" />
<glyph unicode="(" horiz-adv-x="225" d="M83 -161Q56 -129 40 -99T21 -31T25 58L98 515Q106 567 121 600T160 660T220 715Q231 724 238 716L279 668Q282 665 281 660T276 651Q251 627 234 607T207 561T190 498L121 58Q115 20 117 -6T130 -52T158 -96Q164 -106
155 -114L101 -161Q96 -165 92 -165T83 -161Z" />
<glyph unicode=")" horiz-adv-x="225" d="M18 -161L-23 -113Q-25 -109 -25 -105T-20 -96Q5 -70 22 -50T49 -5T66 58L136 498Q142 536 139 561T126 607T99 652Q92 661 101 669L155 716Q160 720 165 720T173 716Q201 684 216 654T236 588T231 497L158 41Q151 -11
136 -45T97 -106T36 -160Q26 -170 18 -161Z" />
<glyph unicode="*" horiz-adv-x="344" d="M167 432L123 473Q120 477 120 481T125 488L185 539L108 562Q104 564 102 567T102 576L126 628Q129 634 133 635T142 633L207 590L210 675Q210 684 218 684L274 678Q284 676 281 668L266 583L339 612Q345 614 349 612T354
604L366 548Q368 543 366 540T358 536L277 528L325 467Q333 457 322 452L271 423Q262 417 258 428L228 498L182 435Q179 429 175 429T167 432Z" />
<glyph unicode="+" horiz-adv-x="489" d="M232 140Q221 140 221 151V256H109Q98 256 98 268V333Q98 345 109 345H221V450Q221 461 232 461H298Q309 461 309 450V345H420Q431 345 431 333V268Q431 256 420 256H309V151Q309 140 298 140H232Z" />
<glyph unicode="," horiz-adv-x="223" d="M-23 -139Q-34 -139 -30 -128L57 123Q60 133 69 133H169Q175 133 177 129T177 119L62 -131Q59 -139 50 -139H-23Z" />
<glyph unicode="-" horiz-adv-x="366" d="M55 224Q44 224 46 236L55 296Q57 307 68 307H331Q342 307 340 296L330 236Q329 224 318 224H55Z" />
<glyph unicode="." horiz-adv-x="221" d="M86 -8Q55 -8 39 9T26 55L30 75Q39 133 104 133Q138 133 154 116T165 69L162 50Q153 -8 86 -8Z" />
<glyph unicode="/" horiz-adv-x="317" d="M-12 0Q-18 0 -19 3T-18 11L287 646Q292 655 300 655H375Q388 655 380 643L75 9Q71 0 63 0H-12Z" />
<glyph unicode="0" horiz-adv-x="467" d="M207 -8Q115 -8 73 47T48 209L86 454Q103 559 157 611T304 663Q396 663 438 608T464 446L426 201Q409 95 355 44T207 -8ZM218 86Q261 86 286 115T321 204L360 450Q370 510 353 539T293 569Q251 569 226 540T191 451L151
205Q143 145 159 116T218 86Z" />
<glyph unicode="1" horiz-adv-x="380" d="M9 0Q-2 0 0 11L11 83Q13 94 24 94H136L207 539L92 500Q80 496 82 508L93 579Q95 589 103 592L288 657Q295 659 302 659H320Q330 659 329 648L241 94H344Q356 94 354 83L342 11Q341 0 329 0H9Z" />
<glyph unicode="2" horiz-adv-x="426" d="M20 0Q9 0 11 11L22 85Q32 147 58 191T120 267T193 326T262 380T315 439T335 518Q335 544 322 557T278 571Q238 571 218 549T193 484Q191 472 181 472H103Q92 472 94 483Q104 570 154 616T292 663Q367 663 404 629T441
528Q441 467 421 423T368 346T298 286T227 231T167 172T135 94H364Q375 94 373 83L362 11Q361 0 349 0H20Z" />
<glyph unicode="3" horiz-adv-x="435" d="M190 -8Q99 -8 59 39T35 173Q38 184 48 184H125Q135 184 134 173Q127 126 142 106T198 85Q237 85 261 107T292 178L295 199Q302 247 285 268T222 290H176Q165 290 166 301L177 367Q179 379 190 379H233Q261 379 280 389T312
421T328 473L331 494Q343 571 271 571Q233 571 213 551T185 485Q183 474 172 474H96Q85 474 86 485Q97 571 147 617T286 663Q361 663 400 630T439 531Q439 466 410 415T332 341L331 339Q402 311 402 223Q402 114 345 53T190 -8Z" />
<glyph unicode="4" horiz-adv-x="451" d="M256 0Q245 0 247 11L264 122H9Q-2 122 -1 133L1 143Q2 148 3 152T7 159L280 647Q284 655 293 655H374Q387 655 381 642L149 217H280L320 424Q323 435 334 435H403Q414 435 412 424L380 217H426Q438 217 436 205L424 133Q422
122 411 122H365L347 11Q346 0 334 0H256Z" />
<glyph unicode="5" horiz-adv-x="426" d="M179 -8Q86 -8 47 41T28 172Q31 183 40 183H117Q128 183 126 172Q120 131 134 108T187 85Q231 85 256 112T290 198L293 218Q301 275 285 302T222 330Q192 330 157 321T80 297Q72 293 67 296T65 309L141 644Q145 655 154
655H422Q433 655 431 644L420 572Q418 561 407 561H217L181 402Q210 411 232 414T277 418Q340 418 371 384T402 278Q402 214 389 162T348 71T278 13T179 -8Z" />
<glyph unicode="6" horiz-adv-x="458" d="M302 663Q385 663 426 625T456 516Q453 504 443 504H367Q356 504 358 516Q363 542 346 556T294 571Q248 571 224 547T191 464L175 370Q212 393 248 404T317 416Q376 416 404 385T433 287Q433 197 407 131T330 28T208 -8Q112
-8 71 46T45 208L86 462Q102 564 154 613T302 663ZM267 328Q244 328 218 318T163 288L148 198Q139 138 154 111T213 84Q259 84 285 117T321 213L323 227Q331 281 318 304T267 328Z" />
<glyph unicode="7" horiz-adv-x="424" d="M78 0Q73 0 71 4T72 14L344 562H189L177 486Q175 474 164 474H85Q75 474 76 486L101 644Q103 655 114 655H485Q495 655 493 644L492 637Q491 630 487 623L181 10Q177 0 167 0H78Z" />
<glyph unicode="8" horiz-adv-x="459" d="M206 -8Q122 -8 75 29T28 136Q28 182 41 224T83 300T151 351Q126 368 113 394T100 458Q100 518 123 564T190 636T299 663Q374 663 415 628T456 530Q456 491 446 457T414 395T360 349Q429 315 429 221Q429 151 403 100T328
20T206 -8ZM215 81Q261 81 287 104T320 178L323 197Q330 248 313 277T247 307Q201 307 175 281T139 198L136 180Q129 132 148 107T215 81ZM262 386Q298 386 319 408T347 472L350 494Q356 532 342 554T290 577Q255 577 234 557T206 495L203 473Q197 434 211 410T262
386Z" />
<glyph unicode="9" horiz-adv-x="459" d="M201 -8Q115 -8 75 34T46 153Q47 165 58 165H135Q147 165 144 153Q138 121 154 103T209 84Q255 84 279 109T314 194L327 283Q291 259 257 248T189 236Q131 236 101 271T71 371Q71 439 85 492T127 584T198 643T296 663Q394
663 434 610T459 452L419 201Q403 94 351 43T201 -8ZM238 325Q262 325 287 335T340 364L355 457Q365 517 349 544T288 571Q243 571 218 543T184 451L180 430Q175 396 179 373T197 337T238 325Z" />
<glyph unicode=":" horiz-adv-x="219" d="M85 -8Q55 -8 39 8T27 54L30 73Q34 102 52 116T101 131Q133 131 149 114T161 68L157 48Q149 -8 85 -8ZM140 337Q110 337 94 353T82 399L85 419Q89 447 107 461T156 476Q189 476 204 459T216 413L212 394Q204 337 140 337Z" />
<glyph unicode=";" horiz-adv-x="228" d="M139 337Q109 337 93 354T81 399L84 419Q92 477 156 477Q188 477 203 460T215 414L212 394Q203 337 139 337ZM-31 -139Q-42 -139 -38 -128L48 123Q52 133 61 133H161Q166 133 168 129T168 119L54 -131Q50 -139 41 -139H-31Z" />
<glyph unicode="&lt;" horiz-adv-x="489" d="M418 111L107 253Q100 256 100 266V329Q100 338 107 342L418 484Q430 489 430 475V392Q430 382 422 379L207 298L422 216Q430 213 430 203V119Q430 106 418 111Z" />
<glyph unicode="=" horiz-adv-x="489" d="M108 340Q97 340 97 351V417Q97 428 108 428H422Q433 428 433 417V351Q433 340 422 340H108ZM108 175Q97 175 97 186V251Q97 263 108 263H422Q433 263 433 251V186Q433 175 422 175H108Z" />
<glyph unicode="&gt;" horiz-adv-x="489" d="M111 111Q100 106 100 119V203Q100 213 108 216L323 298L108 379Q100 382 100 392V475Q100 489 112 484L422 342Q430 338 430 329V266Q430 256 422 253L111 111Z" />
<glyph unicode="?" horiz-adv-x="384" d="M137 209Q128 209 129 220L136 263Q142 297 160 324T203 374T251 421T289 470T304 531Q304 554 291 563T251 573Q214 573 197 549T176 478Q176 466 165 466H88Q82 466 80 470T79 480Q87 571 133 617T264 663Q339 663 375
634T412 546Q412 497 396 462T356 400T307 350T263 304T239 253L233 219Q232 209 223 209H137ZM151 -8Q120 -8 105 7T93 52L97 72Q101 101 119 114T167 128Q198 128 213 112T224 66L221 46Q217 18 200 5T151 -8Z" />
<glyph unicode="@" horiz-adv-x="751" d="M314 -185Q201 -185 133 -141T41 -12T35 193L55 313Q74 434 123 518T255 646T450 691Q562 691 632 648T728 523T737 326L729 270Q710 148 655 86T513 23Q474 23 449 39T412 84Q377 54 344 39T275 23Q225 23 209 65T212
178L251 330Q272 407 313 443T421 480Q460 480 492 472T560 459Q571 457 567 445L498 184Q488 144 495 126T529 107Q567 107 594 148T636 276L643 328Q665 464 616 534T441 604Q360 604 300 570T202 470T148 303L130 189Q115 93 131 30T197 -65T332 -97H439Q449
-97 447 -109L437 -174Q435 -185 425 -185H314ZM325 109Q343 109 363 120T406 152Q408 157 409 163T411 175L468 391Q455 394 441 396T412 399Q385 399 366 381T336 319L300 178Q291 142 296 126T325 109Z" />
<glyph unicode="A" horiz-adv-x="461" d="M-20 0Q-32 0 -28 11L234 644Q238 655 247 655H360Q371 655 372 644L434 11Q436 0 423 0H333Q322 0 321 11L297 411Q295 446 293 481T290 552H288Q276 517 264 482T237 411L85 11Q82 0 72 0H-20ZM118 142L150 233H323L329
142H118Z" />
<glyph unicode="B" horiz-adv-x="463" d="M36 0Q25 0 27 11L128 644Q130 655 139 655H279Q372 655 416 621T461 517Q461 453 431 409T346 346V343Q391 331 413 299T436 215Q436 111 374 56T193 0H36ZM145 92H205Q266 92 297 123T329 216Q329 255 307 274T237 294H177L145
92ZM191 379H247Q280 379 304 393T341 433T354 495Q354 531 334 547T269 563H220L191 379Z" />
<glyph unicode="C" horiz-adv-x="501" d="M233 -8Q129 -8 82 52T52 225L87 449Q104 558 160 610T318 663Q387 663 432 635T495 555T495 435Q492 424 483 424H399Q388 424 389 435Q402 497 383 531T307 566Q257 566 230 538T192 446L156 224Q145 155 167 122T242
89Q297 89 324 124T357 220Q357 231 368 231H451Q463 231 462 220Q456 113 398 53T233 -8Z" />
<glyph unicode="D" horiz-adv-x="505" d="M37 0Q26 0 27 11L128 644Q130 655 138 655H275Q406 655 461 585T493 372L481 291Q458 143 389 72T195 0H37ZM146 96H201Q277 96 318 142T375 291L388 374Q403 469 375 514T268 559H219L146 96Z" />
<glyph unicode="E" horiz-adv-x="422" d="M36 0Q25 0 27 11L128 644Q130 655 139 655H441Q453 655 451 644L439 570Q437 558 427 558H219L190 379H378Q390 379 388 367L377 297Q376 286 365 286H176L146 97H352Q364 97 362 86L350 11Q348 0 338 0H36Z" />
<glyph unicode="F" d="M36 0Q25 0 27 11L128 644Q130 655 139 655H441Q452 655 450 644L438 570Q437 558 426 558H219L189 371H367Q379 371 376 360L365 288Q364 277 354 277H174L132 11Q131 0 120 0H36Z" />
<glyph unicode="G" horiz-adv-x="513" d="M201 -8Q117 -8 75 51T51 221L87 449Q104 559 160 611T316 663Q385 663 430 636T492 561T495 449Q494 438 484 438H400Q388 438 391 450Q402 504 381 535T307 566Q256 566 229 538T191 445L156 223Q145 154 165 122T237
89Q291 89 321 122T361 213L369 258H274Q263 258 265 269L274 328Q276 340 286 340H469Q482 340 479 328L450 145Q443 99 440 68T436 11Q436 0 425 0H359Q348 0 348 11Q348 24 349 41T354 76H353Q327 35 291 14T201 -8Z" />
<glyph unicode="H" horiz-adv-x="519" d="M37 0Q25 0 27 11L128 644Q130 655 138 655H223Q235 655 233 644L191 383H391L432 644Q434 655 443 655H527Q539 655 537 644L436 11Q435 0 425 0H342Q329 0 331 11L375 287H176L132 11Q131 0 120 0H37Z" />
<glyph unicode="I" horiz-adv-x="215" d="M37 0Q25 0 27 11L128 644Q130 655 138 655H223Q235 655 233 644L132 11Q131 0 120 0H37Z" />
<glyph unicode="J" horiz-adv-x="218" d="M-27 -150Q-39 -153 -41 -142L-51 -69Q-53 -57 -42 -54Q-21 -48 -5 -35T22 6T40 77L131 644Q133 655 142 655H227Q237 655 236 643L147 81Q135 6 113 -42T57 -115T-27 -150Z" />
<glyph unicode="K" horiz-adv-x="480" d="M37 0Q25 0 27 11L128 644Q130 655 138 655H223Q235 655 233 644L206 478Q201 445 195 412T182 345H184Q206 378 229 410T275 475L408 645Q414 655 423 655H523Q529 655 530 652T528 643L325 379L444 12Q446 7 444 4T435
0H341Q332 0 328 11L240 295L162 201L132 11Q131 0 120 0H37Z" />
<glyph unicode="L" horiz-adv-x="382" d="M36 0Q25 0 27 11L128 644Q130 655 139 655H223Q235 655 233 644L146 97H341Q354 97 351 86L339 11Q338 0 328 0H36Z" />
<glyph unicode="M" horiz-adv-x="615" d="M27 0Q15 0 17 11L127 644Q130 655 139 655H249Q260 655 261 644L322 289L496 644Q503 655 510 655H623Q635 655 633 644L543 11Q542 0 532 0H448Q437 0 439 11L486 340Q491 375 499 417T515 496H513Q497 463 480 429T444
360L304 88Q300 81 292 81H289Q280 81 279 88L226 361Q219 393 213 428T201 496H199Q195 459 190 420T178 341L121 11Q119 0 110 0H27Z" />
<glyph unicode="N" horiz-adv-x="521" d="M37 0Q25 0 27 11L128 644Q130 655 138 655H252Q262 655 264 644L332 307Q340 267 347 225T362 141H364Q368 184 374 235T386 329L436 644Q439 655 448 655H528Q541 655 538 644L438 11Q436 0 426 0H314Q304 0 302 11L239
310Q229 364 220 417T204 511H202Q197 465 191 412T176 310L129 11Q128 0 118 0H37Z" />
<glyph unicode="O" horiz-adv-x="506" d="M231 -8Q128 -8 81 52T51 223L87 450Q105 558 161 610T319 663Q424 663 471 603T501 432L465 205Q447 97 391 45T231 -8ZM242 89Q294 89 322 117T360 209L396 431Q407 500 385 533T309 566Q258 566 230 538T191 445L156
224Q144 155 166 122T242 89Z" />
<glyph unicode="P" horiz-adv-x="439" d="M37 0Q25 0 27 11L128 644Q130 655 139 655H269Q367 655 412 614T458 490Q458 410 430 353T349 265T222 234H167L132 11Q131 0 120 0H37ZM182 330H228Q268 330 295 347T336 398T350 479Q350 522 329 540T264 559H219L182 330Z" />
<glyph unicode="Q" horiz-adv-x="506" d="M293 -182Q235 -182 213 -132T211 27Q213 33 217 35T225 38L297 39Q306 39 304 27Q292 -36 296 -65T326 -94Q335 -94 341 -93T355 -90Q360 -88 363 -90T365 -99L355 -160Q354 -169 344 -173Q335 -177 322 -179T293 -182ZM231
-8Q128 -8 81 52T51 223L87 450Q105 558 161 610T319 663Q424 663 471 603T501 432L465 205Q447 97 391 45T231 -8ZM242 89Q294 89 322 117T360 209L396 431Q407 500 385 533T309 566Q258 566 230 538T191 445L156 224Q144 155 166 122T242 89Z" />
<glyph unicode="R" horiz-adv-x="477" d="M36 0Q26 0 27 11L128 644Q130 655 139 655H283Q383 655 429 616T475 495Q475 422 441 365T346 286V285L427 12Q429 8 426 4T417 0H326Q316 0 314 10L243 266H172L132 11Q131 0 120 0H36ZM186 356H245Q306 356 336 390T367
486Q367 526 346 542T278 559H219L186 356Z" />
<glyph unicode="S" horiz-adv-x="440" d="M200 -8Q101 -8 57 42T33 187Q36 198 45 198H126Q138 198 136 186Q126 135 145 111T208 86Q253 86 276 108T300 173Q300 193 295 209T277 239T244 269L159 334Q119 364 101 400T82 486Q82 568 133 615T275 663Q372 663
416 615T443 474Q440 461 431 461H348Q337 461 338 474Q347 522 328 545T269 569Q231 569 211 549T190 495Q190 468 201 449T241 408L325 343Q355 321 373 298T399 248T408 186Q408 93 354 43T200 -8Z" />
<glyph unicode="T" horiz-adv-x="423" d="M141 0Q129 0 131 12L218 558H90Q79 558 81 570L92 644Q94 655 104 655H466Q478 655 475 644L464 570Q462 558 452 558H324L236 11Q235 0 224 0H141Z" />
<glyph unicode="U" horiz-adv-x="508" d="M232 -8Q130 -8 84 51T56 226L124 644Q126 655 135 655H219Q230 655 229 643L161 225Q150 157 169 123T241 89Q291 89 318 121T357 225L424 644Q426 655 435 655H519Q530 655 528 643L461 221Q443 103 388 48T232 -8Z" />
<glyph unicode="V" horiz-adv-x="476" d="M152 0Q141 0 141 10L82 644Q81 649 84 652T93 655H182Q193 655 193 645L216 252Q218 214 219 178T222 104H224Q237 142 249 178T276 251L423 645Q428 655 436 655H530Q542 655 538 643L279 10Q275 0 267 0H152Z" />
<glyph unicode="W" horiz-adv-x="679" d="M129 0Q117 0 117 11L85 644Q85 655 96 655H179Q189 655 190 644L201 301Q202 256 201 208T197 116H199Q211 150 223 184T249 252L348 510L340 630Q340 642 351 642H433Q444 642 445 631L459 256Q460 221 460 186T460
116H462Q473 160 487 211T516 308L631 644Q635 655 645 655H730Q736 655 738 652T738 644L509 11Q505 0 496 0H396Q385 0 385 11L375 238Q374 268 373 299T371 363H370Q359 332 348 301T325 238L238 11Q234 0 225 0H129Z" />
<glyph unicode="X" horiz-adv-x="452" d="M-18 0Q-23 0 -25 3T-25 12L188 337L85 643Q83 649 86 652T95 655H190Q199 655 201 645L239 516Q246 492 251 469T262 421H263Q276 445 288 469T315 517L392 645Q397 655 405 655H505Q511 655 513 652T512 643L313 336L421
12Q423 6 420 3T411 0H316Q306 0 305 10L263 153Q257 178 252 202T240 250H239Q227 226 214 203T187 155L98 10Q95 6 92 3T84 0H-18Z" />
<glyph unicode="Y" horiz-adv-x="447" d="M153 0Q141 0 143 11L177 225L79 643Q77 655 89 655H180Q189 655 192 644L223 458Q229 427 234 396T243 333H245Q259 365 273 395T302 457L394 644Q400 655 408 655H505Q511 655 513 652T513 643L282 226L248 11Q247 0
237 0H153Z" />
<glyph unicode="Z" horiz-adv-x="430" d="M-8 0Q-18 0 -16 10L-15 15Q-15 22 -10 29L258 455Q274 481 291 507T324 558V559Q301 559 278 559T233 558H105Q93 558 95 570L107 644Q109 655 119 655H480Q490 655 489 645L488 639Q487 636 486 633T482 626L209 194Q194
169 177 145T145 97V96Q168 97 191 97T236 97H372Q384 97 382 85L370 11Q369 0 358 0H-8Z" />
<glyph unicode="[" horiz-adv-x="219" d="M2 -160Q-9 -160 -7 -149L128 704Q130 715 141 715H297Q309 715 307 704L297 642Q294 631 284 631H211L99 -76H172Q183 -76 181 -88L171 -149Q170 -160 158 -160H2Z" />
<glyph unicode="\" horiz-adv-x="318" d="M196 0Q188 0 186 9L82 643Q79 655 92 655H166Q175 655 177 646L281 12Q283 0 271 0H196Z" />
<glyph unicode="]" horiz-adv-x="219" d="M-47 -160Q-58 -160 -56 -149L-46 -88Q-44 -76 -33 -76H39L152 631H79Q67 631 69 642L79 704Q82 715 92 715H249Q260 715 258 704L123 -149Q121 -160 110 -160H-47Z" />
<glyph unicode="^" horiz-adv-x="415" d="M76 350Q63 350 69 362L200 675Q203 683 211 683H279Q287 683 290 675L420 363Q422 358 421 354T413 350H334Q325 350 322 358L244 581L167 358Q164 350 155 350H76Z" />
<glyph unicode="_" horiz-adv-x="411" d="M-32 -142Q-44 -142 -42 -130L-31 -70Q-29 -59 -19 -59H352Q364 -59 362 -70L353 -130Q350 -142 339 -142H-32Z" />
<glyph unicode="`" horiz-adv-x="223" d="M184 557Q175 557 170 568L110 689Q108 693 110 697T117 701H193Q203 701 207 689L251 568Q255 557 242 557H184Z" />
<glyph unicode="a" horiz-adv-x="422" d="M118 -8Q63 -8 42 31T32 147L61 332Q76 422 119 461T243 500Q294 500 335 491T421 479L365 125Q359 89 356 61T351 11Q351 0 339 0H270Q259 0 259 11Q259 24 260 37T262 64Q228 30 192 11T118 -8ZM173 85Q194 85 216 98T263
135L305 401Q290 405 274 407T242 409Q207 409 189 390T164 325L136 156Q130 121 138 103T173 85Z" />
<glyph unicode="b" horiz-adv-x="422" d="M191 -8Q144 -8 104 -1T19 12L124 672Q126 683 135 683H218Q229 683 227 671L134 90Q149 87 164 85T195 82Q230 82 249 102T276 171L302 338Q308 374 299 390T266 406Q245 406 220 391T163 347L174 427Q212 462 248 481T321
500Q376 500 398 464T408 355L379 166Q364 75 320 34T191 -8Z" />
<glyph unicode="c" horiz-adv-x="411" d="M187 -8Q100 -8 62 41T38 178L61 324Q75 415 121 457T251 500Q333 500 373 454T395 332Q392 321 383 321H309Q297 321 299 332Q306 369 291 387T243 406Q207 406 190 386T163 314L141 177Q133 130 147 108T197 85Q232
85 249 103T271 160Q272 172 283 172H357Q369 172 367 160Q360 77 315 35T187 -8Z" />
<glyph unicode="d" horiz-adv-x="426" d="M121 -8Q66 -8 44 30T34 145L67 345Q79 423 117 461T218 500Q249 500 279 492T332 470L320 385Q279 409 240 409Q209 409 192 391T169 334L140 155Q134 119 142 102T176 85Q199 85 224 100T280 148V80Q240 37 203 15T121
-8ZM272 0Q262 0 262 11Q261 29 263 53T268 95L265 125L351 672Q353 683 363 683H445Q457 683 455 672L368 122Q362 87 359 59T355 12Q355 0 344 0H272Z" />
<glyph unicode="e" horiz-adv-x="413" d="M185 -8Q100 -8 62 40T38 178L61 323Q76 415 122 457T252 500Q324 500 363 469T403 380Q403 309 362 268T238 216L145 204L138 163Q132 120 146 99T194 78Q224 78 241 92T263 134Q264 145 274 145H352Q364 145 362 134Q356
64 311 28T185 -8ZM157 281L220 289Q260 295 279 314T299 366Q299 390 285 401T244 413Q209 413 191 394T165 328L157 281Z" />
<glyph unicode="f" horiz-adv-x="303" d="M232 492H321Q333 492 331 480L320 410Q318 399 308 399H217L164 64Q154 -1 139 -49T98 -133T32 -193Q25 -197 20 -190L-23 -131Q-29 -124 -20 -116Q1 -97 16 -73T42 -15T61 67L113 399H61Q49 399 51 410L62 480Q64 492
74 492H128L137 546Q149 619 185 655T287 691Q314 691 339 687T379 677Q388 673 386 664L376 598Q375 587 364 590Q350 596 334 599T302 603Q274 603 260 588T239 539L232 492Z" />
<glyph unicode="g" horiz-adv-x="424" d="M244 500Q295 500 336 492T423 479L344 -22Q330 -113 288 -154T157 -196Q74 -196 40 -154T18 -49Q21 -38 30 -38H105Q117 -38 115 -49Q111 -76 122 -90T164 -104Q198 -104 215 -86T241 -19L257 82Q224 53 192 38T126 23Q70
23 48 62T39 176L64 335Q78 421 120 460T244 500ZM180 117Q200 117 222 129T270 164L308 401Q293 405 276 407T243 409Q210 409 192 391T166 325L144 188Q138 151 147 134T180 117Z" />
<glyph unicode="h" horiz-adv-x="434" d="M28 0Q18 0 19 11L124 672Q126 683 135 683H218Q229 683 227 672L123 11Q121 0 111 0H28ZM266 0Q255 0 256 11L308 339Q314 375 305 390T271 406Q248 406 223 392T166 346V414Q205 455 244 477T325 500Q380 500 402 464T413
351L360 11Q359 0 348 0H266Z" />
<glyph unicode="i" horiz-adv-x="198" d="M30 0Q18 0 19 11L94 480Q96 492 106 492H188Q200 492 198 480L123 11Q121 0 112 0H30ZM161 565Q132 565 117 580T105 623L107 637Q114 696 174 696Q204 696 219 681T230 637L228 623Q221 565 161 565Z" />
<glyph unicode="j" horiz-adv-x="193" d="M91 480Q93 492 104 492H185Q197 492 195 480L129 64Q119 -1 104 -50T64 -133T-1 -193Q-7 -197 -13 -190L-57 -131Q-63 -124 -53 -116Q-33 -98 -18 -75T7 -17T26 66L91 480ZM160 565Q131 565 116 580T104 623L106 637Q113
696 173 696Q203 696 218 681T229 637L227 623Q220 565 160 565Z" />
<glyph unicode="k" horiz-adv-x="409" d="M29 0Q18 0 19 11L124 672Q126 683 135 683H218Q229 683 227 672L185 412Q181 381 175 350T163 285H165Q180 308 197 331T231 377L317 482Q324 492 332 492H430Q436 492 437 488T435 479L279 291L372 12Q374 7 371 4T363
0H272Q263 0 260 10L196 214L146 154L123 11Q121 0 111 0H29Z" />
<glyph unicode="l" horiz-adv-x="198" d="M28 0Q18 0 19 11L124 672Q126 683 135 683H218Q229 683 227 672L123 11Q121 0 111 0H28Z" />
<glyph unicode="m" horiz-adv-x="648" d="M29 0Q18 0 19 11L76 367Q81 402 84 430T89 480Q90 492 101 492H172Q182 492 182 480Q183 469 183 456T180 428Q215 463 249 481T321 500Q395 500 404 428Q438 463 473 481T547 500Q599 500 619 465T627 354L573 11Q572
0 561 0H480Q468 0 470 12L522 341Q533 406 490 406Q471 406 450 394T403 357L348 11Q346 0 336 0H254Q243 0 244 11L297 341Q308 406 264 406Q246 406 225 394T178 357L123 11Q121 0 111 0H29Z" />
<glyph unicode="n" horiz-adv-x="434" d="M266 0Q255 0 256 11L308 339Q313 375 304 390T271 406Q248 406 223 392T166 346V414Q205 455 244 477T325 500Q380 500 402 464T413 351L360 11Q359 0 348 0H266ZM29 0Q18 0 19 11L76 367Q81 401 84 431T89 480Q90 492
101 492H171Q182 492 182 480Q183 463 181 438T175 394L180 369L123 11Q121 0 111 0H29Z" />
<glyph unicode="o" horiz-adv-x="424" d="M189 -8Q103 -8 63 39T37 177L61 324Q75 414 123 457T254 500Q338 500 379 453T406 315L383 169Q369 79 321 36T189 -8ZM199 85Q235 85 253 105T280 175L302 312Q310 362 296 384T244 406Q208 406 190 386T164 317L141
179Q134 131 148 108T199 85Z" />
<glyph unicode="p" horiz-adv-x="422" d="M226 -8Q197 -8 165 0T112 22L124 106Q142 95 162 89T202 82Q233 82 250 102T275 170L302 335Q308 372 299 389T265 406Q244 406 218 390T162 345L163 415Q205 458 242 479T320 500Q376 500 397 463T407 348L378 164Q364
76 327 34T226 -8ZM0 -185Q-11 -185 -10 -174L77 369Q82 406 85 433T89 480Q90 492 101 492H172Q182 492 182 480Q183 464 181 441T176 400L180 369L93 -174Q92 -185 82 -185H0Z" />
<glyph unicode="q" horiz-adv-x="424" d="M227 -185Q216 -185 217 -174L309 401Q294 404 278 406T245 409Q211 409 193 390T167 325L140 157Q127 85 175 85Q198 85 222 99T277 143L273 71Q235 32 198 12T121 -8Q65 -8 44 30T35 145L64 333Q78 419 120 459T245
500Q296 500 337 491T424 479L321 -174Q319 -185 309 -185H227Z" />
<glyph unicode="r" horiz-adv-x="302" d="M29 0Q18 0 19 11L76 367Q82 402 85 430T89 480Q90 492 101 492H172Q182 492 182 480Q183 462 181 438T175 395L179 363L123 11Q121 0 111 0H29ZM163 320L171 413Q190 435 211 455T257 487T306 500Q314 500 319 500T327
497Q335 495 334 486Q332 465 328 440T317 393Q313 381 304 383Q299 385 293 385T278 386Q259 386 239 378T200 355T163 320Z" />
<glyph unicode="s" horiz-adv-x="373" d="M164 -8Q81 -8 48 32T30 145Q31 157 42 157H116Q127 157 126 145Q119 109 130 92T172 74Q201 74 216 88T231 130Q231 151 223 165T194 197L124 248Q95 270 80 297T64 361Q64 427 105 463T223 500Q298 500 335 465T362
364Q361 352 351 352H275Q264 352 266 364Q274 417 221 417Q169 417 169 370Q169 352 177 339T206 309L272 261Q306 236 321 209T337 142Q337 72 293 32T164 -8Z" />
<glyph unicode="t" horiz-adv-x="321" d="M182 -8Q112 -8 86 30T74 153L113 400H60Q48 400 50 411L61 480Q64 492 73 492H131L161 611Q165 622 173 622H240Q252 622 250 610L231 492H335Q347 492 345 480L333 411Q332 400 322 400H217L178 159Q172 117 181 101T218
85Q234 85 247 88T273 96Q286 101 284 87L272 17Q271 8 262 4Q245 -2 225 -5T182 -8Z" />
<glyph unicode="u" horiz-adv-x="426" d="M124 -8Q72 -8 50 28T40 140L93 480Q95 492 105 492H187Q199 492 197 480L145 153Q139 117 147 101T179 85Q202 85 227 102T282 149V80Q246 42 208 17T124 -8ZM275 0Q263 0 263 11Q263 29 265 53T270 95L266 125L322 480Q324
492 334 492H416Q428 492 426 480L369 124Q363 90 360 62T355 11Q355 0 344 0H275Z" />
<glyph unicode="v" horiz-adv-x="407" d="M121 0Q111 0 110 11L64 480Q63 492 75 492H161Q172 492 172 480L185 225Q186 195 187 165T188 102H190Q200 134 209 164T231 226L325 480Q329 492 338 492H427Q439 492 435 480L240 11Q236 0 228 0H121Z" />
<glyph unicode="w" horiz-adv-x="590" d="M113 0Q102 0 102 11L68 480Q67 492 79 492H164Q174 492 174 480L182 241Q183 210 182 174T181 107H183Q194 138 205 168T227 230L281 371L278 470Q277 481 288 481H364Q374 481 375 471L379 232Q379 200 379 170T379
107H381Q390 138 399 169T420 232L506 480Q509 492 519 492H606Q612 492 614 489T614 480L431 11Q427 0 418 0H321Q310 0 310 11L305 121Q304 145 304 173T303 229H301Q292 202 283 175T264 121L222 11Q218 0 209 0H113Z" />
<glyph unicode="x" horiz-adv-x="405" d="M-10 0Q-16 0 -17 3T-16 12L150 253L67 480Q66 485 68 488T75 492H166Q177 492 179 481L201 401Q206 381 211 359T221 315H222Q233 336 245 358T268 401L316 481Q321 492 330 492H424Q430 492 431 489T430 480L276 255L366
12Q371 0 357 0H266Q257 0 254 10L228 98Q222 120 216 142T206 188H204Q192 166 180 143T154 98L99 10Q94 0 86 0H-10Z" />
<glyph unicode="y" horiz-adv-x="404" d="M53 -185Q48 -185 46 -182T46 -173L124 4L63 480Q62 486 65 489T73 492H159Q170 492 170 480L187 279Q189 245 190 211T193 142H195Q207 176 219 210T245 278L324 480Q328 492 338 492H427Q432 492 434 489T434 480L147
-174Q143 -185 134 -185H53Z" />
<glyph unicode="z" horiz-adv-x="375" d="M-3 0Q-13 0 -11 10L-10 13Q-8 22 -4 28L189 315Q203 337 216 357T244 398V400Q224 399 207 399T171 399H82Q70 399 72 410L83 480Q86 492 95 492H395Q406 492 404 482L403 479Q402 471 394 459L208 183Q194 160 179 138T148
94V92Q167 93 183 93T219 93H317Q329 93 327 81L316 11Q314 0 305 0H-3Z" />
<glyph unicode="{" horiz-adv-x="234" d="M170 -161Q114 -161 83 -144T44 -87T47 24L71 176Q76 207 70 220T44 234H29Q18 234 20 246L30 310Q32 321 43 321H58Q79 321 89 335T103 380L130 547Q141 616 161 652T216 702T309 716Q320 716 318 705L309 644Q307 632
296 632Q272 632 259 626T238 603T225 555L198 385Q192 342 175 315T128 278Q154 268 162 240T165 168L137 0Q133 -29 135 -46T148 -70T184 -77Q195 -77 193 -89L183 -149Q181 -161 170 -161Z" />
<glyph unicode="|" horiz-adv-x="226" d="M97 -185Q86 -185 86 -174V819Q86 830 97 830H173Q184 830 184 819V-174Q184 -185 173 -185H97Z" />
<glyph unicode="}" horiz-adv-x="234" d="M96 716Q152 716 182 698T221 640T219 531L195 379Q190 349 196 335T222 321H237Q248 321 246 310L236 246Q234 234 223 234H208Q188 234 178 220T162 175L136 9Q125 -60 105 -97T50 -147T-43 -161Q-54 -161 -52 -149L-43
-89Q-41 -77 -30 -77Q-6 -77 7 -70T29 -47T41 0L68 170Q74 214 91 241T138 278Q112 287 104 316T102 387L129 555Q134 586 132 602T119 625T83 632Q72 632 73 644L83 705Q85 716 96 716Z" />
<glyph unicode="~" horiz-adv-x="489" d="M334 241Q302 241 283 249T244 264T194 271Q169 271 144 263T106 250Q97 246 97 256V324Q97 333 103 335Q114 341 137 350T195 360Q227 360 247 353T287 338T336 330Q361 330 385 338T423 352Q432 355 432 345V277Q432
269 426 266Q416 259 393 250T334 241Z" />
<glyph unicode="&#xa0;" horiz-adv-x="154" />
<glyph unicode="&#xa1;" horiz-adv-x="214" d="M176 286Q184 286 183 275L124 -149Q123 -160 114 -160H13Q3 -160 5 -149L80 275Q81 286 91 286H176ZM165 503Q195 503 211 488T222 443L219 423Q215 394 198 381T149 368Q118 368 103 384T91 429L95 449Q99 478
116 490T165 503Z" />
<glyph unicode="&#xa2;" horiz-adv-x="484" d="M244 533L257 619Q259 629 268 629H339Q349 629 347 619L334 534L244 533ZM162 -38Q153 -38 155 -28L168 57L258 56L245 -28Q244 -38 234 -38H162ZM219 42Q131 42 94 91T69 228L92 374Q107 465 153 507T283 550Q364
550 404 504T426 382Q423 371 415 371H341Q328 371 331 382Q337 419 322 437T275 456Q239 456 221 436T195 364L173 227Q165 180 179 158T229 135Q263 135 280 153T302 210Q304 222 314 222H389Q400 222 399 210Q392 127 346 85T219 42Z" />
<glyph unicode="&#xa3;" horiz-adv-x="484" d="M56 0Q45 0 46 11L55 68Q57 76 62 82Q80 106 92 132T110 191L156 487Q170 576 212 619T335 663Q414 663 448 620T466 485Q463 473 453 473H380Q369 473 371 485Q379 529 370 550T328 572Q299 572 283 552T259 481L215
204Q208 165 198 140T169 94H405Q417 94 415 83L404 11Q402 0 391 0H56ZM79 291Q69 291 70 302L80 365Q82 377 93 377H348Q360 377 358 365L347 302Q346 291 334 291H79Z" />
<glyph unicode="&#xa4;" horiz-adv-x="511" d="M140 106Q134 100 127 106L80 158Q76 164 81 171L135 224Q128 243 124 265T120 314Q120 340 124 362T135 404L81 457Q76 464 81 470L127 521Q134 528 140 522L188 475Q224 501 276 501Q327 501 362 475L411 522Q417
529 424 522L470 470Q475 464 469 457L416 404Q431 365 431 314Q431 263 416 224L470 171Q475 164 471 158L424 106Q417 100 411 107L363 153Q327 127 276 127Q223 127 188 153L140 106ZM276 211Q313 211 328 236T344 314Q344 367 329 392T276 417Q238 417 223
392T208 314Q208 262 223 237T276 211Z" />
<glyph unicode="&#xa5;" horiz-adv-x="485" d="M170 0Q160 0 161 11L195 225L108 642Q106 655 118 655H209Q219 655 219 647L243 464Q248 432 252 399T260 331H262Q276 366 291 399T321 464L403 647Q406 655 415 655H516Q528 655 521 642L302 226L267 11Q266 0
255 0H170ZM94 98Q83 98 84 109L93 158Q95 170 105 170H374Q386 170 384 158L376 109Q374 98 363 98H94ZM114 226Q104 226 106 237L113 286Q116 298 126 298H395Q406 298 404 286L396 237Q394 226 383 226H114Z" />
<glyph unicode="&#xa6;" horiz-adv-x="226" d="M97 392Q86 392 86 403V819Q86 830 97 830H173Q184 830 184 819V403Q184 392 173 392H97ZM97 -185Q86 -185 86 -174V242Q86 253 97 253H173Q184 253 184 242V-174Q184 -185 173 -185H97Z" />
<glyph unicode="&#xa7;" horiz-adv-x="382" d="M145 -118Q78 -118 42 -92T5 -11Q5 -4 6 4T9 20Q11 30 20 30H95Q105 30 103 20Q102 14 102 11T101 4Q101 -36 148 -36Q177 -36 192 -21T208 24Q209 39 202 52T179 80L85 175Q63 198 51 224T39 286Q39 340 65 380T142
440Q122 464 113 487T103 542Q103 609 146 649T268 689Q335 689 372 662T409 579Q409 573 409 566T407 551Q405 541 395 541H319Q310 541 312 551Q313 556 313 560T313 568Q313 587 301 596T265 606Q238 606 223 592T207 550Q207 532 213 519T236 491L329 397Q352
374 364 349T376 289Q376 234 350 193T273 132Q294 109 303 86T312 31Q312 -36 269 -77T145 -118ZM219 190Q245 202 259 223T274 275Q274 296 265 312T233 350L196 381Q170 370 155 348T140 298Q140 277 149 260T182 221L219 190Z" />
<glyph unicode="&#xa8;" horiz-adv-x="324" d="M301 568Q274 568 261 582T252 621L253 634Q261 688 314 688Q342 688 354 674T364 634L363 621Q356 568 301 568ZM149 568Q122 568 109 582T98 621L100 634Q108 688 161 688Q189 688 202 674T212 634L210 621Q203
568 149 568Z" />
<glyph unicode="&#xa9;" horiz-adv-x="555" d="M297 -8Q216 -8 166 19T92 99T68 225V379Q68 453 91 504T165 584T297 612Q378 612 428 584T501 505T525 379V225Q525 152 502 100T428 20T297 -8ZM297 53Q379 53 419 94T460 223V381Q460 468 420 509T297 551Q214
551 174 510T133 381V223Q133 136 173 95T297 53ZM298 129Q245 129 218 159T191 247V354Q191 411 218 441T298 472Q353 472 378 441T404 354Q404 344 395 344H347Q338 344 339 354Q341 411 299 411Q256 411 256 352V249Q256 190 299 190Q321 190 330 204T339 248Q339
258 348 258H395Q404 258 404 248Q404 193 379 161T298 129Z" />
<glyph unicode="&#xaa;" horiz-adv-x="310" d="M136 319Q101 319 85 347T77 428L96 547Q107 611 136 637T217 664Q253 664 282 658T342 649L304 410Q300 384 298 365T294 332Q294 324 287 324H236Q229 324 228 332Q228 340 228 348T229 366Q208 345 186 332T136
319ZM55 187Q45 187 46 198L56 254Q58 265 67 265H276Q286 265 284 254L275 198Q274 187 263 187H55ZM173 386Q187 386 201 394T231 417L259 593Q250 596 239 597T217 599Q196 599 186 586T170 541L152 429Q148 407 153 397T173 386Z" />
<glyph unicode="&#xab;" horiz-adv-x="424" d="M121 89Q114 89 111 97L52 256Q49 264 54 271L159 430Q165 437 173 437H254Q260 437 261 434T259 424L154 262L207 102Q210 89 198 89H121ZM281 89Q275 89 271 97L213 256Q209 263 215 271L320 430Q324 437 333 437H415Q420
437 421 434T420 424L314 262L367 102Q371 89 359 89H281Z" />
<glyph unicode="&#xac;" horiz-adv-x="489" d="M354 126Q342 126 342 137V256H109Q98 256 98 268V333Q98 344 109 344H421Q432 344 432 333V137Q432 126 421 126H354Z" />
<glyph unicode="&#xad;" horiz-adv-x="366" d="M55 224Q44 224 46 236L55 296Q57 307 68 307H331Q342 307 340 296L330 236Q329 224 318 224H55Z" />
<glyph unicode="&#xae;" horiz-adv-x="445" d="M275 303Q188 303 143 350T98 483V522Q98 608 143 654T275 701Q361 701 406 654T452 522V483Q452 398 407 351T275 303ZM275 354Q335 354 366 384T398 481V524Q398 590 367 620T275 651Q215 651 184 622T152 524V481Q152
414 183 384T275 354ZM218 396Q212 396 212 403V605Q212 612 219 612H271Q309 612 327 596T346 546Q346 522 338 508T313 485L348 404Q351 396 345 396H310Q305 396 303 401L273 476H254V403Q254 396 249 396H218ZM254 511H273Q303 511 303 538V549Q303 577 273
577H254V511Z" />
<glyph unicode="&#xaf;" horiz-adv-x="247" d="M101 571Q90 571 92 582L102 641Q104 653 115 653H279Q290 653 288 641L278 582Q277 571 266 571H101Z" />
<glyph unicode="&#xb0;" horiz-adv-x="301" d="M189 395Q128 395 101 429T83 523L90 566Q99 627 132 659T226 691Q287 691 313 657T331 562L324 519Q316 460 283 428T189 395ZM196 466Q242 466 251 523L257 562Q262 590 253 604T219 619Q194 619 181 606T163 563L158
524Q148 466 196 466Z" />
<glyph unicode="&#xb1;" horiz-adv-x="489" d="M232 181Q221 181 221 192V295H109Q98 295 98 306V372Q98 383 109 383H221V486Q221 497 232 497H298Q309 497 309 486V383H420Q431 383 431 372V306Q431 295 420 295H309V192Q309 181 298 181H232ZM110 44Q99 44
99 56V121Q99 133 110 133H419Q430 133 430 121V56Q430 44 419 44H110Z" />
<glyph unicode="&#xb2;" horiz-adv-x="348" d="M85 348Q73 348 75 360L84 412Q90 456 111 485T159 534T214 572T261 608T284 653L286 660Q292 698 254 698Q233 698 223 688T208 651Q207 639 196 639H138Q128 639 129 651Q133 712 171 743T268 775Q320 775 347
752T375 685Q375 645 362 617T328 568T284 531T238 499T201 467T182 427H324Q335 427 333 416L325 359Q323 348 311 348H85Z" />
<glyph unicode="&#xb3;" horiz-adv-x="348" d="M202 342Q135 342 107 373T90 468Q93 479 103 479H161Q173 479 171 468Q168 445 175 433T206 420Q229 420 242 432T259 469L261 481Q265 504 256 515T224 527H193Q182 527 183 538L191 586Q193 598 204 598H230Q253
598 265 610T281 646L282 657Q285 677 277 687T247 697Q223 697 213 685T199 651Q199 639 188 639H130Q120 639 121 651Q125 710 159 742T260 775Q316 775 344 752T372 685Q372 649 356 618T307 566V564Q327 556 337 538T348 493Q348 449 331 415T282 362T202 342Z"
/>
<glyph unicode="&#xb4;" horiz-adv-x="223" d="M98 557Q92 557 90 561T92 570L173 689Q180 701 191 701H263Q269 701 270 697T268 686L173 568Q164 557 153 557H98Z" />
<glyph unicode="&#xb5;" horiz-adv-x="429" d="M-2 -185Q-11 -185 -10 -174L93 480Q95 492 105 492H189Q199 492 197 480L146 155Q140 118 148 102T180 85Q202 85 224 99T267 134L322 480Q324 492 333 492H417Q428 492 425 480L368 119Q365 96 368 89T384 81Q390
81 395 82T405 84Q413 86 411 76L401 9Q400 1 389 -2Q376 -5 364 -6T339 -8Q305 -8 286 7T266 55H265Q242 27 217 11T164 -5Q150 -5 139 0T121 15L92 -174Q90 -185 80 -185H-2Z" />
<glyph unicode="&#xb6;" horiz-adv-x="473" d="M101 -185Q90 -185 91 -174L167 306H145Q88 306 67 340T56 441L74 556Q84 621 111 652T197 683H495Q505 683 503 672L368 -174Q367 -185 356 -185H284Q273 -185 275 -174L395 588H306L186 -174Q184 -185 173 -185H101Z" />
<glyph unicode="&#xb7;" horiz-adv-x="231" d="M114 193Q83 193 67 210T54 256L58 276Q67 334 132 334Q166 334 182 317T193 270L190 251Q181 193 114 193Z" />
<glyph unicode="&#xb8;" horiz-adv-x="200" d="M27 -193Q14 -193 3 -192T-17 -189Q-28 -186 -27 -177L-21 -139Q-18 -128 -9 -129Q-3 -130 3 -130T16 -131Q44 -131 47 -107L49 -96Q51 -82 45 -77T25 -71H14Q2 -71 4 -60Q5 -55 6 -51T9 -42L41 28Q46 39 54 39H101Q107
39 109 36T107 27L77 -34H82Q107 -34 119 -50T126 -96L123 -116Q116 -156 93 -174T27 -193Z" />
<glyph unicode="&#xb9;" horiz-adv-x="348" d="M89 348Q78 348 79 359L89 416Q91 427 101 427H171L211 673L139 649Q127 646 129 657L138 714Q140 725 148 728L274 768Q282 771 289 771H302Q312 771 310 760L257 427H322Q334 427 331 415L323 359Q321 348 309 348H89Z" />
<glyph unicode="&#xba;" horiz-adv-x="306" d="M179 315Q124 315 97 349T79 445L94 542Q114 663 223 663Q279 663 306 628T324 534L309 438Q290 315 179 315ZM54 187Q44 187 45 198L55 254Q57 265 66 265H265Q275 265 273 254L265 198Q263 187 253 187H54ZM186
387Q206 387 219 399T235 437L251 541Q255 567 246 579T216 591Q196 591 184 579T168 542L152 439Q148 412 156 400T186 387Z" />
<glyph unicode="&#xbb;" horiz-adv-x="424" d="M327 437Q335 437 337 430L396 271Q398 267 398 263T394 256L289 97Q284 89 276 89H194Q189 89 188 93T189 102L294 265L242 425Q237 437 250 437H327ZM167 437Q175 437 177 430L236 271Q239 264 233 256L128 97Q124
89 115 89H33Q28 89 27 93T29 102L134 265L81 425Q77 437 89 437H167Z" />
<glyph unicode="&#xbc;" horiz-adv-x="835" d="M71 235Q60 235 61 246L71 303Q73 314 83 314H153L193 560L121 536Q109 533 111 544L120 601Q122 612 130 615L256 655Q264 658 271 658H284Q294 658 292 647L239 314H304Q316 314 313 302L305 246Q303 235 291 235H71ZM221
-33Q211 -33 217 -21L405 346L574 681Q578 688 585 688H661Q665 688 667 685T666 677L483 323L309 -26Q307 -33 298 -33H221ZM675 0Q664 0 666 11L675 72H505Q494 72 495 84L496 92Q498 101 502 109L677 409Q684 420 691 420H754Q760 420 762 416T760 405L616 149H689L716
274Q718 285 728 285H782Q792 285 790 274L771 149H794Q805 149 802 138L794 84Q793 72 783 72H759L748 11Q748 0 736 0H675Z" />
<glyph unicode="&#xbd;" horiz-adv-x="847" d="M71 235Q60 235 61 246L71 303Q73 314 83 314H153L193 560L121 536Q109 533 111 544L120 601Q122 612 130 615L256 655Q264 658 271 658H284Q294 658 292 647L239 314H304Q316 314 313 302L305 246Q303 235 291 235H71ZM221
-33Q211 -33 217 -21L405 346L574 681Q578 688 585 688H661Q665 688 667 685T666 677L483 323L309 -26Q307 -33 298 -33H221ZM529 0Q517 0 519 12L528 64Q534 108 555 137T603 186T658 224T705 260T728 305L730 312Q736 350 698 350Q677 350 667 340T652 303Q651
291 640 291H582Q572 291 573 303Q577 364 615 395T712 427Q764 427 791 404T819 337Q819 297 806 269T772 220T728 183T682 151T645 119T626 79H768Q779 79 777 68L769 11Q767 0 755 0H529Z" />
<glyph unicode="&#xbe;" horiz-adv-x="833" d="M184 229Q117 229 89 260T72 355Q75 366 85 366H143Q155 366 153 355Q150 332 157 320T188 307Q211 307 224 319T241 356L243 368Q247 391 238 402T206 414H175Q164 414 165 425L173 473Q175 485 186 485H212Q235
485 247 497T263 533L264 544Q267 564 259 574T229 584Q205 584 195 572T181 538Q181 526 170 526H112Q102 526 103 538Q107 597 141 629T242 662Q298 662 326 639T354 572Q354 536 338 505T289 453V451Q309 443 319 425T330 380Q330 336 313 302T264 249T184 229ZM219
-33Q209 -33 215 -21L403 346L572 681Q576 688 583 688H659Q663 688 665 685T664 677L481 323L307 -26Q305 -33 296 -33H219ZM673 0Q662 0 664 11L673 72H503Q492 72 493 84L494 92Q496 101 500 109L675 409Q682 420 689 420H752Q758 420 760 416T758 405L614 149H687L714
274Q716 285 726 285H780Q790 285 788 274L769 149H792Q803 149 800 138L792 84Q791 72 781 72H757L746 11Q746 0 734 0H673Z" />
<glyph unicode="&#xbf;" horiz-adv-x="383" d="M257 282Q266 282 264 272L257 229Q252 195 233 168T190 117T143 71T105 21T89 -39Q89 -61 102 -71T142 -82Q181 -82 197 -57T218 14Q218 26 228 26H306Q311 26 313 22T314 12Q307 -79 262 -125T129 -171Q55 -171
19 -142T-18 -54Q-18 -5 -2 30T38 92T87 141T131 187T155 239L161 273Q162 282 171 282H257ZM243 500Q273 500 288 485T300 439L297 420Q293 391 275 378T226 364Q196 364 181 380T169 426L173 445Q177 474 194 487T243 500Z" />
<glyph unicode="&#xc0;" horiz-adv-x="461" d="M-20 0Q-32 0 -28 11L234 644Q238 655 247 655H360Q371 655 372 644L434 11Q436 0 423 0H333Q322 0 321 11L297 411Q295 446 293 481T290 552H288Q276 517 264 482T237 411L85 11Q82 0 72 0H-20ZM118 142L150 233H323L329
142H118ZM311 712Q306 712 303 715T296 724L243 828Q241 833 243 836T251 839H326Q337 839 341 828L378 724Q380 719 378 716T369 712H311Z" />
<glyph unicode="&#xc1;" horiz-adv-x="461" d="M-20 0Q-32 0 -28 11L234 644Q238 655 247 655H360Q371 655 372 644L434 11Q436 0 423 0H333Q322 0 321 11L297 411Q295 446 293 481T290 552H288Q276 517 264 482T237 411L85 11Q82 0 72 0H-20ZM118 142L150 233H323L329
142H118ZM257 712Q251 712 249 716T251 726L321 828Q328 839 339 839H411Q417 839 418 835T416 825L332 724Q327 718 323 715T312 712H257Z" />
<glyph unicode="&#xc2;" horiz-adv-x="461" d="M-20 0Q-32 0 -28 11L234 644Q238 655 247 655H360Q371 655 372 644L434 11Q436 0 423 0H333Q322 0 321 11L297 411Q295 446 293 481T290 552H288Q276 517 264 482T237 411L85 11Q82 0 72 0H-20ZM118 142L150 233H323L329
142H118ZM216 715Q210 712 207 714T204 722L213 778Q214 784 215 787T222 791L327 836Q335 840 342 836L428 789Q438 783 436 773L428 724Q426 710 414 716L324 757L216 715Z" />
<glyph unicode="&#xc3;" horiz-adv-x="461" d="M-20 0Q-32 0 -28 11L234 644Q238 655 247 655H360Q371 655 372 644L434 11Q436 0 423 0H333Q322 0 321 11L297 411Q295 446 293 481T290 552H288Q276 517 264 482T237 411L85 11Q82 0 72 0H-20ZM118 142L150 233H323L329
142H118ZM358 713Q339 713 326 718T301 729T274 735Q259 735 246 731T220 720Q214 717 210 720T207 730L215 778Q216 783 218 787T224 794Q234 801 252 807T289 814Q308 814 321 809T345 799T373 793Q387 793 400 797T426 806Q433 810 437 807T439 797L431 750Q429
737 423 734Q412 725 395 719T358 713Z" />
<glyph unicode="&#xc4;" horiz-adv-x="461" d="M-20 0Q-32 0 -28 11L234 644Q238 655 247 655H360Q371 655 372 644L434 11Q436 0 423 0H333Q322 0 321 11L297 411Q295 446 293 481T290 552H288Q276 517 264 482T237 411L85 11Q82 0 72 0H-20ZM118 142L150 233H323L329
142H118ZM393 714Q366 714 353 728T343 768L345 781Q353 834 406 834Q434 834 446 820T456 781L454 768Q448 714 393 714ZM241 714Q214 714 201 728T191 768L193 781Q201 834 254 834Q281 834 294 820T304 781L302 768Q296 714 241 714Z" />
<glyph unicode="&#xc5;" horiz-adv-x="461" d="M-20 0Q-32 0 -28 11L229 632Q220 640 216 652T211 679Q211 731 239 760T319 789Q361 789 385 767T410 707Q410 679 401 658T375 623L434 11Q436 0 423 0H333Q322 0 321 11L313 142H136L85 11Q82 0 72 0H-20ZM168
233H309L297 411Q295 446 293 481T290 552H288Q276 517 264 482T237 411L168 233ZM306 648Q324 648 334 662T344 702Q344 736 314 736Q296 736 286 722T276 682Q276 648 306 648Z" />
<glyph unicode="&#xc6;" horiz-adv-x="657" d="M-19 0Q-25 0 -27 3T-27 12L284 644Q291 655 299 655H674Q686 655 684 644L672 570Q670 558 661 558H453L425 379H612Q624 379 622 367L610 297Q609 286 599 286H410L380 97H586Q598 97 596 86L584 11Q582 0 573
0H273Q261 0 263 11L284 142H151L87 10Q82 0 75 0H-19ZM190 233H298L335 467Q340 498 344 522T353 574H351Q340 548 328 521T305 468L190 233Z" />
<glyph unicode="&#xc7;" horiz-adv-x="501" d="M233 -8Q129 -8 82 52T52 225L87 449Q104 558 160 610T318 663Q387 663 432 635T495 555T495 435Q492 424 483 424H399Q388 424 389 435Q402 497 383 531T307 566Q257 566 230 538T192 446L156 224Q145 155 167 122T242
89Q297 89 324 124T357 220Q357 231 368 231H451Q463 231 462 220Q456 113 398 53T233 -8ZM192 -194Q179 -194 168 -193T148 -190Q137 -187 138 -178L144 -140Q147 -129 156 -130Q162 -131 168 -131T181 -132Q209 -132 212 -108L214 -97Q216 -83 210 -78T190 -72H179Q167
-72 169 -61Q170 -56 171 -52T174 -43L206 27Q211 38 219 38H266Q272 38 274 35T272 26L242 -35H247Q272 -35 284 -51T291 -97L288 -117Q281 -157 258 -175T192 -194Z" />
<glyph unicode="&#xc8;" horiz-adv-x="422" d="M36 0Q25 0 27 11L128 644Q130 655 139 655H441Q453 655 451 644L439 570Q437 558 427 558H219L190 379H378Q390 379 388 367L377 297Q376 286 365 286H176L146 97H352Q364 97 362 86L350 11Q348 0 338 0H36ZM294
712Q289 712 286 715T279 724L226 828Q224 833 226 836T234 839H309Q320 839 324 828L361 724Q363 719 361 716T352 712H294Z" />
<glyph unicode="&#xc9;" horiz-adv-x="422" d="M36 0Q25 0 27 11L128 644Q130 655 139 655H441Q453 655 451 644L439 570Q437 558 427 558H219L190 379H378Q390 379 388 367L377 297Q376 286 365 286H176L146 97H352Q364 97 362 86L350 11Q348 0 338 0H36ZM239
712Q233 712 231 716T233 726L303 828Q310 839 321 839H393Q399 839 400 835T398 825L314 724Q309 718 305 715T294 712H239Z" />
<glyph unicode="&#xca;" horiz-adv-x="422" d="M36 0Q25 0 27 11L128 644Q130 655 139 655H441Q453 655 451 644L439 570Q437 558 427 558H219L190 379H378Q390 379 388 367L377 297Q376 286 365 286H176L146 97H352Q364 97 362 86L350 11Q348 0 338 0H36ZM199
715Q193 712 190 714T187 722L196 778Q197 784 198 787T205 791L310 836Q318 840 325 836L411 789Q421 783 419 773L411 724Q409 710 397 716L307 757L199 715Z" />
<glyph unicode="&#xcb;" horiz-adv-x="422" d="M36 0Q25 0 27 11L128 644Q130 655 139 655H441Q453 655 451 644L439 570Q437 558 427 558H219L190 379H378Q390 379 388 367L377 297Q376 286 365 286H176L146 97H352Q364 97 362 86L350 11Q348 0 338 0H36ZM376
714Q349 714 336 728T326 768L328 781Q336 834 389 834Q417 834 429 820T439 781L437 768Q431 714 376 714ZM224 714Q197 714 184 728T174 768L176 781Q184 834 237 834Q264 834 277 820T287 781L285 768Q279 714 224 714Z" />
<glyph unicode="&#xcc;" horiz-adv-x="215" d="M37 0Q25 0 27 11L128 644Q130 655 138 655H223Q235 655 233 644L132 11Q131 0 120 0H37ZM446 712Q441 712 438 715T431 724L378 828Q376 833 378 836T386 839H461Q472 839 476 828L513 724Q515 719 513 716T504 712H446Z" />
<glyph unicode="&#xcd;" horiz-adv-x="215" d="M37 0Q25 0 27 11L128 644Q130 655 138 655H223Q235 655 233 644L132 11Q131 0 120 0H37ZM135 712Q129 712 127 716T129 726L199 828Q206 839 217 839H289Q295 839 296 835T294 825L210 724Q205 718 201 715T190 712H135Z" />
<glyph unicode="&#xce;" horiz-adv-x="215" d="M37 0Q25 0 27 11L128 644Q130 655 138 655H223Q235 655 233 644L132 11Q131 0 120 0H37ZM351 715Q345 712 342 714T339 722L348 778Q349 784 350 787T357 791L462 836Q470 840 477 836L563 789Q573 783 571 773L563
724Q561 710 549 716L459 757L351 715Z" />
<glyph unicode="&#xcf;" horiz-adv-x="215" d="M37 0Q25 0 27 11L128 644Q130 655 138 655H223Q235 655 233 644L132 11Q131 0 120 0H37ZM528 714Q501 714 488 728T478 768L480 781Q488 834 541 834Q569 834 581 820T591 781L589 768Q583 714 528 714ZM376 714Q349
714 336 728T326 768L328 781Q336 834 389 834Q416 834 429 820T439 781L437 768Q431 714 376 714Z" />
<glyph unicode="&#xd0;" horiz-adv-x="507" d="M33 290Q20 290 22 301L32 363Q34 374 43 374H87H272Q284 374 282 363L272 301Q270 290 261 290H33ZM40 0Q28 0 29 11L130 644Q132 655 141 655H278Q409 655 463 585T496 372L483 291Q460 143 392 72T198 0H40ZM148
96H204Q280 96 320 142T378 291L391 374Q406 469 378 514T270 559H221L148 96Z" />
<glyph unicode="&#xd1;" horiz-adv-x="521" d="M37 0Q25 0 27 11L128 644Q130 655 138 655H252Q262 655 264 644L332 307Q340 267 347 225T362 141H364Q368 184 374 235T386 329L436 644Q439 655 448 655H528Q541 655 538 644L438 11Q436 0 426 0H314Q304 0 302
11L239 310Q229 364 220 417T204 511H202Q197 465 191 412T176 310L129 11Q128 0 118 0H37ZM385 713Q366 713 353 718T328 729T301 735Q286 735 273 731T247 720Q241 717 237 720T234 730L242 778Q243 783 245 787T251 794Q261 801 279 807T316 814Q335 814 348
809T372 799T400 793Q414 793 427 797T453 806Q460 810 464 807T466 797L458 750Q456 737 450 734Q439 725 422 719T385 713Z" />
<glyph unicode="&#xd2;" horiz-adv-x="506" d="M231 -8Q128 -8 81 52T51 223L87 450Q105 558 161 610T319 663Q424 663 471 603T501 432L465 205Q447 97 391 45T231 -8ZM242 89Q294 89 322 117T360 209L396 431Q407 500 385 533T309 566Q258 566 230 538T191 445L156
224Q144 155 166 122T242 89ZM333 712Q328 712 325 715T318 724L265 828Q263 833 265 836T273 839H348Q359 839 363 828L400 724Q402 719 400 716T391 712H333Z" />
<glyph unicode="&#xd3;" horiz-adv-x="506" d="M231 -8Q128 -8 81 52T51 223L87 450Q105 558 161 610T319 663Q424 663 471 603T501 432L465 205Q447 97 391 45T231 -8ZM242 89Q294 89 322 117T360 209L396 431Q407 500 385 533T309 566Q258 566 230 538T191 445L156
224Q144 155 166 122T242 89ZM278 712Q272 712 270 716T272 726L342 828Q349 839 360 839H432Q438 839 439 835T437 825L353 724Q348 718 344 715T333 712H278Z" />
<glyph unicode="&#xd4;" horiz-adv-x="506" d="M231 -8Q128 -8 81 52T51 223L87 450Q105 558 161 610T319 663Q424 663 471 603T501 432L465 205Q447 97 391 45T231 -8ZM242 89Q294 89 322 117T360 209L396 431Q407 500 385 533T309 566Q258 566 230 538T191 445L156
224Q144 155 166 122T242 89ZM238 715Q232 712 229 714T226 722L235 778Q236 784 237 787T244 791L349 836Q357 840 364 836L450 789Q460 783 458 773L450 724Q448 710 436 716L346 757L238 715Z" />
<glyph unicode="&#xd5;" horiz-adv-x="506" d="M231 -8Q128 -8 81 52T51 223L87 450Q105 558 161 610T319 663Q424 663 471 603T501 432L465 205Q447 97 391 45T231 -8ZM242 89Q294 89 322 117T360 209L396 431Q407 500 385 533T309 566Q258 566 230 538T191 445L156
224Q144 155 166 122T242 89ZM379 713Q360 713 347 718T322 729T295 735Q280 735 267 731T241 720Q235 717 231 720T228 730L236 778Q237 783 239 787T245 794Q255 801 273 807T310 814Q329 814 342 809T366 799T394 793Q408 793 421 797T447 806Q454 810 458 807T460
797L452 750Q450 737 444 734Q433 725 416 719T379 713Z" />
<glyph unicode="&#xd6;" horiz-adv-x="506" d="M231 -8Q128 -8 81 52T51 223L87 450Q105 558 161 610T319 663Q424 663 471 603T501 432L465 205Q447 97 391 45T231 -8ZM242 89Q294 89 322 117T360 209L396 431Q407 500 385 533T309 566Q258 566 230 538T191 445L156
224Q144 155 166 122T242 89ZM415 714Q388 714 375 728T365 768L367 781Q375 834 428 834Q456 834 468 820T478 781L476 768Q470 714 415 714ZM263 714Q236 714 223 728T213 768L215 781Q223 834 276 834Q303 834 316 820T326 781L324 768Q318 714 263 714Z" />
<glyph unicode="&#xd7;" horiz-adv-x="489" d="M170 160L124 206Q116 213 124 221L204 301L124 380Q116 389 124 396L170 442Q178 451 186 442L266 363L344 442Q353 451 360 442L406 395Q415 387 406 380L326 301L406 222Q415 214 406 206L360 160Q353 152 344
160L266 239L186 160Q183 156 178 156T170 160Z" />
<glyph unicode="&#xd8;" horiz-adv-x="506" d="M16 -50Q11 -50 10 -47T10 -38L88 90L131 153L383 569L407 619L452 694Q458 705 466 705H534Q548 705 542 694L467 570L424 511L170 90L145 38L98 -40Q93 -50 84 -50H16ZM231 -8Q128 -8 81 52T51 223L87 450Q105
558 161 610T319 663Q424 663 471 603T501 432L465 205Q447 97 391 45T231 -8ZM242 89Q294 89 322 117T360 209L396 431Q407 500 385 533T309 566Q258 566 230 538T191 445L156 224Q144 155 166 122T242 89Z" />
<glyph unicode="&#xd9;" horiz-adv-x="508" d="M232 -8Q130 -8 84 51T56 226L124 644Q126 655 135 655H219Q230 655 229 643L161 225Q150 157 169 123T241 89Q291 89 318 121T357 225L424 644Q426 655 435 655H519Q530 655 528 643L461 221Q443 103 388 48T232
-8ZM334 712Q329 712 326 715T319 724L266 828Q264 833 266 836T274 839H349Q360 839 364 828L401 724Q403 719 401 716T392 712H334Z" />
<glyph unicode="&#xda;" horiz-adv-x="508" d="M232 -8Q130 -8 84 51T56 226L124 644Q126 655 135 655H219Q230 655 229 643L161 225Q150 157 169 123T241 89Q291 89 318 121T357 225L424 644Q426 655 435 655H519Q530 655 528 643L461 221Q443 103 388 48T232
-8ZM279 712Q273 712 271 716T273 726L343 828Q350 839 361 839H433Q439 839 440 835T438 825L354 724Q349 718 345 715T334 712H279Z" />
<glyph unicode="&#xdb;" horiz-adv-x="508" d="M232 -8Q130 -8 84 51T56 226L124 644Q126 655 135 655H219Q230 655 229 643L161 225Q150 157 169 123T241 89Q291 89 318 121T357 225L424 644Q426 655 435 655H519Q530 655 528 643L461 221Q443 103 388 48T232
-8ZM239 715Q233 712 230 714T227 722L236 778Q237 784 238 787T245 791L350 836Q358 840 365 836L451 789Q461 783 459 773L451 724Q449 710 437 716L347 757L239 715Z" />
<glyph unicode="&#xdc;" horiz-adv-x="508" d="M232 -8Q130 -8 84 51T56 226L124 644Q126 655 135 655H219Q230 655 229 643L161 225Q150 157 169 123T241 89Q291 89 318 121T357 225L424 644Q426 655 435 655H519Q530 655 528 643L461 221Q443 103 388 48T232
-8ZM416 714Q389 714 376 728T366 768L368 781Q376 834 429 834Q457 834 469 820T479 781L477 768Q471 714 416 714ZM264 714Q237 714 224 728T214 768L216 781Q224 834 277 834Q304 834 317 820T327 781L325 768Q319 714 264 714Z" />
<glyph unicode="&#xdd;" horiz-adv-x="447" d="M153 0Q141 0 143 11L177 225L79 643Q77 655 89 655H180Q189 655 192 644L223 458Q229 427 234 396T243 333H245Q259 365 273 395T302 457L394 644Q400 655 408 655H505Q511 655 513 652T513 643L282 226L248 11Q247
0 237 0H153ZM244 712Q238 712 236 716T238 726L308 828Q315 839 326 839H398Q404 839 405 835T403 825L319 724Q314 718 310 715T299 712H244Z" />
<glyph unicode="&#xde;" horiz-adv-x="438" d="M37 0Q25 0 27 11L128 644Q130 655 138 655H223Q235 655 233 644L217 549H256Q352 549 396 508T441 384Q441 305 413 248T332 160T205 129H150L132 11Q131 0 120 0H37ZM166 224H212Q252 224 279 241T320 293T334
374Q334 417 313 435T248 454H202L166 224Z" />
<glyph unicode="&#xdf;" horiz-adv-x="447" d="M-13 -190L-56 -131Q-63 -123 -53 -116Q-32 -98 -17 -74T8 -16T26 66L97 512Q112 606 155 648T282 691Q349 691 386 662T424 576Q424 532 411 502T380 448T350 403T336 356Q336 335 349 317T379 276T409 224T422
146Q422 75 386 34T274 -8Q208 -8 181 23T165 114Q168 125 177 125H237Q249 125 247 114Q244 96 251 85T277 74Q302 74 311 92T321 136Q321 169 308 195T277 243T246 289T232 345Q232 376 245 400T275 448T306 498T319 557Q319 579 307 589T271 600Q241 600 224
580T200 513L129 63Q119 -3 104 -51T64 -134T-1 -193Q-7 -196 -13 -190Z" />
<glyph unicode="&#xe0;" horiz-adv-x="422" d="M118 -8Q63 -8 42 31T32 147L61 332Q76 422 119 461T243 500Q294 500 335 491T421 479L365 125Q359 89 356 61T351 11Q351 0 339 0H270Q259 0 259 11Q259 24 260 37T262 64Q228 30 192 11T118 -8ZM173 85Q194 85
216 98T263 135L305 401Q290 405 274 407T242 409Q207 409 189 390T164 325L136 156Q130 121 138 103T173 85ZM269 812Q260 812 255 823L195 944Q193 948 195 952T202 956H278Q288 956 292 944L336 823Q340 812 327 812H269Z" />
<glyph unicode="&#xe1;" horiz-adv-x="422" d="M118 -8Q63 -8 42 31T32 147L61 332Q76 422 119 461T243 500Q294 500 335 491T421 479L365 125Q359 89 356 61T351 11Q351 0 339 0H270Q259 0 259 11Q259 24 260 37T262 64Q228 30 192 11T118 -8ZM173 85Q194 85
216 98T263 135L305 401Q290 405 274 407T242 409Q207 409 189 390T164 325L136 156Q130 121 138 103T173 85ZM208 812Q202 812 200 816T202 825L283 944Q290 956 301 956H373Q379 956 380 952T378 941L283 823Q274 812 263 812H208Z" />
<glyph unicode="&#xe2;" horiz-adv-x="422" d="M118 -8Q63 -8 42 31T32 147L61 332Q76 422 119 461T243 500Q294 500 335 491T421 479L365 125Q359 89 356 61T351 11Q351 0 339 0H270Q259 0 259 11Q259 24 260 37T262 64Q228 30 192 11T118 -8ZM173 85Q194 85
216 98T263 135L305 401Q290 405 274 407T242 409Q207 409 189 390T164 325L136 156Q130 121 138 103T173 85ZM180 811Q174 808 171 810T168 818L176 874Q178 880 179 882T186 887L282 937Q290 941 296 937L375 884Q385 878 384 868L375 819Q374 813 370 811T361
811L282 857L180 811Z" />
<glyph unicode="&#xe3;" horiz-adv-x="422" d="M118 -8Q63 -8 42 31T32 147L61 332Q76 422 119 461T243 500Q294 500 335 491T421 479L365 125Q359 89 356 61T351 11Q351 0 339 0H270Q259 0 259 11Q259 24 260 37T262 64Q228 30 192 11T118 -8ZM173 85Q194 85
216 98T263 135L305 401Q290 405 274 407T242 409Q207 409 189 390T164 325L136 156Q130 121 138 103T173 85ZM310 819Q291 819 279 824T256 835T230 840Q218 840 206 837T181 826Q174 823 170 825T167 836L176 883Q177 893 184 899Q195 908 210 914T244 920Q263
920 275 915T299 904T323 898Q337 898 349 902T373 912Q380 916 384 913T386 903L378 855Q377 845 370 839Q359 830 344 825T310 819Z" />
<glyph unicode="&#xe4;" horiz-adv-x="422" d="M118 -8Q63 -8 42 31T32 147L61 332Q76 422 119 461T243 500Q294 500 335 491T421 479L365 125Q359 89 356 61T351 11Q351 0 339 0H270Q259 0 259 11Q259 24 260 37T262 64Q228 30 192 11T118 -8ZM173 85Q194 85
216 98T263 135L305 401Q290 405 274 407T242 409Q207 409 189 390T164 325L136 156Q130 121 138 103T173 85ZM348 823Q321 823 308 837T299 876L300 889Q308 943 361 943Q389 943 401 929T411 889L410 876Q403 823 348 823ZM196 823Q169 823 156 837T145 876L147
889Q155 943 208 943Q236 943 249 929T259 889L257 876Q250 823 196 823Z" />
<glyph unicode="&#xe5;" horiz-adv-x="422" d="M118 -8Q63 -8 42 31T32 147L61 332Q76 422 119 461T243 500Q294 500 335 491T421 479L365 125Q359 89 356 61T351 11Q351 0 339 0H270Q259 0 259 11Q259 24 260 37T262 64Q228 30 192 11T118 -8ZM173 85Q194 85
216 98T263 135L305 401Q290 405 274 407T242 409Q207 409 189 390T164 325L136 156Q130 121 138 103T173 85ZM270 809Q228 809 204 831T180 892Q180 944 208 973T289 1003Q330 1003 354 981T379 919Q379 868 350 839T270 809ZM275 864Q294 864 303 877T312 915Q312
947 283 947Q266 947 257 934T247 896Q247 864 275 864Z" />
<glyph unicode="&#xe6;" horiz-adv-x="621" d="M117 -8Q72 -8 47 21T22 103Q22 186 67 231T207 283L269 287L277 339Q284 379 274 396T234 414Q207 414 193 400T176 356Q175 345 164 345H90Q79 345 79 356Q82 426 123 463T237 500Q280 500 307 486T350 444Q374
472 406 486T479 500Q543 500 577 470T612 381Q612 309 571 268T448 222L360 218L351 160Q345 119 359 99T407 78Q435 78 451 92T471 134Q473 145 483 145H560Q573 145 571 134Q565 63 521 28T397 -8Q343 -8 310 11T261 69Q223 28 189 10T117 -8ZM161 78Q180 78
201 90T248 131Q248 143 249 156T252 183L257 216L215 215Q170 211 148 188T125 124Q125 78 161 78ZM372 290L430 293Q470 295 489 313T508 366Q508 413 456 413Q423 413 404 394T378 332L372 290Z" />
<glyph unicode="&#xe7;" horiz-adv-x="411" d="M187 -8Q100 -8 62 41T38 178L61 324Q75 415 121 457T251 500Q333 500 373 454T395 332Q392 321 383 321H309Q297 321 299 332Q306 369 291 387T243 406Q207 406 190 386T163 314L141 177Q133 130 147 108T197 85Q232
85 249 103T271 160Q272 172 283 172H357Q369 172 367 160Q360 77 315 35T187 -8ZM143 62Q130 62 119 63T99 66Q88 69 89 78L95 116Q98 127 107 126Q113 125 119 125T132 124Q160 124 163 148L165 159Q167 173 161 178T141 184H130Q118 184 120 195Q121 200 122
204T125 213L157 283Q162 294 170 294H217Q223 294 225 291T223 282L193 221H198Q223 221 235 205T242 159L239 139Q232 99 209 81T143 62Z" />
<glyph unicode="&#xe8;" horiz-adv-x="413" d="M185 -8Q100 -8 62 40T38 178L61 323Q76 415 122 457T252 500Q324 500 363 469T403 380Q403 309 362 268T238 216L145 204L138 163Q132 120 146 99T194 78Q224 78 241 92T263 134Q264 145 274 145H352Q364 145 362
134Q356 64 311 28T185 -8ZM157 281L220 289Q260 295 279 314T299 366Q299 390 285 401T244 413Q209 413 191 394T165 328L157 281ZM269 557Q260 557 255 568L195 689Q193 693 195 697T202 701H278Q288 701 292 689L336 568Q340 557 327 557H269Z" />
<glyph unicode="&#xe9;" horiz-adv-x="413" d="M185 -8Q100 -8 62 40T38 178L61 323Q76 415 122 457T252 500Q324 500 363 469T403 380Q403 309 362 268T238 216L145 204L138 163Q132 120 146 99T194 78Q224 78 241 92T263 134Q264 145 274 145H352Q364 145 362
134Q356 64 311 28T185 -8ZM157 281L220 289Q260 295 279 314T299 366Q299 390 285 401T244 413Q209 413 191 394T165 328L157 281ZM208 557Q202 557 200 561T202 570L283 689Q290 701 301 701H373Q379 701 380 697T378 686L283 568Q274 557 263 557H208Z" />
<glyph unicode="&#xea;" horiz-adv-x="413" d="M185 -8Q100 -8 62 40T38 178L61 323Q76 415 122 457T252 500Q324 500 363 469T403 380Q403 309 362 268T238 216L145 204L138 163Q132 120 146 99T194 78Q224 78 241 92T263 134Q264 145 274 145H352Q364 145 362
134Q356 64 311 28T185 -8ZM157 281L220 289Q260 295 279 314T299 366Q299 390 285 401T244 413Q209 413 191 394T165 328L157 281ZM180 556Q174 553 171 555T168 563L176 619Q178 625 179 627T186 632L282 682Q290 686 296 682L375 629Q385 623 384 613L375 564Q374
558 370 556T361 556L282 602L180 556Z" />
<glyph unicode="&#xeb;" horiz-adv-x="413" d="M185 -8Q100 -8 62 40T38 178L61 323Q76 415 122 457T252 500Q324 500 363 469T403 380Q403 309 362 268T238 216L145 204L138 163Q132 120 146 99T194 78Q224 78 241 92T263 134Q264 145 274 145H352Q364 145 362
134Q356 64 311 28T185 -8ZM157 281L220 289Q260 295 279 314T299 366Q299 390 285 401T244 413Q209 413 191 394T165 328L157 281ZM348 568Q321 568 308 582T299 621L300 634Q308 688 361 688Q389 688 401 674T411 634L410 621Q403 568 348 568ZM196 568Q169 568
156 582T145 621L147 634Q155 688 208 688Q236 688 249 674T259 634L257 621Q250 568 196 568Z" />
<glyph unicode="&#xec;" horiz-adv-x="198" d="M30 0Q18 0 19 11L94 480Q96 492 106 492H188Q200 492 198 480L123 11Q121 0 112 0H30ZM416 557Q407 557 402 568L342 689Q340 693 342 697T349 701H425Q435 701 439 689L483 568Q487 557 474 557H416Z" />
<glyph unicode="&#xed;" horiz-adv-x="198" d="M30 0Q18 0 19 11L94 480Q96 492 106 492H188Q200 492 198 480L123 11Q121 0 112 0H30ZM99 557Q93 557 91 561T93 570L174 689Q181 701 192 701H264Q270 701 271 697T269 686L174 568Q165 557 154 557H99Z" />
<glyph unicode="&#xee;" horiz-adv-x="198" d="M30 0Q18 0 19 11L94 480Q96 492 106 492H188Q200 492 198 480L123 11Q121 0 112 0H30ZM327 556Q321 553 318 555T315 563L323 619Q325 625 326 627T333 632L429 682Q437 686 443 682L522 629Q532 623 531 613L522
564Q521 558 517 556T508 556L429 602L327 556Z" />
<glyph unicode="&#xef;" horiz-adv-x="198" d="M30 0Q18 0 19 11L94 480Q96 492 106 492H188Q200 492 198 480L123 11Q121 0 112 0H30ZM494 568Q467 568 454 582T445 621L446 634Q454 688 507 688Q535 688 547 674T557 634L556 621Q549 568 494 568ZM342 568Q315
568 302 582T291 621L293 634Q301 688 354 688Q382 688 395 674T405 634L403 621Q396 568 342 568Z" />
<glyph unicode="&#xf0;" horiz-adv-x="421" d="M188 -8Q104 -8 63 39T37 175L59 308Q71 387 107 424T204 461Q242 461 273 445T325 403L312 313Q296 338 274 354T225 370Q197 370 182 353T160 298L141 178Q133 129 147 107T199 85Q234 85 252 106T278 175L305
345Q320 418 315 472T281 561T199 617Q194 619 193 623T196 632L236 685Q240 690 243 691T252 690Q355 660 393 575T411 364L380 169Q366 79 319 36T188 -8ZM208 512Q201 508 198 514L182 548Q179 554 187 559L409 683Q415 687 419 679L433 646Q436 640 429 636L208
512Z" />
<glyph unicode="&#xf1;" horiz-adv-x="434" d="M266 0Q255 0 256 11L308 339Q313 375 304 390T271 406Q248 406 223 392T166 346V414Q205 455 244 477T325 500Q380 500 402 464T413 351L360 11Q359 0 348 0H266ZM29 0Q18 0 19 11L76 367Q81 401 84 431T89 480Q90
492 101 492H171Q182 492 182 480Q183 463 181 438T175 394L180 369L123 11Q121 0 111 0H29ZM321 819Q302 819 290 824T267 835T241 840Q229 840 217 837T192 826Q185 823 181 825T178 836L187 883Q188 893 195 899Q206 908 221 914T255 920Q274 920 286 915T310
904T334 898Q348 898 360 902T384 912Q391 916 395 913T397 903L389 855Q388 845 381 839Q370 830 355 825T321 819Z" />
<glyph unicode="&#xf2;" horiz-adv-x="424" d="M189 -8Q103 -8 63 39T37 177L61 324Q75 414 123 457T254 500Q338 500 379 453T406 315L383 169Q369 79 321 36T189 -8ZM199 85Q235 85 253 105T280 175L302 312Q310 362 296 384T244 406Q208 406 190 386T164 317L141
179Q134 131 148 108T199 85ZM269 557Q260 557 255 568L195 689Q193 693 195 697T202 701H278Q288 701 292 689L336 568Q340 557 327 557H269Z" />
<glyph unicode="&#xf3;" horiz-adv-x="424" d="M189 -8Q103 -8 63 39T37 177L61 324Q75 414 123 457T254 500Q338 500 379 453T406 315L383 169Q369 79 321 36T189 -8ZM199 85Q235 85 253 105T280 175L302 312Q310 362 296 384T244 406Q208 406 190 386T164 317L141
179Q134 131 148 108T199 85ZM208 557Q202 557 200 561T202 570L283 689Q290 701 301 701H373Q379 701 380 697T378 686L283 568Q274 557 263 557H208Z" />
<glyph unicode="&#xf4;" horiz-adv-x="424" d="M189 -8Q103 -8 63 39T37 177L61 324Q75 414 123 457T254 500Q338 500 379 453T406 315L383 169Q369 79 321 36T189 -8ZM199 85Q235 85 253 105T280 175L302 312Q310 362 296 384T244 406Q208 406 190 386T164 317L141
179Q134 131 148 108T199 85ZM180 556Q174 553 171 555T168 563L176 619Q178 625 179 627T186 632L282 682Q290 686 296 682L375 629Q385 623 384 613L375 564Q374 558 370 556T361 556L282 602L180 556Z" />
<glyph unicode="&#xf5;" horiz-adv-x="424" d="M189 -8Q103 -8 63 39T37 177L61 324Q75 414 123 457T254 500Q338 500 379 453T406 315L383 169Q369 79 321 36T189 -8ZM199 85Q235 85 253 105T280 175L302 312Q310 362 296 384T244 406Q208 406 190 386T164 317L141
179Q134 131 148 108T199 85ZM310 564Q291 564 279 569T256 580T230 585Q218 585 206 582T181 571Q174 568 170 570T167 581L176 628Q177 638 184 644Q195 653 210 659T244 665Q263 665 275 660T299 649T323 643Q337 643 349 647T373 657Q380 661 384 658T386 648L378
600Q377 590 370 584Q359 575 344 570T310 564Z" />
<glyph unicode="&#xf6;" horiz-adv-x="424" d="M189 -8Q103 -8 63 39T37 177L61 324Q75 414 123 457T254 500Q338 500 379 453T406 315L383 169Q369 79 321 36T189 -8ZM199 85Q235 85 253 105T280 175L302 312Q310 362 296 384T244 406Q208 406 190 386T164 317L141
179Q134 131 148 108T199 85ZM348 568Q321 568 308 582T299 621L300 634Q308 688 361 688Q389 688 401 674T411 634L410 621Q403 568 348 568ZM196 568Q169 568 156 582T145 621L147 634Q155 688 208 688Q236 688 249 674T259 634L257 621Q250 568 196 568Z" />
<glyph unicode="&#xf7;" horiz-adv-x="489" d="M111 256Q100 256 100 268V334Q100 345 111 345H419Q430 345 430 334V268Q430 256 419 256H111ZM265 96Q239 96 226 109T212 146V162Q212 184 225 198T265 212Q292 212 305 198T318 162V146Q318 123 305 110T265
96ZM265 388Q239 388 226 402T212 437V454Q212 477 225 490T265 504Q292 504 305 491T318 454V437Q318 416 305 402T265 388Z" />
<glyph unicode="&#xf8;" horiz-adv-x="424" d="M-12 -51Q-17 -51 -19 -48T-17 -38L67 85L112 129L304 416L324 460L374 533Q377 538 379 539T387 541H456Q461 541 462 538T461 530L379 413L335 370L142 79L118 28L69 -43Q64 -51 56 -51H-12ZM189 -8Q103 -8 63
39T37 177L61 324Q75 414 123 457T254 500Q338 500 379 453T406 315L383 169Q369 79 321 36T189 -8ZM199 85Q235 85 253 105T280 175L302 312Q310 362 296 384T244 406Q208 406 190 386T164 317L141 179Q134 131 148 108T199 85Z" />
<glyph unicode="&#xf9;" horiz-adv-x="426" d="M124 -8Q72 -8 50 28T40 140L93 480Q95 492 105 492H187Q199 492 197 480L145 153Q139 117 147 101T179 85Q202 85 227 102T282 149V80Q246 42 208 17T124 -8ZM275 0Q263 0 263 11Q263 29 265 53T270 95L266 125L322
480Q324 492 334 492H416Q428 492 426 480L369 124Q363 90 360 62T355 11Q355 0 344 0H275ZM265 557Q256 557 251 568L191 689Q189 693 191 697T198 701H274Q284 701 288 689L332 568Q336 557 323 557H265Z" />
<glyph unicode="&#xfa;" horiz-adv-x="426" d="M124 -8Q72 -8 50 28T40 140L93 480Q95 492 105 492H187Q199 492 197 480L145 153Q139 117 147 101T179 85Q202 85 227 102T282 149V80Q246 42 208 17T124 -8ZM275 0Q263 0 263 11Q263 29 265 53T270 95L266 125L322
480Q324 492 334 492H416Q428 492 426 480L369 124Q363 90 360 62T355 11Q355 0 344 0H275ZM204 557Q198 557 196 561T198 570L279 689Q286 701 297 701H369Q375 701 376 697T374 686L279 568Q270 557 259 557H204Z" />
<glyph unicode="&#xfb;" horiz-adv-x="426" d="M124 -8Q72 -8 50 28T40 140L93 480Q95 492 105 492H187Q199 492 197 480L145 153Q139 117 147 101T179 85Q202 85 227 102T282 149V80Q246 42 208 17T124 -8ZM275 0Q263 0 263 11Q263 29 265 53T270 95L266 125L322
480Q324 492 334 492H416Q428 492 426 480L369 124Q363 90 360 62T355 11Q355 0 344 0H275ZM176 556Q170 553 167 555T164 563L172 619Q174 625 175 627T182 632L278 682Q286 686 292 682L371 629Q381 623 380 613L371 564Q370 558 366 556T357 556L278 602L176
556Z" />
<glyph unicode="&#xfc;" horiz-adv-x="426" d="M124 -8Q72 -8 50 28T40 140L93 480Q95 492 105 492H187Q199 492 197 480L145 153Q139 117 147 101T179 85Q202 85 227 102T282 149V80Q246 42 208 17T124 -8ZM275 0Q263 0 263 11Q263 29 265 53T270 95L266 125L322
480Q324 492 334 492H416Q428 492 426 480L369 124Q363 90 360 62T355 11Q355 0 344 0H275ZM344 568Q317 568 304 582T295 621L296 634Q304 688 357 688Q385 688 397 674T407 634L406 621Q399 568 344 568ZM192 568Q165 568 152 582T141 621L143 634Q151 688 204
688Q232 688 245 674T255 634L253 621Q246 568 192 568Z" />
<glyph unicode="&#xfd;" horiz-adv-x="404" d="M53 -185Q48 -185 46 -182T46 -173L124 4L63 480Q62 486 65 489T73 492H159Q170 492 170 480L187 279Q189 245 190 211T193 142H195Q207 176 219 210T245 278L324 480Q328 492 338 492H427Q432 492 434 489T434 480L147
-174Q143 -185 134 -185H53ZM201 557Q195 557 193 561T195 570L276 689Q283 701 294 701H366Q372 701 373 697T371 686L276 568Q267 557 256 557H201Z" />
<glyph unicode="&#xfe;" horiz-adv-x="421" d="M0 -185Q-12 -185 -10 -174L124 672Q126 683 135 683H217Q229 683 227 672L93 -174Q92 -185 81 -185H0ZM226 -8Q197 -8 165 0T112 22L124 106Q142 95 162 89T202 82Q233 82 250 102T275 170L301 335Q308 372 299
389T265 406Q244 406 218 390T162 345L163 415Q205 458 242 479T320 500Q376 500 397 463T407 348L377 164Q364 75 327 34T226 -8Z" />
<glyph unicode="&#xff;" horiz-adv-x="404" d="M53 -185Q48 -185 46 -182T46 -173L124 4L63 480Q62 486 65 489T73 492H159Q170 492 170 480L187 279Q189 245 190 211T193 142H195Q207 176 219 210T245 278L324 480Q328 492 338 492H427Q432 492 434 489T434 480L147
-174Q143 -185 134 -185H53ZM341 568Q314 568 301 582T292 621L293 634Q301 688 354 688Q382 688 394 674T404 634L403 621Q396 568 341 568ZM189 568Q162 568 149 582T138 621L140 634Q148 688 201 688Q229 688 242 674T252 634L250 621Q243 568 189 568Z" />
<glyph unicode="&#x2013;" horiz-adv-x="559" d="M55 224Q44 224 46 236L55 296Q57 307 68 307H524Q535 307 533 296L523 236Q522 224 511 224H55Z" />
<glyph unicode="&#x2014;" horiz-adv-x="665" d="M55 224Q44 224 46 236L55 296Q57 307 68 307H630Q641 307 639 296L629 236Q628 224 617 224H55Z" />
<glyph unicode="&#x2018;" horiz-adv-x="213" d="M243 655Q254 655 250 643L163 393Q160 383 151 383H51Q45 383 43 386T43 397L158 646Q162 655 170 655H243Z" />
<glyph unicode="&#x2019;" horiz-adv-x="222" d="M60 383Q49 383 53 394L140 645Q143 655 152 655H252Q258 655 260 651T260 641L145 391Q142 383 133 383H60Z" />
<glyph unicode="&#x201a;" horiz-adv-x="223" d="M-23 -139Q-34 -139 -30 -128L57 123Q60 133 69 133H169Q175 133 177 129T177 119L62 -131Q59 -139 50 -139H-23Z" />
<glyph unicode="&#x201c;" horiz-adv-x="384" d="M414 655Q425 655 421 643L334 393Q330 383 322 383H222Q216 383 214 386T214 397L329 646Q333 655 341 655H414ZM243 655Q254 655 250 643L163 393Q160 383 151 383H51Q45 383 43 386T43 397L158 646Q162 655
170 655H243Z" />
<glyph unicode="&#x201d;" horiz-adv-x="392" d="M60 383Q49 383 53 394L140 645Q143 655 152 655H252Q258 655 260 651T260 641L145 391Q142 383 133 383H60ZM230 383Q219 383 223 394L310 645Q313 655 322 655H422Q428 655 430 651T430 641L315 391Q312 383
303 383H230Z" />
<glyph unicode="&#x201e;" horiz-adv-x="393" d="M-23 -139Q-34 -139 -30 -128L57 123Q60 133 69 133H169Q175 133 177 129T177 119L62 -131Q59 -139 50 -139H-23ZM147 -139Q136 -139 140 -128L227 123Q230 133 239 133H339Q345 133 347 129T347 119L232 -131Q229
-139 220 -139H147Z" />
<glyph unicode="&#x2022;" horiz-adv-x="270" d="M132 168Q91 168 71 191T55 252L61 290Q67 328 91 347T158 367Q200 367 221 345T236 284L230 246Q224 208 199 188T132 168Z" />
<glyph unicode="&#x2039;" horiz-adv-x="263" d="M121 89Q114 89 111 97L52 256Q49 264 54 271L159 430Q165 437 173 437H254Q260 437 261 434T259 424L154 262L207 102Q210 89 198 89H121Z" />
<glyph unicode="&#x203a;" horiz-adv-x="259" d="M164 437Q173 437 174 430L234 271Q236 264 231 256L126 97Q121 89 113 89H31Q26 89 25 93T27 102L131 265L78 425Q75 437 88 437H164Z" />
</font>
</defs>
</svg>
