<?xml version="1.0" standalone="no"?>
<!DOCTYPE svg PUBLIC "-//W3C//DTD SVG 1.1//EN" "http://www.w3.org/Graphics/SVG/1.1/DTD/svg11.dtd">
<svg xmlns="http://www.w3.org/2000/svg">
<defs >
<font id="SofiaSansCondensed" horiz-adv-x="448" ><font-face
    font-family="Sofia Sans Condensed Black"
    units-per-em="1000"
    panose-1="0 0 0 0 0 0 0 0 0 0"
    ascent="900"
    descent="-300"
    alphabetic="0" />
<glyph unicode=" " horiz-adv-x="152" />
<glyph unicode="!" horiz-adv-x="262" d="M69 230Q57 230 57 244L46 642Q46 655 58 655H211Q223 655 223 642L211 244Q211 230 199 230H69ZM134 -8Q92 -8 68 11T44 70V93Q44 134 68 153T134 172Q177 172 200 153T223 93V70Q223 30 200 11T134 -8Z" />
<glyph unicode="&quot;" horiz-adv-x="401" d="M239 367Q225 367 225 380V669Q225 683 239 683H357Q371 683 371 669V380Q371 367 357 367H239ZM44 367Q30 367 30 380V669Q30 683 44 683H162Q176 683 176 669V380Q176 367 162 367H44Z" />
<glyph unicode="#" horiz-adv-x="519" d="M100 0Q86 0 86 14V110H34Q20 110 20 124V210Q20 224 34 224H86V389H34Q20 389 20 403V489Q20 503 34 503H86V599Q86 613 100 613H188Q202 613 202 599V503H316V599Q316 613 331 613H418Q433 613 433 599V503H485Q499
503 499 489V403Q499 389 485 389H433V224H485Q499 224 499 210V124Q499 110 485 110H433V14Q433 0 418 0H331Q316 0 316 14V110H202V14Q202 0 188 0H100ZM202 224H316V389H202V224Z" />
<glyph unicode="$" horiz-adv-x="523" d="M253 -8Q145 -8 96 44T55 195Q56 210 68 210H193Q205 210 205 195Q202 162 213 142T257 122Q283 122 296 134T309 174Q309 189 305 201T291 223T267 243L158 310Q105 345 80 386T55 491Q56 575 105 619T251 663Q358 663
410 613T454 464Q453 449 441 449H314Q301 449 302 464Q305 493 294 513T255 533Q232 533 221 522T209 486Q209 463 220 449T254 421L360 354Q398 330 421 305T454 249T464 173Q463 83 412 38T253 -8ZM201 -87Q191 -87 191 -78V5L322 10V-78Q322 -87 312 -87H201ZM191
643V732Q191 742 201 742H312Q322 742 322 732V644L191 643Z" />
<glyph unicode="%" horiz-adv-x="787" d="M188 0Q171 0 178 17L343 350L478 647Q482 655 493 655H601Q609 655 611 651T609 639L454 326L309 9Q305 0 294 0H188ZM182 305Q107 305 72 346T36 453V515Q36 580 71 621T182 663Q258 663 293 622T328 515V453Q328 388
293 347T182 305ZM182 413Q201 413 209 423T218 455V514Q218 534 210 545T182 556Q163 556 155 545T146 514V455Q146 434 154 424T182 413ZM605 -8Q530 -8 495 33T459 139V201Q459 267 494 308T605 350Q680 350 715 309T751 201V139Q751 74 716 33T605 -8ZM605
99Q625 99 633 110T641 141V200Q641 221 633 231T605 242Q586 242 578 232T570 200V141Q570 121 578 110T605 99Z" />
<glyph unicode="&amp;" horiz-adv-x="558" d="M412 0Q401 0 396 7L129 324Q88 374 71 418T53 513Q53 588 93 625T214 663Q289 663 328 629T368 530Q368 494 356 460T320 392T260 325L180 403Q201 425 215 442T236 477T243 515Q243 535 236 545T212 556Q194 556
186 546T178 513Q178 488 190 458T228 399L550 17Q555 10 553 5T543 0H412ZM225 -8Q129 -8 80 35T31 156Q31 205 44 242T91 318T182 406L224 295Q204 271 190 251T168 209T160 164Q160 135 178 118T230 101Q298 101 332 169T366 368Q366 382 380 382H477Q491 382
491 368Q491 251 460 167T369 37T225 -8Z" />
<glyph unicode="&apos;" horiz-adv-x="206" d="M44 367Q30 367 30 380V669Q30 683 44 683H162Q176 683 176 669V380Q176 367 162 367H44Z" />
<glyph unicode="(" horiz-adv-x="246" d="M137 -186Q106 -155 83 -125T47 -54T34 50V503Q34 566 47 607T84 678T137 740Q142 746 149 747T163 741L232 676Q237 671 237 665T231 652Q212 630 198 608T175 558T167 489V64Q167 24 175 -4T197 -55T231 -99Q236 -104
236 -110T232 -122L163 -188Q156 -194 149 -193T137 -186Z" />
<glyph unicode=")" horiz-adv-x="247" d="M85 -188L15 -122Q5 -112 16 -99Q35 -77 49 -55T72 -5T80 64V489Q80 530 72 558T50 608T16 652Q4 665 15 676L85 741Q90 748 97 747T110 740Q140 709 163 679T200 607T213 503V50Q213 -13 200 -53T164 -124T110 -186Q104
-192 97 -193T85 -188Z" />
<glyph unicode="*" horiz-adv-x="356" d="M130 415L65 466Q60 471 60 477T65 486L113 529L46 537Q39 538 36 543T34 554L60 631Q63 639 68 640T80 638L138 601L131 680Q129 691 139 691H216Q221 691 223 688T225 680L218 600L275 638Q281 642 287 640T295 630L321
554Q323 549 320 544T310 538L242 527L290 485Q295 482 295 476T290 464L223 417Q210 409 204 423L177 479L151 420Q147 414 142 412T130 415Z" />
<glyph unicode="+" horiz-adv-x="489" d="M198 128Q185 128 185 142V240H80Q66 240 66 254V347Q66 361 80 361H185V460Q185 473 198 473H292Q306 473 306 460V361H409Q423 361 423 347V254Q423 240 409 240H306V142Q306 128 292 128H198Z" />
<glyph unicode="," horiz-adv-x="285" d="M33 -151Q19 -151 22 -136L71 159Q73 173 85 173H238Q254 173 249 156L159 -139Q156 -151 144 -151H33Z" />
<glyph unicode="-" horiz-adv-x="399" d="M52 208Q38 208 38 222V311Q38 324 52 324H348Q361 324 361 311V222Q361 208 348 208H52Z" />
<glyph unicode="." horiz-adv-x="270" d="M135 -8Q91 -8 65 14T38 75V100Q38 141 64 162T135 184Q233 184 233 100V75Q233 36 208 14T135 -8Z" />
<glyph unicode="/" horiz-adv-x="368" d="M19 0Q4 0 10 15L225 645Q229 655 240 655H349Q363 655 359 640L143 10Q140 0 129 0H19Z" />
<glyph unicode="0" horiz-adv-x="509" d="M254 -8Q145 -8 89 49T33 216V439Q33 549 89 606T254 663Q364 663 420 606T476 439V216Q476 106 420 49T254 -8ZM254 123Q289 123 306 146T323 219V436Q323 485 306 508T254 532Q220 532 203 509T186 436V219Q186 170
203 147T254 123Z" />
<glyph unicode="1" horiz-adv-x="436" d="M40 0Q27 0 27 14V116Q27 131 40 131H155V497L46 461Q40 458 36 461T31 471V571Q31 583 43 587L243 656Q247 658 251 658T260 659H293Q307 659 307 646V131H413Q427 131 427 116V14Q427 0 413 0H40Z" />
<glyph unicode="2" horiz-adv-x="465" d="M40 0Q26 0 26 14V104Q26 158 44 198T92 269T154 325T216 373T264 421T283 478V489Q283 513 272 524T233 535Q205 535 193 519T182 471Q182 457 168 457H55Q42 457 41 471Q35 562 87 612T238 663Q336 663 386 620T436
490Q436 444 423 409T389 348T341 299T289 257T242 219T207 179T194 131H419Q433 131 433 116V14Q433 0 419 0H40Z" />
<glyph unicode="3" horiz-adv-x="479" d="M231 -8Q120 -8 72 44T31 188Q32 201 46 201H159Q173 201 173 188Q173 149 187 135T235 121Q265 121 280 137T295 188V205Q295 240 279 256T229 272H188Q174 272 174 286V378Q174 392 188 392H220Q254 392 269 408T284
460V477Q284 508 272 521T230 535Q200 535 187 521T174 474Q174 460 160 460H47Q33 460 33 474Q29 564 82 613T238 663Q337 663 387 619T437 491Q437 438 418 400T361 341V339Q404 322 425 285T447 191Q447 94 392 43T231 -8Z" />
<glyph unicode="4" horiz-adv-x="517" d="M306 0Q293 0 293 14V109H23Q9 109 9 123V150Q9 157 10 162T12 173L202 645Q206 655 217 655H346Q362 655 356 638L204 239H294L319 423Q322 437 333 437H431Q445 437 445 423V239H483Q497 239 497 225V123Q497 109 483
109H445V14Q445 0 431 0H306Z" />
<glyph unicode="5" horiz-adv-x="479" d="M223 -8Q150 -8 104 17T38 85T24 184Q27 198 38 198H153Q167 198 167 184Q167 158 180 140T227 121Q265 121 280 140T295 203V224Q295 251 287 269T262 296T217 305Q180 305 138 296T61 274Q47 270 42 273T38 286L63 641Q65
655 78 655H394Q408 655 408 641V539Q408 524 394 524H190L182 410Q208 418 232 421T286 425Q370 425 409 375T448 214Q448 101 395 47T223 -8Z" />
<glyph unicode="6" horiz-adv-x="506" d="M254 -8Q140 -8 87 46T34 217V440Q34 550 89 606T254 663Q348 663 402 622T456 496Q456 481 442 481H329Q315 481 315 496Q315 517 300 526T257 536Q220 536 203 518T186 453V208Q186 162 201 141T252 119Q289 119 306
140T323 210V229Q323 267 309 283T263 300Q240 300 217 291T170 265V370Q203 393 242 406T321 420Q401 420 438 373T476 228Q476 108 422 50T254 -8Z" />
<glyph unicode="7" horiz-adv-x="475" d="M107 0Q100 0 98 5T97 18L281 528H166V470Q166 456 152 456H37Q22 456 22 470V641Q22 655 37 655H468Q480 655 480 643V634Q480 629 480 626T477 617L260 12Q257 0 244 0H107Z" />
<glyph unicode="8" horiz-adv-x="510" d="M254 -8Q142 -8 85 38T27 177Q27 241 51 284T124 349Q87 371 68 406T49 490Q49 575 101 619T254 663Q356 663 408 619T460 490Q460 442 442 407T385 349Q433 328 457 285T482 177Q482 85 425 39T254 -8ZM254 115Q294 115
312 133T330 191V211Q330 252 312 271T254 290Q217 290 199 271T180 211V191Q180 152 198 134T254 115ZM254 397Q283 397 296 412T310 458V486Q310 517 297 531T254 546Q227 546 213 532T199 486V458Q199 427 213 412T254 397Z" />
<glyph unicode="9" horiz-adv-x="508" d="M254 -8Q155 -8 102 35T49 164Q49 179 63 179H176Q191 179 191 164Q191 143 205 131T252 119Q288 119 305 138T322 203V448Q322 494 307 515T253 537Q216 537 201 516T185 447V426Q185 388 200 370T246 351Q269 351 292
360T339 387L338 282Q306 259 267 246T188 232Q107 232 70 281T32 431Q32 551 86 607T253 663Q368 663 421 609T474 436V216Q474 105 419 49T254 -8Z" />
<glyph unicode=":" horiz-adv-x="261" d="M130 303Q88 303 63 325T38 385V409Q38 447 63 468T130 490Q175 490 199 469T223 409V385Q223 348 199 326T130 303ZM130 -8Q88 -8 63 14T38 74V98Q38 135 63 157T130 179Q175 179 199 157T223 98V74Q223 37 199 15T130 -8Z" />
<glyph unicode=";" horiz-adv-x="280" d="M22 -151Q8 -151 11 -136L61 160Q63 173 75 173H227Q234 173 237 169T239 156L148 -139Q146 -151 134 -151H22ZM144 303Q102 303 77 325T52 385V409Q52 447 77 468T144 490Q189 490 213 469T237 409V385Q237 348 213 326T144
303Z" />
<glyph unicode="&lt;" horiz-adv-x="489" d="M407 84L80 241Q70 246 70 257V338Q70 348 80 354L407 511Q413 514 416 511T420 500V387Q420 376 411 371L221 298L411 223Q420 219 420 207V94Q420 88 417 84T407 84Z" />
<glyph unicode="=" horiz-adv-x="489" d="M77 331Q63 331 63 345V438Q63 452 77 452H412Q426 452 426 438V345Q426 331 412 331H77ZM77 151Q63 151 63 165V257Q63 271 77 271H412Q426 271 426 257V165Q426 151 412 151H77Z" />
<glyph unicode="&gt;" horiz-adv-x="489" d="M83 84Q77 80 74 84T70 94V207Q70 219 79 223L269 298L79 371Q70 376 70 387V500Q70 507 73 510T84 511L410 354Q420 349 420 338V257Q420 245 410 241L83 84Z" />
<glyph unicode="?" horiz-adv-x="436" d="M135 230Q125 230 125 242V281Q125 315 138 340T170 384T209 421T242 457T255 500Q255 521 246 530T213 540Q185 540 176 521T170 468Q170 453 157 453H45Q37 453 35 457T31 471Q25 565 70 614T216 663Q315 663 361 625T407
516Q407 471 394 439T362 384T324 343T292 306T279 264V242Q279 230 267 230H135ZM206 -8Q164 -8 141 11T117 70V93Q117 134 140 153T206 172Q249 172 272 153T295 93V70Q295 30 272 11T206 -8Z" />
<glyph unicode="@" horiz-adv-x="793" d="M395 -185Q270 -185 187 -142T63 -13T22 203V289Q22 419 64 508T191 644T400 691Q521 691 603 648T728 524T771 326V297Q771 165 713 97T559 29Q509 29 477 50T431 108T422 189L441 362Q435 367 424 367T401 367Q382 367
372 357T359 320L345 191Q343 165 348 155T371 145Q387 145 405 160T441 195L471 118Q431 73 393 51T314 28Q261 28 239 68T225 175L242 324Q250 400 287 436T396 472Q440 472 477 464T550 453Q563 452 562 437L537 211Q533 172 541 156T572 140Q605 140 621 175T637
296V323Q637 448 580 511T400 574Q317 574 263 543T182 447T155 281V210Q155 111 180 50T260 -39T404 -67H524Q538 -67 538 -80V-171Q538 -185 524 -185H395Z" />
<glyph unicode="A" horiz-adv-x="528" d="M10 0Q-4 0 1 15L166 645Q169 655 180 655H348Q359 655 363 645L528 15Q531 0 518 0H373Q362 0 359 10L288 378Q281 413 276 447T265 515H262Q257 482 251 447T239 377L166 11Q165 0 152 0H10ZM165 121L187 244H336L360 121H165Z" />
<glyph unicode="B" horiz-adv-x="508" d="M58 0Q44 0 44 13V642Q44 655 57 655H245Q352 655 405 614T459 492Q459 437 437 403T367 348V344Q424 330 453 292T483 193Q483 92 427 46T246 0H58ZM200 126H250Q290 126 309 145T329 202Q329 238 309 257T248 276H200V126ZM200
389H241Q274 389 290 407T307 462Q307 496 290 512T237 529H200V389Z" />
<glyph unicode="C" horiz-adv-x="544" d="M273 -8Q158 -8 96 51T34 239V415Q34 539 96 601T273 663Q354 663 410 633T491 550T508 423Q507 409 496 409H365Q352 409 353 423Q356 472 338 498T274 525Q231 525 211 499T190 411V246Q190 182 211 156T274 130Q321
130 338 158T354 232Q353 246 365 246H497Q508 246 509 233Q520 123 459 58T273 -8Z" />
<glyph unicode="D" horiz-adv-x="545" d="M58 0Q44 0 44 13V642Q44 655 57 655H249Q382 655 449 584T516 370V296Q516 147 449 74T252 0H58ZM200 137H246Q305 137 332 177T360 298V368Q360 442 332 480T243 518H200V137Z" />
<glyph unicode="E" horiz-adv-x="457" d="M56 0Q44 0 44 13V642Q44 655 56 655H409Q421 655 421 642V531Q421 518 409 518H200V395H390Q402 395 402 382V279Q402 265 390 265H200V137H409Q421 137 421 124V13Q421 0 409 0H56Z" />
<glyph unicode="F" horiz-adv-x="447" d="M56 0Q44 0 44 13V642Q44 655 56 655H409Q421 655 421 642V531Q421 518 409 518H200V386H379Q391 386 391 372V265Q391 252 379 252H200V13Q200 0 188 0H56Z" />
<glyph unicode="G" horiz-adv-x="551" d="M237 -8Q145 -8 90 51T34 229V416Q34 538 96 600T273 663Q354 663 407 635T485 558T505 442Q504 429 493 429H361Q350 429 350 444Q352 482 335 503T275 525Q232 525 211 499T190 414V240Q190 181 210 156T274 130Q314
130 334 152T355 216V244H279Q267 244 267 258V338Q267 351 279 351H495Q506 351 506 338V167Q506 120 508 81T514 14Q517 0 502 0H399Q389 0 387 12Q384 23 383 39T380 74H378Q365 50 347 32T302 3T237 -8Z" />
<glyph unicode="H" horiz-adv-x="559" d="M57 0Q44 0 44 13V642Q44 655 57 655H187Q200 655 200 642V398H359V642Q359 655 372 655H502Q515 655 515 642V13Q515 0 502 0H372Q359 0 359 13V261H200V13Q200 0 187 0H57Z" />
<glyph unicode="I" horiz-adv-x="243" d="M56 0Q44 0 44 13V642Q44 655 56 655H187Q200 655 200 642V13Q200 0 187 0H56Z" />
<glyph unicode="J" horiz-adv-x="247" d="M29 -164Q18 -166 15 -154L-18 -51Q-20 -44 -17 -39T-10 -33Q10 -27 22 -14T40 24T47 91V642Q47 655 60 655H191Q203 655 203 642V100Q203 20 184 -35T127 -122T29 -164Z" />
<glyph unicode="K" horiz-adv-x="535" d="M56 0Q44 0 44 13V642Q44 655 56 655H187Q200 655 200 642V522Q200 502 200 477T198 425T193 378H196Q208 407 222 443T256 520L335 648Q338 655 349 655H500Q508 655 509 651T508 638L358 382L529 17Q533 9 530 5T521
0H363Q353 0 349 9L247 255L200 186V13Q200 0 187 0H56Z" />
<glyph unicode="L" horiz-adv-x="418" d="M57 0Q44 0 44 13V642Q44 655 57 655H187Q193 655 196 651T200 642V137H393Q405 137 405 124V13Q405 0 393 0H57Z" />
<glyph unicode="M" horiz-adv-x="672" d="M47 0Q34 0 34 13L44 642Q44 655 57 655H209Q220 655 224 645L337 334L449 645Q453 655 463 655H615Q627 655 627 642L638 13Q638 0 625 0H497Q485 0 485 13L481 229Q480 284 482 329T489 413H486Q475 378 461 341T432
269L351 77Q347 68 339 68H333Q325 68 321 77L240 270Q225 304 212 341T186 413H184Q187 375 189 330T191 229L188 13Q188 0 175 0H47Z" />
<glyph unicode="N" horiz-adv-x="560" d="M56 0Q44 0 44 13V642Q44 655 56 655H218Q228 655 232 646L325 382Q335 357 344 326T363 266T378 214H380Q378 240 376 279T371 357T369 422V642Q369 655 381 655H504Q517 655 517 642V13Q517 0 504 0H343Q333 0 329 9L236
268Q221 308 208 353T185 435H182Q185 407 187 368T190 290T192 222V13Q192 0 178 0H56Z" />
<glyph unicode="O" horiz-adv-x="549" d="M274 -8Q156 -8 95 54T34 236V418Q34 539 95 601T274 663Q392 663 453 601T515 418V236Q515 116 454 54T274 -8ZM274 130Q318 130 338 157T359 243V411Q359 471 339 498T274 525Q231 525 211 498T190 411V243Q190 184
210 157T274 130Z" />
<glyph unicode="P" horiz-adv-x="484" d="M56 0Q44 0 44 13V642Q44 655 56 655H232Q350 655 405 599T460 432Q460 325 403 268T234 211H200V13Q200 0 187 0H56ZM200 347H231Q268 347 286 367T304 431Q304 478 287 498T232 518H200V347Z" />
<glyph unicode="Q" horiz-adv-x="549" d="M388 -184Q317 -184 283 -131T249 41Q249 54 261 54L364 55Q376 55 376 41Q376 -21 386 -44T419 -68Q429 -68 436 -67T451 -63Q464 -59 464 -74V-153Q464 -165 456 -171Q446 -175 429 -179T388 -184ZM274 -8Q156 -8 95
54T34 236V418Q34 539 95 601T274 663Q392 663 453 601T515 418V236Q515 116 454 54T274 -8ZM274 130Q318 130 338 157T359 243V411Q359 471 339 498T274 525Q231 525 211 498T190 411V243Q190 184 210 157T274 130Z" />
<glyph unicode="R" horiz-adv-x="522" d="M56 0Q44 0 44 13V642Q44 655 56 655H247Q368 655 423 605T479 450Q479 382 457 337T385 270V269L509 17Q516 0 501 0H355Q344 0 340 9L237 243H200V13Q200 0 187 0H56ZM200 370H247Q286 370 304 388T323 445Q323 484
306 501T249 519H200V370Z" />
<glyph unicode="S" horiz-adv-x="477" d="M232 -8Q116 -8 66 44T26 195Q27 211 39 211H167Q179 211 177 196Q176 163 190 144T235 124Q266 124 280 136T294 174Q294 188 290 199T275 220T248 240L140 305Q79 342 53 384T28 490Q29 574 78 618T228 663Q341 663
394 613T439 467Q438 449 426 449H296Q283 449 285 467Q287 493 275 512T234 532Q209 532 197 521T184 487Q183 464 195 450T231 422L339 359Q380 334 404 308T439 250T449 172Q449 83 398 38T232 -8Z" />
<glyph unicode="T" horiz-adv-x="466" d="M168 0Q155 0 155 13V518H28Q16 518 16 531V642Q16 655 28 655H438Q450 655 450 642V531Q450 518 438 518H311V13Q311 0 299 0H168Z" />
<glyph unicode="U" horiz-adv-x="548" d="M274 -8Q158 -8 99 52T40 236V642Q40 655 53 655H185Q196 655 196 642V242Q196 182 215 156T274 130Q316 130 334 155T352 242V642Q352 655 364 655H496Q508 655 508 642V236Q508 113 449 53T274 -8Z" />
<glyph unicode="V" horiz-adv-x="533" d="M180 0Q170 0 166 11L6 639Q2 655 17 655H161Q173 655 175 645L244 285Q250 250 256 215T266 140H268Q273 179 279 215T291 286L359 644Q361 655 373 655H516Q531 655 527 640L368 10Q365 0 354 0H180Z" />
<glyph unicode="W" horiz-adv-x="750" d="M151 0Q140 0 138 11L8 639Q5 655 19 655H150Q163 655 164 644L209 416Q219 352 224 291T232 160H234Q239 196 246 231T262 301L313 510L284 622Q283 630 286 634T295 639H422Q432 639 434 628L497 308Q504 271 509 234T519
160H520Q524 230 529 293T544 424L586 644Q588 655 600 655H731Q745 655 741 639L610 11Q608 0 598 0H453Q441 0 439 11L404 190Q397 226 391 260T378 328H375Q368 294 362 261T346 191L307 10Q305 0 293 0H151Z" />
<glyph unicode="X" horiz-adv-x="513" d="M11 0Q-5 0 3 17L168 336L12 638Q9 646 11 650T21 655H174Q184 655 187 647L229 544Q237 522 244 500T257 455H260Q266 477 274 501T290 545L328 647Q331 655 341 655H494Q508 655 501 638L345 335L510 17Q513 10 511
5T501 0H347Q337 0 333 8L288 124Q280 145 272 168T257 215H254Q248 192 240 169T224 125L176 9Q173 0 162 0H11Z" />
<glyph unicode="Y" horiz-adv-x="508" d="M188 0Q176 0 176 13V226L3 638Q1 646 3 650T13 655H159Q171 655 172 646L220 489Q229 458 238 427T254 366H256Q263 397 271 427T290 488L337 646Q340 655 350 655H495Q502 655 504 651T504 638L332 227V13Q332 0 320 0H188Z" />
<glyph unicode="Z" horiz-adv-x="472" d="M20 0Q8 0 8 13V20Q8 29 12 36L193 412Q206 439 220 466T247 517V520Q225 519 201 519T153 518H43Q31 518 31 531V642Q31 655 43 655H448Q461 655 461 642V635Q461 631 460 627T457 619L274 243Q261 216 246 188T218 137V135Q240
136 264 136T312 137H429Q441 137 441 124V13Q441 0 429 0H20Z" />
<glyph unicode="[" horiz-adv-x="244" d="M48 -185Q34 -185 34 -171V725Q34 739 48 739H233Q247 739 247 725V640Q247 626 233 626H167V-72H233Q247 -72 247 -85V-171Q247 -185 233 -185H48Z" />
<glyph unicode="\" horiz-adv-x="368" d="M240 0Q229 0 225 10L10 639Q4 655 19 655H129Q140 655 143 645L359 16Q364 0 349 0H240Z" />
<glyph unicode="]" horiz-adv-x="244" d="M11 -185Q-4 -185 -4 -171V-85Q-4 -72 11 -72H77V626H11Q-4 626 -4 640V725Q-4 739 11 739H196Q210 739 210 725V-171Q210 -185 196 -185H11Z" />
<glyph unicode="^" horiz-adv-x="453" d="M38 350Q22 350 29 366L166 674Q170 683 181 683H272Q282 683 288 674L424 367Q427 359 425 355T415 350H301Q289 350 286 359L228 545L165 359Q163 350 151 350H38Z" />
<glyph unicode="_" d="M29 -169Q16 -169 16 -155V-66Q16 -52 29 -52H418Q432 -52 432 -66V-155Q432 -169 418 -169H29Z" />
<glyph unicode="`" horiz-adv-x="262" d="M140 557Q129 557 122 567L33 695Q29 701 30 705T39 710H145Q156 710 161 700L230 572Q237 557 222 557H140Z" />
<glyph unicode="a" horiz-adv-x="435" d="M286 0Q275 0 272 12Q270 25 268 48T263 93L249 122V349Q249 376 241 385T212 395Q171 395 176 346Q178 333 163 333H52Q41 333 39 348Q33 426 79 466T218 507Q313 507 356 468T400 344V130Q400 89 401 63T404 14Q406
0 392 0H286ZM129 -8Q78 -8 49 28T20 129Q20 202 57 240T187 288L260 297L259 217L218 213Q188 208 176 194T163 151Q163 127 170 115T194 103Q211 103 228 116T267 158L279 80Q242 37 208 15T129 -8Z" />
<glyph unicode="b" horiz-adv-x="455" d="M240 -8Q181 -8 134 0T36 13V670Q36 683 49 683H174Q187 683 187 670V119Q196 117 206 116T227 114Q250 114 261 128T272 172V334Q272 356 265 366T240 376Q224 376 208 367T174 343L171 441Q211 476 244 491T310 507Q369
507 396 473T423 366V166Q423 77 379 35T240 -8Z" />
<glyph unicode="c" horiz-adv-x="445" d="M229 -8Q132 -8 81 41T29 186V316Q29 409 81 458T228 507Q291 507 335 483T400 415T415 318Q413 301 401 301H290Q277 301 277 315Q279 349 268 363T231 377Q205 377 193 362T180 310V192Q180 153 192 138T230 122Q256
122 266 136T277 183Q277 198 289 198H402Q415 198 415 184Q418 90 372 41T229 -8Z" />
<glyph unicode="d" horiz-adv-x="457" d="M145 -8Q87 -8 59 26T31 137V338Q31 425 65 466T165 507Q194 507 226 499T283 477L284 369Q268 377 253 380T224 384Q203 384 193 370T182 328V163Q182 142 190 132T215 122Q234 122 250 132T281 160L300 84Q273 46 234
19T145 -8ZM306 0Q295 0 293 12Q289 27 288 50T285 92L270 131V670Q270 683 283 683H409Q421 683 421 670V130Q421 98 422 68T425 15Q426 0 414 0H306Z" />
<glyph unicode="e" horiz-adv-x="455" d="M228 -8Q127 -8 78 37T29 176V314Q29 408 79 457T226 507Q327 507 376 459T425 311V227Q425 213 412 213H178V166Q178 135 189 121T227 106Q250 106 261 116T272 149Q272 160 285 160H404Q415 160 417 147Q417 69 371
31T228 -8ZM178 299H277V332Q277 363 266 377T229 392Q202 392 190 378T178 332V299Z" />
<glyph unicode="f" horiz-adv-x="337" d="M91 0Q86 0 83 4T79 13V370H25Q12 370 12 383V485Q12 498 25 498H79V529Q79 610 117 650T231 691Q267 691 296 688T341 679Q350 674 350 665V573Q350 557 336 563Q323 566 308 569T276 572Q252 572 241 560T230 521V498H306Q319
498 319 485V383Q319 370 306 370H230V13Q230 8 226 4T217 0H91Z" />
<glyph unicode="g" horiz-adv-x="444" d="M213 -193Q105 -193 56 -165T6 -79Q6 -41 24 -13T82 36L189 7Q171 -3 163 -15T155 -42Q155 -61 170 -70T221 -80Q264 -81 278 -72T293 -41Q293 -24 285 -16T254 -6L128 4Q83 9 59 34T34 101Q34 136 52 161T106 204L189
169Q173 165 167 157T160 141Q160 133 166 128T191 121L303 111Q375 105 406 69T437 -40Q437 -120 385 -156T213 -193ZM223 157Q129 157 87 199T44 333Q44 422 86 464T223 507Q318 507 359 465T401 333Q401 241 360 199T223 157ZM223 268Q246 268 253 280T261 330Q261
368 254 381T223 395Q200 395 192 382T184 330Q184 293 192 281T223 268ZM351 454L254 490Q253 525 255 556T260 613Q262 624 272 624H364Q379 624 375 610Q365 566 359 530T351 454Z" />
<glyph unicode="h" horiz-adv-x="463" d="M289 0Q277 0 277 13V333Q277 356 269 366T243 376Q226 376 210 366T178 340L159 415Q187 452 226 479T316 507Q373 507 400 473T428 362V13Q428 0 416 0H289ZM49 0Q36 0 36 13V670Q36 683 49 683H174Q187 683 187 670V13Q187
0 174 0H49Z" />
<glyph unicode="i" horiz-adv-x="222" d="M49 0Q36 0 36 13V485Q36 498 49 498H174Q187 498 187 485V13Q187 0 174 0H49ZM367 554Q328 554 306 573T283 627V647Q283 682 305 701T367 721Q408 721 429 702T451 647V627Q451 593 430 574T367 554Z" />
<glyph unicode="j" horiz-adv-x="223" d="M71 -189Q63 -195 56 -186L-17 -102Q-27 -91 -17 -83Q2 -66 13 -44T30 10T36 85V485Q36 498 48 498H174Q187 498 187 485V86Q187 16 177 -34T141 -121T71 -189ZM114 554Q75 554 53 573T30 627V647Q30 682 52 701T114 721Q155
721 176 702T198 647V627Q198 593 177 574T114 554Z" />
<glyph unicode="k" horiz-adv-x="465" d="M49 0Q36 0 36 13V670Q36 683 49 683H174Q187 683 187 670V459Q187 425 186 384T181 307H184Q196 332 207 357T232 406L284 490Q288 498 298 498H441Q449 498 450 494T448 483L318 279L457 17Q462 10 460 5T450 0H305Q294
0 289 8L213 167L187 131V13Q187 0 175 0H49Z" />
<glyph unicode="l" horiz-adv-x="222" d="M49 0Q36 0 36 13V670Q36 683 49 683H174Q187 683 187 670V13Q187 0 174 0H49Z" />
<glyph unicode="m" horiz-adv-x="686" d="M49 0Q36 0 36 13V368Q36 401 35 430T32 483Q31 498 44 498H152Q162 498 164 487Q166 476 167 461T170 430Q198 462 230 484T309 507Q349 507 372 490T407 438Q434 467 466 487T539 507Q596 507 623 472T651 362V13Q651
0 639 0H512Q500 0 500 13V336Q500 357 493 366T470 376Q457 376 445 369T419 350V13Q419 0 407 0H280Q268 0 268 13V336Q268 357 261 366T238 376Q225 376 213 369T187 350V13Q187 0 174 0H49Z" />
<glyph unicode="n" horiz-adv-x="463" d="M290 0Q277 0 277 13V333Q277 356 269 366T242 376Q226 376 210 366T178 340L159 415Q187 452 226 479T316 507Q373 507 400 473T428 362V13Q428 0 415 0H290ZM49 0Q36 0 36 13V368Q36 401 35 430T32 483Q31 498 44 498H152Q162
498 164 486Q166 472 168 448T172 404L187 361V13Q187 0 174 0H49Z" />
<glyph unicode="o" horiz-adv-x="458" d="M229 -8Q135 -8 82 40T29 182V317Q29 409 82 458T229 507Q323 507 376 458T429 317V182Q429 89 377 41T229 -8ZM229 121Q255 121 266 136T278 187V311Q278 347 267 362T229 377Q204 377 192 362T180 311V187Q180 152 192
137T229 121Z" />
<glyph unicode="p" horiz-adv-x="454" d="M288 -8Q261 -8 228 -1T171 20L170 132Q184 124 200 119T230 114Q252 114 262 128T272 174V331Q272 354 265 365T239 376Q223 376 207 366T174 340L155 420Q188 454 224 480T313 507Q368 507 395 472T423 359V166Q423
75 389 34T288 -8ZM49 -185Q36 -185 36 -172V369Q36 401 35 430T32 483Q31 498 44 498H152Q162 498 164 487Q166 473 168 451T172 410L187 362V-172Q187 -185 174 -185H49Z" />
<glyph unicode="q" horiz-adv-x="456" d="M282 -185Q270 -185 270 -172V378Q259 381 249 382T227 384Q203 384 193 370T182 327V164Q182 141 190 132T216 122Q232 122 249 131T281 160L282 54Q253 24 218 8T145 -8Q87 -8 59 26T31 134V333Q31 421 75 464T213 507Q274
507 323 498T421 486V-172Q421 -185 408 -185H282Z" />
<glyph unicode="r" horiz-adv-x="333" d="M49 0Q36 0 36 13V368Q36 401 35 430T32 483Q31 498 44 498H152Q162 498 164 487Q167 471 169 448T172 405L187 359V13Q187 0 174 0H49ZM176 298L165 423Q181 445 201 463T243 494T287 507Q294 507 300 506T311 503Q317
501 318 497T320 487Q320 461 320 428T316 366Q315 353 304 354Q298 355 291 356T276 357Q260 357 243 350T208 330T176 298Z" />
<glyph unicode="s" horiz-adv-x="411" d="M200 -8Q103 -8 62 31T28 151Q30 165 41 165H154Q166 165 166 150Q165 124 173 111T200 98Q219 98 228 106T237 134Q237 152 228 163T195 188L103 241Q66 263 47 293T27 368Q27 436 70 471T202 507Q296 507 338 470T381
360Q380 347 368 347H256Q249 347 246 351T243 362Q245 381 237 390T210 400Q194 400 186 393T178 372Q178 357 186 347T215 325L303 275Q346 250 367 219T388 139Q388 66 342 29T200 -8Z" />
<glyph unicode="t" horiz-adv-x="357" d="M237 -8Q149 -8 113 33T77 174V370H22Q10 370 10 383V485Q10 498 22 498H82L97 615Q100 628 110 628H216Q228 628 228 615V498H327Q341 498 341 485V383Q341 370 327 370H228V185Q228 152 238 137T274 121Q286 121 298
124T327 133Q342 138 342 122V22Q342 10 331 7Q313 0 289 -4T237 -8Z" />
<glyph unicode="u" horiz-adv-x="458" d="M148 -8Q90 -8 63 27T36 137V485Q36 498 49 498H174Q187 498 187 485V168Q187 143 194 133T216 122Q233 122 250 133T283 161L301 84Q273 46 234 19T148 -8ZM308 0Q297 0 293 11Q291 27 289 50T286 92L271 137V485Q271
498 284 498H409Q422 498 422 485V130Q422 98 422 69T426 14Q428 0 414 0H308Z" />
<glyph unicode="v" horiz-adv-x="452" d="M148 0Q137 0 134 10L12 484Q9 498 22 498H159Q170 498 173 486L208 271Q213 239 217 210T224 149H226Q230 181 235 210T244 272L280 486Q283 498 294 498H430Q444 498 440 483L317 10Q314 0 303 0H148Z" />
<glyph unicode="w" horiz-adv-x="647" d="M141 0Q130 0 127 11L16 484Q13 498 26 498H159Q171 498 172 485L201 286Q207 252 210 219T216 152H219Q225 185 230 217T242 283L259 374L244 471Q242 487 255 487H368Q379 487 382 475L410 284Q414 250 418 218T427
152H430Q433 186 437 219T445 286L475 485Q476 498 488 498H622Q635 498 632 484L520 11Q517 0 506 0H372Q359 0 357 11L343 81Q339 111 335 143T325 225H321Q317 176 313 144T302 81L290 11Q287 0 276 0H141Z" />
<glyph unicode="x" horiz-adv-x="462" d="M19 0Q13 0 11 4T11 17L140 255L19 483Q15 490 18 494T28 498H170Q181 498 184 489L208 424Q214 406 220 386T231 333H232Q238 365 243 386T255 424L277 488Q280 498 290 498H433Q440 498 442 494T442 483L322 256L451
17Q455 9 453 5T443 0H299Q288 0 285 8L261 77Q253 96 246 118T232 172H230Q223 140 217 118T202 76L177 8Q175 0 163 0H19Z" />
<glyph unicode="y" d="M115 -185Q109 -185 106 -181T105 -170L153 -1L12 483Q7 498 22 498H159Q170 498 173 486L203 327Q209 295 214 258T223 185H226Q231 220 236 257T245 326L278 486Q279 498 291 498H427Q441 498 437 483L250 -175Q248 -185 236 -185H115Z" />
<glyph unicode="z" horiz-adv-x="413" d="M26 0Q14 0 14 12V16Q14 26 17 35L144 280Q156 303 168 325T193 369V371Q172 370 157 370T125 370H48Q36 370 36 383V485Q36 498 48 498H385Q399 498 399 487V483Q399 472 389 453L269 221Q257 199 245 176T218 129V127Q240
129 254 129T289 129H368Q381 129 381 115V13Q381 0 368 0H26Z" />
<glyph unicode="{" horiz-adv-x="275" d="M260 -186Q193 -186 151 -168T88 -106T68 13V176Q68 197 63 207T41 217H22Q8 217 8 231V324Q8 338 22 338H41Q57 338 62 348T68 379V542Q68 618 88 661T150 723T260 741Q275 741 275 727V642Q275 628 260 628Q236 628
224 621T207 599T202 558V399Q202 353 186 320T134 277Q170 269 186 236T202 156V-3Q202 -28 206 -43T223 -66T260 -73Q275 -73 275 -87V-172Q275 -186 260 -186Z" />
<glyph unicode="|" horiz-adv-x="233" d="M64 -185Q51 -185 51 -171V816Q51 830 64 830H169Q183 830 183 816V-171Q183 -185 169 -185H64Z" />
<glyph unicode="}" horiz-adv-x="275" d="M14 -186Q0 -186 0 -172V-87Q0 -73 14 -73Q38 -73 50 -66T68 -44T73 -3V156Q73 202 88 235T141 277Q104 286 89 319T73 399V558Q73 584 68 599T51 621T14 628Q0 628 0 642V727Q0 741 14 741Q82 741 124 723T187 662T207
542V379Q207 358 212 348T235 338H253Q267 338 267 324V231Q267 217 253 217H235Q218 217 213 207T207 176V13Q207 -63 187 -106T125 -167T14 -186Z" />
<glyph unicode="~" horiz-adv-x="489" d="M318 223Q284 223 263 231T223 246T170 254Q139 254 113 246T72 232Q63 228 63 240V338Q63 347 69 349Q80 355 106 365T171 376Q206 376 227 369T268 353T320 345Q350 345 376 354T417 367Q426 371 426 360V261Q426 253
421 249Q411 243 385 233T318 223Z" />
<glyph unicode="&#xa0;" horiz-adv-x="152" />
<glyph unicode="&#xa1;" horiz-adv-x="257" d="M69 268H199Q211 268 211 254L223 -144Q223 -157 211 -157H58Q46 -157 46 -144L57 254Q57 268 69 268ZM134 506Q177 506 200 487T223 428V404Q223 364 200 345T134 326Q92 326 68 345T44 404V428Q44 468 68 487T134 506Z" />
<glyph unicode="&#xa2;" horiz-adv-x="523" d="M194 540V624Q194 634 204 634H315Q326 634 326 624V537L194 540ZM204 -37Q194 -37 194 -27V57L326 59V-27Q326 -37 315 -37H204ZM263 42Q166 42 115 91T63 236V366Q63 459 115 508T263 557Q325 557 369 533T434
465T449 368Q447 351 435 351H325Q312 351 312 365Q313 399 302 413T265 427Q239 427 227 412T214 360V242Q214 203 226 188T264 172Q290 172 301 186T311 233Q311 248 324 248H436Q449 248 449 234Q452 140 406 91T263 42Z" />
<glyph unicode="&#xa3;" horiz-adv-x="523" d="M78 0Q64 0 64 14V97Q64 102 65 107T69 116Q82 137 90 165T99 223V479Q99 567 144 615T283 663Q350 663 393 642T455 579T471 473Q470 459 456 459H348Q334 459 334 473Q336 493 333 507T320 530T293 538Q271 538
260 524T249 473V239Q249 202 243 176T220 131H460Q474 131 474 116V14Q474 0 460 0H78ZM58 266Q44 266 44 279V369Q44 383 58 383H350Q364 383 364 369V279Q364 266 350 266H58Z" />
<glyph unicode="&#xa4;" horiz-adv-x="526" d="M128 91Q121 85 114 92L48 169Q43 176 49 182L106 235Q101 252 98 272T95 314Q95 336 98 356T106 393L49 446Q43 452 48 459L114 536Q122 544 128 537L182 488Q199 497 219 502T263 507Q307 507 343 488L398 537Q404
544 411 536L476 459Q483 452 475 446L419 393Q424 377 427 357T431 314Q431 292 428 272T419 235L475 182Q483 176 476 169L411 92Q405 85 397 91L343 140Q307 121 263 121Q240 121 220 126T182 140L128 91ZM263 239Q289 239 300 257T311 314Q311 354 300 371T263
389Q237 389 226 372T214 314Q214 275 225 257T263 239Z" />
<glyph unicode="&#xa5;" horiz-adv-x="526" d="M198 0Q184 0 184 14V226L24 638Q21 646 24 650T33 655H180Q190 655 193 646L235 483Q242 456 249 427T262 368H264Q271 397 277 426T290 483L335 646Q336 655 348 655H492Q500 655 502 651T502 638L340 227V14Q340
0 327 0H198ZM99 86Q85 86 85 100V163Q85 177 99 177H427Q441 177 441 163V100Q441 86 427 86H99ZM99 227Q85 227 85 241V303Q85 318 99 318H427Q441 318 441 303V241Q441 227 427 227H99Z" />
<glyph unicode="&#xa6;" horiz-adv-x="233" d="M64 238Q51 238 51 252V662Q51 676 64 676H169Q183 676 183 662V252Q183 238 169 238H64ZM64 -31Q51 -31 51 -17V393Q51 407 64 407H169Q183 407 183 393V-17Q183 -31 169 -31H64Z" />
<glyph unicode="&#xa7;" horiz-adv-x="426" d="M236 119L222 209Q241 215 252 228T263 262Q263 286 249 302T213 337L111 429Q84 451 64 479T44 558Q44 625 87 658T218 691Q310 691 351 656T393 543Q393 529 379 529H272Q260 529 260 543Q261 564 253 575T224
586Q190 586 190 555Q190 541 198 531T226 504L345 394Q372 369 388 338T405 260Q405 194 363 159T236 119ZM207 -118Q115 -118 74 -82T33 30Q33 44 46 44H154Q166 44 166 31Q165 9 173 -1T202 -12Q235 -12 235 17Q235 32 227 43T201 70L81 179Q54 204 37 235T20
313Q20 379 63 414T190 454L204 364Q185 358 174 345T163 312Q163 288 177 272T213 236L315 143Q342 121 362 94T382 16Q382 -51 338 -84T207 -118Z" />
<glyph unicode="&#xa8;" horiz-adv-x="391" d="M104 558Q70 558 50 575T30 625V643Q30 676 50 692T104 709Q138 709 157 693T177 643V625Q177 593 158 576T104 558ZM288 558Q254 558 234 575T214 625V643Q214 676 234 692T288 709Q324 709 342 693T361 643V625Q361
593 343 576T288 558Z" />
<glyph unicode="&#xa9;" horiz-adv-x="563" d="M282 -8Q192 -8 137 21T58 106T33 237V367Q33 443 57 498T137 582T282 612Q372 612 426 583T505 498T530 367V237Q530 161 506 106T427 22T282 -8ZM282 66Q370 66 410 108T451 235V369Q451 453 411 495T282 538Q194
538 153 496T112 369V235Q112 151 153 109T282 66ZM283 133Q228 133 199 163T170 253V348Q170 409 199 438T283 468Q341 468 367 436T394 342Q394 332 384 332H325Q316 332 316 341Q322 393 283 393Q249 393 249 348V253Q249 208 283 208Q304 208 310 221T316 259Q316
270 325 270H384Q394 270 394 259Q394 199 368 166T283 133Z" />
<glyph unicode="&#xaa;" horiz-adv-x="338" d="M109 303Q78 303 56 327T34 400Q34 458 64 481T148 511L195 518V553Q195 567 190 574T168 582Q142 582 144 553Q145 543 136 543H56Q47 543 47 555Q44 609 77 636T170 663Q220 663 247 649T285 609T297 551V403Q297
380 298 359T300 320Q300 311 292 311H216Q209 311 207 319Q205 325 204 333T200 351Q183 333 162 318T109 303ZM54 157Q42 157 42 171V250Q42 264 54 264H292Q304 264 304 250V171Q304 157 292 157H54ZM156 383Q165 383 175 389T195 404V462L171 458Q134 453 134
417Q134 400 139 392T156 383Z" />
<glyph unicode="&#xab;" horiz-adv-x="483" d="M325 85Q316 85 311 93L225 255Q224 260 224 264T225 273L311 434Q315 444 325 444H443Q450 444 453 440T452 428L370 264L451 101Q455 94 453 90T443 85H325ZM129 85Q120 85 115 93L30 255Q28 260 28 264T30 273L115
434Q119 444 129 444H247Q254 444 256 440T256 428L174 264L255 101Q259 94 257 90T247 85H129Z" />
<glyph unicode="&#xac;" horiz-adv-x="489" d="M318 117Q305 117 305 131V240H78Q64 240 64 254V346Q64 360 78 360H412Q426 360 426 346V131Q426 117 412 117H318Z" />
<glyph unicode="&#xad;" horiz-adv-x="399" d="M52 208Q38 208 38 222V311Q38 324 52 324H348Q361 324 361 311V222Q361 208 348 208H52Z" />
<glyph unicode="&#xae;" horiz-adv-x="450" d="M225 299Q138 299 89 345T39 482V521Q39 611 88 657T225 704Q314 704 362 656T411 521V482Q411 394 363 347T225 299ZM225 360Q283 360 314 387T346 482V520Q346 588 315 615T225 642Q167 642 136 617T104 521V482Q104
412 135 386T225 360ZM167 399Q161 399 161 407V601Q161 608 169 608H220Q256 608 275 593T295 542Q295 521 289 507T267 483L297 408Q300 399 292 399H252Q247 399 244 404L221 472H210V407Q210 399 204 399H167ZM210 512H223Q245 512 245 534V545Q245 567 222
567H210V512Z" />
<glyph unicode="&#xaf;" horiz-adv-x="279" d="M43 570Q30 570 30 583V664Q30 677 43 677H236Q249 677 249 664V583Q249 570 236 570H43Z" />
<glyph unicode="&#xb0;" horiz-adv-x="330" d="M165 374Q95 374 60 410T25 511V554Q25 620 60 655T165 691Q235 691 270 656T305 554V511Q305 446 270 410T165 374ZM165 475Q199 475 199 516V550Q199 571 191 580T165 590Q131 590 131 550V516Q131 475 165 475Z" />
<glyph unicode="&#xb1;" horiz-adv-x="489" d="M198 191Q185 191 185 205V299H80Q66 299 66 313V404Q66 419 80 419H185V513Q185 527 198 527H292Q306 527 306 513V419H409Q423 419 423 404V313Q423 299 409 299H306V205Q306 191 292 191H198ZM81 18Q67 18 67
32V125Q67 139 81 139H408Q422 139 422 125V32Q422 18 408 18H81Z" />
<glyph unicode="&#xb2;" horiz-adv-x="412" d="M69 342Q55 342 55 356V428Q55 468 73 495T117 541T169 575T214 606T232 645V652Q232 663 226 668T207 673Q193 673 187 667T181 644Q181 629 166 629H82Q68 629 68 644Q64 710 104 742T209 775Q279 775 318 747T357
654Q357 621 346 597T316 554T278 522T240 496T211 473T199 448H338Q353 448 353 434V356Q353 342 338 342H69Z" />
<glyph unicode="&#xb3;" horiz-adv-x="412" d="M201 335Q139 336 106 353T63 401T55 472Q57 486 69 486H154Q169 486 169 472Q169 454 177 448T203 441Q218 441 226 449T234 475V482Q234 498 226 505T200 512H178Q164 512 164 527V589Q164 603 178 603H195Q214
603 220 611T227 636V643Q227 657 220 663T196 670Q178 670 172 663T167 644Q167 629 154 629H71Q58 629 57 644Q52 705 87 740T202 775Q279 775 315 746T352 661Q352 623 339 601T303 563V562Q329 552 344 528T359 469Q359 403 319 369T201 335Z" />
<glyph unicode="&#xb4;" horiz-adv-x="262" d="M40 557Q25 557 32 572L100 700Q106 710 117 710H222Q229 710 231 706T229 695L139 567Q133 557 121 557H40Z" />
<glyph unicode="&#xb5;" horiz-adv-x="460" d="M49 -185Q36 -185 36 -172V485Q36 498 49 498H174Q187 498 187 485V171Q187 145 195 134T220 122Q234 122 247 129T271 147V485Q271 498 284 498H409Q422 498 422 485V142Q422 126 425 121T438 115Q443 115 446 115T454
117Q463 119 463 108V15Q463 3 450 -1Q433 -4 415 -6T380 -8Q345 -8 322 5T289 47V48Q275 25 258 12T219 -1Q209 -1 201 1T186 8V-172Q186 -185 173 -185H49Z" />
<glyph unicode="&#xb6;" horiz-adv-x="507" d="M152 -185Q138 -185 138 -171V295H123Q68 295 40 330T11 432V546Q11 613 39 648T123 683H461Q473 683 473 670V-171Q473 -185 459 -185H355Q341 -185 341 -171V551H270V-171Q270 -185 256 -185H152Z" />
<glyph unicode="&#xb7;" horiz-adv-x="281" d="M142 171Q98 171 72 193T45 254V279Q45 320 71 341T142 363Q240 363 240 279V254Q240 215 215 193T142 171Z" />
<glyph unicode="&#xb8;" horiz-adv-x="235" d="M98 -193Q81 -193 66 -192T40 -188Q34 -186 32 -185T30 -178V-121Q30 -111 39 -112Q44 -113 50 -113T64 -114Q80 -114 87 -108T95 -93V-86Q95 -74 88 -71T66 -67H53Q46 -67 46 -61Q46 -56 46 -49T47 -38L73 44Q77
53 86 53H154Q168 53 163 40L139 -27H147Q175 -27 190 -44T205 -88V-107Q205 -146 180 -169T98 -193Z" />
<glyph unicode="&#xb9;" horiz-adv-x="412" d="M74 342Q60 342 60 356V434Q60 448 74 448H146V643L75 620Q63 616 63 629V708Q63 721 72 724L216 768Q220 770 224 770T234 771H257Q270 771 270 758V448H339Q353 448 353 434V356Q353 342 339 342H74Z" />
<glyph unicode="&#xba;" horiz-adv-x="329" d="M163 303Q101 303 68 338T34 440V526Q34 591 67 627T163 663Q226 663 260 627T295 526V440Q295 374 261 339T163 303ZM54 157Q41 157 41 171V250Q41 264 54 264H274Q286 264 286 250V171Q286 157 274 157H54ZM163
400Q178 400 185 409T193 436V529Q193 548 186 557T163 566Q150 566 143 557T135 529V436Q135 418 142 409T163 400Z" />
<glyph unicode="&#xbb;" horiz-adv-x="483" d="M236 85Q229 85 227 89T228 101L309 264L227 428Q224 435 227 439T237 444H354Q364 444 368 434L453 273Q458 264 453 255L368 93Q362 85 354 85H236ZM40 85Q33 85 31 89T32 101L113 264L31 428Q28 435 30 439T40
444H158Q167 444 172 434L257 273Q262 264 257 255L172 93Q166 85 158 85H40Z" />
<glyph unicode="&#xbc;" horiz-adv-x="1011" d="M74 230Q60 230 60 244V322Q60 336 74 336H146V531L75 508Q63 504 63 517V596Q63 609 72 612L216 656Q220 658 224 658T234 659H257Q270 659 270 646V336H339Q353 336 353 322V244Q353 230 339 230H74ZM322 -37Q318
-37 316 -34T315 -25L469 343L610 685Q613 692 620 692H738Q743 692 745 689T744 680L589 319L449 -30Q448 -37 439 -37H322ZM850 0Q836 0 836 14V64H640Q626 64 626 77V87Q626 93 627 98T630 108L765 413Q770 425 781 425H872Q880 425 882 421T882 408L782 163H838L851
277Q851 291 864 291H941Q955 291 955 277V165H971Q985 165 985 151V77Q985 64 971 64H955V14Q955 0 941 0H850Z" />
<glyph unicode="&#xbd;" horiz-adv-x="1039" d="M74 230Q60 230 60 244V322Q60 336 74 336H146V531L75 508Q63 504 63 517V596Q63 609 72 612L216 656Q220 658 224 658T234 659H257Q270 659 270 646V336H339Q353 336 353 322V244Q353 230 339 230H74ZM322 -37Q318
-37 316 -34T315 -25L469 343L610 685Q613 692 620 692H738Q743 692 745 689T744 680L589 319L449 -30Q448 -37 439 -37H322ZM695 0Q681 0 681 14V86Q681 126 699 153T743 199T795 233T840 264T858 303V310Q858 321 852 326T833 331Q819 331 813 325T807 302Q807
287 792 287H708Q694 287 694 302Q690 368 730 400T835 433Q905 433 944 405T983 312Q983 279 972 255T942 212T904 180T866 154T837 131T825 106H964Q979 106 979 92V14Q979 0 964 0H695Z" />
<glyph unicode="&#xbe;" horiz-adv-x="997" d="M201 223Q139 224 106 241T63 289T55 360Q57 374 69 374H154Q169 374 169 360Q169 342 177 336T203 329Q218 329 226 337T234 363V370Q234 386 226 393T200 400H178Q164 400 164 415V477Q164 491 178 491H195Q214
491 220 499T227 524V531Q227 545 220 551T196 558Q178 558 172 551T167 532Q167 517 154 517H71Q58 517 57 532Q52 593 87 628T202 663Q279 663 315 634T352 549Q352 511 339 489T303 451V450Q329 440 344 416T359 357Q359 291 319 257T201 223ZM307 -37Q303 -37
301 -34T300 -25L454 343L595 685Q598 692 605 692H723Q728 692 730 689T729 680L574 319L434 -30Q433 -37 424 -37H307ZM836 0Q822 0 822 14V64H626Q612 64 612 77V87Q612 93 613 98T616 108L751 413Q756 425 767 425H858Q866 425 868 421T868 408L768 163H824L837
277Q837 291 850 291H927Q941 291 941 277V165H957Q971 165 971 151V77Q971 64 957 64H941V14Q941 0 927 0H836Z" />
<glyph unicode="&#xbf;" horiz-adv-x="435" d="M310 266Q320 266 320 253V214Q320 180 307 155T275 111T236 75T203 39T190 -5Q190 -25 199 -35T231 -45Q260 -45 268 -26T275 27Q275 42 287 42H400Q408 42 410 38T414 25Q421 -70 375 -119T228 -168Q130 -168 84
-130T37 -21Q37 25 50 57T82 111T120 152T153 189T166 231V253Q166 266 177 266H310ZM239 503Q281 503 304 485T328 426V402Q328 362 305 343T239 323Q196 323 173 342T149 402V426Q149 466 172 484T239 503Z" />
<glyph unicode="&#xc0;" horiz-adv-x="528" d="M10 0Q-4 0 1 15L166 645Q169 655 180 655H348Q359 655 363 645L528 15Q531 0 518 0H373Q362 0 359 10L288 378Q281 413 276 447T265 515H262Q257 482 251 447T239 377L166 11Q165 0 152 0H10ZM165 121L187 244H336L360
121H165ZM253 707Q242 707 235 717L156 830Q152 836 154 840T162 845H268Q278 845 283 836L343 721Q351 707 335 707H253Z" />
<glyph unicode="&#xc1;" horiz-adv-x="528" d="M10 0Q-4 0 1 15L166 645Q169 655 180 655H348Q359 655 363 645L528 15Q531 0 518 0H373Q362 0 359 10L288 378Q281 413 276 447T265 515H262Q257 482 251 447T239 377L166 11Q165 0 152 0H10ZM165 121L187 244H336L360
121H165ZM184 707Q178 707 176 711T176 721L236 836Q242 845 252 845H357Q364 845 366 841T363 830L284 717Q278 707 267 707H184Z" />
<glyph unicode="&#xc2;" horiz-adv-x="528" d="M10 0Q-4 0 1 15L166 645Q169 655 180 655H348Q359 655 363 645L528 15Q531 0 518 0H373Q362 0 359 10L288 378Q281 413 276 447T265 515H262Q257 482 251 447T239 377L166 11Q165 0 152 0H10ZM165 121L187 244H336L360
121H165ZM151 709Q138 705 138 716V791Q138 801 145 806L256 858Q264 863 273 858L383 806Q391 801 391 791V716Q391 705 377 709L264 753L151 709Z" />
<glyph unicode="&#xc3;" horiz-adv-x="528" d="M10 0Q-4 0 1 15L166 645Q169 655 180 655H348Q359 655 363 645L528 15Q531 0 518 0H373Q362 0 359 10L288 378Q281 413 276 447T265 515H262Q257 482 251 447T239 377L166 11Q165 0 152 0H10ZM165 121L187 244H336L360
121H165ZM310 715Q290 715 275 721T245 733T213 740Q197 740 183 736T155 724Q148 720 144 723T140 733V801Q140 812 147 817Q159 827 178 834T218 842Q241 842 256 836T286 824T317 817Q333 817 347 822T375 834Q389 841 389 826V758Q389 747 382 741Q370 730
352 723T310 715Z" />
<glyph unicode="&#xc4;" horiz-adv-x="528" d="M10 0Q-4 0 1 15L166 645Q169 655 180 655H348Q359 655 363 645L528 15Q531 0 518 0H373Q362 0 359 10L288 378Q281 413 276 447T265 515H262Q257 482 251 447T239 377L166 11Q165 0 152 0H10ZM165 121L187 244H336L360
121H165ZM173 709Q139 709 119 726T99 775V793Q99 826 119 843T173 861Q207 861 226 844T246 793V775Q246 744 227 727T173 709ZM357 709Q323 709 303 726T283 775V793Q283 826 303 843T357 861Q392 861 411 844T430 793V775Q430 744 411 727T357 709Z" />
<glyph unicode="&#xc5;" horiz-adv-x="528" d="M528 15Q531 0 518 0H373Q362 0 359 10L338 121H188L166 11Q165 0 152 0H10Q-4 0 1 15L162 623Q154 634 150 648T146 680Q146 732 179 760T264 789Q318 789 350 761T383 680Q383 663 379 648T367 622L528 15ZM234
679Q234 658 242 648T264 637Q279 637 286 647T294 679Q294 700 287 710T264 721Q250 721 242 711T234 679ZM212 244H315L288 378Q281 413 276 449T265 520H262Q257 485 251 449T239 377L212 244Z" />
<glyph unicode="&#xc6;" horiz-adv-x="719" d="M10 0Q-4 0 1 15L192 645Q195 655 206 655H671Q683 655 683 642V531Q683 518 671 518H461V395H651Q664 395 664 382V279Q664 265 651 265H461V137H671Q683 137 683 124V13Q683 0 671 0H319Q306 0 306 13V121H198L169
10Q166 0 155 0H10ZM228 244H306V421Q306 453 306 481T307 541H305Q298 510 291 480T275 418L228 244Z" />
<glyph unicode="&#xc7;" horiz-adv-x="544" d="M273 -8Q158 -8 96 51T34 239V415Q34 539 96 601T273 663Q354 663 410 633T491 550T508 423Q507 409 496 409H365Q352 409 353 423Q356 472 338 498T274 525Q231 525 211 499T190 411V246Q190 182 211 156T274 130Q321
130 338 158T354 232Q353 246 365 246H497Q508 246 509 233Q520 123 459 58T273 -8ZM274 -195Q257 -195 242 -194T216 -190Q210 -188 208 -187T206 -180V-123Q206 -113 215 -114Q220 -115 226 -115T240 -116Q256 -116 263 -110T271 -95V-88Q271 -76 264 -73T242
-69H229Q222 -69 222 -63Q222 -58 222 -51T223 -40L249 42Q253 51 262 51H330Q344 51 339 38L315 -29H323Q351 -29 366 -46T381 -90V-109Q381 -148 356 -171T274 -195Z" />
<glyph unicode="&#xc8;" horiz-adv-x="457" d="M56 0Q44 0 44 13V642Q44 655 56 655H409Q421 655 421 642V531Q421 518 409 518H200V395H390Q402 395 402 382V279Q402 265 390 265H200V137H409Q421 137 421 124V13Q421 0 409 0H56ZM219 707Q208 707 201 717L122
830Q118 836 120 840T128 845H234Q244 845 249 836L309 721Q317 707 301 707H219Z" />
<glyph unicode="&#xc9;" horiz-adv-x="457" d="M56 0Q44 0 44 13V642Q44 655 56 655H409Q421 655 421 642V531Q421 518 409 518H200V395H390Q402 395 402 382V279Q402 265 390 265H200V137H409Q421 137 421 124V13Q421 0 409 0H56ZM150 707Q144 707 142 711T142
721L202 836Q208 845 218 845H323Q330 845 332 841T329 830L250 717Q244 707 233 707H150Z" />
<glyph unicode="&#xca;" horiz-adv-x="457" d="M56 0Q44 0 44 13V642Q44 655 56 655H409Q421 655 421 642V531Q421 518 409 518H200V395H390Q402 395 402 382V279Q402 265 390 265H200V137H409Q421 137 421 124V13Q421 0 409 0H56ZM117 709Q104 705 104 716V791Q104
801 111 806L222 858Q230 863 239 858L349 806Q357 801 357 791V716Q357 705 343 709L230 753L117 709Z" />
<glyph unicode="&#xcb;" horiz-adv-x="457" d="M56 0Q44 0 44 13V642Q44 655 56 655H409Q421 655 421 642V531Q421 518 409 518H200V395H390Q402 395 402 382V279Q402 265 390 265H200V137H409Q421 137 421 124V13Q421 0 409 0H56ZM139 709Q105 709 85 726T65
775V793Q65 826 85 843T139 861Q173 861 192 844T212 793V775Q212 744 193 727T139 709ZM323 709Q289 709 269 726T249 775V793Q249 826 269 843T323 861Q358 861 377 844T396 793V775Q396 744 377 727T323 709Z" />
<glyph unicode="&#xcc;" horiz-adv-x="243" d="M56 0Q44 0 44 13V642Q44 655 56 655H187Q200 655 200 642V13Q200 0 187 0H56ZM368 707Q357 707 350 717L271 830Q267 836 269 840T277 845H383Q393 845 398 836L458 721Q466 707 450 707H368Z" />
<glyph unicode="&#xcd;" horiz-adv-x="243" d="M56 0Q44 0 44 13V642Q44 655 56 655H187Q200 655 200 642V13Q200 0 187 0H56ZM43 707Q37 707 35 711T35 721L95 836Q101 845 111 845H216Q223 845 225 841T222 830L143 717Q137 707 126 707H43Z" />
<glyph unicode="&#xce;" horiz-adv-x="243" d="M56 0Q44 0 44 13V642Q44 655 56 655H187Q200 655 200 642V13Q200 0 187 0H56ZM266 709Q253 705 253 716V791Q253 801 260 806L371 858Q379 863 388 858L498 806Q506 801 506 791V716Q506 705 492 709L379 753L266 709Z" />
<glyph unicode="&#xcf;" horiz-adv-x="243" d="M56 0Q44 0 44 13V642Q44 655 56 655H187Q200 655 200 642V13Q200 0 187 0H56ZM288 709Q254 709 234 726T214 775V793Q214 826 234 843T288 861Q322 861 341 844T361 793V775Q361 744 342 727T288 709ZM472 709Q438
709 418 726T398 775V793Q398 826 418 843T472 861Q507 861 526 844T545 793V775Q545 744 526 727T472 709Z" />
<glyph unicode="&#xd0;" horiz-adv-x="551" d="M14 272Q1 272 1 285V372Q1 386 14 386H49H264Q276 386 276 372V285Q276 272 264 272H14ZM63 0Q49 0 49 13V642Q49 655 63 655H255Q387 655 454 584T521 370V296Q521 147 455 74T258 0H63ZM205 137H252Q310 137 337
177T365 298V368Q365 442 338 480T249 518H205V137Z" />
<glyph unicode="&#xd1;" horiz-adv-x="560" d="M56 0Q44 0 44 13V642Q44 655 56 655H218Q228 655 232 646L325 382Q335 357 344 326T363 266T378 214H380Q378 240 376 279T371 357T369 422V642Q369 655 381 655H504Q517 655 517 642V13Q517 0 504 0H343Q333 0
329 9L236 268Q221 308 208 353T185 435H182Q185 407 187 368T190 290T192 222V13Q192 0 178 0H56ZM326 715Q306 715 291 721T261 733T229 740Q213 740 199 736T171 724Q164 720 160 723T156 733V801Q156 812 163 817Q175 827 194 834T234 842Q257 842 272 836T302
824T333 817Q349 817 363 822T391 834Q405 841 405 826V758Q405 747 398 741Q386 730 368 723T326 715Z" />
<glyph unicode="&#xd2;" horiz-adv-x="549" d="M274 -8Q156 -8 95 54T34 236V418Q34 539 95 601T274 663Q392 663 453 601T515 418V236Q515 116 454 54T274 -8ZM274 130Q318 130 338 157T359 243V411Q359 471 339 498T274 525Q231 525 211 498T190 411V243Q190
184 210 157T274 130ZM263 707Q252 707 245 717L166 830Q162 836 164 840T172 845H278Q288 845 293 836L353 721Q361 707 345 707H263Z" />
<glyph unicode="&#xd3;" horiz-adv-x="549" d="M274 -8Q156 -8 95 54T34 236V418Q34 539 95 601T274 663Q392 663 453 601T515 418V236Q515 116 454 54T274 -8ZM274 130Q318 130 338 157T359 243V411Q359 471 339 498T274 525Q231 525 211 498T190 411V243Q190
184 210 157T274 130ZM194 707Q188 707 186 711T186 721L246 836Q252 845 262 845H367Q374 845 376 841T373 830L294 717Q288 707 277 707H194Z" />
<glyph unicode="&#xd4;" horiz-adv-x="549" d="M274 -8Q156 -8 95 54T34 236V418Q34 539 95 601T274 663Q392 663 453 601T515 418V236Q515 116 454 54T274 -8ZM274 130Q318 130 338 157T359 243V411Q359 471 339 498T274 525Q231 525 211 498T190 411V243Q190
184 210 157T274 130ZM161 709Q148 705 148 716V791Q148 801 155 806L266 858Q274 863 283 858L393 806Q401 801 401 791V716Q401 705 387 709L274 753L161 709Z" />
<glyph unicode="&#xd5;" horiz-adv-x="549" d="M274 -8Q156 -8 95 54T34 236V418Q34 539 95 601T274 663Q392 663 453 601T515 418V236Q515 116 454 54T274 -8ZM274 130Q318 130 338 157T359 243V411Q359 471 339 498T274 525Q231 525 211 498T190 411V243Q190
184 210 157T274 130ZM320 715Q300 715 285 721T255 733T223 740Q207 740 193 736T165 724Q158 720 154 723T150 733V801Q150 812 157 817Q169 827 188 834T228 842Q251 842 266 836T296 824T327 817Q343 817 357 822T385 834Q399 841 399 826V758Q399 747 392
741Q380 730 362 723T320 715Z" />
<glyph unicode="&#xd6;" horiz-adv-x="549" d="M274 -8Q156 -8 95 54T34 236V418Q34 539 95 601T274 663Q392 663 453 601T515 418V236Q515 116 454 54T274 -8ZM274 130Q318 130 338 157T359 243V411Q359 471 339 498T274 525Q231 525 211 498T190 411V243Q190
184 210 157T274 130ZM182 709Q148 709 128 726T108 775V793Q108 826 128 843T182 861Q216 861 235 844T255 793V775Q255 744 236 727T182 709ZM366 709Q332 709 312 726T292 775V793Q292 826 312 843T366 861Q401 861 420 844T439 793V775Q439 744 420 727T366
709Z" />
<glyph unicode="&#xd7;" horiz-adv-x="489" d="M151 142L86 207Q76 217 86 227L161 301L86 374Q76 384 86 395L151 459Q162 470 172 459L245 385L318 460Q329 469 339 460L404 394Q414 384 404 374L329 301L404 228Q414 218 404 207L339 142Q329 133 318 142L245
217L172 142Q162 133 151 142Z" />
<glyph unicode="&#xd8;" horiz-adv-x="549" d="M64 -50Q57 -50 54 -46T54 -33L108 88L170 197L324 544L346 627L375 696Q380 705 390 705H487Q500 705 496 689L444 570L385 470L230 115L206 31L174 -42Q173 -47 170 -48T161 -50H64ZM274 -8Q156 -8 95 54T34 236V418Q34
539 95 601T274 663Q392 663 453 601T515 418V236Q515 116 454 54T274 -8ZM274 130Q318 130 338 157T359 243V411Q359 471 339 498T274 525Q231 525 211 498T190 411V243Q190 184 210 157T274 130Z" />
<glyph unicode="&#xd9;" horiz-adv-x="548" d="M274 -8Q158 -8 99 52T40 236V642Q40 655 53 655H185Q196 655 196 642V242Q196 182 215 156T274 130Q316 130 334 155T352 242V642Q352 655 364 655H496Q508 655 508 642V236Q508 113 449 53T274 -8ZM263 707Q252
707 245 717L166 830Q162 836 164 840T172 845H278Q288 845 293 836L353 721Q361 707 345 707H263Z" />
<glyph unicode="&#xda;" horiz-adv-x="548" d="M274 -8Q158 -8 99 52T40 236V642Q40 655 53 655H185Q196 655 196 642V242Q196 182 215 156T274 130Q316 130 334 155T352 242V642Q352 655 364 655H496Q508 655 508 642V236Q508 113 449 53T274 -8ZM194 707Q188
707 186 711T186 721L246 836Q252 845 262 845H367Q374 845 376 841T373 830L294 717Q288 707 277 707H194Z" />
<glyph unicode="&#xdb;" horiz-adv-x="548" d="M274 -8Q158 -8 99 52T40 236V642Q40 655 53 655H185Q196 655 196 642V242Q196 182 215 156T274 130Q316 130 334 155T352 242V642Q352 655 364 655H496Q508 655 508 642V236Q508 113 449 53T274 -8ZM161 709Q148
705 148 716V791Q148 801 155 806L266 858Q274 863 283 858L393 806Q401 801 401 791V716Q401 705 387 709L274 753L161 709Z" />
<glyph unicode="&#xdc;" horiz-adv-x="548" d="M274 -8Q158 -8 99 52T40 236V642Q40 655 53 655H185Q196 655 196 642V242Q196 182 215 156T274 130Q316 130 334 155T352 242V642Q352 655 364 655H496Q508 655 508 642V236Q508 113 449 53T274 -8ZM183 709Q149
709 129 726T109 775V793Q109 826 129 843T183 861Q217 861 236 844T256 793V775Q256 744 237 727T183 709ZM367 709Q333 709 313 726T293 775V793Q293 826 313 843T367 861Q402 861 421 844T440 793V775Q440 744 421 727T367 709Z" />
<glyph unicode="&#xdd;" horiz-adv-x="508" d="M188 0Q176 0 176 13V226L3 638Q1 646 3 650T13 655H159Q171 655 172 646L220 489Q229 458 238 427T254 366H256Q263 397 271 427T290 488L337 646Q340 655 350 655H495Q502 655 504 651T504 638L332 227V13Q332
0 320 0H188ZM174 707Q168 707 166 711T166 721L226 836Q232 845 242 845H347Q354 845 356 841T353 830L274 717Q268 707 257 707H174Z" />
<glyph unicode="&#xde;" horiz-adv-x="484" d="M56 0Q44 0 44 13V642Q44 655 56 655H187Q200 655 200 642V561H232Q350 561 405 505T460 338Q460 230 403 174T234 117H200V13Q200 0 187 0H56ZM200 253H231Q268 253 286 273T304 337Q304 384 287 404T232 424H200V253Z" />
<glyph unicode="&#xdf;" horiz-adv-x="503" d="M336 -8Q261 -8 231 25T206 127Q208 141 218 141H300Q308 141 308 129Q308 113 312 106T327 98Q340 98 345 107T350 133Q350 163 338 185T308 226T272 264T241 307T229 361Q229 383 235 402T250 438T264 475T271
517Q271 543 261 554T231 566Q208 566 198 549T187 495V13Q187 0 175 0H49Q36 0 36 13V497Q36 596 84 643T232 691Q321 691 370 651T419 538Q419 507 413 486T399 448T384 417T378 387Q378 367 389 350T417 314T450 271T478 216T490 141Q490 -8 336 -8Z" />
<glyph unicode="&#xe0;" horiz-adv-x="435" d="M286 0Q275 0 272 12Q270 25 268 48T263 93L249 122V349Q249 376 241 385T212 395Q171 395 176 346Q178 333 163 333H52Q41 333 39 348Q33 426 79 466T218 507Q313 507 356 468T400 344V130Q400 89 401 63T404 14Q406
0 392 0H286ZM129 -8Q78 -8 49 28T20 129Q20 202 57 240T187 288L260 297L259 217L218 213Q188 208 176 194T163 151Q163 127 170 115T194 103Q211 103 228 116T267 158L279 80Q242 37 208 15T129 -8ZM215 557Q204 557 197 567L108 695Q104 701 105 705T114 710H220Q231
710 236 700L305 572Q312 557 297 557H215Z" />
<glyph unicode="&#xe1;" horiz-adv-x="435" d="M286 0Q275 0 272 12Q270 25 268 48T263 93L249 122V349Q249 376 241 385T212 395Q171 395 176 346Q178 333 163 333H52Q41 333 39 348Q33 426 79 466T218 507Q313 507 356 468T400 344V130Q400 89 401 63T404 14Q406
0 392 0H286ZM129 -8Q78 -8 49 28T20 129Q20 202 57 240T187 288L260 297L259 217L218 213Q188 208 176 194T163 151Q163 127 170 115T194 103Q211 103 228 116T267 158L279 80Q242 37 208 15T129 -8ZM142 557Q127 557 134 572L202 700Q208 710 219 710H324Q331
710 333 706T331 695L241 567Q235 557 223 557H142Z" />
<glyph unicode="&#xe2;" horiz-adv-x="435" d="M286 0Q275 0 272 12Q270 25 268 48T263 93L249 122V349Q249 376 241 385T212 395Q171 395 176 346Q178 333 163 333H52Q41 333 39 348Q33 426 79 466T218 507Q313 507 356 468T400 344V130Q400 89 401 63T404 14Q406
0 392 0H286ZM129 -8Q78 -8 49 28T20 129Q20 202 57 240T187 288L260 297L259 217L218 213Q188 208 176 194T163 151Q163 127 170 115T194 103Q211 103 228 116T267 158L279 80Q242 37 208 15T129 -8ZM117 548Q103 540 103 554V631Q103 641 110 645L212 704Q219
709 228 704L329 645Q336 641 336 631V554Q336 540 322 548L219 596L117 548Z" />
<glyph unicode="&#xe3;" horiz-adv-x="435" d="M286 0Q275 0 272 12Q270 25 268 48T263 93L249 122V349Q249 376 241 385T212 395Q171 395 176 346Q178 333 163 333H52Q41 333 39 348Q33 426 79 466T218 507Q313 507 356 468T400 344V130Q400 89 401 63T404 14Q406
0 392 0H286ZM129 -8Q78 -8 49 28T20 129Q20 202 57 240T187 288L260 297L259 217L218 213Q188 208 176 194T163 151Q163 127 170 115T194 103Q211 103 228 116T267 158L279 80Q242 37 208 15T129 -8ZM262 564Q242 564 228 570T200 582T171 589Q156 589 143 584T117
573Q102 565 102 581V649Q102 661 109 666Q121 676 138 683T175 691Q198 691 212 685T239 673T266 666Q282 666 295 671T320 682Q335 691 335 674V606Q335 601 334 597T328 589Q315 579 299 572T262 564Z" />
<glyph unicode="&#xe4;" horiz-adv-x="435" d="M286 0Q275 0 272 12Q270 25 268 48T263 93L249 122V349Q249 376 241 385T212 395Q171 395 176 346Q178 333 163 333H52Q41 333 39 348Q33 426 79 466T218 507Q313 507 356 468T400 344V130Q400 89 401 63T404 14Q406
0 392 0H286ZM129 -8Q78 -8 49 28T20 129Q20 202 57 240T187 288L260 297L259 217L218 213Q188 208 176 194T163 151Q163 127 170 115T194 103Q211 103 228 116T267 158L279 80Q242 37 208 15T129 -8ZM128 558Q94 558 74 575T54 625V643Q54 676 74 692T128 709Q162
709 181 693T201 643V625Q201 593 182 576T128 558ZM312 558Q278 558 258 575T238 625V643Q238 676 258 692T312 709Q348 709 366 693T385 643V625Q385 593 367 576T312 558Z" />
<glyph unicode="&#xe5;" horiz-adv-x="435" d="M286 0Q275 0 272 12Q270 25 268 48T263 93L249 122V349Q249 376 241 385T212 395Q171 395 176 346Q178 333 163 333H52Q41 333 39 348Q33 426 79 466T218 507Q313 507 356 468T400 344V130Q400 89 401 63T404 14Q406
0 392 0H286ZM129 -8Q78 -8 49 28T20 129Q20 202 57 240T187 288L260 297L259 217L218 213Q188 208 176 194T163 151Q163 127 170 115T194 103Q211 103 228 116T267 158L279 80Q242 37 208 15T129 -8ZM219 553Q166 553 135 581T103 663Q103 716 134 744T219 772Q272
772 303 744T335 663Q335 610 304 582T219 553ZM219 628Q232 628 238 637T244 664Q244 681 238 690T219 699Q207 699 201 690T194 664Q194 646 200 637T219 628Z" />
<glyph unicode="&#xe6;" horiz-adv-x="671" d="M128 -8Q77 -8 49 28T20 129Q20 205 58 242T187 289L251 297V349Q251 375 243 385T212 395Q192 395 183 383T176 346Q178 333 163 333H52Q41 333 39 348Q33 424 77 465T211 507Q256 507 286 495T336 458Q358 482
390 494T461 507Q546 507 593 456T641 311V229Q641 215 628 215H399V166Q399 134 409 120T444 106Q489 106 489 147Q489 160 500 160H620Q633 160 633 146Q633 67 587 30T445 -8Q316 -8 274 70Q238 29 204 11T128 -8ZM195 103Q209 103 222 112T252 139Q251 150
251 159T251 178V216L218 212Q188 208 176 195T163 151Q163 127 170 115T195 103ZM399 301H494V332Q494 364 483 378T447 393Q422 393 411 378T399 332V301Z" />
<glyph unicode="&#xe7;" horiz-adv-x="445" d="M229 -8Q132 -8 81 41T29 186V316Q29 409 81 458T228 507Q291 507 335 483T400 415T415 318Q413 301 401 301H290Q277 301 277 315Q279 349 268 363T231 377Q205 377 193 362T180 310V192Q180 153 192 138T230 122Q256
122 266 136T277 183Q277 198 289 198H402Q415 198 415 184Q418 90 372 41T229 -8ZM217 61Q200 61 185 62T159 66Q153 68 151 69T149 76V133Q149 143 158 142Q163 141 169 141T183 140Q199 140 206 146T214 161V168Q214 180 207 183T185 187H172Q165 187 165 193Q165
198 165 205T166 216L192 298Q196 307 205 307H273Q287 307 282 294L258 227H266Q294 227 309 210T324 166V147Q324 108 299 85T217 61Z" />
<glyph unicode="&#xe8;" horiz-adv-x="455" d="M228 -8Q127 -8 78 37T29 176V314Q29 408 79 457T226 507Q327 507 376 459T425 311V227Q425 213 412 213H178V166Q178 135 189 121T227 106Q250 106 261 116T272 149Q272 160 285 160H404Q415 160 417 147Q417 69
371 31T228 -8ZM178 299H277V332Q277 363 266 377T229 392Q202 392 190 378T178 332V299ZM222 559Q211 559 204 569L115 697Q111 703 112 707T121 712H227Q238 712 243 702L312 574Q319 559 304 559H222Z" />
<glyph unicode="&#xe9;" horiz-adv-x="455" d="M228 -8Q127 -8 78 37T29 176V314Q29 408 79 457T226 507Q327 507 376 459T425 311V227Q425 213 412 213H178V166Q178 135 189 121T227 106Q250 106 261 116T272 149Q272 160 285 160H404Q415 160 417 147Q417 69
371 31T228 -8ZM178 299H277V332Q277 363 266 377T229 392Q202 392 190 378T178 332V299ZM150 559Q135 559 142 574L210 702Q216 712 227 712H332Q339 712 341 708T339 697L249 569Q243 559 231 559H150Z" />
<glyph unicode="&#xea;" horiz-adv-x="455" d="M228 -8Q127 -8 78 37T29 176V314Q29 408 79 457T226 507Q327 507 376 459T425 311V227Q425 213 412 213H178V166Q178 135 189 121T227 106Q250 106 261 116T272 149Q272 160 285 160H404Q415 160 417 147Q417 69
371 31T228 -8ZM178 299H277V332Q277 363 266 377T229 392Q202 392 190 378T178 332V299ZM124 550Q110 542 110 556V633Q110 643 117 647L219 706Q226 711 235 706L336 647Q343 643 343 633V556Q343 542 329 550L226 598L124 550Z" />
<glyph unicode="&#xeb;" horiz-adv-x="455" d="M228 -8Q127 -8 78 37T29 176V314Q29 408 79 457T226 507Q327 507 376 459T425 311V227Q425 213 412 213H178V166Q178 135 189 121T227 106Q250 106 261 116T272 149Q272 160 285 160H404Q415 160 417 147Q417 69
371 31T228 -8ZM178 299H277V332Q277 363 266 377T229 392Q202 392 190 378T178 332V299ZM135 560Q101 560 81 577T61 627V645Q61 678 81 694T135 711Q169 711 188 695T208 645V627Q208 595 189 578T135 560ZM319 560Q285 560 265 577T245 627V645Q245 678 265
694T319 711Q355 711 373 695T392 645V627Q392 595 374 578T319 560Z" />
<glyph unicode="&#xec;" horiz-adv-x="222" d="M49 0Q36 0 36 13V485Q36 498 49 498H174Q187 498 187 485V13Q187 0 174 0H49ZM363 557Q352 557 345 567L256 695Q252 701 253 705T262 710H368Q379 710 384 700L453 572Q460 557 445 557H363Z" />
<glyph unicode="&#xed;" horiz-adv-x="222" d="M49 0Q36 0 36 13V485Q36 498 49 498H174Q187 498 187 485V13Q187 0 174 0H49ZM290 557Q275 557 282 572L350 700Q356 710 367 710H472Q479 710 481 706T479 695L389 567Q383 557 371 557H290Z" />
<glyph unicode="&#xee;" horiz-adv-x="222" d="M49 0Q36 0 36 13V485Q36 498 49 498H174Q187 498 187 485V13Q187 0 174 0H49ZM265 548Q251 540 251 554V631Q251 641 258 645L360 704Q367 709 376 704L477 645Q484 641 484 631V554Q484 540 470 548L367 596L265 548Z" />
<glyph unicode="&#xef;" horiz-adv-x="222" d="M49 0Q36 0 36 13V485Q36 498 49 498H174Q187 498 187 485V13Q187 0 174 0H49ZM276 558Q242 558 222 575T202 625V643Q202 676 222 692T276 709Q310 709 329 693T349 643V625Q349 593 330 576T276 558ZM460 558Q426
558 406 575T386 625V643Q386 676 406 692T460 709Q496 709 514 693T533 643V625Q533 593 515 576T460 558Z" />
<glyph unicode="&#xf0;" horiz-adv-x="452" d="M223 -8Q129 -8 79 41T29 181V283Q29 373 64 417T167 461Q199 461 230 449T286 415V304Q271 320 255 328T221 337Q200 337 190 322T180 274V179Q180 149 190 135T225 121Q250 121 261 137T273 189V335Q278 407 270
457T230 540T130 591Q123 594 122 598T124 610L177 683Q182 690 186 691T198 690Q315 661 369 578T423 370V183Q423 92 370 42T223 -8ZM169 493Q164 489 158 496L136 531Q132 537 140 542L353 686Q360 690 364 682L385 646Q388 641 382 636L169 493Z" />
<glyph unicode="&#xf1;" horiz-adv-x="463" d="M290 0Q277 0 277 13V333Q277 356 269 366T242 376Q226 376 210 366T178 340L159 415Q187 452 226 479T316 507Q373 507 400 473T428 362V13Q428 0 415 0H290ZM49 0Q36 0 36 13V368Q36 401 35 430T32 483Q31 498
44 498H152Q162 498 164 486Q166 472 168 448T172 404L187 361V13Q187 0 174 0H49ZM277 564Q257 564 243 570T215 582T186 589Q171 589 158 584T132 573Q117 565 117 581V649Q117 661 124 666Q136 676 153 683T190 691Q213 691 227 685T254 673T281 666Q297 666
310 671T335 682Q350 691 350 674V606Q350 601 349 597T343 589Q330 579 314 572T277 564Z" />
<glyph unicode="&#xf2;" horiz-adv-x="458" d="M229 -8Q135 -8 82 40T29 182V317Q29 409 82 458T229 507Q323 507 376 458T429 317V182Q429 89 377 41T229 -8ZM229 121Q255 121 266 136T278 187V311Q278 347 267 362T229 377Q204 377 192 362T180 311V187Q180
152 192 137T229 121ZM225 557Q214 557 207 567L118 695Q114 701 115 705T124 710H230Q241 710 246 700L315 572Q322 557 307 557H225Z" />
<glyph unicode="&#xf3;" horiz-adv-x="458" d="M229 -8Q135 -8 82 40T29 182V317Q29 409 82 458T229 507Q323 507 376 458T429 317V182Q429 89 377 41T229 -8ZM229 121Q255 121 266 136T278 187V311Q278 347 267 362T229 377Q204 377 192 362T180 311V187Q180
152 192 137T229 121ZM152 557Q137 557 144 572L212 700Q218 710 229 710H334Q341 710 343 706T341 695L251 567Q245 557 233 557H152Z" />
<glyph unicode="&#xf4;" horiz-adv-x="458" d="M229 -8Q135 -8 82 40T29 182V317Q29 409 82 458T229 507Q323 507 376 458T429 317V182Q429 89 377 41T229 -8ZM229 121Q255 121 266 136T278 187V311Q278 347 267 362T229 377Q204 377 192 362T180 311V187Q180
152 192 137T229 121ZM127 548Q113 540 113 554V631Q113 641 120 645L222 704Q229 709 238 704L339 645Q346 641 346 631V554Q346 540 332 548L229 596L127 548Z" />
<glyph unicode="&#xf5;" horiz-adv-x="458" d="M229 -8Q135 -8 82 40T29 182V317Q29 409 82 458T229 507Q323 507 376 458T429 317V182Q429 89 377 41T229 -8ZM229 121Q255 121 266 136T278 187V311Q278 347 267 362T229 377Q204 377 192 362T180 311V187Q180
152 192 137T229 121ZM272 564Q252 564 238 570T210 582T181 589Q166 589 153 584T127 573Q112 565 112 581V649Q112 661 119 666Q131 676 148 683T185 691Q208 691 222 685T249 673T276 666Q292 666 305 671T330 682Q345 691 345 674V606Q345 601 344 597T338
589Q325 579 309 572T272 564Z" />
<glyph unicode="&#xf6;" horiz-adv-x="458" d="M229 -8Q135 -8 82 40T29 182V317Q29 409 82 458T229 507Q323 507 376 458T429 317V182Q429 89 377 41T229 -8ZM229 121Q255 121 266 136T278 187V311Q278 347 267 362T229 377Q204 377 192 362T180 311V187Q180
152 192 137T229 121ZM138 558Q104 558 84 575T64 625V643Q64 676 84 692T138 709Q172 709 191 693T211 643V625Q211 593 192 576T138 558ZM322 558Q288 558 268 575T248 625V643Q248 676 268 692T322 709Q358 709 376 693T395 643V625Q395 593 377 576T322 558Z"
/>
<glyph unicode="&#xf7;" horiz-adv-x="489" d="M82 240Q68 240 68 254V347Q68 361 82 361H408Q422 361 422 347V254Q422 240 408 240H82ZM245 63Q210 63 193 81T175 129V144Q175 173 192 191T245 209Q280 209 298 191T316 144V129Q316 100 298 82T245 63ZM245
391Q210 391 193 409T175 455V470Q175 501 192 518T245 536Q280 536 298 519T316 470V455Q316 427 298 409T245 391Z" />
<glyph unicode="&#xf8;" horiz-adv-x="458" d="M31 -52Q24 -52 22 -47T23 -36L83 83L155 152L274 403L288 478L317 538Q322 547 331 547H430Q437 547 439 543T438 532L382 424L315 364L191 102L176 22L144 -42Q138 -52 129 -52H31ZM229 -8Q135 -8 82 40T29 182V317Q29
409 82 458T229 507Q323 507 376 458T429 317V182Q429 89 377 41T229 -8ZM229 121Q255 121 266 136T278 187V311Q278 347 267 362T229 377Q204 377 192 362T180 311V187Q180 152 192 137T229 121Z" />
<glyph unicode="&#xf9;" horiz-adv-x="458" d="M148 -8Q90 -8 63 27T36 137V485Q36 498 49 498H174Q187 498 187 485V168Q187 143 194 133T216 122Q233 122 250 133T283 161L301 84Q273 46 234 19T148 -8ZM308 0Q297 0 293 11Q291 27 289 50T286 92L271 137V485Q271
498 284 498H409Q422 498 422 485V130Q422 98 422 69T426 14Q428 0 414 0H308ZM225 557Q214 557 207 567L118 695Q114 701 115 705T124 710H230Q241 710 246 700L315 572Q322 557 307 557H225Z" />
<glyph unicode="&#xfa;" horiz-adv-x="458" d="M148 -8Q90 -8 63 27T36 137V485Q36 498 49 498H174Q187 498 187 485V168Q187 143 194 133T216 122Q233 122 250 133T283 161L301 84Q273 46 234 19T148 -8ZM308 0Q297 0 293 11Q291 27 289 50T286 92L271 137V485Q271
498 284 498H409Q422 498 422 485V130Q422 98 422 69T426 14Q428 0 414 0H308ZM152 557Q137 557 144 572L212 700Q218 710 229 710H334Q341 710 343 706T341 695L251 567Q245 557 233 557H152Z" />
<glyph unicode="&#xfb;" horiz-adv-x="458" d="M148 -8Q90 -8 63 27T36 137V485Q36 498 49 498H174Q187 498 187 485V168Q187 143 194 133T216 122Q233 122 250 133T283 161L301 84Q273 46 234 19T148 -8ZM308 0Q297 0 293 11Q291 27 289 50T286 92L271 137V485Q271
498 284 498H409Q422 498 422 485V130Q422 98 422 69T426 14Q428 0 414 0H308ZM127 548Q113 540 113 554V631Q113 641 120 645L222 704Q229 709 238 704L339 645Q346 641 346 631V554Q346 540 332 548L229 596L127 548Z" />
<glyph unicode="&#xfc;" horiz-adv-x="458" d="M148 -8Q90 -8 63 27T36 137V485Q36 498 49 498H174Q187 498 187 485V168Q187 143 194 133T216 122Q233 122 250 133T283 161L301 84Q273 46 234 19T148 -8ZM308 0Q297 0 293 11Q291 27 289 50T286 92L271 137V485Q271
498 284 498H409Q422 498 422 485V130Q422 98 422 69T426 14Q428 0 414 0H308ZM137 558Q103 558 83 575T63 625V643Q63 676 83 692T137 709Q171 709 190 693T210 643V625Q210 593 191 576T137 558ZM321 558Q287 558 267 575T247 625V643Q247 676 267 692T321 709Q357
709 375 693T394 643V625Q394 593 376 576T321 558Z" />
<glyph unicode="&#xfd;" d="M115 -185Q109 -185 106 -181T105 -170L153 -1L12 483Q7 498 22 498H159Q170 498 173 486L203 327Q209 295 214 258T223 185H226Q231 220 236 257T245 326L278 486Q279 498 291 498H427Q441 498 437 483L250 -175Q248 -185 236 -185H115ZM149
557Q134 557 141 572L209 700Q215 710 226 710H331Q338 710 340 706T338 695L248 567Q242 557 230 557H149Z" />
<glyph unicode="&#xfe;" horiz-adv-x="454" d="M49 -185Q36 -185 36 -172V670Q36 683 49 683H174Q187 683 187 670V452Q214 477 244 492T313 507Q368 507 395 472T423 359V166Q423 75 389 34T288 -8Q265 -8 238 -3T187 13V-172Q187 -185 174 -185H49ZM230 114Q252
114 262 128T272 174V331Q272 354 265 365T239 376Q227 376 214 370T187 352V124Q198 119 209 117T230 114Z" />
<glyph unicode="&#xff;" d="M115 -185Q109 -185 106 -181T105 -170L153 -1L12 483Q7 498 22 498H159Q170 498 173 486L203 327Q209 295 214 258T223 185H226Q231 220 236 257T245 326L278 486Q279 498 291 498H427Q441 498 437 483L250 -175Q248 -185 236 -185H115ZM134
558Q100 558 80 575T60 625V643Q60 676 80 692T134 709Q168 709 187 693T207 643V625Q207 593 188 576T134 558ZM318 558Q284 558 264 575T244 625V643Q244 676 264 692T318 709Q354 709 372 693T391 643V625Q391 593 373 576T318 558Z" />
<glyph unicode="&#x2013;" horiz-adv-x="606" d="M52 208Q38 208 38 222V311Q38 324 52 324H554Q568 324 568 311V222Q568 208 554 208H52Z" />
<glyph unicode="&#x2014;" horiz-adv-x="719" d="M52 208Q38 208 38 222V311Q38 324 52 324H667Q681 324 681 311V222Q681 208 667 208H52Z" />
<glyph unicode="&#x2018;" horiz-adv-x="280" d="M246 655Q260 655 257 641L207 345Q205 332 193 332H41Q25 332 30 349L120 644Q124 655 135 655H246Z" />
<glyph unicode="&#x2019;" horiz-adv-x="285" d="M33 331Q19 331 22 346L71 641Q73 655 85 655H238Q254 655 249 638L159 343Q156 331 144 331H33Z" />
<glyph unicode="&#x201a;" horiz-adv-x="285" d="M33 -151Q19 -151 22 -136L71 159Q73 173 85 173H238Q254 173 249 156L159 -139Q156 -151 144 -151H33Z" />
<glyph unicode="&#x201c;" horiz-adv-x="495" d="M461 655Q475 655 472 641L422 345Q420 332 408 332H256Q240 332 245 349L335 644Q339 655 350 655H461ZM246 655Q260 655 257 641L207 345Q205 332 193 332H41Q25 332 30 349L120 644Q124 655 135 655H246Z" />
<glyph unicode="&#x201d;" horiz-adv-x="500" d="M33 331Q19 331 22 346L71 641Q73 655 85 655H238Q254 655 249 638L159 343Q156 331 144 331H33ZM248 331Q234 331 237 346L286 641Q288 655 300 655H453Q469 655 464 638L374 343Q371 331 359 331H248Z" />
<glyph unicode="&#x201e;" horiz-adv-x="500" d="M33 -151Q19 -151 22 -136L71 159Q73 173 85 173H238Q254 173 249 156L159 -139Q156 -151 144 -151H33ZM248 -151Q234 -151 237 -136L286 159Q288 173 300 173H453Q469 173 464 156L374 -139Q371 -151 359 -151H248Z" />
<glyph unicode="&#x2022;" horiz-adv-x="322" d="M161 150Q106 150 75 179T44 257V291Q44 342 75 370T161 398Q218 398 248 370T278 291V257Q278 209 248 180T161 150Z" />
<glyph unicode="&#x2039;" horiz-adv-x="287" d="M129 85Q120 85 115 93L30 255Q28 260 28 264T30 273L115 434Q119 444 129 444H247Q254 444 256 440T256 428L174 264L255 101Q259 94 257 90T247 85H129Z" />
<glyph unicode="&#x203a;" horiz-adv-x="277" d="M35 85Q28 85 26 89T26 101L107 264L25 428Q22 435 25 439T35 444H153Q162 444 166 434L252 273Q257 265 252 255L166 93Q162 85 153 85H35Z" />
</font>
</defs>
</svg>
