<?xml version="1.0" standalone="no"?>
<!DOCTYPE svg PUBLIC "-//W3C//DTD SVG 1.1//EN" "http://www.w3.org/Graphics/SVG/1.1/DTD/svg11.dtd">
<svg xmlns="http://www.w3.org/2000/svg">
<defs >
<font id="SofiaSansExtraCondensed" horiz-adv-x="309" ><font-face
    font-family="Sofia Sans Extra Condensed ExtraLight"
    units-per-em="1000"
    panose-1="0 0 0 0 0 0 0 0 0 0"
    ascent="900"
    descent="-300"
    alphabetic="0" />
<glyph unicode=" " horiz-adv-x="142" />
<glyph unicode="!" horiz-adv-x="144" d="M59 172Q55 172 55 177L53 650Q53 655 57 655H86Q91 655 91 650L88 177Q88 172 84 172H59ZM72 -7Q59 -7 52 0T45 21V28Q45 41 52 48T72 55Q85 55 92 48T100 28V21Q100 8 93 1T72 -7Z" />
<glyph unicode="&quot;" horiz-adv-x="231" d="M163 430Q158 430 158 435V678Q158 683 163 683H185Q191 683 191 678V435Q191 430 185 430H163ZM46 430Q41 430 41 435V678Q41 683 46 683H69Q74 683 74 678V435Q74 430 69 430H46Z" />
<glyph unicode="#" horiz-adv-x="349" d="M82 0Q77 0 77 5V132H27Q22 132 22 137V159Q22 164 27 164H77V449H27Q22 449 22 454V476Q22 481 27 481H77V608Q77 613 82 613H101Q106 613 106 608V481H242V608Q242 613 248 613H267Q272 613 272 608V481H322Q327 481
327 476V454Q327 449 322 449H272V164H322Q327 164 327 159V137Q327 132 322 132H272V5Q272 0 267 0H248Q242 0 242 5V132H106V5Q106 0 101 0H82ZM106 164H242V449H106V164Z" />
<glyph unicode="$" horiz-adv-x="420" d="M208 -6Q142 -6 113 40T86 171Q87 177 91 177H116Q120 177 120 171Q118 98 140 63T209 27Q255 27 278 55T301 146Q301 202 287 235T237 299L170 356Q130 391 112 427T93 521Q93 587 125 624T209 661Q270 661 300 616T328
488Q328 482 323 482H299Q294 482 294 488Q296 556 274 592T210 628Q173 628 150 601T127 522Q127 474 142 445T191 386L257 330Q286 305 303 279T327 222T335 148Q335 72 304 33T208 -6ZM202 -89Q197 -89 197 -84V-1L227 0V-84Q227 -89 222 -89H202ZM197 656V737Q197
742 202 742H222Q227 742 227 737V655L197 656Z" />
<glyph unicode="%" horiz-adv-x="569" d="M159 0Q154 0 155 6L272 335L381 652Q381 656 386 656H410Q416 656 413 650L301 332L188 3Q187 0 183 0H159ZM144 323Q98 323 74 352T49 429V554Q49 602 73 631T144 661Q191 661 215 632T239 554V429Q239 381 215 352T144
323ZM144 351Q210 351 210 430V554Q210 593 194 613T144 633Q110 633 95 613T79 554V430Q79 351 144 351ZM425 -6Q379 -6 355 23T330 101V224Q330 273 354 302T425 332Q472 332 496 303T520 224V101Q520 52 496 23T425 -6ZM425 22Q459 22 475 42T491 101V225Q491
263 475 283T425 304Q391 304 376 284T360 225V101Q360 62 375 42T425 22Z" />
<glyph unicode="&amp;" horiz-adv-x="385" d="M344 0Q340 0 338 3L112 381Q91 418 78 459T64 545Q64 602 89 631T157 661Q197 661 217 633T237 552Q237 519 230 490T205 429T153 356L135 378Q166 417 185 455T205 550Q205 588 193 609T155 630Q129 630 113 610T96
546Q96 508 107 471T141 396L373 7Q375 4 375 2T371 0H344ZM155 -6Q98 -6 68 34T38 147Q38 177 42 204T58 258T86 314T129 371L146 349Q118 312 101 280T77 217T69 149Q69 91 92 58T158 25Q229 25 267 103T305 339Q305 344 311 344H332Q337 344 337 339Q337 227
316 150T253 34T155 -6Z" />
<glyph unicode="&apos;" horiz-adv-x="115" d="M46 430Q41 430 41 435V678Q41 683 46 683H69Q74 683 74 678V435Q74 430 69 430H46Z" />
<glyph unicode="(" horiz-adv-x="165" d="M117 -141Q88 -109 74 -85T54 -32T49 40V515Q49 559 54 588T73 641T117 696Q121 699 124 696L139 679Q141 677 141 676T139 672Q116 647 104 627T87 581T82 514V41Q82 0 86 -25T103 -71T139 -117Q141 -119 141 -120T139
-124L124 -141Q121 -144 117 -141Z" />
<glyph unicode=")" horiz-adv-x="165" d="M41 -141L25 -124Q23 -122 23 -121T25 -117Q49 -91 61 -71T78 -26T83 41V514Q83 555 78 580T61 626T25 672Q24 674 24 675T25 679L41 696Q44 699 47 696Q77 665 91 641T110 588T115 515V40Q115 -3 111 -32T92 -85T47 -141Q44
-144 41 -141Z" />
<glyph unicode="*" horiz-adv-x="317" d="M94 454L79 466Q76 469 78 473L141 544L51 572Q48 574 47 575T47 578L54 597Q56 601 61 599L147 565L144 660Q144 664 148 664H168Q170 664 171 663T172 660L169 564L256 599Q259 600 260 600T263 597L270 578Q271 576
270 575T266 572L175 544L238 473Q240 472 240 470T238 467L221 454Q219 452 216 455L158 531L101 455Q99 452 94 454Z" />
<glyph unicode="+" horiz-adv-x="420" d="M198 181Q193 181 193 186V285H94Q90 285 90 290V312Q90 317 94 317H193V417Q193 421 198 421H220Q225 421 225 417V317H325Q330 317 330 312V290Q330 285 325 285H225V186Q225 181 220 181H198Z" />
<glyph unicode="," horiz-adv-x="146" d="M29 -141Q25 -141 26 -134L70 86Q71 91 76 91H105Q108 91 109 90T109 84L55 -136Q54 -141 50 -141H29Z" />
<glyph unicode="-" horiz-adv-x="290" d="M50 251Q46 251 46 256V276Q46 281 50 281H240Q245 281 245 276V256Q245 251 240 251H50Z" />
<glyph unicode="." horiz-adv-x="144" d="M72 -7Q59 -7 52 0T45 21V28Q45 41 52 48T72 55Q85 55 92 48T100 28V21Q100 8 93 1T72 -7Z" />
<glyph unicode="/" horiz-adv-x="219" d="M13 0Q8 0 10 5L178 651Q179 655 183 655H207Q212 655 210 649L40 4Q40 0 37 0H13Z" />
<glyph unicode="0" horiz-adv-x="353" d="M177 -6Q112 -6 80 39T47 171V484Q47 572 79 616T177 661Q241 661 273 617T306 484V171Q306 84 274 39T177 -6ZM177 27Q225 27 248 63T272 172V483Q272 556 249 592T177 628Q128 628 105 592T81 483V172Q81 100 104 64T177 27Z" />
<glyph unicode="1" horiz-adv-x="271" d="M32 0Q27 0 27 5V28Q27 34 32 34H130V615L33 571Q31 570 30 571T28 575V598Q28 603 32 605L150 657Q153 659 156 659H160Q164 659 164 654V34H253Q258 34 258 28V5Q258 0 253 0H32Z" />
<glyph unicode="2" horiz-adv-x="322" d="M49 0Q44 0 44 5V37Q44 109 58 157T96 239T145 300T195 354T232 417T247 505V517Q247 576 228 602T166 628Q120 628 100 594T82 495Q82 490 77 490H54Q49 490 49 495Q46 577 75 619T167 661Q225 661 253 626T281 514Q281
452 267 412T230 343T181 288T132 230T94 152T79 34H275Q280 34 280 28V5Q280 0 275 0H49Z" />
<glyph unicode="3" horiz-adv-x="333" d="M161 -6Q97 -6 69 37T41 163Q41 168 46 168H69Q74 168 74 163Q73 94 94 61T163 27Q208 27 232 62T257 164V182Q257 250 233 285T157 320H121Q116 320 116 325V347Q116 352 121 352H158Q197 352 223 389T249 494V511Q249
570 228 599T165 628Q118 628 97 593T77 495Q77 490 72 490H49Q44 490 44 495Q42 574 73 617T166 661Q224 661 253 623T283 505Q283 434 263 394T210 339V338Q249 326 270 287T292 175Q292 84 258 39T161 -6Z" />
<glyph unicode="4" horiz-adv-x="320" d="M223 0Q217 0 217 5V143H17Q12 143 12 148V152Q12 154 12 156T13 160L175 651Q177 655 181 655H206Q211 655 209 649L55 177H217L219 418Q219 423 224 423H246Q251 423 251 418V177H303Q308 177 308 172V148Q308 143 303
143H251V5Q251 0 246 0H223Z" />
<glyph unicode="5" d="M152 -6Q112 -6 86 13T47 70T35 163Q35 166 36 167T40 168H63Q68 168 68 163Q67 99 86 63T152 27Q198 27 222 69T247 188V209Q247 256 239 292T210 348T156 369Q130 369 106 360T59 335Q54 332 51 334T47 340L74 650Q74 655 79 655H253Q258
655 258 650V627Q258 621 253 621H105L82 378Q102 388 122 394T164 401Q225 401 253 350T281 197Q281 100 248 47T152 -6Z" />
<glyph unicode="6" horiz-adv-x="346" d="M175 -6Q109 -6 78 37T47 174V480Q47 573 79 617T177 661Q232 661 261 628T291 530Q291 525 286 525H263Q258 525 258 530Q258 577 237 602T177 628Q127 628 104 593T81 480V175Q81 97 103 62T175 27Q223 27 247 69T271
200V209Q271 295 253 332T193 369Q167 369 138 356T73 312V347Q109 376 139 389T200 402Q254 402 279 356T305 205Q305 100 273 47T175 -6Z" />
<glyph unicode="7" d="M96 0Q94 0 93 1T93 7L256 621H66V513Q66 508 61 508H37Q32 508 32 513V650Q32 655 37 655H292Q297 655 297 650V645Q297 641 296 637L127 4Q125 0 121 0H96Z" />
<glyph unicode="8" horiz-adv-x="343" d="M172 -6Q36 -6 36 167Q36 240 58 287T123 350Q87 367 70 404T53 501Q53 578 83 619T172 661Q229 661 259 620T290 501Q290 441 273 404T220 350Q262 334 284 287T307 167Q307 -6 172 -6ZM172 26Q223 26 248 59T273 163V174Q273
251 247 293T172 335Q123 335 97 293T70 174V163Q70 93 95 60T172 26ZM172 365Q212 365 234 398T256 493V504Q256 567 235 598T172 629Q129 629 108 598T87 504V493Q87 432 109 399T172 365Z" />
<glyph unicode="9" horiz-adv-x="350" d="M173 -6Q115 -6 87 30T58 141Q58 145 63 145H86Q91 145 91 141Q91 82 111 55T173 27Q223 27 246 60T269 172V478Q269 556 247 592T175 628Q127 628 104 588T80 457V448Q80 361 98 324T159 286Q186 286 213 300T277 345V309Q242
279 212 266T152 253Q98 253 72 300T45 452Q45 559 77 610T175 661Q241 661 272 617T303 481V172Q303 80 272 37T173 -6Z" />
<glyph unicode=":" horiz-adv-x="144" d="M72 391Q60 391 53 398T45 419V425Q45 438 52 445T72 452Q85 452 92 445T100 425V419Q100 405 93 398T72 391ZM72 -7Q59 -7 52 0T45 21V28Q45 41 52 48T72 55Q85 55 92 48T100 28V21Q100 8 93 1T72 -7Z" />
<glyph unicode=";" horiz-adv-x="149" d="M21 -141Q16 -141 17 -134L62 86Q63 91 67 91H96Q99 91 100 90T101 84L46 -136Q46 -141 41 -141H21ZM78 392Q65 392 58 399T50 419V426Q50 439 57 445T78 452Q90 452 97 446T104 426V419Q104 406 97 399T78 392Z" />
<glyph unicode="&lt;" horiz-adv-x="420" d="M324 159L94 283Q91 286 91 289V313Q91 316 94 319L324 443Q327 445 328 444T329 439V408Q329 403 326 402L128 301L326 200Q329 198 329 194V162Q329 160 328 159T324 159Z" />
<glyph unicode="=" horiz-adv-x="420" d="M96 351Q91 351 91 355V378Q91 383 96 383H325Q330 383 330 378V355Q330 351 325 351H96ZM96 221Q91 221 91 226V248Q91 253 96 253H325Q330 253 330 248V226Q330 221 325 221H96Z" />
<glyph unicode="&gt;" horiz-adv-x="420" d="M97 159Q94 158 93 159T91 162V194Q91 198 94 200L293 301L94 402Q91 403 91 408V439Q91 442 93 443T97 443L327 319Q329 316 329 313V289Q329 286 327 283L97 159Z" />
<glyph unicode="?" horiz-adv-x="281" d="M116 172Q112 172 112 177V230Q112 269 122 299T149 355T180 407T206 465T217 537Q217 589 200 609T145 629Q98 629 81 594T67 493Q67 487 63 487H39Q37 487 36 489T35 493Q31 579 59 620T147 661Q199 661 224 634T250
538Q250 496 240 463T214 401T183 347T157 292T146 229L145 177Q145 172 141 172H116ZM130 -7Q116 -7 109 0T102 21V28Q102 41 109 48T130 55Q143 55 150 48T157 28V21Q157 8 150 1T130 -7Z" />
<glyph unicode="@" horiz-adv-x="581" d="M290 -185Q206 -185 151 -142T69 -21T42 159V345Q42 448 69 525T151 645T290 689Q375 689 430 646T511 525T538 345V257Q538 185 525 134T486 57T424 31Q396 31 375 45T345 88T339 157L369 429Q354 432 335 438T292 444Q261
444 245 418T222 335L203 165Q198 117 210 90T250 62Q276 62 301 83T352 141L358 106Q329 70 301 50T241 30Q203 30 184 66T172 165L191 339Q199 408 223 442T292 476Q323 476 348 467T398 456Q402 455 402 450L370 163Q365 115 380 89T426 62Q453 62 470 85T497
151T506 257V345Q506 440 483 510T412 618T290 657Q217 657 169 619T98 510T74 345V159Q74 64 97 -6T169 -114T290 -153H362Q367 -153 367 -158V-180Q367 -185 362 -185H290Z" />
<glyph unicode="A" horiz-adv-x="330" d="M7 0Q1 0 2 6L142 651Q143 655 148 655H182Q187 655 188 651L328 6Q329 0 324 0H297Q293 0 292 4L193 478Q186 513 180 547T166 615H164Q158 581 152 546T137 476L38 4Q37 0 32 0H7ZM68 180L75 213H254L262 180H68Z" />
<glyph unicode="B" horiz-adv-x="357" d="M66 0Q61 0 61 5V650Q61 655 66 655H158Q232 655 267 616T302 496Q302 439 283 399T227 343V341Q272 328 296 287T320 183Q320 91 282 46T167 0H66ZM95 33H164Q228 33 257 69T286 185Q286 252 257 287T173 322H95V33ZM95
355H170Q216 355 242 391T268 492Q268 559 242 590T160 622H95V355Z" />
<glyph unicode="C" horiz-adv-x="390" d="M197 -6Q126 -6 89 41T51 183V472Q51 566 88 613T197 661Q249 661 282 637T329 566T339 453Q338 449 335 449H310Q304 449 305 454Q310 541 284 584T197 628Q142 628 114 589T85 469V186Q85 106 113 67T197 27Q259 27
285 71T307 201Q306 206 311 206H335Q340 206 340 201Q345 100 309 47T197 -6Z" />
<glyph unicode="D" horiz-adv-x="394" d="M66 0Q61 0 61 5V650Q61 655 65 655H155Q253 655 300 592T347 386V278Q347 132 303 66T159 0H66ZM95 33H157Q243 33 278 90T313 277V386Q313 511 275 566T154 622H95V33Z" />
<glyph unicode="E" horiz-adv-x="329" d="M66 0Q61 0 61 5V650Q61 655 65 655H279Q284 655 284 650V627Q284 622 279 622H95V351H266Q270 351 270 346V324Q270 319 266 319H95V33H279Q284 33 284 28V5Q284 0 279 0H66Z" />
<glyph unicode="F" horiz-adv-x="306" d="M65 0Q61 0 61 5V650Q61 655 65 655H279Q284 655 284 650V627Q284 622 279 622H95V343H259Q263 343 263 337V316Q263 310 259 310H95V5Q95 0 91 0H65Z" />
<glyph unicode="G" horiz-adv-x="402" d="M191 -6Q121 -6 86 40T51 181V472Q51 567 88 614T197 661Q269 661 307 610T340 463Q340 459 335 459H310Q305 459 306 463Q311 543 281 585T197 628Q142 628 114 590T85 471V184Q85 103 112 65T195 27Q251 27 279 77T308
235V289H208Q204 289 204 294V317Q204 322 208 322H337Q341 322 341 317V136Q341 95 342 65T346 6Q346 0 343 0H322Q317 0 317 4Q314 27 313 52T312 107H311Q300 58 273 26T191 -6Z" />
<glyph unicode="H" horiz-adv-x="407" d="M65 0Q61 0 61 5V650Q61 655 65 655H90Q95 655 95 650V355H312V650Q312 655 317 655H341Q346 655 346 650V5Q346 0 341 0H317Q312 0 312 5V323H95V5Q95 0 90 0H65Z" />
<glyph unicode="I" horiz-adv-x="155" d="M65 0Q61 0 61 5V650Q61 655 65 655H90Q95 655 95 650V5Q95 0 90 0H65Z" />
<glyph unicode="J" horiz-adv-x="155" d="M16 -139Q10 -141 8 -136L1 -112Q0 -109 1 -108T4 -105Q24 -96 36 -79T55 -27T61 67V650Q61 655 65 655H91Q95 655 95 650V67Q95 -2 87 -43T61 -106T16 -139Z" />
<glyph unicode="K" horiz-adv-x="349" d="M65 0Q61 0 61 5V650Q61 655 65 655H90Q95 655 95 650V389Q95 369 95 348T94 307T94 265V264Q110 296 125 326T155 388L292 652Q293 655 298 655H328Q333 655 330 648L189 385L344 7Q347 0 342 0H311Q307 0 306 3L168
346L95 208V5Q95 0 90 0H65Z" />
<glyph unicode="L" horiz-adv-x="295" d="M65 0Q61 0 61 5V650Q61 655 65 655H90Q95 655 95 650V33H275Q280 33 280 28V5Q280 0 275 0H65Z" />
<glyph unicode="M" horiz-adv-x="481" d="M58 0Q53 0 53 5L63 650Q63 655 68 655H108Q112 655 113 651L240 203L368 651Q369 655 374 655H413Q417 655 417 650L427 5Q427 0 423 0H398Q393 0 393 5L387 479Q387 509 387 541T387 605H386Q379 576 370 546T353 486L247
119Q246 115 241 115H239Q235 115 234 119L126 490Q118 518 110 547T95 605H93Q93 575 93 544T93 484L87 5Q87 0 83 0H58Z" />
<glyph unicode="N" horiz-adv-x="409" d="M65 0Q61 0 61 5V650Q61 655 65 655H108Q113 655 114 652L242 268Q256 232 268 194T292 118T316 44H318Q317 71 317 99T316 156T316 213T316 268V650Q316 655 320 655H345Q349 655 349 650V5Q349 0 345 0H302Q298 0 297
3L172 374Q151 434 132 494T94 611H93Q93 573 93 533T94 452T94 373V5Q94 0 90 0H65Z" />
<glyph unicode="O" horiz-adv-x="395" d="M197 -6Q127 -6 89 39T51 174V480Q51 572 89 616T197 661Q268 661 306 617T344 480V174Q344 84 306 39T197 -6ZM197 27Q252 27 281 63T310 176V478Q310 555 281 591T197 628Q142 628 114 592T85 478V176Q85 100 113 64T197 27Z" />
<glyph unicode="P" horiz-adv-x="335" d="M65 0Q61 0 61 5V650Q61 655 65 655H147Q225 655 265 610T306 461Q306 366 270 318T150 269H95V5Q95 0 90 0H65ZM95 301H147Q217 301 244 341T272 460Q272 546 241 584T150 622H95V301Z" />
<glyph unicode="Q" horiz-adv-x="395" d="M270 -175Q245 -175 228 -155T203 -95T197 6Q197 9 198 10T201 11L227 12Q230 12 230 7Q228 -42 233 -75T248 -125T274 -142Q281 -142 287 -141T297 -136Q301 -134 301 -140V-163Q301 -168 297 -170Q292 -172 286 -173T270
-175ZM197 -6Q127 -6 89 39T51 174V480Q51 572 89 616T197 661Q268 661 306 617T344 480V174Q344 84 306 39T197 -6ZM197 27Q252 27 281 63T310 176V478Q310 555 281 591T197 628Q142 628 114 592T85 478V176Q85 100 113 64T197 27Z" />
<glyph unicode="R" horiz-adv-x="362" d="M65 0Q61 0 61 5V650Q61 655 65 655H166Q241 655 278 613T315 478Q315 406 291 362T225 305V304L334 7Q336 0 330 0H302Q299 0 297 3L190 296H95V5Q95 0 90 0H65ZM95 329H173Q229 329 255 367T281 476Q281 553 252 587T166
622H95V329Z" />
<glyph unicode="S" horiz-adv-x="337" d="M164 -6Q116 -6 87 14T44 74T34 171Q34 177 39 177H63Q68 177 68 171Q63 98 87 63T166 27Q217 27 241 55T266 146Q266 202 251 235T193 299L121 355Q78 388 60 425T41 521Q41 587 74 624T165 661Q233 661 265 616T292
488Q292 482 288 482H262Q258 482 259 488Q263 556 239 592T166 628Q123 628 99 601T75 522Q75 474 90 443T141 383L213 328Q246 303 265 279T292 223T300 148Q300 72 267 33T164 -6Z" />
<glyph unicode="T" horiz-adv-x="321" d="M148 0Q144 0 144 5V622H26Q21 622 21 627V650Q21 655 26 655H296Q300 655 300 650V627Q300 622 296 622H178V5Q178 0 173 0H148Z" />
<glyph unicode="U" horiz-adv-x="397" d="M198 -6Q125 -6 91 44T57 196V650Q57 655 61 655H86Q91 655 91 650V197Q91 110 116 69T198 27Q255 27 280 68T306 197V650Q306 655 310 655H335Q340 655 340 650V196Q340 94 306 44T198 -6Z" />
<glyph unicode="V" horiz-adv-x="351" d="M157 0Q153 0 152 5L14 649Q13 655 18 655H44Q48 655 49 651L148 182Q156 146 162 111T175 40H177Q184 75 190 111T204 183L302 651Q303 655 307 655H333Q338 655 337 649L201 5Q200 0 196 0H157Z" />
<glyph unicode="W" horiz-adv-x="509" d="M138 0Q134 0 133 4L17 649Q16 655 20 655H45Q50 655 51 651L134 178Q138 156 141 132T148 85T155 40H157Q162 72 167 103T179 166L242 509L220 639Q219 645 224 645H249Q253 645 254 640L333 170Q338 138 343 106T353
40H355Q358 63 361 86T368 133T376 183L458 651Q459 655 463 655H488Q493 655 492 649L377 5Q376 0 372 0H337Q332 0 331 5L280 314Q274 346 269 378T259 443H258Q253 411 247 379T235 315L177 5Q176 2 175 1T172 0H138Z" />
<glyph unicode="X" horiz-adv-x="329" d="M9 0Q4 0 6 7L143 337L14 648Q11 655 17 655H46Q50 655 51 652L126 466Q136 441 145 416T165 366H166Q175 392 185 417T205 467L279 652Q280 655 283 655H313Q318 655 315 648L187 337L323 6Q326 0 320 0H290Q287 0 285
4L208 194Q197 223 186 250T165 306H164Q154 279 143 251T121 196L44 5Q42 0 39 0H9Z" />
<glyph unicode="Y" horiz-adv-x="327" d="M150 0Q147 0 147 5V225L13 648Q11 655 16 655H45Q49 655 50 651L131 380Q139 353 147 325T163 269H164Q172 297 180 325T197 380L278 652Q279 655 283 655H310Q315 655 314 648L181 225V5Q181 0 177 0H150Z" />
<glyph unicode="Z" horiz-adv-x="312" d="M15 0Q10 0 10 5V7Q10 11 12 15L216 524Q226 549 235 573T254 621V622Q237 622 218 622T181 622H34Q30 622 30 627V650Q30 655 34 655H295Q300 655 300 650V648Q300 646 300 644T298 639L94 133Q85 108 75 84T55 34V33Q74
33 90 33T124 33H282Q286 33 286 28V5Q286 0 282 0H15Z" />
<glyph unicode="[" horiz-adv-x="162" d="M54 -141Q49 -141 49 -136V691Q49 696 54 696H158Q163 696 163 691V670Q163 664 158 664H81V-109H158Q163 -109 163 -115V-136Q163 -141 158 -141H54Z" />
<glyph unicode="\" horiz-adv-x="220" d="M184 0Q178 0 178 4L10 649Q8 655 14 655H36Q40 655 41 651L211 6Q213 0 207 0H184Z" />
<glyph unicode="]" horiz-adv-x="162" d="M3 -141Q-1 -141 -1 -136V-115Q-1 -109 3 -109H81V664H3Q-1 664 -1 670V691Q-1 696 3 696H107Q112 696 112 691V-136Q112 -141 107 -141H3Z" />
<glyph unicode="^" horiz-adv-x="299" d="M34 350Q28 350 30 356L133 680Q135 683 138 683H161Q164 683 165 680L269 357Q271 350 265 350H241Q238 350 237 353L149 645L62 353Q61 350 57 350H34Z" />
<glyph unicode="_" horiz-adv-x="283" d="M11 -93Q6 -93 6 -88V-68Q6 -63 11 -63H272Q277 -63 277 -68V-88Q277 -93 272 -93H11Z" />
<glyph unicode="`" horiz-adv-x="162" d="M107 560Q102 560 100 564L31 682Q30 685 31 687T34 689H60Q65 689 67 684L131 566Q133 563 132 562T128 560H107Z" />
<glyph unicode="a" horiz-adv-x="304" d="M226 0Q222 0 221 5Q219 30 218 55T217 95L215 98V361Q215 413 202 433T151 454Q115 454 99 432T87 365Q87 360 82 360H59Q54 360 53 366Q48 423 74 454T152 487Q204 488 226 459T249 362V114Q249 82 250 55T252 6Q252
0 248 0H226ZM114 -6Q76 -6 57 26T37 115Q37 179 64 219T155 267L220 276V246L157 237Q111 232 91 201T71 117Q71 75 84 51T122 27Q143 27 164 43T221 107L222 71Q188 27 165 11T114 -6Z" />
<glyph unicode="b" horiz-adv-x="334" d="M175 -6Q145 -6 116 1T55 15V678Q55 683 59 683H84Q89 683 89 678V42Q109 38 130 33T173 27Q212 27 233 54T255 150V358Q255 408 241 431T199 454Q168 454 139 430T82 370L80 405Q110 441 141 464T207 487Q248 487 268
458T289 362V149Q289 64 260 29T175 -6Z" />
<glyph unicode="c" horiz-adv-x="314" d="M163 -6Q104 -7 74 29T44 143V339Q44 415 73 451T163 487Q200 487 225 471T263 423T272 349Q272 342 267 342H243Q241 342 240 343T239 347Q241 396 222 425T163 454Q119 454 99 427T78 338V144Q78 83 98 55T163 27Q204
27 222 55T239 139Q239 145 243 145H267Q272 145 272 140Q273 69 247 32T163 -6Z" />
<glyph unicode="d" horiz-adv-x="333" d="M129 -6Q89 -6 68 22T46 118V343Q46 419 75 453T152 487Q180 487 205 478T253 451V416Q201 454 158 454Q123 454 102 429T80 339V119Q80 68 95 48T138 27Q166 27 194 51T251 111L252 76Q222 39 193 17T129 -6ZM255 0Q251
0 250 5Q249 28 248 54T246 95L244 99V678Q244 683 249 683H274Q278 683 278 678V114Q278 82 279 55T281 6Q281 0 277 0H255Z" />
<glyph unicode="e" horiz-adv-x="316" d="M163 -6Q104 -6 74 32T44 150V338Q44 415 74 451T159 487Q214 487 244 450T275 339V246Q275 241 270 241H78V151Q78 89 98 58T163 27Q202 27 219 50T236 120Q236 126 240 126H265Q269 126 269 121Q270 58 243 26T163 -6ZM78
273H241V338Q241 396 220 425T159 454Q120 454 99 425T78 338V273Z" />
<glyph unicode="f" horiz-adv-x="227" d="M78 0Q73 0 73 5V448H26Q21 448 21 453V476Q21 481 26 481H73V562Q73 628 94 658T162 689Q180 689 195 686T220 678Q224 675 224 671V649Q224 647 223 646T218 646Q207 650 194 653T167 656Q133 656 120 634T107 562V481H203Q208
481 208 476V453Q208 448 203 448H107V5Q107 0 103 0H78Z" />
<glyph unicode="g" horiz-adv-x="314" d="M157 -191Q90 -191 59 -162T28 -70Q28 -26 47 5T104 55L135 44Q97 26 80 0T62 -66Q62 -116 84 -137T159 -158Q211 -158 233 -136T256 -62Q256 -17 241 4T189 29L118 39Q85 43 67 64T48 117Q48 138 56 154T78 182T109 204L133
187Q107 175 94 160T80 123Q80 101 93 87T132 69L200 60Q247 54 268 25T290 -63Q290 -129 259 -160T157 -191ZM163 173Q103 173 79 211T54 330Q54 411 78 449T163 487Q222 487 246 449T270 330Q270 249 246 211T163 173ZM163 206Q206 206 221 235T237 330Q237 396
222 425T163 454Q120 454 104 425T88 330Q88 265 104 236T163 206ZM229 458L201 467Q203 507 207 544T216 605Q217 611 222 611H243Q248 611 247 605Q242 579 237 541T229 458Z" />
<glyph unicode="h" horiz-adv-x="344" d="M260 0Q256 0 256 5V358Q256 408 242 431T200 454Q170 454 141 431T84 372L82 405Q112 442 143 464T209 487Q248 487 269 458T290 362V5Q290 0 285 0H260ZM59 0Q55 0 55 5V678Q55 683 59 683H84Q89 683 89 678V5Q89 0 85 0H59Z" />
<glyph unicode="i" horiz-adv-x="144" d="M59 0Q55 0 55 5V476Q55 481 59 481H84Q89 481 89 476V5Q89 0 84 0H59ZM72 583Q59 583 52 590T45 610V617Q45 629 52 636T72 643Q85 643 91 636T98 617V610Q98 597 92 590T72 583Z" />
<glyph unicode="j" horiz-adv-x="132" d="M20 -184Q19 -185 18 -185T14 -183L-1 -162Q-5 -158 -1 -155Q31 -124 40 -82T49 32V476Q49 481 54 481H79Q83 481 83 476V29Q83 -20 79 -58T62 -127T20 -184ZM66 583Q53 583 46 590T39 610V617Q39 629 46 636T66 643Q79
643 85 636T92 617V610Q92 597 86 590T66 583Z" />
<glyph unicode="k" horiz-adv-x="301" d="M59 0Q55 0 55 5V678Q55 683 59 683H84Q89 683 89 678V336Q89 316 89 298T89 260T88 222H89Q102 247 115 270T143 318L234 478Q236 481 240 481H268Q274 481 272 475L166 296L285 7Q288 0 282 0H253Q250 0 249 3L144 260L89
166V5Q89 0 85 0H59Z" />
<glyph unicode="l" horiz-adv-x="144" d="M59 0Q55 0 55 5V678Q55 683 59 683H84Q89 683 89 678V5Q89 0 84 0H59Z" />
<glyph unicode="m" horiz-adv-x="514" d="M59 0Q55 0 55 5V367Q55 399 55 426T52 475Q51 481 56 481H79Q82 481 83 476Q85 459 85 442T87 411Q118 450 144 468T201 487Q231 487 249 468T272 411Q303 450 330 468T386 487Q422 487 441 460T460 382V5Q460 0 455
0H430Q426 0 426 5V377Q426 413 414 433T376 454Q353 454 330 437T274 378V5Q274 0 270 0H245Q240 0 240 5V377Q240 413 228 433T191 454Q168 454 145 437T89 378V5Q89 0 84 0H59Z" />
<glyph unicode="n" horiz-adv-x="344" d="M260 0Q256 0 256 5V358Q256 408 242 431T200 454Q170 454 141 431T84 372L82 405Q112 442 143 464T209 487Q248 487 269 458T290 362V5Q290 0 285 0H260ZM59 0Q55 0 55 5V367Q55 399 55 426T52 475Q51 481 56 481H77Q82
481 83 476Q85 457 86 428T87 384L89 381V5Q89 0 84 0H59Z" />
<glyph unicode="o" horiz-adv-x="327" d="M163 -6Q104 -6 74 31T44 141V339Q44 413 74 450T163 487Q223 487 253 451T283 339V141Q283 68 253 31T163 -6ZM163 27Q207 27 228 55T249 142V338Q249 397 228 425T163 454Q120 454 99 426T78 338V142Q78 84 99 56T163 27Z" />
<glyph unicode="p" horiz-adv-x="332" d="M188 -6Q161 -6 134 4T82 28L81 62Q105 48 131 38T183 27Q217 27 235 55T253 141V362Q253 410 240 432T198 454Q165 454 136 428T78 365L77 400Q106 437 137 462T208 487Q247 487 267 459T287 366V141Q287 67 262 31T188
-6ZM59 -185Q55 -185 55 -180V370Q55 400 55 426T52 475Q51 481 56 481H77Q82 481 83 476Q85 457 86 436T87 400L89 389V-180Q89 -185 84 -185H59Z" />
<glyph unicode="q" horiz-adv-x="334" d="M249 -185Q245 -185 245 -180V439Q225 445 202 449T161 454Q122 454 101 428T80 340V120Q80 72 93 50T135 27Q166 27 195 51T252 111L254 77Q224 40 193 17T127 -6Q87 -6 67 23T46 117V340Q46 421 76 454T158 487Q189
487 218 480T279 466V-180Q279 -185 276 -185H249Z" />
<glyph unicode="r" horiz-adv-x="229" d="M59 0Q55 0 55 5V367Q55 399 55 426T52 474Q51 481 56 481H79Q82 481 83 476Q85 453 86 427T87 386L89 382V5Q89 0 84 0H59ZM83 364L81 400Q93 419 109 439T145 473T188 487Q199 487 206 485Q208 484 209 483T210 478Q210
470 210 463T209 449Q209 443 203 444Q200 446 195 446T183 447Q156 447 130 422T83 364Z" />
<glyph unicode="s" horiz-adv-x="280" d="M141 -6Q86 -6 61 29T39 134Q39 139 43 139H70Q73 139 73 135Q71 78 87 53T142 27Q214 27 214 111Q214 145 204 168T168 211L101 265Q69 291 56 318T42 384Q42 434 68 460T141 487Q193 487 217 457T239 368Q239 363 235
363H210Q208 363 207 364T206 368Q208 412 192 433T141 454Q76 454 76 384Q76 353 86 334T122 293L190 237Q223 211 235 185T247 112Q247 53 221 24T141 -6Z" />
<glyph unicode="t" horiz-adv-x="245" d="M157 -6Q113 -6 94 23T75 121V448H28Q23 448 23 453V476Q23 481 28 481H76L80 612Q80 617 85 617H105Q109 617 109 612V481H211Q216 481 216 476V453Q216 448 211 448H109V122Q109 72 121 50T162 27Q175 27 188 30T213
38Q218 41 218 34V11Q218 6 214 5Q203 1 188 -2T157 -6Z" />
<glyph unicode="u" horiz-adv-x="337" d="M133 -6Q93 -6 74 20T55 112V476Q55 481 59 481H84Q89 481 89 476V114Q89 63 102 45T141 27Q172 27 200 52T256 113L258 79Q229 43 199 19T133 -6ZM259 0Q255 0 254 5Q253 28 252 54T250 95L248 99V476Q248 481 253 481H278Q282
481 282 476V114Q282 82 283 55T285 6Q286 0 281 0H259Z" />
<glyph unicode="v" horiz-adv-x="303" d="M134 0Q131 0 129 6L23 473Q22 481 27 481H54Q58 481 59 475L127 157Q134 128 139 98T151 38H152Q158 68 163 98T176 159L245 475Q246 481 250 481H277Q282 481 280 473L174 6Q173 0 169 0H134Z" />
<glyph unicode="w" horiz-adv-x="439" d="M124 0Q118 0 117 7L24 475Q23 481 27 481H52Q57 481 58 475L115 180Q123 145 129 109T141 37H143Q149 73 155 108T167 179L204 376L188 468Q187 475 191 475H215Q219 475 220 470L273 180Q280 145 285 109T296 37H298Q305
74 311 110T324 181L381 474Q383 481 386 481H411Q416 481 415 473L321 5Q320 0 315 0H281Q275 0 274 4L247 153Q240 192 234 233T220 319H218Q212 274 205 233T191 152L165 5Q164 0 158 0H124Z" />
<glyph unicode="x" horiz-adv-x="293" d="M18 0Q16 0 15 2T15 7L126 252L25 475Q24 477 25 479T28 481H55Q59 481 61 477L111 362Q121 342 129 321T146 279H147Q156 299 165 320T182 362L231 478Q233 481 237 481H265Q267 481 268 479T267 475L166 252L278 7Q279
4 278 2T275 0H246Q243 0 241 3L182 140Q173 161 164 182T146 224H145Q137 204 128 182T111 140L51 3Q49 0 45 0H18Z" />
<glyph unicode="y" horiz-adv-x="302" d="M94 -185Q88 -185 90 -178L134 3L21 475Q19 481 23 481H51Q56 481 57 475L120 197Q128 163 135 129T150 60H151Q158 94 166 128T181 197L245 475Q246 481 250 481H277Q279 481 280 479T280 472L124 -180Q123 -185 118 -185H94Z" />
<glyph unicode="z" horiz-adv-x="284" d="M27 0Q22 0 22 5V8Q22 14 24 18L182 366Q191 387 199 406T217 447V448Q202 448 187 448T157 448H41Q36 448 36 453V476Q36 481 41 481H257Q262 481 262 476V474Q262 468 260 464L103 116Q93 95 85 75T66 34V33Q80 33 93
33T120 33H250Q254 33 254 28V5Q254 0 250 0H27Z" />
<glyph unicode="{" horiz-adv-x="161" d="M156 -142Q121 -142 101 -131T73 -89T64 3V188Q64 224 57 243T29 262H17Q11 262 11 267V288Q11 293 17 293H29Q49 293 56 312T64 368V552Q64 613 72 644T101 686T156 697Q161 697 161 692V670Q161 666 156 666Q131 666
119 658T101 626T96 556V367Q96 330 88 308T62 278Q79 270 87 248T96 188V-1Q96 -47 101 -70T119 -102T156 -111Q161 -111 161 -115V-137Q161 -142 156 -142Z" />
<glyph unicode="|" horiz-adv-x="158" d="M67 -185Q62 -185 62 -180V825Q62 830 67 830H91Q96 830 96 825V-180Q96 -185 91 -185H67Z" />
<glyph unicode="}" horiz-adv-x="161" d="M5 -142Q0 -142 0 -137V-115Q0 -111 5 -111Q30 -111 42 -103T60 -71T65 -1V188Q65 226 73 248T99 278Q82 286 74 308T65 367V556Q65 602 60 625T43 657T5 666Q0 666 0 670V692Q0 697 5 697Q41 697 61 686T89 644T97 552V368Q97
332 105 313T133 293H145Q150 293 150 288V267Q150 262 145 262H133Q113 262 105 243T97 188V3Q97 -58 89 -89T60 -131T5 -142Z" />
<glyph unicode="~" horiz-adv-x="420" d="M262 269Q242 269 226 277T193 294T156 302Q138 302 122 295T96 279Q92 276 92 282V305Q92 310 95 312Q107 323 123 328T157 334Q180 334 196 326T228 310T263 301Q282 301 298 309T324 325Q328 328 328 322V300Q328 295
325 292Q314 281 297 275T262 269Z" />
<glyph unicode="&#xa0;" horiz-adv-x="142" />
<glyph unicode="&#xa1;" horiz-adv-x="144" d="M59 309H84Q88 309 88 304L91 -169Q91 -174 86 -174H57Q53 -174 53 -169L55 304Q55 309 59 309ZM72 488Q85 488 92 481T100 460V453Q100 440 93 433T72 426Q59 426 52 433T45 453V460Q45 473 52 480T72 488Z" />
<glyph unicode="&#xa2;" horiz-adv-x="420" d="M197 528V615Q197 621 202 621H223Q228 621 228 615V529L197 528ZM202 -37Q197 -37 197 -32V51L228 50V-32Q228 -37 223 -37H202ZM216 44Q156 43 126 79T96 193V389Q96 465 126 501T215 537Q252 537 277 521T315
473T324 399Q324 392 319 392H296Q294 392 293 393T292 397Q294 446 275 475T215 504Q172 504 151 477T130 388V194Q130 133 151 105T216 77Q257 77 275 105T291 189Q291 195 296 195H319Q324 195 324 190Q326 119 300 82T216 44Z" />
<glyph unicode="&#xa3;" horiz-adv-x="420" d="M106 0Q101 0 101 5V21Q101 25 103 29Q117 54 123 85T129 152V506Q129 589 154 625T230 661Q268 661 289 642T319 587T328 498Q328 492 323 492H301Q296 492 296 498Q296 536 292 565T273 611T231 628Q197 628 180
602T163 505V159Q163 111 156 83T138 34H337Q342 34 342 28V5Q342 0 337 0H106ZM83 331Q78 331 78 336V357Q78 363 83 363H265Q270 363 270 357V336Q270 331 265 331H83Z" />
<glyph unicode="&#xa4;" horiz-adv-x="420" d="M97 126Q93 121 89 125L75 139Q71 143 75 148L116 203Q108 224 104 251T100 314Q100 349 104 376T116 425L75 480Q71 485 75 489L88 503Q93 507 97 502L132 455Q159 498 210 498Q261 498 288 455L324 503Q327 507
331 503L345 489Q348 486 345 480L304 425Q312 404 316 377T320 314Q320 279 316 252T304 203L345 148Q349 143 345 139L331 125Q327 121 323 126L288 173Q261 130 210 130Q159 130 132 173L97 126ZM210 160Q249 160 269 198T289 314Q289 393 269 430T210 468Q171
468 151 431T131 314Q131 236 151 198T210 160Z" />
<glyph unicode="&#xa5;" horiz-adv-x="420" d="M197 0Q193 0 193 5V225L67 648Q66 655 71 655H99Q103 655 104 651L180 385Q188 356 195 327T210 269H211Q219 298 226 327T242 386L317 651Q319 655 323 655H351Q355 655 353 648L227 225V5Q227 0 223 0H197ZM122
120Q116 120 116 124V144Q116 149 122 149H299Q304 149 304 144V124Q304 120 299 120H122ZM122 225Q116 225 116 230V249Q116 255 122 255H299Q304 255 304 249V230Q304 225 299 225H122Z" />
<glyph unicode="&#xa6;" horiz-adv-x="158" d="M67 392Q62 392 62 397V825Q62 830 67 830H91Q96 830 96 825V397Q96 392 91 392H67ZM67 -185Q62 -185 62 -180V248Q62 253 67 253H91Q96 253 96 248V-180Q96 -185 91 -185H67Z" />
<glyph unicode="&#xa7;" horiz-adv-x="276" d="M163 115L149 139Q182 148 201 175T220 241Q220 274 210 299T177 348L89 441Q62 469 52 495T41 558Q41 612 67 640T141 669Q191 669 217 639T244 550Q244 546 240 546H215Q211 546 211 550Q211 637 141 637Q75 637
75 559Q75 531 84 509T113 465L205 368Q231 341 242 312T253 242Q253 193 230 159T163 115ZM134 -117Q84 -117 58 -87T32 2Q32 7 35 7H60Q64 7 64 2Q64 -84 134 -84Q200 -84 200 -7Q200 22 192 44T163 87L71 184Q45 212 34 242T22 310Q22 360 46 393T112 437L127
413Q93 404 74 377T55 311Q55 278 65 253T98 204L187 111Q213 83 224 57T235 -6Q235 -59 209 -88T134 -117Z" />
<glyph unicode="&#xa8;" horiz-adv-x="200" d="M55 585Q43 585 37 591T30 610V617Q30 629 36 635T56 642Q68 642 74 636T80 617V610Q80 598 74 592T55 585ZM145 585Q133 585 127 591T120 610V617Q120 629 126 635T145 642Q157 642 163 636T170 617V610Q170 598
164 592T145 585Z" />
<glyph unicode="&#xa9;" horiz-adv-x="419" d="M209 -6Q156 -6 120 15T65 80T47 188V416Q47 481 65 524T119 588T209 610Q264 610 300 589T354 524T372 416V188Q372 124 354 81T300 16T209 -6ZM209 21Q276 21 310 60T345 187V417Q345 504 311 543T209 583Q142
583 108 544T74 417V187Q74 100 108 61T209 21ZM212 125Q173 125 154 152T134 231V367Q134 420 153 447T212 475Q252 475 270 448T288 371Q288 369 288 367T285 365H265Q262 365 262 371Q262 410 250 429T212 449Q161 449 161 366V233Q161 150 212 150Q238 150
250 169T262 229Q262 234 265 234H285Q287 234 287 233T288 228Q288 179 270 152T212 125Z" />
<glyph unicode="&#xaa;" horiz-adv-x="227" d="M93 331Q68 331 54 353T40 418Q40 464 60 488T120 519L159 526V579Q159 608 150 620T120 633Q75 633 79 581Q79 576 76 576H57Q52 576 51 582Q49 617 66 638T120 661Q143 662 158 653T180 627T187 582V415Q187 396
188 378T190 344Q190 338 186 338H168Q163 338 163 342Q162 353 162 361T161 375Q146 357 130 344T93 331ZM44 228Q40 228 40 234V253Q40 258 44 258H184Q189 258 189 253V234Q189 228 184 228H44ZM100 358Q115 358 129 370T159 402V500L121 494Q95 489 82 471T68
419Q68 388 76 373T100 358Z" />
<glyph unicode="&#xab;" horiz-adv-x="312" d="M237 93Q234 93 232 96L154 260Q153 262 154 266L234 429Q235 433 238 433H263Q266 433 267 432T266 426L188 263L265 100Q268 93 263 93H237ZM129 93Q126 93 125 96L47 260Q45 262 47 266L126 429Q128 433 131 433H155Q158
433 159 432T159 426L81 263L158 100Q160 93 155 93H129Z" />
<glyph unicode="&#xac;" horiz-adv-x="420" d="M301 157Q296 157 296 162V285H97Q92 285 92 290V312Q92 317 97 317H324Q329 317 329 312V162Q329 157 324 157H301Z" />
<glyph unicode="&#xad;" horiz-adv-x="290" d="M50 251Q46 251 46 256V276Q46 281 50 281H240Q245 281 245 276V256Q245 251 240 251H50Z" />
<glyph unicode="&#xae;" horiz-adv-x="344" d="M172 306Q109 306 77 348T45 477V526Q45 613 77 655T172 697Q236 697 267 655T299 526V477Q299 391 268 349T172 306ZM172 331Q226 331 250 366T274 477V526Q274 602 250 637T172 673Q137 673 114 657T81 609T70
526V477Q70 427 80 395T114 347T172 331ZM129 392Q126 392 126 395V612Q126 615 129 615H168Q197 615 211 601T226 552Q226 525 217 512T194 491L228 396Q230 392 226 392H208Q205 392 204 395L172 487H148V395Q148 392 146 392H129ZM148 507H169Q203 507 203 544V557Q203
577 195 585T169 594H148V507Z" />
<glyph unicode="&#xaf;" horiz-adv-x="191" d="M35 579Q30 579 30 584V607Q30 611 35 611H156Q161 611 161 607V584Q161 579 156 579H35Z" />
<glyph unicode="&#xb0;" horiz-adv-x="235" d="M117 425Q76 425 56 452T35 527V586Q35 635 55 662T117 689Q159 689 179 662T199 586V527Q199 479 179 452T117 425ZM117 452Q147 452 159 471T172 527V586Q172 625 160 643T117 662Q88 662 76 644T63 586V527Q63
490 75 471T117 452Z" />
<glyph unicode="&#xb1;" horiz-adv-x="420" d="M199 181Q194 181 194 186V285H95Q90 285 90 290V312Q90 317 95 317H194V417Q194 421 199 421H221Q226 421 226 417V317H326Q330 317 330 312V290Q330 285 326 285H226V186Q226 181 221 181H199ZM97 83Q92 83 92
88V110Q92 115 97 115H323Q329 115 329 110V88Q329 83 323 83H97Z" />
<glyph unicode="&#xb2;" horiz-adv-x="229" d="M39 358Q34 358 34 363V386Q34 438 47 471T79 526T117 568T150 610T163 670V678Q163 712 152 728T117 745Q89 745 77 725T67 664Q67 659 61 659H43Q37 659 37 664Q34 717 55 746T118 775Q157 775 175 751T194 676Q194
631 181 604T149 557T111 517T79 467T66 388H188Q191 388 192 387T194 383V363Q194 358 188 358H39Z" />
<glyph unicode="&#xb3;" horiz-adv-x="229" d="M112 353Q83 353 65 365T39 402T30 463Q30 469 35 469H54Q59 469 59 463Q59 422 71 403T112 383Q140 383 154 405T168 464V475Q168 515 155 534T112 553H86Q81 553 81 559V578Q81 583 86 583H111Q135 583 149 604T163
664V674Q163 708 152 726T113 745Q83 745 72 724T61 664Q61 659 56 659H37Q32 659 32 664Q30 718 50 746T114 775Q154 775 174 749T194 672Q194 631 182 607T151 571V570Q175 561 187 536T199 469Q199 412 177 383T112 353Z" />
<glyph unicode="&#xb4;" horiz-adv-x="162" d="M34 560Q32 560 31 561T31 566L95 684Q98 689 101 689H127Q131 689 132 687T131 682L62 564Q60 560 55 560H34Z" />
<glyph unicode="&#xb5;" horiz-adv-x="338" d="M59 -185Q55 -185 55 -180V476Q55 481 59 481H84Q89 481 89 476V125Q89 80 104 54T147 27Q174 27 199 48T249 102V476Q249 481 254 481H278Q283 481 283 476V72Q283 49 288 38T307 27Q314 27 319 28T329 31Q333 32
333 27V4Q333 1 329 -1Q324 -3 316 -4T299 -6Q278 -6 266 8T251 64V66Q226 35 202 15T146 -6Q125 -6 110 6T88 36V-180Q88 -185 84 -185H59Z" />
<glyph unicode="&#xb6;" horiz-adv-x="361" d="M135 -185Q129 -185 129 -180V313H112Q66 313 43 342T19 438V559Q19 624 42 653T112 683H304Q309 683 309 678V-180Q309 -185 304 -185H282Q276 -185 276 -180V649H162V-180Q162 -185 157 -185H135Z" />
<glyph unicode="&#xb7;" horiz-adv-x="154" d="M81 242Q68 242 61 249T54 270V277Q54 290 61 297T81 304Q94 304 101 297T109 277V270Q109 257 102 250T81 242Z" />
<glyph unicode="&#xb8;" horiz-adv-x="152" d="M69 -190Q58 -190 50 -189T34 -187Q30 -186 30 -182V-165Q30 -160 34 -160Q40 -161 46 -162T62 -163Q81 -163 87 -151T94 -116V-106Q94 -83 86 -73T60 -63H46Q42 -63 42 -57Q42 -54 42 -50T43 -43L58 14Q60 18 63
18H82Q86 18 85 12L69 -40H74Q95 -40 108 -54T122 -102V-118Q122 -153 110 -171T69 -190Z" />
<glyph unicode="&#xb9;" horiz-adv-x="229" d="M42 358Q36 358 36 363V383Q36 388 42 388H102V732L42 707Q37 705 37 710V731Q37 736 41 738L118 769Q121 770 122 770T125 770H127Q132 770 132 765V388H187Q192 388 192 383V363Q192 358 187 358H42Z" />
<glyph unicode="&#xba;" horiz-adv-x="234" d="M117 331Q80 331 60 354T39 423V568Q39 615 59 638T117 661Q154 661 174 638T195 568V423Q195 377 175 354T117 331ZM48 228Q44 228 44 234V253Q44 258 48 258H186Q190 258 190 253V234Q190 228 186 228H48ZM117
358Q142 358 154 373T166 422V570Q166 604 154 618T117 633Q92 633 80 619T67 570V422Q67 388 79 373T117 358Z" />
<glyph unicode="&#xbb;" horiz-adv-x="312" d="M157 93Q151 93 154 100L231 263L154 426Q152 430 153 431T156 433H181Q184 433 186 429L265 266Q267 262 265 260L187 96Q185 93 183 93H157ZM50 93Q43 93 46 100L124 263L46 426Q44 430 45 431T49 433H74Q76 433
78 429L158 266Q159 262 158 260L80 96Q78 93 75 93H50Z" />
<glyph unicode="&#xbc;" horiz-adv-x="527" d="M42 246Q36 246 36 251V271Q36 276 42 276H102V620L42 595Q37 593 37 598V619Q37 624 41 626L118 657Q121 658 122 658T125 658H127Q132 658 132 653V276H187Q192 276 192 271V251Q192 246 187 246H42ZM160 -23Q154
-23 156 -16L262 338L363 673Q364 678 369 678H390Q396 678 394 672L289 330L187 -18Q185 -23 181 -23H160ZM450 0Q445 0 445 5V87H318Q313 87 313 93V96Q313 99 313 101T314 106L417 404Q419 409 423 409H444Q447 409 448 408T448 403L350 117H445L446 263Q446
268 451 268H469Q473 268 473 263V117H506Q510 117 510 112V92Q510 87 506 87H473V5Q473 0 468 0H450Z" />
<glyph unicode="&#xbd;" horiz-adv-x="546" d="M42 246Q36 246 36 251V271Q36 276 42 276H102V620L42 595Q37 593 37 598V619Q37 624 41 626L118 657Q121 658 122 658T125 658H127Q132 658 132 653V276H187Q192 276 192 271V251Q192 246 187 246H42ZM160 -23Q154
-23 156 -16L262 338L363 673Q364 678 369 678H390Q396 678 394 672L289 330L187 -18Q185 -23 181 -23H160ZM355 0Q350 0 350 5V28Q350 80 363 113T395 168T433 210T466 252T479 312V320Q479 354 468 370T433 387Q405 387 393 367T383 306Q383 301 377 301H359Q353
301 353 306Q350 359 371 388T434 417Q473 417 491 393T510 318Q510 273 497 246T465 199T427 159T395 109T382 30H504Q507 30 508 29T510 25V5Q510 0 504 0H355Z" />
<glyph unicode="&#xbe;" horiz-adv-x="524" d="M112 241Q83 241 65 253T39 290T30 351Q30 357 35 357H54Q59 357 59 351Q59 310 71 291T112 271Q140 271 154 293T168 352V363Q168 403 155 422T112 441H86Q81 441 81 447V466Q81 471 86 471H111Q135 471 149 492T163
552V562Q163 596 152 614T113 633Q83 633 72 612T61 552Q61 547 56 547H37Q32 547 32 552Q30 606 50 634T114 663Q154 663 174 637T194 560Q194 519 182 495T151 459V458Q175 449 187 424T199 357Q199 300 177 271T112 241ZM157 -23Q151 -23 153 -16L259 338L360
673Q361 678 366 678H387Q393 678 391 672L286 330L184 -18Q182 -23 178 -23H157ZM448 0Q443 0 443 5V87H316Q311 87 311 93V96Q311 99 311 101T312 106L415 404Q417 409 421 409H442Q445 409 446 408T446 403L348 117H443L444 263Q444 268 449 268H467Q471 268
471 263V117H504Q508 117 508 112V92Q508 87 504 87H471V5Q471 0 466 0H448Z" />
<glyph unicode="&#xbf;" horiz-adv-x="279" d="M164 309Q168 309 168 304V251Q168 212 158 182T132 126T100 74T74 16T64 -56Q64 -108 81 -128T135 -148Q182 -148 199 -113T213 -12Q213 -6 218 -6H241Q244 -6 245 -7T246 -12Q251 -98 222 -139T134 -180Q82 -180
56 -152T30 -57Q30 -14 40 19T66 80T98 134T124 189T135 252V304Q135 309 139 309H164ZM151 488Q164 488 171 481T178 460V453Q178 440 171 433T151 426Q138 426 131 433T123 453V460Q123 473 130 480T151 488Z" />
<glyph unicode="&#xc0;" horiz-adv-x="330" d="M7 0Q1 0 2 6L142 651Q143 655 148 655H182Q187 655 188 651L328 6Q329 0 324 0H297Q293 0 292 4L193 478Q186 513 180 547T166 615H164Q158 581 152 546T137 476L38 4Q37 0 32 0H7ZM68 180L75 213H254L262 180H68ZM176
725Q171 725 169 729L108 834Q107 837 108 839T111 841H138Q141 841 142 840T144 836L201 731Q203 729 202 727T198 725H176Z" />
<glyph unicode="&#xc1;" horiz-adv-x="330" d="M7 0Q1 0 2 6L142 651Q143 655 148 655H182Q187 655 188 651L328 6Q329 0 324 0H297Q293 0 292 4L193 478Q186 513 180 547T166 615H164Q158 581 152 546T137 476L38 4Q37 0 32 0H7ZM68 180L75 213H254L262 180H68ZM133
725Q131 725 130 726T130 731L186 836Q190 841 193 841H220Q223 841 224 839T222 834L161 729Q160 725 154 725H133Z" />
<glyph unicode="&#xc2;" horiz-adv-x="330" d="M7 0Q1 0 2 6L142 651Q143 655 148 655H182Q187 655 188 651L328 6Q329 0 324 0H297Q293 0 292 4L193 478Q186 513 180 547T166 615H164Q158 581 152 546T137 476L38 4Q37 0 32 0H7ZM68 180L75 213H254L262 180H68ZM95
738Q90 735 90 739V760Q90 765 93 767L161 808Q165 810 169 808L238 767Q240 765 240 760V739Q240 735 235 738L165 778L95 738Z" />
<glyph unicode="&#xc3;" horiz-adv-x="330" d="M7 0Q1 0 2 6L142 651Q143 655 148 655H182Q187 655 188 651L328 6Q329 0 324 0H297Q293 0 292 4L193 478Q186 513 180 547T166 615H164Q158 581 152 546T137 476L38 4Q37 0 32 0H7ZM68 180L75 213H254L262 180H68ZM193
754Q174 754 162 761T135 769Q123 769 114 765T97 754Q92 752 92 758V778Q92 783 95 784Q101 790 111 795T138 800Q158 800 169 793T196 785Q208 785 217 788T234 797Q239 799 239 793V775Q239 770 237 767Q230 762 220 758T193 754Z" />
<glyph unicode="&#xc4;" horiz-adv-x="330" d="M7 0Q1 0 2 6L142 651Q143 655 148 655H182Q187 655 188 651L328 6Q329 0 324 0H297Q293 0 292 4L193 478Q186 513 180 547T166 615H164Q158 581 152 546T137 476L38 4Q37 0 32 0H7ZM68 180L75 213H254L262 180H68ZM121
746Q109 746 103 753T96 772V778Q96 790 102 796T122 803Q134 803 140 797T146 778V772Q146 760 140 753T121 746ZM211 746Q199 746 193 753T186 772V778Q186 790 192 796T211 803Q223 803 229 797T236 778V772Q236 760 230 753T211 746Z" />
<glyph unicode="&#xc5;" horiz-adv-x="330" d="M328 6Q329 0 324 0H297Q293 0 292 4L255 180H75L38 4Q37 0 32 0H7Q1 0 2 6L139 638Q103 652 103 706Q103 742 119 761T165 781Q195 781 211 762T228 706Q228 651 191 638L328 6ZM128 706Q128 654 165 654Q202 654
202 706Q202 757 165 757Q128 757 128 706ZM81 213H249L193 478Q186 513 180 547T166 616H164Q158 582 152 547T137 476L81 213Z" />
<glyph unicode="&#xc6;" horiz-adv-x="498" d="M6 0Q1 0 3 6L206 652Q208 655 211 655H449Q453 655 453 650V627Q453 622 449 622H265V351H436Q440 351 440 346V324Q440 319 436 319H265V33H449Q453 33 453 28V5Q453 0 449 0H235Q231 0 231 5V180H94L39 3Q38 0
34 0H6ZM103 213H231V536Q231 559 231 581T231 625H230Q223 602 217 579T203 533L103 213Z" />
<glyph unicode="&#xc7;" horiz-adv-x="390" d="M197 -6Q126 -6 89 41T51 183V472Q51 566 88 613T197 661Q249 661 282 637T329 566T339 453Q338 449 335 449H310Q304 449 305 454Q310 541 284 584T197 628Q142 628 114 589T85 469V186Q85 106 113 67T197 27Q259
27 285 71T307 201Q306 206 311 206H335Q340 206 340 201Q345 100 309 47T197 -6ZM201 -193Q190 -193 182 -192T166 -190Q162 -189 162 -185V-168Q162 -163 166 -163Q172 -164 178 -165T194 -166Q213 -166 219 -154T226 -119V-109Q226 -86 218 -76T192 -66H178Q174
-66 174 -60Q174 -57 174 -53T175 -46L190 11Q192 15 195 15H214Q218 15 217 9L201 -43H206Q227 -43 240 -57T254 -105V-121Q254 -156 242 -174T201 -193Z" />
<glyph unicode="&#xc8;" horiz-adv-x="329" d="M66 0Q61 0 61 5V650Q61 655 65 655H279Q284 655 284 650V627Q284 622 279 622H95V351H266Q270 351 270 346V324Q270 319 266 319H95V33H279Q284 33 284 28V5Q284 0 279 0H66ZM184 725Q179 725 177 729L116 834Q115
837 116 839T119 841H146Q149 841 150 840T152 836L209 731Q211 729 210 727T206 725H184Z" />
<glyph unicode="&#xc9;" horiz-adv-x="329" d="M66 0Q61 0 61 5V650Q61 655 65 655H279Q284 655 284 650V627Q284 622 279 622H95V351H266Q270 351 270 346V324Q270 319 266 319H95V33H279Q284 33 284 28V5Q284 0 279 0H66ZM140 725Q138 725 137 726T137 731L193
836Q197 841 200 841H227Q230 841 231 839T229 834L168 729Q167 725 161 725H140Z" />
<glyph unicode="&#xca;" horiz-adv-x="329" d="M66 0Q61 0 61 5V650Q61 655 65 655H279Q284 655 284 650V627Q284 622 279 622H95V351H266Q270 351 270 346V324Q270 319 266 319H95V33H279Q284 33 284 28V5Q284 0 279 0H66ZM102 738Q97 735 97 739V760Q97 765
100 767L168 808Q172 810 176 808L245 767Q247 765 247 760V739Q247 735 242 738L172 778L102 738Z" />
<glyph unicode="&#xcb;" horiz-adv-x="329" d="M66 0Q61 0 61 5V650Q61 655 65 655H279Q284 655 284 650V627Q284 622 279 622H95V351H266Q270 351 270 346V324Q270 319 266 319H95V33H279Q284 33 284 28V5Q284 0 279 0H66ZM128 746Q116 746 110 753T103 772V778Q103
790 109 796T129 803Q141 803 147 797T153 778V772Q153 760 147 753T128 746ZM218 746Q206 746 200 753T193 772V778Q193 790 199 796T218 803Q230 803 236 797T243 778V772Q243 760 237 753T218 746Z" />
<glyph unicode="&#xcc;" horiz-adv-x="155" d="M65 0Q61 0 61 5V650Q61 655 65 655H90Q95 655 95 650V5Q95 0 90 0H65ZM345 725Q340 725 338 729L277 834Q276 837 277 839T280 841H307Q310 841 311 840T313 836L370 731Q372 729 371 727T367 725H345Z" />
<glyph unicode="&#xcd;" horiz-adv-x="155" d="M65 0Q61 0 61 5V650Q61 655 65 655H90Q95 655 95 650V5Q95 0 90 0H65ZM46 725Q44 725 43 726T43 731L99 836Q103 841 106 841H133Q136 841 137 839T135 834L74 729Q73 725 67 725H46Z" />
<glyph unicode="&#xce;" horiz-adv-x="155" d="M65 0Q61 0 61 5V650Q61 655 65 655H90Q95 655 95 650V5Q95 0 90 0H65ZM264 738Q259 735 259 739V760Q259 765 262 767L330 808Q334 810 338 808L407 767Q409 765 409 760V739Q409 735 404 738L334 778L264 738Z" />
<glyph unicode="&#xcf;" horiz-adv-x="155" d="M65 0Q61 0 61 5V650Q61 655 65 655H90Q95 655 95 650V5Q95 0 90 0H65ZM290 746Q278 746 272 753T265 772V778Q265 790 271 796T291 803Q303 803 309 797T315 778V772Q315 760 309 753T290 746ZM380 746Q368 746
362 753T355 772V778Q355 790 361 796T380 803Q392 803 398 797T405 778V772Q405 760 399 753T380 746Z" />
<glyph unicode="&#xd0;" horiz-adv-x="394" d="M10 320Q6 320 6 325V346Q6 351 10 351H61H190Q194 351 194 346V325Q194 320 190 320H10ZM66 0Q61 0 61 5V650Q61 655 65 655H155Q253 655 300 592T347 386V278Q347 132 303 66T159 0H66ZM95 33H157Q243 33 278 90T313
277V386Q313 511 275 566T154 622H95V33Z" />
<glyph unicode="&#xd1;" horiz-adv-x="409" d="M65 0Q61 0 61 5V650Q61 655 65 655H108Q113 655 114 652L242 268Q256 232 268 194T292 118T316 44H318Q317 71 317 99T316 156T316 213T316 268V650Q316 655 320 655H345Q349 655 349 650V5Q349 0 345 0H302Q298
0 297 3L172 374Q151 434 132 494T94 611H93Q93 573 93 533T94 452T94 373V5Q94 0 90 0H65ZM232 754Q213 754 201 761T174 769Q162 769 153 765T136 754Q131 752 131 758V778Q131 783 134 784Q140 790 150 795T177 800Q197 800 208 793T235 785Q247 785 256 788T273
797Q278 799 278 793V775Q278 770 276 767Q269 762 259 758T232 754Z" />
<glyph unicode="&#xd2;" horiz-adv-x="395" d="M197 -6Q127 -6 89 39T51 174V480Q51 572 89 616T197 661Q268 661 306 617T344 480V174Q344 84 306 39T197 -6ZM197 27Q252 27 281 63T310 176V478Q310 555 281 591T197 628Q142 628 114 592T85 478V176Q85 100 113
64T197 27ZM208 725Q203 725 201 729L140 834Q139 837 140 839T143 841H170Q173 841 174 840T176 836L233 731Q235 729 234 727T230 725H208Z" />
<glyph unicode="&#xd3;" horiz-adv-x="395" d="M197 -6Q127 -6 89 39T51 174V480Q51 572 89 616T197 661Q268 661 306 617T344 480V174Q344 84 306 39T197 -6ZM197 27Q252 27 281 63T310 176V478Q310 555 281 591T197 628Q142 628 114 592T85 478V176Q85 100 113
64T197 27ZM165 725Q163 725 162 726T162 731L218 836Q222 841 225 841H252Q255 841 256 839T254 834L193 729Q192 725 186 725H165Z" />
<glyph unicode="&#xd4;" horiz-adv-x="395" d="M197 -6Q127 -6 89 39T51 174V480Q51 572 89 616T197 661Q268 661 306 617T344 480V174Q344 84 306 39T197 -6ZM197 27Q252 27 281 63T310 176V478Q310 555 281 591T197 628Q142 628 114 592T85 478V176Q85 100 113
64T197 27ZM127 738Q122 735 122 739V760Q122 765 125 767L193 808Q197 810 201 808L270 767Q272 765 272 760V739Q272 735 267 738L197 778L127 738Z" />
<glyph unicode="&#xd5;" horiz-adv-x="395" d="M197 -6Q127 -6 89 39T51 174V480Q51 572 89 616T197 661Q268 661 306 617T344 480V174Q344 84 306 39T197 -6ZM197 27Q252 27 281 63T310 176V478Q310 555 281 591T197 628Q142 628 114 592T85 478V176Q85 100 113
64T197 27ZM224 754Q205 754 193 761T166 769Q154 769 145 765T128 754Q123 752 123 758V778Q123 783 126 784Q132 790 142 795T169 800Q189 800 200 793T227 785Q239 785 248 788T265 797Q270 799 270 793V775Q270 770 268 767Q261 762 251 758T224 754Z" />
<glyph unicode="&#xd6;" horiz-adv-x="395" d="M197 -6Q127 -6 89 39T51 174V480Q51 572 89 616T197 661Q268 661 306 617T344 480V174Q344 84 306 39T197 -6ZM197 27Q252 27 281 63T310 176V478Q310 555 281 591T197 628Q142 628 114 592T85 478V176Q85 100 113
64T197 27ZM152 746Q140 746 134 753T127 772V778Q127 790 133 796T153 803Q165 803 171 797T177 778V772Q177 760 171 753T152 746ZM242 746Q230 746 224 753T217 772V778Q217 790 223 796T242 803Q254 803 260 797T267 778V772Q267 760 261 753T242 746Z" />
<glyph unicode="&#xd7;" horiz-adv-x="420" d="M133 209L117 224Q114 228 117 231L187 302L117 371Q115 375 117 378L133 394Q137 399 140 394L210 324L280 394Q284 397 287 394L303 379Q308 375 303 372L233 302L303 231Q308 228 303 224L287 208Q284 206 280
208L210 278L140 209Q137 204 133 209Z" />
<glyph unicode="&#xd8;" horiz-adv-x="395" d="M44 -49Q40 -49 42 -43L82 65L91 88L283 599L288 615L321 700Q322 704 326 704H349Q354 704 352 698L312 593L303 568L111 55L105 38L73 -45Q72 -49 68 -49H44ZM197 -6Q127 -6 89 39T51 174V480Q51 572 89 616T197
661Q268 661 306 617T344 480V174Q344 84 306 39T197 -6ZM197 27Q252 27 281 63T310 176V478Q310 555 281 591T197 628Q142 628 114 592T85 478V176Q85 100 113 64T197 27Z" />
<glyph unicode="&#xd9;" horiz-adv-x="397" d="M198 -6Q125 -6 91 44T57 196V650Q57 655 61 655H86Q91 655 91 650V197Q91 110 116 69T198 27Q255 27 280 68T306 197V650Q306 655 310 655H335Q340 655 340 650V196Q340 94 306 44T198 -6ZM209 725Q204 725 202
729L141 834Q140 837 141 839T144 841H171Q174 841 175 840T177 836L234 731Q236 729 235 727T231 725H209Z" />
<glyph unicode="&#xda;" horiz-adv-x="397" d="M198 -6Q125 -6 91 44T57 196V650Q57 655 61 655H86Q91 655 91 650V197Q91 110 116 69T198 27Q255 27 280 68T306 197V650Q306 655 310 655H335Q340 655 340 650V196Q340 94 306 44T198 -6ZM166 725Q164 725 163
726T163 731L219 836Q223 841 226 841H253Q256 841 257 839T255 834L194 729Q193 725 187 725H166Z" />
<glyph unicode="&#xdb;" horiz-adv-x="397" d="M198 -6Q125 -6 91 44T57 196V650Q57 655 61 655H86Q91 655 91 650V197Q91 110 116 69T198 27Q255 27 280 68T306 197V650Q306 655 310 655H335Q340 655 340 650V196Q340 94 306 44T198 -6ZM128 738Q123 735 123
739V760Q123 765 126 767L194 808Q198 810 202 808L271 767Q273 765 273 760V739Q273 735 268 738L198 778L128 738Z" />
<glyph unicode="&#xdc;" horiz-adv-x="397" d="M198 -6Q125 -6 91 44T57 196V650Q57 655 61 655H86Q91 655 91 650V197Q91 110 116 69T198 27Q255 27 280 68T306 197V650Q306 655 310 655H335Q340 655 340 650V196Q340 94 306 44T198 -6ZM153 746Q141 746 135
753T128 772V778Q128 790 134 796T154 803Q166 803 172 797T178 778V772Q178 760 172 753T153 746ZM243 746Q231 746 225 753T218 772V778Q218 790 224 796T243 803Q255 803 261 797T268 778V772Q268 760 262 753T243 746Z" />
<glyph unicode="&#xdd;" horiz-adv-x="327" d="M150 0Q147 0 147 5V225L13 648Q11 655 16 655H45Q49 655 50 651L131 380Q139 353 147 325T163 269H164Q172 297 180 325T197 380L278 652Q279 655 283 655H310Q315 655 314 648L181 225V5Q181 0 177 0H150ZM131
725Q129 725 128 726T128 731L184 836Q188 841 191 841H218Q221 841 222 839T220 834L159 729Q158 725 152 725H131Z" />
<glyph unicode="&#xde;" horiz-adv-x="335" d="M65 0Q61 0 61 5V650Q61 655 65 655H90Q95 655 95 650V532H147Q225 532 265 487T306 339Q306 244 270 195T150 146H95V5Q95 0 90 0H65ZM95 179H147Q217 179 244 219T272 338Q272 424 241 462T150 500H95V179Z" />
<glyph unicode="&#xdf;" horiz-adv-x="335" d="M222 -6Q178 -6 159 17T140 95Q140 100 143 100H169Q172 100 172 95Q172 58 183 43T222 27Q251 27 263 49T275 120Q275 158 265 184T238 230T207 269T181 311T170 366Q170 397 179 420T199 465T220 513T230 575Q230
621 212 638T162 656Q123 656 106 627T89 533V5Q89 0 85 0H58Q55 0 55 5V528Q55 614 81 651T163 689Q211 689 237 664T264 578Q264 538 255 510T234 459T213 416T204 367Q204 342 214 323T240 285T272 245T298 194T309 122Q309 58 288 26T222 -6Z" />
<glyph unicode="&#xe0;" horiz-adv-x="304" d="M226 0Q222 0 221 5Q219 30 218 55T217 95L215 98V361Q215 413 202 433T151 454Q115 454 99 432T87 365Q87 360 82 360H59Q54 360 53 366Q48 423 74 454T152 487Q204 488 226 459T249 362V114Q249 82 250 55T252
6Q252 0 248 0H226ZM114 -6Q76 -6 57 26T37 115Q37 179 64 219T155 267L220 276V246L157 237Q111 232 91 201T71 117Q71 75 84 51T122 27Q143 27 164 43T221 107L222 71Q188 27 165 11T114 -6ZM161 560Q156 560 154 564L85 682Q84 685 85 687T88 689H114Q119 689
121 684L185 566Q187 563 186 562T182 560H161Z" />
<glyph unicode="&#xe1;" horiz-adv-x="304" d="M226 0Q222 0 221 5Q219 30 218 55T217 95L215 98V361Q215 413 202 433T151 454Q115 454 99 432T87 365Q87 360 82 360H59Q54 360 53 366Q48 423 74 454T152 487Q204 488 226 459T249 362V114Q249 82 250 55T252
6Q252 0 248 0H226ZM114 -6Q76 -6 57 26T37 115Q37 179 64 219T155 267L220 276V246L157 237Q111 232 91 201T71 117Q71 75 84 51T122 27Q143 27 164 43T221 107L222 71Q188 27 165 11T114 -6ZM119 560Q117 560 116 561T116 566L180 684Q183 689 186 689H212Q216
689 217 687T216 682L147 564Q145 560 140 560H119Z" />
<glyph unicode="&#xe2;" horiz-adv-x="304" d="M226 0Q222 0 221 5Q219 30 218 55T217 95L215 98V361Q215 413 202 433T151 454Q115 454 99 432T87 365Q87 360 82 360H59Q54 360 53 366Q48 423 74 454T152 487Q204 488 226 459T249 362V114Q249 82 250 55T252
6Q252 0 248 0H226ZM114 -6Q76 -6 57 26T37 115Q37 179 64 219T155 267L220 276V246L157 237Q111 232 91 201T71 117Q71 75 84 51T122 27Q143 27 164 43T221 107L222 71Q188 27 165 11T114 -6ZM85 565Q80 562 80 567V589Q80 594 83 596L150 638Q153 641 157 638L224
596Q227 594 227 589V567Q227 563 221 565L153 607L85 565Z" />
<glyph unicode="&#xe3;" horiz-adv-x="304" d="M226 0Q222 0 221 5Q219 30 218 55T217 95L215 98V361Q215 413 202 433T151 454Q115 454 99 432T87 365Q87 360 82 360H59Q54 360 53 366Q48 423 74 454T152 487Q204 488 226 459T249 362V114Q249 82 250 55T252
6Q252 0 248 0H226ZM114 -6Q76 -6 57 26T37 115Q37 179 64 219T155 267L220 276V246L157 237Q111 232 91 201T71 117Q71 75 84 51T122 27Q143 27 164 43T221 107L222 71Q188 27 165 11T114 -6ZM180 577Q168 577 159 581T141 588T124 592Q114 592 105 587T88 577Q83
574 83 580V600Q83 605 86 607Q92 613 102 617T126 622Q139 622 147 619T164 611T181 607Q192 607 200 611T217 619Q223 622 223 616V598Q223 593 220 590Q213 583 203 580T180 577Z" />
<glyph unicode="&#xe4;" horiz-adv-x="304" d="M226 0Q222 0 221 5Q219 30 218 55T217 95L215 98V361Q215 413 202 433T151 454Q115 454 99 432T87 365Q87 360 82 360H59Q54 360 53 366Q48 423 74 454T152 487Q204 488 226 459T249 362V114Q249 82 250 55T252
6Q252 0 248 0H226ZM114 -6Q76 -6 57 26T37 115Q37 179 64 219T155 267L220 276V246L157 237Q111 232 91 201T71 117Q71 75 84 51T122 27Q143 27 164 43T221 107L222 71Q188 27 165 11T114 -6ZM108 585Q96 585 90 591T83 610V617Q83 629 89 635T109 642Q121 642
127 636T133 617V610Q133 598 127 592T108 585ZM198 585Q186 585 180 591T173 610V617Q173 629 179 635T198 642Q210 642 216 636T223 617V610Q223 598 217 592T198 585Z" />
<glyph unicode="&#xe5;" horiz-adv-x="304" d="M226 0Q222 0 221 5Q219 30 218 55T217 95L215 98V361Q215 413 202 433T151 454Q115 454 99 432T87 365Q87 360 82 360H59Q54 360 53 366Q48 423 74 454T152 487Q204 488 226 459T249 362V114Q249 82 250 55T252
6Q252 0 248 0H226ZM114 -6Q76 -6 57 26T37 115Q37 179 64 219T155 267L220 276V246L157 237Q111 232 91 201T71 117Q71 75 84 51T122 27Q143 27 164 43T221 107L222 71Q188 27 165 11T114 -6ZM153 547Q124 547 108 567T91 621Q91 656 107 676T153 696Q183 696
199 676T216 621Q216 587 200 567T153 547ZM153 571Q190 571 190 621Q190 672 153 672Q117 672 117 621Q117 571 153 571Z" />
<glyph unicode="&#xe6;" horiz-adv-x="480" d="M114 -6Q76 -6 57 26T37 115Q37 179 65 217T155 265L215 274V361Q215 410 202 432T151 454Q115 454 101 432T87 365Q87 360 82 360H59Q54 360 53 366Q51 423 75 454T152 487Q188 488 208 473T236 423Q250 456 274
471T329 487Q380 487 409 450T438 339V246Q438 241 433 241H249V151Q249 89 269 58T331 27Q367 27 383 50T400 120Q400 126 403 126H429Q433 126 433 121Q433 58 407 26T331 -6Q290 -6 264 13T225 74Q192 31 167 13T114 -6ZM122 27Q142 27 163 42T218 103Q217 113
216 124T215 147V242L157 234Q112 228 92 199T71 117Q71 75 84 51T122 27ZM249 273H404V338Q404 396 384 425T328 454Q291 454 270 425T249 338V273Z" />
<glyph unicode="&#xe7;" horiz-adv-x="314" d="M163 -6Q104 -7 74 29T44 143V339Q44 415 73 451T163 487Q200 487 225 471T263 423T272 349Q272 342 267 342H243Q241 342 240 343T239 347Q241 396 222 425T163 454Q119 454 99 427T78 338V144Q78 83 98 55T163
27Q204 27 222 55T239 139Q239 145 243 145H267Q272 145 272 140Q273 69 247 32T163 -6ZM163 63Q152 63 144 64T128 66Q124 67 124 71V88Q124 93 128 93Q134 92 140 91T156 90Q175 90 181 102T188 137V147Q188 170 180 180T154 190H140Q136 190 136 196Q136 199
136 203T137 210L152 267Q154 271 157 271H176Q180 271 179 265L163 213H168Q189 213 202 199T216 151V135Q216 100 204 82T163 63Z" />
<glyph unicode="&#xe8;" horiz-adv-x="316" d="M163 -6Q104 -6 74 32T44 150V338Q44 415 74 451T159 487Q214 487 244 450T275 339V246Q275 241 270 241H78V151Q78 89 98 58T163 27Q202 27 219 50T236 120Q236 126 240 126H265Q269 126 269 121Q270 58 243 26T163
-6ZM78 273H241V338Q241 396 220 425T159 454Q120 454 99 425T78 338V273ZM166 560Q161 560 159 564L90 682Q89 685 90 687T93 689H119Q124 689 126 684L190 566Q192 563 191 562T187 560H166Z" />
<glyph unicode="&#xe9;" horiz-adv-x="316" d="M163 -6Q104 -6 74 32T44 150V338Q44 415 74 451T159 487Q214 487 244 450T275 339V246Q275 241 270 241H78V151Q78 89 98 58T163 27Q202 27 219 50T236 120Q236 126 240 126H265Q269 126 269 121Q270 58 243 26T163
-6ZM78 273H241V338Q241 396 220 425T159 454Q120 454 99 425T78 338V273ZM124 560Q122 560 121 561T121 566L185 684Q188 689 191 689H217Q221 689 222 687T221 682L152 564Q150 560 145 560H124Z" />
<glyph unicode="&#xea;" horiz-adv-x="316" d="M163 -6Q104 -6 74 32T44 150V338Q44 415 74 451T159 487Q214 487 244 450T275 339V246Q275 241 270 241H78V151Q78 89 98 58T163 27Q202 27 219 50T236 120Q236 126 240 126H265Q269 126 269 121Q270 58 243 26T163
-6ZM78 273H241V338Q241 396 220 425T159 454Q120 454 99 425T78 338V273ZM90 565Q85 562 85 567V589Q85 594 88 596L155 638Q158 641 162 638L229 596Q232 594 232 589V567Q232 563 226 565L158 607L90 565Z" />
<glyph unicode="&#xeb;" horiz-adv-x="316" d="M163 -6Q104 -6 74 32T44 150V338Q44 415 74 451T159 487Q214 487 244 450T275 339V246Q275 241 270 241H78V151Q78 89 98 58T163 27Q202 27 219 50T236 120Q236 126 240 126H265Q269 126 269 121Q270 58 243 26T163
-6ZM78 273H241V338Q241 396 220 425T159 454Q120 454 99 425T78 338V273ZM114 585Q102 585 96 591T89 610V617Q89 629 95 635T115 642Q127 642 133 636T139 617V610Q139 598 133 592T114 585ZM204 585Q192 585 186 591T179 610V617Q179 629 185 635T204 642Q216
642 222 636T229 617V610Q229 598 223 592T204 585Z" />
<glyph unicode="&#xec;" horiz-adv-x="144" d="M59 0Q55 0 55 5V476Q55 481 59 481H84Q89 481 89 476V5Q89 0 84 0H59ZM336 560Q331 560 329 564L260 682Q259 685 260 687T263 689H289Q294 689 296 684L360 566Q362 563 361 562T357 560H336Z" />
<glyph unicode="&#xed;" horiz-adv-x="144" d="M59 0Q55 0 55 5V476Q55 481 59 481H84Q89 481 89 476V5Q89 0 84 0H59ZM38 560Q36 560 35 561T35 566L99 684Q102 689 105 689H131Q135 689 136 687T135 682L66 564Q64 560 59 560H38Z" />
<glyph unicode="&#xee;" horiz-adv-x="144" d="M59 0Q55 0 55 5V476Q55 481 59 481H84Q89 481 89 476V5Q89 0 84 0H59ZM260 565Q255 562 255 567V589Q255 594 258 596L325 638Q328 641 332 638L399 596Q402 594 402 589V567Q402 563 396 565L328 607L260 565Z" />
<glyph unicode="&#xef;" horiz-adv-x="144" d="M59 0Q55 0 55 5V476Q55 481 59 481H84Q89 481 89 476V5Q89 0 84 0H59ZM283 585Q271 585 265 591T258 610V617Q258 629 264 635T284 642Q296 642 302 636T308 617V610Q308 598 302 592T283 585ZM373 585Q361 585
355 591T348 610V617Q348 629 354 635T373 642Q385 642 391 636T398 617V610Q398 598 392 592T373 585Z" />
<glyph unicode="&#xf0;" horiz-adv-x="327" d="M163 -6Q104 -6 74 31T44 141V315Q44 381 69 413T139 445Q175 445 205 422T254 372L255 331Q233 361 205 386T145 411Q112 411 95 387T78 312V142Q78 84 99 56T163 27Q207 27 228 55T249 142V364Q250 441 237 499T194
597T118 660Q116 662 116 664T116 668L128 686Q130 689 131 689T136 688Q215 649 249 567T283 364V141Q283 68 253 31T163 -6ZM123 529Q120 526 117 530L106 547Q105 550 109 553L261 669Q265 672 266 668L277 651Q279 647 277 645L123 529Z" />
<glyph unicode="&#xf1;" horiz-adv-x="344" d="M260 0Q256 0 256 5V358Q256 408 242 431T200 454Q170 454 141 431T84 372L82 405Q112 442 143 464T209 487Q248 487 269 458T290 362V5Q290 0 285 0H260ZM59 0Q55 0 55 5V367Q55 399 55 426T52 475Q51 481 56 481H77Q82
481 83 476Q85 457 86 428T87 384L89 381V5Q89 0 84 0H59ZM199 577Q187 577 178 581T160 588T143 592Q133 592 124 587T107 577Q102 574 102 580V600Q102 605 105 607Q111 613 121 617T145 622Q158 622 166 619T183 611T200 607Q211 607 219 611T236 619Q242 622
242 616V598Q242 593 239 590Q232 583 222 580T199 577Z" />
<glyph unicode="&#xf2;" horiz-adv-x="327" d="M163 -6Q104 -6 74 31T44 141V339Q44 413 74 450T163 487Q223 487 253 451T283 339V141Q283 68 253 31T163 -6ZM163 27Q207 27 228 55T249 142V338Q249 397 228 425T163 454Q120 454 99 426T78 338V142Q78 84 99
56T163 27ZM171 560Q166 560 164 564L95 682Q94 685 95 687T98 689H124Q129 689 131 684L195 566Q197 563 196 562T192 560H171Z" />
<glyph unicode="&#xf3;" horiz-adv-x="327" d="M163 -6Q104 -6 74 31T44 141V339Q44 413 74 450T163 487Q223 487 253 451T283 339V141Q283 68 253 31T163 -6ZM163 27Q207 27 228 55T249 142V338Q249 397 228 425T163 454Q120 454 99 426T78 338V142Q78 84 99
56T163 27ZM129 560Q127 560 126 561T126 566L190 684Q193 689 196 689H222Q226 689 227 687T226 682L157 564Q155 560 150 560H129Z" />
<glyph unicode="&#xf4;" horiz-adv-x="327" d="M163 -6Q104 -6 74 31T44 141V339Q44 413 74 450T163 487Q223 487 253 451T283 339V141Q283 68 253 31T163 -6ZM163 27Q207 27 228 55T249 142V338Q249 397 228 425T163 454Q120 454 99 426T78 338V142Q78 84 99
56T163 27ZM95 565Q90 562 90 567V589Q90 594 93 596L160 638Q163 641 167 638L234 596Q237 594 237 589V567Q237 563 231 565L163 607L95 565Z" />
<glyph unicode="&#xf5;" horiz-adv-x="327" d="M163 -6Q104 -6 74 31T44 141V339Q44 413 74 450T163 487Q223 487 253 451T283 339V141Q283 68 253 31T163 -6ZM163 27Q207 27 228 55T249 142V338Q249 397 228 425T163 454Q120 454 99 426T78 338V142Q78 84 99
56T163 27ZM191 577Q179 577 170 581T152 588T135 592Q125 592 116 587T99 577Q94 574 94 580V600Q94 605 97 607Q103 613 113 617T137 622Q150 622 158 619T175 611T192 607Q203 607 211 611T228 619Q234 622 234 616V598Q234 593 231 590Q224 583 214 580T191
577Z" />
<glyph unicode="&#xf6;" horiz-adv-x="327" d="M163 -6Q104 -6 74 31T44 141V339Q44 413 74 450T163 487Q223 487 253 451T283 339V141Q283 68 253 31T163 -6ZM163 27Q207 27 228 55T249 142V338Q249 397 228 425T163 454Q120 454 99 426T78 338V142Q78 84 99
56T163 27ZM119 585Q107 585 101 591T94 610V617Q94 629 100 635T120 642Q132 642 138 636T144 617V610Q144 598 138 592T119 585ZM209 585Q197 585 191 591T184 610V617Q184 629 190 635T209 642Q221 642 227 636T234 617V610Q234 598 228 592T209 585Z" />
<glyph unicode="&#xf7;" horiz-adv-x="420" d="M98 285Q92 285 92 290V312Q92 317 98 317H323Q329 317 329 312V290Q329 285 323 285H98ZM210 163Q201 163 195 169T189 186V199Q189 211 195 217T210 223Q220 223 225 217T231 199V186Q231 176 226 170T210 163ZM210
379Q201 379 195 385T189 402V415Q189 426 195 432T210 438Q220 438 225 432T231 415V402Q231 391 226 385T210 379Z" />
<glyph unicode="&#xf8;" horiz-adv-x="327" d="M23 -51Q21 -51 20 -50T20 -45L69 67L76 83L231 434L237 449L275 535Q277 538 280 538H303Q308 538 306 532L259 425L251 407L93 48L88 36L50 -48Q49 -51 45 -51H23ZM163 -6Q104 -6 74 31T44 141V339Q44 413 74 450T163
487Q223 487 253 451T283 339V141Q283 68 253 31T163 -6ZM163 27Q207 27 228 55T249 142V338Q249 397 228 425T163 454Q120 454 99 426T78 338V142Q78 84 99 56T163 27Z" />
<glyph unicode="&#xf9;" horiz-adv-x="337" d="M133 -6Q93 -6 74 20T55 112V476Q55 481 59 481H84Q89 481 89 476V114Q89 63 102 45T141 27Q172 27 200 52T256 113L258 79Q229 43 199 19T133 -6ZM259 0Q255 0 254 5Q253 28 252 54T250 95L248 99V476Q248 481 253
481H278Q282 481 282 476V114Q282 82 283 55T285 6Q286 0 281 0H259ZM176 560Q171 560 169 564L100 682Q99 685 100 687T103 689H129Q134 689 136 684L200 566Q202 563 201 562T197 560H176Z" />
<glyph unicode="&#xfa;" horiz-adv-x="337" d="M133 -6Q93 -6 74 20T55 112V476Q55 481 59 481H84Q89 481 89 476V114Q89 63 102 45T141 27Q172 27 200 52T256 113L258 79Q229 43 199 19T133 -6ZM259 0Q255 0 254 5Q253 28 252 54T250 95L248 99V476Q248 481 253
481H278Q282 481 282 476V114Q282 82 283 55T285 6Q286 0 281 0H259ZM135 560Q133 560 132 561T132 566L196 684Q199 689 202 689H228Q232 689 233 687T232 682L163 564Q161 560 156 560H135Z" />
<glyph unicode="&#xfb;" horiz-adv-x="337" d="M133 -6Q93 -6 74 20T55 112V476Q55 481 59 481H84Q89 481 89 476V114Q89 63 102 45T141 27Q172 27 200 52T256 113L258 79Q229 43 199 19T133 -6ZM259 0Q255 0 254 5Q253 28 252 54T250 95L248 99V476Q248 481 253
481H278Q282 481 282 476V114Q282 82 283 55T285 6Q286 0 281 0H259ZM100 565Q95 562 95 567V589Q95 594 98 596L165 638Q168 641 172 638L239 596Q242 594 242 589V567Q242 563 236 565L168 607L100 565Z" />
<glyph unicode="&#xfc;" horiz-adv-x="337" d="M133 -6Q93 -6 74 20T55 112V476Q55 481 59 481H84Q89 481 89 476V114Q89 63 102 45T141 27Q172 27 200 52T256 113L258 79Q229 43 199 19T133 -6ZM259 0Q255 0 254 5Q253 28 252 54T250 95L248 99V476Q248 481 253
481H278Q282 481 282 476V114Q282 82 283 55T285 6Q286 0 281 0H259ZM124 585Q112 585 106 591T99 610V617Q99 629 105 635T125 642Q137 642 143 636T149 617V610Q149 598 143 592T124 585ZM214 585Q202 585 196 591T189 610V617Q189 629 195 635T214 642Q226 642
232 636T239 617V610Q239 598 233 592T214 585Z" />
<glyph unicode="&#xfd;" horiz-adv-x="302" d="M94 -185Q88 -185 90 -178L134 3L21 475Q19 481 23 481H51Q56 481 57 475L120 197Q128 163 135 129T150 60H151Q158 94 166 128T181 197L245 475Q246 481 250 481H277Q279 481 280 479T280 472L124 -180Q123 -185
118 -185H94ZM117 560Q115 560 114 561T114 566L178 684Q181 689 184 689H210Q214 689 215 687T214 682L145 564Q143 560 138 560H117Z" />
<glyph unicode="&#xfe;" horiz-adv-x="332" d="M59 -185Q55 -185 55 -180V678Q55 683 59 683H84Q89 683 89 678V415Q116 446 144 466T208 487Q247 487 267 459T287 366V141Q287 67 262 31T188 -6Q163 -6 138 2T89 25V-180Q89 -185 84 -185H59ZM183 27Q217 27 235
55T253 141V362Q253 410 240 432T198 454Q168 454 141 432T89 379V58Q111 46 135 37T183 27Z" />
<glyph unicode="&#xff;" horiz-adv-x="302" d="M94 -185Q88 -185 90 -178L134 3L21 475Q19 481 23 481H51Q56 481 57 475L120 197Q128 163 135 129T150 60H151Q158 94 166 128T181 197L245 475Q246 481 250 481H277Q279 481 280 479T280 472L124 -180Q123 -185
118 -185H94ZM106 585Q94 585 88 591T81 610V617Q81 629 87 635T107 642Q119 642 125 636T131 617V610Q131 598 125 592T106 585ZM196 585Q184 585 178 591T171 610V617Q171 629 177 635T196 642Q208 642 214 636T221 617V610Q221 598 215 592T196 585Z" />
<glyph unicode="&#x2013;" horiz-adv-x="440" d="M50 251Q46 251 46 256V276Q46 281 50 281H389Q395 281 395 276V256Q395 251 389 251H50Z" />
<glyph unicode="&#x2014;" horiz-adv-x="523" d="M50 251Q46 251 46 256V276Q46 281 50 281H472Q478 281 478 276V256Q478 251 472 251H50Z" />
<glyph unicode="&#x2018;" horiz-adv-x="129" d="M106 655Q111 655 110 649L66 429Q64 423 60 423H31Q28 423 27 424T26 430L81 650Q82 655 86 655H106Z" />
<glyph unicode="&#x2019;" horiz-adv-x="146" d="M29 423Q25 423 26 430L70 650Q71 655 76 655H105Q108 655 109 654T109 648L55 428Q54 423 50 423H29Z" />
<glyph unicode="&#x201a;" horiz-adv-x="146" d="M29 -141Q25 -141 26 -134L70 86Q71 91 76 91H105Q108 91 109 90T109 84L55 -136Q54 -141 50 -141H29Z" />
<glyph unicode="&#x201c;" horiz-adv-x="238" d="M215 655Q220 655 219 649L174 429Q173 423 169 423H140Q137 423 136 424T135 430L190 650Q191 655 195 655H215ZM106 655Q111 655 110 649L66 429Q64 423 60 423H31Q28 423 27 424T26 430L81 650Q82 655 86 655H106Z" />
<glyph unicode="&#x201d;" horiz-adv-x="255" d="M29 423Q25 423 26 430L70 650Q71 655 76 655H105Q108 655 109 654T109 648L55 428Q54 423 50 423H29ZM138 423Q134 423 135 430L179 650Q180 655 185 655H214Q217 655 218 654T218 648L164 428Q163 423 159 423H138Z" />
<glyph unicode="&#x201e;" horiz-adv-x="255" d="M29 -141Q25 -141 26 -134L70 86Q71 91 76 91H105Q108 91 109 90T109 84L55 -136Q54 -141 50 -141H29ZM138 -141Q134 -141 135 -134L179 86Q180 91 185 91H214Q217 91 218 90T218 84L164 -136Q163 -141 159 -141H138Z" />
<glyph unicode="&#x2022;" horiz-adv-x="180" d="M90 217Q72 217 62 227T51 258V286Q51 306 61 316T90 326Q109 326 119 316T130 286V258Q130 237 120 227T90 217Z" />
<glyph unicode="&#x2039;" horiz-adv-x="204" d="M129 93Q126 93 125 96L47 260Q45 262 47 266L126 429Q128 433 131 433H155Q158 433 159 432T159 426L81 263L158 100Q160 93 155 93H129Z" />
<glyph unicode="&#x203a;" horiz-adv-x="204" d="M49 93Q43 93 46 100L123 263L45 426Q44 430 45 431T48 433H73Q76 433 78 429L157 266Q158 262 157 260L79 96Q77 93 75 93H49Z" />
</font>
</defs>
</svg>
