<?xml version="1.0" standalone="no"?>
<!DOCTYPE svg PUBLIC "-//W3C//DTD SVG 1.1//EN" "http://www.w3.org/Graphics/SVG/1.1/DTD/svg11.dtd">
<svg xmlns="http://www.w3.org/2000/svg">
<defs >
<font id="SofiaSans" horiz-adv-x="504" ><font-face
    font-family="Sofia Sans SemiBold"
    units-per-em="1000"
    panose-1="0 0 0 0 0 0 0 0 0 0"
    ascent="900"
    descent="-300"
    alphabetic="0" />
<glyph unicode=" " horiz-adv-x="207" />
<glyph unicode="!" horiz-adv-x="243" d="M84 207Q73 207 73 217L66 644Q66 655 76 655H166Q177 655 177 644L170 217Q170 207 159 207H84ZM122 -12Q89 -12 74 4T58 49V62Q58 90 73 106T122 123Q155 123 170 107T186 62V49Q186 21 171 5T122 -12Z" />
<glyph unicode="&quot;" horiz-adv-x="348" d="M212 415Q202 415 202 426V672Q202 683 212 683H290Q301 683 301 672V426Q301 415 290 415H212ZM58 415Q48 415 48 426V672Q48 683 58 683H136Q147 683 147 672V426Q147 415 136 415H58Z" />
<glyph unicode="#" horiz-adv-x="606" d="M130 0Q120 0 120 11V122H40Q29 122 29 132V191Q29 202 40 202H120V411H40Q29 411 29 422V481Q29 491 40 491H120V602Q120 613 130 613H203Q213 613 213 602V491H393V602Q393 613 403 613H476Q486 613 486 602V491H566Q577
491 577 481V422Q577 411 566 411H486V202H566Q577 202 577 191V132Q577 122 566 122H486V11Q486 0 476 0H403Q393 0 393 11V122H213V11Q213 0 203 0H130ZM213 202H393V411H213V202Z" />
<glyph unicode="$" horiz-adv-x="630" d="M309 -12Q207 -12 150 36T95 184Q95 195 106 195H182Q192 195 192 183Q192 132 220 103T312 74Q375 74 403 95T432 168Q432 191 425 208T402 238T359 264L225 327Q164 356 134 397T104 500Q105 587 161 626T311 666Q413
666 469 619T524 474Q524 463 514 463H437Q427 463 427 474Q427 528 398 554T310 580Q259 580 232 561T203 501Q203 465 222 443T282 402L414 339Q453 322 479 301T518 248T532 169Q532 80 472 34T309 -12ZM282 -89Q272 -89 272 -79V4L360 9V-79Q360 -89 350 -89H282ZM272
649V732Q272 742 282 742H350Q360 742 360 732V644L272 649Z" />
<glyph unicode="%" horiz-adv-x="944" d="M243 0Q228 0 236 13L434 343L612 649Q617 657 625 657H701Q715 657 708 644L521 333L332 7Q327 0 319 0H243ZM227 314Q141 314 99 356T56 475V505Q56 583 99 625T227 667Q313 667 355 625T397 505V475Q397 399 355 357T227
314ZM227 388Q272 388 292 408T313 475V506Q313 552 293 572T227 592Q182 592 161 572T140 506V475Q140 429 161 409T227 388ZM717 -12Q631 -12 589 30T547 150V180Q547 257 589 299T717 341Q802 341 844 299T887 180V150Q887 73 844 31T717 -12ZM717 63Q762 63
782 83T803 149V180Q803 226 783 246T717 267Q672 267 652 247T631 180V149Q631 103 651 83T717 63Z" />
<glyph unicode="&amp;" horiz-adv-x="675" d="M548 0Q544 0 541 1T534 5L183 345Q134 392 111 435T88 522Q88 597 131 632T253 667Q325 667 365 632T406 531Q406 499 392 469T349 409T276 344L216 400Q249 425 270 446T302 487T313 527Q313 556 298 571T249 586Q214
586 198 569T182 522Q182 493 200 464T256 397L656 14Q661 10 660 5T650 0H548ZM257 -12Q185 -12 139 11T71 73T48 163Q48 211 65 249T115 319T192 383L248 324Q208 292 185 268T152 220T142 167Q142 126 173 99T266 72Q345 72 392 106T459 204T480 357Q480 368
491 368H564Q575 368 575 357Q575 242 540 160T435 33T257 -12Z" />
<glyph unicode="&apos;" horiz-adv-x="194" d="M58 415Q48 415 48 426V672Q48 683 58 683H136Q147 683 147 672V426Q147 415 136 415H58Z" />
<glyph unicode="(" horiz-adv-x="274" d="M168 -149Q132 -120 111 -92T80 -30T70 54V501Q70 551 80 584T113 645T168 705Q171 708 176 708T184 705L232 658Q240 650 232 642Q209 620 195 601T174 558T167 498V58Q167 22 174 -1T196 -43T232 -87Q239 -96 232 -102L184
-149Q181 -153 177 -153T168 -149Z" />
<glyph unicode=")" horiz-adv-x="274" d="M89 -149L41 -102Q34 -96 42 -87Q65 -63 79 -44T100 -2T107 58V498Q107 534 101 557T80 600T42 642Q34 650 41 658L89 705Q93 708 97 708T106 705Q141 675 162 647T193 585T204 501V54Q204 5 195 -29T164 -92T106 -149Q102
-152 98 -152T89 -149Z" />
<glyph unicode="*" horiz-adv-x="413" d="M142 411L95 447Q91 450 91 455T94 463L159 535L63 554Q57 555 56 559T56 568L75 623Q77 628 81 629T90 629L177 589L168 689Q166 699 177 699H234Q246 699 244 689L235 588L323 629Q328 631 332 630T338 622L357 568Q359
562 357 559T350 554L252 534L318 463Q322 459 322 455T316 447L268 412Q259 405 253 416L206 499L157 415Q154 410 151 409T142 411Z" />
<glyph unicode="+" horiz-adv-x="600" d="M268 110Q257 110 257 120V259H101Q90 259 90 270V331Q90 342 101 342H257V480Q257 491 268 491H332Q343 491 343 480V342H499Q510 342 510 331V270Q510 259 499 259H343V120Q343 110 332 110H268Z" />
<glyph unicode="," horiz-adv-x="246" d="M39 -133Q26 -133 29 -120L80 110Q82 120 91 120H183Q197 120 192 105L116 -125Q113 -133 105 -133H39Z" />
<glyph unicode="-" horiz-adv-x="488" d="M76 227Q65 227 65 238V293Q65 304 76 304H412Q423 304 423 293V238Q423 227 412 227H76Z" />
<glyph unicode="." horiz-adv-x="247" d="M123 -12Q89 -12 74 5T58 51V64Q58 93 73 110T123 127Q157 127 173 110T189 64V51Q189 22 173 5T123 -12Z" />
<glyph unicode="/" horiz-adv-x="382" d="M22 0Q7 0 12 12L274 646Q278 655 287 655H360Q375 655 370 643L107 9Q104 0 94 0H22Z" />
<glyph unicode="0" horiz-adv-x="586" d="M293 -12Q184 -12 124 49T63 220V435Q63 545 123 606T293 667Q403 667 463 606T524 435V220Q524 110 464 49T293 -12ZM293 76Q355 76 389 112T423 214V441Q423 507 389 543T293 579Q231 579 197 543T163 441V214Q163 149
197 113T293 76Z" />
<glyph unicode="1" horiz-adv-x="466" d="M49 0Q38 0 38 11V78Q38 89 49 89H203V545L56 499Q45 495 45 506V575Q45 584 52 586L266 657Q270 658 273 658T281 659H293Q303 659 303 649V89H441Q452 89 452 78V11Q452 0 441 0H49Z" />
<glyph unicode="2" horiz-adv-x="545" d="M75 0Q64 0 64 11V84Q64 132 81 169T128 235T191 288T260 335T324 378T370 425T388 481V501Q388 541 360 560T276 580Q221 580 195 556T168 489Q168 478 158 478H81Q71 478 71 489Q70 547 94 587T166 647T285 667Q387
667 437 625T488 498Q488 447 471 410T425 345T363 295T296 252T234 209T188 157T171 89H474Q485 89 485 78V11Q485 0 474 0H75Z" />
<glyph unicode="3" horiz-adv-x="554" d="M267 -12Q195 -12 148 10T79 73T57 167Q57 178 67 178H143Q154 178 154 167Q154 121 182 98T267 75Q329 75 363 101T397 175V199Q397 293 271 293H187Q176 293 176 304V367Q176 377 187 377H268Q325 377 353 402T382 475V499Q382
540 354 560T268 580Q210 580 183 559T155 489Q155 479 144 479H69Q58 479 58 489Q58 578 112 622T276 667Q381 667 431 626T482 499Q482 436 456 397T386 343V340Q442 322 470 283T498 181Q498 87 439 38T267 -12Z" />
<glyph unicode="4" horiz-adv-x="555" d="M361 0Q350 0 350 11V124H20Q9 124 9 135V146Q9 155 13 161L275 647Q281 655 289 655H370Q384 655 378 643L146 213H351L355 425Q355 435 366 435H438Q448 435 448 425V213H521Q531 213 531 203V135Q531 124 521 124H448V11Q448
0 438 0H361Z" />
<glyph unicode="5" horiz-adv-x="531" d="M249 -12Q182 -12 137 9T68 70T46 166Q47 177 57 177H132Q143 177 143 166Q143 122 171 99T255 75Q323 75 353 103T383 190V217Q383 257 370 283T327 322T253 335Q219 335 173 326T85 299Q76 295 71 299T66 311L96 644Q98
655 107 655H433Q444 655 444 644V577Q444 566 433 566H183L171 404Q203 412 231 415T283 418Q378 418 431 366T484 208Q484 99 424 44T249 -12Z" />
<glyph unicode="6" horiz-adv-x="576" d="M293 -12Q183 -12 123 44T63 209V448Q63 552 124 609T299 667Q361 667 406 651T477 602T502 523Q502 513 492 513H416Q405 513 405 523Q405 551 377 566T300 581Q232 581 198 550T163 453V207Q163 145 196 110T292 74Q354
74 388 109T422 207V233Q422 284 395 309T316 334Q275 334 232 317T148 266L149 346Q193 381 242 399T345 418Q433 418 477 370T522 226Q522 112 463 50T293 -12Z" />
<glyph unicode="7" horiz-adv-x="538" d="M148 0Q142 0 140 4T140 13L392 567H150V490Q150 479 139 479H62Q51 479 51 490V644Q51 655 62 655H515Q526 655 526 644V639Q526 631 523 623L246 9Q242 0 232 0H148Z" />
<glyph unicode="8" horiz-adv-x="582" d="M291 -12Q176 -12 114 35T51 177Q51 241 81 285T165 349Q122 368 101 403T80 496Q80 576 134 621T291 667Q394 667 448 622T503 496Q503 438 482 403T417 349Q470 330 500 286T531 177Q531 82 469 35T291 -12ZM291 72Q361
72 396 99T431 176V192Q431 248 394 279T291 310Q226 310 189 279T151 192V176Q151 126 186 99T291 72ZM291 385Q345 385 374 410T403 479V494Q403 536 375 560T291 585Q237 585 208 561T179 494V479Q179 436 208 411T291 385Z" />
<glyph unicode="9" horiz-adv-x="587" d="M287 -12Q186 -12 131 29T76 151Q76 162 87 162H162Q173 162 173 151Q173 123 202 99T287 74Q357 74 390 108T424 209V448Q424 511 389 546T290 581Q228 581 196 548T163 451V416Q163 370 193 344T275 318Q316 318 357
335T439 386V307Q393 269 349 251T253 233Q159 233 111 285T63 437Q63 550 121 608T291 667Q404 667 464 608T524 439V216Q524 104 465 46T287 -12Z" />
<glyph unicode=":" horiz-adv-x="245" d="M122 344Q89 344 74 361T58 406V419Q58 447 73 464T122 481Q156 481 171 464T187 419V406Q187 378 172 361T122 344ZM122 -12Q89 -12 74 5T58 50V63Q58 91 73 108T122 125Q156 125 171 108T187 63V50Q187 22 172 5T122 -12Z" />
<glyph unicode=";" horiz-adv-x="251" d="M25 -133Q20 -133 17 -129T14 -120L65 111Q67 120 75 120H167Q172 120 175 116T177 106L100 -125Q97 -133 90 -133H25ZM128 344Q95 344 80 361T64 406V419Q64 447 79 464T128 481Q162 481 177 464T193 419V406Q193 378
178 361T128 344Z" />
<glyph unicode="&lt;" horiz-adv-x="600" d="M498 97L98 253Q89 256 89 265V329Q89 338 98 341L498 496Q511 502 511 488V415Q511 405 502 402L191 297L502 191Q511 188 511 179V105Q511 91 498 97Z" />
<glyph unicode="=" horiz-adv-x="600" d="M101 347Q90 347 90 358V417Q90 428 101 428H499Q510 428 510 417V358Q510 347 499 347H101ZM101 173Q90 173 90 184V244Q90 255 101 255H499Q510 255 510 244V184Q510 173 499 173H101Z" />
<glyph unicode="&gt;" horiz-adv-x="600" d="M102 97Q89 91 89 105V179Q89 188 98 191L409 297L98 402Q89 405 89 415V488Q89 502 102 496L502 341Q511 338 511 329V265Q511 256 502 253L102 97Z" />
<glyph unicode="?" horiz-adv-x="478" d="M177 207Q166 207 166 217V256Q166 289 183 314T227 362T278 408T321 457T338 516Q338 550 315 566T244 583Q187 583 165 557T142 482Q143 470 133 470H56Q49 470 47 474T44 483Q43 576 94 621T247 667Q344 667 392 631T440
526Q440 481 422 447T379 385T327 336T283 294T264 253L263 217Q263 207 253 207H177ZM219 -12Q186 -12 171 4T155 49V62Q155 90 170 106T219 123Q252 123 267 107T283 62V49Q283 21 268 5T219 -12Z" />
<glyph unicode="@" horiz-adv-x="997" d="M489 -185Q342 -185 247 -143T106 -17T59 191V284Q59 408 105 500T248 643T491 695Q718 695 828 600T938 320V274Q938 198 911 140T832 50T706 18Q652 18 619 40T572 99T564 182L593 393Q571 397 547 400T497 403Q457
403 429 379T391 293L378 195Q371 146 384 123T437 100Q472 100 505 121T574 174L589 101Q551 69 504 43T405 17Q331 17 303 61T285 188L300 300Q311 386 359 435T497 484Q534 484 564 480T621 471T682 463Q692 462 691 451L657 196Q650 149 661 125T711 101Q769
101 805 146T841 273V320Q841 463 756 536T491 610Q382 610 308 572T195 462T156 283V192Q156 95 192 31T302 -66T492 -99H629Q639 -99 639 -110V-174Q639 -185 629 -185H489Z" />
<glyph unicode="A" horiz-adv-x="572" d="M9 0Q-3 0 0 12L219 646Q222 655 231 655H338Q348 655 351 646L572 12Q575 0 563 0H477Q467 0 464 9L324 441Q314 472 304 503T284 566H282Q273 535 263 505T243 443L105 9Q102 0 92 0H9ZM132 146L154 231H413L436 146H132Z" />
<glyph unicode="B" horiz-adv-x="580" d="M91 0Q80 0 80 11V644Q80 655 91 655H278Q394 655 452 615T510 492Q510 437 484 403T400 348V346Q468 333 503 292T538 183Q538 89 476 45T278 0H91ZM181 86H279Q364 86 400 110T437 190Q437 246 400 272T282 298H181V86ZM181
377H274Q344 377 376 401T409 476Q409 527 376 548T266 570H181V377Z" />
<glyph unicode="C" horiz-adv-x="638" d="M322 -12Q198 -12 133 49T68 228V426Q68 544 133 605T323 667Q404 667 464 640T553 563T573 442Q572 436 570 432T562 428H482Q471 428 472 439Q475 505 437 542T324 579Q249 579 209 540T169 426V229Q169 154 209 115T324
76Q400 76 439 113T472 216Q471 227 482 227H561Q571 227 573 213Q579 145 550 95T461 16T322 -12Z" />
<glyph unicode="D" horiz-adv-x="645" d="M91 0Q80 0 80 11V644Q80 655 91 655H278Q432 655 508 584T584 367V313Q584 155 509 78T278 0H91ZM181 86H271Q380 86 431 140T483 309V371Q483 472 432 520T271 569H181V86Z" />
<glyph unicode="E" horiz-adv-x="536" d="M91 0Q80 0 80 11V644Q80 655 91 655H459Q469 655 469 644V576Q469 565 459 565H181V375H435Q445 375 445 365V300Q445 289 435 289H181V90H459Q469 90 469 79V11Q469 0 459 0H91Z" />
<glyph unicode="F" horiz-adv-x="509" d="M91 0Q80 0 80 11V644Q80 655 91 655H459Q469 655 469 644V576Q469 565 459 565H181V366H421Q431 366 431 355V289Q431 279 421 279H181V11Q181 0 170 0H91Z" />
<glyph unicode="G" horiz-adv-x="656" d="M306 -12Q232 -12 179 16T97 98T68 228V427Q68 541 136 604T325 667Q408 667 467 640T554 564T573 450Q572 439 562 439L482 440Q471 440 472 451Q475 492 459 520T411 564T327 579Q249 579 209 541T169 426V229Q169 152
207 114T323 76Q400 76 440 113T481 221V257H334Q323 257 323 267V327Q323 338 334 338H565Q576 338 576 327V136Q576 104 577 73T583 12Q585 6 582 3T574 0H509Q505 0 502 2T498 9Q495 22 494 38T491 72H490Q472 44 445 26T382 -2T306 -12Z" />
<glyph unicode="H" horiz-adv-x="664" d="M91 0Q80 0 80 11V644Q80 655 91 655H170Q181 655 181 644V380H483V644Q483 655 494 655H574Q584 655 584 644V11Q584 0 574 0H494Q483 0 483 11V292H181V11Q181 0 170 0H91Z" />
<glyph unicode="I" horiz-adv-x="261" d="M91 0Q80 0 80 11V644Q80 655 91 655H170Q181 655 181 644V11Q181 0 170 0H91Z" />
<glyph unicode="J" horiz-adv-x="271" d="M37 -145Q16 -149 13 -139L-7 -70Q-11 -59 10 -54Q50 -44 70 -9T90 87V644Q90 655 101 655H180Q191 655 191 644V92Q191 -11 152 -69T37 -145Z" />
<glyph unicode="K" horiz-adv-x="604" d="M91 0Q80 0 80 11V644Q80 655 91 655H170Q181 655 181 644V461Q181 431 181 401T179 341H180Q202 367 224 393T269 445L449 649Q453 655 462 655H563Q569 655 572 652T569 642L341 389L589 13Q592 7 590 4T582 0H482Q474
0 469 7L272 311L181 211V11Q181 0 170 0H91Z" />
<glyph unicode="L" horiz-adv-x="481" d="M91 0Q80 0 80 11V644Q80 655 91 655H171Q181 655 181 644V90H451Q462 90 462 79V11Q462 0 451 0H91Z" />
<glyph unicode="M" horiz-adv-x="776" d="M76 0Q65 0 65 11L79 644Q79 655 90 655H206Q214 655 218 647L389 267L558 647Q562 655 570 655H687Q697 655 697 644L711 11Q711 0 701 0H623Q613 0 613 11L603 377Q602 415 604 453T607 529H604Q589 492 573 454T538
379L401 86Q398 79 389 79H386Q378 79 374 86L236 383Q219 419 204 456T173 529H171Q173 493 173 455T173 380L164 11Q164 0 153 0H76Z" />
<glyph unicode="N" horiz-adv-x="665" d="M91 0Q80 0 80 11V644Q80 655 91 655H218Q228 655 231 647L407 292Q425 256 439 226T465 169T487 117H489Q489 144 489 175T488 237T487 296V644Q487 655 497 655H575Q586 655 586 644V11Q586 0 575 0H449Q440 0 437 8L265
353Q249 385 235 416T206 477T179 537H177Q178 504 178 473T179 410T179 345V11Q179 0 168 0H91Z" />
<glyph unicode="O" horiz-adv-x="646" d="M323 -12Q195 -12 132 50T68 228V427Q68 543 131 605T323 667Q451 667 514 605T578 427V228Q578 113 515 51T323 -12ZM323 77Q399 77 438 116T477 231V424Q477 500 438 539T323 578Q248 578 209 539T169 424V231Q169 156
208 117T323 77Z" />
<glyph unicode="P" horiz-adv-x="551" d="M91 0Q80 0 80 11V644Q80 655 91 655H266Q391 655 452 602T514 447Q514 345 452 292T266 239H181V11Q181 0 170 0H91ZM181 324H264Q341 324 377 353T413 444Q413 510 377 539T263 569H181V324Z" />
<glyph unicode="Q" horiz-adv-x="646" d="M447 -182Q402 -182 371 -159T326 -88T314 36Q314 46 324 46L395 43Q406 43 406 32Q404 -37 418 -66T466 -96Q474 -96 482 -94T498 -91Q504 -89 507 -92T510 -100V-161Q510 -170 499 -174Q490 -177 476 -179T447 -182ZM323
-12Q195 -12 132 50T68 228V427Q68 543 131 605T323 667Q451 667 514 605T578 427V228Q578 113 515 51T323 -12ZM323 77Q399 77 438 116T477 231V424Q477 500 438 539T323 578Q248 578 209 539T169 424V231Q169 156 208 117T323 77Z" />
<glyph unicode="R" horiz-adv-x="608" d="M91 0Q80 0 80 11V644Q80 655 91 655H291Q415 655 473 608T531 469Q531 398 498 351T402 285V284L567 13Q570 8 568 4T559 0H467Q458 0 454 7L296 271H181V11Q181 0 170 0H91ZM181 351H284Q361 351 395 378T430 464Q430
521 398 545T290 569H181V351Z" />
<glyph unicode="S" horiz-adv-x="570" d="M278 -12Q155 -12 98 39T48 178Q49 195 61 195H138Q150 195 150 180Q150 125 183 100T285 75Q351 75 384 98T418 168Q418 191 411 207T384 237T334 263L187 324Q140 344 112 368T71 423T58 494Q59 578 114 622T277 666Q351
666 404 645T484 583T506 482Q504 464 494 464H416Q411 464 409 468T407 482Q410 528 375 554T275 580Q218 580 189 560T159 498Q159 476 167 460T194 430T246 402L391 341Q438 322 466 298T507 243T519 168Q519 83 461 36T278 -12Z" />
<glyph unicode="T" horiz-adv-x="539" d="M230 0Q219 0 219 11V565H43Q32 565 32 576V644Q32 655 43 655H497Q508 655 508 644V576Q508 565 497 565H320V11Q320 0 309 0H230Z" />
<glyph unicode="U" horiz-adv-x="647" d="M324 -12Q204 -12 140 49T75 229V644Q75 655 86 655H165Q176 655 176 644V229Q176 156 213 116T324 76Q397 76 434 116T472 229V644Q472 655 482 655H562Q573 655 573 644V228Q573 114 507 51T324 -12Z" />
<glyph unicode="V" horiz-adv-x="594" d="M239 0Q230 0 226 9L14 643Q11 655 23 655H109Q119 655 122 646L252 234Q263 200 273 165T294 94H296Q306 128 317 163T339 232L473 646Q476 655 486 655H571Q583 655 580 643L364 9Q361 0 351 0H239Z" />
<glyph unicode="W" horiz-adv-x="859" d="M211 0Q202 0 200 9L19 643Q16 655 29 655H109Q119 655 121 646L228 258Q235 234 241 208T253 157T265 107H266Q276 142 286 176T308 245L388 508L352 632Q350 637 353 640T361 644H442Q452 644 454 634L561 239Q571 206
579 173T596 107H597Q602 130 608 156T620 208T632 258L735 646Q737 655 747 655H830Q843 655 839 643L665 9Q663 0 653 0H547Q537 0 535 9L471 231Q461 265 452 298T434 366H432Q423 333 414 300T393 233L326 9Q322 0 314 0H211Z" />
<glyph unicode="X" horiz-adv-x="563" d="M13 0Q7 0 5 3T6 13L219 337L20 642Q17 648 18 651T27 655H123Q131 655 135 648L238 488Q249 470 261 450T284 412H285Q296 432 308 452T333 492L433 648Q438 655 446 655H538Q545 655 546 652T545 642L347 336L556 13Q560
8 558 4T550 0H453Q446 0 440 7L331 177Q319 196 306 218T281 260H280Q268 241 256 220T230 179L121 7Q116 0 108 0H13Z" />
<glyph unicode="Y" horiz-adv-x="548" d="M234 0Q223 0 223 11V225L10 642Q7 648 9 651T17 655H109Q118 655 121 647L222 438Q235 411 248 382T274 326H275Q289 355 302 383T329 441L428 647Q432 655 441 655H531Q536 655 538 652T538 642L324 225V11Q324 0 314 0H234Z" />
<glyph unicode="Z" horiz-adv-x="550" d="M29 0Q18 0 18 10V13Q18 19 23 27L307 467Q323 492 338 516T371 565V566Q343 565 315 565T257 565H61Q50 565 50 576V644Q50 655 61 655H518Q529 655 529 645V642Q529 636 525 628L244 198Q226 170 209 144T173 90V89Q205
90 237 90T301 90H495Q506 90 506 79V11Q506 0 495 0H29Z" />
<glyph unicode="[" horiz-adv-x="275" d="M81 -152Q70 -152 70 -141V696Q70 706 81 706H273Q284 706 284 696V638Q284 627 273 627H167V-72H273Q284 -72 284 -83V-141Q284 -152 273 -152H81Z" />
<glyph unicode="\" horiz-adv-x="382" d="M287 0Q278 0 274 9L12 643Q7 655 22 655H94Q104 655 107 646L370 12Q375 0 360 0H287Z" />
<glyph unicode="]" horiz-adv-x="275" d="M2 -152Q-9 -152 -9 -141V-83Q-9 -72 2 -72H108V627H2Q-9 627 -9 638V696Q-9 706 2 706H194Q204 706 204 696V-141Q204 -152 194 -152H2Z" />
<glyph unicode="^" horiz-adv-x="514" d="M53 350Q47 350 45 353T45 363L211 675Q215 683 224 683H291Q300 683 304 675L469 363Q472 357 470 354T462 350H388Q379 350 375 358L257 594L139 358Q135 350 127 350H53Z" />
<glyph unicode="_" horiz-adv-x="542" d="M14 -137Q3 -137 3 -126V-71Q3 -61 14 -61H528Q539 -61 539 -71V-126Q539 -137 528 -137H14Z" />
<glyph unicode="`" horiz-adv-x="228" d="M130 556Q122 556 118 563L32 687Q29 691 30 694T37 698H116Q126 698 129 691L196 567Q202 556 191 556H130Z" />
<glyph unicode="a" horiz-adv-x="499" d="M356 0Q350 0 348 4T343 14Q342 23 339 48T334 95L329 134V333Q329 380 311 399T246 419Q162 419 163 360Q163 349 153 349H76Q65 349 64 367Q59 429 109 465T249 502Q341 502 385 461T429 334V123Q429 89 431 61T436
12Q438 0 425 0H356ZM165 -12Q106 -12 75 23T44 126Q44 178 64 211T129 262T251 286L345 294L344 226L254 218Q191 213 167 195T142 135Q142 103 155 87T195 71Q226 71 260 92T348 169L350 92Q316 56 287 33T228 -1T165 -12Z" />
<glyph unicode="b" horiz-adv-x="538" d="M271 -12Q236 -12 206 -8T144 1T70 9V672Q70 683 81 683H159Q170 683 170 672V83Q191 80 215 77T259 74Q321 74 350 105T379 200V308Q379 363 360 388T302 414Q270 414 237 396T151 331L155 420Q201 463 243 482T331 502Q404
502 441 457T479 320V191Q479 90 428 39T271 -12Z" />
<glyph unicode="c" horiz-adv-x="521" d="M268 -12Q165 -12 111 39T57 185V304Q57 400 112 451T269 502Q332 502 376 483T443 429T466 350Q465 328 455 328H378Q368 328 368 344Q368 378 342 396T270 415Q213 415 185 386T157 295V195Q157 134 185 105T269 75Q315
75 341 95T367 145Q367 161 377 161H454Q464 161 465 151Q466 76 416 32T268 -12Z" />
<glyph unicode="d" horiz-adv-x="544" d="M203 -12Q133 -12 96 33T59 170V300Q59 398 106 450T239 502Q276 502 318 492T385 466L389 383Q359 399 324 407T261 416Q210 416 185 385T159 290V173Q159 124 178 100T235 75Q259 75 282 84T332 114T393 170L394 88Q362
56 332 34T271 0T203 -12ZM401 0Q389 0 388 11Q386 26 383 48T381 87L374 136V672Q374 683 385 683H463Q474 683 474 672V116Q474 101 475 82T477 44T480 14Q483 0 470 0H401Z" />
<glyph unicode="e" horiz-adv-x="524" d="M264 -12Q162 -12 110 34T57 171V304Q57 401 109 451T263 502Q364 502 416 453T468 310V232Q468 221 458 221H157V189Q157 128 183 100T267 72Q311 72 335 86T359 129Q359 140 371 140H448Q457 140 459 130Q463 63 411
26T264 -12ZM157 297H369V302Q369 362 343 390T264 418Q210 418 184 389T157 302V297Z" />
<glyph unicode="f" horiz-adv-x="373" d="M116 0Q111 0 108 3T105 11V405H29Q25 405 22 408T18 416V479Q18 484 21 487T29 490H105V537Q105 614 149 654T272 695Q298 695 324 691T367 679Q384 673 384 663V601Q384 595 380 593T362 596Q346 602 325 606T285 611Q245
611 225 592T205 533V490H342Q353 490 353 479V416Q353 412 351 409T343 405H205V11Q205 6 202 3T194 0H116Z" />
<glyph unicode="g" horiz-adv-x="518" d="M255 -197Q136 -197 84 -166T31 -71Q31 -32 50 -2T109 48L186 20Q159 12 146 -7T133 -52Q133 -88 161 -102T259 -116Q334 -116 362 -102T390 -49Q390 -22 378 -10T336 4L152 15Q118 17 93 39T67 107Q67 139 82 161T134
210L196 178Q174 170 165 158T156 130Q156 114 167 107T201 98L365 88Q428 84 458 50T489 -51Q489 -128 433 -162T255 -197ZM263 159Q167 159 121 201T75 330Q75 417 121 459T266 502Q361 502 406 460T452 329Q452 242 407 201T263 159ZM263 241Q315 241 334 261T354
329Q354 379 334 399T263 420Q213 420 193 400T173 329Q173 281 193 261T263 241ZM390 446L313 477Q317 522 322 553T332 607Q335 619 344 619H415Q427 619 423 608Q413 576 406 541T390 446Z" />
<glyph unicode="h" horiz-adv-x="557" d="M398 0Q387 0 387 11V325Q387 371 369 392T312 414Q274 414 236 391T154 321L153 404Q184 437 213 458T274 491T341 502Q413 502 450 461T487 336V11Q487 0 477 0H398ZM81 0Q70 0 70 11V672Q70 683 81 683H159Q170 683
170 672V11Q170 0 159 0H81Z" />
<glyph unicode="i" horiz-adv-x="240" d="M81 0Q70 0 70 11V479Q70 490 81 490H159Q170 490 170 479V11Q170 0 159 0H81ZM120 567Q89 567 74 583T59 626V638Q59 665 74 681T120 697Q152 697 166 681T181 638V626Q181 600 167 584T120 567Z" />
<glyph unicode="j" horiz-adv-x="240" d="M48 -190Q40 -195 34 -187L-13 -130Q-16 -125 -16 -122T-10 -115Q15 -97 33 -71T60 -11T70 70V479Q70 484 73 487T81 490H159Q164 490 167 487T170 479V66Q170 4 158 -44T118 -128T48 -190ZM121 567Q90 567 75 583T60
626V638Q60 665 75 681T121 697Q153 697 167 681T182 638V626Q182 600 168 584T121 567Z" />
<glyph unicode="k" horiz-adv-x="502" d="M81 0Q70 0 70 11V672Q70 683 81 683H159Q170 683 170 672V420Q170 386 170 352T168 282H170Q187 303 205 324T242 365L350 484Q354 490 362 490H465Q472 490 474 486T471 477L305 301L485 13Q489 8 487 4T478 0H385Q377
0 372 7L234 229L170 163V11Q170 0 159 0H81Z" />
<glyph unicode="l" horiz-adv-x="240" d="M81 0Q70 0 70 11V672Q70 683 81 683H159Q170 683 170 672V11Q170 0 159 0H81Z" />
<glyph unicode="m" horiz-adv-x="843" d="M81 0Q70 0 70 11V366Q70 394 69 423T63 477Q61 490 75 490H145Q155 490 156 482Q158 468 161 451T165 416Q208 459 247 480T335 502Q386 502 417 479T461 411Q505 457 546 479T636 502Q704 502 738 461T773 337V11Q773
0 762 0H684Q673 0 673 11V325Q673 370 657 392T605 414Q575 414 544 396T471 338V11Q471 0 461 0H382Q371 0 371 11V325Q371 370 355 392T304 414Q273 414 242 396T170 338V11Q170 0 159 0H81Z" />
<glyph unicode="n" horiz-adv-x="557" d="M398 0Q387 0 387 11V325Q387 371 369 392T311 414Q274 414 238 393T152 321L150 402Q182 436 212 458T273 491T340 502Q412 502 449 461T487 336V11Q487 0 477 0H398ZM81 0Q70 0 70 11V366Q70 394 68 425T63 476Q61 490
74 490H145Q155 490 157 480Q159 471 161 455T165 421T167 390L170 358V11Q170 0 159 0H81Z" />
<glyph unicode="o" horiz-adv-x="539" d="M270 -12Q167 -12 112 38T57 189V301Q57 402 111 452T270 502Q373 502 427 452T482 301V189Q482 88 428 38T270 -12ZM270 75Q329 75 355 105T382 198V292Q382 354 356 384T270 415Q210 415 184 385T157 292V198Q157 135
183 105T270 75Z" />
<glyph unicode="p" horiz-adv-x="539" d="M301 -12Q265 -12 224 -3T157 24L155 106Q182 91 215 83T276 74Q330 74 354 105T379 200V308Q379 363 360 388T302 414Q269 414 235 395T150 328L147 412Q179 442 208 462T267 492T331 502Q404 502 441 457T479 320V189Q479
90 434 39T301 -12ZM81 -185Q70 -185 70 -174V374Q70 399 68 427T63 477Q62 490 74 490H145Q156 490 157 480Q159 472 161 459T164 434T165 415L170 362V-174Q170 -185 159 -185H81Z" />
<glyph unicode="q" horiz-adv-x="543" d="M384 -185Q373 -185 373 -174V406Q350 410 324 413T275 416Q214 416 187 386T159 290V182Q159 126 177 101T235 75Q269 75 303 93T387 155L384 68Q340 26 297 7T206 -12Q131 -12 95 33T59 170V299Q59 401 110 451T267
502Q306 502 337 497T401 486T473 477V-174Q473 -185 462 -185H384Z" />
<glyph unicode="r" horiz-adv-x="360" d="M81 0Q70 0 70 11V369Q70 398 69 424T63 478Q61 490 74 490H145Q156 490 157 480Q161 462 163 438T165 397L170 342V11Q170 0 159 0H81ZM159 305L155 396Q176 427 203 450T258 488T310 502Q327 502 337 499Q345 496 346
487Q348 465 348 441T344 394Q342 382 330 385Q323 387 314 388T295 389Q271 389 247 379T201 350T159 305Z" />
<glyph unicode="s" horiz-adv-x="467" d="M234 -12Q140 -12 94 27T50 147Q50 157 61 157H138Q147 157 147 147Q147 106 168 88T235 69Q280 69 302 84T325 128Q325 150 312 164T269 191L155 239Q101 261 79 290T56 367Q56 434 99 468T229 502Q319 502 366 466T414
363Q414 353 403 353H326Q315 353 315 369Q315 394 294 407T233 421Q194 421 175 408T156 367Q156 347 167 337T211 311L325 264Q378 242 401 212T425 133Q425 63 376 26T234 -12Z" />
<glyph unicode="t" horiz-adv-x="389" d="M252 -12Q197 -12 165 5T119 59T104 151V405H28Q18 405 18 416V479Q18 490 28 490H107L119 610Q120 620 131 620H192Q203 620 203 610L204 490H347Q358 490 358 479V416Q358 405 347 405H204V155Q204 111 219 93T273 74Q292
74 311 78T346 90Q359 95 359 82V17Q359 8 351 5Q332 -2 308 -7T252 -12Z" />
<glyph unicode="u" horiz-adv-x="544" d="M203 -12Q138 -12 104 30T70 154V479Q70 490 81 490H159Q170 490 170 479V165Q170 119 186 97T236 75Q272 75 307 97T393 171V87Q363 56 332 34T269 0T203 -12ZM402 0Q390 0 389 10Q386 29 384 49T381 90L374 136V479Q374
490 385 490H463Q474 490 474 479V123Q474 95 475 67T481 11Q483 0 469 0H402Z" />
<glyph unicode="v" d="M198 0Q188 0 185 9L24 478Q20 490 32 490H116Q126 490 129 481L211 216Q221 182 231 148T251 79H253Q262 114 272 147T293 215L375 481Q378 490 388 490H472Q484 490 480 478L318 9Q315 0 305 0H198Z" />
<glyph unicode="w" horiz-adv-x="727" d="M183 0Q174 0 171 9L25 478Q22 490 34 490H117Q126 490 129 480L202 219Q210 187 218 155T235 90H237Q247 121 256 152T276 215L324 368L296 468Q293 480 305 480H380Q389 480 392 471L459 215Q467 183 474 152T490 90H492Q500
122 508 154T525 218L598 480Q601 490 610 490H694Q706 490 702 478L556 9Q553 0 544 0H444Q435 0 432 9L404 103Q394 137 386 172T367 249H365Q356 207 346 173T325 106L294 9Q291 0 282 0H183Z" />
<glyph unicode="x" horiz-adv-x="489" d="M18 0Q12 0 10 4T12 13L182 252L23 477Q19 482 21 486T30 490H123Q131 490 135 483L199 390Q210 373 222 354T244 318H245Q258 337 271 356T296 395L356 483Q361 490 369 490H457Q464 490 466 486T464 477L305 255L478
13Q482 8 480 4T471 0H378Q370 0 366 7L305 94Q290 117 275 140T243 187H242Q228 164 213 141T183 94L123 7Q119 0 110 0H18Z" />
<glyph unicode="y" d="M144 -185Q131 -185 136 -172L206 5L22 477Q17 490 30 490H115Q124 490 127 481L209 256Q221 225 231 191T252 124H254Q264 157 275 190T298 256L380 481Q383 490 392 490H474Q488 490 483 477L234 -176Q230 -185 222 -185H144Z" />
<glyph unicode="z" horiz-adv-x="468" d="M33 0Q22 0 22 10V12Q22 21 26 26L233 321Q247 341 262 362T292 404V405Q264 405 237 405T181 405H57Q46 405 46 416V479Q46 490 57 490H434Q445 490 445 480V477Q445 473 444 470T440 461L240 178Q224 155 209 132T175
86V85Q202 85 226 85T276 85H422Q432 85 432 74V11Q432 0 422 0H33Z" />
<glyph unicode="{" horiz-adv-x="277" d="M270 -152Q203 -152 166 -137T113 -81T98 34V165Q98 206 85 221T39 236H21Q10 236 10 247V307Q10 318 21 318H39Q71 318 84 333T98 389V521Q98 597 113 637T166 692T270 707Q281 707 281 696V638Q281 627 270 627Q239
627 223 620T200 594T194 542V390Q194 341 180 315T133 277Q164 268 179 241T194 164V13Q194 -22 200 -40T223 -65T270 -72Q281 -72 281 -83V-141Q281 -152 270 -152Z" />
<glyph unicode="|" horiz-adv-x="259" d="M91 -185Q80 -185 80 -174V819Q80 830 91 830H168Q179 830 179 819V-174Q179 -185 168 -185H91Z" />
<glyph unicode="}" horiz-adv-x="277" d="M7 -152Q-4 -152 -4 -141V-83Q-4 -72 7 -72Q37 -72 53 -66T76 -41T82 13V164Q82 213 97 240T144 277Q112 288 97 314T82 390V542Q82 576 77 594T55 619T7 627Q-4 627 -4 638V696Q-4 707 7 707Q73 707 110 692T163 637T179
521V389Q179 349 192 334T238 318H256Q267 318 267 307V247Q267 236 256 236H238Q205 236 192 221T179 165V34Q179 -40 164 -80T112 -136T7 -152Z" />
<glyph unicode="~" horiz-adv-x="600" d="M389 245Q358 245 337 249T298 259T260 269T209 273Q182 273 150 265T101 252Q90 249 90 260V321Q90 329 95 331Q108 337 138 347T211 357Q242 357 263 353T303 343T341 333T391 329Q419 329 451 337T499 350Q510 353
510 342V281Q510 272 503 269Q490 264 460 255T389 245Z" />
<glyph unicode="&#xa0;" horiz-adv-x="207" />
<glyph unicode="&#xa1;" horiz-adv-x="243" d="M84 283H159Q170 283 170 272L177 -154Q177 -165 166 -165H76Q66 -165 66 -154L73 272Q73 283 84 283ZM122 502Q155 502 170 486T186 441V428Q186 400 171 384T122 367Q89 367 74 383T58 428V441Q58 469 73 485T122 502Z" />
<glyph unicode="&#xa2;" horiz-adv-x="630" d="M279 531V618Q279 628 289 628H358Q368 628 368 618V534L279 531ZM289 -38Q279 -38 279 -28V59L368 56V-28Q368 -38 358 -38H289ZM319 38Q217 38 163 89T109 235V354Q109 450 163 501T321 552Q384 552 427 533T494
479T517 400Q517 378 506 378H429Q419 378 419 394Q419 428 393 446T321 465Q265 465 237 436T209 345V245Q209 184 237 155T320 125Q366 125 392 145T418 195Q418 211 428 211H505Q516 211 516 201Q517 126 467 82T319 38Z" />
<glyph unicode="&#xa3;" horiz-adv-x="630" d="M124 0Q113 0 113 11V63Q113 71 119 76Q141 101 151 126T161 179V469Q161 528 179 572T238 642T349 667Q405 667 445 650T508 594T529 488Q528 477 518 477H444Q434 477 434 488Q434 513 428 534T404 568T352 581Q300
581 280 553T260 460V196Q260 156 250 132T221 89H545Q556 89 556 78V11Q556 0 545 0H124ZM91 296Q80 296 80 307V366Q80 377 91 377H410Q420 377 420 366V307Q420 296 410 296H91Z" />
<glyph unicode="&#xa4;" horiz-adv-x="632" d="M138 106Q132 100 124 107L76 157Q70 164 77 171L139 225Q130 244 125 266T119 314Q119 339 124 361T139 403L77 457Q70 465 76 471L124 521Q132 529 138 522L197 469Q247 501 316 501Q384 501 434 469L494 522Q501
529 508 521L556 471Q563 465 555 457L492 403Q502 384 507 362T513 314Q513 289 508 267T492 225L555 171Q563 164 556 157L508 107Q501 99 494 106L434 159Q384 127 316 127Q247 127 197 159L138 106ZM316 209Q373 209 397 237T422 314Q422 363 398 391T316 419Q260
419 235 391T209 314Q209 266 234 238T316 209Z" />
<glyph unicode="&#xa5;" horiz-adv-x="632" d="M277 0Q266 0 266 11V225L63 642Q61 648 63 651T71 655H162Q171 655 174 647L275 420Q286 397 296 373T317 324H318Q328 348 338 372T359 421L460 647Q463 655 473 655H561Q567 655 569 652T569 642L367 225V11Q367
0 356 0H277ZM159 94Q149 94 149 105V158Q149 169 159 169H472Q483 169 483 158V105Q483 94 472 94H159ZM159 225Q149 225 149 236V289Q149 300 159 300H472Q483 300 483 289V236Q483 225 472 225H159Z" />
<glyph unicode="&#xa6;" horiz-adv-x="259" d="M91 301Q80 301 80 312V728Q80 739 91 739H168Q179 739 179 728V312Q179 301 168 301H91ZM91 -94Q80 -94 80 -83V333Q80 344 91 344H168Q179 344 179 333V-83Q179 -94 168 -94H91Z" />
<glyph unicode="&#xa7;" horiz-adv-x="488" d="M303 116L253 173Q308 182 333 201T359 260Q359 291 339 313T275 358L167 418Q134 436 112 456T78 502T67 558Q67 627 114 661T253 695Q349 695 394 657T440 555Q440 545 429 545H353Q342 545 342 556Q342 582 324
598T253 614Q167 614 167 556Q167 532 181 519T221 489L362 406Q386 393 408 374T444 327T458 261Q458 203 418 165T303 116ZM234 -118Q170 -118 129 -100T68 -51T48 22Q48 32 59 32H135Q146 32 146 21Q146 -4 165 -20T235 -37Q321 -37 321 22Q321 47 308 60T266
89L126 170Q102 184 80 203T43 250T29 316Q29 374 69 412T185 461L235 404Q179 395 154 376T129 317Q129 286 149 265T212 219L321 158Q370 131 395 100T421 19Q421 -49 374 -83T234 -118Z" />
<glyph unicode="&#xa8;" horiz-adv-x="352" d="M87 567Q57 567 44 582T30 622V634Q30 659 43 674T87 689Q117 689 130 674T144 634V622Q144 598 131 583T87 567ZM264 567Q235 567 221 582T207 622V634Q207 659 221 674T264 689Q294 689 308 674T322 634V622Q322
598 308 583T264 567Z" />
<glyph unicode="&#xa9;" horiz-adv-x="711" d="M356 -12Q257 -12 194 18T100 105T69 237V367Q69 444 99 499T193 585T356 616Q455 616 518 586T611 500T642 367V237Q642 161 612 105T518 19T356 -12ZM356 57Q460 57 513 102T566 233V371Q566 457 513 502T356 547Q252
547 199 502T145 371V233Q145 147 198 102T356 57ZM357 129Q291 129 255 164T219 263V341Q219 405 255 440T358 475Q423 475 458 445T494 358Q494 346 484 346H425Q416 346 416 358Q416 380 402 391T359 403Q328 403 313 387T297 335V269Q297 201 357 201Q387 201
401 212T415 246Q415 252 417 254T426 257H483Q493 257 493 246Q493 194 459 162T357 129Z" />
<glyph unicode="&#xaa;" horiz-adv-x="397" d="M143 318Q102 318 78 342T53 414Q53 470 88 495T204 527L256 532V549Q256 576 244 588T200 600Q145 600 146 567Q146 556 135 556H82Q71 556 70 570Q66 613 102 640T203 667Q269 667 302 638T335 548V412Q335 388
336 370T339 337Q341 325 329 325H277Q271 325 269 329T265 337Q264 342 263 352T260 373Q230 345 202 332T143 318ZM70 193Q59 193 59 204V256Q59 266 70 266H334Q344 266 344 256V204Q344 193 334 193H70ZM165 382Q182 382 206 394T256 431V479L207 474Q164 470
147 458T130 421Q130 400 139 391T165 382Z" />
<glyph unicode="&#xab;" horiz-adv-x="505" d="M350 91Q342 91 337 99L245 256Q240 263 245 271L337 428Q342 435 350 435H428Q433 435 436 432T436 422L349 263L435 104Q439 99 436 95T428 91H350ZM172 91Q164 91 159 99L66 256Q61 263 66 271L159 428Q164 435
172 435H250Q255 435 258 432T257 422L170 263L257 104Q260 99 258 95T250 91H172Z" />
<glyph unicode="&#xac;" horiz-adv-x="600" d="M435 108Q424 108 424 119V259H100Q90 259 90 270V330Q90 341 100 341H500Q510 341 510 330V119Q510 108 500 108H435Z" />
<glyph unicode="&#xad;" horiz-adv-x="488" d="M76 227Q65 227 65 238V293Q65 304 76 304H412Q423 304 423 293V238Q423 227 412 227H76Z" />
<glyph unicode="&#xae;" horiz-adv-x="592" d="M296 304Q182 304 130 355T77 490V521Q77 605 129 654T296 704Q411 704 464 654T517 520V488Q517 405 464 355T296 304ZM296 356Q377 356 419 389T462 483V525Q462 587 420 619T296 652Q215 652 174 621T133 526V485Q133
423 174 390T296 356ZM224 397Q214 397 214 406V607Q214 616 225 616H295Q349 616 372 599T395 546Q395 521 384 506T345 481L395 408Q399 404 398 401T390 397H355Q347 397 343 403L297 474H264V406Q264 397 254 397H224ZM264 513H299Q324 513 334 520T344 540V548Q344
564 334 570T298 577H264V513Z" />
<glyph unicode="&#xaf;" horiz-adv-x="283" d="M41 570Q30 570 30 581V639Q30 650 41 650H242Q253 650 253 639V581Q253 570 242 570H41Z" />
<glyph unicode="&#xb0;" horiz-adv-x="391" d="M196 393Q125 393 86 429T46 534V553Q46 621 85 657T196 694Q267 694 306 658T345 553V534Q345 466 306 430T196 393ZM196 460Q231 460 251 478T271 535V552Q271 591 252 609T196 627Q160 627 140 609T120 552V535Q120
496 140 478T196 460Z" />
<glyph unicode="&#xb1;" horiz-adv-x="600" d="M268 177Q257 177 257 188V324H101Q90 324 90 334V395Q90 406 101 406H257V541Q257 552 268 552H332Q343 552 343 541V406H499Q510 406 510 395V334Q510 324 499 324H343V188Q343 177 332 177H268ZM101 51Q90 51
90 61V121Q90 132 101 132H498Q508 132 508 121V61Q508 51 498 51H101Z" />
<glyph unicode="&#xb2;" horiz-adv-x="416" d="M69 349Q58 349 58 360V414Q58 449 73 475T111 520T162 555T213 585T252 615T267 651V663Q267 683 253 692T205 702Q174 702 159 691T143 651Q143 641 132 641H73Q62 641 62 652Q61 715 100 745T210 775Q280 775
315 747T351 662Q351 625 337 599T301 555T253 522T204 494T166 464T147 425H346Q357 425 357 414V360Q357 349 346 349H69Z" />
<glyph unicode="&#xb3;" horiz-adv-x="416" d="M200 342Q151 342 118 356T70 397T54 467Q55 478 65 478H125Q136 478 136 467Q136 436 152 426T200 416Q237 416 255 429T274 467V481Q274 505 257 516T203 528H148Q137 528 137 538V588Q137 598 148 598H201Q235
598 250 610T265 647V661Q265 681 250 691T199 701Q165 701 151 690T136 652Q136 641 125 641H66Q56 641 55 652Q54 714 91 744T204 775Q278 775 313 747T349 663Q349 629 337 606T302 569V567Q330 553 344 529T358 470Q358 407 318 375T200 342Z" />
<glyph unicode="&#xb4;" horiz-adv-x="228" d="M37 556Q26 556 31 567L98 691Q102 698 111 698H190Q196 698 197 695T195 687L109 563Q105 556 97 556H37Z" />
<glyph unicode="&#xb5;" horiz-adv-x="555" d="M81 -185Q70 -185 70 -174V479Q70 490 81 490H159Q170 490 170 479V174Q170 123 188 100T240 76Q274 76 311 97T374 153V479Q374 490 385 490H463Q474 490 474 479V125Q474 92 482 82T511 72Q518 72 525 73T541 75Q552
75 552 65V4Q552 0 550 -3T541 -7Q530 -9 516 -10T491 -12Q441 -12 414 9T385 73V74Q354 35 312 13T234 -10Q192 -10 166 12V-174Q166 -185 155 -185H81Z" />
<glyph unicode="&#xb6;" horiz-adv-x="618" d="M228 -185Q217 -185 217 -174V309H162Q113 309 83 328T38 380T23 452V540Q23 580 37 612T82 664T162 683H532Q543 683 543 672V-174Q543 -185 532 -185H457Q446 -185 446 -174V594H314V-174Q314 -185 304 -185H228Z" />
<glyph unicode="&#xb7;" horiz-adv-x="257" d="M128 190Q94 190 79 207T63 253V266Q63 295 78 312T128 329Q162 329 178 312T194 266V253Q194 224 178 207T128 190Z" />
<glyph unicode="&#xb8;" horiz-adv-x="214" d="M83 -197Q72 -197 61 -196T38 -193Q30 -192 30 -184V-143Q30 -134 38 -135Q45 -136 53 -136T67 -137Q88 -137 97 -131T107 -114V-102Q107 -88 99 -83T74 -77H51Q44 -77 44 -70Q44 -65 44 -60T46 -50L70 26Q72 33
79 33H134Q143 33 139 22L120 -39H129Q156 -39 170 -56T184 -102V-118Q184 -158 160 -177T83 -197Z" />
<glyph unicode="&#xb9;" horiz-adv-x="416" d="M76 349Q65 349 65 360V414Q65 425 76 425H171V676L82 649Q69 646 69 657V710Q69 723 79 726L219 769Q227 771 233 771H244Q255 771 255 761V425H340Q351 425 351 414V360Q351 349 340 349H76Z" />
<glyph unicode="&#xba;" horiz-adv-x="403" d="M200 318Q131 318 92 358T53 468V517Q53 587 92 627T200 667Q270 667 310 627T350 517V468Q350 398 310 358T200 318ZM70 193Q60 193 60 204V256Q60 266 70 266H331Q342 266 342 256V204Q342 193 331 193H70ZM200
390Q234 390 252 410T271 464V521Q271 557 253 576T200 595Q167 595 149 576T131 521V464Q131 429 149 410T200 390Z" />
<glyph unicode="&#xbb;" horiz-adv-x="505" d="M255 91Q250 91 248 95T248 104L335 263L248 422Q244 428 247 431T255 435H333Q341 435 346 428L439 271Q444 263 439 256L346 99Q341 91 333 91H255ZM77 91Q72 91 69 95T70 104L156 263L69 422Q66 428 69 431T77
435H155Q163 435 168 428L260 271Q265 263 260 256L168 99Q163 91 155 91H77Z" />
<glyph unicode="&#xbc;" horiz-adv-x="936" d="M76 236Q65 236 65 247V301Q65 312 76 312H171V563L82 536Q69 533 69 544V597Q69 610 79 613L219 656Q227 658 233 658H244Q255 658 255 648V312H340Q351 312 351 301V247Q351 236 340 236H76ZM287 -32Q275 -32 280
-20L465 351L626 680Q630 687 638 687H708Q713 687 715 684T715 675L538 324L369 -25Q366 -32 357 -32H287ZM782 0Q771 0 771 11V75H562Q551 75 551 85V92Q551 101 555 109L719 409Q725 419 733 419H798Q805 419 807 415T806 405L667 150H773L775 275Q775 286 785
286H843Q854 286 854 275V150H892Q903 150 903 139V85Q903 75 892 75H854V11Q854 0 843 0H782Z" />
<glyph unicode="&#xbd;" horiz-adv-x="983" d="M76 236Q65 236 65 247V301Q65 312 76 312H171V563L82 536Q69 533 69 544V597Q69 610 79 613L219 656Q227 658 233 658H244Q255 658 255 648V312H340Q351 312 351 301V247Q351 236 340 236H76ZM287 -32Q275 -32 280
-20L465 351L626 680Q630 687 638 687H708Q713 687 715 684T715 675L538 324L369 -25Q366 -32 357 -32H287ZM636 0Q625 0 625 11V65Q625 100 640 126T678 171T729 206T780 236T819 266T834 302V314Q834 334 820 343T772 353Q741 353 726 342T710 302Q710 292 699
292H640Q629 292 629 303Q628 366 667 396T777 426Q847 426 882 398T918 313Q918 276 904 250T868 206T820 173T771 145T733 115T714 76H913Q924 76 924 65V11Q924 0 913 0H636Z" />
<glyph unicode="&#xbe;" horiz-adv-x="925" d="M200 229Q151 229 118 243T70 284T54 354Q55 365 65 365H125Q136 365 136 354Q136 323 152 313T200 303Q237 303 255 316T274 354V368Q274 392 257 403T203 415H148Q137 415 137 425V475Q137 485 148 485H201Q235
485 250 497T265 534V548Q265 568 250 578T199 588Q165 588 151 577T136 539Q136 528 125 528H66Q56 528 55 539Q54 601 91 631T204 662Q278 662 313 634T349 550Q349 516 337 493T302 456V454Q330 440 344 416T358 357Q358 294 318 262T200 229ZM276 -32Q264 -32
269 -20L454 351L615 680Q619 687 627 687H697Q702 687 704 684T704 675L527 324L358 -25Q355 -32 346 -32H276ZM770 0Q759 0 759 11V75H550Q539 75 539 85V92Q539 101 543 109L707 409Q713 419 721 419H786Q793 419 795 415T794 405L655 150H761L763 275Q763 286
773 286H831Q842 286 842 275V150H880Q891 150 891 139V85Q891 75 880 75H842V11Q842 0 831 0H770Z" />
<glyph unicode="&#xbf;" horiz-adv-x="475" d="M309 283Q319 283 319 272V233Q319 201 302 175T259 127T208 82T165 33T147 -27Q147 -60 171 -77T242 -94Q300 -94 321 -68T343 8Q343 20 353 20H430Q437 20 439 16T441 6Q442 -87 392 -132T239 -177Q141 -177 94
-141T46 -36Q46 9 63 43T107 105T159 154T202 196T221 236L222 272Q222 283 233 283H309ZM267 502Q300 502 315 486T331 440V428Q331 399 316 383T267 366Q233 366 218 382T203 428V440Q203 469 218 485T267 502Z" />
<glyph unicode="&#xc0;" horiz-adv-x="572" d="M9 0Q-3 0 0 12L219 646Q222 655 231 655H338Q348 655 351 646L572 12Q575 0 563 0H477Q467 0 464 9L324 441Q314 472 304 503T284 566H282Q273 535 263 505T243 443L105 9Q102 0 92 0H9ZM132 146L154 231H413L436
146H132ZM276 709Q268 709 264 716L188 820Q185 825 186 829T193 833H275Q283 833 286 825L344 720Q346 716 345 713T338 709H276Z" />
<glyph unicode="&#xc1;" horiz-adv-x="572" d="M9 0Q-3 0 0 12L219 646Q222 655 231 655H338Q348 655 351 646L572 12Q575 0 563 0H477Q467 0 464 9L324 441Q314 472 304 503T284 566H282Q273 535 263 505T243 443L105 9Q102 0 92 0H9ZM132 146L154 231H413L436
146H132ZM230 709Q225 709 224 712T225 720L282 825Q287 833 294 833H375Q380 833 382 829T380 820L305 716Q301 709 293 709H230Z" />
<glyph unicode="&#xc2;" horiz-adv-x="572" d="M9 0Q-3 0 0 12L219 646Q222 655 231 655H338Q348 655 351 646L572 12Q575 0 563 0H477Q467 0 464 9L324 441Q314 472 304 503T284 566H282Q273 535 263 505T243 443L105 9Q102 0 92 0H9ZM132 146L154 231H413L436
146H132ZM155 716Q143 711 143 723V779Q143 786 150 790L278 847Q285 851 293 847L420 790Q427 786 427 779V723Q427 711 415 716L285 764L155 716Z" />
<glyph unicode="&#xc3;" horiz-adv-x="572" d="M9 0Q-3 0 0 12L219 646Q222 655 231 655H338Q348 655 351 646L572 12Q575 0 563 0H477Q467 0 464 9L324 441Q314 472 304 503T284 566H282Q273 535 263 505T243 443L105 9Q102 0 92 0H9ZM132 146L154 231H413L436
146H132ZM341 718Q319 718 302 725T267 738T229 744Q208 744 189 738T157 725Q144 718 144 732V784Q144 794 150 798Q162 804 182 814T231 824Q259 824 276 818T309 804T344 797Q364 797 384 803T415 817Q428 824 428 810V758Q428 750 422 744Q411 737 391 728T341
718Z" />
<glyph unicode="&#xc4;" horiz-adv-x="572" d="M9 0Q-3 0 0 12L219 646Q222 655 231 655H338Q348 655 351 646L572 12Q575 0 563 0H477Q467 0 464 9L324 441Q314 472 304 503T284 566H282Q273 535 263 505T243 443L105 9Q102 0 92 0H9ZM132 146L154 231H413L436
146H132ZM197 710Q167 710 154 725T140 765V777Q140 802 153 817T197 832Q227 832 240 817T254 777V765Q254 741 241 726T197 710ZM374 710Q344 710 331 725T317 765V777Q317 802 330 817T374 832Q404 832 417 817T431 777V765Q431 741 418 726T374 710Z" />
<glyph unicode="&#xc5;" horiz-adv-x="572" d="M572 12Q575 0 563 0H477Q467 0 464 9L420 146H148L105 9Q102 0 92 0H9Q-3 0 0 12L210 621Q191 633 181 652T171 698Q171 748 202 773T286 799Q339 799 370 774T402 698Q402 671 392 651T360 620L572 12ZM238 698Q238
678 249 665T286 652Q312 652 323 665T335 698Q335 718 324 731T286 744Q260 744 249 731T238 698ZM175 231H392L324 441Q314 472 304 503T284 566H282Q273 536 263 505T243 443L175 231Z" />
<glyph unicode="&#xc6;" horiz-adv-x="840" d="M9 0Q3 0 1 3T1 13L317 647Q321 655 330 655H762Q773 655 773 644V576Q773 565 762 565H484V375H738Q749 375 749 365V300Q749 289 738 289H484V90H762Q773 90 773 79V11Q773 0 762 0H395Q384 0 384 11V146H175L107
8Q103 0 95 0H9ZM215 231H384V481Q384 506 384 528T385 581H383Q373 557 362 533T340 483L215 231Z" />
<glyph unicode="&#xc7;" horiz-adv-x="638" d="M322 -12Q198 -12 133 49T68 228V426Q68 544 133 605T323 667Q404 667 464 640T553 563T573 442Q572 436 570 432T562 428H482Q471 428 472 439Q475 505 437 542T324 579Q249 579 209 540T169 426V229Q169 154 209
115T324 76Q400 76 439 113T472 216Q471 227 482 227H561Q571 227 573 213Q579 145 550 95T461 16T322 -12ZM310 -197Q299 -197 288 -196T265 -193Q257 -192 257 -184V-143Q257 -134 265 -135Q272 -136 280 -136T294 -137Q315 -137 324 -131T334 -114V-102Q334
-88 326 -83T301 -77H278Q271 -77 271 -70Q271 -65 271 -60T273 -50L297 26Q299 33 306 33H361Q370 33 366 22L347 -39H356Q383 -39 397 -56T411 -102V-118Q411 -158 387 -177T310 -197Z" />
<glyph unicode="&#xc8;" horiz-adv-x="536" d="M91 0Q80 0 80 11V644Q80 655 91 655H459Q469 655 469 644V576Q469 565 459 565H181V375H435Q445 375 445 365V300Q445 289 435 289H181V90H459Q469 90 469 79V11Q469 0 459 0H91ZM270 709Q262 709 258 716L182 820Q179
825 180 829T187 833H269Q277 833 280 825L338 720Q340 716 339 713T332 709H270Z" />
<glyph unicode="&#xc9;" horiz-adv-x="536" d="M91 0Q80 0 80 11V644Q80 655 91 655H459Q469 655 469 644V576Q469 565 459 565H181V375H435Q445 375 445 365V300Q445 289 435 289H181V90H459Q469 90 469 79V11Q469 0 459 0H91ZM224 709Q219 709 218 712T219 720L276
825Q281 833 288 833H369Q374 833 376 829T374 820L299 716Q295 709 287 709H224Z" />
<glyph unicode="&#xca;" horiz-adv-x="536" d="M91 0Q80 0 80 11V644Q80 655 91 655H459Q469 655 469 644V576Q469 565 459 565H181V375H435Q445 375 445 365V300Q445 289 435 289H181V90H459Q469 90 469 79V11Q469 0 459 0H91ZM149 716Q137 711 137 723V779Q137
786 144 790L272 847Q279 851 287 847L414 790Q421 786 421 779V723Q421 711 409 716L279 764L149 716Z" />
<glyph unicode="&#xcb;" horiz-adv-x="536" d="M91 0Q80 0 80 11V644Q80 655 91 655H459Q469 655 469 644V576Q469 565 459 565H181V375H435Q445 375 445 365V300Q445 289 435 289H181V90H459Q469 90 469 79V11Q469 0 459 0H91ZM190 710Q160 710 147 725T133 765V777Q133
802 146 817T190 832Q220 832 233 817T247 777V765Q247 741 234 726T190 710ZM367 710Q337 710 324 725T310 765V777Q310 802 323 817T367 832Q397 832 410 817T424 777V765Q424 741 411 726T367 710Z" />
<glyph unicode="&#xcc;" horiz-adv-x="261" d="M91 0Q80 0 80 11V644Q80 655 91 655H170Q181 655 181 644V11Q181 0 170 0H91ZM122 709Q114 709 110 716L34 820Q31 825 32 829T39 833H121Q129 833 132 825L190 720Q192 716 191 713T184 709H122Z" />
<glyph unicode="&#xcd;" horiz-adv-x="261" d="M91 0Q80 0 80 11V644Q80 655 91 655H170Q181 655 181 644V11Q181 0 170 0H91ZM76 709Q71 709 70 712T71 720L128 825Q133 833 140 833H221Q226 833 228 829T226 820L151 716Q147 709 139 709H76Z" />
<glyph unicode="&#xce;" horiz-adv-x="261" d="M91 0Q80 0 80 11V644Q80 655 91 655H170Q181 655 181 644V11Q181 0 170 0H91ZM257 716Q245 711 245 723V779Q245 786 252 790L380 847Q387 851 395 847L522 790Q529 786 529 779V723Q529 711 517 716L387 764L257 716Z" />
<glyph unicode="&#xcf;" horiz-adv-x="261" d="M91 0Q80 0 80 11V644Q80 655 91 655H170Q181 655 181 644V11Q181 0 170 0H91ZM299 710Q269 710 256 725T242 765V777Q242 802 255 817T299 832Q329 832 342 817T356 777V765Q356 741 343 726T299 710ZM476 710Q446
710 433 725T419 765V777Q419 802 432 817T476 832Q506 832 519 817T533 777V765Q533 741 520 726T476 710Z" />
<glyph unicode="&#xd0;" horiz-adv-x="645" d="M14 292Q3 292 3 303V361Q3 372 14 372H80H315Q325 372 325 361V303Q325 292 315 292H14ZM91 0Q80 0 80 11V644Q80 655 91 655H278Q432 655 508 584T584 367V313Q584 155 509 78T278 0H91ZM181 86H271Q380 86 431
140T483 309V371Q483 472 432 520T271 569H181V86Z" />
<glyph unicode="&#xd1;" horiz-adv-x="665" d="M91 0Q80 0 80 11V644Q80 655 91 655H218Q228 655 231 647L407 292Q425 256 439 226T465 169T487 117H489Q489 144 489 175T488 237T487 296V644Q487 655 497 655H575Q586 655 586 644V11Q586 0 575 0H449Q440 0
437 8L265 353Q249 385 235 416T206 477T179 537H177Q178 504 178 473T179 410T179 345V11Q179 0 168 0H91ZM389 718Q367 718 350 725T315 738T277 744Q256 744 237 738T205 725Q192 718 192 732V784Q192 794 198 798Q210 804 230 814T279 824Q307 824 324 818T357
804T392 797Q412 797 432 803T463 817Q476 824 476 810V758Q476 750 470 744Q459 737 439 728T389 718Z" />
<glyph unicode="&#xd2;" horiz-adv-x="646" d="M323 -12Q195 -12 132 50T68 228V427Q68 543 131 605T323 667Q451 667 514 605T578 427V228Q578 113 515 51T323 -12ZM323 77Q399 77 438 116T477 231V424Q477 500 438 539T323 578Q248 578 209 539T169 424V231Q169
156 208 117T323 77ZM314 709Q306 709 302 716L226 820Q223 825 224 829T231 833H313Q321 833 324 825L382 720Q384 716 383 713T376 709H314Z" />
<glyph unicode="&#xd3;" horiz-adv-x="646" d="M323 -12Q195 -12 132 50T68 228V427Q68 543 131 605T323 667Q451 667 514 605T578 427V228Q578 113 515 51T323 -12ZM323 77Q399 77 438 116T477 231V424Q477 500 438 539T323 578Q248 578 209 539T169 424V231Q169
156 208 117T323 77ZM268 709Q263 709 262 712T263 720L320 825Q325 833 332 833H413Q418 833 420 829T418 820L343 716Q339 709 331 709H268Z" />
<glyph unicode="&#xd4;" horiz-adv-x="646" d="M323 -12Q195 -12 132 50T68 228V427Q68 543 131 605T323 667Q451 667 514 605T578 427V228Q578 113 515 51T323 -12ZM323 77Q399 77 438 116T477 231V424Q477 500 438 539T323 578Q248 578 209 539T169 424V231Q169
156 208 117T323 77ZM193 716Q181 711 181 723V779Q181 786 188 790L316 847Q323 851 331 847L458 790Q465 786 465 779V723Q465 711 453 716L323 764L193 716Z" />
<glyph unicode="&#xd5;" horiz-adv-x="646" d="M323 -12Q195 -12 132 50T68 228V427Q68 543 131 605T323 667Q451 667 514 605T578 427V228Q578 113 515 51T323 -12ZM323 77Q399 77 438 116T477 231V424Q477 500 438 539T323 578Q248 578 209 539T169 424V231Q169
156 208 117T323 77ZM379 718Q357 718 340 725T305 738T267 744Q246 744 227 738T195 725Q182 718 182 732V784Q182 794 188 798Q200 804 220 814T269 824Q297 824 314 818T347 804T382 797Q402 797 422 803T453 817Q466 824 466 810V758Q466 750 460 744Q449 737
429 728T379 718Z" />
<glyph unicode="&#xd6;" horiz-adv-x="646" d="M323 -12Q195 -12 132 50T68 228V427Q68 543 131 605T323 667Q451 667 514 605T578 427V228Q578 113 515 51T323 -12ZM323 77Q399 77 438 116T477 231V424Q477 500 438 539T323 578Q248 578 209 539T169 424V231Q169
156 208 117T323 77ZM235 710Q205 710 192 725T178 765V777Q178 802 191 817T235 832Q265 832 278 817T292 777V765Q292 741 279 726T235 710ZM412 710Q382 710 369 725T355 765V777Q355 802 368 817T412 832Q442 832 455 817T469 777V765Q469 741 456 726T412
710Z" />
<glyph unicode="&#xd7;" horiz-adv-x="600" d="M173 130L130 173Q123 181 130 188L242 301L130 412Q123 420 130 428L173 470Q181 478 188 470L301 359L412 470Q420 478 428 470L470 428Q478 420 470 412L359 301L470 188Q478 181 470 173L428 130Q420 123 412
130L301 242L188 130Q181 123 173 130Z" />
<glyph unicode="&#xd8;" horiz-adv-x="646" d="M55 -50Q49 -50 47 -47T48 -37L128 89L166 146L435 577L457 619L506 698Q511 705 519 705H591Q598 705 599 702T598 692L518 564L483 512L216 87L190 37L140 -43Q136 -50 127 -50H55ZM323 -12Q195 -12 132 50T68
228V427Q68 543 131 605T323 667Q451 667 514 605T578 427V228Q578 113 515 51T323 -12ZM323 77Q399 77 438 116T477 231V424Q477 500 438 539T323 578Q248 578 209 539T169 424V231Q169 156 208 117T323 77Z" />
<glyph unicode="&#xd9;" horiz-adv-x="647" d="M324 -12Q204 -12 140 49T75 229V644Q75 655 86 655H165Q176 655 176 644V229Q176 156 213 116T324 76Q397 76 434 116T472 229V644Q472 655 482 655H562Q573 655 573 644V228Q573 114 507 51T324 -12ZM315 709Q307
709 303 716L227 820Q224 825 225 829T232 833H314Q322 833 325 825L383 720Q385 716 384 713T377 709H315Z" />
<glyph unicode="&#xda;" horiz-adv-x="647" d="M324 -12Q204 -12 140 49T75 229V644Q75 655 86 655H165Q176 655 176 644V229Q176 156 213 116T324 76Q397 76 434 116T472 229V644Q472 655 482 655H562Q573 655 573 644V228Q573 114 507 51T324 -12ZM269 709Q264
709 263 712T264 720L321 825Q326 833 333 833H414Q419 833 421 829T419 820L344 716Q340 709 332 709H269Z" />
<glyph unicode="&#xdb;" horiz-adv-x="647" d="M324 -12Q204 -12 140 49T75 229V644Q75 655 86 655H165Q176 655 176 644V229Q176 156 213 116T324 76Q397 76 434 116T472 229V644Q472 655 482 655H562Q573 655 573 644V228Q573 114 507 51T324 -12ZM194 716Q182
711 182 723V779Q182 786 189 790L317 847Q324 851 332 847L459 790Q466 786 466 779V723Q466 711 454 716L324 764L194 716Z" />
<glyph unicode="&#xdc;" horiz-adv-x="647" d="M324 -12Q204 -12 140 49T75 229V644Q75 655 86 655H165Q176 655 176 644V229Q176 156 213 116T324 76Q397 76 434 116T472 229V644Q472 655 482 655H562Q573 655 573 644V228Q573 114 507 51T324 -12ZM235 710Q205
710 192 725T178 765V777Q178 802 191 817T235 832Q265 832 278 817T292 777V765Q292 741 279 726T235 710ZM412 710Q382 710 369 725T355 765V777Q355 802 368 817T412 832Q442 832 455 817T469 777V765Q469 741 456 726T412 710Z" />
<glyph unicode="&#xdd;" horiz-adv-x="548" d="M234 0Q223 0 223 11V225L10 642Q7 648 9 651T17 655H109Q118 655 121 647L222 438Q235 411 248 382T274 326H275Q289 355 302 383T329 441L428 647Q432 655 441 655H531Q536 655 538 652T538 642L324 225V11Q324
0 314 0H234ZM219 709Q214 709 213 712T214 720L271 825Q276 833 283 833H364Q369 833 371 829T369 820L294 716Q290 709 282 709H219Z" />
<glyph unicode="&#xde;" horiz-adv-x="551" d="M91 0Q80 0 80 11V644Q80 655 91 655H170Q181 655 181 644V548H266Q391 548 452 495T514 339Q514 238 452 185T266 132H181V11Q181 0 170 0H91ZM181 217H264Q341 217 377 246T413 337Q413 403 377 432T263 462H181V217Z" />
<glyph unicode="&#xdf;" horiz-adv-x="549" d="M353 -12Q301 -12 269 1T221 42T206 112Q207 122 218 122H287Q297 122 297 111Q297 91 311 80T353 69Q386 69 403 84T420 129Q420 162 403 184T361 224T311 260T269 303T252 362Q252 393 265 414T297 454T328 494T342
545Q342 578 322 595T261 613Q214 613 192 587T170 506V11Q170 0 159 0H81Q70 0 70 11V498Q70 600 117 647T261 695Q318 695 358 679T420 630T442 552Q442 512 429 486T398 442T367 408T353 374Q353 354 370 337T411 302T461 260T502 206T519 128Q519 60 478 24T353
-12Z" />
<glyph unicode="&#xe0;" horiz-adv-x="499" d="M356 0Q350 0 348 4T343 14Q342 23 339 48T334 95L329 134V333Q329 380 311 399T246 419Q162 419 163 360Q163 349 153 349H76Q65 349 64 367Q59 429 109 465T249 502Q341 502 385 461T429 334V123Q429 89 431 61T436
12Q438 0 425 0H356ZM165 -12Q106 -12 75 23T44 126Q44 178 64 211T129 262T251 286L345 294L344 226L254 218Q191 213 167 195T142 135Q142 103 155 87T195 71Q226 71 260 92T348 169L350 92Q316 56 287 33T228 -1T165 -12ZM241 556Q233 556 229 563L143 687Q140
691 141 694T148 698H227Q237 698 240 691L307 567Q313 556 302 556H241Z" />
<glyph unicode="&#xe1;" horiz-adv-x="499" d="M356 0Q350 0 348 4T343 14Q342 23 339 48T334 95L329 134V333Q329 380 311 399T246 419Q162 419 163 360Q163 349 153 349H76Q65 349 64 367Q59 429 109 465T249 502Q341 502 385 461T429 334V123Q429 89 431 61T436
12Q438 0 425 0H356ZM165 -12Q106 -12 75 23T44 126Q44 178 64 211T129 262T251 286L345 294L344 226L254 218Q191 213 167 195T142 135Q142 103 155 87T195 71Q226 71 260 92T348 169L350 92Q316 56 287 33T228 -1T165 -12ZM189 556Q178 556 183 567L250 691Q254
698 263 698H342Q348 698 349 695T347 687L261 563Q257 556 249 556H189Z" />
<glyph unicode="&#xe2;" horiz-adv-x="499" d="M356 0Q350 0 348 4T343 14Q342 23 339 48T334 95L329 134V333Q329 380 311 399T246 419Q162 419 163 360Q163 349 153 349H76Q65 349 64 367Q59 429 109 465T249 502Q341 502 385 461T429 334V123Q429 89 431 61T436
12Q438 0 425 0H356ZM165 -12Q106 -12 75 23T44 126Q44 178 64 211T129 262T251 286L345 294L344 226L254 218Q191 213 167 195T142 135Q142 103 155 87T195 71Q226 71 260 92T348 169L350 92Q316 56 287 33T228 -1T165 -12ZM126 551Q114 545 114 556V612Q114 622
121 626L239 693Q246 698 254 693L371 626Q378 622 378 612V556Q378 545 366 551L246 611L126 551Z" />
<glyph unicode="&#xe3;" horiz-adv-x="499" d="M356 0Q350 0 348 4T343 14Q342 23 339 48T334 95L329 134V333Q329 380 311 399T246 419Q162 419 163 360Q163 349 153 349H76Q65 349 64 367Q59 429 109 465T249 502Q341 502 385 461T429 334V123Q429 89 431 61T436
12Q438 0 425 0H356ZM165 -12Q106 -12 75 23T44 126Q44 178 64 211T129 262T251 286L345 294L344 226L254 218Q191 213 167 195T142 135Q142 103 155 87T195 71Q226 71 260 92T348 169L350 92Q316 56 287 33T228 -1T165 -12ZM297 566Q277 566 261 572T228 585T193
592Q176 592 158 585T127 573Q114 567 114 579V631Q114 641 120 645Q130 653 150 662T195 671Q221 671 237 665T268 652T299 645Q316 645 335 652T365 664Q378 670 378 658V606Q378 597 372 592Q362 584 343 575T297 566Z" />
<glyph unicode="&#xe4;" horiz-adv-x="499" d="M356 0Q350 0 348 4T343 14Q342 23 339 48T334 95L329 134V333Q329 380 311 399T246 419Q162 419 163 360Q163 349 153 349H76Q65 349 64 367Q59 429 109 465T249 502Q341 502 385 461T429 334V123Q429 89 431 61T436
12Q438 0 425 0H356ZM165 -12Q106 -12 75 23T44 126Q44 178 64 211T129 262T251 286L345 294L344 226L254 218Q191 213 167 195T142 135Q142 103 155 87T195 71Q226 71 260 92T348 169L350 92Q316 56 287 33T228 -1T165 -12ZM156 567Q126 567 113 582T99 622V634Q99
659 112 674T156 689Q186 689 199 674T213 634V622Q213 598 200 583T156 567ZM333 567Q304 567 290 582T276 622V634Q276 659 290 674T333 689Q363 689 377 674T391 634V622Q391 598 377 583T333 567Z" />
<glyph unicode="&#xe5;" horiz-adv-x="499" d="M356 0Q350 0 348 4T343 14Q342 23 339 48T334 95L329 134V333Q329 380 311 399T246 419Q162 419 163 360Q163 349 153 349H76Q65 349 64 367Q59 429 109 465T249 502Q341 502 385 461T429 334V123Q429 89 431 61T436
12Q438 0 425 0H356ZM165 -12Q106 -12 75 23T44 126Q44 178 64 211T129 262T251 286L345 294L344 226L254 218Q191 213 167 195T142 135Q142 103 155 87T195 71Q226 71 260 92T348 169L350 92Q316 56 287 33T228 -1T165 -12ZM246 552Q193 552 162 578T130 653Q130
702 161 727T246 753Q298 753 329 728T361 653Q361 604 330 578T246 552ZM246 608Q271 608 282 620T293 653Q293 673 282 685T246 698Q220 698 209 686T198 653Q198 633 209 621T246 608Z" />
<glyph unicode="&#xe6;" horiz-adv-x="783" d="M162 -12Q105 -12 75 23T44 126Q44 179 64 212T130 264T251 290L329 297V333Q329 380 311 399T246 419Q204 419 183 404T163 360Q163 349 153 349H76Q65 349 64 367Q61 408 81 438T143 485T240 502Q292 502 328 486T385
436Q409 468 450 485T541 502Q630 502 679 452T728 310V236Q728 225 717 225H425V189Q425 126 449 99T527 72Q570 72 594 86T619 124Q619 140 630 140H708Q718 140 718 118Q718 58 666 23T521 -12Q453 -12 410 12T347 84Q299 35 254 12T162 -12ZM196 71Q224 71
254 89T331 152Q330 163 330 176T329 200V225L254 218Q191 212 167 195T142 135Q142 103 155 87T196 71ZM425 298H629V300Q629 360 605 389T531 418Q479 418 452 389T425 299V298Z" />
<glyph unicode="&#xe7;" horiz-adv-x="521" d="M268 -12Q165 -12 111 39T57 185V304Q57 400 112 451T269 502Q332 502 376 483T443 429T466 350Q465 328 455 328H378Q368 328 368 344Q368 378 342 396T270 415Q213 415 185 386T157 295V195Q157 134 185 105T269
75Q315 75 341 95T367 145Q367 161 377 161H454Q464 161 465 151Q466 76 416 32T268 -12ZM251 -197Q240 -197 229 -196T206 -193Q198 -192 198 -184V-143Q198 -134 206 -135Q213 -136 221 -136T235 -137Q256 -137 265 -131T275 -114V-102Q275 -88 267 -83T242 -77H219Q212
-77 212 -70Q212 -65 212 -60T214 -50L238 26Q240 33 247 33H302Q311 33 307 22L288 -39H297Q324 -39 338 -56T352 -102V-118Q352 -158 328 -177T251 -197Z" />
<glyph unicode="&#xe8;" horiz-adv-x="524" d="M264 -12Q162 -12 110 34T57 171V304Q57 401 109 451T263 502Q364 502 416 453T468 310V232Q468 221 458 221H157V189Q157 128 183 100T267 72Q311 72 335 86T359 129Q359 140 371 140H448Q457 140 459 130Q463 63
411 26T264 -12ZM157 297H369V302Q369 362 343 390T264 418Q210 418 184 389T157 302V297ZM256 566Q248 566 244 573L158 697Q155 701 156 704T163 708H242Q252 708 255 701L322 577Q328 566 317 566H256Z" />
<glyph unicode="&#xe9;" horiz-adv-x="524" d="M264 -12Q162 -12 110 34T57 171V304Q57 401 109 451T263 502Q364 502 416 453T468 310V232Q468 221 458 221H157V189Q157 128 183 100T267 72Q311 72 335 86T359 129Q359 140 371 140H448Q457 140 459 130Q463 63
411 26T264 -12ZM157 297H369V302Q369 362 343 390T264 418Q210 418 184 389T157 302V297ZM203 566Q192 566 197 577L264 701Q268 708 277 708H356Q362 708 363 705T361 697L275 573Q271 566 263 566H203Z" />
<glyph unicode="&#xea;" horiz-adv-x="524" d="M264 -12Q162 -12 110 34T57 171V304Q57 401 109 451T263 502Q364 502 416 453T468 310V232Q468 221 458 221H157V189Q157 128 183 100T267 72Q311 72 335 86T359 129Q359 140 371 140H448Q457 140 459 130Q463 63
411 26T264 -12ZM157 297H369V302Q369 362 343 390T264 418Q210 418 184 389T157 302V297ZM140 561Q128 555 128 566V622Q128 632 135 636L253 703Q260 708 268 703L385 636Q392 632 392 622V566Q392 555 380 561L260 621L140 561Z" />
<glyph unicode="&#xeb;" horiz-adv-x="524" d="M264 -12Q162 -12 110 34T57 171V304Q57 401 109 451T263 502Q364 502 416 453T468 310V232Q468 221 458 221H157V189Q157 128 183 100T267 72Q311 72 335 86T359 129Q359 140 371 140H448Q457 140 459 130Q463 63
411 26T264 -12ZM157 297H369V302Q369 362 343 390T264 418Q210 418 184 389T157 302V297ZM171 577Q141 577 128 592T114 632V644Q114 669 127 684T171 699Q201 699 214 684T228 644V632Q228 608 215 593T171 577ZM348 577Q319 577 305 592T291 632V644Q291 669
305 684T348 699Q378 699 392 684T406 644V632Q406 608 392 593T348 577Z" />
<glyph unicode="&#xec;" horiz-adv-x="240" d="M81 0Q70 0 70 11V479Q70 490 81 490H159Q170 490 170 479V11Q170 0 159 0H81ZM371 556Q363 556 359 563L273 687Q270 691 271 694T278 698H357Q367 698 370 691L437 567Q443 556 432 556H371Z" />
<glyph unicode="&#xed;" horiz-adv-x="240" d="M81 0Q70 0 70 11V479Q70 490 81 490H159Q170 490 170 479V11Q170 0 159 0H81ZM63 556Q52 556 57 567L124 691Q128 698 137 698H216Q222 698 223 695T221 687L135 563Q131 556 123 556H63Z" />
<glyph unicode="&#xee;" horiz-adv-x="240" d="M81 0Q70 0 70 11V479Q70 490 81 490H159Q170 490 170 479V11Q170 0 159 0H81ZM256 551Q244 545 244 556V612Q244 622 251 626L369 693Q376 698 384 693L501 626Q508 622 508 612V556Q508 545 496 551L376 611L256 551Z" />
<glyph unicode="&#xef;" horiz-adv-x="240" d="M81 0Q70 0 70 11V479Q70 490 81 490H159Q170 490 170 479V11Q170 0 159 0H81ZM287 567Q257 567 244 582T230 622V634Q230 659 243 674T287 689Q317 689 330 674T344 634V622Q344 598 331 583T287 567ZM464 567Q435
567 421 582T407 622V634Q407 659 421 674T464 689Q494 689 508 674T522 634V622Q522 598 508 583T464 567Z" />
<glyph unicode="&#xf0;" horiz-adv-x="533" d="M265 -12Q162 -12 110 35T57 180V275Q57 371 99 418T215 465Q265 465 309 446T384 387V294Q358 334 319 356T240 378Q200 378 179 350T157 263V185Q157 124 183 99T266 73Q323 73 350 105T378 201V309Q384 372 372
423T333 515T264 582T170 622Q159 625 157 629T158 640L191 687Q195 693 199 694T212 693Q295 677 354 628T444 509T476 355V197Q476 96 422 42T265 -12ZM193 510Q185 506 180 517L162 554Q159 562 168 566L434 692Q442 696 447 685L464 647Q467 639 458 635L193
510Z" />
<glyph unicode="&#xf1;" horiz-adv-x="557" d="M398 0Q387 0 387 11V325Q387 371 369 392T311 414Q274 414 238 393T152 321L150 402Q182 436 212 458T273 491T340 502Q412 502 449 461T487 336V11Q487 0 477 0H398ZM81 0Q70 0 70 11V366Q70 394 68 425T63 476Q61
490 74 490H145Q155 490 157 480Q159 471 161 455T165 421T167 390L170 358V11Q170 0 159 0H81ZM332 566Q312 566 296 572T263 585T228 592Q211 592 193 585T162 573Q149 567 149 579V631Q149 641 155 645Q165 653 185 662T230 671Q256 671 272 665T303 652T334
645Q351 645 370 652T400 664Q413 670 413 658V606Q413 597 407 592Q397 584 378 575T332 566Z" />
<glyph unicode="&#xf2;" horiz-adv-x="539" d="M270 -12Q167 -12 112 38T57 189V301Q57 402 111 452T270 502Q373 502 427 452T482 301V189Q482 88 428 38T270 -12ZM270 75Q329 75 355 105T382 198V292Q382 354 356 384T270 415Q210 415 184 385T157 292V198Q157
135 183 105T270 75ZM265 556Q257 556 253 563L167 687Q164 691 165 694T172 698H251Q261 698 264 691L331 567Q337 556 326 556H265Z" />
<glyph unicode="&#xf3;" horiz-adv-x="539" d="M270 -12Q167 -12 112 38T57 189V301Q57 402 111 452T270 502Q373 502 427 452T482 301V189Q482 88 428 38T270 -12ZM270 75Q329 75 355 105T382 198V292Q382 354 356 384T270 415Q210 415 184 385T157 292V198Q157
135 183 105T270 75ZM213 556Q202 556 207 567L274 691Q278 698 287 698H366Q372 698 373 695T371 687L285 563Q281 556 273 556H213Z" />
<glyph unicode="&#xf4;" horiz-adv-x="539" d="M270 -12Q167 -12 112 38T57 189V301Q57 402 111 452T270 502Q373 502 427 452T482 301V189Q482 88 428 38T270 -12ZM270 75Q329 75 355 105T382 198V292Q382 354 356 384T270 415Q210 415 184 385T157 292V198Q157
135 183 105T270 75ZM150 551Q138 545 138 556V612Q138 622 145 626L263 693Q270 698 278 693L395 626Q402 622 402 612V556Q402 545 390 551L270 611L150 551Z" />
<glyph unicode="&#xf5;" horiz-adv-x="539" d="M270 -12Q167 -12 112 38T57 189V301Q57 402 111 452T270 502Q373 502 427 452T482 301V189Q482 88 428 38T270 -12ZM270 75Q329 75 355 105T382 198V292Q382 354 356 384T270 415Q210 415 184 385T157 292V198Q157
135 183 105T270 75ZM321 566Q301 566 285 572T252 585T217 592Q200 592 182 585T151 573Q138 567 138 579V631Q138 641 144 645Q154 653 174 662T219 671Q245 671 261 665T292 652T323 645Q340 645 359 652T389 664Q402 670 402 658V606Q402 597 396 592Q386 584
367 575T321 566Z" />
<glyph unicode="&#xf6;" horiz-adv-x="539" d="M270 -12Q167 -12 112 38T57 189V301Q57 402 111 452T270 502Q373 502 427 452T482 301V189Q482 88 428 38T270 -12ZM270 75Q329 75 355 105T382 198V292Q382 354 356 384T270 415Q210 415 184 385T157 292V198Q157
135 183 105T270 75ZM180 567Q150 567 137 582T123 622V634Q123 659 136 674T180 689Q210 689 223 674T237 634V622Q237 598 224 583T180 567ZM357 567Q328 567 314 582T300 622V634Q300 659 314 674T357 689Q387 689 401 674T415 634V622Q415 598 401 583T357
567Z" />
<glyph unicode="&#xf7;" horiz-adv-x="600" d="M101 259Q90 259 90 270V331Q90 342 101 342H499Q510 342 510 331V270Q510 259 499 259H101ZM300 100Q272 100 258 113T244 149V165Q244 187 258 200T300 214Q329 214 342 201T356 165V149Q356 127 343 114T300 100ZM300
386Q272 386 258 399T244 434V451Q244 473 258 486T300 500Q329 500 342 487T356 451V434Q356 413 343 400T300 386Z" />
<glyph unicode="&#xf8;" horiz-adv-x="539" d="M17 -51Q10 -51 8 -47T10 -38L104 88L133 119L351 413L382 463L434 533Q440 540 448 540H523Q529 540 531 537T529 527L441 409L399 360L191 80L162 31L105 -45Q101 -51 91 -51H17ZM270 -12Q167 -12 112 38T57 189V301Q57
402 111 452T270 502Q373 502 427 452T482 301V189Q482 88 428 38T270 -12ZM270 75Q329 75 355 105T382 198V292Q382 354 356 384T270 415Q210 415 184 385T157 292V198Q157 135 183 105T270 75Z" />
<glyph unicode="&#xf9;" horiz-adv-x="544" d="M203 -12Q138 -12 104 30T70 154V479Q70 490 81 490H159Q170 490 170 479V165Q170 119 186 97T236 75Q272 75 307 97T393 171V87Q363 56 332 34T269 0T203 -12ZM402 0Q390 0 389 10Q386 29 384 49T381 90L374 136V479Q374
490 385 490H463Q474 490 474 479V123Q474 95 475 67T481 11Q483 0 469 0H402ZM267 556Q259 556 255 563L169 687Q166 691 167 694T174 698H253Q263 698 266 691L333 567Q339 556 328 556H267Z" />
<glyph unicode="&#xfa;" horiz-adv-x="544" d="M203 -12Q138 -12 104 30T70 154V479Q70 490 81 490H159Q170 490 170 479V165Q170 119 186 97T236 75Q272 75 307 97T393 171V87Q363 56 332 34T269 0T203 -12ZM402 0Q390 0 389 10Q386 29 384 49T381 90L374 136V479Q374
490 385 490H463Q474 490 474 479V123Q474 95 475 67T481 11Q483 0 469 0H402ZM215 556Q204 556 209 567L276 691Q280 698 289 698H368Q374 698 375 695T373 687L287 563Q283 556 275 556H215Z" />
<glyph unicode="&#xfb;" horiz-adv-x="544" d="M203 -12Q138 -12 104 30T70 154V479Q70 490 81 490H159Q170 490 170 479V165Q170 119 186 97T236 75Q272 75 307 97T393 171V87Q363 56 332 34T269 0T203 -12ZM402 0Q390 0 389 10Q386 29 384 49T381 90L374 136V479Q374
490 385 490H463Q474 490 474 479V123Q474 95 475 67T481 11Q483 0 469 0H402ZM152 551Q140 545 140 556V612Q140 622 147 626L265 693Q272 698 280 693L397 626Q404 622 404 612V556Q404 545 392 551L272 611L152 551Z" />
<glyph unicode="&#xfc;" horiz-adv-x="544" d="M203 -12Q138 -12 104 30T70 154V479Q70 490 81 490H159Q170 490 170 479V165Q170 119 186 97T236 75Q272 75 307 97T393 171V87Q363 56 332 34T269 0T203 -12ZM402 0Q390 0 389 10Q386 29 384 49T381 90L374 136V479Q374
490 385 490H463Q474 490 474 479V123Q474 95 475 67T481 11Q483 0 469 0H402ZM183 567Q153 567 140 582T126 622V634Q126 659 139 674T183 689Q213 689 226 674T240 634V622Q240 598 227 583T183 567ZM360 567Q331 567 317 582T303 622V634Q303 659 317 674T360
689Q390 689 404 674T418 634V622Q418 598 404 583T360 567Z" />
<glyph unicode="&#xfd;" d="M144 -185Q131 -185 136 -172L206 5L22 477Q17 490 30 490H115Q124 490 127 481L209 256Q221 225 231 191T252 124H254Q264 157 275 190T298 256L380 481Q383 490 392 490H474Q488 490 483 477L234 -176Q230 -185 222 -185H144ZM193
556Q182 556 187 567L254 691Q258 698 267 698H346Q352 698 353 695T351 687L265 563Q261 556 253 556H193Z" />
<glyph unicode="&#xfe;" horiz-adv-x="539" d="M81 -185Q70 -185 70 -174V672Q70 683 81 683H159Q170 683 170 672V433Q211 468 249 485T331 502Q404 502 441 457T479 320V189Q479 90 434 39T301 -12Q269 -12 233 -4T170 17V-174Q170 -185 159 -185H81ZM276 74Q330
74 354 105T379 200V308Q379 363 360 388T302 414Q273 414 243 399T170 346V98Q195 86 223 80T276 74Z" />
<glyph unicode="&#xff;" d="M144 -185Q131 -185 136 -172L206 5L22 477Q17 490 30 490H115Q124 490 127 481L209 256Q221 225 231 191T252 124H254Q264 157 275 190T298 256L380 481Q383 490 392 490H474Q488 490 483 477L234 -176Q230 -185 222 -185H144ZM161
567Q131 567 118 582T104 622V634Q104 659 117 674T161 689Q191 689 204 674T218 634V622Q218 598 205 583T161 567ZM338 567Q309 567 295 582T281 622V634Q281 659 295 674T338 689Q368 689 382 674T396 634V622Q396 598 382 583T338 567Z" />
<glyph unicode="&#x2013;" horiz-adv-x="739" d="M76 227Q65 227 65 238V293Q65 304 76 304H663Q673 304 673 293V238Q673 227 663 227H76Z" />
<glyph unicode="&#x2014;" horiz-adv-x="879" d="M76 227Q65 227 65 238V293Q65 304 76 304H803Q813 304 813 293V238Q813 227 803 227H76Z" />
<glyph unicode="&#x2018;" horiz-adv-x="246" d="M207 655Q220 655 217 642L166 411Q164 402 156 402H63Q49 402 54 416L131 647Q134 655 141 655H207Z" />
<glyph unicode="&#x2019;" horiz-adv-x="246" d="M39 402Q26 402 29 415L80 645Q82 655 91 655H183Q197 655 192 640L116 410Q113 402 105 402H39Z" />
<glyph unicode="&#x201a;" horiz-adv-x="246" d="M39 -133Q26 -133 29 -120L80 110Q82 120 91 120H183Q197 120 192 105L116 -125Q113 -133 105 -133H39Z" />
<glyph unicode="&#x201c;" horiz-adv-x="418" d="M379 655Q392 655 389 642L338 411Q336 402 327 402H234Q220 402 226 416L302 647Q305 655 313 655H379ZM207 655Q220 655 217 642L166 411Q164 402 156 402H63Q49 402 54 416L131 647Q134 655 141 655H207Z" />
<glyph unicode="&#x201d;" horiz-adv-x="418" d="M39 402Q26 402 29 415L80 645Q82 655 91 655H183Q197 655 192 640L116 410Q113 402 105 402H39ZM210 402Q197 402 200 415L251 645Q253 655 262 655H354Q368 655 363 640L287 410Q284 402 276 402H210Z" />
<glyph unicode="&#x201e;" horiz-adv-x="418" d="M39 -133Q26 -133 29 -120L80 110Q82 120 91 120H183Q197 120 192 105L116 -125Q113 -133 105 -133H39ZM210 -133Q197 -133 200 -120L251 110Q253 120 262 120H354Q368 120 363 105L287 -125Q284 -133 276 -133H210Z" />
<glyph unicode="&#x2022;" horiz-adv-x="311" d="M155 166Q112 166 88 186T63 242V285Q63 322 87 342T155 362Q200 362 224 342T248 285V242Q248 206 224 186T155 166Z" />
<glyph unicode="&#x2039;" horiz-adv-x="327" d="M172 91Q164 91 159 99L66 256Q61 263 66 271L159 428Q164 435 172 435H250Q255 435 258 432T257 422L170 263L257 104Q260 99 258 95T250 91H172Z" />
<glyph unicode="&#x203a;" horiz-adv-x="327" d="M77 91Q72 91 69 95T70 104L156 263L69 422Q66 428 69 431T77 435H155Q163 435 168 428L260 271Q265 263 260 256L168 99Q163 91 155 91H77Z" />
</font>
</defs>
</svg>
